<?xml version="1.0" encoding="UTF-8"?>
<svg xmlns="http://www.w3.org/2000/svg" xmlns:xlink="http://www.w3.org/1999/xlink" width="244pt" height="277pt" viewBox="0 0 176 200" version="1.1">
<defs>
<clipPath id="clip1">
  <path d="M -217 665 L 395 665 L 395 -127 L -217 -127 L -217 665 Z M -217 665 "/>
</clipPath>
<clipPath id="clip2">
  <path d="M 0.0390625 199.957031 L 177.210938 199.957031 L 177.210938 -2.199219 L 0.0390625 -2.199219 L 0.0390625 199.957031 Z M 0.0390625 199.957031 "/>
</clipPath>
</defs>
<g id="surface0">
<g clip-path="url(#clip1)" clip-rule="nonzero">
<g clip-path="url(#clip2)" clip-rule="nonzero">
<path style="fill:none;stroke-width:5;stroke-linecap:butt;stroke-linejoin:miter;stroke:rgb(13.730068%,12.159915%,12.54902%);stroke-opacity:1;stroke-miterlimit:4;" d="M 9.991822 1759.267331 L 9.991822 9.983017 L 555.699463 9.983017 C 555.699463 9.983017 555.699463 32.133258 555.699463 41.488639 C 562.062498 41.454244 568.735086 41.385455 568.735086 41.385455 C 568.735086 41.385455 599.793576 41.901377 599.793576 41.901377 C 636.767969 45.100092 678.316868 50.328099 703.356271 71.824839 C 741.431296 104.499883 758.628688 145.257702 768.740755 188.113603 " transform="matrix(0.113571,0,0,-0.113571,0.041,199.958)"/>
<path style="fill:none;stroke-width:5;stroke-linecap:butt;stroke-linejoin:miter;stroke:rgb(13.730068%,12.159915%,12.54902%);stroke-opacity:1;stroke-miterlimit:4;" d="M 20.000704 1759.267331 L 20.000704 19.991899 L 545.690581 19.991899 L 545.690581 51.531916 C 567.015347 52.288601 577.67773 49.984151 598.933707 51.841469 C 629.166722 54.489868 672.916887 58.8924 696.821262 79.391691 C 763.719116 136.83098 762.928036 220.651068 777.47703 299.621492 C 783.496117 332.193353 789.068072 364.868397 795.121554 397.474652 C 817.203005 516.308631 841.210564 646.286519 868.072891 764.157443 C 868.072891 764.157443 1013.975564 1322.48797 1082.317999 1334.147802 C 1082.317999 1334.147802 1125.655427 1335.798751 1135.664309 1272.477954 " transform="matrix(0.113571,0,0,-0.113571,0.041,199.958)"/>
<path style="fill:none;stroke-width:5;stroke-linecap:butt;stroke-linejoin:miter;stroke:rgb(13.730068%,12.159915%,12.54902%);stroke-opacity:1;stroke-miterlimit:4;" d="M 714.465786 198.432038 C 708.205935 161.664014 692.28115 135.008057 667.138563 119.186456 C 627.06864 93.940685 574.203857 102.092248 555.699463 106.013254 C 555.699463 121.80046 555.699463 1754.830403 555.699463 1754.830403 " transform="matrix(0.113571,0,0,-0.113571,0.041,199.958)"/>
<path style="fill:none;stroke-width:5;stroke-linecap:butt;stroke-linejoin:miter;stroke:rgb(13.730068%,12.159915%,12.54902%);stroke-opacity:1;stroke-miterlimit:4;" d="M 545.690581 1754.830403 L 545.690581 98.033664 C 545.690581 98.033664 699.951187 53.733182 724.337089 196.746694 C 733.589286 259.379595 744.217274 321.806128 755.292394 384.163871 C 779.471927 520.092057 806.678201 655.573111 838.596561 789.884742 C 872.441028 932.210357 910.27529 1074.914316 964.619049 1210.980081 C 985.668657 1263.707284 1009.229084 1316.331304 1040.597126 1363.8305 C 1052.497722 1381.818972 1065.56774 1399.876234 1081.320551 1414.73478 C 1115.233807 1446.756324 1141.305054 1409.747537 1166.482035 1366.650873 " transform="matrix(0.113571,0,0,-0.113571,0.041,199.958)"/>
<path style="fill:none;stroke-width:5;stroke-linecap:butt;stroke-linejoin:miter;stroke:rgb(13.730068%,12.159915%,12.54902%);stroke-opacity:1;stroke-miterlimit:4;" d="M 545.690581 1581.10235 C 545.690581 1559.089688 527.495741 1541.101216 505.27671 1541.101216 L 60.414575 1541.101216 C 38.195545 1541.101216 20.000704 1559.089688 20.000704 1581.10235 " transform="matrix(0.113571,0,0,-0.113571,0.041,199.958)"/>
<path style="fill:none;stroke-width:5;stroke-linecap:butt;stroke-linejoin:miter;stroke:rgb(13.730068%,12.159915%,12.54902%);stroke-opacity:1;stroke-miterlimit:4;" d="M 95.290886 1434.752545 L 149.565855 1434.752545 " transform="matrix(0.113571,0,0,-0.113571,0.041,199.958)"/>
<path style="fill:none;stroke-width:5;stroke-linecap:butt;stroke-linejoin:miter;stroke:rgb(13.730068%,12.159915%,12.54902%);stroke-opacity:1;stroke-miterlimit:4;" d="M 285.769199 1434.752545 L 340.044168 1434.752545 " transform="matrix(0.113571,0,0,-0.113571,0.041,199.958)"/>
<path style="fill:none;stroke-width:5;stroke-linecap:butt;stroke-linejoin:miter;stroke:rgb(13.730068%,12.159915%,12.54902%);stroke-opacity:1;stroke-miterlimit:4;" d="M 212.680284 1322.900707 L 266.955253 1322.900707 " transform="matrix(0.113571,0,0,-0.113571,0.041,199.958)"/>
<path style="fill:none;stroke-width:5;stroke-linecap:butt;stroke-linejoin:miter;stroke:rgb(13.730068%,12.159915%,12.54902%);stroke-opacity:1;stroke-miterlimit:4;" d="M 397.621037 1322.900707 L 451.896006 1322.900707 " transform="matrix(0.113571,0,0,-0.113571,0.041,199.958)"/>
<path style="fill:none;stroke-width:5;stroke-linecap:butt;stroke-linejoin:miter;stroke:rgb(13.730068%,12.159915%,12.54902%);stroke-opacity:1;stroke-miterlimit:4;" d="M 104.715057 1214.935481 L 158.955631 1214.935481 " transform="matrix(0.113571,0,0,-0.113571,0.041,199.958)"/>
<path style="fill:none;stroke-width:5;stroke-linecap:butt;stroke-linejoin:miter;stroke:rgb(13.730068%,12.159915%,12.54902%);stroke-opacity:1;stroke-miterlimit:4;" d="M 316.242978 1214.935481 L 370.483552 1214.935481 " transform="matrix(0.113571,0,0,-0.113571,0.041,199.958)"/>
<path style="fill:none;stroke-width:5;stroke-linecap:butt;stroke-linejoin:miter;stroke:rgb(13.730068%,12.159915%,12.54902%);stroke-opacity:1;stroke-miterlimit:4;" d="M 201.330005 1100.022508 L 290.206127 1100.022508 " transform="matrix(0.113571,0,0,-0.113571,0.041,199.958)"/>
<path style="fill:none;stroke-width:5;stroke-linecap:butt;stroke-linejoin:miter;stroke:rgb(13.730068%,12.159915%,12.54902%);stroke-opacity:1;stroke-miterlimit:4;" d="M 422.798018 1100.022508 L 511.708535 1100.022508 " transform="matrix(0.113571,0,0,-0.113571,0.041,199.958)"/>
<path style="fill:none;stroke-width:5;stroke-linecap:butt;stroke-linejoin:miter;stroke:rgb(13.730068%,12.159915%,12.54902%);stroke-opacity:1;stroke-miterlimit:4;" d="M 79.778839 986.210168 L 158.405315 986.210168 " transform="matrix(0.113571,0,0,-0.113571,0.041,199.958)"/>
<path style="fill:none;stroke-width:5;stroke-linecap:butt;stroke-linejoin:miter;stroke:rgb(13.730068%,12.159915%,12.54902%);stroke-opacity:1;stroke-miterlimit:4;" d="M 295.743687 986.210168 L 358.858115 986.210168 " transform="matrix(0.113571,0,0,-0.113571,0.041,199.958)"/>
<path style="fill:none;stroke-width:5;stroke-linecap:butt;stroke-linejoin:miter;stroke:rgb(13.730068%,12.159915%,12.54902%);stroke-opacity:1;stroke-miterlimit:4;" d="M 231.49423 878.795258 L 283.567933 878.795258 " transform="matrix(0.113571,0,0,-0.113571,0.041,199.958)"/>
<path style="fill:none;stroke-width:5;stroke-linecap:butt;stroke-linejoin:miter;stroke:rgb(13.730068%,12.159915%,12.54902%);stroke-opacity:1;stroke-miterlimit:4;" d="M 390.982843 878.795258 L 488.423266 878.795258 " transform="matrix(0.113571,0,0,-0.113571,0.041,199.958)"/>
<path style="fill:none;stroke-width:5;stroke-linecap:butt;stroke-linejoin:miter;stroke:rgb(13.730068%,12.159915%,12.54902%);stroke-opacity:1;stroke-miterlimit:4;" d="M 93.055225 766.943421 L 150.666488 766.943421 " transform="matrix(0.113571,0,0,-0.113571,0.041,199.958)"/>
<path style="fill:none;stroke-width:5;stroke-linecap:butt;stroke-linejoin:miter;stroke:rgb(13.730068%,12.159915%,12.54902%);stroke-opacity:1;stroke-miterlimit:4;" d="M 304.617541 766.943421 L 362.194409 766.943421 " transform="matrix(0.113571,0,0,-0.113571,0.041,199.958)"/>
<path style="fill:none;stroke-width:5;stroke-linecap:butt;stroke-linejoin:miter;stroke:rgb(13.730068%,12.159915%,12.54902%);stroke-opacity:1;stroke-miterlimit:4;" d="M 474.046246 766.943421 L 531.623115 766.943421 " transform="matrix(0.113571,0,0,-0.113571,0.041,199.958)"/>
<path style="fill:none;stroke-width:5;stroke-linecap:butt;stroke-linejoin:miter;stroke:rgb(13.730068%,12.159915%,12.54902%);stroke-opacity:1;stroke-miterlimit:4;" d="M 402.057964 658.393483 L 467.373658 658.393483 " transform="matrix(0.113571,0,0,-0.113571,0.041,199.958)"/>
<path style="fill:none;stroke-width:5;stroke-linecap:butt;stroke-linejoin:miter;stroke:rgb(13.730068%,12.159915%,12.54902%);stroke-opacity:1;stroke-miterlimit:4;" d="M 239.267452 658.393483 L 273.593446 658.393483 " transform="matrix(0.113571,0,0,-0.113571,0.041,199.958)"/>
<path style="fill:none;stroke-width:5;stroke-linecap:butt;stroke-linejoin:miter;stroke:rgb(13.730068%,12.159915%,12.54902%);stroke-opacity:1;stroke-miterlimit:4;" d="M 118.54176 555.4155 L 163.942875 555.4155 " transform="matrix(0.113571,0,0,-0.113571,0.041,199.958)"/>
<path style="fill:none;stroke-width:5;stroke-linecap:butt;stroke-linejoin:miter;stroke:rgb(13.730068%,12.159915%,12.54902%);stroke-opacity:1;stroke-miterlimit:4;" d="M 291.30676 555.4155 L 354.421188 555.4155 " transform="matrix(0.113571,0,0,-0.113571,0.041,199.958)"/>
<path style="fill:none;stroke-width:5;stroke-linecap:butt;stroke-linejoin:miter;stroke:rgb(13.730068%,12.159915%,12.54902%);stroke-opacity:1;stroke-miterlimit:4;" d="M 443.022151 555.4155 L 506.13658 555.4155 " transform="matrix(0.113571,0,0,-0.113571,0.041,199.958)"/>
<path style="fill:none;stroke-width:5;stroke-linecap:butt;stroke-linejoin:miter;stroke:rgb(13.730068%,12.159915%,12.54902%);stroke-opacity:1;stroke-miterlimit:4;" d="M 412.032451 443.563663 L 480.134123 443.563663 " transform="matrix(0.113571,0,0,-0.113571,0.041,199.958)"/>
<path style="fill:none;stroke-width:5;stroke-linecap:butt;stroke-linejoin:miter;stroke:rgb(13.730068%,12.159915%,12.54902%);stroke-opacity:1;stroke-miterlimit:4;" d="M 211.579651 443.563663 L 267.505569 443.563663 " transform="matrix(0.113571,0,0,-0.113571,0.041,199.958)"/>
<path style="fill:none;stroke-width:5;stroke-linecap:butt;stroke-linejoin:miter;stroke:rgb(13.730068%,12.159915%,12.54902%);stroke-opacity:1;stroke-miterlimit:4;" d="M 60.964892 327.274899 L 134.053808 327.274899 " transform="matrix(0.113571,0,0,-0.113571,0.041,199.958)"/>
<path style="fill:none;stroke-width:5;stroke-linecap:butt;stroke-linejoin:miter;stroke:rgb(13.730068%,12.159915%,12.54902%);stroke-opacity:1;stroke-miterlimit:4;" d="M 270.257152 327.274899 L 361.059381 327.274899 " transform="matrix(0.113571,0,0,-0.113571,0.041,199.958)"/>
<path style="fill:none;stroke-width:5;stroke-linecap:butt;stroke-linejoin:miter;stroke:rgb(13.730068%,12.159915%,12.54902%);stroke-opacity:1;stroke-miterlimit:4;" d="M 193.831942 218.759355 L 269.156519 218.759355 " transform="matrix(0.113571,0,0,-0.113571,0.041,199.958)"/>
<path style="fill:none;stroke-width:5;stroke-linecap:butt;stroke-linejoin:miter;stroke:rgb(13.730068%,12.159915%,12.54902%);stroke-opacity:1;stroke-miterlimit:4;" d="M 412.032451 218.759355 L 470.709952 218.759355 " transform="matrix(0.113571,0,0,-0.113571,0.041,199.958)"/>
<path style="fill:none;stroke-width:5;stroke-linecap:butt;stroke-linejoin:miter;stroke:rgb(13.730068%,12.159915%,12.54902%);stroke-opacity:1;stroke-miterlimit:4;" d="M 91.954592 126.822098 L 161.741609 126.822098 " transform="matrix(0.113571,0,0,-0.113571,0.041,199.958)"/>
<path style="fill:none;stroke-width:5;stroke-linecap:butt;stroke-linejoin:miter;stroke:rgb(13.730068%,12.159915%,12.54902%);stroke-opacity:1;stroke-miterlimit:4;" d="M 284.668566 126.822098 L 354.421188 126.822098 " transform="matrix(0.113571,0,0,-0.113571,0.041,199.958)"/>
<path style="fill:none;stroke-width:5;stroke-linecap:butt;stroke-linejoin:miter;stroke:rgb(13.730068%,12.159915%,12.54902%);stroke-opacity:1;stroke-miterlimit:4;" d="M 1337.320927 952.468885 C 1337.320927 952.468885 1360.674985 869.130324 1360.674985 845.81066 " transform="matrix(0.113571,0,0,-0.113571,0.041,199.958)"/>
<path style="fill:none;stroke-width:5;stroke-linecap:butt;stroke-linejoin:miter;stroke:rgb(13.730068%,12.159915%,12.54902%);stroke-opacity:1;stroke-miterlimit:4;" d="M 1412.335951 729.143553 C 1412.335951 729.143553 1420.659488 684.120781 1432.31932 657.464824 C 1443.979152 630.808866 1443.979152 587.471439 1443.979152 575.811607 " transform="matrix(0.113571,0,0,-0.113571,0.041,199.958)"/>
<path style="fill:none;stroke-width:5;stroke-linecap:butt;stroke-linejoin:miter;stroke:rgb(13.730068%,12.159915%,12.54902%);stroke-opacity:1;stroke-miterlimit:4;" d="M 1478.993042 472.489676 C 1478.993042 472.489676 1505.648999 422.47966 1505.648999 389.151115 C 1505.648999 355.822569 1533.990301 269.147714 1533.990301 252.466244 C 1533.990301 235.819168 1542.313839 222.473992 1542.313839 205.826917 " transform="matrix(0.113571,0,0,-0.113571,0.041,199.958)"/>
<path style="fill:none;stroke-width:5;stroke-linecap:butt;stroke-linejoin:miter;stroke:rgb(13.730068%,12.159915%,12.54902%);stroke-opacity:1;stroke-miterlimit:4;" d="M 1168.580117 1353.133723 C 1172.294754 1339.444599 1176.353338 1325.789869 1181.134213 1312.410298 C 1184.160954 1303.914787 1186.912537 1294.903353 1192.897229 1288.196371 C 1200.567266 1279.597675 1206.036037 1273.475403 1208.271698 1261.16207 " transform="matrix(0.113571,0,0,-0.113571,0.041,199.958)"/>
<path style="fill:none;stroke-width:5;stroke-linecap:butt;stroke-linejoin:miter;stroke:rgb(13.730068%,12.159915%,12.54902%);stroke-opacity:1;stroke-miterlimit:4;" d="M 1155.957232 1337.793649 C 1155.957232 1337.793649 1182.097267 1267.456316 1183.025927 1251.256373 " transform="matrix(0.113571,0,0,-0.113571,0.041,199.958)"/>
<path style="fill:none;stroke-width:5;stroke-linecap:butt;stroke-linejoin:miter;stroke:rgb(13.730068%,12.159915%,12.54902%);stroke-opacity:1;stroke-miterlimit:4;" d="M 1246.140355 776.023644 C 1246.140355 770.623663 1256.940317 727.32063 1257.868976 703.003518 C 1258.763241 678.652011 1258.763241 678.652011 1258.763241 678.652011 " transform="matrix(0.113571,0,0,-0.113571,0.041,199.958)"/>
<path style="fill:none;stroke-width:5;stroke-linecap:butt;stroke-linejoin:miter;stroke:rgb(13.730068%,12.159915%,12.54902%);stroke-opacity:1;stroke-miterlimit:4;" d="M 1265.057486 820.186546 C 1265.057486 820.186546 1265.057486 802.16368 1281.291824 751.672137 C 1297.526162 701.180594 1320.054745 645.28907 1320.054745 645.28907 " transform="matrix(0.113571,0,0,-0.113571,0.041,199.958)"/>
<path style="fill:none;stroke-width:5;stroke-linecap:butt;stroke-linejoin:miter;stroke:rgb(13.730068%,12.159915%,12.54902%);stroke-opacity:1;stroke-miterlimit:4;" d="M 1291.231917 721.026384 C 1291.231917 721.026384 1307.466255 651.583316 1311.971971 634.454713 " transform="matrix(0.113571,0,0,-0.113571,0.041,199.958)"/>
<path style="fill:none;stroke-width:5;stroke-linecap:butt;stroke-linejoin:miter;stroke:rgb(13.730068%,12.159915%,12.54902%);stroke-opacity:1;stroke-miterlimit:4;" d="M 1336.323478 771.517927 C 1336.323478 771.517927 1331.508209 738.154987 1347.12344 714.697744 C 1356.134874 701.180594 1353.452081 679.546275 1353.452081 679.546275 " transform="matrix(0.113571,0,0,-0.113571,0.041,199.958)"/>
<path style="fill:none;stroke-width:5;stroke-linecap:butt;stroke-linejoin:miter;stroke:rgb(13.730068%,12.159915%,12.54902%);stroke-opacity:1;stroke-miterlimit:4;" d="M 1292.126181 843.643789 C 1292.126181 843.643789 1303.854802 816.609489 1310.149048 796.763698 C 1316.477688 776.917908 1312.866236 755.283589 1312.866236 755.283589 " transform="matrix(0.113571,0,0,-0.113571,0.041,199.958)"/>
<path style="fill:none;stroke-width:5;stroke-linecap:butt;stroke-linejoin:miter;stroke:rgb(13.730068%,12.159915%,12.54902%);stroke-opacity:1;stroke-miterlimit:4;" d="M 1307.466255 938.332629 C 1307.466255 938.332629 1305.643331 920.309762 1320.054745 878.829653 C 1334.500555 837.349543 1336.323478 812.998036 1334.500555 808.49232 " transform="matrix(0.113571,0,0,-0.113571,0.041,199.958)"/>
<path style="fill:none;stroke-width:5;stroke-linecap:butt;stroke-linejoin:miter;stroke:rgb(13.730068%,12.159915%,12.54902%);stroke-opacity:1;stroke-miterlimit:4;" d="M 1323.666198 685.84052 C 1323.666198 685.84052 1332.712026 593.868868 1335.394819 560.505928 " transform="matrix(0.113571,0,0,-0.113571,0.041,199.958)"/>
<path style="fill:none;stroke-width:5;stroke-linecap:butt;stroke-linejoin:miter;stroke:rgb(13.730068%,12.159915%,12.54902%);stroke-opacity:1;stroke-miterlimit:4;" d="M 1219.106055 647.077599 L 1223.611771 480.262897 " transform="matrix(0.113571,0,0,-0.113571,0.041,199.958)"/>
<path style="fill:none;stroke-width:5;stroke-linecap:butt;stroke-linejoin:miter;stroke:rgb(13.730068%,12.159915%,12.54902%);stroke-opacity:1;stroke-miterlimit:4;" d="M 1274.103314 657.911956 L 1283.114748 520.848742 " transform="matrix(0.113571,0,0,-0.113571,0.041,199.958)"/>
<path style="fill:none;stroke-width:5;stroke-linecap:butt;stroke-linejoin:miter;stroke:rgb(13.730068%,12.159915%,12.54902%);stroke-opacity:1;stroke-miterlimit:4;" d="M 1367.863495 592.08034 C 1374.157741 574.160657 1380.314407 556.13779 1385.611204 537.908555 C 1388.947498 526.351908 1389.944946 518.544292 1389.188261 506.81567 C 1388.259602 491.509992 1394.93219 476.823419 1398.509248 462.24003 " transform="matrix(0.113571,0,0,-0.113571,0.041,199.958)"/>
<path style="fill:none;stroke-width:5;stroke-linecap:butt;stroke-linejoin:miter;stroke:rgb(13.730068%,12.159915%,12.54902%);stroke-opacity:1;stroke-miterlimit:4;" d="M 1415.63785 583.068906 C 1415.63785 583.068906 1421.96649 503.72014 1443.635204 443.288505 C 1465.269523 382.856869 1471.563768 338.693967 1471.563768 338.693967 " transform="matrix(0.113571,0,0,-0.113571,0.041,199.958)"/>
<path style="fill:none;stroke-width:5;stroke-linecap:butt;stroke-linejoin:miter;stroke:rgb(13.730068%,12.159915%,12.54902%);stroke-opacity:1;stroke-miterlimit:4;" d="M 1409.343604 404.525583 C 1409.343604 404.525583 1423.755019 366.622531 1418.355038 335.976779 " transform="matrix(0.113571,0,0,-0.113571,0.041,199.958)"/>
<path style="fill:none;stroke-width:5;stroke-linecap:butt;stroke-linejoin:miter;stroke:rgb(13.730068%,12.159915%,12.54902%);stroke-opacity:1;stroke-miterlimit:4;" d="M 1334.500555 523.531535 C 1334.500555 523.531535 1335.429214 489.274331 1339.900536 464.028559 C 1344.406252 438.782788 1344.406252 407.208376 1344.406252 407.208376 " transform="matrix(0.113571,0,0,-0.113571,0.041,199.958)"/>
<path style="fill:none;stroke-width:5;stroke-linecap:butt;stroke-linejoin:miter;stroke:rgb(13.730068%,12.159915%,12.54902%);stroke-opacity:1;stroke-miterlimit:4;" d="M 1350.734893 396.408414 C 1350.734893 396.408414 1352.523421 424.336979 1341.689065 458.628578 " transform="matrix(0.113571,0,0,-0.113571,0.041,199.958)"/>
<path style="fill:none;stroke-width:5;stroke-linecap:butt;stroke-linejoin:miter;stroke:rgb(13.730068%,12.159915%,12.54902%);stroke-opacity:1;stroke-miterlimit:4;" d="M 1231.694546 442.39424 C 1231.694546 442.39424 1228.117488 385.574057 1219.106055 346.811136 C 1210.060227 308.01382 1210.954491 262.027994 1210.954491 262.027994 " transform="matrix(0.113571,0,0,-0.113571,0.041,199.958)"/>
<path style="fill:none;stroke-width:5;stroke-linecap:butt;stroke-linejoin:miter;stroke:rgb(13.730068%,12.159915%,12.54902%);stroke-opacity:1;stroke-miterlimit:4;" d="M 1284.009012 489.274331 C 1284.009012 489.274331 1289.408993 446.899957 1289.408993 409.925564 C 1289.408993 372.951172 1282.220483 312.553931 1294.843369 304.436762 " transform="matrix(0.113571,0,0,-0.113571,0.041,199.958)"/>
<path style="fill:none;stroke-width:5;stroke-linecap:butt;stroke-linejoin:miter;stroke:rgb(13.730068%,12.159915%,12.54902%);stroke-opacity:1;stroke-miterlimit:4;" d="M 1304.714672 317.059648 C 1304.714672 320.636705 1296.631898 381.068341 1300.24335 445.077033 " transform="matrix(0.113571,0,0,-0.113571,0.041,199.958)"/>
<path style="fill:none;stroke-width:5;stroke-linecap:butt;stroke-linejoin:miter;stroke:rgb(13.730068%,12.159915%,12.54902%);stroke-opacity:1;stroke-miterlimit:4;" d="M 1338.112007 372.056907 C 1338.112007 372.056907 1353.417686 340.482496 1349.840628 317.953912 " transform="matrix(0.113571,0,0,-0.113571,0.041,199.958)"/>
<path style="fill:none;stroke-width:5;stroke-linecap:butt;stroke-linejoin:miter;stroke:rgb(13.730068%,12.159915%,12.54902%);stroke-opacity:1;stroke-miterlimit:4;" d="M 1329.994838 276.473803 C 1329.994838 276.473803 1339.006271 137.62206 1338.077612 155.644927 " transform="matrix(0.113571,0,0,-0.113571,0.041,199.958)"/>
<path style="fill:none;stroke-width:5;stroke-linecap:butt;stroke-linejoin:miter;stroke:rgb(13.730068%,12.159915%,12.54902%);stroke-opacity:1;stroke-miterlimit:4;" d="M 1383.203569 243.110862 C 1383.203569 243.110862 1382.27491 135.799137 1392.180607 139.410589 " transform="matrix(0.113571,0,0,-0.113571,0.041,199.958)"/>
<path style="fill:none;stroke-width:5;stroke-linecap:butt;stroke-linejoin:miter;stroke:rgb(13.730068%,12.159915%,12.54902%);stroke-opacity:1;stroke-miterlimit:4;" d="M 1412.955057 301.719574 C 1412.955057 301.719574 1430.083659 284.590972 1425.577942 253.945219 C 1425.577942 253.945219 1425.577942 225.98226 1433.695111 223.265072 " transform="matrix(0.113571,0,0,-0.113571,0.041,199.958)"/>
<path style="fill:none;stroke-width:5;stroke-linecap:butt;stroke-linejoin:miter;stroke:rgb(13.730068%,12.159915%,12.54902%);stroke-opacity:1;stroke-miterlimit:4;" d="M 1495.021011 240.393674 C 1495.021011 240.393674 1475.175221 306.225291 1474.246562 327.85961 " transform="matrix(0.113571,0,0,-0.113571,0.041,199.958)"/>
<path style="fill:none;stroke-width:5;stroke-linecap:butt;stroke-linejoin:miter;stroke:rgb(13.730068%,12.159915%,12.54902%);stroke-opacity:1;stroke-miterlimit:4;" d="M 1143.987847 1262.469072 C 1143.987847 1262.469072 1148.97509 1232.476821 1162.320267 1205.820863 C 1175.665443 1179.130511 1175.665443 1167.470679 1175.665443 1167.470679 " transform="matrix(0.113571,0,0,-0.113571,0.041,199.958)"/>
<path style="fill:none;stroke-width:5;stroke-linecap:butt;stroke-linejoin:miter;stroke:rgb(13.730068%,12.159915%,12.54902%);stroke-opacity:1;stroke-miterlimit:4;" d="M 1227.326408 1164.134385 C 1227.326408 1164.134385 1222.339164 1214.144401 1212.330282 1230.825871 " transform="matrix(0.113571,0,0,-0.113571,0.041,199.958)"/>
<path style="fill:none;stroke-width:5;stroke-linecap:butt;stroke-linejoin:miter;stroke:rgb(13.730068%,12.159915%,12.54902%);stroke-opacity:1;stroke-miterlimit:4;" d="M 1190.661569 1184.152149 C 1190.661569 1184.152149 1208.993988 1144.151016 1204.006745 1132.456789 " transform="matrix(0.113571,0,0,-0.113571,0.041,199.958)"/>
<path style="fill:none;stroke-width:5;stroke-linecap:butt;stroke-linejoin:miter;stroke:rgb(13.730068%,12.159915%,12.54902%);stroke-opacity:1;stroke-miterlimit:4;" d="M 1167.341905 1137.478428 C 1167.341905 1137.478428 1172.329149 1102.464538 1187.325274 1049.152623 " transform="matrix(0.113571,0,0,-0.113571,0.041,199.958)"/>
<path style="fill:none;stroke-width:5;stroke-linecap:butt;stroke-linejoin:miter;stroke:rgb(13.730068%,12.159915%,12.54902%);stroke-opacity:1;stroke-miterlimit:4;" d="M 1248.995122 1160.798091 C 1263.200168 1148.450364 1271.282942 1129.258074 1278.8154 1112.507814 C 1292.022997 1083.306643 1322.565565 1045.369196 1320.639457 1012.487783 " transform="matrix(0.113571,0,0,-0.113571,0.041,199.958)"/>
<path style="fill:none;stroke-width:5;stroke-linecap:butt;stroke-linejoin:miter;stroke:rgb(13.730068%,12.159915%,12.54902%);stroke-opacity:1;stroke-miterlimit:4;" d="M 1243.973484 1090.804706 C 1243.973484 1090.804706 1252.331416 1047.467278 1268.978491 1012.487783 C 1285.659962 977.473893 1277.336424 967.465011 1277.336424 967.465011 " transform="matrix(0.113571,0,0,-0.113571,0.041,199.958)"/>
<path style="fill:none;stroke-width:5;stroke-linecap:butt;stroke-linejoin:miter;stroke:rgb(13.730068%,12.159915%,12.54902%);stroke-opacity:1;stroke-miterlimit:4;" d="M 1265.642197 904.144214 C 1265.642197 904.144214 1263.991248 960.826818 1235.649946 1007.466145 C 1207.343039 1054.139866 1219.00287 1099.128244 1219.00287 1099.128244 " transform="matrix(0.113571,0,0,-0.113571,0.041,199.958)"/>
<path style="fill:none;stroke-width:5;stroke-linecap:butt;stroke-linejoin:miter;stroke:rgb(13.730068%,12.159915%,12.54902%);stroke-opacity:1;stroke-miterlimit:4;" d="M 1205.657694 1019.125976 C 1205.657694 1019.125976 1230.662702 922.476634 1230.662702 892.484382 C 1230.662702 862.49213 1243.973484 849.146954 1243.973484 849.146954 " transform="matrix(0.113571,0,0,-0.113571,0.041,199.958)"/>
<path style="fill:none;stroke-width:5;stroke-linecap:butt;stroke-linejoin:miter;stroke:rgb(13.730068%,12.159915%,12.54902%);stroke-opacity:1;stroke-miterlimit:4;" d="M 1182.338031 1014.138733 C 1182.338031 1014.138733 1198.985106 869.130324 1210.644938 834.150829 C 1226.053801 787.993029 1216.767209 735.369009 1222.339164 687.457075 " transform="matrix(0.113571,0,0,-0.113571,0.041,199.958)"/>
</g>
</g>
</g>
</svg>
