<?xml version="1.0" encoding="UTF-8"?>
<svg xmlns="http://www.w3.org/2000/svg" xmlns:xlink="http://www.w3.org/1999/xlink" width="147pt" height="255pt" viewBox="0 0 106 184" version="1.1">
<defs>
<clipPath id="clip1">
  <path d="M -252 666 L 360 666 L 360 -126 L -252 -126 L -252 666 Z M -252 666 "/>
</clipPath>
<clipPath id="clip2">
  <path d="M 0.617188 185.433594 L 106.628906 185.433594 L 106.628906 -1.199219 L 0.617188 -1.199219 L 0.617188 185.433594 Z M 0.617188 185.433594 "/>
</clipPath>
</defs>
<g id="surface0">
<g clip-path="url(#clip1)" clip-rule="nonzero">
<g clip-path="url(#clip2)" clip-rule="nonzero">
<path style="fill:none;stroke-width:5;stroke-linecap:butt;stroke-linejoin:miter;stroke:rgb(13.730068%,12.159915%,12.54902%);stroke-opacity:1;stroke-miterlimit:4;" d="M 606.542092 586.920571 C 606.542092 570.613873 545.913718 557.384578 471.171739 557.384578 C 396.394387 557.384578 335.801387 570.613873 335.801387 586.920571 C 335.801387 603.262641 396.394387 616.491936 471.171739 616.491936 C 545.913718 616.491936 606.542092 603.262641 606.542092 586.920571 Z M 606.542092 586.920571 " transform="matrix(0.110432,0,0,-0.110432,0.616,185.432)"/>
<path style="fill:none;stroke-width:5;stroke-linecap:butt;stroke-linejoin:miter;stroke:rgb(13.730068%,12.159915%,12.54902%);stroke-opacity:1;stroke-miterlimit:4;" d="M 606.542092 586.920571 L 606.542092 513.841097 C 606.542092 513.841097 467.351515 428.062914 333.891275 513.841097 L 335.801387 586.920571 " transform="matrix(0.110432,0,0,-0.110432,0.616,185.432)"/>
<path style="fill:none;stroke-width:5;stroke-linecap:butt;stroke-linejoin:miter;stroke:rgb(13.730068%,12.159915%,12.54902%);stroke-opacity:1;stroke-miterlimit:4;" d="M 606.542092 550.274717 C 637.386865 548.364604 661.369383 543.943049 680.894974 534.816957 C 738.09222 508.146133 829.600738 487.1349 938.264894 168.74751 C 457.800954 -132.519616 12.214247 155.023001 12.214247 155.023001 L 12.214247 155.023001 C 12.214247 155.023001 139.024468 548.965936 333.113081 548.965936 " transform="matrix(0.110432,0,0,-0.110432,0.616,185.432)"/>
<path style="fill:none;stroke-width:5;stroke-linecap:butt;stroke-linejoin:miter;stroke:rgb(13.730068%,12.159915%,12.54902%);stroke-opacity:1;stroke-miterlimit:4;" d="M 938.264894 168.74751 L 942.438842 153.749593 C 461.939531 -147.517533 4.326192 141.404609 4.326192 141.404609 L 12.214247 155.023001 " transform="matrix(0.110432,0,0,-0.110432,0.616,185.432)"/>
<path style="fill:none;stroke-width:5;stroke-linecap:butt;stroke-linejoin:miter;stroke:rgb(13.730068%,12.159915%,12.54902%);stroke-opacity:1;stroke-miterlimit:4;" d="M 655.53293 446.456586 C 655.53293 446.456586 766.602411 404.221885 795.041858 294.10746 " transform="matrix(0.110432,0,0,-0.110432,0.616,185.432)"/>
<path style="fill:none;stroke-width:5;stroke-linecap:butt;stroke-linejoin:miter;stroke:rgb(13.730068%,12.159915%,12.54902%);stroke-opacity:1;stroke-miterlimit:4;" d="M 633.495896 398.739156 C 633.495896 398.739156 679.409331 314.269754 685.811744 205.075012 " transform="matrix(0.110432,0,0,-0.110432,0.616,185.432)"/>
<path style="fill:none;stroke-width:5;stroke-linecap:butt;stroke-linejoin:miter;stroke:rgb(13.730068%,12.159915%,12.54902%);stroke-opacity:1;stroke-miterlimit:4;" d="M 350.799304 404.221885 C 350.799304 404.221885 304.001558 352.825721 281.04484 253.712126 " transform="matrix(0.110432,0,0,-0.110432,0.616,185.432)"/>
<path style="fill:none;stroke-width:5;stroke-linecap:butt;stroke-linejoin:miter;stroke:rgb(13.730068%,12.159915%,12.54902%);stroke-opacity:1;stroke-miterlimit:4;" d="M 279.205473 414.338405 C 279.205473 414.338405 200.289545 359.263506 169.055675 288.589358 " transform="matrix(0.110432,0,0,-0.110432,0.616,185.432)"/>
<path style=" stroke:none;fill-rule:nonzero;fill:rgb(100%,100%,100%);fill-opacity:1;" d="M 55.414063 120.8125 C 55.542969 120.75 55.417969 120.527344 55.417969 120.382813 C 55.425781 120.023438 55.429688 119.660156 55.433594 119.300781 C 55.441406 118.765625 55.449219 118.230469 55.457031 117.699219 C 55.46875 116.914063 55.480469 116.128906 55.492188 115.339844 C 55.503906 114.273438 55.519531 113.207031 55.535156 112.140625 C 55.550781 110.8125 55.570313 109.480469 55.585938 108.148438 C 55.605469 106.601563 55.625 105.054688 55.640625 103.507813 C 55.660156 101.808594 55.679688 100.113281 55.699219 98.414063 C 55.71875 96.617188 55.734375 94.824219 55.75 93.03125 C 55.765625 91.179688 55.78125 89.332031 55.796875 87.480469 C 55.808594 85.597656 55.824219 83.710938 55.835938 81.824219 C 55.847656 79.914063 55.855469 78 55.867188 76.089844 C 55.875 74.160156 55.882813 72.226563 55.890625 70.296875 C 55.898438 68.371094 55.902344 66.441406 55.90625 64.515625 C 55.90625 62.628906 55.90625 60.742188 55.902344 58.855469 C 55.898438 57.058594 55.894531 55.265625 55.882813 53.46875 C 55.871094 51.816406 55.855469 50.164063 55.835938 48.507813 C 55.816406 47.03125 55.792969 45.554688 55.765625 44.082031 C 55.738281 42.785156 55.703125 41.492188 55.664063 40.195313 C 55.628906 39.050781 55.589844 37.902344 55.546875 36.757813 C 55.503906 35.699219 55.5 34.628906 55.414063 33.574219 C 54.117188 17.425781 59.648438 4.308594 59.648438 4.308594 C 62.222656 0.257813 58.726563 0.996094 58.726563 0.996094 C 48.050781 13.695313 50.074219 32.835938 50.074219 32.835938 L 50.074219 121 C 50.074219 121 52.46875 122.285156 55.414063 120.8125 "/>
<path style="fill:none;stroke-width:5;stroke-linecap:butt;stroke-linejoin:miter;stroke:rgb(13.730068%,12.159915%,12.54902%);stroke-opacity:1;stroke-miterlimit:4;" d="M 496.215431 585.151949 C 497.382722 585.717908 496.250804 587.734137 496.250804 589.042918 C 496.321549 592.297183 496.356921 595.58682 496.392293 598.841085 C 496.463038 603.687111 496.533783 608.533136 496.604528 613.343788 C 496.710645 620.45365 496.816763 627.563512 496.92288 634.708746 C 497.028997 644.365424 497.170487 654.022102 497.311977 663.67878 C 497.453467 675.705411 497.630329 687.767416 497.771819 699.82942 C 497.948681 713.836909 498.125543 727.844397 498.267033 741.851886 C 498.443895 757.2389 498.620758 772.590542 498.79762 787.977556 C 498.974482 804.248882 499.115972 820.484835 499.257462 836.720787 C 499.398951 853.487327 499.540441 870.218494 499.681931 886.985034 C 499.788048 904.034553 499.929538 921.119445 500.035655 938.204336 C 500.141773 955.501462 500.212518 972.833961 500.318635 990.131087 C 500.38938 1007.605076 500.460125 1025.114437 500.53087 1042.588425 C 500.601615 1060.027042 500.636987 1077.50103 500.672359 1094.939646 C 500.672359 1112.024538 500.672359 1129.109429 500.636987 1146.194321 C 500.601615 1162.465646 500.566242 1178.701599 500.460125 1194.972925 C 500.354007 1209.935469 500.212518 1224.898014 500.035655 1239.895931 C 499.858793 1253.266716 499.646559 1266.637501 499.398951 1279.972913 C 499.151344 1291.716565 498.832992 1303.424845 498.479268 1315.168497 C 498.160916 1325.532624 497.807191 1335.932123 497.418094 1346.29625 C 497.028997 1355.882183 496.993625 1365.574233 496.215431 1375.124794 C 484.471779 1521.354487 534.559163 1640.135162 534.559163 1640.135162 C 557.869605 1676.816389 526.211266 1670.130997 526.211266 1670.130997 C 429.53837 1555.135174 447.861297 1381.810186 447.861297 1381.810186 L 447.861297 583.454071 C 447.861297 583.454071 469.544607 571.816536 496.215431 585.151949 Z M 496.215431 585.151949 " transform="matrix(0.110432,0,0,-0.110432,0.616,185.432)"/>
</g>
</g>
</g>
</svg>
