<?xml version="1.0" encoding="UTF-8"?>
<svg xmlns="http://www.w3.org/2000/svg" xmlns:xlink="http://www.w3.org/1999/xlink" width="269.01pt" height="186.54pt" viewBox="0 0 269.01 186.54" version="1.1">
<defs>
<clipPath id="clip1">
  <path d="M 0 0 L 269.011719 0 L 269.011719 186.539062 L 0 186.539062 Z M 0 0 "/>
</clipPath>
</defs>
<g id="surface1">
<g clip-path="url(#clip1)" clip-rule="nonzero">
<path style=" stroke:none;fill-rule:nonzero;fill:rgb(28.556824%,27.256775%,27.580261%);fill-opacity:1;" d="M 2.777344 29.664062 L 3.082031 29.84375 C -0.660156 36.308594 0.0273438 50.425781 4.925781 67.601562 C 14.636719 101.675781 42 150.03125 87.15625 174.15625 C 127.664062 195.800781 181.691406 184.023438 218.742188 165.785156 C 246.339844 152.199219 265.632812 134.625 267.902344 121.011719 C 270.488281 105.484375 260.460938 78.324219 242.351562 51.816406 C 223.824219 24.703125 202.441406 6.117188 186.546875 3.3125 C 157.730469 -1.769531 138.058594 1.25 102.34375 6.738281 C 94.929688 7.878906 86.527344 9.171875 77.285156 10.503906 C 67.214844 11.957031 58.648438 13.089844 51.089844 14.089844 C 18.738281 18.371094 8.976562 19.660156 3.082031 29.84375 Z M 137.925781 186.539062 C 120.050781 186.539062 102.445312 183.128906 86.824219 174.78125 C 41.472656 150.550781 13.996094 102.003906 4.246094 67.796875 C -0.703125 50.4375 -1.367188 36.117188 2.46875 29.488281 C 8.539062 19.007812 18.382812 17.703125 50.996094 13.386719 C 58.550781 12.390625 67.117188 11.253906 77.183594 9.804688 C 86.421875 8.472656 94.824219 7.179688 102.238281 6.039062 C 138.023438 0.539062 157.738281 -2.492188 186.667969 2.617188 C 205.886719 6.007812 228.335938 30.050781 242.933594 51.417969 C 261.144531 78.070312 271.21875 105.429688 268.601562 121.125 C 266.296875 134.960938 246.847656 152.738281 219.054688 166.421875 C 196.113281 177.714844 166.671875 186.539062 137.925781 186.539062 "/>
</g>
<path style=" stroke:none;fill-rule:nonzero;fill:rgb(28.556824%,27.256775%,27.580261%);fill-opacity:1;" d="M 47.964844 49.632812 L 49.253906 53.601562 L 53.421875 53.601562 L 50.046875 56.050781 L 51.335938 60.019531 L 47.964844 57.566406 L 44.589844 60.019531 L 45.878906 56.050781 L 42.503906 53.601562 L 46.675781 53.601562 "/>
<path style=" stroke:none;fill-rule:nonzero;fill:rgb(28.556824%,27.256775%,27.580261%);fill-opacity:1;" d="M 122.933594 31.660156 L 124.222656 35.628906 L 128.394531 35.628906 L 125.019531 38.078125 L 126.308594 42.046875 L 122.933594 39.59375 L 119.5625 42.046875 L 120.847656 38.078125 L 117.472656 35.628906 L 121.644531 35.628906 "/>
<path style=" stroke:none;fill-rule:nonzero;fill:rgb(28.556824%,27.256775%,27.580261%);fill-opacity:1;" d="M 177.363281 26.015625 L 178.652344 29.984375 L 182.824219 29.984375 L 179.449219 32.433594 L 180.738281 36.398438 L 177.363281 33.949219 L 173.988281 36.398438 L 175.28125 32.433594 L 171.90625 29.984375 L 176.074219 29.984375 "/>
<path style=" stroke:none;fill-rule:nonzero;fill:rgb(63.330078%,62.663269%,62.828064%);fill-opacity:1;" d="M 96.230469 53.742188 L 97.523438 57.710938 L 101.691406 57.710938 L 98.316406 60.164062 L 99.605469 64.128906 L 96.230469 61.675781 L 92.859375 64.128906 L 94.148438 60.164062 L 90.773438 57.710938 L 94.945312 57.710938 "/>
<path style=" stroke:none;fill-rule:nonzero;fill:rgb(63.330078%,62.663269%,62.828064%);fill-opacity:1;" d="M 105.988281 72.742188 L 107.277344 76.710938 L 111.445312 76.710938 L 108.070312 79.160156 L 109.363281 83.125 L 105.988281 80.675781 L 102.613281 83.125 L 103.902344 79.160156 L 100.527344 76.710938 L 104.699219 76.710938 "/>
<path style=" stroke:none;fill-rule:nonzero;fill:rgb(63.330078%,62.663269%,62.828064%);fill-opacity:1;" d="M 78.257812 93.28125 L 79.546875 97.25 L 83.71875 97.25 L 80.34375 99.699219 L 81.632812 103.667969 L 78.257812 101.214844 L 74.882812 103.667969 L 76.175781 99.699219 L 72.800781 97.25 L 76.972656 97.25 "/>
<path style=" stroke:none;fill-rule:nonzero;fill:rgb(28.556824%,27.256775%,27.580261%);fill-opacity:1;" d="M 108.554688 138.46875 L 109.84375 142.4375 L 114.015625 142.4375 L 110.640625 144.886719 L 111.929688 148.851562 L 108.554688 146.402344 L 105.179688 148.851562 L 106.472656 144.886719 L 103.097656 142.4375 L 107.265625 142.4375 "/>
<path style=" stroke:none;fill-rule:nonzero;fill:rgb(28.556824%,27.256775%,27.580261%);fill-opacity:1;" d="M 147.582031 85.578125 L 148.871094 89.546875 L 153.039062 89.546875 L 149.664062 91.996094 L 150.957031 95.964844 L 147.582031 93.511719 L 144.207031 95.964844 L 145.496094 91.996094 L 142.121094 89.546875 L 146.292969 89.546875 "/>
<path style=" stroke:none;fill-rule:nonzero;fill:rgb(28.556824%,27.256775%,27.580261%);fill-opacity:1;" d="M 187.632812 59.390625 L 188.925781 63.359375 L 193.09375 63.359375 L 189.71875 65.808594 L 191.007812 69.773438 L 187.632812 67.324219 L 184.261719 69.773438 L 185.550781 65.808594 L 182.175781 63.359375 L 186.34375 63.359375 "/>
<path style=" stroke:none;fill-rule:nonzero;fill:rgb(28.556824%,27.256775%,27.580261%);fill-opacity:1;" d="M 208.6875 68.121094 L 209.976562 72.089844 L 214.144531 72.089844 L 210.769531 74.539062 L 212.0625 78.507812 L 208.6875 76.054688 L 205.3125 78.507812 L 206.601562 74.539062 L 203.226562 72.089844 L 207.398438 72.089844 "/>
<path style=" stroke:none;fill-rule:nonzero;fill:rgb(28.556824%,27.256775%,27.580261%);fill-opacity:1;" d="M 164.011719 123.066406 L 165.304688 127.03125 L 169.472656 127.03125 L 166.097656 129.480469 L 167.386719 133.449219 L 164.011719 130.996094 L 160.636719 133.449219 L 161.929688 129.480469 L 158.554688 127.03125 L 162.726562 127.03125 "/>
<path style=" stroke:none;fill-rule:nonzero;fill:rgb(28.556824%,27.256775%,27.580261%);fill-opacity:1;" d="M 173.769531 136.417969 L 175.058594 140.382812 L 179.230469 140.382812 L 175.855469 142.835938 L 177.144531 146.800781 L 173.769531 144.347656 L 170.394531 146.800781 L 171.683594 142.835938 L 168.3125 140.382812 L 172.480469 140.382812 "/>
<path style=" stroke:none;fill-rule:nonzero;fill:rgb(28.556824%,27.256775%,27.580261%);fill-opacity:1;" d="M 214.851562 116.902344 L 216.136719 120.871094 L 220.308594 120.871094 L 216.933594 123.320312 L 218.222656 127.285156 L 214.851562 124.835938 L 211.476562 127.285156 L 212.765625 123.320312 L 209.390625 120.871094 L 213.558594 120.871094 "/>
<path style=" stroke:none;fill-rule:nonzero;fill:rgb(28.556824%,27.256775%,27.580261%);fill-opacity:1;" d="M 52.398438 54.492188 L 96.003906 58.203125 L 120.125 38.257812 Z M 96.460938 59.667969 L 47.902344 55.53125 L 47.796875 54.136719 L 122.765625 36.164062 L 123.382812 37.398438 L 96.460938 59.667969 "/>
<path style=" stroke:none;fill-rule:nonzero;fill:rgb(28.556824%,27.256775%,27.580261%);fill-opacity:1;" d="M 109.082031 78.148438 L 147.472656 89.996094 L 184.441406 65.824219 Z M 147.691406 91.546875 L 105.78125 78.613281 L 105.875 77.234375 L 187.519531 63.882812 L 188.023438 65.175781 L 147.691406 91.546875 "/>
<path style=" stroke:none;fill-rule:nonzero;fill:rgb(28.556824%,27.256775%,27.580261%);fill-opacity:1;" d="M 80.027344 99.839844 L 108.859375 142.84375 L 161.636719 128.179688 Z M 108.25 144.480469 L 76.492188 97.109375 L 166.390625 128.332031 L 108.25 144.480469 "/>
<path style=" stroke:none;fill-rule:nonzero;fill:rgb(28.556824%,27.256775%,27.580261%);fill-opacity:1;" d="M 105.886719 44.117188 C 104.085938 43.632812 102.230469 43.316406 100.371094 43.171875 L 100.425781 42.464844 C 102.328125 42.613281 104.226562 42.9375 106.070312 43.433594 Z M 90.808594 44.761719 L 90.46875 44.140625 C 92.332031 43.125 94.183594 42.550781 95.964844 42.4375 C 96.5 42.402344 97.035156 42.382812 97.5625 42.371094 L 97.574219 43.082031 C 97.054688 43.089844 96.535156 43.109375 96.007812 43.140625 C 94.332031 43.25 92.582031 43.796875 90.808594 44.761719 Z M 113.609375 47.371094 C 111.992188 46.414062 110.292969 45.605469 108.554688 44.964844 L 108.800781 44.300781 C 110.578125 44.957031 112.316406 45.785156 113.96875 46.761719 Z M 84.324219 50.027344 L 83.804688 49.546875 C 85.222656 48.03125 86.652344 46.734375 88.050781 45.699219 L 88.472656 46.269531 C 87.109375 47.28125 85.710938 48.546875 84.324219 50.027344 Z M 120.207031 52.550781 C 118.902344 51.214844 117.472656 49.988281 115.957031 48.902344 L 116.367188 48.324219 C 117.917969 49.4375 119.378906 50.691406 120.714844 52.054688 Z M 79.09375 56.667969 L 78.507812 56.269531 C 79.632812 54.613281 80.78125 53.074219 81.917969 51.695312 L 82.464844 52.144531 C 81.339844 53.507812 80.207031 55.027344 79.09375 56.667969 Z M 125.203125 59.277344 C 124.328125 57.664062 123.273438 56.105469 122.078125 54.636719 L 122.625 54.191406 C 123.851562 55.691406 124.929688 57.289062 125.828125 58.941406 Z M 74.683594 63.910156 L 74.0625 63.570312 C 75.003906 61.851562 75.972656 60.199219 76.945312 58.652344 L 77.542969 59.03125 C 76.582031 60.5625 75.617188 62.203125 74.683594 63.910156 Z M 127.984375 67.140625 L 128.335938 67.09375 L 127.984375 67.125 C 127.679688 65.34375 127.15625 63.558594 126.417969 61.800781 L 127.070312 61.527344 C 127.828125 63.335938 128.367188 65.171875 128.675781 66.984375 L 128.335938 67.09375 Z M 70.882812 71.503906 L 70.238281 71.207031 C 71.042969 69.449219 71.878906 67.726562 72.726562 66.085938 L 73.355469 66.410156 C 72.515625 68.042969 71.683594 69.757812 70.882812 71.503906 Z M 126.511719 75.351562 L 125.882812 75.03125 C 126.882812 73.0625 127.550781 71.3125 127.855469 69.832031 L 128.546875 69.976562 C 128.230469 71.519531 127.542969 73.328125 126.511719 75.351562 Z M 67.589844 79.335938 L 66.929688 79.082031 C 67.605469 77.320312 68.328125 75.550781 69.078125 73.8125 L 69.730469 74.09375 C 68.984375 75.820312 68.261719 77.585938 67.589844 79.335938 Z M 122.003906 82.632812 L 121.425781 82.226562 C 122.605469 80.558594 123.644531 78.96875 124.515625 77.496094 L 125.125 77.859375 C 124.242188 79.34375 123.191406 80.953125 122.003906 82.632812 Z M 64.789062 87.355469 L 64.113281 87.144531 C 64.667969 85.378906 65.28125 83.5625 65.933594 81.75 L 66.601562 81.988281 C 65.949219 83.792969 65.339844 85.597656 64.789062 87.355469 Z M 116.796875 89.40625 L 116.246094 88.957031 C 117.503906 87.429688 118.683594 85.933594 119.753906 84.511719 L 120.320312 84.933594 C 119.246094 86.367188 118.058594 87.871094 116.796875 89.40625 Z M 62.558594 95.546875 L 61.867188 95.390625 C 62.265625 93.636719 62.746094 91.78125 63.292969 89.871094 L 63.972656 90.066406 C 63.429688 91.964844 62.953125 93.808594 62.558594 95.546875 Z M 111.207031 95.863281 L 110.679688 95.386719 C 111.980469 93.953125 113.242188 92.523438 114.425781 91.128906 L 114.96875 91.589844 C 113.773438 92.988281 112.507812 94.421875 111.207031 95.863281 Z M 105.347656 102.066406 L 104.839844 101.570312 C 106.175781 100.210938 107.492188 98.832031 108.761719 97.472656 L 109.28125 97.957031 C 108.007812 99.320312 106.683594 100.703125 105.347656 102.066406 Z M 61.234375 103.898438 L 60.53125 103.851562 C 60.636719 102.191406 60.894531 100.285156 61.289062 98.183594 L 61.984375 98.3125 C 61.59375 100.386719 61.34375 102.265625 61.234375 103.898438 Z M 99.257812 108.046875 L 98.769531 107.53125 C 100.117188 106.257812 101.488281 104.929688 102.84375 103.582031 L 103.34375 104.085938 C 101.980469 105.4375 100.609375 106.769531 99.257812 108.046875 Z M 61.921875 112.316406 C 61.367188 111.054688 60.949219 109.6875 60.679688 108.25 C 60.597656 107.792969 60.535156 107.28125 60.503906 106.730469 L 61.207031 106.6875 C 61.242188 107.210938 61.296875 107.691406 61.375 108.121094 C 61.636719 109.503906 62.039062 110.820312 62.570312 112.03125 Z M 92.925781 113.773438 L 92.464844 113.238281 C 93.820312 112.070312 95.242188 110.800781 96.695312 109.464844 L 97.175781 109.988281 C 95.714844 111.328125 94.285156 112.601562 92.925781 113.773438 Z M 67.328125 118.988281 C 65.738281 117.855469 64.390625 116.464844 63.3125 114.851562 L 63.902344 114.460938 C 64.929688 116 66.222656 117.328125 67.738281 118.410156 Z M 86.230469 119.105469 L 85.820312 118.527344 C 87.128906 117.597656 88.636719 116.433594 90.296875 115.066406 L 90.746094 115.613281 C 89.074219 116.992188 87.550781 118.167969 86.230469 119.105469 Z M 75.355469 122.058594 C 73.414062 121.824219 71.550781 121.285156 69.820312 120.457031 L 70.128906 119.816406 C 71.789062 120.613281 73.578125 121.132812 75.4375 121.355469 Z M 78.242188 122.171875 L 78.210938 121.464844 C 79.394531 121.410156 80.542969 121.226562 81.625 120.925781 C 82.085938 120.792969 82.707031 120.503906 83.46875 120.0625 L 83.820312 120.675781 C 83.011719 121.144531 82.335938 121.460938 81.816406 121.605469 C 80.683594 121.925781 79.480469 122.113281 78.242188 122.171875 "/>
</g>
</svg>
