<?xml version="1.0" encoding="UTF-8"?>
<svg xmlns="http://www.w3.org/2000/svg" xmlns:xlink="http://www.w3.org/1999/xlink" width="287.5204340564336pt" height="174.9371315644566pt" viewBox="0 0 166 101" version="1.1">
<defs>
<clipPath id="clip1">
  <path d="M -222 665 L 390 665 L 390 -127 L -222 -127 L -222 665 Z M -222 665 "/>
</clipPath>
<clipPath id="clip2">
  <path d="M 0.00390625 101.519531 L 167.257813 101.519531 L 167.257813 -2.199219 L 0.00390625 -2.199219 L 0.00390625 101.519531 Z M 0.00390625 101.519531 "/>
</clipPath>
</defs>
<g id="surface0">
<g clip-path="url(#clip1)" clip-rule="nonzero">
<g clip-path="url(#clip2)" clip-rule="nonzero">
<path style="fill:none;stroke-width:5;stroke-linecap:butt;stroke-linejoin:miter;stroke:rgb(0%,0%,0%);stroke-opacity:1;stroke-miterlimit:4;" d="M 809.488709 829.539678 L 959.94455 902.74006 C 965.588212 905.582794 970.270361 902.698256 972.73685 897.598058 L 977.460804 887.89932 C 979.927293 882.799122 978.88217 877.239071 975.161534 875.44146 L 824.204035 802.032053 " transform="matrix(0.09344,0,0,-0.09344,0.002,101.52)"/>
<path style="fill:none;stroke-width:5;stroke-linecap:butt;stroke-linejoin:miter;stroke:rgb(0%,0%,0%);stroke-opacity:1;stroke-miterlimit:4;" d="M 475.885595 667.671099 L 678.764782 766.121642 C 682.485418 767.919253 687.460202 765.285544 689.926691 760.227151 L 694.650645 750.528414 C 697.117134 745.428216 696.072011 739.868164 692.351375 738.070553 L 513.844446 651.450797 " transform="matrix(0.09344,0,0,-0.09344,0.002,101.52)"/>
<path style="fill:none;stroke-width:7.5;stroke-linecap:butt;stroke-linejoin:miter;stroke:rgb(0%,0%,0%);stroke-opacity:1;stroke-miterlimit:4;" d="M 459.748903 640.832352 L 668.313557 743.170751 " transform="matrix(0.09344,0,0,-0.09344,0.002,101.52)"/>
<path style=" stroke:none;fill-rule:nonzero;fill:rgb(0%,0%,0%);fill-opacity:1;" d="M 43.195313 40.070313 L 39.34375 43.429688 L 44.359375 42.449219 L 43.195313 40.070313 "/>
<path style="fill:none;stroke-width:7.5;stroke-linecap:butt;stroke-linejoin:miter;stroke:rgb(0%,0%,0%);stroke-opacity:1;stroke-miterlimit:4;" d="M 602.847081 800.192637 C 604.519277 810.643862 608.198108 819.715526 613.92538 826.738749 C 616.684503 830.083142 619.945286 832.96768 623.624117 835.266949 C 653.305597 853.744716 702.175527 828.954409 732.73491 779.875455 C 763.252488 730.838305 763.963172 676.073884 734.281691 657.596118 C 721.280367 649.444162 704.516602 649.694991 687.251177 656.67641 " transform="matrix(0.09344,0,0,-0.09344,0.002,101.52)"/>
<path style=" stroke:none;fill-rule:nonzero;fill:rgb(0%,0%,0%);fill-opacity:1;" d="M 55.367188 25.828125 L 55.816406 30.09375 L 57.558594 26.175781 L 55.367188 25.828125 "/>
<path style="fill:none;stroke-width:5;stroke-linecap:butt;stroke-linejoin:miter;stroke:rgb(0%,0%,0%);stroke-opacity:1;stroke-miterlimit:4;" d="M 621.074018 901.527718 C 671.699754 923.809731 743.56238 871.846238 781.563035 785.435507 C 819.563691 699.024775 809.32149 610.941848 758.695754 588.70164 C 708.070018 566.419628 636.207392 618.38312 598.206737 704.793852 C 560.206081 791.204583 570.448282 879.245706 621.074018 901.527718 Z M 621.074018 901.527718 " transform="matrix(0.09344,0,0,-0.09344,0.002,101.52)"/>
<path style="fill:none;stroke-width:5;stroke-linecap:butt;stroke-linejoin:miter;stroke:rgb(0%,0%,0%);stroke-opacity:1;stroke-miterlimit:4;" d="M 607.320205 932.83959 C 668.062727 959.552922 754.264434 897.180009 799.915387 793.503853 C 845.48273 689.827697 833.233893 584.103101 772.491371 557.389769 C 711.707045 530.676437 625.463533 593.04935 579.89619 696.725506 C 534.287042 800.401661 546.535879 906.126257 607.320205 932.83959 Z M 607.320205 932.83959 " transform="matrix(0.09344,0,0,-0.09344,0.002,101.52)"/>
<path style="fill:none;stroke-width:5;stroke-linecap:butt;stroke-linejoin:miter;stroke:rgb(0%,0%,0%);stroke-opacity:1;stroke-miterlimit:4;" d="M 607.320205 932.83959 C 668.062727 959.552922 754.264434 897.180009 799.915387 793.503853 C 845.48273 689.827697 833.233893 584.103101 772.491371 557.389769 C 711.707045 530.676437 625.463533 593.04935 579.89619 696.725506 C 534.287042 800.401661 546.535879 906.126257 607.320205 932.83959 Z M 607.320205 932.83959 " transform="matrix(0.09344,0,0,-0.09344,0.002,101.52)"/>
<path style="fill:none;stroke-width:5;stroke-linecap:butt;stroke-linejoin:miter;stroke:rgb(0%,0%,0%);stroke-opacity:1;stroke-miterlimit:4;" d="M 809.488709 829.539678 C 814.797932 820.468014 819.73091 810.894692 824.287644 800.861515 C 870.941915 697.645214 859.738201 591.795203 799.288313 564.454797 C 794.438945 562.322747 777.591569 558.476696 772.491371 557.389769 " transform="matrix(0.09344,0,0,-0.09344,0.002,101.52)"/>
<path style="fill:none;stroke-width:5;stroke-linecap:butt;stroke-linejoin:miter;stroke:rgb(0%,0%,0%);stroke-opacity:1;stroke-miterlimit:4;" d="M 626.299631 938.190617 C 680.896832 956.877408 760.242535 913.985579 809.488709 829.539678 " transform="matrix(0.09344,0,0,-0.09344,0.002,101.52)"/>
<path style="fill:none;stroke-width:5;stroke-linecap:butt;stroke-linejoin:miter;stroke:rgb(0%,0%,0%);stroke-opacity:1;stroke-miterlimit:4;" d="M 1189.11902 111.24786 C 1189.11902 55.312901 1065.251097 9.996388 912.495987 9.996388 C 759.740876 9.996388 635.914758 55.312901 635.914758 111.24786 C 635.914758 167.141013 759.740876 212.457526 912.495987 212.457526 C 1065.251097 212.457526 1189.11902 167.141013 1189.11902 111.24786 Z M 1189.11902 111.24786 " transform="matrix(0.09344,0,0,-0.09344,0.002,101.52)"/>
<path style="fill:none;stroke-width:4.398;stroke-linecap:butt;stroke-linejoin:miter;stroke:rgb(0%,0%,0%);stroke-opacity:1;stroke-miterlimit:4;" d="M 1157.3891 123.831135 C 1157.3891 74.877595 1047.943868 35.204744 912.955841 35.204744 C 777.967814 35.204744 668.564386 74.877595 668.564386 123.831135 C 668.564386 172.784675 777.967814 212.457526 912.955841 212.457526 C 1047.943868 212.457526 1157.3891 172.784675 1157.3891 123.831135 Z M 1157.3891 123.831135 " transform="matrix(0.09344,0,0,-0.09344,0.002,101.52)"/>
<path style="fill:none;stroke-width:5.094;stroke-linecap:butt;stroke-linejoin:miter;stroke:rgb(0%,0%,0%);stroke-opacity:1;stroke-miterlimit:4;" d="M 1007.769357 120.068694 C 1007.769357 100.002341 965.128358 83.740234 912.495987 83.740234 C 859.863616 83.740234 817.222616 100.002341 817.222616 120.068694 C 817.222616 140.176851 859.863616 156.438958 912.495987 156.438958 C 965.128358 156.438958 1007.769357 140.176851 1007.769357 120.068694 Z M 1007.769357 120.068694 " transform="matrix(0.09344,0,0,-0.09344,0.002,101.52)"/>
<path style="fill:none;stroke-width:5;stroke-linecap:butt;stroke-linejoin:miter;stroke:rgb(0%,0%,0%);stroke-opacity:1;stroke-miterlimit:4;" d="M 996.858278 125.75416 C 996.858278 108.823175 959.192062 95.111168 912.663206 95.111168 C 866.176156 95.111168 828.468135 108.823175 828.468135 125.75416 C 828.468135 142.685146 866.176156 156.438958 912.663206 156.438958 C 959.192062 156.438958 996.858278 142.685146 996.858278 125.75416 Z M 996.858278 125.75416 " transform="matrix(0.09344,0,0,-0.09344,0.002,101.52)"/>
<path style="fill:none;stroke-width:7.5;stroke-linecap:butt;stroke-linejoin:miter;stroke:rgb(0%,0%,0%);stroke-opacity:1;stroke-miterlimit:4;" d="M 698.496696 552.79123 C 698.496696 522.190042 690.470155 501.914664 677.761465 475.995626 C 651.048132 421.523839 602.554447 382.8125 558.993739 382.8125 C 483.076038 382.8125 419.532588 488.746121 411.589656 583.685052 L 409.290387 615.623997 " transform="matrix(0.09344,0,0,-0.09344,0.002,101.52)"/>
<path style="fill:none;stroke-width:6.126;stroke-linecap:butt;stroke-linejoin:miter;stroke:rgb(0%,0%,0%);stroke-opacity:1;stroke-miterlimit:4;" d="M 698.663915 551.662497 C 698.62211 552.038741 698.538501 552.414986 698.496696 552.79123 " transform="matrix(0.09344,0,0,-0.09344,0.002,101.52)"/>
<path style=" stroke:none;fill-rule:nonzero;fill:rgb(0%,0%,0%);fill-opacity:1;" d="M 39.484375 43.996094 C 39.484375 44.679688 38.929688 45.234375 38.246094 45.234375 C 37.5625 45.234375 37.007813 44.679688 37.007813 43.996094 C 37.007813 43.3125 37.5625 42.757813 38.246094 42.757813 C 38.929688 42.757813 39.484375 43.3125 39.484375 43.996094 "/>
<path style="fill-rule:nonzero;fill:rgb(100%,100%,100%);fill-opacity:1;stroke-width:5.451;stroke-linecap:butt;stroke-linejoin:miter;stroke:rgb(0%,0%,0%);stroke-opacity:1;stroke-miterlimit:4;" d="M 928.005605 752.03339 L 928.172825 130.645334 C 928.172825 125.712356 924.03414 121.699085 918.390478 121.699085 L 907.604813 121.699085 C 901.961152 121.699085 897.028173 125.670551 896.986368 130.561724 L 896.860954 752.20061 " transform="matrix(0.09344,0,0,-0.09344,0.002,101.52)"/>
<path style=" stroke:none;fill-rule:nonzero;fill:rgb(100%,100%,100%);fill-opacity:1;" d="M 88.839844 62.519531 L 83 66.359375 L 81.675781 64.34375 L 87.515625 60.503906 L 88.839844 62.519531 "/>
<path style=" stroke:none;fill-rule:nonzero;fill:rgb(100%,100%,100%);fill-opacity:1;" d="M 82.492188 59.136719 L 87.921875 59.136719 L 87.921875 57.433594 L 82.492188 57.433594 L 82.492188 59.136719 Z M 82.492188 59.136719 "/>
<path style="fill:none;stroke-width:7.5;stroke-linecap:butt;stroke-linejoin:miter;stroke:rgb(0%,0%,0%);stroke-opacity:1;stroke-miterlimit:4;" d="M 913.332085 802.575516 L 913.332085 495.351295 " transform="matrix(0.09344,0,0,-0.09344,0.002,101.52)"/>
<path style=" stroke:none;fill-rule:nonzero;fill:rgb(0%,0%,0%);fill-opacity:1;" d="M 86.707031 27.4375 L 85.417969 22.492188 L 84.0625 27.421875 L 86.707031 27.4375 "/>
<path style="fill:none;stroke-width:5;stroke-linecap:butt;stroke-linejoin:miter;stroke:rgb(0%,0%,0%);stroke-opacity:1;stroke-miterlimit:4;" d="M 1765.525003 796.555611 C 1770.416176 625.740783 1381.421567 475.953821 896.651929 462.032788 C 411.882291 448.153561 14.902946 575.365876 10.011772 746.180704 C 5.078794 917.037337 394.115208 1061.389662 878.884846 1075.310694 C 1363.654484 1089.231726 1760.592024 967.412243 1765.525003 796.555611 Z M 1765.525003 796.555611 " transform="matrix(0.09344,0,0,-0.09344,0.002,101.52)"/>
<path style="fill:none;stroke-width:7.5;stroke-linecap:butt;stroke-linejoin:miter;stroke:rgb(0%,0%,0%);stroke-opacity:1;stroke-miterlimit:4;" d="M 698.663915 551.662497 C 702.760796 520.476041 712.668557 500.702322 726.631394 475.702991 C 757.274387 420.687741 806.102512 384.610111 848.158243 384.610111 C 920.564333 384.610111 978.087877 460.026153 983.3971 548.861569 C 994.182764 476.539089 1051.079235 428.881501 1119.34664 428.881501 C 1184.85492 428.881501 1238.992268 476.831724 1252.787885 544.890103 C 1281.675072 505.96974 1335.603395 485.652558 1390.99489 497.44154 C 1441.244381 508.143595 1479.621281 542.423614 1494.169387 584.019491 L 1494.921875 586.067931 C 1521.969646 578.752074 1547.470636 580.675099 1577.068507 591.335349 C 1598.93247 599.236475 1623.221118 613.700971 1638.479907 629.754053 C 1648.471278 640.288889 1655.494502 652.663139 1661.598017 664.577536 C 1667.199874 665.079195 1682.207834 664.159487 1696.67233 672.771297 C 1711.387655 681.508522 1728.778494 697.603409 1745.207821 726.323376 " transform="matrix(0.09344,0,0,-0.09344,0.002,101.52)"/>
<path style=" stroke:none;fill-rule:nonzero;fill:rgb(0%,0%,0%);fill-opacity:1;" d="M 163.640625 35.378906 L 164.800781 29.59375 L 160.90625 34.027344 L 163.640625 35.378906 "/>
</g>
</g>
</g>
</svg>
