<?xml version="1.0" encoding="UTF-8" standalone="no"?>
<svg xmlns:dc="http://purl.org/dc/elements/1.1/" xmlns:cc="http://creativecommons.org/ns#" xmlns:rdf="http://www.w3.org/1999/02/22-rdf-syntax-ns#" xmlns:svg="http://www.w3.org/2000/svg" xmlns="http://www.w3.org/2000/svg" xmlns:xlink="http://www.w3.org/1999/xlink" xmlns:sodipodi="http://sodipodi.sourceforge.net/DTD/sodipodi-0.dtd" xmlns:inkscape="http://www.inkscape.org/namespaces/inkscape" height="142.5pt" width="144.6pt" viewBox="40.6209 54.0603 83.517301 82.341857" version="1.1" id="svg23644" inkscape:version="0.48.4 r9939" sodipodi:docname="f33-02_tc_iPad_big_h.svg">
  <metadata id="metadata24213">
    <rdf:RDF>
      <cc:Work rdf:about="">
        <dc:format>image/svg+xml</dc:format>
        <dc:type rdf:resource="http://purl.org/dc/dcmitype/StillImage"/>
        <dc:title/>
      </cc:Work>
    </rdf:RDF>
  </metadata>
  <sodipodi:namedview pagecolor="#ffffff" bordercolor="#666666" borderopacity="1" objecttolerance="10" gridtolerance="10" guidetolerance="10" inkscape:pageopacity="0" inkscape:pageshadow="2" inkscape:window-width="869" inkscape:window-height="747" id="namedview24211" showgrid="false" fit-margin-top="0" fit-margin-left="0" fit-margin-right="0" fit-margin-bottom="0" inkscape:zoom="0.94" inkscape:cx="-143.32395" inkscape:cy="280.6489" inkscape:window-x="0" inkscape:window-y="25" inkscape:window-maximized="0" inkscape:current-layer="svg23644"/>
  <defs id="defs23646">
    <path d="M 1.85,1.11 C 1.825,1.08 1.79,1.055 1.76,1.03 1.215,0.54 0.88,-0.22 0.845,-1.145 0.82,-1.775 0.925,-2.42 1.225,-2.985 1.365,-3.25 1.54,-3.475 1.76,-3.67 1.79,-3.695 1.825,-3.72 1.85,-3.75 H 1.665 c -0.105,0 -0.095,0 -0.17,0.06 -0.26,0.205 -0.475,0.475 -0.64,0.77 C 0.38,-2.025 0.345,-0.835 0.78,0.13 0.945,0.495 1.185,0.8 1.49,1.05 1.555,1.1 1.555,1.11 1.665,1.11 H 1.85 z" id="g340" inkscape:connector-curvature="0"/>
    <path d="m 0.31,-3.75 c 0.025,0.03 0.06,0.055 0.09,0.08 0.615,0.55 0.96,1.44 0.915,2.525 C 1.295,-0.61 1.17,-0.07 0.905,0.4 0.775,0.635 0.6,0.85 0.4,1.03 0.37,1.055 0.335,1.08 0.31,1.11 h 0.185 c 0.105,0 0.095,0 0.17,-0.06 C 0.925,0.845 1.14,0.575 1.305,0.28 1.78,-0.615 1.815,-1.805 1.38,-2.77 1.215,-3.135 0.975,-3.44 0.67,-3.69 0.605,-3.74 0.605,-3.75 0.495,-3.75 H 0.31 z" id="g341" inkscape:connector-curvature="0"/>
    <path d="M 1.95,-1.435 H 0.49 c -0.035,0 -0.075,-0.005 -0.11,0.005 -0.05,0.015 -0.085,0.06 -0.085,0.11 0,0.05 0.035,0.095 0.085,0.11 0.035,0.01 0.075,0.005 0.11,0.005 h 1.46 v 1.46 c 0,0.035 -0.005,0.075 0.005,0.11 0.015,0.05 0.06,0.085 0.11,0.085 0.05,0 0.095,-0.035 0.11,-0.085 C 2.185,0.33 2.18,0.29 2.18,0.255 v -1.46 h 1.46 c 0.035,0 0.07,0.005 0.105,-0.005 C 3.795,-1.225 3.83,-1.27 3.83,-1.32 3.83,-1.37 3.795,-1.415 3.745,-1.43 3.71,-1.44 3.675,-1.435 3.64,-1.435 H 2.18 v -1.46 c 0,-0.035 0.005,-0.075 -0.005,-0.11 -0.015,-0.05 -0.06,-0.085 -0.11,-0.085 -0.05,0 -0.095,0.035 -0.11,0.085 -0.01,0.035 -0.005,0.075 -0.005,0.11 v 1.46 z" id="g343" inkscape:connector-curvature="0"/>
    <path d="m 0.555,-3.03 v 0.28 c 0.25,0 0.495,-0.04 0.725,-0.14 v 2.61 H 0.585 V 0 h 1.75 V -0.28 H 1.64 V -3.36 C 1.61,-3.36 1.575,-3.365 1.55,-3.355 1.51,-3.34 1.48,-3.3 1.445,-3.275 1.24,-3.105 0.88,-3.03 0.555,-3.03 z" id="g349" inkscape:connector-curvature="0"/>
    <path d="m 0.49,-2.54 h 0.005 c 0.205,-0.35 0.59,-0.575 1,-0.535 0.29,0.02 0.565,0.18 0.525,0.535 C 1.98,-2.265 1.755,-2.05 1.495,-1.975 1.34,-1.93 1.09,-1.92 0.925,-1.91 v 0.28 h 0.33 c 0.07,0 0.14,-0.005 0.21,0 0.185,0.015 0.36,0.08 0.495,0.205 0.225,0.215 0.265,0.59 0.12,0.86 -0.06,0.105 -0.145,0.19 -0.25,0.255 -0.255,0.15 -0.59,0.125 -0.865,0.035 -0.19,-0.06 -0.37,-0.165 -0.52,-0.3 C 0.385,-0.625 0.34,-0.685 0.28,-0.74 0.27,-0.68 0.255,-0.615 0.245,-0.555 0.23,-0.48 0.225,-0.46 0.28,-0.405 l 0.09,0.09 c 0.145,0.125 0.315,0.23 0.495,0.3 0.39,0.145 0.85,0.135 1.205,-0.09 0.355,-0.23 0.605,-0.685 0.41,-1.11 C 2.345,-1.5 2.095,-1.675 1.77,-1.77 1.96,-1.865 2.095,-1.945 2.22,-2.115 2.325,-2.26 2.43,-2.49 2.38,-2.725 2.335,-2.975 2.13,-3.16 1.905,-3.26 1.58,-3.405 1.19,-3.385 0.865,-3.245 0.7,-3.17 0.55,-3.065 0.425,-2.93 0.405,-2.91 0.32,-2.815 0.32,-2.78 c 0.005,0.025 0.13,0.185 0.17,0.24 z" id="g351" inkscape:connector-curvature="0"/>
    <path d="M 0.155,-0.88 H 1.68 V 0 h 0.34 v -0.88 h 0.6 V -1.175 H 2.02 V -3.33 H 1.735 C 1.7,-3.33 1.645,-3.34 1.62,-3.32 1.58,-3.29 1.51,-3.165 1.495,-3.145 L 1.2,-2.715 c -0.115,0.175 -0.93,1.365 -0.99,1.46 -0.05,0.06 -0.055,0.075 -0.055,0.18 v 0.195 z m 1.54,-2.125 v 1.83 H 0.52 l 0.745,-1.11 c 0.14,-0.24 0.305,-0.46 0.43,-0.72 z" id="g352" inkscape:connector-curvature="0"/>
    <path d="m 0.56,-2.36 v 0.42 H 0.98 V -2.36 H 0.56 z m 0,1.94 V 0 H 0.69 L 0.555,0.555 H 0.77 C 0.84,0.37 0.91,0.19 0.975,0.005 0.98,-0.13 0.98,-0.275 0.98,-0.42 H 0.56 z" id="g359" inkscape:connector-curvature="0"/>
    <path d="m 0.315,-1.915 c -0.045,0.065 -0.005,0.16 0.07,0.175 0.03,0.01 0.065,0.005 0.1,0.005 h 3.19 c 0.045,0 0.085,0 0.12,-0.03 0.065,-0.065 0.03,-0.185 -0.065,-0.2 -0.07,-0.01 -0.15,0 -0.22,0 H 0.48 c -0.08,0 -0.12,-0.005 -0.165,0.05 z m 0,1.065 c -0.045,0.065 -0.005,0.155 0.07,0.17 0.03,0.01 0.065,0.005 0.1,0.005 h 3.19 c 0.045,0 0.085,0 0.12,-0.03 0.065,-0.065 0.03,-0.185 -0.065,-0.2 -0.07,-0.01 -0.15,0 -0.22,0 H 0.475 C 0.4,-0.905 0.35,-0.91 0.315,-0.85 z" id="g361" inkscape:connector-curvature="0"/>
    <path d="M 3.24,-0.57 C 2.955,-0.42 2.785,-0.27 2.37,-0.26 2.215,-0.255 2.065,-0.25 1.915,-0.28 1.515,-0.36 1.18,-0.64 0.985,-0.995 0.64,-1.64 0.805,-2.515 1.4,-2.96 c 0.1,-0.07 0.205,-0.13 0.32,-0.175 0.335,-0.12 0.73,-0.11 1.075,0.02 0.12,0.05 0.23,0.11 0.345,0.17 0.025,-0.13 0.05,-0.26 0.07,-0.39 C 3.1,-3.37 2.99,-3.405 2.875,-3.435 2.635,-3.49 2.28,-3.53 2.01,-3.505 1.49,-3.46 1.05,-3.17 0.795,-2.83 0.465,-2.4 0.35,-1.83 0.475,-1.305 0.68,-0.49 1.37,0.095 2.35,0.035 2.68,0.025 2.885,-0.05 3.14,-0.17 3.165,-0.185 3.25,-0.225 3.265,-0.245 3.275,-0.275 3.245,-0.495 3.24,-0.57 z" id="g367" inkscape:connector-curvature="0"/>
    <path d="M 0.525,-3.47 V 0 h 0.38 v -1.655 h 1.95 V 0 h 0.38 v -3.47 h -0.38 v 1.52 h -1.95 v -1.52 h -0.38 z" id="g372" inkscape:connector-curvature="0"/>
    <path d="M 0.525,-3.47 V 0 H 2.79 V -0.295 H 0.905 V -3.47 h -0.38 z" id="g376" inkscape:connector-curvature="0"/>
    <path d="M 0.53,-3.47 V 0 H 0.9 v -1.595 h 0.74 c 0.095,0 0.19,-0.005 0.265,0.015 0.095,0.12 0.18,0.25 0.27,0.375 C 2.46,-0.81 2.735,-0.4 3.03,-0.01 3.145,0.005 3.28,0 3.41,0 L 3.21,-0.285 2.24,-1.635 C 2.335,-1.645 2.43,-1.675 2.52,-1.71 2.88,-1.84 3.28,-2.135 3.255,-2.56 3.24,-2.725 3.19,-2.83 3.11,-2.945 2.88,-3.235 2.5,-3.415 2.065,-3.46 1.885,-3.475 1.71,-3.47 1.53,-3.47 h -1 z m 0.37,1.595 v -1.3 h 0.75 c 0.25,0 0.505,0 0.745,0.075 0.24,0.08 0.48,0.255 0.505,0.525 0.015,0.16 -0.05,0.325 -0.17,0.435 -0.085,0.08 -0.19,0.135 -0.3,0.175 -0.245,0.09 -0.505,0.09 -0.76,0.09 H 0.9 z" id="g382" inkscape:connector-curvature="0"/>
    <path d="M 2.285,-0.575 C 2.245,-0.55 2.21,-0.52 2.17,-0.49 2.105,-0.445 2.035,-0.405 1.965,-0.37 1.655,-0.22 1.205,-0.19 0.935,-0.405 0.745,-0.54 0.62,-0.795 0.605,-1.08 0.58,-1.4 0.66,-1.765 0.925,-1.975 c 0.15,-0.115 0.345,-0.18 0.615,-0.15 0.235,0.02 0.365,0.055 0.555,0.15 0.045,0.025 0.085,0.055 0.13,0.07 L 2.28,-2.21 C 2.165,-2.26 2.06,-2.32 1.94,-2.355 c -0.295,-0.095 -0.735,-0.09 -1,0.03 -0.25,0.115 -0.445,0.32 -0.57,0.555 -0.175,0.36 -0.185,0.8 -0.005,1.16 0.07,0.14 0.165,0.26 0.28,0.365 C 0.99,0.07 1.5,0.105 1.925,-0.05 2.025,-0.085 2.12,-0.135 2.21,-0.19 2.24,-0.21 2.285,-0.23 2.3,-0.26 2.315,-0.29 2.285,-0.575 2.285,-0.575 z" id="g399" inkscape:connector-curvature="0"/>
    <path d="m 0.42,-3.47 v 0.355 H 0.775 V -3.47 H 0.42 z m 0,1.11 V 0 H 0.775 V -2.36 H 0.42 z" id="g3105" inkscape:connector-curvature="0"/>
    <path d="M 0.77,-1.88 H 0.765 V -2.36 H 0.415 V 0 H 0.78 v -1.1 c 0,-0.24 -0.02,-0.48 0.095,-0.7 0.06,-0.12 0.15,-0.22 0.275,-0.28 0.095,-0.045 0.2,-0.045 0.3,-0.035 0.16,0.01 0.33,0.05 0.425,0.19 0.08,0.11 0.085,0.245 0.085,0.375 V 0 h 0.365 v -1.345 c 0,-0.25 0.025,-0.525 -0.1,-0.75 C 2.12,-2.28 1.93,-2.365 1.725,-2.39 1.49,-2.42 1.265,-2.38 1.07,-2.245 0.955,-2.165 0.815,-2.01 0.77,-1.88 z" id="g3110" inkscape:connector-curvature="0"/>
    <path d="m 0.5,-2 c -0.325,0.4 -0.395,0.98 -0.14,1.435 0.205,0.36 0.615,0.655 1.15,0.6 C 1.975,-0.01 2.35,-0.35 2.485,-0.72 2.68,-1.22 2.53,-1.815 2.115,-2.16 2.005,-2.25 1.88,-2.315 1.745,-2.36 1.23,-2.53 0.76,-2.31 0.5,-2 z m 1.115,-0.115 c 0.075,0.02 0.145,0.05 0.21,0.085 0.32,0.185 0.4,0.58 0.375,0.92 C 2.185,-0.88 2.125,-0.655 1.965,-0.48 1.68,-0.175 1.1,-0.165 0.81,-0.48 0.65,-0.655 0.59,-0.88 0.575,-1.11 0.55,-1.43 0.62,-1.715 0.78,-1.89 0.97,-2.1 1.28,-2.185 1.615,-2.115 z" id="g3111" inkscape:connector-curvature="0"/>
    <path d="m 0.21,-0.52 c -0.01,0.075 -0.025,0.155 -0.04,0.23 -0.005,0.025 -0.02,0.07 -0.005,0.09 0.015,0.03 0.075,0.05 0.105,0.06 0.225,0.105 0.41,0.15 0.71,0.175 0.35,0.03 0.785,-0.05 0.955,-0.4 C 1.975,-0.455 2,-0.565 2,-0.665 2,-0.73 1.995,-0.795 1.975,-0.855 1.9,-1.085 1.695,-1.245 1.475,-1.325 1.355,-1.37 1.235,-1.39 1.11,-1.41 0.93,-1.445 0.705,-1.465 0.58,-1.62 0.485,-1.735 0.5,-1.9 0.6,-2.005 0.725,-2.13 0.92,-2.15 1.155,-2.14 c 0.215,0.01 0.39,0.055 0.56,0.13 0.045,0.02 0.09,0.045 0.135,0.06 L 1.905,-2.255 C 1.655,-2.36 1.43,-2.42 1.085,-2.42 c -0.3,0 -0.56,0.065 -0.73,0.235 -0.17,0.18 -0.225,0.47 -0.11,0.69 0.1,0.195 0.305,0.32 0.51,0.385 0.285,0.075 0.665,0.07 0.84,0.275 C 1.7,-0.71 1.69,-0.52 1.575,-0.4 1.51,-0.335 1.42,-0.295 1.33,-0.275 0.95,-0.19 0.54,-0.335 0.3,-0.465 0.27,-0.485 0.24,-0.505 0.21,-0.52 z" id="g3115" inkscape:connector-curvature="0"/>
    <use id="g440" xlink:href="#g340" x="0" y="0" width="259.51401" height="267.16599"/>
    <use id="g441" xlink:href="#g341" x="0" y="0" width="259.51401" height="267.16599"/>
    <use id="g443" xlink:href="#g343" x="0" y="0" width="259.51401" height="267.16599"/>
    <use id="g449" xlink:href="#g349" x="0" y="0" width="259.51401" height="267.16599"/>
    <use id="g459" xlink:href="#g359" x="0" y="0" width="259.51401" height="267.16599"/>
    <use id="g461" xlink:href="#g361" x="0" y="0" width="259.51401" height="267.16599"/>
    <use id="g467" xlink:href="#g367" x="0" y="0" width="259.51401" height="267.16599"/>
    <use id="g472" xlink:href="#g372" x="0" y="0" width="259.51401" height="267.16599"/>
    <use id="g476" xlink:href="#g376" x="0" y="0" width="259.51401" height="267.16599"/>
    <use id="g482" xlink:href="#g382" x="0" y="0" width="259.51401" height="267.16599"/>
    <use id="g499" xlink:href="#g399" x="0" y="0" width="259.51401" height="267.16599"/>
    <use id="g4105" xlink:href="#g3105" x="0" y="0" width="259.51401" height="267.16599"/>
    <use id="g4110" xlink:href="#g3110" x="0" y="0" width="259.51401" height="267.16599"/>
    <use id="g4111" xlink:href="#g3111" x="0" y="0" width="259.51401" height="267.16599"/>
    <use id="g4115" xlink:href="#g3115" x="0" y="0" width="259.51401" height="267.16599"/>
    <path d="m 0.801,-3.447 c 0.162,-0.072 0.297,-0.18 0.459,-0.261 0.27,-0.126 0.576,-0.189 0.873,-0.198 0.135,-0.009 0.261,-0.018 0.387,0.018 0.198,0.063 0.36,0.189 0.477,0.351 0.225,0.306 0.198,0.621 0.198,1.143 -0.774,0 -1.593,0.135 -2.106,0.45 -0.324,0.189 -0.639,0.495 -0.576,1.026 0.036,0.324 0.189,0.648 0.468,0.837 0.216,0.144 0.45,0.162 0.702,0.144 0.378,-0.027 0.756,-0.108 1.089,-0.306 0.162,-0.09 0.342,-0.216 0.432,-0.387 H 3.213 V 0 H 3.807 V -2.349 C 3.807,-2.628 3.834,-2.916 3.78,-3.186 3.735,-3.42 3.627,-3.645 3.474,-3.825 3.15,-4.212 2.7,-4.383 2.061,-4.347 c -0.423,0.018 -0.81,0.135 -1.134,0.288 -0.045,0.018 -0.126,0.036 -0.153,0.09 -0.027,0.036 -0.009,0.108 -0.009,0.153 0.018,0.126 0.027,0.243 0.036,0.369 z m 2.394,1.341 v 0.675 c 0,0.162 0.009,0.324 -0.063,0.477 C 2.871,-0.342 1.593,-0.18 1.17,-0.774 0.954,-1.206 1.224,-1.593 1.638,-1.8 2.052,-2.007 2.619,-2.106 3.195,-2.106 z" id="g597" inkscape:connector-curvature="0"/>
    <path d="M 0.738,-6.246 V 0 H 1.35 v -0.603 h 0.009 c 0.126,0.225 0.387,0.45 0.621,0.549 C 2.628,0.243 3.348,-0.009 3.798,-0.54 4.329,-1.161 4.455,-2.061 4.266,-2.844 4.122,-3.402 3.78,-3.969 3.276,-4.203 2.808,-4.428 2.223,-4.311 1.791,-4.041 1.629,-3.933 1.44,-3.798 1.341,-3.627 H 1.332 V -6.246 H 0.738 z m 1.521,2.403 c 0.459,-0.036 0.945,0.18 1.197,0.567 0.18,0.27 0.252,0.594 0.27,0.909 0.027,0.531 -0.018,1.098 -0.387,1.512 -0.135,0.153 -0.342,0.279 -0.531,0.351 -0.513,0.18 -0.99,0.126 -1.305,-0.288 C 1.449,-0.864 1.386,-0.954 1.359,-1.044 1.341,-1.098 1.35,-1.152 1.35,-1.206 v -1.8 c 0,-0.09 -0.018,-0.198 0.027,-0.279 0.162,-0.315 0.531,-0.522 0.882,-0.558 z" id="g598" inkscape:connector-curvature="0"/>
    <path d="M 3.987,-1.017 C 3.879,-0.945 3.789,-0.855 3.681,-0.783 3.15,-0.45 2.34,-0.261 1.71,-0.639 1.071,-1.071 0.945,-1.953 1.089,-2.655 c 0.054,-0.27 0.171,-0.54 0.351,-0.756 0.288,-0.315 0.603,-0.45 1.152,-0.45 0.441,0.018 0.756,0.108 1.089,0.288 0.072,0.045 0.135,0.09 0.207,0.117 C 3.906,-3.582 3.933,-3.699 3.951,-3.825 3.978,-3.96 3.978,-3.978 3.852,-4.041 3.528,-4.221 3.159,-4.32 2.718,-4.347 2.502,-4.365 2.286,-4.365 2.079,-4.32 c -0.972,0.18 -1.638,1.143 -1.656,2.106 -0.009,0.675 0.225,1.341 0.738,1.8 0.243,0.207 0.459,0.324 0.81,0.432 C 2.547,0.162 3.213,0.009 3.609,-0.207 3.69,-0.252 3.978,-0.414 4.014,-0.486 4.041,-0.531 3.987,-1.017 3.987,-1.017 z" id="g599" inkscape:connector-curvature="0"/>
    <path d="m 3.438,-6.246 v 2.574 H 3.429 C 3.348,-3.807 3.204,-3.924 3.078,-4.023 2.673,-4.311 2.124,-4.41 1.656,-4.23 1.395,-4.131 1.161,-3.951 0.981,-3.744 -0.054,-2.556 0.423,-0.342 1.746,0.027 2.232,0.162 2.754,-0.009 3.123,-0.333 3.231,-0.432 3.339,-0.54 3.411,-0.666 H 3.42 V 0 H 4.032 V -6.246 H 3.438 z m -0.036,2.925 c 0.036,0.081 0.018,0.189 0.018,0.279 v 1.782 c 0,0.216 -0.027,0.243 -0.153,0.405 -0.18,0.252 -0.45,0.423 -0.765,0.45 C 2.016,-0.369 1.53,-0.612 1.278,-1.026 1.143,-1.26 1.08,-1.53 1.053,-1.791 0.99,-2.412 1.071,-3.15 1.611,-3.555 c 0.513,-0.378 1.431,-0.45 1.791,0.234 z" id="g5100" inkscape:connector-curvature="0"/>
    <path d="M 3.933,-1.008 C 3.798,-0.909 3.672,-0.792 3.528,-0.711 3.186,-0.504 2.772,-0.387 2.367,-0.405 1.62,-0.432 1.098,-1.125 0.981,-1.809 0.963,-1.953 0.945,-2.106 0.963,-2.25 H 4.005 C 4.005,-2.934 3.843,-3.528 3.447,-3.924 3.015,-4.347 2.322,-4.455 1.755,-4.266 1.548,-4.203 1.359,-4.095 1.197,-3.96 0.63,-3.501 0.378,-2.772 0.387,-2.061 0.405,-1.089 1.089,-0.153 2.061,0.036 2.565,0.135 3.096,0.027 3.546,-0.207 3.636,-0.252 3.915,-0.414 3.96,-0.495 3.987,-0.54 3.942,-0.891 3.933,-1.008 z M 3.501,-2.619 H 1.008 c 0.108,-0.666 0.684,-1.332 1.404,-1.251 0.27,0.018 0.522,0.144 0.675,0.297 0.27,0.252 0.351,0.603 0.414,0.954 z" id="g5101" inkscape:connector-curvature="0"/>
    <path d="M 1.044,-4.248 H 0.261 v 0.477 H 1.044 V 0 H 1.638 V -3.771 H 2.772 V -4.248 H 1.62 v -0.783 c 0,-0.135 -0.018,-0.279 0.036,-0.405 0.18,-0.378 0.819,-0.468 1.332,-0.369 0.126,0.027 0.243,0.063 0.369,0.09 V -6.246 C 2.745,-6.354 2.061,-6.39 1.548,-5.994 c -0.09,0.072 -0.162,0.153 -0.234,0.234 -0.207,0.252 -0.27,0.531 -0.27,0.963 v 0.549 z" id="g5102" inkscape:connector-curvature="0"/>
    <path d="M 3.411,-1.143 H 3.42 v 0.864 C 3.42,0.171 3.393,0.486 3.159,0.783 2.925,1.08 2.646,1.197 2.169,1.161 1.845,1.143 1.539,1.089 1.233,0.981 1.044,0.918 0.864,0.819 0.675,0.738 v 0.36 c 0,0.045 -0.009,0.117 0.018,0.153 0.036,0.054 0.144,0.081 0.198,0.108 0.18,0.072 0.36,0.135 0.549,0.18 0.306,0.081 0.837,0.135 1.188,0.099 0.477,-0.063 0.9,-0.351 1.134,-0.729 0.216,-0.315 0.27,-0.63 0.27,-1.134 V -4.32 H 3.438 v 0.801 C 3.24,-3.861 3.024,-4.113 2.628,-4.257 c -0.603,-0.198 -1.269,0.09 -1.656,0.558 -0.558,0.666 -0.72,1.683 -0.36,2.484 0.126,0.261 0.297,0.495 0.513,0.675 0.369,0.306 0.873,0.459 1.341,0.333 0.441,-0.099 0.819,-0.567 0.945,-0.936 z m -0.981,-2.7 c 0.081,0 0.171,0 0.252,0.018 0.36,0.063 0.576,0.369 0.702,0.693 0.081,0.27 0.054,0.171 0.054,0.576 0,0.09 0.009,0.171 0,0.261 0,0.036 -0.018,0.063 -0.018,0.099 -0.018,0.315 -0.054,0.63 -0.18,0.927 C 3.069,-0.864 2.709,-0.522 2.151,-0.666 1.557,-0.792 1.125,-1.314 1.053,-1.908 0.945,-2.745 1.449,-3.771 2.43,-3.843 z" id="g5103" inkscape:connector-curvature="0"/>
    <path d="M 0.738,-6.246 V 0 H 1.35 v -1.971 c 0,-0.45 -0.027,-0.891 0.18,-1.305 0.09,-0.18 0.225,-0.351 0.405,-0.459 0.189,-0.099 0.387,-0.117 0.603,-0.099 0.27,0.018 0.549,0.099 0.72,0.324 0.153,0.207 0.162,0.468 0.162,0.711 V 0 H 4.032 V -2.43 C 4.032,-2.862 4.086,-3.357 3.87,-3.753 3.672,-4.122 3.294,-4.284 2.898,-4.311 2.745,-4.32 2.601,-4.329 2.448,-4.302 1.962,-4.203 1.521,-3.843 1.341,-3.384 H 1.332 V -6.246 H 0.738 z" id="g5104" inkscape:connector-curvature="0"/>
    <path d="m 0.738,-6.246 v 0.594 H 1.332 V -6.246 H 0.738 z m 0,1.998 V 0 H 1.332 V -4.248 H 0.738 z" id="g5105" inkscape:connector-curvature="0"/>
    <path d="m 0.742,-2.002 c -0.147,0.042 -0.168,0.259 -0.014,0.308 0.042,0.014 0.084,0.007 0.126,0.007 h 3.955 c 0.091,0 0.224,0.028 0.301,-0.042 C 5.201,-1.82 5.152,-1.981 5.026,-2.002 4.942,-2.023 4.844,-2.009 4.753,-2.009 H 0.868 c -0.042,0 -0.084,-0.007 -0.126,0.007 z" id="g00" inkscape:connector-curvature="0"/>
    <path d="M 0.15,-1.605 H 0.4 c 0.08,0 0.11,0.01 0.145,-0.06 0.08,-0.125 0.185,-0.245 0.32,-0.305 0.08,-0.04 0.16,-0.04 0.25,-0.04 H 1.31 c -0.025,0.09 -0.04,0.185 -0.06,0.28 -0.115,0.505 -0.245,0.995 -0.43,1.43 -0.025,0.065 -0.075,0.14 -0.07,0.21 0.015,0.13 0.175,0.155 0.27,0.095 0.085,-0.055 0.115,-0.16 0.155,-0.25 0.16,-0.385 0.27,-0.785 0.37,-1.19 0.035,-0.13 0.12,-0.545 0.13,-0.56 C 1.695,-2.02 1.75,-2.01 1.78,-2.01 h 0.3 C 1.995,-1.495 1.88,-1 2.025,-0.405 2.045,-0.3 2.12,-0.065 2.185,0 2.24,0.06 2.33,0.05 2.395,0.01 2.445,-0.015 2.47,-0.05 2.5,-0.095 2.545,-0.19 2.485,-0.275 2.45,-0.36 2.31,-0.7 2.315,-1.16 2.375,-1.6 2.395,-1.735 2.43,-1.875 2.445,-2.01 H 2.88 C 2.955,-2.01 3.04,-2 3.11,-2.025 3.21,-2.06 3.295,-2.2 3.23,-2.3 3.18,-2.375 3.075,-2.36 3,-2.36 H 1.425 c -0.18,0 -0.375,-0.02 -0.55,0.04 C 0.6,-2.225 0.35,-1.96 0.21,-1.715 0.185,-1.68 0.16,-1.645 0.15,-1.605 z" id="g125" inkscape:connector-curvature="0"/>
    <path d="m 1.535,-0.445 c 0.065,0.14 0.095,0.22 0.21,0.33 0.195,0.17 0.48,0.2 0.715,0.1 0.13,-0.055 0.235,-0.145 0.33,-0.25 0.32,-0.355 0.43,-0.84 0.515,-1.3 C 3.35,-1.795 3.39,-2.185 3.265,-2.35 3.235,-2.39 3.19,-2.4 3.14,-2.4 c -0.105,0.005 -0.205,0.095 -0.215,0.2 -0.01,0.055 0.02,0.105 0.03,0.155 0.065,0.225 -0.05,0.64 -0.08,0.785 -0.045,0.215 -0.095,0.445 -0.2,0.64 -0.085,0.155 -0.21,0.3 -0.4,0.31 -0.25,0 -0.41,-0.11 -0.505,-0.285 -0.02,-0.04 -0.055,-0.1 -0.055,-0.145 0.005,-0.02 0.05,-0.12 0.06,-0.15 0.055,-0.14 0.155,-0.445 0.12,-0.605 -0.01,-0.07 -0.065,-0.12 -0.14,-0.115 -0.075,0.01 -0.125,0.07 -0.16,0.13 -0.09,0.165 -0.12,0.41 -0.12,0.63 0,0.105 0.015,0.105 -0.04,0.18 -0.14,0.185 -0.38,0.38 -0.645,0.36 -0.035,-0.005 -0.07,-0.01 -0.1,-0.025 -0.19,-0.075 -0.22,-0.3 -0.22,-0.48 0,-0.43 0.17,-0.89 0.385,-1.195 0.03,-0.055 0.1,-0.125 0.1,-0.205 0,-0.125 -0.145,-0.175 -0.245,-0.125 -0.06,0.035 -0.1,0.095 -0.14,0.15 -0.245,0.38 -0.46,0.83 -0.46,1.39 0,0.3 0.08,0.57 0.285,0.735 0.185,0.135 0.445,0.13 0.65,0.045 0.125,-0.055 0.235,-0.135 0.33,-0.23 0.06,-0.06 0.12,-0.12 0.16,-0.195 z" id="g133" inkscape:connector-curvature="0"/>
    <path d="M 2.215,-3.745 C 2.12,-3.72 2.1,-3.59 2.065,-3.51 L 0.645,0.08 0.33,0.885 c -0.015,0.035 -0.035,0.07 -0.035,0.11 0,0.07 0.06,0.12 0.13,0.115 C 0.49,1.1 0.515,1.05 0.535,0.995 0.555,0.95 2.305,-3.475 2.345,-3.585 2.355,-3.615 2.36,-3.64 2.35,-3.67 2.33,-3.725 2.27,-3.76 2.215,-3.745 z" id="g161" inkscape:connector-curvature="0"/>
    <path d="M 1.26,-3.46 0.525,0 c 0.85,-0.005 1.745,0.01 2.565,-0.005 0.04,-0.09 0.055,-0.2 0.075,-0.305 H 0.97 l 0.285,-1.34 c 0.645,-0.005 1.335,0.01 1.95,-0.005 0.04,-0.08 0.055,-0.19 0.075,-0.29 H 1.32 c 0.085,-0.405 0.175,-0.81 0.255,-1.22 h 2.12 L 3.755,-3.46 H 1.26 z" id="g169" inkscape:connector-curvature="0"/>
    <path d="M 2.375,-0.57 C 2.23,-0.485 2.16,-0.42 1.99,-0.355 1.68,-0.225 1.27,-0.16 1,-0.41 0.945,-0.46 0.905,-0.52 0.87,-0.585 0.8,-0.73 0.765,-0.895 0.79,-1.105 L 0.82,-1.25 h 1.675 c 0.06,0 0.085,-0.005 0.085,-0.08 C 2.595,-1.395 2.6,-1.465 2.605,-1.53 2.63,-1.8 2.57,-2.1 2.345,-2.27 2.24,-2.35 2.085,-2.4 1.925,-2.415 1.24,-2.47 0.64,-1.885 0.48,-1.25 0.42,-1.01 0.415,-0.735 0.52,-0.505 0.585,-0.365 0.675,-0.23 0.805,-0.14 1.235,0.175 1.83,0.02 2.195,-0.18 2.23,-0.2 2.31,-0.24 2.33,-0.27 2.355,-0.305 2.375,-0.565 2.375,-0.57 z M 0.9,-1.47 c 0.035,-0.09 0.09,-0.18 0.15,-0.255 0.205,-0.27 0.54,-0.485 0.89,-0.395 0.085,0.025 0.165,0.065 0.23,0.125 0.11,0.12 0.145,0.265 0.145,0.46 0,0.015 0.005,0.04 -0.01,0.055 -0.015,0.02 -0.065,0.01 -0.09,0.01 H 0.9 z" id="g1101" inkscape:connector-curvature="0"/>
    <path d="M 1.08,-3.115 H 1.435 L 1.51,-3.47 c -0.12,0 -0.245,-0.005 -0.35,0.01 -0.035,0.11 -0.055,0.23 -0.08,0.345 z M 0.92,-2.36 0.855,-2.06 0.42,0 h 0.26 c 0.025,0 0.075,0.01 0.09,-0.01 0.02,-0.02 0.045,-0.17 0.045,-0.175 0.08,-0.405 0.45,-2.09 0.46,-2.175 H 0.92 z" id="g1105" inkscape:connector-curvature="0"/>
    <path d="M 0.605,-2.36 0.55,-2.08 h 0.485 c -0.02,0.14 -0.06,0.285 -0.09,0.425 -0.045,0.215 -0.25,1.1 -0.25,1.305 0,0.08 0.01,0.165 0.05,0.235 0.05,0.11 0.155,0.155 0.31,0.155 0.195,0 0.39,-0.04 0.575,-0.105 0.04,-0.015 0.23,-0.09 0.25,-0.115 0.015,-0.02 0.005,-0.05 0.005,-0.07 0,-0.065 -0.01,-0.135 -0.01,-0.2 -0.105,0.06 -0.145,0.1 -0.285,0.145 -0.15,0.05 -0.39,0.12 -0.485,-0.04 -0.07,-0.12 -0.025,-0.28 0,-0.41 0.02,-0.105 0.275,-1.285 0.28,-1.325 h 0.82 L 2.26,-2.36 H 1.445 L 1.59,-3.035 c -0.115,0 -0.235,-0.005 -0.335,0.01 C 1.18,-2.83 1.175,-2.565 1.1,-2.37 L 1.06,-2.36 H 0.605 z" id="g1116" inkscape:connector-curvature="0"/>
    <path d="m 0.535,-2.36 c 0.055,0.105 0.13,0.2 0.195,0.295 0.04,0.06 0.48,0.72 0.5,0.745 0.02,0.025 0.055,0.065 0.055,0.095 0,0.035 -0.05,0.07 -0.075,0.09 -0.225,0.21 -1.175,1.1 -1.205,1.135 0.13,0 0.26,0 0.38,-0.005 L 0.49,-0.1 1.42,-1.03 c 0.2,0.345 0.4,0.69 0.62,1.02 C 2.16,0.005 2.3,0 2.43,0 2.37,-0.1 1.69,-1.1 1.675,-1.125 1.66,-1.15 1.625,-1.185 1.63,-1.215 1.635,-1.25 1.685,-1.28 1.705,-1.3 1.78,-1.375 1.86,-1.445 1.94,-1.52 c 0.075,-0.07 0.87,-0.81 0.895,-0.84 -0.13,0 -0.26,0 -0.385,0.005 -0.325,0.29 -0.625,0.605 -0.945,0.9 C 1.31,-1.755 1.13,-2.07 0.92,-2.355 0.795,-2.36 0.665,-2.36 0.535,-2.36 z" id="g1120" inkscape:connector-curvature="0"/>
    <path d="m 0.58,-2.36 c 0.01,0.07 0.03,0.14 0.045,0.21 0.1,0.49 0.46,2.095 0.46,2.145 C 1.08,0.02 0.95,0.215 0.95,0.215 0.835,0.415 0.675,0.63 0.37,0.595 0.305,0.59 0.235,0.585 0.17,0.57 0.12,0.56 0.07,0.54 0.02,0.53 L -0.015,0.84 C 0.15,0.865 0.42,0.895 0.57,0.85 0.885,0.765 1.11,0.425 1.26,0.185 l 0.245,-0.39 c 0.135,-0.22 1.28,-2.035 1.35,-2.155 -0.12,0 -0.24,-0.005 -0.345,0.01 -0.125,0.17 -0.225,0.36 -0.34,0.535 -0.285,0.485 -0.605,0.93 -0.855,1.45 H 1.31 C 1.24,-1.085 1.06,-1.695 0.935,-2.36 H 0.58 z" id="g1121" inkscape:connector-curvature="0"/>
    <use id="g233" xlink:href="#g133" x="0" y="0" width="259.51401" height="267.16599"/>
    <use id="g269" xlink:href="#g169" x="0" y="0" width="259.51401" height="267.16599"/>
    <use id="g2101" xlink:href="#g1101" x="0" y="0" width="259.51401" height="267.16599"/>
    <use id="g2105" xlink:href="#g1105" x="0" y="0" width="259.51401" height="267.16599"/>
    <use id="g2116" xlink:href="#g1116" x="0" y="0" width="259.51401" height="267.16599"/>
  </defs>
  <g id="g24720" transform="translate(-196.08686,-183.40277)">
    <g transform="translate(100.278,88.3526)" id="g24177">
      <path d="m 152.681,207.247 50.298,-50.298" stroke-miterlimit="10.0375" id="path24179" inkscape:connector-curvature="0" style="fill:none;stroke:#000000;stroke-width:0.51214999;stroke-linecap:round;stroke-linejoin:round;stroke-miterlimit:10.03750038"/>
    </g>
    <use xlink:href="#g5105" transform="translate(277.069,243.653)" id="use24181" x="0" y="0" width="259.51401" height="267.16599"/>
    <use xlink:href="#g499" transform="translate(263.844,305.573)" id="use24183" x="0" y="0" width="259.51401" height="267.16599"/>
    <use xlink:href="#g4111" transform="translate(267.305,305.573)" id="use24185" x="0" y="0" width="259.51401" height="267.16599"/>
    <use xlink:href="#g4115" transform="translate(271.199,305.573)" id="use24187" x="0" y="0" width="259.51401" height="267.16599"/>
    <use xlink:href="#g233" transform="translate(275.424,305.573)" id="use24189" x="0" y="0" width="259.51401" height="267.16599"/>
    <use xlink:href="#g2116" transform="translate(280.513,305.573)" id="use24191" x="0" y="0" width="259.51401" height="267.16599"/>
    <use xlink:href="#g459" transform="translate(283.855,305.573)" id="use24193" x="0" y="0" width="259.51401" height="267.16599"/>
    <use xlink:href="#g449" transform="translate(288.484,305.573)" id="use24195" x="0" y="0" width="259.51401" height="267.16599"/>
    <use xlink:href="#g499" transform="translate(263.844,317.193)" id="use24197" x="0" y="0" width="259.51401" height="267.16599"/>
    <use xlink:href="#g4111" transform="translate(267.305,317.193)" id="use24199" x="0" y="0" width="259.51401" height="267.16599"/>
    <use xlink:href="#g4115" transform="translate(271.199,317.193)" id="use24201" x="0" y="0" width="259.51401" height="267.16599"/>
    <use xlink:href="#g233" transform="translate(275.424,317.193)" id="use24203" x="0" y="0" width="259.51401" height="267.16599"/>
    <use xlink:href="#g2116" transform="translate(280.513,317.193)" id="use24205" x="0" y="0" width="259.51401" height="267.16599"/>
    <use xlink:href="#g459" transform="translate(283.855,317.193)" id="use24207" x="0" y="0" width="259.51401" height="267.16599"/>
    <use xlink:href="#g449" transform="translate(288.484,317.193)" id="use24209" x="0" y="0" width="259.51401" height="267.16599"/>
  </g>
</svg>
