<?xml version="1.0" encoding="UTF-8"?>
<svg xmlns="http://www.w3.org/2000/svg" xmlns:xlink="http://www.w3.org/1999/xlink" width="166pt" height="250pt" viewBox="0 0 120 180" version="1.1">
<g id="surface0">
<path style="fill:none;stroke-width:4.8;stroke-linecap:butt;stroke-linejoin:round;stroke:rgb(0%,0%,0%);stroke-opacity:1;stroke-miterlimit:10;" d="M 601.367188 1792.34375 C 443.515625 1792.34375 292.070313 1760.976563 180.429688 1705.195313 C 68.828125 1649.375 6.09375 1573.671875 6.09375 1494.726563 C 6.09375 1415.78125 68.828125 1340.078125 180.429688 1284.257813 C 292.070313 1228.4375 443.515625 1197.070313 601.367188 1197.070313 C 759.21875 1197.070313 910.664063 1228.4375 1022.304688 1284.257813 C 1133.945313 1340.078125 1196.640625 1415.78125 1196.640625 1494.726563 C 1196.640625 1573.632813 1133.945313 1649.375 1022.304688 1705.15625 C 910.664063 1760.976563 759.257813 1792.34375 601.367188 1792.34375 L 601.367188 1792.34375 L 601.367188 1792.34375 Z M 601.367188 1792.34375 " transform="matrix(0.1,0,0,-0.1,0,180)"/>
<path style="fill:none;stroke-width:4.8;stroke-linecap:round;stroke-linejoin:round;stroke:rgb(0%,0%,0%);stroke-opacity:1;stroke-miterlimit:10;" d="M 6.09375 304.179688 C 6.09375 225.234375 68.828125 149.53125 180.429688 93.710938 C 292.070313 37.890625 443.515625 6.523438 601.367188 6.523438 C 759.21875 6.523438 910.664063 37.890625 1022.304688 93.710938 C 1133.945313 149.53125 1196.640625 225.234375 1196.640625 304.140625 " transform="matrix(0.1,0,0,-0.1,0,180)"/>
<path style="fill:none;stroke-width:4.8;stroke-linecap:round;stroke-linejoin:round;stroke:rgb(0%,0%,0%);stroke-opacity:1;stroke-miterlimit:10;" d="M 6.09375 1494.726563 L 6.09375 304.179688 " transform="matrix(0.1,0,0,-0.1,0,180)"/>
<path style="fill:none;stroke-width:4.8;stroke-linecap:round;stroke-linejoin:round;stroke:rgb(0%,0%,0%);stroke-opacity:1;stroke-miterlimit:10;" d="M 1196.640625 1494.726563 L 1196.640625 304.179688 " transform="matrix(0.1,0,0,-0.1,0,180)"/>
<path style="fill:none;stroke-width:2.4;stroke-linecap:round;stroke-linejoin:round;stroke:rgb(0%,0%,0%);stroke-opacity:1;stroke-miterlimit:10;" d="M 6.09375 701.015625 C 6.09375 622.109375 68.828125 546.367188 180.429688 490.546875 C 292.070313 434.765625 443.515625 403.359375 601.367188 403.359375 C 759.21875 403.359375 910.664063 434.726563 1022.304688 490.546875 C 1133.945313 546.367188 1196.640625 622.109375 1196.640625 701.015625 " transform="matrix(0.1,0,0,-0.1,0,180)"/>
<path style="fill:none;stroke-width:2.4;stroke-linecap:round;stroke-linejoin:round;stroke:rgb(0%,0%,0%);stroke-opacity:1;stroke-miterlimit:10;" d="M 6.09375 1097.851563 C 6.09375 1018.945313 68.828125 943.203125 180.429688 887.382813 C 292.070313 831.601563 443.515625 800.234375 601.367188 800.234375 C 759.21875 800.234375 910.664063 831.601563 1022.304688 887.382813 C 1133.945313 943.203125 1196.640625 1018.90625 1196.640625 1097.851563 " transform="matrix(0.1,0,0,-0.1,0,180)"/>
<path style="fill:none;stroke-width:4.252;stroke-linecap:butt;stroke-linejoin:miter;stroke:rgb(0%,0%,0%);stroke-opacity:1;stroke-miterlimit:4;" d="M 984.453125 680.429688 C 990.46875 672.109375 977.96875 652.890625 956.601563 637.5 C 935.195313 622.148438 913.046875 616.40625 907.03125 624.6875 C 892.734375 644.375 968.632813 702.5 984.453125 680.429688 L 984.453125 680.429688 Z M 984.453125 680.429688 " transform="matrix(0.1,0,0,-0.1,0,180)"/>
<path style="fill:none;stroke-width:4.252;stroke-linecap:butt;stroke-linejoin:miter;stroke:rgb(0%,0%,0%);stroke-opacity:1;stroke-miterlimit:4;" d="M 995.976563 708.90625 C 1002.734375 705.390625 1005.117188 696.835938 1001.40625 689.765625 C 997.734375 682.734375 989.257813 679.882813 982.539063 683.398438 C 975.859375 686.914063 973.398438 695.507813 977.109375 702.578125 C 980.820313 709.609375 989.296875 712.460938 995.976563 708.90625 L 995.976563 708.90625 Z M 995.976563 708.90625 " transform="matrix(0.1,0,0,-0.1,0,180)"/>
<path style="fill:none;stroke-width:4.252;stroke-linecap:round;stroke-linejoin:miter;stroke:rgb(0%,0%,0%);stroke-opacity:1;stroke-miterlimit:4;" d="M 1000.234375 705.3125 C 1000.234375 705.3125 1012.695313 718.671875 1022.34375 718.046875 C 1035.585938 717.109375 1034.921875 706.5625 1028.945313 712.5 " transform="matrix(0.1,0,0,-0.1,0,180)"/>
<path style="fill:none;stroke-width:4.252;stroke-linecap:round;stroke-linejoin:miter;stroke:rgb(0%,0%,0%);stroke-opacity:1;stroke-miterlimit:4;" d="M 1000.234375 705.3125 C 1000.234375 705.3125 1001.953125 728.59375 995.3125 738.671875 C 986.289063 752.460938 988.125 737.109375 992.226563 737.109375 " transform="matrix(0.1,0,0,-0.1,0,180)"/>
<path style="fill:none;stroke-width:4.252;stroke-linecap:round;stroke-linejoin:miter;stroke:rgb(0%,0%,0%);stroke-opacity:1;stroke-miterlimit:4;" d="M 956.640625 681.25 C 956.640625 681.25 947.382813 694.921875 956.640625 704.179688 " transform="matrix(0.1,0,0,-0.1,0,180)"/>
<path style="fill:none;stroke-width:4.252;stroke-linecap:round;stroke-linejoin:miter;stroke:rgb(0%,0%,0%);stroke-opacity:1;stroke-miterlimit:4;" d="M 945.46875 675.507813 C 945.46875 675.507813 932.65625 685.859375 940.15625 700.859375 " transform="matrix(0.1,0,0,-0.1,0,180)"/>
<path style="fill:none;stroke-width:4.252;stroke-linecap:round;stroke-linejoin:miter;stroke:rgb(0%,0%,0%);stroke-opacity:1;stroke-miterlimit:4;" d="M 931.054688 665.546875 C 931.054688 665.546875 913.359375 672.304688 913.359375 683.242188 " transform="matrix(0.1,0,0,-0.1,0,180)"/>
<path style="fill:none;stroke-width:4.252;stroke-linecap:round;stroke-linejoin:miter;stroke:rgb(0%,0%,0%);stroke-opacity:1;stroke-miterlimit:4;" d="M 916.5625 651.992188 L 896.796875 655.859375 " transform="matrix(0.1,0,0,-0.1,0,180)"/>
<path style="fill:none;stroke-width:4.252;stroke-linecap:round;stroke-linejoin:miter;stroke:rgb(0%,0%,0%);stroke-opacity:1;stroke-miterlimit:4;" d="M 974.726563 653.710938 C 974.726563 653.710938 989.726563 637.109375 998.476563 645.859375 " transform="matrix(0.1,0,0,-0.1,0,180)"/>
<path style="fill:none;stroke-width:4.252;stroke-linecap:round;stroke-linejoin:miter;stroke:rgb(0%,0%,0%);stroke-opacity:1;stroke-miterlimit:4;" d="M 962.265625 641.25 C 962.265625 641.25 977.265625 624.648438 986.015625 633.398438 " transform="matrix(0.1,0,0,-0.1,0,180)"/>
<path style="fill:none;stroke-width:4.252;stroke-linecap:round;stroke-linejoin:miter;stroke:rgb(0%,0%,0%);stroke-opacity:1;stroke-miterlimit:4;" d="M 949.21875 632.617188 C 949.21875 632.617188 960.195313 630.820313 952.65625 608.359375 " transform="matrix(0.1,0,0,-0.1,0,180)"/>
<path style="fill:none;stroke-width:4.252;stroke-linecap:round;stroke-linejoin:miter;stroke:rgb(0%,0%,0%);stroke-opacity:1;stroke-miterlimit:4;" d="M 927.148438 622.539063 C 927.148438 622.539063 941.484375 611.875 927.148438 597.539063 " transform="matrix(0.1,0,0,-0.1,0,180)"/>
</g>
</svg>
