<?xml version="1.0" encoding="UTF-8"?>
<svg xmlns="http://www.w3.org/2000/svg" xmlns:xlink="http://www.w3.org/1999/xlink" width="284.05633244129587pt" height="242.4871130596428pt" viewBox="0 0 164 140" version="1.1">
<defs>
<clipPath id="clip1">
  <path d="M -223 665 L 389 665 L 389 -127 L -223 -127 L -223 665 Z M -223 665 "/>
</clipPath>
<clipPath id="clip2">
  <path d="M 0.417969 139.84375 L 164.832031 139.84375 L 164.832031 -2.199219 L 0.417969 -2.199219 L 0.417969 139.84375 Z M 0.417969 139.84375 "/>
</clipPath>
<clipPath id="clip3">
  <path d="M -223 665 L 389 665 L 389 -127 L -223 -127 L -223 665 Z M -223 665 "/>
</clipPath>
<clipPath id="clip4">
  <path d="M 0.417969 139.84375 L 164.832031 139.84375 L 164.832031 -2.199219 L 0.417969 -2.199219 L 0.417969 139.84375 Z M 0.417969 139.84375 "/>
</clipPath>
<clipPath id="clip5">
  <path d="M 163.242188 139.84375 L 24.539063 139.84375 L 24.539063 134.75 L 163.242188 134.75 L 163.242188 139.84375 Z M 163.242188 139.84375 "/>
</clipPath>
<clipPath id="clip6">
  <path d="M -125.9375 281.828125 L -118.027344 289.734375 L 63.078125 108.628906 L 55.167969 100.722656 L -125.9375 281.828125 Z M -125.9375 281.828125 "/>
</clipPath>
<clipPath id="clip7">
  <path d="M -223 665 L 389 665 L 389 -127 L -223 -127 L -223 665 Z M -223 665 "/>
</clipPath>
<clipPath id="clip8">
  <path d="M 0.417969 139.84375 L 164.832031 139.84375 L 164.832031 -2.199219 L 0.417969 -2.199219 L 0.417969 139.84375 Z M 0.417969 139.84375 "/>
</clipPath>
<clipPath id="clip9">
  <path d="M 163.242188 139.84375 L 24.539063 139.84375 L 24.539063 134.75 L 163.242188 134.75 L 163.242188 139.84375 Z M 163.242188 139.84375 "/>
</clipPath>
<clipPath id="clip10">
  <path d="M -118.820313 288.945313 L -110.910156 296.855469 L 70.195313 115.746094 L 62.289063 107.839844 L -118.820313 288.945313 Z M -118.820313 288.945313 "/>
</clipPath>
<clipPath id="clip11">
  <path d="M -223 665 L 389 665 L 389 -127 L -223 -127 L -223 665 Z M -223 665 "/>
</clipPath>
<clipPath id="clip12">
  <path d="M 0.417969 139.84375 L 164.832031 139.84375 L 164.832031 -2.199219 L 0.417969 -2.199219 L 0.417969 139.84375 Z M 0.417969 139.84375 "/>
</clipPath>
<clipPath id="clip13">
  <path d="M 163.242188 139.84375 L 24.539063 139.84375 L 24.539063 134.75 L 163.242188 134.75 L 163.242188 139.84375 Z M 163.242188 139.84375 "/>
</clipPath>
<clipPath id="clip14">
  <path d="M -111.703125 296.0625 L -103.792969 303.972656 L 77.3125 122.863281 L 69.402344 114.957031 L -111.703125 296.0625 Z M -111.703125 296.0625 "/>
</clipPath>
<clipPath id="clip15">
  <path d="M -223 665 L 389 665 L 389 -127 L -223 -127 L -223 665 Z M -223 665 "/>
</clipPath>
<clipPath id="clip16">
  <path d="M 0.417969 139.84375 L 164.832031 139.84375 L 164.832031 -2.199219 L 0.417969 -2.199219 L 0.417969 139.84375 Z M 0.417969 139.84375 "/>
</clipPath>
<clipPath id="clip17">
  <path d="M 163.242188 139.84375 L 24.539063 139.84375 L 24.539063 134.75 L 163.242188 134.75 L 163.242188 139.84375 Z M 163.242188 139.84375 "/>
</clipPath>
<clipPath id="clip18">
  <path d="M -104.582031 303.179688 L -96.675781 311.089844 L 84.429688 129.980469 L 76.523438 122.074219 L -104.582031 303.179688 Z M -104.582031 303.179688 "/>
</clipPath>
<clipPath id="clip19">
  <path d="M -223 665 L 389 665 L 389 -127 L -223 -127 L -223 665 Z M -223 665 "/>
</clipPath>
<clipPath id="clip20">
  <path d="M 0.417969 139.84375 L 164.832031 139.84375 L 164.832031 -2.199219 L 0.417969 -2.199219 L 0.417969 139.84375 Z M 0.417969 139.84375 "/>
</clipPath>
<clipPath id="clip21">
  <path d="M 163.242188 139.84375 L 24.539063 139.84375 L 24.539063 134.75 L 163.242188 134.75 L 163.242188 139.84375 Z M 163.242188 139.84375 "/>
</clipPath>
<clipPath id="clip22">
  <path d="M -97.464844 310.296875 L -89.558594 318.207031 L 91.546875 137.101563 L 83.640625 129.191406 L -97.464844 310.296875 Z M -97.464844 310.296875 "/>
</clipPath>
<clipPath id="clip23">
  <path d="M -223 665 L 389 665 L 389 -127 L -223 -127 L -223 665 Z M -223 665 "/>
</clipPath>
<clipPath id="clip24">
  <path d="M 0.417969 139.84375 L 164.832031 139.84375 L 164.832031 -2.199219 L 0.417969 -2.199219 L 0.417969 139.84375 Z M 0.417969 139.84375 "/>
</clipPath>
<clipPath id="clip25">
  <path d="M 163.242188 139.84375 L 24.539063 139.84375 L 24.539063 134.75 L 163.242188 134.75 L 163.242188 139.84375 Z M 163.242188 139.84375 "/>
</clipPath>
<clipPath id="clip26">
  <path d="M -90.347656 317.421875 L -82.441406 325.328125 L 98.667969 144.222656 L 90.757813 136.316406 L -90.347656 317.421875 Z M -90.347656 317.421875 "/>
</clipPath>
<clipPath id="clip27">
  <path d="M -223 665 L 389 665 L 389 -127 L -223 -127 L -223 665 Z M -223 665 "/>
</clipPath>
<clipPath id="clip28">
  <path d="M 0.417969 139.84375 L 164.832031 139.84375 L 164.832031 -2.199219 L 0.417969 -2.199219 L 0.417969 139.84375 Z M 0.417969 139.84375 "/>
</clipPath>
<clipPath id="clip29">
  <path d="M 163.242188 139.84375 L 24.539063 139.84375 L 24.539063 134.75 L 163.242188 134.75 L 163.242188 139.84375 Z M 163.242188 139.84375 "/>
</clipPath>
<clipPath id="clip30">
  <path d="M 82.847656 129.984375 L 90.757813 137.890625 L 271.863281 -43.214844 L 263.957031 -51.125 L 82.847656 129.984375 Z M 82.847656 129.984375 "/>
</clipPath>
<clipPath id="clip31">
  <path d="M -223 665 L 389 665 L 389 -127 L -223 -127 L -223 665 Z M -223 665 "/>
</clipPath>
<clipPath id="clip32">
  <path d="M 0.417969 139.84375 L 164.832031 139.84375 L 164.832031 -2.199219 L 0.417969 -2.199219 L 0.417969 139.84375 Z M 0.417969 139.84375 "/>
</clipPath>
<clipPath id="clip33">
  <path d="M 163.242188 139.84375 L 24.539063 139.84375 L 24.539063 134.75 L 163.242188 134.75 L 163.242188 139.84375 Z M 163.242188 139.84375 "/>
</clipPath>
<clipPath id="clip34">
  <path d="M 89.964844 137.101563 L 97.875 145.007813 L 278.980469 -36.097656 L 271.074219 -44.003906 L 89.964844 137.101563 Z M 89.964844 137.101563 "/>
</clipPath>
<clipPath id="clip35">
  <path d="M -223 665 L 389 665 L 389 -127 L -223 -127 L -223 665 Z M -223 665 "/>
</clipPath>
<clipPath id="clip36">
  <path d="M 0.417969 139.84375 L 164.832031 139.84375 L 164.832031 -2.199219 L 0.417969 -2.199219 L 0.417969 139.84375 Z M 0.417969 139.84375 "/>
</clipPath>
<clipPath id="clip37">
  <path d="M 163.242188 139.84375 L 24.539063 139.84375 L 24.539063 134.75 L 163.242188 134.75 L 163.242188 139.84375 Z M 163.242188 139.84375 "/>
</clipPath>
<clipPath id="clip38">
  <path d="M 97.085938 144.21875 L 104.992188 152.125 L 286.097656 -28.980469 L 278.191406 -36.886719 L 97.085938 144.21875 Z M 97.085938 144.21875 "/>
</clipPath>
<clipPath id="clip39">
  <path d="M -223 665 L 389 665 L 389 -127 L -223 -127 L -223 665 Z M -223 665 "/>
</clipPath>
<clipPath id="clip40">
  <path d="M 0.417969 139.84375 L 164.832031 139.84375 L 164.832031 -2.199219 L 0.417969 -2.199219 L 0.417969 139.84375 Z M 0.417969 139.84375 "/>
</clipPath>
<clipPath id="clip41">
  <path d="M 163.242188 139.84375 L 24.539063 139.84375 L 24.539063 134.75 L 163.242188 134.75 L 163.242188 139.84375 Z M 163.242188 139.84375 "/>
</clipPath>
<clipPath id="clip42">
  <path d="M 104.203125 151.335938 L 112.109375 159.246094 L 293.21875 -21.863281 L 285.308594 -29.769531 L 104.203125 151.335938 Z M 104.203125 151.335938 "/>
</clipPath>
<clipPath id="clip43">
  <path d="M -223 665 L 389 665 L 389 -127 L -223 -127 L -223 665 Z M -223 665 "/>
</clipPath>
<clipPath id="clip44">
  <path d="M 0.417969 139.84375 L 164.832031 139.84375 L 164.832031 -2.199219 L 0.417969 -2.199219 L 0.417969 139.84375 Z M 0.417969 139.84375 "/>
</clipPath>
<clipPath id="clip45">
  <path d="M 163.242188 139.84375 L 24.539063 139.84375 L 24.539063 134.75 L 163.242188 134.75 L 163.242188 139.84375 Z M 163.242188 139.84375 "/>
</clipPath>
<clipPath id="clip46">
  <path d="M 111.320313 158.453125 L 119.230469 166.363281 L 300.335938 -14.742188 L 292.425781 -22.652344 L 111.320313 158.453125 Z M 111.320313 158.453125 "/>
</clipPath>
<clipPath id="clip47">
  <path d="M -223 665 L 389 665 L 389 -127 L -223 -127 L -223 665 Z M -223 665 "/>
</clipPath>
<clipPath id="clip48">
  <path d="M 0.417969 139.84375 L 164.832031 139.84375 L 164.832031 -2.199219 L 0.417969 -2.199219 L 0.417969 139.84375 Z M 0.417969 139.84375 "/>
</clipPath>
<clipPath id="clip49">
  <path d="M 163.242188 139.84375 L 24.539063 139.84375 L 24.539063 134.75 L 163.242188 134.75 L 163.242188 139.84375 Z M 163.242188 139.84375 "/>
</clipPath>
<clipPath id="clip50">
  <path d="M 118.4375 165.570313 L 126.347656 173.480469 L 307.453125 -7.628906 L 299.542969 -15.535156 L 118.4375 165.570313 Z M 118.4375 165.570313 "/>
</clipPath>
<clipPath id="clip51">
  <path d="M -223 665 L 389 665 L 389 -127 L -223 -127 L -223 665 Z M -223 665 "/>
</clipPath>
<clipPath id="clip52">
  <path d="M 0.417969 139.84375 L 164.832031 139.84375 L 164.832031 -2.199219 L 0.417969 -2.199219 L 0.417969 139.84375 Z M 0.417969 139.84375 "/>
</clipPath>
<clipPath id="clip53">
  <path d="M 163.242188 139.84375 L 24.539063 139.84375 L 24.539063 134.75 L 163.242188 134.75 L 163.242188 139.84375 Z M 163.242188 139.84375 "/>
</clipPath>
<clipPath id="clip54">
  <path d="M 125.554688 172.6875 L 133.464844 180.597656 L 314.570313 -0.507813 L 306.660156 -8.417969 L 125.554688 172.6875 Z M 125.554688 172.6875 "/>
</clipPath>
<clipPath id="clip55">
  <path d="M -223 665 L 389 665 L 389 -127 L -223 -127 L -223 665 Z M -223 665 "/>
</clipPath>
<clipPath id="clip56">
  <path d="M 0.417969 139.84375 L 164.832031 139.84375 L 164.832031 -2.199219 L 0.417969 -2.199219 L 0.417969 139.84375 Z M 0.417969 139.84375 "/>
</clipPath>
</defs>
<g id="surface0">
<g clip-path="url(#clip1)" clip-rule="nonzero">
<g clip-path="url(#clip2)" clip-rule="nonzero">
<path style="fill:none;stroke-width:5;stroke-linecap:butt;stroke-linejoin:miter;stroke:rgb(0%,0%,0%);stroke-opacity:1;stroke-miterlimit:4;" d="M 917.45049 674.458793 C 917.45049 629.195259 880.743719 592.523414 835.480185 592.523414 C 790.251576 592.523414 753.544805 629.195259 753.544805 674.458793 C 753.544805 719.687402 790.251576 756.394173 835.480185 756.394173 C 880.743719 756.394173 917.45049 719.687402 917.45049 674.458793 Z M 917.45049 674.458793 " transform="matrix(0.111845,0,0,-0.111845,0.419,139.845)"/>
<path style="fill:none;stroke-width:5;stroke-linecap:butt;stroke-linejoin:miter;stroke:rgb(0%,0%,0%);stroke-opacity:1;stroke-miterlimit:4;" d="M 1252.49145 674.493719 C 1252.49145 444.229458 1065.70952 257.517379 835.480185 257.517379 C 605.285775 257.517379 418.503845 444.229458 418.503845 674.493719 C 418.503845 904.618278 605.285775 1091.400208 835.480185 1091.400208 C 1065.70952 1091.400208 1252.49145 904.618278 1252.49145 674.493719 Z M 1252.49145 674.493719 " transform="matrix(0.111845,0,0,-0.111845,0.419,139.845)"/>
<path style="fill:none;stroke-width:5;stroke-linecap:butt;stroke-linejoin:miter;stroke:rgb(0%,0%,0%);stroke-opacity:1;stroke-miterlimit:4;" d="M 1272.468874 674.493719 C 1272.468874 433.192979 1076.745999 237.505029 835.480185 237.505029 C 594.21437 237.505029 398.52642 433.192979 398.52642 674.493719 C 398.52642 915.654757 594.21437 1111.377632 835.480185 1111.377632 C 1076.745999 1111.377632 1272.468874 915.654757 1272.468874 674.493719 Z M 1272.468874 674.493719 " transform="matrix(0.111845,0,0,-0.111845,0.419,139.845)"/>
<path style="fill:none;stroke-width:5;stroke-linecap:butt;stroke-linejoin:miter;stroke:rgb(0%,0%,0%);stroke-opacity:1;stroke-miterlimit:4;" d="M 1177.226854 1068.943069 C 1287.661496 973.247016 1357.512629 831.973099 1357.512629 674.493719 " transform="matrix(0.111845,0,0,-0.111845,0.419,139.845)"/>
<path style=" stroke:none;fill-rule:nonzero;fill:rgb(0%,0%,0%);fill-opacity:1;" d="M 150.640625 63.296875 L 152.269531 69.359375 L 153.890625 63.296875 L 150.640625 63.296875 "/>
<path style="fill:none;stroke-width:3.8;stroke-linecap:butt;stroke-linejoin:miter;stroke:rgb(0%,0%,0%);stroke-opacity:1;stroke-miterlimit:4;" d="M 785.25722 1064.472596 C 786.235136 1058.325696 781.939291 1052.528052 775.827317 1051.550136 C 769.610566 1050.607146 763.812922 1054.83314 762.835006 1061.014965 C 761.892016 1067.19679 766.118009 1072.994434 772.33476 1073.97235 L 770.483705 1085.812117 " transform="matrix(0.111845,0,0,-0.111845,0.419,139.845)"/>
<path style="fill:none;stroke-width:3.8;stroke-linecap:butt;stroke-linejoin:miter;stroke:rgb(0%,0%,0%);stroke-opacity:1;stroke-miterlimit:4;" d="M 772.090281 1051.200881 L 822.627576 755.905215 L 779.73898 1052.318499 " transform="matrix(0.111845,0,0,-0.111845,0.419,139.845)"/>
<path style="fill:none;stroke-width:3.8;stroke-linecap:butt;stroke-linejoin:miter;stroke:rgb(0%,0%,0%);stroke-opacity:1;stroke-miterlimit:4;" d="M 639.897011 1015.332324 C 643.145089 1009.988712 641.433736 1003.003599 636.090125 999.755521 C 630.746513 996.507443 623.7614 998.183871 620.513322 1003.527482 C 617.230319 1008.906019 618.976597 1015.856207 624.320209 1019.104285 L 618.068532 1029.372402 " transform="matrix(0.111845,0,0,-0.111845,0.419,139.845)"/>
<path style="fill:none;stroke-width:3.8;stroke-linecap:butt;stroke-linejoin:miter;stroke:rgb(0%,0%,0%);stroke-opacity:1;stroke-miterlimit:4;" d="M 632.807121 998.009243 L 792.556663 744.589331 L 639.442979 1001.990757 " transform="matrix(0.111845,0,0,-0.111845,0.419,139.845)"/>
<path style="fill:none;stroke-width:3.8;stroke-linecap:butt;stroke-linejoin:miter;stroke:rgb(0%,0%,0%);stroke-opacity:1;stroke-miterlimit:4;" d="M 524.537865 914.222808 C 529.602072 910.520698 530.684765 903.430808 527.01758 898.366601 C 523.31547 893.302394 516.22558 892.219701 511.161373 895.886886 C 506.097166 899.588996 505.014473 906.678886 508.716583 911.743093 L 499.007276 918.832983 " transform="matrix(0.111845,0,0,-0.111845,0.419,139.845)"/>
<path style="fill:none;stroke-width:3.8;stroke-linecap:butt;stroke-linejoin:miter;stroke:rgb(0%,0%,0%);stroke-opacity:1;stroke-miterlimit:4;" d="M 524.642642 895.502705 L 769.331161 722.62115 L 529.252816 901.719455 " transform="matrix(0.111845,0,0,-0.111845,0.419,139.845)"/>
<path style="fill:none;stroke-width:3.8;stroke-linecap:butt;stroke-linejoin:miter;stroke:rgb(0%,0%,0%);stroke-opacity:1;stroke-miterlimit:4;" d="M 456.048829 776.89548 C 462.125877 775.428607 465.862913 769.281707 464.396039 763.239584 C 462.929165 757.12761 456.817191 753.390574 450.705217 754.857448 C 444.628168 756.324322 440.891133 762.471221 442.392932 768.54827 L 430.692867 771.377241 " transform="matrix(0.111845,0,0,-0.111845,0.419,139.845)"/>
<path style="fill:none;stroke-width:3.8;stroke-linecap:butt;stroke-linejoin:miter;stroke:rgb(0%,0%,0%);stroke-opacity:1;stroke-miterlimit:4;" d="M 463.313347 759.64225 L 755.570488 693.772632 L 465.199327 767.151247 " transform="matrix(0.111845,0,0,-0.111845,0.419,139.845)"/>
<path style="fill:none;stroke-width:3.8;stroke-linecap:butt;stroke-linejoin:miter;stroke:rgb(0%,0%,0%);stroke-opacity:1;stroke-miterlimit:4;" d="M 445.780712 623.851647 C 451.962537 624.829563 457.760182 620.568644 458.738097 614.386819 C 459.681088 608.204994 455.455094 602.407349 449.273269 601.429434 C 443.091444 600.486443 437.293799 604.747362 436.315884 610.929188 L 424.476117 609.078133 " transform="matrix(0.111845,0,0,-0.111845,0.419,139.845)"/>
<path style="fill:none;stroke-width:3.8;stroke-linecap:butt;stroke-linejoin:miter;stroke:rgb(0%,0%,0%);stroke-opacity:1;stroke-miterlimit:4;" d="M 459.087353 610.684709 L 754.383019 661.256929 L 457.969735 618.368333 " transform="matrix(0.111845,0,0,-0.111845,0.419,139.845)"/>
<path style="fill:none;stroke-width:3.8;stroke-linecap:butt;stroke-linejoin:miter;stroke:rgb(0%,0%,0%);stroke-opacity:1;stroke-miterlimit:4;" d="M 494.95591 478.491439 C 500.299522 481.739517 507.284635 480.028164 510.532713 474.719478 C 513.78079 469.340941 512.104363 462.390753 506.725826 459.10775 C 501.382214 455.824746 494.432026 457.571025 491.149023 462.914636 L 480.915832 456.697885 " transform="matrix(0.111845,0,0,-0.111845,0.419,139.845)"/>
<path style="fill:none;stroke-width:3.8;stroke-linecap:butt;stroke-linejoin:miter;stroke:rgb(0%,0%,0%);stroke-opacity:1;stroke-miterlimit:4;" d="M 512.278991 471.401549 L 765.698902 631.186016 L 508.297476 478.037407 " transform="matrix(0.111845,0,0,-0.111845,0.419,139.845)"/>
<path style="fill:none;stroke-width:3.8;stroke-linecap:butt;stroke-linejoin:miter;stroke:rgb(0%,0%,0%);stroke-opacity:1;stroke-miterlimit:4;" d="M 596.065425 363.132292 C 599.767535 368.1965 606.857425 369.279192 611.886707 365.612008 C 616.98584 361.909898 618.068532 354.820008 614.401348 349.7558 C 610.699238 344.691593 603.609348 343.608901 598.510215 347.311011 L 591.455251 337.601703 " transform="matrix(0.111845,0,0,-0.111845,0.419,139.845)"/>
<path style="fill:none;stroke-width:3.8;stroke-linecap:butt;stroke-linejoin:miter;stroke:rgb(0%,0%,0%);stroke-opacity:1;stroke-miterlimit:4;" d="M 614.785529 363.237069 L 787.632158 607.925589 L 608.568778 367.847244 " transform="matrix(0.111845,0,0,-0.111845,0.419,139.845)"/>
<path style="fill:none;stroke-width:3.8;stroke-linecap:butt;stroke-linejoin:miter;stroke:rgb(0%,0%,0%);stroke-opacity:1;stroke-miterlimit:4;" d="M 733.392753 294.643256 C 734.859627 300.75523 741.006527 304.457341 747.04865 303.025392 C 753.160624 301.523593 756.89766 295.411619 755.430786 289.299645 C 753.963912 283.222596 747.817012 279.48556 741.705038 280.98736 L 738.910993 269.32222 " transform="matrix(0.111845,0,0,-0.111845,0.419,139.845)"/>
<path style="fill:none;stroke-width:3.8;stroke-linecap:butt;stroke-linejoin:miter;stroke:rgb(0%,0%,0%);stroke-opacity:1;stroke-miterlimit:4;" d="M 750.645983 301.907774 L 816.480676 594.164916 L 743.136986 303.793755 " transform="matrix(0.111845,0,0,-0.111845,0.419,139.845)"/>
<path style="fill:none;stroke-width:3.8;stroke-linecap:butt;stroke-linejoin:miter;stroke:rgb(0%,0%,0%);stroke-opacity:1;stroke-miterlimit:4;" d="M 885.842852 284.549768 C 884.899861 290.731593 889.160781 296.529237 895.30768 297.472227 C 901.524431 298.450143 907.28715 294.224149 908.265065 288.042324 C 909.242981 281.825573 904.982062 276.062855 898.765311 275.084939 L 900.616366 263.210246 " transform="matrix(0.111845,0,0,-0.111845,0.419,139.845)"/>
<path style="fill:none;stroke-width:3.8;stroke-linecap:butt;stroke-linejoin:miter;stroke:rgb(0%,0%,0%);stroke-opacity:1;stroke-miterlimit:4;" d="M 899.00979 297.856408 L 848.472495 593.117149 L 891.361091 296.703865 " transform="matrix(0.111845,0,0,-0.111845,0.419,139.845)"/>
<path style="fill:none;stroke-width:3.8;stroke-linecap:butt;stroke-linejoin:miter;stroke:rgb(0%,0%,0%);stroke-opacity:1;stroke-miterlimit:4;" d="M 1031.20306 333.724965 C 1027.954982 339.068577 1029.666335 346.05369 1035.009947 349.266843 C 1040.353558 352.549846 1047.303746 350.838493 1050.58675 345.494881 C 1053.869753 340.15127 1052.123474 333.201082 1046.779863 329.918079 L 1053.031539 319.684888 " transform="matrix(0.111845,0,0,-0.111845,0.419,139.845)"/>
<path style="fill:none;stroke-width:3.8;stroke-linecap:butt;stroke-linejoin:miter;stroke:rgb(0%,0%,0%);stroke-opacity:1;stroke-miterlimit:4;" d="M 1038.29295 351.048046 L 878.543408 604.467958 L 1031.657092 347.066532 " transform="matrix(0.111845,0,0,-0.111845,0.419,139.845)"/>
<path style="fill:none;stroke-width:3.8;stroke-linecap:butt;stroke-linejoin:miter;stroke:rgb(0%,0%,0%);stroke-opacity:1;stroke-miterlimit:4;" d="M 1146.562207 434.834481 C 1141.497999 438.501665 1140.415307 445.626481 1144.117417 450.655762 C 1147.784601 455.71997 1154.874491 456.837588 1159.938699 453.135478 C 1165.002906 449.468293 1166.085598 442.343478 1162.383488 437.27927 L 1172.092796 430.224306 " transform="matrix(0.111845,0,0,-0.111845,0.419,139.845)"/>
<path style="fill:none;stroke-width:3.8;stroke-linecap:butt;stroke-linejoin:miter;stroke:rgb(0%,0%,0%);stroke-opacity:1;stroke-miterlimit:4;" d="M 1146.45743 453.554584 L 901.76891 626.401214 L 1141.847255 447.337834 " transform="matrix(0.111845,0,0,-0.111845,0.419,139.845)"/>
<path style="fill:none;stroke-width:3.8;stroke-linecap:butt;stroke-linejoin:miter;stroke:rgb(0%,0%,0%);stroke-opacity:1;stroke-miterlimit:4;" d="M 1215.051243 572.161809 C 1208.974194 573.628683 1205.237159 579.740657 1206.704032 585.817705 C 1208.170906 591.929679 1214.317806 595.63179 1220.394854 594.199841 C 1226.471903 592.732967 1230.208939 586.586068 1228.742065 580.474094 L 1240.407204 577.645123 " transform="matrix(0.111845,0,0,-0.111845,0.419,139.845)"/>
<path style="fill:none;stroke-width:3.8;stroke-linecap:butt;stroke-linejoin:miter;stroke:rgb(0%,0%,0%);stroke-opacity:1;stroke-miterlimit:4;" d="M 1207.786725 589.380113 L 915.564509 655.249732 L 1205.93567 581.871116 " transform="matrix(0.111845,0,0,-0.111845,0.419,139.845)"/>
<path style="fill:none;stroke-width:3.8;stroke-linecap:butt;stroke-linejoin:miter;stroke:rgb(0%,0%,0%);stroke-opacity:1;stroke-miterlimit:4;" d="M 1215.679903 571.987181 C 1209.602854 573.454055 1205.865819 579.600954 1207.332693 585.678003 C 1208.799566 591.755052 1214.946466 595.492087 1221.023515 594.025213 C 1227.100563 592.593265 1230.837599 586.41144 1229.370725 580.334391 L 1241.035864 577.50542 " transform="matrix(0.111845,0,0,-0.111845,0.419,139.845)"/>
<path style="fill:none;stroke-width:3.8;stroke-linecap:butt;stroke-linejoin:miter;stroke:rgb(0%,0%,0%);stroke-opacity:1;stroke-miterlimit:4;" d="M 1208.415385 589.240411 L 916.193169 655.11003 L 1206.56433 581.731414 " transform="matrix(0.111845,0,0,-0.111845,0.419,139.845)"/>
<path style="fill:none;stroke-width:3.8;stroke-linecap:butt;stroke-linejoin:miter;stroke:rgb(0%,0%,0%);stroke-opacity:1;stroke-miterlimit:4;" d="M 1225.773392 724.437279 C 1219.591566 723.494289 1213.793922 727.755208 1212.850932 733.902108 C 1211.873016 740.118859 1216.133935 745.881577 1222.315761 746.859493 C 1228.497586 747.837409 1234.29523 743.57649 1235.273146 737.359739 L 1247.112913 739.210794 " transform="matrix(0.111845,0,0,-0.111845,0.419,139.845)"/>
<path style="fill:none;stroke-width:3.8;stroke-linecap:butt;stroke-linejoin:miter;stroke:rgb(0%,0%,0%);stroke-opacity:1;stroke-miterlimit:4;" d="M 1212.466751 737.604218 L 917.206011 687.066923 L 1213.619295 729.955519 " transform="matrix(0.111845,0,0,-0.111845,0.419,139.845)"/>
<path style="fill:none;stroke-width:3.8;stroke-linecap:butt;stroke-linejoin:miter;stroke:rgb(0%,0%,0%);stroke-opacity:1;stroke-miterlimit:4;" d="M 1176.633119 869.797488 C 1171.254582 866.54941 1164.304394 868.260763 1161.056317 873.604374 C 1157.808239 878.947986 1159.484666 885.933099 1164.828278 889.181177 C 1170.206815 892.46418 1177.157003 890.752828 1180.405081 885.37429 L 1190.673197 891.625967 " transform="matrix(0.111845,0,0,-0.111845,0.419,139.845)"/>
<path style="fill:none;stroke-width:3.8;stroke-linecap:butt;stroke-linejoin:miter;stroke:rgb(0%,0%,0%);stroke-opacity:1;stroke-miterlimit:4;" d="M 1159.310038 876.887378 L 905.890127 717.137836 L 1163.291553 870.25152 " transform="matrix(0.111845,0,0,-0.111845,0.419,139.845)"/>
<path style="fill:none;stroke-width:3.8;stroke-linecap:butt;stroke-linejoin:miter;stroke:rgb(0%,0%,0%);stroke-opacity:1;stroke-miterlimit:4;" d="M 1075.523604 985.156634 C 1071.821494 980.092427 1064.731604 979.009734 1059.667397 982.711845 C 1054.60319 986.379029 1053.485572 993.468919 1057.187682 998.533126 C 1060.889792 1003.597333 1067.979682 1004.714951 1073.043889 1001.012841 L 1080.133779 1010.687223 " transform="matrix(0.111845,0,0,-0.111845,0.419,139.845)"/>
<path style="fill:none;stroke-width:3.8;stroke-linecap:butt;stroke-linejoin:miter;stroke:rgb(0%,0%,0%);stroke-opacity:1;stroke-miterlimit:4;" d="M 1056.768575 985.051857 L 883.956871 740.398263 L 1063.020251 980.476608 " transform="matrix(0.111845,0,0,-0.111845,0.419,139.845)"/>
<path style="fill:none;stroke-width:3.8;stroke-linecap:butt;stroke-linejoin:miter;stroke:rgb(0%,0%,0%);stroke-opacity:1;stroke-miterlimit:4;" d="M 938.196276 1053.64567 C 936.729402 1047.568622 930.582503 1043.831586 924.505454 1045.29846 C 918.428405 1046.800259 914.69137 1052.912233 916.158244 1058.989282 C 917.590192 1065.101256 923.772017 1068.803366 929.849066 1067.336492 L 932.678037 1079.001632 " transform="matrix(0.111845,0,0,-0.111845,0.419,139.845)"/>
<path style="fill:none;stroke-width:3.8;stroke-linecap:butt;stroke-linejoin:miter;stroke:rgb(0%,0%,0%);stroke-opacity:1;stroke-miterlimit:4;" d="M 920.943046 1046.416078 L 855.073428 754.158936 L 928.452043 1044.530097 " transform="matrix(0.111845,0,0,-0.111845,0.419,139.845)"/>
<path style="fill:none;stroke-width:5;stroke-linecap:butt;stroke-linejoin:miter;stroke:rgb(0%,0%,0%);stroke-opacity:1;stroke-miterlimit:4;" d="M 169.449629 1245.456882 L 228.613539 1190.379264 " transform="matrix(0.111845,0,0,-0.111845,0.419,139.845)"/>
<path style="fill:none;stroke-width:5;stroke-linecap:butt;stroke-linejoin:miter;stroke:rgb(0%,0%,0%);stroke-opacity:1;stroke-miterlimit:4;" d="M 184.258069 1142.286758 L 124.954457 1198.13274 " transform="matrix(0.111845,0,0,-0.111845,0.419,139.845)"/>
<path style="fill:none;stroke-width:5;stroke-linecap:butt;stroke-linejoin:miter;stroke:rgb(0%,0%,0%);stroke-opacity:1;stroke-miterlimit:4;" d="M 156.562095 1212.801477 C 168.925745 1225.723937 174.863092 1240.113271 169.798885 1244.967924 C 164.734677 1249.787653 150.624749 1243.256572 138.261098 1230.334112 C 125.897447 1217.376727 119.960101 1202.987393 125.024308 1198.167665 C 130.05359 1193.313011 144.163519 1199.879018 156.562095 1212.801477 Z M 156.562095 1212.801477 " transform="matrix(0.111845,0,0,-0.111845,0.419,139.845)"/>
<path style=" stroke:none;fill-rule:nonzero;fill:rgb(0%,0%,0%);fill-opacity:1;" d="M 19.835938 7.542969 C 19.835938 8.007813 19.460938 8.382813 19 8.382813 C 18.535156 8.382813 18.160156 8.007813 18.160156 7.542969 C 18.160156 7.082031 18.535156 6.707031 19 6.707031 C 19.460938 6.707031 19.835938 7.082031 19.835938 7.542969 "/>
<path style="fill:none;stroke-width:5;stroke-linecap:butt;stroke-linejoin:miter;stroke:rgb(0%,0%,0%);stroke-opacity:1;stroke-miterlimit:4;" d="M 216.773772 1103.239975 L 190.404969 1128.037127 C 182.407014 1135.58105 182.022833 1148.293956 189.566755 1156.291911 L 216.319739 1184.756247 C 223.863662 1192.789128 236.576568 1193.173309 244.609448 1185.629387 L 270.943326 1160.86716 L 270.9084 1161.111639 C 270.9084 1161.111639 304.856051 1129.783406 339.327585 1132.19327 C 357.523805 1133.415665 382.740064 1139.737192 399.120155 1128.665787 C 418.154589 1115.813179 424.336414 1096.673968 417.386226 1075.124894 C 409.458123 1050.57222 392.693851 1028.254783 375.545398 1009.394977 L 375.300919 1009.255275 C 357.663508 990.849502 336.568465 972.58343 312.609527 962.978899 C 291.619261 954.561838 272.060944 959.451417 257.916089 977.542861 C 245.796918 993.119663 250.337241 1018.720104 250.337241 1036.916324 C 250.337241 1071.492635 216.773772 1103.239975 216.773772 1103.239975 Z M 216.773772 1103.239975 " transform="matrix(0.111845,0,0,-0.111845,0.419,139.845)"/>
<path style="fill:none;stroke-width:5;stroke-linecap:butt;stroke-linejoin:miter;stroke:rgb(0%,0%,0%);stroke-opacity:1;stroke-miterlimit:4;" d="M 415.884427 1109.771056 C 444.663094 1064.856777 400.132997 1005.483314 366.429825 979.917799 C 359.68919 974.818666 352.564375 970.173566 344.985527 966.331754 C 333.704569 960.638886 321.445695 956.692297 308.767714 955.95886 C 297.975714 955.365126 286.101022 956.901851 276.636193 962.489941 " transform="matrix(0.111845,0,0,-0.111845,0.419,139.845)"/>
<path style="fill:none;stroke-width:5;stroke-linecap:butt;stroke-linejoin:miter;stroke:rgb(0%,0%,0%);stroke-opacity:1;stroke-miterlimit:4;" d="M 10.014417 338.055736 L 78.119272 381.572992 " transform="matrix(0.111845,0,0,-0.111845,0.419,139.845)"/>
<path style="fill:none;stroke-width:5;stroke-linecap:butt;stroke-linejoin:miter;stroke:rgb(0%,0%,0%);stroke-opacity:1;stroke-miterlimit:4;" d="M 113.603648 326.565224 L 44.660579 283.117819 " transform="matrix(0.111845,0,0,-0.111845,0.419,139.845)"/>
<path style="fill:none;stroke-width:5;stroke-linecap:butt;stroke-linejoin:miter;stroke:rgb(0%,0%,0%);stroke-opacity:1;stroke-miterlimit:4;" d="M 38.373977 317.414726 C 28.944074 332.607347 16.510573 341.967399 10.573226 338.265289 C 4.63588 334.598105 7.429925 319.300706 16.824903 304.073159 C 26.254806 288.880538 38.723233 279.520486 44.660579 283.18767 C 50.597926 286.88978 47.768955 302.187179 38.373977 317.414726 Z M 38.373977 317.414726 " transform="matrix(0.111845,0,0,-0.111845,0.419,139.845)"/>
<path style=" stroke:none;fill-rule:nonzero;fill:rgb(0%,0%,0%);fill-opacity:1;" d="M 3.121094 100.867188 C 3 100.675781 2.957031 100.4375 3.015625 100.203125 C 3.132813 99.757813 3.589844 99.488281 4.039063 99.601563 C 4.238281 99.652344 4.402344 99.773438 4.511719 99.929688 "/>
<path style="fill:none;stroke-width:5;stroke-linecap:butt;stroke-linejoin:miter;stroke:rgb(0%,0%,0%);stroke-opacity:1;stroke-miterlimit:4;" d="M 159.530768 348.254001 L 128.935972 328.975088 C 119.645771 323.107593 107.212269 325.901638 101.344774 335.226765 L 80.494211 368.266351 C 74.59179 377.556551 77.420761 389.990053 86.710962 395.857548 L 117.305758 415.171387 L 117.061279 415.171387 C 117.061279 415.171387 155.863584 440.213018 162.185111 474.195594 C 165.537965 492.11241 165.747519 518.097032 180.555959 531.194119 C 197.739338 546.386741 217.856464 547.609135 236.960749 535.489964 C 258.754303 521.659439 276.147235 499.83096 290.117462 478.526365 L 290.187313 478.24696 C 303.633656 456.558183 316.032232 431.551477 319.315235 405.985963 C 322.179132 383.528823 312.574601 365.821561 291.514484 356.671063 C 273.388115 348.81281 249.778432 359.60481 232.141021 364.180059 C 198.647403 372.8416 159.530768 348.254001 159.530768 348.254001 Z M 159.530768 348.254001 " transform="matrix(0.111845,0,0,-0.111845,0.419,139.845)"/>
<path style="fill:none;stroke-width:5;stroke-linecap:butt;stroke-linejoin:miter;stroke:rgb(0%,0%,0%);stroke-opacity:1;stroke-miterlimit:4;" d="M 203.048024 542.684631 C 253.725021 559.3092 300.071248 501.33276 316.381488 462.320902 C 319.664491 454.497575 322.35376 446.429769 324.169889 438.15241 C 326.859158 425.823685 327.62752 412.93615 325.147805 400.502649 C 323.017345 389.885276 318.546873 378.778946 310.793397 370.990545 " transform="matrix(0.111845,0,0,-0.111845,0.419,139.845)"/>
<path style="fill:none;stroke-width:3.8;stroke-linecap:butt;stroke-linejoin:miter;stroke:rgb(0%,0%,0%);stroke-opacity:1;stroke-miterlimit:4;" d="M 217.856464 557.493071 L 383.40365 705.298069 " transform="matrix(0.111845,0,0,-0.111845,0.419,139.845)"/>
<path style="fill:none;stroke-width:3.8;stroke-linecap:butt;stroke-linejoin:miter;stroke:rgb(0%,0%,0%);stroke-opacity:1;stroke-miterlimit:4;" d="M 363.426226 390.199607 L 441.729346 431.865808 " transform="matrix(0.111845,0,0,-0.111845,0.419,139.845)"/>
<path style="fill:none;stroke-width:3.8;stroke-linecap:butt;stroke-linejoin:miter;stroke:rgb(0%,0%,0%);stroke-opacity:1;stroke-miterlimit:4;" d="M 281.735326 933.606498 L 396.745217 798.619183 " transform="matrix(0.111845,0,0,-0.111845,0.419,139.845)"/>
<path style="fill:none;stroke-width:3.8;stroke-linecap:butt;stroke-linejoin:miter;stroke:rgb(0%,0%,0%);stroke-opacity:1;stroke-miterlimit:4;" d="M 431.740634 1095.276946 L 525.899962 1001.117618 " transform="matrix(0.111845,0,0,-0.111845,0.419,139.845)"/>
</g>
</g>
<g clip-path="url(#clip3)" clip-rule="nonzero">
<g clip-path="url(#clip4)" clip-rule="nonzero">
<g clip-path="url(#clip5)" clip-rule="nonzero">
<g clip-path="url(#clip6)" clip-rule="nonzero">
<path style="fill:none;stroke-width:5.98347;stroke-linecap:butt;stroke-linejoin:miter;stroke:rgb(0%,0%,0%);stroke-opacity:1;stroke-miterlimit:4;" d="M 155.449144 883.927306 L 155.449144 -2526.644114 " transform="matrix(0.0587438,0.0587438,0.0531012,-0.0531012,0.419,139.845)"/>
<path style="fill:none;stroke-width:5.98347;stroke-linecap:butt;stroke-linejoin:miter;stroke:rgb(0%,0%,0%);stroke-opacity:1;stroke-miterlimit:4;" d="M 200.334207 883.927306 L 200.334207 -2526.644114 " transform="matrix(0.0587438,0.0587438,0.0531012,-0.0531012,0.419,139.845)"/>
<path style="fill:none;stroke-width:5.98347;stroke-linecap:butt;stroke-linejoin:miter;stroke:rgb(0%,0%,0%);stroke-opacity:1;stroke-miterlimit:4;" d="M 245.219271 883.927306 L 245.186023 -2526.680895 " transform="matrix(0.0587438,0.0587438,0.0531012,-0.0531012,0.419,139.845)"/>
</g>
</g>
</g>
</g>
<g clip-path="url(#clip7)" clip-rule="nonzero">
<g clip-path="url(#clip8)" clip-rule="nonzero">
<g clip-path="url(#clip9)" clip-rule="nonzero">
<g clip-path="url(#clip10)" clip-rule="nonzero">
<path style="fill:none;stroke-width:5.98347;stroke-linecap:butt;stroke-linejoin:miter;stroke:rgb(0%,0%,0%);stroke-opacity:1;stroke-miterlimit:4;" d="M 276.605567 883.927306 L 276.605567 -2526.644114 " transform="matrix(0.0587438,0.0587438,0.0531012,-0.0531012,0.419,139.845)"/>
<path style="fill:none;stroke-width:5.98347;stroke-linecap:butt;stroke-linejoin:miter;stroke:rgb(0%,0%,0%);stroke-opacity:1;stroke-miterlimit:4;" d="M 321.49063 883.927306 L 321.49063 -2526.644114 " transform="matrix(0.0587438,0.0587438,0.0531012,-0.0531012,0.419,139.845)"/>
<path style="fill:none;stroke-width:5.98347;stroke-linecap:butt;stroke-linejoin:miter;stroke:rgb(0%,0%,0%);stroke-opacity:1;stroke-miterlimit:4;" d="M 366.375694 883.927306 L 366.375694 -2526.644114 " transform="matrix(0.0587438,0.0587438,0.0531012,-0.0531012,0.419,139.845)"/>
</g>
</g>
</g>
</g>
<g clip-path="url(#clip11)" clip-rule="nonzero">
<g clip-path="url(#clip12)" clip-rule="nonzero">
<g clip-path="url(#clip13)" clip-rule="nonzero">
<g clip-path="url(#clip14)" clip-rule="nonzero">
<path style="fill:none;stroke-width:5.98347;stroke-linecap:butt;stroke-linejoin:miter;stroke:rgb(0%,0%,0%);stroke-opacity:1;stroke-miterlimit:4;" d="M 397.76199 883.927306 L 397.76199 -2526.644114 " transform="matrix(0.0587438,0.0587438,0.0531012,-0.0531012,0.419,139.845)"/>
<path style="fill:none;stroke-width:5.98347;stroke-linecap:butt;stroke-linejoin:miter;stroke:rgb(0%,0%,0%);stroke-opacity:1;stroke-miterlimit:4;" d="M 442.647054 883.927306 L 442.647054 -2526.644114 " transform="matrix(0.0587438,0.0587438,0.0531012,-0.0531012,0.419,139.845)"/>
<path style="fill:none;stroke-width:5.98347;stroke-linecap:butt;stroke-linejoin:miter;stroke:rgb(0%,0%,0%);stroke-opacity:1;stroke-miterlimit:4;" d="M 487.532117 883.927306 L 487.532117 -2526.644114 " transform="matrix(0.0587438,0.0587438,0.0531012,-0.0531012,0.419,139.845)"/>
</g>
</g>
</g>
</g>
<g clip-path="url(#clip15)" clip-rule="nonzero">
<g clip-path="url(#clip16)" clip-rule="nonzero">
<g clip-path="url(#clip17)" clip-rule="nonzero">
<g clip-path="url(#clip18)" clip-rule="nonzero">
<path style="fill:none;stroke-width:5.98347;stroke-linecap:butt;stroke-linejoin:miter;stroke:rgb(0%,0%,0%);stroke-opacity:1;stroke-miterlimit:4;" d="M 518.918414 883.927306 L 518.951662 -2526.680895 " transform="matrix(0.0587438,0.0587438,0.0531012,-0.0531012,0.419,139.845)"/>
<path style="fill:none;stroke-width:5.98347;stroke-linecap:butt;stroke-linejoin:miter;stroke:rgb(0%,0%,0%);stroke-opacity:1;stroke-miterlimit:4;" d="M 563.803477 883.927306 L 563.836725 -2526.680895 " transform="matrix(0.0587438,0.0587438,0.0531012,-0.0531012,0.419,139.845)"/>
<path style="fill:none;stroke-width:5.98347;stroke-linecap:butt;stroke-linejoin:miter;stroke:rgb(0%,0%,0%);stroke-opacity:1;stroke-miterlimit:4;" d="M 608.688541 883.927306 L 608.688541 -2526.644114 " transform="matrix(0.0587438,0.0587438,0.0531012,-0.0531012,0.419,139.845)"/>
</g>
</g>
</g>
</g>
<g clip-path="url(#clip19)" clip-rule="nonzero">
<g clip-path="url(#clip20)" clip-rule="nonzero">
<g clip-path="url(#clip21)" clip-rule="nonzero">
<g clip-path="url(#clip22)" clip-rule="nonzero">
<path style="fill:none;stroke-width:5.98347;stroke-linecap:butt;stroke-linejoin:miter;stroke:rgb(0%,0%,0%);stroke-opacity:1;stroke-miterlimit:4;" d="M 640.108085 883.890525 L 640.108085 -2526.680895 " transform="matrix(0.0587438,0.0587438,0.0531012,-0.0531012,0.419,139.845)"/>
<path style="fill:none;stroke-width:5.98347;stroke-linecap:butt;stroke-linejoin:miter;stroke:rgb(0%,0%,0%);stroke-opacity:1;stroke-miterlimit:4;" d="M 684.993148 883.890525 L 684.993148 -2526.680895 " transform="matrix(0.0587438,0.0587438,0.0531012,-0.0531012,0.419,139.845)"/>
<path style="fill:none;stroke-width:5.98347;stroke-linecap:butt;stroke-linejoin:miter;stroke:rgb(0%,0%,0%);stroke-opacity:1;stroke-miterlimit:4;" d="M 729.844964 883.927306 L 729.878212 -2526.680895 " transform="matrix(0.0587438,0.0587438,0.0531012,-0.0531012,0.419,139.845)"/>
</g>
</g>
</g>
</g>
<g clip-path="url(#clip23)" clip-rule="nonzero">
<g clip-path="url(#clip24)" clip-rule="nonzero">
<g clip-path="url(#clip25)" clip-rule="nonzero">
<g clip-path="url(#clip26)" clip-rule="nonzero">
<path style="fill:none;stroke-width:5.98347;stroke-linecap:butt;stroke-linejoin:miter;stroke:rgb(0%,0%,0%);stroke-opacity:1;stroke-miterlimit:4;" d="M 761.264508 883.890525 L 761.297756 -2526.717676 " transform="matrix(0.0587438,0.0587438,0.0531012,-0.0531012,0.419,139.845)"/>
</g>
</g>
</g>
</g>
<g clip-path="url(#clip27)" clip-rule="nonzero">
<g clip-path="url(#clip28)" clip-rule="nonzero">
<g clip-path="url(#clip29)" clip-rule="nonzero">
<g clip-path="url(#clip30)" clip-rule="nonzero">
<path style="fill:none;stroke-width:5.98347;stroke-linecap:butt;stroke-linejoin:miter;stroke:rgb(0%,0%,0%);stroke-opacity:1;stroke-miterlimit:4;" d="M 729.878212 4279.602349 L 729.844964 868.994148 " transform="matrix(0.0587438,0.0587438,0.0531012,-0.0531012,0.419,139.845)"/>
</g>
</g>
</g>
</g>
<g clip-path="url(#clip31)" clip-rule="nonzero">
<g clip-path="url(#clip32)" clip-rule="nonzero">
<g clip-path="url(#clip33)" clip-rule="nonzero">
<g clip-path="url(#clip34)" clip-rule="nonzero">
<path style="fill:none;stroke-width:5.98347;stroke-linecap:butt;stroke-linejoin:miter;stroke:rgb(0%,0%,0%);stroke-opacity:1;stroke-miterlimit:4;" d="M 761.264508 4279.602349 L 761.264508 869.030929 " transform="matrix(0.0587438,0.0587438,0.0531012,-0.0531012,0.419,139.845)"/>
<path style="fill:none;stroke-width:5.98347;stroke-linecap:butt;stroke-linejoin:miter;stroke:rgb(0%,0%,0%);stroke-opacity:1;stroke-miterlimit:4;" d="M 806.149572 4279.602349 L 806.149572 869.030929 " transform="matrix(0.0587438,0.0587438,0.0531012,-0.0531012,0.419,139.845)"/>
<path style="fill:none;stroke-width:5.98347;stroke-linecap:butt;stroke-linejoin:miter;stroke:rgb(0%,0%,0%);stroke-opacity:1;stroke-miterlimit:4;" d="M 851.034635 4279.602349 L 851.034635 869.030929 " transform="matrix(0.0587438,0.0587438,0.0531012,-0.0531012,0.419,139.845)"/>
</g>
</g>
</g>
</g>
<g clip-path="url(#clip35)" clip-rule="nonzero">
<g clip-path="url(#clip36)" clip-rule="nonzero">
<g clip-path="url(#clip37)" clip-rule="nonzero">
<g clip-path="url(#clip38)" clip-rule="nonzero">
<path style="fill:none;stroke-width:5.98347;stroke-linecap:butt;stroke-linejoin:miter;stroke:rgb(0%,0%,0%);stroke-opacity:1;stroke-miterlimit:4;" d="M 882.420931 4279.602349 L 882.420931 869.030929 " transform="matrix(0.0587438,0.0587438,0.0531012,-0.0531012,0.419,139.845)"/>
<path style="fill:none;stroke-width:5.98347;stroke-linecap:butt;stroke-linejoin:miter;stroke:rgb(0%,0%,0%);stroke-opacity:1;stroke-miterlimit:4;" d="M 927.305995 4279.602349 L 927.305995 869.030929 " transform="matrix(0.0587438,0.0587438,0.0531012,-0.0531012,0.419,139.845)"/>
<path style="fill:none;stroke-width:5.98347;stroke-linecap:butt;stroke-linejoin:miter;stroke:rgb(0%,0%,0%);stroke-opacity:1;stroke-miterlimit:4;" d="M 972.191058 4279.602349 L 972.191058 869.030929 " transform="matrix(0.0587438,0.0587438,0.0531012,-0.0531012,0.419,139.845)"/>
</g>
</g>
</g>
</g>
<g clip-path="url(#clip39)" clip-rule="nonzero">
<g clip-path="url(#clip40)" clip-rule="nonzero">
<g clip-path="url(#clip41)" clip-rule="nonzero">
<g clip-path="url(#clip42)" clip-rule="nonzero">
<path style="fill:none;stroke-width:5.98347;stroke-linecap:butt;stroke-linejoin:miter;stroke:rgb(0%,0%,0%);stroke-opacity:1;stroke-miterlimit:4;" d="M 1003.577355 4279.602349 L 1003.610603 868.994148 " transform="matrix(0.0587438,0.0587438,0.0531012,-0.0531012,0.419,139.845)"/>
<path style="fill:none;stroke-width:5.98347;stroke-linecap:butt;stroke-linejoin:miter;stroke:rgb(0%,0%,0%);stroke-opacity:1;stroke-miterlimit:4;" d="M 1048.462418 4279.602349 L 1048.495666 868.994148 " transform="matrix(0.0587438,0.0587438,0.0531012,-0.0531012,0.419,139.845)"/>
<path style="fill:none;stroke-width:5.98347;stroke-linecap:butt;stroke-linejoin:miter;stroke:rgb(0%,0%,0%);stroke-opacity:1;stroke-miterlimit:4;" d="M 1093.347482 4279.602349 L 1093.347482 869.030929 " transform="matrix(0.0587438,0.0587438,0.0531012,-0.0531012,0.419,139.845)"/>
</g>
</g>
</g>
</g>
<g clip-path="url(#clip43)" clip-rule="nonzero">
<g clip-path="url(#clip44)" clip-rule="nonzero">
<g clip-path="url(#clip45)" clip-rule="nonzero">
<g clip-path="url(#clip46)" clip-rule="nonzero">
<path style="fill:none;stroke-width:5.98347;stroke-linecap:butt;stroke-linejoin:miter;stroke:rgb(0%,0%,0%);stroke-opacity:1;stroke-miterlimit:4;" d="M 1124.800274 4279.602349 L 1124.767026 868.994148 " transform="matrix(0.0587438,0.0587438,0.0531012,-0.0531012,0.419,139.845)"/>
<path style="fill:none;stroke-width:5.98347;stroke-linecap:butt;stroke-linejoin:miter;stroke:rgb(0%,0%,0%);stroke-opacity:1;stroke-miterlimit:4;" d="M 1169.618841 4279.602349 L 1169.65209 868.994148 " transform="matrix(0.0587438,0.0587438,0.0531012,-0.0531012,0.419,139.845)"/>
<path style="fill:none;stroke-width:5.98347;stroke-linecap:butt;stroke-linejoin:miter;stroke:rgb(0%,0%,0%);stroke-opacity:1;stroke-miterlimit:4;" d="M 1214.503905 4279.602349 L 1214.503905 869.030929 " transform="matrix(0.0587438,0.0587438,0.0531012,-0.0531012,0.419,139.845)"/>
</g>
</g>
</g>
</g>
<g clip-path="url(#clip47)" clip-rule="nonzero">
<g clip-path="url(#clip48)" clip-rule="nonzero">
<g clip-path="url(#clip49)" clip-rule="nonzero">
<g clip-path="url(#clip50)" clip-rule="nonzero">
<path style="fill:none;stroke-width:5.98347;stroke-linecap:butt;stroke-linejoin:miter;stroke:rgb(0%,0%,0%);stroke-opacity:1;stroke-miterlimit:4;" d="M 1245.956698 4279.602349 L 1245.956698 869.030929 " transform="matrix(0.0587438,0.0587438,0.0531012,-0.0531012,0.419,139.845)"/>
<path style="fill:none;stroke-width:5.98347;stroke-linecap:butt;stroke-linejoin:miter;stroke:rgb(0%,0%,0%);stroke-opacity:1;stroke-miterlimit:4;" d="M 1290.808513 4279.565568 L 1290.808513 868.994148 " transform="matrix(0.0587438,0.0587438,0.0531012,-0.0531012,0.419,139.845)"/>
<path style="fill:none;stroke-width:5.98347;stroke-linecap:butt;stroke-linejoin:miter;stroke:rgb(0%,0%,0%);stroke-opacity:1;stroke-miterlimit:4;" d="M 1335.660328 4279.602349 L 1335.693576 868.994148 " transform="matrix(0.0587438,0.0587438,0.0531012,-0.0531012,0.419,139.845)"/>
</g>
</g>
</g>
</g>
<g clip-path="url(#clip51)" clip-rule="nonzero">
<g clip-path="url(#clip52)" clip-rule="nonzero">
<g clip-path="url(#clip53)" clip-rule="nonzero">
<g clip-path="url(#clip54)" clip-rule="nonzero">
<path style="fill:none;stroke-width:5.98347;stroke-linecap:butt;stroke-linejoin:miter;stroke:rgb(0%,0%,0%);stroke-opacity:1;stroke-miterlimit:4;" d="M 1367.113121 4279.602349 L 1367.113121 869.030929 " transform="matrix(0.0587438,0.0587438,0.0531012,-0.0531012,0.419,139.845)"/>
<path style="fill:none;stroke-width:5.98347;stroke-linecap:butt;stroke-linejoin:miter;stroke:rgb(0%,0%,0%);stroke-opacity:1;stroke-miterlimit:4;" d="M 1411.998184 4279.602349 L 1411.998184 869.030929 " transform="matrix(0.0587438,0.0587438,0.0531012,-0.0531012,0.419,139.845)"/>
<path style="fill:none;stroke-width:5.98347;stroke-linecap:butt;stroke-linejoin:miter;stroke:rgb(0%,0%,0%);stroke-opacity:1;stroke-miterlimit:4;" d="M 1456.85 4279.565568 L 1456.85 868.994148 " transform="matrix(0.0587438,0.0587438,0.0531012,-0.0531012,0.419,139.845)"/>
</g>
</g>
</g>
</g>
<g clip-path="url(#clip55)" clip-rule="nonzero">
<g clip-path="url(#clip56)" clip-rule="nonzero">
<path style="fill:none;stroke-width:7.5;stroke-linecap:butt;stroke-linejoin:miter;stroke:rgb(0%,0%,0%);stroke-opacity:1;stroke-miterlimit:4;" d="M 387.175611 45.554115 L 1284.23879 45.554115 L 1284.23879 125.70829 L 387.175611 125.70829 L 387.175611 45.554115 Z M 387.175611 45.554115 " transform="matrix(0.111845,0,0,-0.111845,0.419,139.845)"/>
<path style="fill:none;stroke-width:7.5;stroke-linecap:butt;stroke-linejoin:miter;stroke:rgb(0%,0%,0%);stroke-opacity:1;stroke-miterlimit:4;" d="M 215.656154 45.554115 L 1455.793174 45.554115 " transform="matrix(0.111845,0,0,-0.111845,0.419,139.845)"/>
<path style=" stroke:none;fill-rule:nonzero;fill:rgb(100%,100%,100%);fill-opacity:1;" d="M 119.839844 125.785156 C 119.839844 125.785156 100.574219 73.945313 99.628906 71.484375 C 98.6875 69.023438 98.058594 67.5625 93.863281 67.5625 C 89.671875 67.5625 88.972656 69.726563 88.972656 69.726563 L 68.558594 125.839844 L 60.777344 125.921875 L 60.777344 124.109375 L 67.160156 124.109375 C 68.308594 120.898438 69.457031 117.6875 70.605469 114.476563 C 74.488281 103.605469 78.375 92.730469 82.257813 81.855469 C 83.867188 77.351563 85.476563 72.84375 87.089844 68.339844 C 88.351563 64.808594 89.164063 59.300781 93.863281 59.300781 C 98.566406 59.300781 99.503906 65.082031 100.820313 68.640625 C 102.515625 73.207031 104.210938 77.769531 105.90625 82.335938 C 109.929688 93.179688 113.953125 104.023438 117.976563 114.867188 C 119.121094 117.949219 120.261719 121.03125 121.40625 124.109375 L 127.003906 124.109375 L 127.003906 125.8125 L 119.839844 125.785156 "/>
<path style="fill:none;stroke-width:5;stroke-linecap:butt;stroke-linejoin:miter;stroke:rgb(0%,0%,0%);stroke-opacity:1;stroke-miterlimit:4;" d="M 1067.735203 125.70829 C 1067.735203 125.70829 895.482308 589.205485 887.030321 611.208592 C 878.613259 633.211699 872.990243 646.273861 835.480185 646.273861 C 798.005052 646.273861 791.753375 626.925097 791.753375 626.925097 L 609.232364 125.219333 L 539.660635 124.485896 L 539.660635 140.691359 L 596.729011 140.691359 C 606.997128 169.400174 617.265244 198.10899 627.533361 226.817806 C 662.249374 324.015658 697.000313 421.248435 731.716326 518.481213 C 746.10566 558.750391 760.494993 599.054495 774.919252 639.323673 C 786.20021 670.896386 793.464728 720.141435 835.480185 720.141435 C 877.530567 720.141435 885.912703 668.451596 897.682619 636.634405 C 912.840315 595.806417 927.998011 555.013356 943.155707 514.185368 C 979.12904 417.231995 1015.102374 320.278622 1051.075707 223.325249 C 1061.308898 195.768977 1071.507164 168.212705 1081.740355 140.691359 L 1131.788692 140.691359 L 1131.788692 125.463812 L 1067.735203 125.70829 Z M 1067.735203 125.70829 " transform="matrix(0.111845,0,0,-0.111845,0.419,139.845)"/>
<path style="fill:none;stroke-width:5;stroke-linecap:butt;stroke-linejoin:miter;stroke:rgb(0%,0%,0%);stroke-opacity:1;stroke-miterlimit:4;" d="M 846.970696 674.458793 C 846.970696 668.242043 841.941414 663.212761 835.724664 663.212761 C 829.507913 663.212761 824.478631 668.242043 824.478631 674.458793 C 824.478631 680.675544 829.507913 685.704826 835.724664 685.704826 C 841.941414 685.704826 846.970696 680.675544 846.970696 674.458793 Z M 846.970696 674.458793 " transform="matrix(0.111845,0,0,-0.111845,0.419,139.845)"/>
<path style="fill:none;stroke-width:5;stroke-linecap:butt;stroke-linejoin:miter;stroke:rgb(0%,0%,0%);stroke-opacity:1;stroke-miterlimit:4;" d="M 863.700042 674.458793 C 863.700042 658.881991 851.056987 646.273861 835.480185 646.273861 C 819.938307 646.273861 807.330178 658.881991 807.330178 674.458793 C 807.330178 690.000671 819.938307 702.643726 835.480185 702.643726 C 851.056987 702.643726 863.700042 690.000671 863.700042 674.458793 Z M 863.700042 674.458793 " transform="matrix(0.111845,0,0,-0.111845,0.419,139.845)"/>
<path style="fill-rule:nonzero;fill:rgb(50.000763%,50.000763%,50.000763%);fill-opacity:1;stroke-width:3.8;stroke-linecap:butt;stroke-linejoin:miter;stroke:rgb(0%,0%,0%);stroke-opacity:1;stroke-miterlimit:4;" d="M 1097.666413 139.503889 L 1116.840549 139.503889 L 1116.840549 145.755566 L 1097.666413 145.755566 L 1097.666413 139.503889 Z M 1097.666413 139.503889 " transform="matrix(0.111845,0,0,-0.111845,0.419,139.845)"/>
<path style="fill-rule:nonzero;fill:rgb(50.000763%,50.000763%,50.000763%);fill-opacity:1;stroke-width:3.8;stroke-linecap:butt;stroke-linejoin:miter;stroke:rgb(0%,0%,0%);stroke-opacity:1;stroke-miterlimit:4;" d="M 558.066409 140.13255 L 577.240545 140.13255 L 577.240545 146.384226 L 558.066409 146.384226 L 558.066409 140.13255 Z M 558.066409 140.13255 " transform="matrix(0.111845,0,0,-0.111845,0.419,139.845)"/>
</g>
</g>
</g>
</svg>
