<?xml version="1.0" encoding="UTF-8"?>
<svg xmlns="http://www.w3.org/2000/svg" xmlns:xlink="http://www.w3.org/1999/xlink" width="276.34pt" height="186.54pt" viewBox="0 0 276.34 186.54" version="1.1">
<defs>
<clipPath id="clip1">
  <path d="M 0 0 L 270 0 L 270 186.539062 L 0 186.539062 Z M 0 0 "/>
</clipPath>
<clipPath id="clip2">
  <path d="M 247 8 L 276.339844 8 L 276.339844 36 L 247 36 Z M 247 8 "/>
</clipPath>
</defs>
<g id="surface1">
<g clip-path="url(#clip1)" clip-rule="nonzero">
<path style=" stroke:none;fill-rule:nonzero;fill:rgb(28.556824%,27.256775%,27.580261%);fill-opacity:1;" d="M 2.777344 29.664062 L 3.082031 29.84375 C -0.660156 36.308594 0.03125 50.421875 4.925781 67.601562 C 14.636719 101.675781 42 150.03125 87.15625 174.15625 C 127.664062 195.804688 181.691406 184.023438 218.742188 165.785156 C 246.335938 152.199219 265.632812 134.625 267.902344 121.011719 C 270.492188 105.484375 260.460938 78.324219 242.351562 51.816406 C 223.824219 24.703125 202.441406 6.117188 186.546875 3.3125 C 157.730469 -1.769531 138.054688 1.25 102.34375 6.738281 C 94.929688 7.878906 86.527344 9.171875 77.285156 10.503906 C 67.214844 11.957031 58.648438 13.089844 51.089844 14.089844 C 18.738281 18.371094 8.976562 19.660156 3.082031 29.84375 Z M 137.925781 186.539062 C 120.046875 186.539062 102.445312 183.128906 86.824219 174.78125 C 41.472656 150.550781 13.992188 102.003906 4.246094 67.792969 C -0.703125 50.4375 -1.367188 36.113281 2.46875 29.488281 C 8.539062 19.007812 18.382812 17.703125 50.996094 13.386719 C 58.550781 12.390625 67.117188 11.253906 77.183594 9.804688 C 86.421875 8.472656 94.824219 7.179688 102.234375 6.039062 C 138.023438 0.539062 157.734375 -2.492188 186.667969 2.617188 C 205.886719 6.007812 228.335938 30.050781 242.933594 51.417969 C 261.144531 78.070312 271.21875 105.429688 268.601562 121.125 C 266.296875 134.960938 246.847656 152.738281 219.054688 166.421875 C 196.113281 177.714844 166.671875 186.539062 137.925781 186.539062 "/>
</g>
<path style=" stroke:none;fill-rule:nonzero;fill:rgb(28.556824%,27.256775%,27.580261%);fill-opacity:1;" d="M 35.441406 55.953125 L 36.730469 59.921875 L 40.902344 59.921875 L 37.527344 62.375 L 38.816406 66.339844 L 35.441406 63.890625 L 32.070312 66.339844 L 33.355469 62.375 L 29.980469 59.921875 L 34.152344 59.921875 "/>
<path style=" stroke:none;fill-rule:nonzero;fill:rgb(28.556824%,27.256775%,27.580261%);fill-opacity:1;" d="M 110.410156 37.980469 L 111.699219 41.949219 L 115.871094 41.949219 L 112.496094 44.402344 L 113.785156 48.367188 L 110.410156 45.914062 L 107.035156 48.367188 L 108.328125 44.402344 L 104.953125 41.949219 L 109.125 41.949219 "/>
<path style=" stroke:none;fill-rule:nonzero;fill:rgb(28.556824%,27.256775%,27.580261%);fill-opacity:1;" d="M 164.84375 32.335938 L 166.132812 36.300781 L 170.300781 36.300781 L 166.925781 38.753906 L 168.21875 42.71875 L 164.84375 40.269531 L 161.46875 42.71875 L 162.757812 38.753906 L 159.382812 36.300781 L 163.554688 36.300781 "/>
<path style=" stroke:none;fill-rule:nonzero;fill:rgb(28.556824%,27.256775%,27.580261%);fill-opacity:1;" d="M 83.710938 60.0625 L 85 64.027344 L 89.171875 64.027344 L 85.796875 66.480469 L 87.085938 70.449219 L 83.710938 67.996094 L 80.335938 70.449219 L 81.625 66.480469 L 78.25 64.027344 L 82.421875 64.027344 "/>
<path style=" stroke:none;fill-rule:nonzero;fill:rgb(28.556824%,27.256775%,27.580261%);fill-opacity:1;" d="M 93.464844 79.0625 L 94.753906 83.03125 L 98.925781 83.03125 L 95.550781 85.480469 L 96.839844 89.449219 L 93.464844 86.996094 L 90.089844 89.449219 L 91.382812 85.480469 L 88.007812 83.03125 L 92.179688 83.03125 "/>
<path style=" stroke:none;fill-rule:nonzero;fill:rgb(28.556824%,27.256775%,27.580261%);fill-opacity:1;" d="M 65.738281 99.601562 L 67.027344 103.570312 L 71.199219 103.570312 L 67.824219 106.019531 L 69.113281 109.988281 L 65.738281 107.535156 L 62.363281 109.988281 L 63.652344 106.019531 L 60.277344 103.570312 L 64.449219 103.570312 "/>
<path style=" stroke:none;fill-rule:nonzero;fill:rgb(28.556824%,27.256775%,27.580261%);fill-opacity:1;" d="M 96.035156 144.789062 L 97.324219 148.757812 L 101.492188 148.757812 L 98.117188 151.207031 L 99.410156 155.175781 L 96.035156 152.722656 L 92.660156 155.175781 L 93.949219 151.207031 L 90.574219 148.757812 L 94.746094 148.757812 "/>
<path style=" stroke:none;fill-rule:nonzero;fill:rgb(28.556824%,27.256775%,27.580261%);fill-opacity:1;" d="M 135.058594 91.898438 L 136.347656 95.867188 L 140.519531 95.867188 L 137.144531 98.316406 L 138.433594 102.285156 L 135.058594 99.832031 L 131.683594 102.285156 L 132.976562 98.316406 L 129.601562 95.867188 L 133.773438 95.867188 "/>
<path style=" stroke:none;fill-rule:nonzero;fill:rgb(28.556824%,27.256775%,27.580261%);fill-opacity:1;" d="M 173.066406 62.480469 L 174.355469 66.449219 L 178.527344 66.449219 L 175.152344 68.898438 L 176.441406 72.863281 L 173.066406 70.414062 L 169.691406 72.863281 L 170.984375 68.898438 L 167.609375 66.449219 L 171.777344 66.449219 "/>
<path style=" stroke:none;fill-rule:nonzero;fill:rgb(28.556824%,27.256775%,27.580261%);fill-opacity:1;" d="M 196.164062 74.441406 L 197.453125 78.40625 L 201.625 78.40625 L 198.25 80.859375 L 199.539062 84.824219 L 196.164062 82.371094 L 192.789062 84.824219 L 194.082031 80.859375 L 190.707031 78.40625 L 194.875 78.40625 "/>
<path style=" stroke:none;fill-rule:nonzero;fill:rgb(28.556824%,27.256775%,27.580261%);fill-opacity:1;" d="M 151.492188 129.382812 L 152.777344 133.351562 L 156.949219 133.351562 L 153.574219 135.800781 L 154.867188 139.769531 L 151.492188 137.316406 L 148.117188 139.769531 L 149.40625 135.800781 L 146.03125 133.351562 L 150.199219 133.351562 "/>
<path style=" stroke:none;fill-rule:nonzero;fill:rgb(28.556824%,27.256775%,27.580261%);fill-opacity:1;" d="M 161.25 142.734375 L 162.535156 146.703125 L 166.710938 146.703125 L 163.335938 149.152344 L 164.625 153.121094 L 161.25 150.667969 L 157.875 153.121094 L 159.164062 149.152344 L 155.789062 146.703125 L 159.960938 146.703125 "/>
<path style=" stroke:none;fill-rule:nonzero;fill:rgb(28.556824%,27.256775%,27.580261%);fill-opacity:1;" d="M 202.328125 123.222656 L 203.617188 127.191406 L 207.789062 127.191406 L 204.414062 129.640625 L 205.703125 133.605469 L 202.328125 131.15625 L 198.953125 133.605469 L 200.242188 129.640625 L 196.867188 127.191406 L 201.039062 127.191406 "/>
<path style=" stroke:none;fill-rule:nonzero;fill:rgb(28.556824%,27.256775%,27.580261%);fill-opacity:1;" d="M 135.414062 97.707031 L 134.707031 96.476562 L 258.890625 25.035156 L 164.941406 38.230469 L 164.742188 36.824219 L 262.316406 23.121094 L 262.769531 24.4375 L 135.414062 97.707031 "/>
<path style=" stroke:none;fill-rule:nonzero;fill:rgb(28.556824%,27.256775%,27.580261%);fill-opacity:1;" d="M 202.945312 128.769531 L 201.714844 128.0625 L 261.800781 23.472656 L 263.03125 24.179688 L 202.945312 128.769531 "/>
<path style=" stroke:none;fill-rule:nonzero;fill:rgb(28.556824%,27.256775%,27.580261%);fill-opacity:1;" d="M 261.925781 10.472656 L 264.816406 19.359375 L 274.15625 19.359375 L 266.597656 24.851562 L 269.484375 33.738281 L 261.925781 28.246094 L 254.367188 33.738281 L 257.253906 24.851562 L 249.695312 19.359375 L 259.039062 19.359375 "/>
<g clip-path="url(#clip2)" clip-rule="nonzero">
<path style=" stroke:none;fill-rule:nonzero;fill:rgb(63.330078%,62.663269%,62.828064%);fill-opacity:1;" d="M 251.878906 20.066406 L 258.089844 24.578125 L 255.714844 31.882812 L 261.925781 27.371094 L 268.136719 31.882812 L 265.765625 24.578125 L 271.972656 20.066406 L 264.300781 20.066406 L 261.925781 12.765625 L 259.554688 20.066406 Z M 270.835938 35.59375 L 261.925781 29.121094 L 253.019531 35.59375 L 256.421875 25.121094 L 247.515625 18.648438 L 258.523438 18.648438 L 261.925781 8.179688 L 265.328125 18.648438 L 276.335938 18.648438 L 267.433594 25.121094 L 270.835938 35.59375 "/>
</g>
</g>
</svg>
