<?xml version="1.0" encoding="UTF-8"?>
<svg xmlns="http://www.w3.org/2000/svg" xmlns:xlink="http://www.w3.org/1999/xlink" width="287.5204340564336pt" height="112.58330249197702pt" viewBox="0 0 166 65" version="1.1">
<defs>
<clipPath id="clip1">
  <path d="M -222 666 L 390 666 L 390 -126 L -222 -126 L -222 666 Z M -222 666 "/>
</clipPath>
<clipPath id="clip2">
  <path d="M 0.00390625 64.851563 L 167.253906 64.851563 L 167.253906 -1.199219 L 0.00390625 -1.199219 L 0.00390625 64.851563 Z M 0.00390625 64.851563 "/>
</clipPath>
</defs>
<g id="surface0">
<g clip-path="url(#clip1)" clip-rule="nonzero">
<g clip-path="url(#clip2)" clip-rule="nonzero">
<path style="fill:none;stroke-width:5;stroke-linecap:butt;stroke-linejoin:miter;stroke:rgb(13.730068%,12.159915%,12.54902%);stroke-opacity:1;stroke-miterlimit:4;" d="M 9.148245 40.109594 C 120.912536 44.729771 102.138482 15.101967 164.510877 15.101967 C 211.592685 15.101967 223.363137 29.182507 252.807601 36.18611 C 273.231719 43.703065 299.889409 49.093272 332.523996 49.093272 C 364.278548 49.093272 396.473118 43.336384 426.614275 33.50934 C 455.582054 24.085645 484.073148 9.821764 515.46102 15.358643 C 540.651988 19.79548 558.986025 37.50616 569.693103 60.093694 C 575.596663 72.597508 579.923496 86.348036 583.150286 99.805219 C 586.047064 111.97902 588.137144 124.372829 589.970548 136.72997 C 595.910776 176.514832 602.621034 216.189688 608.927943 255.901213 C 612.851427 280.542159 616.738243 305.146438 620.661727 329.787384 C 625.648585 361.028583 630.782115 392.269783 636.098986 423.474315 C 640.389151 448.70195 644.97266 473.856249 650.436203 498.863876 C 655.716406 522.844797 661.36329 547.412407 671.373674 569.926605 C 676.21386 580.853691 684.574181 599.041057 698.911398 599.041057 C 745.699862 599.041057 761.980487 403.893563 784.861365 296.822785 C 789.408207 270.715115 793.771708 235.037079 797.291843 208.746069 C 799.601931 191.292066 802.09536 173.911398 804.992138 156.530731 C 811.849068 115.682496 815.699216 71.60747 842.760255 38.129518 C 854.604043 23.498956 872.204719 16.165341 890.685429 14.881958 C 919.249859 12.901882 944.734171 26.212393 970.878508 34.756055 C 1001.056334 44.583099 1033.214235 50.339986 1064.968788 50.339986 C 1097.640043 50.339986 1124.297733 44.949779 1144.685183 37.432824 C 1174.129647 30.392554 1185.900099 16.348681 1232.981907 16.348681 C 1255.20276 16.348681 1275.150192 20.895522 1295.684314 28.962499 C 1304.264644 32.37263 1312.844973 35.636088 1321.901988 37.726169 C 1374.740683 49.899969 1443.236647 42.713027 1493.325237 24.158981 C 1493.325237 24.158981 1510.5959 14.991962 1548.950706 10.005104 " transform="matrix(0.10653,0,0,-0.10653,0.002,64.851)"/>
<path style="fill:none;stroke-width:5;stroke-linecap:butt;stroke-linejoin:miter;stroke:rgb(13.730068%,12.159915%,12.54902%);stroke-opacity:1;stroke-dasharray:30,20;stroke-miterlimit:4;" d="M 1551.55414 40.329602 C 1534.79683 39.779581 1508.579156 37.909509 1493.581914 34.426042 C 1484.524899 32.37263 1475.94457 29.072503 1467.327572 25.69904 C 1446.830118 17.632064 1426.882686 13.048554 1404.661832 13.048554 C 1357.580024 13.048554 1345.809572 27.129095 1316.365108 34.169365 C 1295.977659 41.649653 1269.2833 47.03986 1236.648714 47.03986 C 1204.894161 47.03986 1172.699592 41.282972 1142.558434 31.455928 C 1116.414097 22.948935 1090.929785 9.601755 1062.365355 11.618499 C 1043.884645 12.901882 1026.283969 20.235497 1014.440181 34.866059 C 987.379142 68.344011 983.528994 112.419037 976.672064 153.267272 C 973.775286 170.611271 971.281857 188.028607 968.9351 205.482611 C 965.451633 231.77362 961.088132 267.451657 956.541291 293.522658 C 933.660413 400.593436 917.343119 595.777598 870.554656 595.777598 C 856.254107 595.777598 847.857118 577.553565 843.016932 566.663147 C 833.043216 544.148949 827.396332 519.544671 822.116129 495.56375 C 810.345677 441.918356 802.718718 387.429597 793.221686 333.490859 C 790.618253 318.676957 787.978152 303.899723 785.374718 289.122489 C 780.424528 260.888071 775.694347 232.653654 771.880867 204.235896 C 769.570778 186.781892 767.077349 169.364557 764.180571 152.020558 C 757.323641 111.172322 753.473493 67.097297 726.412454 33.619344 C 714.568666 18.988783 696.96799 11.655168 678.487281 10.371785 C 649.92285 8.355041 624.438538 21.70222 598.294201 30.209213 C 568.153044 40.036257 535.958474 45.829813 504.203921 45.829813 C 471.532667 45.829813 444.874977 40.402938 424.487527 32.922651 C 395.043063 25.882381 383.272611 11.838508 336.190803 11.838508 C 310.743159 11.838508 288.962323 19.685476 265.824768 29.219175 C 255.411034 33.50934 244.850629 37.359488 233.703534 39.486236 C 204.625751 44.986447 169.937752 41.906329 140.859969 37.359488 C 102.908512 31.345924 49.703135 20.822186 11.018316 20.822186 " transform="matrix(0.10653,0,0,-0.10653,0.002,64.851)"/>
</g>
</g>
</g>
</svg>
