<?xml version="1.0" encoding="UTF-8"?>
<svg xmlns="http://www.w3.org/2000/svg" xmlns:xlink="http://www.w3.org/1999/xlink" width="228.63070659909178pt" height="187.06148721743872pt" viewBox="0 0 132 108" version="1.1">
<defs>
<clipPath id="clip1">
  <path d="M -240 667 L 372 667 L 372 -125 L -240 -125 L -240 667 Z M -240 667 "/>
</clipPath>
<clipPath id="clip2">
  <path d="M -0.988281 107.929688 L 132.238281 107.929688 L 132.238281 -0.199219 L -0.988281 -0.199219 L -0.988281 107.929688 Z M -0.988281 107.929688 "/>
</clipPath>
</defs>
<g id="surface0">
<g clip-path="url(#clip1)" clip-rule="nonzero">
<g clip-path="url(#clip2)" clip-rule="nonzero">
<path style="fill:none;stroke-width:3;stroke-linecap:butt;stroke-linejoin:round;stroke:rgb(0%,0%,0%);stroke-opacity:1;stroke-miterlimit:10;" d="M 1036.605182 559.456312 C 1036.605182 694.760117 982.83163 824.520675 887.139794 920.212511 C 791.48842 1015.904347 661.6874 1069.677899 526.383595 1069.677899 C 391.039327 1069.677899 261.27877 1015.904347 165.586934 920.212511 C 69.895097 824.520675 16.121546 694.760117 16.121546 559.456312 C 16.121546 424.112044 69.895097 294.351487 165.586934 198.659651 C 261.27877 102.967815 391.039327 49.194263 526.383595 49.194263 C 661.6874 49.194263 791.48842 102.967815 887.139794 198.659651 C 982.83163 294.351487 1036.605182 424.112044 1036.605182 559.456312 Z M 1036.605182 559.456312 " transform="matrix(0.096542,0,0,-0.096542,-0.99,107.929)"/>
<path style="fill:none;stroke-width:5;stroke-linecap:round;stroke-linejoin:round;stroke:rgb(0%,0%,0%);stroke-opacity:1;stroke-miterlimit:10;" d="M 526.383595 559.456312 L 944.312126 852.11553 " transform="matrix(0.096542,0,0,-0.096542,-0.99,107.929)"/>
<path style=" stroke:none;fill-rule:nonzero;fill:rgb(0%,0%,0%);fill-opacity:1;" d="M 86.480469 29.699219 L 90.175781 25.664063 L 85.121094 27.761719 "/>
<path style="fill:none;stroke-width:5;stroke-linecap:round;stroke-linejoin:round;stroke:rgb(0%,0%,0%);stroke-opacity:1;stroke-miterlimit:10;" d="M 906.035391 810.318631 L 944.312126 852.11553 L 891.954732 830.387616 L 906.035391 810.318631 Z M 906.035391 810.318631 " transform="matrix(0.096542,0,0,-0.096542,-0.99,107.929)"/>
<path style="fill:none;stroke-width:5;stroke-linecap:round;stroke-linejoin:round;stroke:rgb(0%,0%,0%);stroke-opacity:1;stroke-miterlimit:10;" d="M 526.383595 559.456312 L 944.312126 266.797093 " transform="matrix(0.096542,0,0,-0.096542,-0.99,107.929)"/>
<path style=" stroke:none;fill-rule:nonzero;fill:rgb(0%,0%,0%);fill-opacity:1;" d="M 85.121094 80.078125 L 90.175781 82.171875 L 86.480469 78.136719 "/>
<path style="fill:none;stroke-width:5;stroke-linecap:round;stroke-linejoin:round;stroke:rgb(0%,0%,0%);stroke-opacity:1;stroke-miterlimit:10;" d="M 891.954732 288.484546 L 944.312126 266.797093 L 906.035391 308.593993 L 891.954732 288.484546 Z M 891.954732 288.484546 " transform="matrix(0.096542,0,0,-0.096542,-0.99,107.929)"/>
<path style="fill:none;stroke-width:5;stroke-linecap:round;stroke-linejoin:round;stroke:rgb(0%,0%,0%);stroke-opacity:1;stroke-miterlimit:10;" d="M 944.312126 852.11553 L 1362.281119 559.456312 " transform="matrix(0.096542,0,0,-0.096542,-0.99,107.929)"/>
<path style="fill:none;stroke-width:5;stroke-linecap:round;stroke-linejoin:round;stroke:rgb(0%,0%,0%);stroke-opacity:1;stroke-miterlimit:10;" d="M 944.312126 266.797093 L 1362.281119 559.456312 " transform="matrix(0.096542,0,0,-0.096542,-0.99,107.929)"/>
<path style="fill:none;stroke-width:5;stroke-linecap:round;stroke-linejoin:round;stroke:rgb(0%,0%,0%);stroke-opacity:1;stroke-miterlimit:10;" d="M 526.383595 559.456312 L 700.894753 1038.927034 " transform="matrix(0.096542,0,0,-0.096542,-0.99,107.929)"/>
<path style=" stroke:none;fill-rule:nonzero;fill:rgb(0%,0%,0%);fill-opacity:1;" d="M 65.960938 13.058594 L 66.675781 7.628906 L 63.734375 12.246094 "/>
<path style="fill:none;stroke-width:5;stroke-linecap:round;stroke-linejoin:round;stroke:rgb(0%,0%,0%);stroke-opacity:1;stroke-miterlimit:10;" d="M 693.490268 982.685321 L 700.894753 1038.927034 L 670.42712 991.101347 L 693.490268 982.685321 Z M 693.490268 982.685321 " transform="matrix(0.096542,0,0,-0.096542,-0.99,107.929)"/>
<path style="fill:none;stroke-width:5;stroke-linecap:round;stroke-linejoin:round;stroke:rgb(0%,0%,0%);stroke-opacity:1;stroke-miterlimit:10;" d="M 526.383595 559.456312 L 700.894753 79.985589 " transform="matrix(0.096542,0,0,-0.096542,-0.99,107.929)"/>
<path style=" stroke:none;fill-rule:nonzero;fill:rgb(0%,0%,0%);fill-opacity:1;" d="M 63.734375 95.59375 L 66.675781 100.207031 L 65.960938 94.78125 "/>
<path style="fill:none;stroke-width:5;stroke-linecap:round;stroke-linejoin:round;stroke:rgb(0%,0%,0%);stroke-opacity:1;stroke-miterlimit:10;" d="M 670.42712 127.770815 L 700.894753 79.985589 L 693.490268 136.186841 L 670.42712 127.770815 Z M 670.42712 127.770815 " transform="matrix(0.096542,0,0,-0.096542,-0.99,107.929)"/>
<path style="fill:none;stroke-width:5;stroke-linecap:round;stroke-linejoin:round;stroke:rgb(0%,0%,0%);stroke-opacity:1;stroke-miterlimit:10;" d="M 700.894753 1038.927034 L 875.405911 559.456312 " transform="matrix(0.096542,0,0,-0.096542,-0.99,107.929)"/>
<path style="fill:none;stroke-width:5;stroke-linecap:round;stroke-linejoin:round;stroke:rgb(0%,0%,0%);stroke-opacity:1;stroke-miterlimit:10;" d="M 700.894753 79.985589 L 875.405911 559.456312 " transform="matrix(0.096542,0,0,-0.096542,-0.99,107.929)"/>
<path style="fill:none;stroke-width:7;stroke-linecap:round;stroke-linejoin:round;stroke:rgb(0%,0%,0%);stroke-opacity:1;stroke-miterlimit:10;" d="M 1002.374614 892.739041 C 983.114862 920.252973 961.346487 946.269823 937.271796 970.344513 C 876.700685 1030.915625 804.112459 1076.758691 725.13129 1105.486472 " transform="matrix(0.096542,0,0,-0.096542,-0.99,107.929)"/>
<path style=" stroke:none;fill-rule:nonzero;fill:rgb(0%,0%,0%);fill-opacity:1;" d="M 74.398438 2.179688 C 72.621094 1.765625 70.824219 1.441406 69.015625 1.203125 C 70.554688 2.183594 72.046875 3.238281 73.480469 4.367188 "/>
<path style="fill:none;stroke-width:7;stroke-linecap:round;stroke-linejoin:round;stroke:rgb(0%,0%,0%);stroke-opacity:1;stroke-miterlimit:10;" d="M 780.887463 1095.371056 C 762.477406 1099.659993 743.865041 1103.018311 725.13129 1105.486472 C 741.073186 1095.330594 756.529542 1084.405945 771.378972 1072.712524 L 780.887463 1095.371056 Z M 780.887463 1095.371056 " transform="matrix(0.096542,0,0,-0.096542,-0.99,107.929)"/>
<path style="fill:none;stroke-width:7;stroke-linecap:round;stroke-linejoin:round;stroke:rgb(0%,0%,0%);stroke-opacity:1;stroke-miterlimit:10;" d="M 1002.374614 226.133121 C 983.114862 198.619189 961.346487 172.642801 937.271796 148.56811 C 876.700685 87.956537 804.112459 42.153933 725.13129 13.38569 " transform="matrix(0.096542,0,0,-0.096542,-0.99,107.929)"/>
<path style=" stroke:none;fill-rule:nonzero;fill:rgb(0%,0%,0%);fill-opacity:1;" d="M 73.480469 103.472656 C 72.046875 104.601563 70.554688 105.65625 69.015625 106.636719 C 70.824219 106.398438 72.621094 106.070313 74.398438 105.65625 "/>
<path style="fill:none;stroke-width:7;stroke-linecap:round;stroke-linejoin:round;stroke:rgb(0%,0%,0%);stroke-opacity:1;stroke-miterlimit:10;" d="M 771.378972 46.159638 C 756.529542 34.466217 741.073186 23.541567 725.13129 13.38569 C 743.865041 15.853851 762.477406 19.252631 780.887463 23.541567 L 771.378972 46.159638 Z M 771.378972 46.159638 " transform="matrix(0.096542,0,0,-0.096542,-0.99,107.929)"/>
<path style="fill:none;stroke-width:9;stroke-linecap:round;stroke-linejoin:round;stroke:rgb(0%,0%,0%);stroke-opacity:1;stroke-miterlimit:10;" d="M 526.383595 559.456312 L 1362.281119 559.456312 " transform="matrix(0.096542,0,0,-0.096542,-0.99,107.929)"/>
<path style=" stroke:none;fill-rule:nonzero;fill:rgb(0%,0%,0%);fill-opacity:1;" d="M 125.183594 55.105469 L 130.527344 53.917969 L 125.183594 52.734375 "/>
<path style="fill:none;stroke-width:9;stroke-linecap:round;stroke-linejoin:round;stroke:rgb(0%,0%,0%);stroke-opacity:1;stroke-miterlimit:10;" d="M 1306.929562 547.155966 L 1362.281119 559.456312 L 1306.929562 571.716196 L 1306.929562 547.155966 Z M 1306.929562 547.155966 " transform="matrix(0.096542,0,0,-0.096542,-0.99,107.929)"/>
<path style="fill:none;stroke-width:9;stroke-linecap:round;stroke-linejoin:round;stroke:rgb(0%,0%,0%);stroke-opacity:1;stroke-miterlimit:10;" d="M 526.383595 559.456312 L 875.405911 559.456312 " transform="matrix(0.096542,0,0,-0.096542,-0.99,107.929)"/>
<path style=" stroke:none;fill-rule:nonzero;fill:rgb(0%,0%,0%);fill-opacity:1;" d="M 78.179688 55.105469 L 83.523438 53.917969 L 78.179688 52.734375 "/>
<path style="fill:none;stroke-width:9;stroke-linecap:round;stroke-linejoin:round;stroke:rgb(0%,0%,0%);stroke-opacity:1;stroke-miterlimit:10;" d="M 820.054355 547.155966 L 875.405911 559.456312 L 820.054355 571.716196 L 820.054355 547.155966 Z M 820.054355 547.155966 " transform="matrix(0.096542,0,0,-0.096542,-0.99,107.929)"/>
</g>
</g>
</g>
</svg>
