<?xml version="1.0" encoding="UTF-8"?>
<svg xmlns="http://www.w3.org/2000/svg" xmlns:xlink="http://www.w3.org/1999/xlink" width="255pt" height="195pt" viewBox="0 0 184 141" version="1.1">
<defs>
<clipPath id="clip1">
  <path d="M -213 666 L 399 666 L 399 -126 L -213 -126 L -213 666 Z M -213 666 "/>
</clipPath>
<clipPath id="clip2">
  <path d="M 0.496094 141.632813 L 184.757813 141.632813 L 184.757813 -1.199219 L 0.496094 -1.199219 L 0.496094 141.632813 Z M 0.496094 141.632813 "/>
</clipPath>
</defs>
<g id="surface0">
<g clip-path="url(#clip1)" clip-rule="nonzero">
<g clip-path="url(#clip2)" clip-rule="nonzero">
<path style="fill:none;stroke-width:5;stroke-linecap:butt;stroke-linejoin:miter;stroke:rgb(13.730068%,12.159915%,12.54902%);stroke-opacity:1;stroke-miterlimit:4;" d="M 325.366012 1279.161125 C 333.104707 1265.116826 337.009883 1244.480304 340.449303 1227.498166 C 351.018355 1174.975351 411.244038 1136.102735 371.583223 1080.104673 C 349.728572 1049.257372 316.874943 1058.214196 283.878004 1055.813767 C 221.395201 1051.227873 159.055707 1042.880113 97.002832 1034.174081 " transform="matrix(0.10903,0,0,-0.10903,0.498,141.631)"/>
<path style="fill:none;stroke-width:5;stroke-linecap:butt;stroke-linejoin:miter;stroke:rgb(13.730068%,12.159915%,12.54902%);stroke-opacity:1;stroke-miterlimit:4;" d="M 645.339585 1290.840824 C 645.375413 1260.925032 622.159325 1241.327502 619.257315 1212.199911 C 616.570267 1184.935339 620.260479 1155.986884 628.070829 1129.797132 C 637.815853 1097.158466 648.420733 1056.673622 647.66836 1022.494382 C 646.808505 984.947377 643.727357 943.674333 624.595581 910.534085 " transform="matrix(0.10903,0,0,-0.10903,0.498,141.631)"/>
<path style="fill:none;stroke-width:5;stroke-linecap:butt;stroke-linejoin:miter;stroke:rgb(13.730068%,12.159915%,12.54902%);stroke-opacity:1;stroke-miterlimit:4;" d="M 920.349904 1272.497248 C 922.141268 1224.166227 896.632234 1191.742525 870.299172 1155.306166 C 856.505664 1136.246045 839.129425 1101.20695 855.251708 1078.707409 C 874.096866 1052.374347 918.379402 1056.852758 946.038074 1061.796925 C 980.00235 1067.851738 1013.680008 1073.763242 1047.787593 1080.212155 C 1075.840365 1085.478767 1104.502201 1090.243798 1133.164037 1089.240633 C 1147.853228 1088.703224 1162.578247 1086.159486 1176.407583 1080.964528 C 1195.539358 1073.763242 1212.306533 1061.366998 1224.846086 1045.244715 C 1231.366654 1036.861128 1236.740748 1027.653513 1241.040023 1017.944316 C 1248.671237 1000.854696 1260.100144 908.706893 1274.681854 906.198982 " transform="matrix(0.10903,0,0,-0.10903,0.498,141.631)"/>
<path style="fill:none;stroke-width:5;stroke-linecap:butt;stroke-linejoin:miter;stroke:rgb(13.730068%,12.159915%,12.54902%);stroke-opacity:1;stroke-miterlimit:4;" d="M 1388.684307 1277.51307 C 1398.106886 1234.735279 1408.998383 1192.99648 1422.039519 1151.365163 C 1432.966844 1116.361896 1451.453728 1075.303815 1430.853034 1040.193066 " transform="matrix(0.10903,0,0,-0.10903,0.498,141.631)"/>
<path style="fill:none;stroke-width:5;stroke-linecap:butt;stroke-linejoin:miter;stroke:rgb(13.730068%,12.159915%,12.54902%);stroke-opacity:1;stroke-miterlimit:4;" d="M 1240.395132 1019.198271 C 1240.395132 1019.198271 1308.681957 1079.173163 1452.026965 1034.174081 C 1595.336146 989.174998 1645.35105 1015.830505 1645.35105 1015.830505 " transform="matrix(0.10903,0,0,-0.10903,0.498,141.631)"/>
<path style="fill:none;stroke-width:5;stroke-linecap:butt;stroke-linejoin:miter;stroke:rgb(13.730068%,12.159915%,12.54902%);stroke-opacity:1;stroke-miterlimit:4;" d="M 1408.855074 1045.101406 L 1662.010742 907.488765 " transform="matrix(0.10903,0,0,-0.10903,0.498,141.631)"/>
<path style="fill:none;stroke-width:5;stroke-linecap:butt;stroke-linejoin:miter;stroke:rgb(13.730068%,12.159915%,12.54902%);stroke-opacity:1;stroke-miterlimit:4;" d="M 1250.785048 977.710263 L 1628.691358 770.843461 " transform="matrix(0.10903,0,0,-0.10903,0.498,141.631)"/>
<path style="fill:none;stroke-width:5;stroke-linecap:butt;stroke-linejoin:miter;stroke:rgb(13.730068%,12.159915%,12.54902%);stroke-opacity:1;stroke-miterlimit:4;" d="M 992.470249 1070.07303 L 992.470249 1279.161125 " transform="matrix(0.10903,0,0,-0.10903,0.498,141.631)"/>
<path style="fill:none;stroke-width:5;stroke-linecap:butt;stroke-linejoin:miter;stroke:rgb(13.730068%,12.159915%,12.54902%);stroke-opacity:1;stroke-miterlimit:4;" d="M 1118.761465 1089.240633 L 1118.761465 1275.829187 " transform="matrix(0.10903,0,0,-0.10903,0.498,141.631)"/>
<path style="fill:none;stroke-width:5;stroke-linecap:butt;stroke-linejoin:miter;stroke:rgb(13.730068%,12.159915%,12.54902%);stroke-opacity:1;stroke-miterlimit:4;" d="M 1277.297246 1038.795802 L 1277.297246 1237.493981 " transform="matrix(0.10903,0,0,-0.10903,0.498,141.631)"/>
<path style="fill:none;stroke-width:5;stroke-linecap:butt;stroke-linejoin:miter;stroke:rgb(13.730068%,12.159915%,12.54902%);stroke-opacity:1;stroke-miterlimit:4;" d="M 1420.534773 1156.094366 L 1607.015844 1156.094366 " transform="matrix(0.10903,0,0,-0.10903,0.498,141.631)"/>
<path style="fill:none;stroke-width:5;stroke-linecap:butt;stroke-linejoin:miter;stroke:rgb(13.730068%,12.159915%,12.54902%);stroke-opacity:1;stroke-miterlimit:4;" d="M 1333.689409 1220.834289 L 1333.689409 1160.823569 " transform="matrix(0.10903,0,0,-0.10903,0.498,141.631)"/>
<path style=" stroke:none;fill-rule:nonzero;fill:rgb(13.730068%,12.159915%,12.54902%);fill-opacity:1;" d="M 144.34375 13.984375 L 145.929688 19.894531 L 147.511719 13.984375 L 144.34375 13.984375 "/>
<path style="fill:none;stroke-width:5;stroke-linecap:butt;stroke-linejoin:miter;stroke:rgb(13.730068%,12.159915%,12.54902%);stroke-opacity:1;stroke-miterlimit:4;" d="M 1183.680524 1116.541032 L 1183.680524 1166.555936 " transform="matrix(0.10903,0,0,-0.10903,0.498,141.631)"/>
<path style=" stroke:none;fill-rule:nonzero;fill:rgb(13.730068%,12.159915%,12.54902%);fill-opacity:1;" d="M 131.121094 15.523438 L 129.539063 9.613281 L 127.953125 15.523438 L 131.121094 15.523438 "/>
<path style="fill:none;stroke-width:5;stroke-linecap:butt;stroke-linejoin:miter;stroke:rgb(13.730068%,12.159915%,12.54902%);stroke-opacity:1;stroke-miterlimit:4;" d="M 942.025417 1116.541032 L 942.025417 1166.555936 " transform="matrix(0.10903,0,0,-0.10903,0.498,141.631)"/>
<path style=" stroke:none;fill-rule:nonzero;fill:rgb(13.730068%,12.159915%,12.54902%);fill-opacity:1;" d="M 104.769531 15.523438 L 103.1875 9.613281 L 101.605469 15.523438 L 104.769531 15.523438 "/>
<path style="fill:none;stroke-width:5;stroke-linecap:butt;stroke-linejoin:miter;stroke:rgb(13.730068%,12.159915%,12.54902%);stroke-opacity:1;stroke-miterlimit:4;" d="M 687.365003 1187.765695 L 701.731748 1235.666789 " transform="matrix(0.10903,0,0,-0.10903,0.498,141.631)"/>
<path style=" stroke:none;fill-rule:nonzero;fill:rgb(13.730068%,12.159915%,12.54902%);fill-opacity:1;" d="M 78.195313 8.390625 L 78.378906 2.277344 L 75.164063 7.480469 L 78.195313 8.390625 "/>
<path style="fill:none;stroke-width:5;stroke-linecap:butt;stroke-linejoin:miter;stroke:rgb(13.730068%,12.159915%,12.54902%);stroke-opacity:1;stroke-miterlimit:4;" d="M 669.809628 981.292993 L 690.589459 1026.75783 " transform="matrix(0.10903,0,0,-0.10903,0.498,141.631)"/>
<path style=" stroke:none;fill-rule:nonzero;fill:rgb(13.730068%,12.159915%,12.54902%);fill-opacity:1;" d="M 76.769531 31.3125 L 77.785156 25.28125 L 73.886719 30 L 76.769531 31.3125 "/>
<path style="fill:none;stroke-width:5;stroke-linecap:butt;stroke-linejoin:miter;stroke:rgb(13.730068%,12.159915%,12.54902%);stroke-opacity:1;stroke-miterlimit:4;" d="M 835.080941 1257.628921 L 816.379093 1211.232574 " transform="matrix(0.10903,0,0,-0.10903,0.498,141.631)"/>
<path style=" stroke:none;fill-rule:nonzero;fill:rgb(13.730068%,12.159915%,12.54902%);fill-opacity:1;" d="M 91.363281 9.152344 L 87.683594 14.039063 L 88.425781 7.964844 L 91.363281 9.152344 "/>
<path style="fill:none;stroke-width:5;stroke-linecap:butt;stroke-linejoin:miter;stroke:rgb(13.730068%,12.159915%,12.54902%);stroke-opacity:1;stroke-miterlimit:4;" d="M 800.722565 1043.883278 L 782.020717 997.48693 " transform="matrix(0.10903,0,0,-0.10903,0.498,141.631)"/>
<path style=" stroke:none;fill-rule:nonzero;fill:rgb(13.730068%,12.159915%,12.54902%);fill-opacity:1;" d="M 87.617188 32.457031 L 83.9375 37.34375 L 84.679688 31.273438 L 87.617188 32.457031 "/>
<path style="fill:none;stroke-width:5;stroke-linecap:butt;stroke-linejoin:miter;stroke:rgb(13.730068%,12.159915%,12.54902%);stroke-opacity:1;stroke-miterlimit:4;" d="M 1050.367158 1210.838473 L 1050.367158 1160.823569 " transform="matrix(0.10903,0,0,-0.10903,0.498,141.631)"/>
<path style=" stroke:none;fill-rule:nonzero;fill:rgb(13.730068%,12.159915%,12.54902%);fill-opacity:1;" d="M 116.582031 13.984375 L 115 19.894531 L 113.414063 13.984375 L 116.582031 13.984375 "/>
<path style="fill:none;stroke-width:5;stroke-linecap:butt;stroke-linejoin:miter;stroke:rgb(13.730068%,12.159915%,12.54902%);stroke-opacity:1;stroke-miterlimit:4;" d="M 372.94466 1158.781413 L 621.406952 1158.781413 " transform="matrix(0.10903,0,0,-0.10903,0.498,141.631)"/>
<path style="fill:none;stroke-width:5;stroke-linecap:butt;stroke-linejoin:miter;stroke:rgb(13.730068%,12.159915%,12.54902%);stroke-opacity:1;stroke-miterlimit:4;" d="M 621.406952 1136.496836 C 621.406952 1136.496836 771.845765 1138.073237 849.447686 1092.787536 " transform="matrix(0.10903,0,0,-0.10903,0.498,141.631)"/>
<path style="fill:none;stroke-width:5;stroke-linecap:butt;stroke-linejoin:miter;stroke:rgb(13.730068%,12.159915%,12.54902%);stroke-opacity:1;stroke-miterlimit:4;" d="M 855.251708 1078.707409 C 855.251708 1078.707409 890.86404 1054.989739 855.251708 980.827238 C 812.008163 890.829072 843.679492 817.490599 843.679492 817.490599 " transform="matrix(0.10903,0,0,-0.10903,0.498,141.631)"/>
<path style="fill:none;stroke-width:5;stroke-linecap:butt;stroke-linejoin:miter;stroke:rgb(13.730068%,12.159915%,12.54902%);stroke-opacity:1;stroke-miterlimit:4;" d="M 382.008965 1012.498567 L 647.274259 1012.498567 " transform="matrix(0.10903,0,0,-0.10903,0.498,141.631)"/>
<path style="fill:none;stroke-width:5;stroke-linecap:butt;stroke-linejoin:miter;stroke:rgb(13.730068%,12.159915%,12.54902%);stroke-opacity:1;stroke-miterlimit:4;" d="M 358.685396 1064.161527 C 387.490542 1049.902263 383.442057 999.421604 382.904648 973.231851 C 382.116447 934.860818 391.825644 896.02403 420.344171 867.505503 " transform="matrix(0.10903,0,0,-0.10903,0.498,141.631)"/>
<path style="fill:none;stroke-width:5;stroke-linecap:butt;stroke-linejoin:miter;stroke:rgb(13.730068%,12.159915%,12.54902%);stroke-opacity:1;stroke-miterlimit:4;" d="M 254.213003 1053.341683 L 254.213003 860.841626 " transform="matrix(0.10903,0,0,-0.10903,0.498,141.631)"/>
<path style="fill:none;stroke-width:5;stroke-linecap:butt;stroke-linejoin:miter;stroke:rgb(13.730068%,12.159915%,12.54902%);stroke-opacity:1;stroke-miterlimit:4;" d="M 123.694167 860.841626 L 123.694167 1037.864292 " transform="matrix(0.10903,0,0,-0.10903,0.498,141.631)"/>
<path style="fill:none;stroke-width:5;stroke-linecap:butt;stroke-linejoin:miter;stroke:rgb(13.730068%,12.159915%,12.54902%);stroke-opacity:1;stroke-miterlimit:4;" d="M 55.335687 897.492949 L 55.335687 957.503669 " transform="matrix(0.10903,0,0,-0.10903,0.498,141.631)"/>
<path style=" stroke:none;fill-rule:nonzero;fill:rgb(13.730068%,12.159915%,12.54902%);fill-opacity:1;" d="M 8.097656 38.316406 L 6.515625 32.40625 L 4.929688 38.316406 L 8.097656 38.316406 "/>
<path style="fill:none;stroke-width:5;stroke-linecap:butt;stroke-linejoin:miter;stroke:rgb(13.730068%,12.159915%,12.54902%);stroke-opacity:1;stroke-miterlimit:4;" d="M 298.674677 897.492949 L 298.674677 957.503669 " transform="matrix(0.10903,0,0,-0.10903,0.498,141.631)"/>
<path style=" stroke:none;fill-rule:nonzero;fill:rgb(13.730068%,12.159915%,12.54902%);fill-opacity:1;" d="M 34.628906 38.316406 L 33.042969 32.40625 L 31.460938 38.316406 L 34.628906 38.316406 "/>
<path style="fill:none;stroke-width:5;stroke-linecap:butt;stroke-linejoin:miter;stroke:rgb(13.730068%,12.159915%,12.54902%);stroke-opacity:1;stroke-miterlimit:4;" d="M 175.142163 1001.786206 L 175.142163 941.811313 " transform="matrix(0.10903,0,0,-0.10903,0.498,141.631)"/>
<path style=" stroke:none;fill-rule:nonzero;fill:rgb(13.730068%,12.159915%,12.54902%);fill-opacity:1;" d="M 21.15625 37.867188 L 19.574219 43.777344 L 17.988281 37.867188 L 21.15625 37.867188 "/>
<path style="fill:none;stroke-width:5;stroke-linecap:butt;stroke-linejoin:miter;stroke:rgb(13.730068%,12.159915%,12.54902%);stroke-opacity:1;stroke-miterlimit:4;" d="M 193.700702 1119.156425 L 230.352025 1155.843575 " transform="matrix(0.10903,0,0,-0.10903,0.498,141.631)"/>
<path style=" stroke:none;fill-rule:nonzero;fill:rgb(13.730068%,12.159915%,12.54902%);fill-opacity:1;" d="M 25.957031 17.480469 L 29.015625 12.183594 L 23.714844 15.242188 L 25.957031 17.480469 "/>
<path style="fill:none;stroke-width:5;stroke-linecap:butt;stroke-linejoin:miter;stroke:rgb(13.730068%,12.159915%,12.54902%);stroke-opacity:1;stroke-miterlimit:4;" d="M 545.309777 1222.482344 L 483.651002 1222.482344 " transform="matrix(0.10903,0,0,-0.10903,0.498,141.631)"/>
<path style=" stroke:none;fill-rule:nonzero;fill:rgb(13.730068%,12.159915%,12.54902%);fill-opacity:1;" d="M 54.3125 6.777344 L 48.402344 8.363281 L 54.3125 9.945313 L 54.3125 6.777344 "/>
<path style="fill:none;stroke-width:5;stroke-linecap:butt;stroke-linejoin:miter;stroke:rgb(13.730068%,12.159915%,12.54902%);stroke-opacity:1;stroke-miterlimit:4;" d="M 439.368465 1102.855006 L 501.02724 1102.855006 " transform="matrix(0.10903,0,0,-0.10903,0.498,141.631)"/>
<path style=" stroke:none;fill-rule:nonzero;fill:rgb(13.730068%,12.159915%,12.54902%);fill-opacity:1;" d="M 54.042969 19.820313 L 59.953125 21.40625 L 54.042969 22.988281 L 54.042969 19.820313 "/>
<path style="fill:none;stroke-width:5;stroke-linecap:butt;stroke-linejoin:miter;stroke:rgb(13.730068%,12.159915%,12.54902%);stroke-opacity:1;stroke-miterlimit:4;" d="M 545.309777 968.753439 L 483.651002 968.753439 " transform="matrix(0.10903,0,0,-0.10903,0.498,141.631)"/>
<path style=" stroke:none;fill-rule:nonzero;fill:rgb(13.730068%,12.159915%,12.54902%);fill-opacity:1;" d="M 54.3125 34.445313 L 48.402344 36.027344 L 54.3125 37.609375 L 54.3125 34.445313 "/>
<path style="fill:none;stroke-width:5;stroke-linecap:butt;stroke-linejoin:miter;stroke:rgb(13.730068%,12.159915%,12.54902%);stroke-opacity:1;stroke-miterlimit:4;" d="M 728.136465 1128.829795 L 773.672957 1274.181131 " transform="matrix(0.10903,0,0,-0.10903,0.498,141.631)"/>
<path style="fill:none;stroke-width:5;stroke-linecap:butt;stroke-linejoin:miter;stroke:rgb(13.730068%,12.159915%,12.54902%);stroke-opacity:1;stroke-miterlimit:4;" d="M 1452.026965 1206.25258 L 1535.755354 1206.25258 " transform="matrix(0.10903,0,0,-0.10903,0.498,141.631)"/>
<path style=" stroke:none;fill-rule:nonzero;fill:rgb(13.730068%,12.159915%,12.54902%);fill-opacity:1;" d="M 166.863281 11.679688 L 172.773438 10.09375 L 166.863281 8.511719 L 166.863281 11.679688 "/>
<path style="fill:none;stroke-width:5;stroke-linecap:butt;stroke-linejoin:miter;stroke:rgb(13.730068%,12.159915%,12.54902%);stroke-opacity:1;stroke-miterlimit:4;" d="M 1580.073718 1093.754873 L 1496.309502 1093.754873 " transform="matrix(0.10903,0,0,-0.10903,0.498,141.631)"/>
<path style=" stroke:none;fill-rule:nonzero;fill:rgb(13.730068%,12.159915%,12.54902%);fill-opacity:1;" d="M 164.71875 23.945313 L 158.8125 22.359375 L 164.71875 20.777344 L 164.71875 23.945313 "/>
<path style="fill:none;stroke-width:5;stroke-linecap:butt;stroke-linejoin:miter;stroke:rgb(13.730068%,12.159915%,12.54902%);stroke-opacity:1;stroke-miterlimit:4;" d="M 1604.507934 973.733433 L 1638.257246 952.487847 " transform="matrix(0.10903,0,0,-0.10903,0.498,141.631)"/>
<path style=" stroke:none;fill-rule:nonzero;fill:rgb(13.730068%,12.159915%,12.54902%);fill-opacity:1;" d="M 177.371094 38.527344 L 183.214844 40.335938 L 179.058594 35.847656 L 177.371094 38.527344 "/>
<path style="fill:none;stroke-width:5;stroke-linecap:butt;stroke-linejoin:miter;stroke:rgb(13.730068%,12.159915%,12.54902%);stroke-opacity:1;stroke-miterlimit:4;" d="M 1554.493029 880.009229 L 1494.518137 918.738535 " transform="matrix(0.10903,0,0,-0.10903,0.498,141.631)"/>
<path style=" stroke:none;fill-rule:nonzero;fill:rgb(13.730068%,12.159915%,12.54902%);fill-opacity:1;" d="M 165.199219 40.730469 L 159.378906 38.855469 L 163.484375 43.390625 L 165.199219 40.730469 "/>
<path style="fill:none;stroke-width:5;stroke-linecap:butt;stroke-linejoin:miter;stroke:rgb(13.730068%,12.159915%,12.54902%);stroke-opacity:1;stroke-miterlimit:4;" d="M 920.708177 1058.500814 L 1199.838634 904.694236 " transform="matrix(0.10903,0,0,-0.10903,0.498,141.631)"/>
<path style="fill:none;stroke-width:5;stroke-linecap:butt;stroke-linejoin:miter;stroke:rgb(13.730068%,12.159915%,12.54902%);stroke-opacity:1;stroke-miterlimit:4;" d="M 1098.268252 738.742204 C 1098.268252 738.742204 1098.698179 883.30534 1214.527825 908.74272 C 1233.767082 907.560419 1253.042167 906.700564 1272.317252 906.234809 C 1296.679813 905.589918 1325.19834 911.752213 1348.880182 907.345455 C 1369.373395 903.511935 1376.968782 883.627786 1379.512519 865.069247 C 1383.417695 836.980648 1385.424023 809.536939 1391.765454 781.663304 C 1396.423003 761.277573 1396.06473 739.709541 1411.506294 724.232149 " transform="matrix(0.10903,0,0,-0.10903,0.498,141.631)"/>
<path style="fill:none;stroke-width:5;stroke-linecap:butt;stroke-linejoin:miter;stroke:rgb(13.730068%,12.159915%,12.54902%);stroke-opacity:1;stroke-miterlimit:4;" d="M 842.78381 949.335045 L 1110.019605 805.703419 " transform="matrix(0.10903,0,0,-0.10903,0.498,141.631)"/>
<path style="fill:none;stroke-width:5;stroke-linecap:butt;stroke-linejoin:miter;stroke:rgb(13.730068%,12.159915%,12.54902%);stroke-opacity:1;stroke-miterlimit:4;" d="M 1197.008278 978.749255 L 1146.993373 1011.244612 " transform="matrix(0.10903,0,0,-0.10903,0.498,141.631)"/>
<path style=" stroke:none;fill-rule:nonzero;fill:rgb(13.730068%,12.159915%,12.54902%);fill-opacity:1;" d="M 127.316406 30.652344 L 121.5 28.757813 L 125.589844 33.308594 L 127.316406 30.652344 "/>
<path style="fill:none;stroke-width:5;stroke-linecap:butt;stroke-linejoin:miter;stroke:rgb(13.730068%,12.159915%,12.54902%);stroke-opacity:1;stroke-miterlimit:4;" d="M 984.516589 810.002694 L 934.501685 842.498051 " transform="matrix(0.10903,0,0,-0.10903,0.498,141.631)"/>
<path style=" stroke:none;fill-rule:nonzero;fill:rgb(13.730068%,12.159915%,12.54902%);fill-opacity:1;" d="M 104.148438 49.050781 L 98.328125 47.15625 L 102.417969 51.707031 L 104.148438 49.050781 "/>
<path style="fill:none;stroke-width:5;stroke-linecap:butt;stroke-linejoin:miter;stroke:rgb(13.730068%,12.159915%,12.54902%);stroke-opacity:1;stroke-miterlimit:4;" d="M 854.642644 545.131501 L 810.001834 584.649007 " transform="matrix(0.10903,0,0,-0.10903,0.498,141.631)"/>
<path style=" stroke:none;fill-rule:nonzero;fill:rgb(13.730068%,12.159915%,12.54902%);fill-opacity:1;" d="M 90.65625 77.429688 L 85.179688 74.703125 L 88.558594 79.804688 L 90.65625 77.429688 "/>
<path style="fill:none;stroke-width:5;stroke-linecap:butt;stroke-linejoin:miter;stroke:rgb(13.730068%,12.159915%,12.54902%);stroke-opacity:1;stroke-miterlimit:4;" d="M 959.580792 971.79876 L 1009.559869 939.267575 " transform="matrix(0.10903,0,0,-0.10903,0.498,141.631)"/>
<path style=" stroke:none;fill-rule:nonzero;fill:rgb(13.730068%,12.159915%,12.54902%);fill-opacity:1;" d="M 110.515625 37.320313 L 114.605469 41.871094 L 108.789063 39.976563 L 110.515625 37.320313 "/>
<path style="fill:none;stroke-width:5;stroke-linecap:butt;stroke-linejoin:miter;stroke:rgb(13.730068%,12.159915%,12.54902%);stroke-opacity:1;stroke-miterlimit:4;" d="M 846.151575 749.848666 L 891.25814 710.868568 " transform="matrix(0.10903,0,0,-0.10903,0.498,141.631)"/>
<path style=" stroke:none;fill-rule:nonzero;fill:rgb(13.730068%,12.159915%,12.54902%);fill-opacity:1;" d="M 97.878906 62.238281 L 101.316406 67.300781 L 95.808594 64.632813 L 97.878906 62.238281 "/>
<path style="fill:none;stroke-width:5;stroke-linecap:butt;stroke-linejoin:miter;stroke:rgb(13.730068%,12.159915%,12.54902%);stroke-opacity:1;stroke-miterlimit:4;" d="M 679.518825 887.497134 L 781.05338 1118.726497 " transform="matrix(0.10903,0,0,-0.10903,0.498,141.631)"/>
<path style="fill:none;stroke-width:5;stroke-linecap:butt;stroke-linejoin:miter;stroke:rgb(13.730068%,12.159915%,12.54902%);stroke-opacity:1;stroke-miterlimit:4;" d="M 1424.511602 826.232459 L 1495.772093 784.995242 " transform="matrix(0.10903,0,0,-0.10903,0.498,141.631)"/>
<path style=" stroke:none;fill-rule:nonzero;fill:rgb(13.730068%,12.159915%,12.54902%);fill-opacity:1;" d="M 161.863281 56.855469 L 167.773438 58.445313 L 163.449219 54.113281 L 161.863281 56.855469 "/>
<path style="fill:none;stroke-width:5;stroke-linecap:butt;stroke-linejoin:miter;stroke:rgb(13.730068%,12.159915%,12.54902%);stroke-opacity:1;stroke-miterlimit:4;" d="M 1234.519456 606.252866 C 1259.455253 618.64911 1283.746159 632.514274 1307.392174 647.203465 C 1330.966534 661.892656 1355.042477 676.366883 1375.607344 695.21204 C 1382.593667 701.589299 1388.469343 708.503967 1396.100557 713.985543 C 1401.152206 717.675754 1406.418818 721.115175 1411.757085 724.375459 C 1438.412593 740.605223 1482.193548 761.098436 1508.92071 734.263792 C 1510.998693 732.185809 1512.861712 729.892862 1514.509768 727.492433 C 1543.565704 685.431189 1543.565704 622.339322 1544.676351 573.291755 C 1546.073615 508.98176 1544.497214 444.492628 1544.497214 380.003497 " transform="matrix(0.10903,0,0,-0.10903,0.498,141.631)"/>
<path style="fill:none;stroke-width:5;stroke-linecap:butt;stroke-linejoin:miter;stroke:rgb(13.730068%,12.159915%,12.54902%);stroke-opacity:1;stroke-miterlimit:4;" d="M 1459.765661 745.083635 L 1459.765661 453.915207 " transform="matrix(0.10903,0,0,-0.10903,0.498,141.631)"/>
<path style="fill:none;stroke-width:5;stroke-linecap:butt;stroke-linejoin:miter;stroke:rgb(13.730068%,12.159915%,12.54902%);stroke-opacity:1;stroke-miterlimit:4;" d="M 1327.097187 659.886327 L 1327.097187 429.445164 " transform="matrix(0.10903,0,0,-0.10903,0.498,141.631)"/>
<path style="fill:none;stroke-width:5;stroke-linecap:butt;stroke-linejoin:miter;stroke:rgb(13.730068%,12.159915%,12.54902%);stroke-opacity:1;stroke-miterlimit:4;" d="M 1188.158936 871.339024 L 1169.42126 841.351578 " transform="matrix(0.10903,0,0,-0.10903,0.498,141.631)"/>
<path style=" stroke:none;fill-rule:nonzero;fill:rgb(13.730068%,12.159915%,12.54902%);fill-opacity:1;" d="M 127.246094 48.15625 L 125.457031 54.003906 L 129.929688 49.832031 L 127.246094 48.15625 "/>
<path style="fill:none;stroke-width:5;stroke-linecap:butt;stroke-linejoin:miter;stroke:rgb(13.730068%,12.159915%,12.54902%);stroke-opacity:1;stroke-miterlimit:4;" d="M 1358.159452 778.832947 L 1339.421776 748.845501 " transform="matrix(0.10903,0,0,-0.10903,0.498,141.631)"/>
<path style=" stroke:none;fill-rule:nonzero;fill:rgb(13.730068%,12.159915%,12.54902%);fill-opacity:1;" d="M 145.78125 58.238281 L 143.992188 64.089844 L 148.464844 59.917969 L 145.78125 58.238281 "/>
<path style="fill:none;stroke-width:5;stroke-linecap:butt;stroke-linejoin:miter;stroke:rgb(13.730068%,12.159915%,12.54902%);stroke-opacity:1;stroke-miterlimit:4;" d="M 1233.229673 779.406184 L 1251.035839 809.966867 " transform="matrix(0.10903,0,0,-0.10903,0.498,141.631)"/>
<path style=" stroke:none;fill-rule:nonzero;fill:rgb(13.730068%,12.159915%,12.54902%);fill-opacity:1;" d="M 135.003906 53.464844 L 139.351563 49.160156 L 137.742188 55.0625 L 135.003906 53.464844 "/>
<path style="fill:none;stroke-width:5;stroke-linecap:butt;stroke-linejoin:miter;stroke:rgb(13.730068%,12.159915%,12.54902%);stroke-opacity:1;stroke-miterlimit:4;" d="M 1138.251513 741.250115 L 1237.027366 907.524592 " transform="matrix(0.10903,0,0,-0.10903,0.498,141.631)"/>
<path style="fill:none;stroke-width:5;stroke-linecap:butt;stroke-linejoin:miter;stroke:rgb(13.730068%,12.159915%,12.54902%);stroke-opacity:1;stroke-miterlimit:4;" d="M 1223.269685 656.26777 L 1374.60418 884.23685 " transform="matrix(0.10903,0,0,-0.10903,0.498,141.631)"/>
<path style="fill:none;stroke-width:5;stroke-linecap:butt;stroke-linejoin:miter;stroke:rgb(13.730068%,12.159915%,12.54902%);stroke-opacity:1;stroke-miterlimit:4;" d="M 1504.513953 552.511923 L 1504.513953 583.753325 " transform="matrix(0.10903,0,0,-0.10903,0.498,141.631)"/>
<path style=" stroke:none;fill-rule:nonzero;fill:rgb(13.730068%,12.159915%,12.54902%);fill-opacity:1;" d="M 166.101563 79.0625 L 164.515625 73.15625 L 162.929688 79.0625 L 166.101563 79.0625 "/>
<path style="fill:none;stroke-width:5;stroke-linecap:butt;stroke-linejoin:miter;stroke:rgb(13.730068%,12.159915%,12.54902%);stroke-opacity:1;stroke-miterlimit:4;" d="M 1285.752488 502.389537 L 1285.752488 533.666766 " transform="matrix(0.10903,0,0,-0.10903,0.498,141.631)"/>
<path style=" stroke:none;fill-rule:nonzero;fill:rgb(13.730068%,12.159915%,12.54902%);fill-opacity:1;" d="M 142.25 84.527344 L 140.664063 78.617188 L 139.082031 84.527344 L 142.25 84.527344 "/>
<path style="fill:none;stroke-width:5;stroke-linecap:butt;stroke-linejoin:miter;stroke:rgb(13.730068%,12.159915%,12.54902%);stroke-opacity:1;stroke-miterlimit:4;" d="M 1393.270201 615.532136 L 1393.270201 584.290734 " transform="matrix(0.10903,0,0,-0.10903,0.498,141.631)"/>
<path style=" stroke:none;fill-rule:nonzero;fill:rgb(13.730068%,12.159915%,12.54902%);fill-opacity:1;" d="M 153.972656 76.84375 L 152.386719 82.753906 L 150.800781 76.84375 L 153.972656 76.84375 "/>
<path style="fill:none;stroke-width:5;stroke-linecap:butt;stroke-linejoin:miter;stroke:rgb(13.730068%,12.159915%,12.54902%);stroke-opacity:1;stroke-miterlimit:4;" d="M 1532.10097 690.017082 C 1532.10097 690.017082 1559.544678 680.021267 1575.774443 696.251032 C 1575.774443 696.251032 1602.000023 712.516624 1618.265615 696.251032 " transform="matrix(0.10903,0,0,-0.10903,0.498,141.631)"/>
<path style="fill:none;stroke-width:5;stroke-linecap:butt;stroke-linejoin:miter;stroke:rgb(13.730068%,12.159915%,12.54902%);stroke-opacity:1;stroke-miterlimit:4;" d="M 1545.249587 511.238879 L 1672.006558 621.264503 " transform="matrix(0.10903,0,0,-0.10903,0.498,141.631)"/>
<path style="fill:none;stroke-width:5;stroke-linecap:butt;stroke-linejoin:miter;stroke:rgb(13.730068%,12.159915%,12.54902%);stroke-opacity:1;stroke-miterlimit:4;" d="M 30.758163 852.493866 C 30.758163 852.493866 88.010181 859.73098 106.998647 863.743637 C 129.032434 868.401185 312.002431 884.989223 367.033156 788.757108 C 367.033156 788.757108 382.008965 766.794976 382.008965 703.738937 C 382.008965 642.510089 409.810947 626.531115 418.552807 626.531115 " transform="matrix(0.10903,0,0,-0.10903,0.498,141.631)"/>
<path style="fill:none;stroke-width:5;stroke-linecap:butt;stroke-linejoin:miter;stroke:rgb(13.730068%,12.159915%,12.54902%);stroke-opacity:1;stroke-miterlimit:4;" d="M 122.010284 641.256134 C 122.010284 641.256134 234.221373 565.015649 357.001513 612.486816 C 450.761545 648.744038 520.76808 606.252866 520.76808 606.252866 " transform="matrix(0.10903,0,0,-0.10903,0.498,141.631)"/>
<path style="fill:none;stroke-width:5;stroke-linecap:butt;stroke-linejoin:miter;stroke:rgb(13.730068%,12.159915%,12.54902%);stroke-opacity:1;stroke-miterlimit:4;" d="M 49.531666 783.741287 L 367.033156 783.741287 " transform="matrix(0.10903,0,0,-0.10903,0.498,141.631)"/>
<path style="fill:none;stroke-width:5;stroke-linecap:butt;stroke-linejoin:miter;stroke:rgb(13.730068%,12.159915%,12.54902%);stroke-opacity:1;stroke-miterlimit:4;" d="M 12.020487 686.255216 L 382.976302 686.255216 " transform="matrix(0.10903,0,0,-0.10903,0.498,141.631)"/>
<path style="fill:none;stroke-width:5;stroke-linecap:butt;stroke-linejoin:miter;stroke:rgb(13.730068%,12.159915%,12.54902%);stroke-opacity:1;stroke-miterlimit:4;" d="M 118.248418 825.014331 L 182.021003 825.014331 " transform="matrix(0.10903,0,0,-0.10903,0.498,141.631)"/>
<path style=" stroke:none;fill-rule:nonzero;fill:rgb(13.730068%,12.159915%,12.54902%);fill-opacity:1;" d="M 19.261719 53.246094 L 25.171875 51.660156 L 19.261719 50.078125 L 19.261719 53.246094 "/>
<path style="fill:none;stroke-width:5;stroke-linecap:butt;stroke-linejoin:miter;stroke:rgb(13.730068%,12.159915%,12.54902%);stroke-opacity:1;stroke-miterlimit:4;" d="M 200.758679 641.256134 L 264.531264 641.256134 " transform="matrix(0.10903,0,0,-0.10903,0.498,141.631)"/>
<path style=" stroke:none;fill-rule:nonzero;fill:rgb(13.730068%,12.159915%,12.54902%);fill-opacity:1;" d="M 28.257813 73.28125 L 34.167969 71.695313 L 28.257813 70.113281 L 28.257813 73.28125 "/>
<path style="fill:none;stroke-width:5;stroke-linecap:butt;stroke-linejoin:miter;stroke:rgb(13.730068%,12.159915%,12.54902%);stroke-opacity:1;stroke-miterlimit:4;" d="M 226.30354 740.533569 L 162.566782 740.533569 " transform="matrix(0.10903,0,0,-0.10903,0.498,141.631)"/>
<path style=" stroke:none;fill-rule:nonzero;fill:rgb(13.730068%,12.159915%,12.54902%);fill-opacity:1;" d="M 19.300781 62.453125 L 13.390625 60.871094 L 19.300781 59.289063 L 19.300781 62.453125 "/>
<path style="fill:none;stroke-width:5;stroke-linecap:butt;stroke-linejoin:miter;stroke:rgb(13.730068%,12.159915%,12.54902%);stroke-opacity:1;stroke-miterlimit:4;" d="M 212.366722 604.031574 C 212.366722 604.031574 223.25822 536.568777 189.508908 470.001662 C 146.874427 385.915 151.746939 336.222542 151.746939 336.222542 " transform="matrix(0.10903,0,0,-0.10903,0.498,141.631)"/>
<path style="fill:none;stroke-width:5;stroke-linecap:butt;stroke-linejoin:miter;stroke:rgb(13.730068%,12.159915%,12.54902%);stroke-opacity:1;stroke-miterlimit:4;" d="M 299.140432 238.736472 C 298.423886 249.162215 293.479719 257.474147 285.454405 263.994715 C 277.03499 270.801901 266.465938 276.677577 256.398468 280.61858 C 252.636602 282.087499 248.444809 283.6639 244.647115 285.132819 C 230.531161 290.68605 214.838806 294.268779 201.654361 301.864166 C 176.5036 316.37422 153.251685 335.756787 129.498189 352.488134 C 91.377946 379.358605 45.7698 372.515592 18.254437 372.515592 " transform="matrix(0.10903,0,0,-0.10903,0.498,141.631)"/>
<path style="fill:none;stroke-width:5;stroke-linecap:butt;stroke-linejoin:miter;stroke:rgb(13.730068%,12.159915%,12.54902%);stroke-opacity:1;stroke-miterlimit:4;" d="M 329.772769 603.924092 L 329.772769 316.875803 " transform="matrix(0.10903,0,0,-0.10903,0.498,141.631)"/>
<path style="fill:none;stroke-width:5;stroke-linecap:butt;stroke-linejoin:miter;stroke:rgb(13.730068%,12.159915%,12.54902%);stroke-opacity:1;stroke-miterlimit:4;" d="M 7.004666 551.257968 L 184.85136 460.507429 " transform="matrix(0.10903,0,0,-0.10903,0.498,141.631)"/>
<path style="fill:none;stroke-width:5;stroke-linecap:butt;stroke-linejoin:miter;stroke:rgb(13.730068%,12.159915%,12.54902%);stroke-opacity:1;stroke-miterlimit:4;" d="M 37.02794 599.98309 L 93.276793 573.757509 " transform="matrix(0.10903,0,0,-0.10903,0.498,141.631)"/>
<path style=" stroke:none;fill-rule:nonzero;fill:rgb(13.730068%,12.159915%,12.54902%);fill-opacity:1;" d="M 9.027344 80.035156 L 15.050781 81.101563 L 10.367188 77.164063 L 9.027344 80.035156 "/>
<path style="fill:none;stroke-width:5;stroke-linecap:butt;stroke-linejoin:miter;stroke:rgb(13.730068%,12.159915%,12.54902%);stroke-opacity:1;stroke-miterlimit:4;" d="M 93.276793 428.764446 L 39.500023 456.243981 " transform="matrix(0.10903,0,0,-0.10903,0.498,141.631)"/>
<path style=" stroke:none;fill-rule:nonzero;fill:rgb(13.730068%,12.159915%,12.54902%);fill-opacity:1;" d="M 6.480469 90.984375 L 0.496094 89.703125 L 5.039063 93.804688 L 6.480469 90.984375 "/>
<path style="fill:none;stroke-width:5;stroke-linecap:butt;stroke-linejoin:miter;stroke:rgb(13.730068%,12.159915%,12.54902%);stroke-opacity:1;stroke-miterlimit:4;" d="M 259.515443 397.487217 L 259.515443 453.73607 " transform="matrix(0.10903,0,0,-0.10903,0.498,141.631)"/>
<path style=" stroke:none;fill-rule:nonzero;fill:rgb(13.730068%,12.159915%,12.54902%);fill-opacity:1;" d="M 30.355469 93.238281 L 28.773438 87.328125 L 27.191406 93.238281 L 30.355469 93.238281 "/>
<path style="fill:none;stroke-width:5;stroke-linecap:butt;stroke-linejoin:miter;stroke:rgb(13.730068%,12.159915%,12.54902%);stroke-opacity:1;stroke-miterlimit:4;" d="M 384.516876 537.500287 L 384.516876 473.763528 " transform="matrix(0.10903,0,0,-0.10903,0.498,141.631)"/>
<path style=" stroke:none;fill-rule:nonzero;fill:rgb(13.730068%,12.159915%,12.54902%);fill-opacity:1;" d="M 40.859375 88.898438 L 42.441406 94.808594 L 44.023438 88.898438 L 40.859375 88.898438 "/>
<path style="fill:none;stroke-width:5;stroke-linecap:butt;stroke-linejoin:miter;stroke:rgb(13.730068%,12.159915%,12.54902%);stroke-opacity:1;stroke-miterlimit:4;" d="M 28.250252 177.507624 L 53.257704 231.248567 " transform="matrix(0.10903,0,0,-0.10903,0.498,141.631)"/>
<path style=" stroke:none;fill-rule:nonzero;fill:rgb(13.730068%,12.159915%,12.54902%);fill-opacity:1;" d="M 7.269531 118.054688 L 8.324219 112.03125 L 4.398438 116.722656 L 7.269531 118.054688 "/>
<path style="fill:none;stroke-width:5;stroke-linecap:butt;stroke-linejoin:miter;stroke:rgb(13.730068%,12.159915%,12.54902%);stroke-opacity:1;stroke-miterlimit:4;" d="M 147.089391 249.162215 L 419.520144 10.015019 " transform="matrix(0.10903,0,0,-0.10903,0.498,141.631)"/>
<path style="fill:none;stroke-width:5;stroke-linecap:butt;stroke-linejoin:miter;stroke:rgb(13.730068%,12.159915%,12.54902%);stroke-opacity:1;stroke-miterlimit:4;" d="M 148.271691 153.754127 L 188.254953 117.496905 " transform="matrix(0.10903,0,0,-0.10903,0.498,141.631)"/>
<path style=" stroke:none;fill-rule:nonzero;fill:rgb(13.730068%,12.159915%,12.54902%);fill-opacity:1;" d="M 19.175781 129.253906 L 24.617188 132.050781 L 21.300781 126.90625 L 19.175781 129.253906 "/>
<path style="fill:none;stroke-width:5;stroke-linecap:butt;stroke-linejoin:miter;stroke:rgb(13.730068%,12.159915%,12.54902%);stroke-opacity:1;stroke-miterlimit:4;" d="M 352.021519 106.247134 L 315.764297 142.504357 " transform="matrix(0.10903,0,0,-0.10903,0.498,141.631)"/>
<path style=" stroke:none;fill-rule:nonzero;fill:rgb(13.730068%,12.159915%,12.54902%);fill-opacity:1;" d="M 36.796875 125.753906 L 31.496094 122.691406 L 34.558594 127.992188 L 36.796875 125.753906 "/>
<path style="fill:none;stroke-width:5;stroke-linecap:butt;stroke-linejoin:miter;stroke:rgb(13.730068%,12.159915%,12.54902%);stroke-opacity:1;stroke-miterlimit:4;" d="M 201.654361 301.864166 C 201.654361 301.864166 78.265156 218.744841 60.781436 34.986644 " transform="matrix(0.10903,0,0,-0.10903,0.498,141.631)"/>
<path style="fill:none;stroke-width:5;stroke-linecap:butt;stroke-linejoin:miter;stroke:rgb(13.730068%,12.159915%,12.54902%);stroke-opacity:1;stroke-miterlimit:4;" d="M 532.017851 147.484351 C 532.017851 147.484351 499.522494 146.266223 470.753176 132.508541 C 470.753176 132.508541 354.52943 86.255503 304.514526 219.998796 C 304.514526 219.998796 274.52708 278.75556 345.751743 329.988593 C 345.751743 329.988593 446.999679 380.003497 485.764812 478.743522 C 491.568834 494.185087 496.548828 509.984924 501.098895 525.820588 C 505.075725 539.685752 508.658454 553.694224 511.452983 567.881833 C 519.299161 607.865094 563.223425 743.29227 627.425938 685.538671 C 649.603034 665.618694 665.223734 639.500596 687.436657 619.616447 C 700.51362 607.900922 743.327238 595.612159 740.7835 575.011465 " transform="matrix(0.10903,0,0,-0.10903,0.498,141.631)"/>
<path style="fill:none;stroke-width:5;stroke-linecap:butt;stroke-linejoin:miter;stroke:rgb(13.730068%,12.159915%,12.54902%);stroke-opacity:1;stroke-miterlimit:4;" d="M 477.560362 460.328293 C 502.496159 441.769754 528.076848 429.301855 555.914657 416.296547 C 568.955792 410.205907 619.18566 389.676866 598.262519 368.753726 " transform="matrix(0.10903,0,0,-0.10903,0.498,141.631)"/>
<path style="fill:none;stroke-width:5;stroke-linecap:butt;stroke-linejoin:miter;stroke:rgb(13.730068%,12.159915%,12.54902%);stroke-opacity:1;stroke-miterlimit:4;" d="M 548.283443 28.752694 C 548.283443 28.752694 477.488707 262.454141 614.528112 384.983491 C 744.509539 501.243064 729.533729 540.008197 753.251399 669.989624 C 762.745632 730.824372 756.296719 803.661263 718.427268 854.106095 C 681.955081 902.759562 617.501777 919.634218 559.640695 913.90185 C 478.527699 905.840709 403.827788 873.166216 345.930879 815.269307 " transform="matrix(0.10903,0,0,-0.10903,0.498,141.631)"/>
<path style="fill:none;stroke-width:5;stroke-linecap:butt;stroke-linejoin:miter;stroke:rgb(13.730068%,12.159915%,12.54902%);stroke-opacity:1;stroke-miterlimit:4;" d="M 379.106955 747.627373 L 506.437162 904.801717 " transform="matrix(0.10903,0,0,-0.10903,0.498,141.631)"/>
<path style="fill:none;stroke-width:5;stroke-linecap:butt;stroke-linejoin:miter;stroke:rgb(13.730068%,12.159915%,12.54902%);stroke-opacity:1;stroke-miterlimit:4;" d="M 401.964769 636.097003 L 614.313148 912.432931 " transform="matrix(0.10903,0,0,-0.10903,0.498,141.631)"/>
<path style="fill:none;stroke-width:5;stroke-linecap:butt;stroke-linejoin:miter;stroke:rgb(13.730068%,12.159915%,12.54902%);stroke-opacity:1;stroke-miterlimit:4;" d="M 612.378474 695.74945 L 731.540058 833.541227 " transform="matrix(0.10903,0,0,-0.10903,0.498,141.631)"/>
<path style="fill:none;stroke-width:5;stroke-linecap:butt;stroke-linejoin:miter;stroke:rgb(13.730068%,12.159915%,12.54902%);stroke-opacity:1;stroke-miterlimit:4;" d="M 426.685603 854.643504 L 410.56332 832.108135 " transform="matrix(0.10903,0,0,-0.10903,0.498,141.631)"/>
<path style=" stroke:none;fill-rule:nonzero;fill:rgb(13.730068%,12.159915%,12.54902%);fill-opacity:1;" d="M 44.617188 49.117188 L 42.464844 54.84375 L 47.191406 50.960938 L 44.617188 49.117188 "/>
<path style="fill:none;stroke-width:5;stroke-linecap:butt;stroke-linejoin:miter;stroke:rgb(13.730068%,12.159915%,12.54902%);stroke-opacity:1;stroke-miterlimit:4;" d="M 452.0155 776.68331 L 478.671008 810.826722 " transform="matrix(0.10903,0,0,-0.10903,0.498,141.631)"/>
<path style=" stroke:none;fill-rule:nonzero;fill:rgb(13.730068%,12.159915%,12.54902%);fill-opacity:1;" d="M 53.257813 55.039063 L 55.644531 49.40625 L 50.761719 53.089844 L 53.257813 55.039063 "/>
<path style="fill:none;stroke-width:5;stroke-linecap:butt;stroke-linejoin:miter;stroke:rgb(13.730068%,12.159915%,12.54902%);stroke-opacity:1;stroke-miterlimit:4;" d="M 718.140649 749.991975 L 690.517805 716.565108 " transform="matrix(0.10903,0,0,-0.10903,0.498,141.631)"/>
<path style=" stroke:none;fill-rule:nonzero;fill:rgb(13.730068%,12.159915%,12.54902%);fill-opacity:1;" d="M 77.679688 63.667969 L 72.691406 67.210938 L 75.242188 61.648438 L 77.679688 63.667969 "/>
<path style="fill:none;stroke-width:5;stroke-linecap:butt;stroke-linejoin:miter;stroke:rgb(13.730068%,12.159915%,12.54902%);stroke-opacity:1;stroke-miterlimit:4;" d="M 567.486873 751.675858 L 594.142381 785.81927 " transform="matrix(0.10903,0,0,-0.10903,0.498,141.631)"/>
<path style=" stroke:none;fill-rule:nonzero;fill:rgb(13.730068%,12.159915%,12.54902%);fill-opacity:1;" d="M 65.847656 57.765625 L 68.234375 52.132813 L 63.351563 55.816406 L 65.847656 57.765625 "/>
<path style="fill:none;stroke-width:5;stroke-linecap:butt;stroke-linejoin:miter;stroke:rgb(13.730068%,12.159915%,12.54902%);stroke-opacity:1;stroke-miterlimit:4;" d="M 984.731553 524.817424 L 757.156574 717.496618 " transform="matrix(0.10903,0,0,-0.10903,0.498,141.631)"/>
<path style="fill:none;stroke-width:5;stroke-linecap:butt;stroke-linejoin:miter;stroke:rgb(13.730068%,12.159915%,12.54902%);stroke-opacity:1;stroke-miterlimit:4;" d="M 712.372455 861.558172 C 712.372455 861.558172 738.275589 819.99851 804.520258 818.744554 C 839.308562 818.099663 878.002041 827.307278 911.213943 813.37046 C 954.099216 795.34933 961.909566 745.226944 966.531287 704.88541 C 967.570279 695.928586 968.071861 686.86428 968.895889 677.871629 C 970.902217 655.515397 973.051855 633.194992 975.452284 610.874587 C 977.709403 590.166411 979.966523 569.458234 983.298461 548.893367 C 984.516589 541.118843 984.731553 514.427508 990.750539 508.372696 " transform="matrix(0.10903,0,0,-0.10903,0.498,141.631)"/>
<path style="fill:none;stroke-width:5;stroke-linecap:butt;stroke-linejoin:miter;stroke:rgb(13.730068%,12.159915%,12.54902%);stroke-opacity:1;stroke-miterlimit:4;" d="M 719.215468 511.525498 C 719.215468 511.525498 775.75094 429.982574 907.02215 477.489567 C 907.02215 477.489567 997.020316 532.484465 1088.272436 505.00493 C 1088.272436 505.00493 1165.766876 376.205803 1104.502201 153.7183 " transform="matrix(0.10903,0,0,-0.10903,0.498,141.631)"/>
<path style="fill:none;stroke-width:5;stroke-linecap:butt;stroke-linejoin:miter;stroke:rgb(13.730068%,12.159915%,12.54902%);stroke-opacity:1;stroke-miterlimit:4;" d="M 742.001628 260.017885 C 793.77207 295.271944 842.747982 234.078923 886.564764 215.054629 C 908.168623 205.667878 930.811474 198.466592 954.027561 194.489762 C 1015.972955 183.849055 1077.452593 199.756374 1122.451676 244.755457 " transform="matrix(0.10903,0,0,-0.10903,0.498,141.631)"/>
<path style="fill:none;stroke-width:5;stroke-linecap:butt;stroke-linejoin:miter;stroke:rgb(13.730068%,12.159915%,12.54902%);stroke-opacity:1;stroke-miterlimit:4;" d="M 809.822698 463.80354 C 809.822698 463.80354 808.747879 428.298691 773.278857 367.499771 C 718.570577 273.775566 742.001628 34.986644 742.001628 34.986644 " transform="matrix(0.10903,0,0,-0.10903,0.498,141.631)"/>
<path style="fill:none;stroke-width:5;stroke-linecap:butt;stroke-linejoin:miter;stroke:rgb(13.730068%,12.159915%,12.54902%);stroke-opacity:1;stroke-miterlimit:4;" d="M 1088.272436 505.00493 C 1088.272436 505.00493 1243.118007 581.352896 1248.277137 498.735153 C 1249.459438 479.639205 1249.42361 448.290321 1269.70186 438.294506 C 1277.046455 434.675949 1286.182415 435.105877 1294.136075 434.711777 C 1315.417488 433.74444 1372.991952 422.458842 1382.629494 395.480888 " transform="matrix(0.10903,0,0,-0.10903,0.498,141.631)"/>
<path style="fill:none;stroke-width:5;stroke-linecap:butt;stroke-linejoin:miter;stroke:rgb(13.730068%,12.159915%,12.54902%);stroke-opacity:1;stroke-miterlimit:4;" d="M 1079.494749 44.982459 C 1079.494749 44.982459 1069.498934 167.511809 1149.501284 181.233663 C 1229.503634 194.991344 1238.102185 140.175582 1338.096166 186.428621 " transform="matrix(0.10903,0,0,-0.10903,0.498,141.631)"/>
<path style="fill:none;stroke-width:5;stroke-linecap:butt;stroke-linejoin:miter;stroke:rgb(13.730068%,12.159915%,12.54902%);stroke-opacity:1;stroke-miterlimit:4;" d="M 1347.017163 33.732688 C 1347.017163 33.732688 1323.263666 177.507624 1350.743201 273.739739 C 1355.973987 291.904178 1359.735853 310.391062 1362.960309 328.985428 C 1366.972966 352.308998 1373.457707 373.948684 1382.450358 395.98247 C 1396.781276 431.129047 1420.069018 464.412604 1462.918463 453.162834 C 1480.43801 448.541113 1497.92173 427.11639 1509.493947 413.752809 C 1509.493947 413.752809 1580.754437 338.76628 1603.253978 338.76628 " transform="matrix(0.10903,0,0,-0.10903,0.498,141.631)"/>
<path style="fill:none;stroke-width:5;stroke-linecap:butt;stroke-linejoin:miter;stroke:rgb(13.730068%,12.159915%,12.54902%);stroke-opacity:1;stroke-miterlimit:4;" d="M 963.020212 730.17948 C 963.020212 730.17948 989.496584 712.83907 1058.249163 730.17948 C 1127.001743 747.484064 1192.458211 749.991975 1223.269685 656.26777 C 1243.046352 596.042087 1234.053701 528.292672 1234.053701 528.292672 L 1234.053701 171.058711 " transform="matrix(0.10903,0,0,-0.10903,0.498,141.631)"/>
<path style="fill:none;stroke-width:5;stroke-linecap:butt;stroke-linejoin:miter;stroke:rgb(13.730068%,12.159915%,12.54902%);stroke-opacity:1;stroke-miterlimit:4;" d="M 974.592429 619.007383 L 1232.119027 619.007383 " transform="matrix(0.10903,0,0,-0.10903,0.498,141.631)"/>
<path style="fill:none;stroke-width:5;stroke-linecap:butt;stroke-linejoin:miter;stroke:rgb(13.730068%,12.159915%,12.54902%);stroke-opacity:1;stroke-miterlimit:4;" d="M 1028.261717 655.013815 L 1103.248246 655.013815 " transform="matrix(0.10903,0,0,-0.10903,0.498,141.631)"/>
<path style=" stroke:none;fill-rule:nonzero;fill:rgb(13.730068%,12.159915%,12.54902%);fill-opacity:1;" d="M 119.707031 71.78125 L 125.617188 70.195313 L 119.707031 68.613281 L 119.707031 71.78125 "/>
<path style="fill:none;stroke-width:5;stroke-linecap:butt;stroke-linejoin:miter;stroke:rgb(13.730068%,12.159915%,12.54902%);stroke-opacity:1;stroke-miterlimit:4;" d="M 1147.56661 572.503554 L 1072.544254 572.503554 " transform="matrix(0.10903,0,0,-0.10903,0.498,141.631)"/>
<path style=" stroke:none;fill-rule:nonzero;fill:rgb(13.730068%,12.159915%,12.54902%);fill-opacity:1;" d="M 118.519531 80.777344 L 112.609375 79.191406 L 118.519531 77.609375 L 118.519531 80.777344 "/>
<path style="fill:none;stroke-width:5;stroke-linecap:butt;stroke-linejoin:miter;stroke:rgb(13.730068%,12.159915%,12.54902%);stroke-opacity:1;stroke-miterlimit:4;" d="M 1032.847611 381.257452 L 957.861082 381.257452 " transform="matrix(0.10903,0,0,-0.10903,0.498,141.631)"/>
<path style=" stroke:none;fill-rule:nonzero;fill:rgb(13.730068%,12.159915%,12.54902%);fill-opacity:1;" d="M 106.011719 101.628906 L 100.101563 100.042969 L 106.011719 98.460938 L 106.011719 101.628906 "/>
<path style="fill:none;stroke-width:5;stroke-linecap:butt;stroke-linejoin:miter;stroke:rgb(13.730068%,12.159915%,12.54902%);stroke-opacity:1;stroke-miterlimit:4;" d="M 913.542718 272.485784 L 988.565074 272.485784 " transform="matrix(0.10903,0,0,-0.10903,0.498,141.631)"/>
<path style=" stroke:none;fill-rule:nonzero;fill:rgb(13.730068%,12.159915%,12.54902%);fill-opacity:1;" d="M 107.199219 113.484375 L 113.109375 111.902344 L 107.199219 110.316406 L 107.199219 113.484375 "/>
<path style="fill:none;stroke-width:5;stroke-linecap:butt;stroke-linejoin:miter;stroke:rgb(13.730068%,12.159915%,12.54902%);stroke-opacity:1;stroke-miterlimit:4;" d="M 1161.037673 114.988994 L 1236.060029 114.988994 " transform="matrix(0.10903,0,0,-0.10903,0.498,141.631)"/>
<path style=" stroke:none;fill-rule:nonzero;fill:rgb(13.730068%,12.159915%,12.54902%);fill-opacity:1;" d="M 134.183594 130.65625 L 140.09375 129.074219 L 134.183594 127.488281 L 134.183594 130.65625 "/>
<path style="fill:none;stroke-width:5;stroke-linecap:butt;stroke-linejoin:miter;stroke:rgb(13.730068%,12.159915%,12.54902%);stroke-opacity:1;stroke-miterlimit:4;" d="M 1177.016647 274.886213 L 1177.016647 349.908569 " transform="matrix(0.10903,0,0,-0.10903,0.498,141.631)"/>
<path style=" stroke:none;fill-rule:nonzero;fill:rgb(13.730068%,12.159915%,12.54902%);fill-opacity:1;" d="M 127.265625 104.5625 L 128.847656 98.652344 L 130.429688 104.5625 L 127.265625 104.5625 "/>
<path style="fill:none;stroke-width:5;stroke-linecap:butt;stroke-linejoin:miter;stroke:rgb(13.730068%,12.159915%,12.54902%);stroke-opacity:1;stroke-miterlimit:4;" d="M 1288.260399 394.191106 L 1288.260399 319.204577 " transform="matrix(0.10903,0,0,-0.10903,0.498,141.631)"/>
<path style=" stroke:none;fill-rule:nonzero;fill:rgb(13.730068%,12.159915%,12.54902%);fill-opacity:1;" d="M 139.394531 105.75 L 140.976563 111.660156 L 142.5625 105.75 L 139.394531 105.75 "/>
<path style="fill:none;stroke-width:5;stroke-linecap:butt;stroke-linejoin:miter;stroke:rgb(13.730068%,12.159915%,12.54902%);stroke-opacity:1;stroke-miterlimit:4;" d="M 913.542718 462.513758 L 988.565074 462.513758 " transform="matrix(0.10903,0,0,-0.10903,0.498,141.631)"/>
<path style=" stroke:none;fill-rule:nonzero;fill:rgb(13.730068%,12.159915%,12.54902%);fill-opacity:1;" d="M 107.199219 92.769531 L 113.109375 91.183594 L 107.199219 89.601563 L 107.199219 92.769531 "/>
<path style="fill:none;stroke-width:5;stroke-linecap:butt;stroke-linejoin:miter;stroke:rgb(13.730068%,12.159915%,12.54902%);stroke-opacity:1;stroke-miterlimit:4;" d="M 801.439111 427.689627 L 1116.683482 427.689627 " transform="matrix(0.10903,0,0,-0.10903,0.498,141.631)"/>
<path style="fill:none;stroke-width:5;stroke-linecap:butt;stroke-linejoin:miter;stroke:rgb(13.730068%,12.159915%,12.54902%);stroke-opacity:1;stroke-miterlimit:4;" d="M 755.436864 323.503852 L 1128.076561 323.503852 " transform="matrix(0.10903,0,0,-0.10903,0.498,141.631)"/>
<path style="fill:none;stroke-width:5;stroke-linecap:butt;stroke-linejoin:miter;stroke:rgb(13.730068%,12.159915%,12.54902%);stroke-opacity:1;stroke-miterlimit:4;" d="M 1398.106886 425.969917 L 1599.492112 194.991344 " transform="matrix(0.10903,0,0,-0.10903,0.498,141.631)"/>
<path style="fill:none;stroke-width:5;stroke-linecap:butt;stroke-linejoin:miter;stroke:rgb(13.730068%,12.159915%,12.54902%);stroke-opacity:1;stroke-miterlimit:4;" d="M 1352.068811 278.433115 L 1505.767908 92.489452 " transform="matrix(0.10903,0,0,-0.10903,0.498,141.631)"/>
<path style="fill:none;stroke-width:5;stroke-linecap:butt;stroke-linejoin:miter;stroke:rgb(13.730068%,12.159915%,12.54902%);stroke-opacity:1;stroke-miterlimit:4;" d="M 1476.99859 392.507223 L 1509.493947 360.011866 " transform="matrix(0.10903,0,0,-0.10903,0.498,141.631)"/>
<path style=" stroke:none;fill-rule:nonzero;fill:rgb(13.730068%,12.159915%,12.54902%);fill-opacity:1;" d="M 163.210938 102.722656 L 168.507813 105.78125 L 165.449219 100.484375 L 163.210938 102.722656 "/>
<path style="fill:none;stroke-width:5;stroke-linecap:butt;stroke-linejoin:miter;stroke:rgb(13.730068%,12.159915%,12.54902%);stroke-opacity:1;stroke-miterlimit:4;" d="M 1365.754838 177.507624 L 1398.250195 145.012267 " transform="matrix(0.10903,0,0,-0.10903,0.498,141.631)"/>
<path style=" stroke:none;fill-rule:nonzero;fill:rgb(13.730068%,12.159915%,12.54902%);fill-opacity:1;" d="M 151.082031 126.164063 L 156.378906 129.222656 L 153.320313 123.925781 L 151.082031 126.164063 "/>
<path style="fill:none;stroke-width:5;stroke-linecap:butt;stroke-linejoin:miter;stroke:rgb(13.730068%,12.159915%,12.54902%);stroke-opacity:1;stroke-miterlimit:4;" d="M 1474.204061 224.763826 L 1444.646542 259.982058 " transform="matrix(0.10903,0,0,-0.10903,0.498,141.631)"/>
<path style=" stroke:none;fill-rule:nonzero;fill:rgb(13.730068%,12.159915%,12.54902%);fill-opacity:1;" d="M 157.503906 115.117188 L 154.917969 109.574219 L 159.929688 113.082031 L 157.503906 115.117188 "/>
<path style="fill:none;stroke-width:5;stroke-linecap:butt;stroke-linejoin:miter;stroke:rgb(13.730068%,12.159915%,12.54902%);stroke-opacity:1;stroke-miterlimit:4;" d="M 740.317745 233.362377 L 590.774615 41.25642 " transform="matrix(0.10903,0,0,-0.10903,0.498,141.631)"/>
<path style="fill:none;stroke-width:5;stroke-linecap:butt;stroke-linejoin:miter;stroke:rgb(13.730068%,12.159915%,12.54902%);stroke-opacity:1;stroke-miterlimit:4;" d="M 765.038579 476.199784 L 530.119004 175.107195 " transform="matrix(0.10903,0,0,-0.10903,0.498,141.631)"/>
<path style="fill:none;stroke-width:5;stroke-linecap:butt;stroke-linejoin:miter;stroke:rgb(13.730068%,12.159915%,12.54902%);stroke-opacity:1;stroke-miterlimit:4;" d="M 628.249966 493.755159 L 595.145545 526.85958 " transform="matrix(0.10903,0,0,-0.10903,0.498,141.631)"/>
<path style=" stroke:none;fill-rule:nonzero;fill:rgb(13.730068%,12.159915%,12.54902%);fill-opacity:1;" d="M 67.257813 83.84375 L 61.957031 80.785156 L 65.015625 86.082031 L 67.257813 83.84375 "/>
<path style="fill:none;stroke-width:5;stroke-linecap:butt;stroke-linejoin:miter;stroke:rgb(13.730068%,12.159915%,12.54902%);stroke-opacity:1;stroke-miterlimit:4;" d="M 405.762462 231.248567 L 459.503405 297.493236 " transform="matrix(0.10903,0,0,-0.10903,0.498,141.631)"/>
<path style=" stroke:none;fill-rule:nonzero;fill:rgb(13.730068%,12.159915%,12.54902%);fill-opacity:1;" d="M 51.132813 111.019531 L 53.628906 105.433594 L 48.671875 109.023438 L 51.132813 111.019531 "/>
<path style="fill:none;stroke-width:5;stroke-linecap:butt;stroke-linejoin:miter;stroke:rgb(13.730068%,12.159915%,12.54902%);stroke-opacity:1;stroke-miterlimit:4;" d="M 620.762061 339.984408 L 650.749507 380.003497 " transform="matrix(0.10903,0,0,-0.10903,0.498,141.631)"/>
<path style=" stroke:none;fill-rule:nonzero;fill:rgb(13.730068%,12.159915%,12.54902%);fill-opacity:1;" d="M 72.054688 102.003906 L 74.332031 96.324219 L 69.519531 100.101563 L 72.054688 102.003906 "/>
<path style="fill:none;stroke-width:5;stroke-linecap:butt;stroke-linejoin:miter;stroke:rgb(13.730068%,12.159915%,12.54902%);stroke-opacity:1;stroke-miterlimit:4;" d="M 685.752774 278.75556 L 649.531379 227.486701 " transform="matrix(0.10903,0,0,-0.10903,0.498,141.631)"/>
<path style=" stroke:none;fill-rule:nonzero;fill:rgb(13.730068%,12.159915%,12.54902%);fill-opacity:1;" d="M 70.660156 115.039063 L 68.542969 120.78125 L 73.246094 116.871094 L 70.660156 115.039063 "/>
<path style="fill:none;stroke-width:5;stroke-linecap:butt;stroke-linejoin:miter;stroke:rgb(13.730068%,12.159915%,12.54902%);stroke-opacity:1;stroke-miterlimit:4;" d="M 634.519742 27.498739 L 668.269054 68.735956 " transform="matrix(0.10903,0,0,-0.10903,0.498,141.631)"/>
<path style=" stroke:none;fill-rule:nonzero;fill:rgb(13.730068%,12.159915%,12.54902%);fill-opacity:1;" d="M 73.886719 135.960938 L 76.402344 130.386719 L 71.433594 133.957031 L 73.886719 135.960938 "/>
<path style="fill:none;stroke-width:5;stroke-linecap:butt;stroke-linejoin:miter;stroke:rgb(13.730068%,12.159915%,12.54902%);stroke-opacity:1;stroke-miterlimit:4;" d="M 865.892415 226.447709 L 865.892415 57.486185 " transform="matrix(0.10903,0,0,-0.10903,0.498,141.631)"/>
<path style="fill:none;stroke-width:5;stroke-linecap:butt;stroke-linejoin:miter;stroke:rgb(13.730068%,12.159915%,12.54902%);stroke-opacity:1;stroke-miterlimit:4;" d="M 985.770545 191.408615 L 985.770545 37.494554 " transform="matrix(0.10903,0,0,-0.10903,0.498,141.631)"/>
<path style="fill:none;stroke-width:5;stroke-linecap:butt;stroke-linejoin:miter;stroke:rgb(13.730068%,12.159915%,12.54902%);stroke-opacity:1;stroke-miterlimit:4;" d="M 810.754208 60.567332 L 810.754208 126.812001 " transform="matrix(0.10903,0,0,-0.10903,0.498,141.631)"/>
<path style=" stroke:none;fill-rule:nonzero;fill:rgb(13.730068%,12.159915%,12.54902%);fill-opacity:1;" d="M 90.460938 128.882813 L 88.875 122.972656 L 87.292969 128.882813 L 90.460938 128.882813 "/>
<path style="fill:none;stroke-width:5;stroke-linecap:butt;stroke-linejoin:miter;stroke:rgb(13.730068%,12.159915%,12.54902%);stroke-opacity:1;stroke-miterlimit:4;" d="M 1037.003577 60.567332 L 1037.003577 126.812001 " transform="matrix(0.10903,0,0,-0.10903,0.498,141.631)"/>
<path style=" stroke:none;fill-rule:nonzero;fill:rgb(13.730068%,12.159915%,12.54902%);fill-opacity:1;" d="M 115.128906 128.882813 L 113.542969 122.972656 L 111.960938 128.882813 L 115.128906 128.882813 "/>
<path style="fill:none;stroke-width:5;stroke-linecap:butt;stroke-linejoin:miter;stroke:rgb(13.730068%,12.159915%,12.54902%);stroke-opacity:1;stroke-miterlimit:4;" d="M 923.251915 171.130365 L 923.251915 104.849869 " transform="matrix(0.10903,0,0,-0.10903,0.498,141.631)"/>
<path style=" stroke:none;fill-rule:nonzero;fill:rgb(13.730068%,12.159915%,12.54902%);fill-opacity:1;" d="M 102.726563 129.117188 L 101.140625 135.027344 L 99.558594 129.117188 L 102.726563 129.117188 "/>
</g>
</g>
</g>
</svg>
