<?xml version="1.0" encoding="UTF-8"?>
<svg xmlns="http://www.w3.org/2000/svg" xmlns:xlink="http://www.w3.org/1999/xlink" width="230pt" height="191pt" viewBox="0 0 166 138" version="1.1">
<defs>
<clipPath id="clip1">
  <path d="M -222 666 L 390 666 L 390 -126 L -222 -126 L -222 666 Z M -222 666 "/>
</clipPath>
<clipPath id="clip2">
  <path d="M 0.00390625 138.726563 L 167.257813 138.726563 L 167.257813 -1.199219 L 0.00390625 -1.199219 L 0.00390625 138.726563 Z M 0.00390625 138.726563 "/>
</clipPath>
</defs>
<g id="surface0">
<g clip-path="url(#clip1)" clip-rule="nonzero">
<g clip-path="url(#clip2)" clip-rule="nonzero">
<path style="fill:none;stroke-width:5;stroke-linecap:butt;stroke-linejoin:miter;stroke:rgb(13.730068%,12.159915%,12.54902%);stroke-opacity:1;stroke-miterlimit:4;" d="M 880.019805 1262.494912 C 880.019805 1262.494912 817.486644 919.991859 130.014945 872.50239 " transform="matrix(0.109317,0,0,-0.109317,0.002,138.727)"/>
<path style=" stroke:none;fill-rule:nonzero;fill:rgb(13.730068%,12.159915%,12.54902%);fill-opacity:1;" d="M 88.328125 17.179688 L 90.949219 11.632813 L 85.914063 15.125 L 88.328125 17.179688 "/>
<path style=" stroke:none;fill-rule:nonzero;fill:rgb(13.730068%,12.159915%,12.54902%);fill-opacity:1;" d="M 42.660156 41.136719 L 47.859375 37.996094 L 41.734375 37.996094 L 42.660156 41.136719 "/>
<path style="fill:none;stroke-width:5;stroke-linecap:butt;stroke-linejoin:miter;stroke:rgb(13.730068%,12.159915%,12.54902%);stroke-opacity:1;stroke-miterlimit:4;" d="M 920.005294 1041.234723 C 920.005294 1041.234723 1029.384725 1144.575238 1103.745586 1257.492259 " transform="matrix(0.109317,0,0,-0.109317,0.002,138.727)"/>
<path style=" stroke:none;fill-rule:nonzero;fill:rgb(13.730068%,12.159915%,12.54902%);fill-opacity:1;" d="M 112.820313 13.824219 L 115.550781 8.328125 L 110.4375 11.71875 L 112.820313 13.824219 "/>
<path style="fill:none;stroke-width:5;stroke-linecap:butt;stroke-linejoin:miter;stroke:rgb(13.730068%,12.159915%,12.54902%);stroke-opacity:1;stroke-miterlimit:4;" d="M 14.989663 752.510188 C 14.989663 752.510188 839.998582 690.012761 1299.99251 1107.48414 " transform="matrix(0.109317,0,0,-0.109317,0.002,138.727)"/>
<path style=" stroke:none;fill-rule:nonzero;fill:rgb(13.730068%,12.159915%,12.54902%);fill-opacity:1;" d="M 95.46875 45.851563 L 100.503906 42.347656 L 94.394531 42.863281 L 95.46875 45.851563 "/>
<path style=" stroke:none;fill-rule:nonzero;fill:rgb(13.730068%,12.159915%,12.54902%);fill-opacity:1;" d="M 34.472656 57.753906 L 40.230469 55.644531 L 34.191406 54.589844 L 34.472656 57.753906 "/>
<path style=" stroke:none;fill-rule:nonzero;fill:rgb(13.730068%,12.159915%,12.54902%);fill-opacity:1;" d="M 37.425781 69.140625 L 43.347656 67.542969 L 37.421875 65.964844 L 37.425781 69.140625 "/>
<path style=" stroke:none;fill-rule:nonzero;fill:rgb(13.730068%,12.159915%,12.54902%);fill-opacity:1;" d="M 84.464844 65.441406 L 90.199219 63.269531 L 84.148438 62.28125 L 84.464844 65.441406 "/>
<path style=" stroke:none;fill-rule:nonzero;fill:rgb(13.730068%,12.159915%,12.54902%);fill-opacity:1;" d="M 132.652344 57.472656 L 138.175781 54.808594 L 132.058594 54.351563 L 132.652344 57.472656 "/>
<path style="fill:none;stroke-width:5;stroke-linecap:butt;stroke-linejoin:miter;stroke:rgb(13.730068%,12.159915%,12.54902%);stroke-opacity:1;stroke-miterlimit:4;" d="M 19.992316 642.487559 C 19.992316 642.487559 787.506461 622.512681 1455.003282 817.508942 " transform="matrix(0.109317,0,0,-0.109317,0.002,138.727)"/>
<path style=" stroke:none;fill-rule:nonzero;fill:rgb(13.730068%,12.159915%,12.54902%);fill-opacity:1;" d="M 52.480469 79.777344 L 58.40625 78.121094 L 52.480469 76.601563 L 52.480469 79.777344 "/>
<path style=" stroke:none;fill-rule:nonzero;fill:rgb(13.730068%,12.159915%,12.54902%);fill-opacity:1;" d="M 107.085938 81.964844 L 113.144531 81.027344 L 107.425781 78.8125 L 107.085938 81.964844 "/>
<path style="fill:none;stroke-width:5;stroke-linecap:butt;stroke-linejoin:miter;stroke:rgb(13.730068%,12.159915%,12.54902%);stroke-opacity:1;stroke-miterlimit:4;" d="M 19.992316 535.00199 C 19.992316 535.00199 867.513173 612.507375 1415.017792 457.496604 " transform="matrix(0.109317,0,0,-0.109317,0.002,138.727)"/>
<path style=" stroke:none;fill-rule:nonzero;fill:rgb(13.730068%,12.159915%,12.54902%);fill-opacity:1;" d="M 28.882813 92.417969 L 34.808594 90.683594 L 28.882813 89.242188 L 28.882813 92.417969 "/>
<path style=" stroke:none;fill-rule:nonzero;fill:rgb(13.730068%,12.159915%,12.54902%);fill-opacity:1;" d="M 92.65625 101.09375 L 98.777344 101.671875 L 93.792969 98.128906 L 92.65625 101.09375 "/>
<path style="fill:none;stroke-width:5;stroke-linecap:butt;stroke-linejoin:miter;stroke:rgb(13.730068%,12.159915%,12.54902%);stroke-opacity:1;stroke-miterlimit:4;" d="M 13.345934 412.508462 C 13.345934 412.508462 663.44067 552.404075 1176.677118 195.822127 " transform="matrix(0.109317,0,0,-0.109317,0.002,138.727)"/>
<path style="fill:none;stroke-width:5;stroke-linecap:butt;stroke-linejoin:miter;stroke:rgb(13.730068%,12.159915%,12.54902%);stroke-opacity:1;stroke-miterlimit:4;" d="M 1328.328965 639.235835 L 1511.676192 639.235835 " transform="matrix(0.109317,0,0,-0.109317,0.002,138.727)"/>
<path style=" stroke:none;fill-rule:nonzero;fill:rgb(13.730068%,12.159915%,12.54902%);fill-opacity:1;" d="M 152.511719 70.433594 L 158.433594 68.847656 L 152.511719 67.257813 L 152.511719 70.433594 "/>
<path style=" stroke:none;fill-rule:nonzero;fill:rgb(13.730068%,12.159915%,12.54902%);fill-opacity:1;" d="M 144.089844 105.804688 L 150.121094 106.9375 L 145.464844 102.941406 L 144.089844 105.804688 "/>
<path style="fill:none;stroke-width:5;stroke-linecap:butt;stroke-linejoin:miter;stroke:rgb(13.730068%,12.159915%,12.54902%);stroke-opacity:1;stroke-miterlimit:4;" d="M 1267.511 327.499097 C 1267.511 327.499097 1343.765723 314.992465 1412.516466 267.502996 " transform="matrix(0.109317,0,0,-0.109317,0.002,138.727)"/>
<path style=" stroke:none;fill-rule:nonzero;fill:rgb(13.730068%,12.159915%,12.54902%);fill-opacity:1;" d="M 20.972656 108.25 L 26.628906 105.832031 L 20.554688 105.101563 L 20.972656 108.25 "/>
<path style=" stroke:none;fill-rule:nonzero;fill:rgb(13.730068%,12.159915%,12.54902%);fill-opacity:1;" d="M 81.808594 118.238281 L 87.746094 119.847656 L 83.433594 115.507813 L 81.808594 118.238281 "/>
<path style="fill:none;stroke-width:5;stroke-linecap:butt;stroke-linejoin:miter;stroke:rgb(13.730068%,12.159915%,12.54902%);stroke-opacity:1;stroke-miterlimit:4;" d="M 9.98701 234.985752 C 9.98701 234.985752 512.503488 502.484746 1005.014659 10.009308 " transform="matrix(0.109317,0,0,-0.109317,0.002,138.727)"/>
</g>
</g>
</g>
</svg>
