<?xml version="1.0" encoding="UTF-8"?>
<svg xmlns="http://www.w3.org/2000/svg" xmlns:xlink="http://www.w3.org/1999/xlink" width="237.29096063693618pt" height="138.56406460551017pt" viewBox="0 0 137 80" version="1.1">
<defs>
<clipPath id="clip1">
  <path d="M -236 666 L 376 666 L 376 -126 L -236 -126 L -236 666 Z M -236 666 "/>
</clipPath>
<clipPath id="clip2">
  <path d="M 0.175781 79.738281 L 139.078125 79.738281 L 139.078125 -1.199219 L 0.175781 -1.199219 L 0.175781 79.738281 Z M 0.175781 79.738281 "/>
</clipPath>
<clipPath id="clip3">
  <path d="M -236 666 L 376 666 L 376 -126 L -236 -126 L -236 666 Z M -236 666 "/>
</clipPath>
<clipPath id="clip4">
  <path d="M 0.175781 79.738281 L 139.078125 79.738281 L 139.078125 -1.199219 L 0.175781 -1.199219 L 0.175781 79.738281 Z M 0.175781 79.738281 "/>
</clipPath>
<clipPath id="clip5">
  <path d="M 133.234375 5.621094 L 0.175781 5.546875 L 1.976563 0.332031 L 136.6875 0.566406 L 133.234375 5.621094 Z M 133.234375 5.621094 "/>
</clipPath>
<clipPath id="clip6">
  <path d="M -236 666 L 376 666 L 376 -126 L -236 -126 L -236 666 Z M -236 666 "/>
</clipPath>
<clipPath id="clip7">
  <path d="M 0.175781 79.738281 L 139.078125 79.738281 L 139.078125 -1.199219 L 0.175781 -1.199219 L 0.175781 79.738281 Z M 0.175781 79.738281 "/>
</clipPath>
<clipPath id="clip8">
  <path d="M -236 666 L 376 666 L 376 -126 L -236 -126 L -236 666 Z M -236 666 "/>
</clipPath>
<clipPath id="clip9">
  <path d="M 0.175781 79.738281 L 139.078125 79.738281 L 139.078125 -1.199219 L 0.175781 -1.199219 L 0.175781 79.738281 Z M 0.175781 79.738281 "/>
</clipPath>
<clipPath id="clip10">
  <path d="M 42.496094 76.9375 L 33.816406 76.9375 L 33.816406 68.261719 L 42.496094 68.261719 L 42.496094 76.9375 Z M 42.496094 76.9375 "/>
</clipPath>
<clipPath id="clip11">
  <path d="M -236 666 L 376 666 L 376 -126 L -236 -126 L -236 666 Z M -236 666 "/>
</clipPath>
<clipPath id="clip12">
  <path d="M 0.175781 79.738281 L 139.078125 79.738281 L 139.078125 -1.199219 L 0.175781 -1.199219 L 0.175781 79.738281 Z M 0.175781 79.738281 "/>
</clipPath>
<clipPath id="clip13">
  <path d="M 106.585938 61.671875 L 97.910156 61.671875 L 97.910156 52.992188 L 106.585938 52.992188 L 106.585938 61.671875 Z M 106.585938 61.671875 "/>
</clipPath>
<clipPath id="clip14">
  <path d="M -236 666 L 376 666 L 376 -126 L -236 -126 L -236 666 Z M -236 666 "/>
</clipPath>
<clipPath id="clip15">
  <path d="M 0.175781 79.738281 L 139.078125 79.738281 L 139.078125 -1.199219 L 0.175781 -1.199219 L 0.175781 79.738281 Z M 0.175781 79.738281 "/>
</clipPath>
</defs>
<g id="surface0">
<g clip-path="url(#clip1)" clip-rule="nonzero">
<g clip-path="url(#clip2)" clip-rule="nonzero">
<path style="fill:none;stroke-width:5;stroke-linecap:butt;stroke-linejoin:miter;stroke:rgb(0%,0%,0%);stroke-opacity:1;stroke-miterlimit:4;" d="M 0.00714299 678.331261 L 1248.137109 678.331261 " transform="matrix(0.109373,0,0,-0.109373,0.175,79.738)"/>
</g>
</g>
<g clip-path="url(#clip3)" clip-rule="nonzero">
<g clip-path="url(#clip4)" clip-rule="nonzero">
<g clip-path="url(#clip5)" clip-rule="nonzero">
<path style="fill:none;stroke-width:4;stroke-linecap:butt;stroke-linejoin:miter;stroke:rgb(0%,0%,0%);stroke-opacity:1;stroke-miterlimit:4;" d="M 2620.376487 2064.963759 L 1008.168435 452.755708 " transform="matrix(0.109373,0,0,-0.109373,0.175,79.738)"/>
<path style="fill:none;stroke-width:4;stroke-linecap:butt;stroke-linejoin:miter;stroke:rgb(0%,0%,0%);stroke-opacity:1;stroke-miterlimit:4;" d="M 2641.591161 2043.749086 L 1029.383109 431.541034 " transform="matrix(0.109373,0,0,-0.109373,0.175,79.738)"/>
<path style="fill:none;stroke-width:4;stroke-linecap:butt;stroke-linejoin:miter;stroke:rgb(0%,0%,0%);stroke-opacity:1;stroke-miterlimit:4;" d="M 2662.805834 2022.534412 L 1050.597782 410.32636 " transform="matrix(0.109373,0,0,-0.109373,0.175,79.738)"/>
<path style="fill:none;stroke-width:4;stroke-linecap:butt;stroke-linejoin:miter;stroke:rgb(0%,0%,0%);stroke-opacity:1;stroke-miterlimit:4;" d="M 2556.732466 2128.60778 L 944.560129 516.399728 " transform="matrix(0.109373,0,0,-0.109373,0.175,79.738)"/>
<path style="fill:none;stroke-width:4;stroke-linecap:butt;stroke-linejoin:miter;stroke:rgb(0%,0%,0%);stroke-opacity:1;stroke-miterlimit:4;" d="M 2577.94714 2107.393107 L 965.739088 495.185055 " transform="matrix(0.109373,0,0,-0.109373,0.175,79.738)"/>
<path style="fill:none;stroke-width:4;stroke-linecap:butt;stroke-linejoin:miter;stroke:rgb(0%,0%,0%);stroke-opacity:1;stroke-miterlimit:4;" d="M 2599.161813 2086.178433 L 986.989476 473.970381 " transform="matrix(0.109373,0,0,-0.109373,0.175,79.738)"/>
<path style="fill:none;stroke-width:4;stroke-linecap:butt;stroke-linejoin:miter;stroke:rgb(0%,0%,0%);stroke-opacity:1;stroke-miterlimit:4;" d="M 2493.088445 2192.251801 L 880.880393 580.043749 " transform="matrix(0.109373,0,0,-0.109373,0.175,79.738)"/>
<path style="fill:none;stroke-width:4;stroke-linecap:butt;stroke-linejoin:miter;stroke:rgb(0%,0%,0%);stroke-opacity:1;stroke-miterlimit:4;" d="M 2514.303119 2171.037128 L 902.095067 558.829076 " transform="matrix(0.109373,0,0,-0.109373,0.175,79.738)"/>
<path style="fill:none;stroke-width:4;stroke-linecap:butt;stroke-linejoin:miter;stroke:rgb(0%,0%,0%);stroke-opacity:1;stroke-miterlimit:4;" d="M 2535.517792 2149.822454 L 923.345455 537.614402 " transform="matrix(0.109373,0,0,-0.109373,0.175,79.738)"/>
<path style="fill:none;stroke-width:4;stroke-linecap:butt;stroke-linejoin:miter;stroke:rgb(0%,0%,0%);stroke-opacity:1;stroke-miterlimit:4;" d="M 2429.444424 2255.895822 L 817.272087 643.68777 " transform="matrix(0.109373,0,0,-0.109373,0.175,79.738)"/>
<path style="fill:none;stroke-width:4;stroke-linecap:butt;stroke-linejoin:miter;stroke:rgb(0%,0%,0%);stroke-opacity:1;stroke-miterlimit:4;" d="M 2450.659098 2234.645434 L 838.486761 622.473097 " transform="matrix(0.109373,0,0,-0.109373,0.175,79.738)"/>
<path style="fill:none;stroke-width:4;stroke-linecap:butt;stroke-linejoin:miter;stroke:rgb(0%,0%,0%);stroke-opacity:1;stroke-miterlimit:4;" d="M 2471.873771 2213.466475 L 859.701435 601.258423 " transform="matrix(0.109373,0,0,-0.109373,0.175,79.738)"/>
<path style="fill:none;stroke-width:4;stroke-linecap:butt;stroke-linejoin:miter;stroke:rgb(0%,0%,0%);stroke-opacity:1;stroke-miterlimit:4;" d="M 2365.836118 2319.504128 L 753.628066 707.331791 " transform="matrix(0.109373,0,0,-0.109373,0.175,79.738)"/>
<path style="fill:none;stroke-width:4;stroke-linecap:butt;stroke-linejoin:miter;stroke:rgb(0%,0%,0%);stroke-opacity:1;stroke-miterlimit:4;" d="M 2387.015077 2298.289454 L 774.84274 686.117118 " transform="matrix(0.109373,0,0,-0.109373,0.175,79.738)"/>
<path style="fill:none;stroke-width:4;stroke-linecap:butt;stroke-linejoin:miter;stroke:rgb(0%,0%,0%);stroke-opacity:1;stroke-miterlimit:4;" d="M 2408.22975 2277.074781 L 796.057414 664.902444 " transform="matrix(0.109373,0,0,-0.109373,0.175,79.738)"/>
<path style="fill:none;stroke-width:4;stroke-linecap:butt;stroke-linejoin:miter;stroke:rgb(0%,0%,0%);stroke-opacity:1;stroke-miterlimit:4;" d="M 753.628066 707.331791 L -858.579985 -904.876261 " transform="matrix(0.109373,0,0,-0.109373,0.175,79.738)"/>
<path style="fill:none;stroke-width:4;stroke-linecap:butt;stroke-linejoin:miter;stroke:rgb(0%,0%,0%);stroke-opacity:1;stroke-miterlimit:4;" d="M 774.84274 686.117118 L -837.365312 -926.090934 " transform="matrix(0.109373,0,0,-0.109373,0.175,79.738)"/>
<path style="fill:none;stroke-width:4;stroke-linecap:butt;stroke-linejoin:miter;stroke:rgb(0%,0%,0%);stroke-opacity:1;stroke-miterlimit:4;" d="M 2344.58573 2340.718802 L 732.413393 728.546465 " transform="matrix(0.109373,0,0,-0.109373,0.175,79.738)"/>
<path style="fill:none;stroke-width:4;stroke-linecap:butt;stroke-linejoin:miter;stroke:rgb(0%,0%,0%);stroke-opacity:1;stroke-miterlimit:4;" d="M 689.984045 770.975812 L -922.224006 -841.23224 " transform="matrix(0.109373,0,0,-0.109373,0.175,79.738)"/>
<path style="fill:none;stroke-width:4;stroke-linecap:butt;stroke-linejoin:miter;stroke:rgb(0%,0%,0%);stroke-opacity:1;stroke-miterlimit:4;" d="M 711.198719 749.761138 L -901.009333 -862.446913 " transform="matrix(0.109373,0,0,-0.109373,0.175,79.738)"/>
<path style="fill:none;stroke-width:4;stroke-linecap:butt;stroke-linejoin:miter;stroke:rgb(0%,0%,0%);stroke-opacity:1;stroke-miterlimit:4;" d="M 732.413393 728.546465 L -879.794659 -883.661587 " transform="matrix(0.109373,0,0,-0.109373,0.175,79.738)"/>
<path style="fill:none;stroke-width:4;stroke-linecap:butt;stroke-linejoin:miter;stroke:rgb(0%,0%,0%);stroke-opacity:1;stroke-miterlimit:4;" d="M 626.340025 834.619833 L -985.868027 -777.588219 " transform="matrix(0.109373,0,0,-0.109373,0.175,79.738)"/>
<path style="fill:none;stroke-width:4;stroke-linecap:butt;stroke-linejoin:miter;stroke:rgb(0%,0%,0%);stroke-opacity:1;stroke-miterlimit:4;" d="M 647.554698 813.405159 L -964.617639 -798.802892 " transform="matrix(0.109373,0,0,-0.109373,0.175,79.738)"/>
<path style="fill:none;stroke-width:4;stroke-linecap:butt;stroke-linejoin:miter;stroke:rgb(0%,0%,0%);stroke-opacity:1;stroke-miterlimit:4;" d="M 668.769372 792.190486 L -943.43868 -820.017566 " transform="matrix(0.109373,0,0,-0.109373,0.175,79.738)"/>
<path style="fill:none;stroke-width:4;stroke-linecap:butt;stroke-linejoin:miter;stroke:rgb(0%,0%,0%);stroke-opacity:1;stroke-miterlimit:4;" d="M 562.696004 898.228139 L -1049.476333 -713.944198 " transform="matrix(0.109373,0,0,-0.109373,0.175,79.738)"/>
<path style="fill:none;stroke-width:4;stroke-linecap:butt;stroke-linejoin:miter;stroke:rgb(0%,0%,0%);stroke-opacity:1;stroke-miterlimit:4;" d="M 583.910677 877.013465 L -1028.26166 -735.158871 " transform="matrix(0.109373,0,0,-0.109373,0.175,79.738)"/>
<path style="fill:none;stroke-width:4;stroke-linecap:butt;stroke-linejoin:miter;stroke:rgb(0%,0%,0%);stroke-opacity:1;stroke-miterlimit:4;" d="M 605.125351 855.798792 L -1007.046986 -756.373545 " transform="matrix(0.109373,0,0,-0.109373,0.175,79.738)"/>
<path style="fill:none;stroke-width:4;stroke-linecap:butt;stroke-linejoin:miter;stroke:rgb(0%,0%,0%);stroke-opacity:1;stroke-miterlimit:4;" d="M 499.051983 961.87216 L -1113.120354 -650.300177 " transform="matrix(0.109373,0,0,-0.109373,0.175,79.738)"/>
<path style="fill:none;stroke-width:4;stroke-linecap:butt;stroke-linejoin:miter;stroke:rgb(0%,0%,0%);stroke-opacity:1;stroke-miterlimit:4;" d="M 520.266656 940.657486 L -1091.905681 -671.514851 " transform="matrix(0.109373,0,0,-0.109373,0.175,79.738)"/>
<path style="fill:none;stroke-width:4;stroke-linecap:butt;stroke-linejoin:miter;stroke:rgb(0%,0%,0%);stroke-opacity:1;stroke-miterlimit:4;" d="M 541.48133 919.442813 L -1070.691007 -692.729524 " transform="matrix(0.109373,0,0,-0.109373,0.175,79.738)"/>
<path style="fill:none;stroke-width:4;stroke-linecap:butt;stroke-linejoin:miter;stroke:rgb(0%,0%,0%);stroke-opacity:1;stroke-miterlimit:4;" d="M 435.443677 1025.516181 L -1176.764375 -586.656156 " transform="matrix(0.109373,0,0,-0.109373,0.175,79.738)"/>
<path style="fill:none;stroke-width:4;stroke-linecap:butt;stroke-linejoin:miter;stroke:rgb(0%,0%,0%);stroke-opacity:1;stroke-miterlimit:4;" d="M 456.65835 1004.301507 L -1155.549701 -607.87083 " transform="matrix(0.109373,0,0,-0.109373,0.175,79.738)"/>
<path style="fill:none;stroke-width:4;stroke-linecap:butt;stroke-linejoin:miter;stroke:rgb(0%,0%,0%);stroke-opacity:1;stroke-miterlimit:4;" d="M 477.837309 983.086834 L -1134.335028 -629.085503 " transform="matrix(0.109373,0,0,-0.109373,0.175,79.738)"/>
<path style="fill:none;stroke-width:4;stroke-linecap:butt;stroke-linejoin:miter;stroke:rgb(0%,0%,0%);stroke-opacity:1;stroke-miterlimit:4;" d="M 371.799656 1089.160202 L -1240.408396 -523.04785 " transform="matrix(0.109373,0,0,-0.109373,0.175,79.738)"/>
<path style="fill:none;stroke-width:4;stroke-linecap:butt;stroke-linejoin:miter;stroke:rgb(0%,0%,0%);stroke-opacity:1;stroke-miterlimit:4;" d="M 392.978614 1067.945528 L -1219.193722 -544.262524 " transform="matrix(0.109373,0,0,-0.109373,0.175,79.738)"/>
<path style="fill:none;stroke-width:4;stroke-linecap:butt;stroke-linejoin:miter;stroke:rgb(0%,0%,0%);stroke-opacity:1;stroke-miterlimit:4;" d="M 414.229003 1046.730855 L -1197.979049 -565.477197 " transform="matrix(0.109373,0,0,-0.109373,0.175,79.738)"/>
<path style="fill:none;stroke-width:4;stroke-linecap:butt;stroke-linejoin:miter;stroke:rgb(0%,0%,0%);stroke-opacity:1;stroke-miterlimit:4;" d="M 308.155635 1152.804223 L -1304.052417 -459.403829 " transform="matrix(0.109373,0,0,-0.109373,0.175,79.738)"/>
<path style="fill:none;stroke-width:4;stroke-linecap:butt;stroke-linejoin:miter;stroke:rgb(0%,0%,0%);stroke-opacity:1;stroke-miterlimit:4;" d="M 329.370308 1131.589549 L -1282.837743 -480.618503 " transform="matrix(0.109373,0,0,-0.109373,0.175,79.738)"/>
<path style="fill:none;stroke-width:4;stroke-linecap:butt;stroke-linejoin:miter;stroke:rgb(0%,0%,0%);stroke-opacity:1;stroke-miterlimit:4;" d="M 350.584982 1110.374875 L -1261.62307 -501.833176 " transform="matrix(0.109373,0,0,-0.109373,0.175,79.738)"/>
</g>
</g>
</g>
<g clip-path="url(#clip6)" clip-rule="nonzero">
<g clip-path="url(#clip7)" clip-rule="nonzero">
<path style="fill:none;stroke-width:5;stroke-linecap:butt;stroke-linejoin:miter;stroke:rgb(0%,0%,0%);stroke-opacity:1;stroke-miterlimit:4;" d="M 328.263145 619.865906 C 328.263145 608.794275 337.227595 599.86554 348.263511 599.86554 C 359.299427 599.86554 368.263877 608.794275 368.263877 619.865906 C 368.263877 630.901822 359.299427 639.866272 348.263511 639.866272 L 348.263511 678.331261 " transform="matrix(0.109373,0,0,-0.109373,0.175,79.738)"/>
<path style="fill:none;stroke-width:5;stroke-linecap:butt;stroke-linejoin:miter;stroke:rgb(0%,0%,0%);stroke-opacity:1;stroke-miterlimit:4;" d="M 327.155982 149.357303 C 327.155982 160.393219 336.120432 169.357668 347.156348 169.357668 C 358.227979 169.357668 367.156714 160.393219 367.156714 149.357303 C 367.156714 138.321386 358.227979 129.356937 347.156348 129.356937 L 347.156348 104.927919 " transform="matrix(0.109373,0,0,-0.109373,0.175,79.738)"/>
<path style="fill:none;stroke-width:3.8;stroke-linecap:butt;stroke-linejoin:miter;stroke:rgb(0%,0%,0%);stroke-opacity:1;stroke-miterlimit:4;" d="M 342.941985 168.607655 L 342.941985 600.36555 " transform="matrix(0.109373,0,0,-0.109373,0.175,79.738)"/>
<path style="fill:none;stroke-width:3.8;stroke-linecap:butt;stroke-linejoin:miter;stroke:rgb(0%,0%,0%);stroke-opacity:1;stroke-miterlimit:4;" d="M 351.156421 600.36555 L 351.156421 168.607655 " transform="matrix(0.109373,0,0,-0.109373,0.175,79.738)"/>
</g>
</g>
<g clip-path="url(#clip8)" clip-rule="nonzero">
<g clip-path="url(#clip9)" clip-rule="nonzero">
<g clip-path="url(#clip10)" clip-rule="nonzero">
<path style="fill:none;stroke-width:4;stroke-linecap:butt;stroke-linejoin:miter;stroke:rgb(0%,0%,0%);stroke-opacity:1;stroke-miterlimit:4;" d="M 1934.256798 1609.276855 L 322.084461 -2.931196 " transform="matrix(0.109373,0,0,-0.109373,0.175,79.738)"/>
<path style="fill:none;stroke-width:4;stroke-linecap:butt;stroke-linejoin:miter;stroke:rgb(0%,0%,0%);stroke-opacity:1;stroke-miterlimit:4;" d="M 1948.399914 1595.13374 L 336.227577 -17.074312 " transform="matrix(0.109373,0,0,-0.109373,0.175,79.738)"/>
<path style="fill:none;stroke-width:4;stroke-linecap:butt;stroke-linejoin:miter;stroke:rgb(0%,0%,0%);stroke-opacity:1;stroke-miterlimit:4;" d="M 1962.543029 1580.990624 L 350.370692 -31.217428 " transform="matrix(0.109373,0,0,-0.109373,0.175,79.738)"/>
<path style="fill:none;stroke-width:4;stroke-linecap:butt;stroke-linejoin:miter;stroke:rgb(0%,0%,0%);stroke-opacity:1;stroke-miterlimit:4;" d="M 1891.863165 1651.706203 L 279.655114 39.498151 " transform="matrix(0.109373,0,0,-0.109373,0.175,79.738)"/>
<path style="fill:none;stroke-width:4;stroke-linecap:butt;stroke-linejoin:miter;stroke:rgb(0%,0%,0%);stroke-opacity:1;stroke-miterlimit:4;" d="M 1906.006281 1637.563087 L 293.798229 25.355035 " transform="matrix(0.109373,0,0,-0.109373,0.175,79.738)"/>
<path style="fill:none;stroke-width:4;stroke-linecap:butt;stroke-linejoin:miter;stroke:rgb(0%,0%,0%);stroke-opacity:1;stroke-miterlimit:4;" d="M 1920.113682 1623.419971 L 307.941345 11.211919 " transform="matrix(0.109373,0,0,-0.109373,0.175,79.738)"/>
<path style="fill:none;stroke-width:4;stroke-linecap:butt;stroke-linejoin:miter;stroke:rgb(0%,0%,0%);stroke-opacity:1;stroke-miterlimit:4;" d="M 1849.398103 1694.13555 L 237.225766 81.927498 " transform="matrix(0.109373,0,0,-0.109373,0.175,79.738)"/>
<path style="fill:none;stroke-width:4;stroke-linecap:butt;stroke-linejoin:miter;stroke:rgb(0%,0%,0%);stroke-opacity:1;stroke-miterlimit:4;" d="M 1863.576934 1679.956719 L 251.368882 67.784382 " transform="matrix(0.109373,0,0,-0.109373,0.175,79.738)"/>
<path style="fill:none;stroke-width:4;stroke-linecap:butt;stroke-linejoin:miter;stroke:rgb(0%,0%,0%);stroke-opacity:1;stroke-miterlimit:4;" d="M 1877.684335 1665.813603 L 265.511998 53.641267 " transform="matrix(0.109373,0,0,-0.109373,0.175,79.738)"/>
</g>
</g>
</g>
<g clip-path="url(#clip11)" clip-rule="nonzero">
<g clip-path="url(#clip12)" clip-rule="nonzero">
<g clip-path="url(#clip13)" clip-rule="nonzero">
<path style="fill:none;stroke-width:4;stroke-linecap:butt;stroke-linejoin:miter;stroke:rgb(0%,0%,0%);stroke-opacity:1;stroke-miterlimit:4;" d="M 2188.832882 1354.700772 L 576.62483 -257.471565 " transform="matrix(0.109373,0,0,-0.109373,0.175,79.738)"/>
<path style="fill:none;stroke-width:4;stroke-linecap:butt;stroke-linejoin:miter;stroke:rgb(0%,0%,0%);stroke-opacity:1;stroke-miterlimit:4;" d="M 2202.975997 1340.557656 L 590.767945 -271.614681 " transform="matrix(0.109373,0,0,-0.109373,0.175,79.738)"/>
<path style="fill:none;stroke-width:4;stroke-linecap:butt;stroke-linejoin:miter;stroke:rgb(0%,0%,0%);stroke-opacity:1;stroke-miterlimit:4;" d="M 2217.119113 1326.41454 L 604.911061 -285.757797 " transform="matrix(0.109373,0,0,-0.109373,0.175,79.738)"/>
<path style="fill:none;stroke-width:4;stroke-linecap:butt;stroke-linejoin:miter;stroke:rgb(0%,0%,0%);stroke-opacity:1;stroke-miterlimit:4;" d="M 2146.403534 1397.130119 L 534.195482 -215.042218 " transform="matrix(0.109373,0,0,-0.109373,0.175,79.738)"/>
<path style="fill:none;stroke-width:4;stroke-linecap:butt;stroke-linejoin:miter;stroke:rgb(0%,0%,0%);stroke-opacity:1;stroke-miterlimit:4;" d="M 2160.54665 1382.987003 L 548.338598 -229.185334 " transform="matrix(0.109373,0,0,-0.109373,0.175,79.738)"/>
<path style="fill:none;stroke-width:4;stroke-linecap:butt;stroke-linejoin:miter;stroke:rgb(0%,0%,0%);stroke-opacity:1;stroke-miterlimit:4;" d="M 2174.689766 1368.843887 L 562.481714 -243.328449 " transform="matrix(0.109373,0,0,-0.109373,0.175,79.738)"/>
<path style="fill:none;stroke-width:4;stroke-linecap:butt;stroke-linejoin:miter;stroke:rgb(0%,0%,0%);stroke-opacity:1;stroke-miterlimit:4;" d="M 2103.974187 1439.559466 L 491.766135 -172.612871 " transform="matrix(0.109373,0,0,-0.109373,0.175,79.738)"/>
<path style="fill:none;stroke-width:4;stroke-linecap:butt;stroke-linejoin:miter;stroke:rgb(0%,0%,0%);stroke-opacity:1;stroke-miterlimit:4;" d="M 2118.117303 1425.41635 L 505.909251 -186.755986 " transform="matrix(0.109373,0,0,-0.109373,0.175,79.738)"/>
<path style="fill:none;stroke-width:4;stroke-linecap:butt;stroke-linejoin:miter;stroke:rgb(0%,0%,0%);stroke-opacity:1;stroke-miterlimit:4;" d="M 2132.260418 1411.273235 L 520.052367 -200.899102 " transform="matrix(0.109373,0,0,-0.109373,0.175,79.738)"/>
<path style="fill:none;stroke-width:4;stroke-linecap:butt;stroke-linejoin:miter;stroke:rgb(0%,0%,0%);stroke-opacity:1;stroke-miterlimit:4;" d="M 2061.54484 1481.988814 L 449.372503 -130.219238 " transform="matrix(0.109373,0,0,-0.109373,0.175,79.738)"/>
<path style="fill:none;stroke-width:4;stroke-linecap:butt;stroke-linejoin:miter;stroke:rgb(0%,0%,0%);stroke-opacity:1;stroke-miterlimit:4;" d="M 2075.687955 1467.845698 L 463.479904 -144.362354 " transform="matrix(0.109373,0,0,-0.109373,0.175,79.738)"/>
<path style="fill:none;stroke-width:4;stroke-linecap:butt;stroke-linejoin:miter;stroke:rgb(0%,0%,0%);stroke-opacity:1;stroke-miterlimit:4;" d="M 2089.831071 1453.702582 L 477.658734 -158.469755 " transform="matrix(0.109373,0,0,-0.109373,0.175,79.738)"/>
</g>
</g>
</g>
<g clip-path="url(#clip14)" clip-rule="nonzero">
<g clip-path="url(#clip15)" clip-rule="nonzero">
<path style="fill:none;stroke-width:5;stroke-linecap:butt;stroke-linejoin:miter;stroke:rgb(0%,0%,0%);stroke-opacity:1;stroke-miterlimit:4;" d="M 307.584196 25.60504 L 386.94279 25.60504 L 386.94279 104.927919 L 307.584196 104.927919 L 307.584196 25.60504 Z M 307.584196 25.60504 " transform="matrix(0.109373,0,0,-0.109373,0.175,79.738)"/>
<path style="fill:none;stroke-width:5;stroke-linecap:butt;stroke-linejoin:miter;stroke:rgb(0%,0%,0%);stroke-opacity:1;stroke-miterlimit:4;" d="M 893.594911 165.17902 L 972.91779 165.17902 L 972.91779 244.537614 L 893.594911 244.537614 L 893.594911 165.17902 Z M 893.594911 165.17902 " transform="matrix(0.109373,0,0,-0.109373,0.175,79.738)"/>
<path style="fill:none;stroke-width:5;stroke-linecap:butt;stroke-linejoin:miter;stroke:rgb(0%,0%,0%);stroke-opacity:1;stroke-miterlimit:4;" d="M 914.91673 619.865906 C 914.91673 608.794275 923.88118 599.86554 934.917096 599.86554 C 945.988727 599.86554 954.917461 608.794275 954.917461 619.865906 C 954.917461 630.901822 945.988727 639.866272 934.917096 639.866272 L 934.917096 678.331261 " transform="matrix(0.109373,0,0,-0.109373,0.175,79.738)"/>
<path style="fill:none;stroke-width:5;stroke-linecap:butt;stroke-linejoin:miter;stroke:rgb(0%,0%,0%);stroke-opacity:1;stroke-miterlimit:4;" d="M 913.845282 289.359863 C 913.845282 300.395779 922.809731 309.360228 933.845647 309.360228 C 944.881564 309.360228 953.810298 300.395779 953.810298 289.359863 C 953.810298 278.323946 944.881564 269.359497 933.845647 269.359497 L 933.845647 244.930479 " transform="matrix(0.109373,0,0,-0.109373,0.175,79.738)"/>
<path style="fill:none;stroke-width:3.8;stroke-linecap:butt;stroke-linejoin:miter;stroke:rgb(0%,0%,0%);stroke-opacity:1;stroke-miterlimit:4;" d="M 929.59557 308.610215 L 929.59557 600.36555 " transform="matrix(0.109373,0,0,-0.109373,0.175,79.738)"/>
<path style="fill:none;stroke-width:3.8;stroke-linecap:butt;stroke-linejoin:miter;stroke:rgb(0%,0%,0%);stroke-opacity:1;stroke-miterlimit:4;" d="M 937.845721 600.36555 L 937.845721 308.610215 " transform="matrix(0.109373,0,0,-0.109373,0.175,79.738)"/>
<path style="fill:none;stroke-width:3.8;stroke-linecap:butt;stroke-linejoin:miter;stroke:rgb(0%,0%,0%);stroke-opacity:1;stroke-dasharray:20,10;stroke-miterlimit:4;" d="M 972.91779 148.928723 L 972.91779 119.856763 L 893.594911 119.856763 L 893.594911 148.928723 " transform="matrix(0.109373,0,0,-0.109373,0.175,79.738)"/>
<path style="fill:none;stroke-width:3.8;stroke-linecap:butt;stroke-linejoin:miter;stroke:rgb(0%,0%,0%);stroke-opacity:1;stroke-dasharray:20,10;stroke-miterlimit:4;" d="M 972.91779 117.356717 L 972.91779 88.284757 L 893.594911 88.284757 L 893.594911 117.356717 " transform="matrix(0.109373,0,0,-0.109373,0.175,79.738)"/>
<path style="fill:none;stroke-width:3.8;stroke-linecap:butt;stroke-linejoin:miter;stroke:rgb(0%,0%,0%);stroke-opacity:1;stroke-dasharray:20,10;stroke-miterlimit:4;" d="M 972.91779 86.106146 L 972.91779 57.034186 L 893.594911 57.034186 L 893.594911 86.106146 " transform="matrix(0.109373,0,0,-0.109373,0.175,79.738)"/>
<path style="fill:none;stroke-width:3.8;stroke-linecap:butt;stroke-linejoin:miter;stroke:rgb(0%,0%,0%);stroke-opacity:1;stroke-dasharray:20,10;stroke-miterlimit:4;" d="M 972.91779 54.855575 L 972.91779 25.783614 L 893.594911 25.783614 L 893.594911 54.855575 " transform="matrix(0.109373,0,0,-0.109373,0.175,79.738)"/>
<path style="fill:none;stroke-width:5;stroke-linecap:butt;stroke-linejoin:round;stroke:rgb(0%,0%,0%);stroke-opacity:1;stroke-miterlimit:4;" d="M 566.124638 201.215394 C 573.481915 209.42983 605.018206 193.000958 636.554497 164.536152 C 668.162218 136.214205 687.734004 106.463661 680.376727 98.35637 L 566.124638 201.215394 Z M 566.124638 201.215394 " transform="matrix(0.109373,0,0,-0.109373,0.175,79.738)"/>
<path style="fill:none;stroke-width:5;stroke-linecap:butt;stroke-linejoin:round;stroke:rgb(0%,0%,0%);stroke-opacity:1;stroke-miterlimit:4;" d="M 673.840893 229.287336 L 815.593485 386.397351 C 817.450662 388.468818 820.629292 388.611677 822.665043 386.790216 L 835.200987 375.46858 C 837.272453 373.647118 837.415313 370.468489 835.558136 368.432737 L 693.841259 211.251291 " transform="matrix(0.109373,0,0,-0.109373,0.175,79.738)"/>
<path style="fill:none;stroke-width:5;stroke-linecap:butt;stroke-linejoin:round;stroke:rgb(0%,0%,0%);stroke-opacity:1;stroke-miterlimit:4;" d="M 650.626183 151.00019 L 695.341286 200.25109 C 697.198463 202.286842 697.019888 205.465471 694.984137 207.286933 L 670.126539 229.75163 C 668.090788 231.608807 664.912158 231.430232 663.054982 229.39448 L 618.304163 180.07215 " transform="matrix(0.109373,0,0,-0.109373,0.175,79.738)"/>
<path style="fill:none;stroke-width:5;stroke-linecap:butt;stroke-linejoin:round;stroke:rgb(0%,0%,0%);stroke-opacity:1;stroke-miterlimit:4;" d="M 637.66166 225.394407 L 649.51902 214.751355 L 639.661697 203.751154 L 627.768622 214.429921 L 637.66166 225.394407 Z M 637.66166 225.394407 " transform="matrix(0.109373,0,0,-0.109373,0.175,79.738)"/>
<path style="fill:none;stroke-width:5;stroke-linecap:butt;stroke-linejoin:round;stroke:rgb(0%,0%,0%);stroke-opacity:1;stroke-miterlimit:4;" d="M 566.231783 255.609245 L 616.589846 210.251273 C 618.661313 208.429811 621.804227 208.572671 623.661404 210.644137 L 641.018864 229.930204 C 642.876041 231.965956 642.697466 235.144586 640.661715 237.001762 L 590.267936 282.32402 " transform="matrix(0.109373,0,0,-0.109373,0.175,79.738)"/>
<path style="fill:none;stroke-width:5;stroke-linecap:butt;stroke-linejoin:round;stroke:rgb(0%,0%,0%);stroke-opacity:1;stroke-miterlimit:4;" d="M 667.876498 183.715074 C 663.340701 178.714982 655.519129 178.286403 650.411893 182.89363 C 645.340372 187.429427 644.947508 195.250999 649.51902 200.32252 C 654.090532 205.394041 661.876389 205.786906 666.94791 201.179679 C 672.055146 196.643881 672.483725 188.82231 667.876498 183.715074 Z M 667.876498 183.715074 " transform="matrix(0.109373,0,0,-0.109373,0.175,79.738)"/>
<path style="fill:none;stroke-width:5;stroke-linecap:butt;stroke-linejoin:round;stroke:rgb(0%,0%,0%);stroke-opacity:1;stroke-miterlimit:4;" d="M 821.879314 387.468799 C 821.879314 387.468799 799.986057 408.647758 887.987666 460.862999 C 900.773614 468.470281 916.202468 477.72045 924.309759 490.756402 C 930.381298 500.399436 926.988379 516.078294 942.881527 516.864023 C 955.203181 517.542606 960.917571 510.149614 961.453295 500.149431 C 962.096164 487.613488 960.274702 476.363282 954.560312 464.934502 C 948.560202 453.077142 939.774327 442.64838 930.309869 433.362496 C 923.702605 426.933807 916.595332 420.969412 909.27377 415.362167 C 895.380658 404.719115 880.987538 393.326049 866.308698 383.683016 C 858.058547 378.254345 841.451101 368.861316 831.165198 379.111504 " transform="matrix(0.109373,0,0,-0.109373,0.175,79.738)"/>
<path style="fill:none;stroke-width:5;stroke-linecap:butt;stroke-linejoin:round;stroke:rgb(0%,0%,0%);stroke-opacity:1;stroke-miterlimit:4;" d="M 824.272215 386.147347 C 824.272215 386.147347 829.522311 409.469202 863.665793 422.469439 C 863.665793 422.469439 877.523189 427.89811 882.88043 438.826881 C 888.237671 449.719938 882.809 406.183427 834.700977 378.325775 " transform="matrix(0.109373,0,0,-0.109373,0.175,79.738)"/>
<path style=" stroke:none;fill-rule:nonzero;fill:rgb(100%,100%,100%);fill-opacity:1;" d="M 100.425781 77.835938 L 103.476563 77.835938 L 103.476563 65.636719 L 100.425781 65.636719 L 100.425781 77.835938 Z M 100.425781 77.835938 "/>
<path style="fill:none;stroke-width:3.8;stroke-linecap:butt;stroke-linejoin:miter;stroke:rgb(0%,0%,0%);stroke-opacity:1;stroke-miterlimit:4;" d="M 933.381353 116.249554 L 933.381353 -0.00257148 " transform="matrix(0.109373,0,0,-0.109373,0.175,79.738)"/>
<path style=" stroke:none;fill-rule:nonzero;fill:rgb(0%,0%,0%);fill-opacity:1;" d="M 103.152344 67.640625 L 102.246094 64.261719 L 101.34375 67.640625 L 103.152344 67.640625 "/>
</g>
</g>
</g>
</svg>
