<?xml version="1.0" encoding="UTF-8"?>
<svg xmlns="http://www.w3.org/2000/svg" xmlns:xlink="http://www.w3.org/1999/xlink" width="171.47302994931883pt" height="171.47302994931883pt" viewBox="0 0 99 99" version="1.1">
<defs>
<clipPath id="clip1">
  <path d="M -256 667 L 356 667 L 356 -125 L -256 -125 L -256 667 Z M -256 667 "/>
</clipPath>
<clipPath id="clip2">
  <path d="M 0.0195313 99.019531 L 99.234375 99.019531 L 99.234375 -0.199219 L 0.0195313 -0.199219 L 0.0195313 99.019531 Z M 0.0195313 99.019531 "/>
</clipPath>
</defs>
<g id="surface0">
<g clip-path="url(#clip1)" clip-rule="nonzero">
<g clip-path="url(#clip2)" clip-rule="nonzero">
<path style=" stroke:none;fill-rule:nonzero;fill:rgb(13.730068%,12.159915%,12.54902%);fill-opacity:1;" d="M 49.496094 1.207031 C 22.757813 1.207031 1.085938 22.863281 1.085938 49.582031 C 1.085938 76.296875 22.757813 97.953125 49.496094 97.953125 C 76.234375 97.953125 97.90625 76.296875 97.90625 49.582031 C 97.90625 22.863281 76.234375 1.207031 49.496094 1.207031 L 49.496094 1.207031 Z M 49.492188 3.34375 C 56.003906 3.34375 62.203125 4.699219 67.828125 7.132813 L 56.101563 34.496094 C 53.039063 33.359375 50.007813 33.339844 49.839844 33.339844 L 49.839844 36.539063 C 49.871094 36.539063 52.386719 36.5625 54.839844 37.441406 L 50.066406 48.582031 C 49.894531 48.488281 49.703125 48.417969 49.492188 48.417969 C 49.277344 48.417969 49.085938 48.488281 48.914063 48.582031 L 37.671875 22.355469 C 42.535156 20.15625 49.625 19.785156 49.710938 19.78125 L 49.558594 16.585938 C 49.191406 16.601563 41.886719 16.976563 36.414063 19.417969 L 31.148438 7.132813 C 36.777344 4.699219 42.976563 3.34375 49.492188 3.34375 L 49.492188 3.34375 Z M 19.699219 49.367188 L 16.5 49.515625 C 16.515625 49.886719 16.894531 57.191406 19.335938 62.660156 L 7.050781 67.925781 C 4.613281 62.300781 3.257813 56.097656 3.257813 49.585938 C 3.257813 43.074219 4.613281 36.875 7.046875 31.246094 L 34.414063 42.976563 C 33.277344 46.035156 33.257813 49.066406 33.257813 49.234375 L 36.457031 49.238281 C 36.457031 49.203125 36.480469 46.6875 37.355469 44.234375 L 48.5 49.011719 C 48.402344 49.183594 48.332031 49.375 48.332031 49.585938 C 48.332031 49.800781 48.402344 49.988281 48.5 50.164063 L 22.269531 61.402344 C 20.070313 56.539063 19.703125 49.453125 19.699219 49.367188 L 19.699219 49.367188 Z M 49.5 95.820313 C 42.988281 95.820313 36.789063 94.460938 31.164063 92.027344 L 42.890625 64.664063 C 45.953125 65.800781 48.984375 65.820313 49.152344 65.820313 L 49.152344 62.621094 C 49.121094 62.621094 46.605469 62.597656 44.152344 61.722656 L 48.925781 50.578125 C 49.097656 50.675781 49.289063 50.742188 49.503906 50.742188 C 49.714844 50.742188 49.90625 50.675781 50.078125 50.578125 L 61.320313 76.808594 C 56.457031 79.007813 49.367188 79.375 49.28125 79.378906 L 49.433594 82.578125 C 49.800781 82.558594 57.105469 82.183594 62.578125 79.742188 L 67.84375 92.027344 C 62.214844 94.460938 56.015625 95.820313 49.5 95.820313 L 49.5 95.820313 Z M 64.578125 56.183594 C 65.714844 53.125 65.734375 50.09375 65.734375 49.925781 L 62.535156 49.921875 C 62.535156 49.957031 62.511719 52.472656 61.636719 54.925781 L 50.492188 50.148438 C 50.589844 49.976563 50.660156 49.789063 50.660156 49.574219 C 50.660156 49.359375 50.589844 49.171875 50.492188 48.996094 L 76.722656 37.757813 C 78.921875 42.621094 79.289063 49.707031 79.292969 49.792969 L 82.492188 49.644531 C 82.476563 49.273438 82.097656 41.96875 79.65625 36.5 L 91.941406 31.234375 C 94.378906 36.859375 95.734375 43.0625 95.734375 49.574219 C 95.734375 56.085938 94.378906 62.285156 91.945313 67.914063 L 64.578125 56.183594 L 64.578125 56.183594 "/>
<path style="fill:none;stroke-width:10;stroke-linecap:butt;stroke-linejoin:miter;stroke:rgb(13.730068%,12.159915%,12.54902%);stroke-opacity:1;stroke-miterlimit:4;" d="M 463.777417 916.829627 C 213.149107 916.829627 10.010194 713.837173 10.010194 463.391937 C 10.010194 212.983315 213.149107 9.990861 463.777417 9.990861 C 714.405727 9.990861 917.544641 212.983315 917.544641 463.391937 C 917.544641 713.837173 714.405727 916.829627 463.777417 916.829627 L 463.777417 916.829627 Z M 463.740802 896.801331 C 524.777675 896.801331 582.885363 884.095995 635.610676 861.284974 L 525.693045 604.798296 C 496.987041 615.453203 468.573956 615.636277 466.99952 615.636277 L 466.99952 585.648756 C 467.292438 585.648756 490.87237 585.429067 513.866464 577.190737 L 469.123178 472.765325 C 467.512127 473.644081 465.718002 474.303147 463.740802 474.303147 C 461.726988 474.303147 459.932863 473.644081 458.321812 472.765325 L 352.944416 718.597097 C 398.529843 739.211229 464.985706 742.689635 465.791231 742.72625 L 464.363254 772.677157 C 460.921463 772.530698 392.451786 769.015677 341.15445 746.131427 L 291.797699 861.284974 C 344.559626 884.095995 402.667315 896.801331 463.740802 896.801331 L 463.740802 896.801331 Z M 184.479718 465.405751 L 154.492197 464.014388 C 154.638656 460.535982 158.190292 392.066305 181.074542 340.805584 L 65.920994 291.448833 C 43.073358 344.174146 30.368023 402.318449 30.368023 463.355322 C 30.368023 524.392194 43.073358 582.499883 65.884379 635.26181 L 322.407672 525.307564 C 311.752765 496.638175 311.569691 468.22509 311.569691 466.650654 L 341.557213 466.614039 C 341.557213 466.943572 341.776902 490.523504 349.978617 513.517599 L 454.440643 468.737697 C 453.525273 467.126646 452.866207 465.332521 452.866207 463.355322 C 452.866207 461.341508 453.525273 459.583997 454.440643 457.936331 L 208.572257 352.59555 C 187.958124 398.180977 184.516333 464.600225 184.479718 465.405751 L 184.479718 465.405751 Z M 463.814032 29.982542 C 402.777159 29.982542 344.669471 42.724493 291.944158 65.535513 L 401.861789 322.022191 C 430.567793 311.367285 458.980878 311.184211 460.555315 311.184211 L 460.555315 341.171732 C 460.262396 341.171732 436.682465 341.391421 413.68837 349.593136 L 458.431656 454.055162 C 460.042708 453.139792 461.836833 452.517341 463.850647 452.517341 C 465.827846 452.517341 467.621971 453.139792 469.233022 454.055162 L 574.610419 208.186776 C 529.024992 187.572644 462.569129 184.130853 461.763603 184.094238 L 463.19158 154.106716 C 466.633372 154.28979 535.103049 157.804811 586.400384 180.689061 L 635.757135 65.535513 C 582.995208 42.724493 524.887519 29.982542 463.814032 29.982542 L 463.814032 29.982542 Z M 605.147162 401.512924 C 615.802069 430.182312 615.985143 458.595398 615.985143 460.169834 L 585.997622 460.206449 C 585.997622 459.876916 585.777933 436.296984 577.576217 413.302889 L 473.114191 458.08279 C 474.029561 459.693842 474.688628 461.451352 474.688628 463.465166 C 474.688628 465.47898 474.029561 467.236491 473.114191 468.884157 L 718.982577 574.224938 C 739.59671 528.639511 743.038501 462.220263 743.075116 461.414737 L 773.062638 462.8061 C 772.916178 466.284506 769.364543 534.754183 746.480292 586.014904 L 861.63384 635.371655 C 884.481476 582.646342 897.186812 524.502039 897.186812 463.465166 C 897.186812 402.428294 884.481476 344.320605 861.670455 291.558677 L 605.147162 401.512924 L 605.147162 401.512924 Z M 605.147162 401.512924 " transform="matrix(0.106685,0,0,-0.106685,0.018,99.019)"/>
</g>
</g>
</g>
</svg>
