<?xml version="1.0" encoding="UTF-8"?>
<svg xmlns="http://www.w3.org/2000/svg" xmlns:xlink="http://www.w3.org/1999/xlink" width="147pt" height="134pt" viewBox="0 0 106 97" version="1.1">
<defs>
<clipPath id="clip1">
  <path d="M -252 666 L 360 666 L 360 -126 L -252 -126 L -252 666 Z M -252 666 "/>
</clipPath>
<clipPath id="clip2">
  <path d="M -0.234375 96.730469 L 107.488281 96.730469 L 107.488281 -1.199219 L -0.234375 -1.199219 L -0.234375 96.730469 Z M -0.234375 96.730469 "/>
</clipPath>
<clipPath id="clip3">
  <path d="M -252 666 L 360 666 L 360 -126 L -252 -126 L -252 666 Z M -252 666 "/>
</clipPath>
<clipPath id="clip4">
  <path d="M -0.234375 96.730469 L 107.488281 96.730469 L 107.488281 -1.199219 L -0.234375 -1.199219 L -0.234375 96.730469 Z M -0.234375 96.730469 "/>
</clipPath>
<clipPath id="clip5">
  <path d="M 58.304688 77.285156 L 58.304688 80.550781 C 58.304688 82.351563 59.796875 83.8125 61.640625 83.8125 C 66.878906 83.8125 74.566406 83.8125 79.804688 83.8125 C 83.03125 83.8125 86.257813 83.8125 89.480469 83.8125 C 93.847656 83.8125 97.898438 83.929688 101.28125 87.183594 C 102.417969 88.277344 103.34375 89.605469 103.941406 91.085938 C 104.089844 91.449219 105.121094 95.640625 104.714844 95.640625 C 104.710938 95.640625 98.554688 95.640625 89.238281 95.640625 C 89.238281 95.640625 0.867188 95.640625 0.855469 95.640625 C 0.449219 95.640625 1.480469 91.449219 1.628906 91.085938 C 2.226563 89.605469 3.152344 88.277344 4.289063 87.183594 C 7.671875 83.929688 11.722656 83.8125 16.089844 83.8125 C 19.316406 83.8125 22.539063 83.8125 25.765625 83.8125 C 31.003906 83.8125 36.242188 83.8125 41.480469 83.8125 C 43.324219 83.8125 44.816406 82.351563 44.816406 80.550781 L 44.816406 77.285156 L 44.816406 18.929688 L 44.816406 15.667969 C 44.816406 13.863281 43.324219 12.402344 41.480469 12.402344 C 36.242188 12.402344 31.003906 12.402344 25.765625 12.402344 C 22.539063 12.402344 19.316406 12.402344 16.089844 12.402344 C 11.722656 12.402344 7.671875 12.285156 4.289063 9.035156 C 3.152344 7.9375 2.226563 6.609375 1.628906 5.128906 C 1.480469 4.769531 0.449219 0.574219 0.855469 0.574219 C 0.867188 0.574219 89.238281 0.574219 89.238281 0.574219 C 98.554688 0.574219 104.710938 0.574219 104.714844 0.574219 C 105.121094 0.574219 104.089844 4.769531 103.941406 5.128906 C 103.34375 6.609375 102.417969 7.9375 101.28125 9.035156 C 97.898438 12.285156 93.847656 12.402344 89.480469 12.402344 C 86.257813 12.402344 83.03125 12.402344 79.804688 12.402344 C 74.566406 12.402344 66.878906 12.402344 61.640625 12.402344 C 59.796875 12.402344 58.304688 13.863281 58.304688 15.667969 L 58.304688 18.929688 L 58.304688 77.285156 Z M 58.304688 77.285156 "/>
</clipPath>
</defs>
<g id="surface0">
<g clip-path="url(#clip1)" clip-rule="nonzero">
<g clip-path="url(#clip2)" clip-rule="nonzero">
<path style="fill:none;stroke-width:7.5;stroke-linecap:butt;stroke-linejoin:miter;stroke:rgb(13.730068%,12.159915%,12.54902%);stroke-opacity:1;stroke-miterlimit:4;" d="M 537.994904 178.706208 L 537.994904 148.693755 C 537.994904 132.143825 551.708728 118.717202 568.653558 118.717202 C 616.795543 118.717202 687.446868 118.717202 735.588853 118.717202 C 765.242305 118.717202 794.895758 118.717202 824.51331 118.717202 C 864.649581 118.717202 901.877947 117.6402 932.967402 87.735447 C 943.41432 77.683429 951.922635 65.477408 957.415345 51.871284 C 958.779547 48.532578 968.257164 10.01181 964.523557 10.01181 C 964.487657 10.01181 907.909157 10.01181 822.287506 10.01181 C 822.287506 10.01181 10.120371 10.01181 10.012671 10.01181 C 6.279065 10.01181 15.756681 48.532578 17.120884 51.871284 C 22.613594 65.477408 31.121909 77.683429 41.568827 87.735447 C 72.658282 117.6402 109.886648 118.717202 150.022919 118.717202 C 179.676371 118.717202 209.293923 118.717202 238.947376 118.717202 C 287.089361 118.717202 335.231346 118.717202 383.373331 118.717202 C 400.318161 118.717202 414.031985 132.143825 414.031985 148.693755 L 414.031985 744.993808 C 414.031985 761.579637 400.318161 775.006261 383.373331 775.006261 C 335.231346 775.006261 287.089361 775.006261 238.947376 775.006261 C 209.293923 775.006261 179.676371 775.006261 150.022919 775.006261 C 109.886648 775.006261 72.658282 776.083263 41.568827 805.952116 C 31.121909 816.040033 22.613594 828.246055 17.120884 841.852179 C 15.756681 845.154985 6.279065 883.711653 10.012671 883.711653 C 10.120371 883.711653 822.287506 883.711653 822.287506 883.711653 C 907.909157 883.711653 964.487657 883.711653 964.523557 883.711653 C 968.257164 883.711653 958.779547 845.154985 957.415345 841.852179 C 951.922635 828.246055 943.41432 816.040033 932.967402 805.952116 C 901.877947 776.083263 864.649581 775.006261 824.51331 775.006261 C 794.895758 775.006261 765.242305 775.006261 735.588853 775.006261 C 687.446868 775.006261 616.795543 775.006261 568.653558 775.006261 C 551.708728 775.006261 537.994904 761.579637 537.994904 744.993808 L 537.994904 178.706208 Z M 537.994904 178.706208 " transform="matrix(0.108809,0,0,-0.108809,-0.234,96.73)"/>
</g>
</g>
<g clip-path="url(#clip3)" clip-rule="nonzero">
<g clip-path="url(#clip4)" clip-rule="nonzero">
<g clip-path="url(#clip5)" clip-rule="nonzero">
<path style="fill:none;stroke-width:3.8;stroke-linecap:butt;stroke-linejoin:miter;stroke:rgb(0%,0%,0%);stroke-opacity:1;stroke-miterlimit:4;" d="M -84.835296 810.978125 L 106.655642 1002.504963 " transform="matrix(0.108809,0,0,-0.108809,-0.234,96.73)"/>
<path style="fill:none;stroke-width:3.8;stroke-linecap:butt;stroke-linejoin:miter;stroke:rgb(0%,0%,0%);stroke-opacity:1;stroke-miterlimit:4;" d="M -113.124546 839.267374 L 78.366392 1030.794213 " transform="matrix(0.108809,0,0,-0.108809,-0.234,96.73)"/>
<path style="fill:none;stroke-width:3.8;stroke-linecap:butt;stroke-linejoin:miter;stroke:rgb(0%,0%,0%);stroke-opacity:1;stroke-miterlimit:4;" d="M -141.413796 867.556624 L 50.077142 1059.047563 " transform="matrix(0.108809,0,0,-0.108809,-0.234,96.73)"/>
<path style="fill:none;stroke-width:3.8;stroke-linecap:butt;stroke-linejoin:miter;stroke:rgb(0%,0%,0%);stroke-opacity:1;stroke-miterlimit:4;" d="M -0.00344641 726.146275 L 191.523392 917.637213 " transform="matrix(0.108809,0,0,-0.108809,-0.234,96.73)"/>
<path style="fill:none;stroke-width:3.8;stroke-linecap:butt;stroke-linejoin:miter;stroke:rgb(0%,0%,0%);stroke-opacity:1;stroke-miterlimit:4;" d="M -28.292696 754.435525 L 163.234142 945.926463 " transform="matrix(0.108809,0,0,-0.108809,-0.234,96.73)"/>
<path style="fill:none;stroke-width:3.8;stroke-linecap:butt;stroke-linejoin:miter;stroke:rgb(0%,0%,0%);stroke-opacity:1;stroke-miterlimit:4;" d="M -56.546046 782.688875 L 134.944892 974.215713 " transform="matrix(0.108809,0,0,-0.108809,-0.234,96.73)"/>
<path style="fill:none;stroke-width:3.8;stroke-linecap:butt;stroke-linejoin:miter;stroke:rgb(0%,0%,0%);stroke-opacity:1;stroke-miterlimit:4;" d="M -106.626635 449.787587 L 84.864304 641.278525 " transform="matrix(0.108809,0,0,-0.108809,-0.234,96.73)"/>
<path style="fill:none;stroke-width:3.8;stroke-linecap:butt;stroke-linejoin:miter;stroke:rgb(0%,0%,0%);stroke-opacity:1;stroke-miterlimit:4;" d="M -134.915885 478.076836 L 56.575054 669.567775 " transform="matrix(0.108809,0,0,-0.108809,-0.234,96.73)"/>
<path style="fill:none;stroke-width:3.8;stroke-linecap:butt;stroke-linejoin:miter;stroke:rgb(0%,0%,0%);stroke-opacity:1;stroke-miterlimit:4;" d="M -163.205135 506.330186 L 28.285804 697.857025 " transform="matrix(0.108809,0,0,-0.108809,-0.234,96.73)"/>
<path style="fill:none;stroke-width:3.8;stroke-linecap:butt;stroke-linejoin:miter;stroke:rgb(0%,0%,0%);stroke-opacity:1;stroke-miterlimit:4;" d="M 84.864304 641.278525 L 276.355242 832.805363 " transform="matrix(0.108809,0,0,-0.108809,-0.234,96.73)"/>
<path style="fill:none;stroke-width:3.8;stroke-linecap:butt;stroke-linejoin:miter;stroke:rgb(0%,0%,0%);stroke-opacity:1;stroke-miterlimit:4;" d="M 56.575054 669.567775 L 248.065992 861.058713 " transform="matrix(0.108809,0,0,-0.108809,-0.234,96.73)"/>
<path style="fill:none;stroke-width:3.8;stroke-linecap:butt;stroke-linejoin:miter;stroke:rgb(0%,0%,0%);stroke-opacity:1;stroke-miterlimit:4;" d="M 28.285804 697.857025 L 219.812642 889.347963 " transform="matrix(0.108809,0,0,-0.108809,-0.234,96.73)"/>
<path style="fill:none;stroke-width:3.8;stroke-linecap:butt;stroke-linejoin:miter;stroke:rgb(0%,0%,0%);stroke-opacity:1;stroke-miterlimit:4;" d="M 276.355242 832.805363 L 467.88208 1024.296301 " transform="matrix(0.108809,0,0,-0.108809,-0.234,96.73)"/>
<path style="fill:none;stroke-width:3.8;stroke-linecap:butt;stroke-linejoin:miter;stroke:rgb(0%,0%,0%);stroke-opacity:1;stroke-miterlimit:4;" d="M 248.065992 861.058713 L 439.59283 1052.585551 " transform="matrix(0.108809,0,0,-0.108809,-0.234,96.73)"/>
<path style="fill:none;stroke-width:3.8;stroke-linecap:butt;stroke-linejoin:miter;stroke:rgb(0%,0%,0%);stroke-opacity:1;stroke-miterlimit:4;" d="M -21.794785 364.919837 L 169.732053 556.446675 " transform="matrix(0.108809,0,0,-0.108809,-0.234,96.73)"/>
<path style="fill:none;stroke-width:3.8;stroke-linecap:butt;stroke-linejoin:miter;stroke:rgb(0%,0%,0%);stroke-opacity:1;stroke-miterlimit:4;" d="M -50.084035 393.209087 L 141.442803 584.735925 " transform="matrix(0.108809,0,0,-0.108809,-0.234,96.73)"/>
<path style="fill:none;stroke-width:3.8;stroke-linecap:butt;stroke-linejoin:miter;stroke:rgb(0%,0%,0%);stroke-opacity:1;stroke-miterlimit:4;" d="M -78.373285 421.498337 L 113.153553 612.989275 " transform="matrix(0.108809,0,0,-0.108809,-0.234,96.73)"/>
<path style="fill:none;stroke-width:3.8;stroke-linecap:butt;stroke-linejoin:miter;stroke:rgb(0%,0%,0%);stroke-opacity:1;stroke-miterlimit:4;" d="M 169.732053 556.446675 L 361.222992 747.937613 " transform="matrix(0.108809,0,0,-0.108809,-0.234,96.73)"/>
<path style="fill:none;stroke-width:3.8;stroke-linecap:butt;stroke-linejoin:miter;stroke:rgb(0%,0%,0%);stroke-opacity:1;stroke-miterlimit:4;" d="M 141.442803 584.735925 L 332.933742 776.226863 " transform="matrix(0.108809,0,0,-0.108809,-0.234,96.73)"/>
<path style="fill:none;stroke-width:3.8;stroke-linecap:butt;stroke-linejoin:miter;stroke:rgb(0%,0%,0%);stroke-opacity:1;stroke-miterlimit:4;" d="M 113.153553 612.989275 L 304.644492 804.516113 " transform="matrix(0.108809,0,0,-0.108809,-0.234,96.73)"/>
<path style="fill:none;stroke-width:3.8;stroke-linecap:butt;stroke-linejoin:miter;stroke:rgb(0%,0%,0%);stroke-opacity:1;stroke-miterlimit:4;" d="M 361.222992 747.937613 L 552.71393 939.428551 " transform="matrix(0.108809,0,0,-0.108809,-0.234,96.73)"/>
<path style="fill:none;stroke-width:3.8;stroke-linecap:butt;stroke-linejoin:miter;stroke:rgb(0%,0%,0%);stroke-opacity:1;stroke-miterlimit:4;" d="M 332.933742 776.226863 L 524.42468 967.717801 " transform="matrix(0.108809,0,0,-0.108809,-0.234,96.73)"/>
<path style="fill:none;stroke-width:3.8;stroke-linecap:butt;stroke-linejoin:miter;stroke:rgb(0%,0%,0%);stroke-opacity:1;stroke-miterlimit:4;" d="M 304.644492 804.516113 L 496.13543 996.007051 " transform="matrix(0.108809,0,0,-0.108809,-0.234,96.73)"/>
<path style="fill:none;stroke-width:3.8;stroke-linecap:butt;stroke-linejoin:miter;stroke:rgb(0%,0%,0%);stroke-opacity:1;stroke-miterlimit:4;" d="M -128.453873 88.561148 L 63.072965 280.087987 " transform="matrix(0.108809,0,0,-0.108809,-0.234,96.73)"/>
<path style="fill:none;stroke-width:3.8;stroke-linecap:butt;stroke-linejoin:miter;stroke:rgb(0%,0%,0%);stroke-opacity:1;stroke-miterlimit:4;" d="M -156.743123 116.850398 L 34.783715 308.341337 " transform="matrix(0.108809,0,0,-0.108809,-0.234,96.73)"/>
<path style="fill:none;stroke-width:3.8;stroke-linecap:butt;stroke-linejoin:miter;stroke:rgb(0%,0%,0%);stroke-opacity:1;stroke-miterlimit:4;" d="M -184.996473 145.139648 L 6.494465 336.630587 " transform="matrix(0.108809,0,0,-0.108809,-0.234,96.73)"/>
<path style="fill:none;stroke-width:3.8;stroke-linecap:butt;stroke-linejoin:miter;stroke:rgb(0%,0%,0%);stroke-opacity:1;stroke-miterlimit:4;" d="M 63.072965 280.087987 L 254.563903 471.578925 " transform="matrix(0.108809,0,0,-0.108809,-0.234,96.73)"/>
<path style="fill:none;stroke-width:3.8;stroke-linecap:butt;stroke-linejoin:miter;stroke:rgb(0%,0%,0%);stroke-opacity:1;stroke-miterlimit:4;" d="M 34.783715 308.341337 L 226.274653 499.868175 " transform="matrix(0.108809,0,0,-0.108809,-0.234,96.73)"/>
<path style="fill:none;stroke-width:3.8;stroke-linecap:butt;stroke-linejoin:miter;stroke:rgb(0%,0%,0%);stroke-opacity:1;stroke-miterlimit:4;" d="M 6.494465 336.630587 L 197.985403 528.157425 " transform="matrix(0.108809,0,0,-0.108809,-0.234,96.73)"/>
<path style="fill:none;stroke-width:3.8;stroke-linecap:butt;stroke-linejoin:miter;stroke:rgb(0%,0%,0%);stroke-opacity:1;stroke-miterlimit:4;" d="M 254.563903 471.578925 L 446.054842 663.069863 " transform="matrix(0.108809,0,0,-0.108809,-0.234,96.73)"/>
<path style="fill:none;stroke-width:3.8;stroke-linecap:butt;stroke-linejoin:miter;stroke:rgb(0%,0%,0%);stroke-opacity:1;stroke-miterlimit:4;" d="M 226.274653 499.868175 L 417.765592 691.359113 " transform="matrix(0.108809,0,0,-0.108809,-0.234,96.73)"/>
<path style="fill:none;stroke-width:3.8;stroke-linecap:butt;stroke-linejoin:miter;stroke:rgb(0%,0%,0%);stroke-opacity:1;stroke-miterlimit:4;" d="M 197.985403 528.157425 L 389.512242 719.648363 " transform="matrix(0.108809,0,0,-0.108809,-0.234,96.73)"/>
<path style="fill:none;stroke-width:3.8;stroke-linecap:butt;stroke-linejoin:miter;stroke:rgb(0%,0%,0%);stroke-opacity:1;stroke-miterlimit:4;" d="M 446.054842 663.069863 L 637.58168 854.596702 " transform="matrix(0.108809,0,0,-0.108809,-0.234,96.73)"/>
<path style="fill:none;stroke-width:3.8;stroke-linecap:butt;stroke-linejoin:miter;stroke:rgb(0%,0%,0%);stroke-opacity:1;stroke-miterlimit:4;" d="M 417.765592 691.359113 L 609.29243 882.885952 " transform="matrix(0.108809,0,0,-0.108809,-0.234,96.73)"/>
<path style="fill:none;stroke-width:3.8;stroke-linecap:butt;stroke-linejoin:miter;stroke:rgb(0%,0%,0%);stroke-opacity:1;stroke-miterlimit:4;" d="M 389.512242 719.648363 L 581.00318 911.139301 " transform="matrix(0.108809,0,0,-0.108809,-0.234,96.73)"/>
<path style="fill:none;stroke-width:3.8;stroke-linecap:butt;stroke-linejoin:miter;stroke:rgb(0%,0%,0%);stroke-opacity:1;stroke-miterlimit:4;" d="M 637.58168 854.596702 L 829.072618 1046.08764 " transform="matrix(0.108809,0,0,-0.108809,-0.234,96.73)"/>
<path style="fill:none;stroke-width:3.8;stroke-linecap:butt;stroke-linejoin:miter;stroke:rgb(0%,0%,0%);stroke-opacity:1;stroke-miterlimit:4;" d="M 609.29243 882.885952 L 800.783368 1074.37689 " transform="matrix(0.108809,0,0,-0.108809,-0.234,96.73)"/>
<path style="fill:none;stroke-width:3.8;stroke-linecap:butt;stroke-linejoin:miter;stroke:rgb(0%,0%,0%);stroke-opacity:1;stroke-miterlimit:4;" d="M -43.586123 3.729299 L 147.904815 195.220237 " transform="matrix(0.108809,0,0,-0.108809,-0.234,96.73)"/>
<path style="fill:none;stroke-width:3.8;stroke-linecap:butt;stroke-linejoin:miter;stroke:rgb(0%,0%,0%);stroke-opacity:1;stroke-miterlimit:4;" d="M -71.875373 32.018549 L 119.615565 223.509487 " transform="matrix(0.108809,0,0,-0.108809,-0.234,96.73)"/>
<path style="fill:none;stroke-width:3.8;stroke-linecap:butt;stroke-linejoin:miter;stroke:rgb(0%,0%,0%);stroke-opacity:1;stroke-miterlimit:4;" d="M -100.164623 60.307799 L 91.362215 251.798737 " transform="matrix(0.108809,0,0,-0.108809,-0.234,96.73)"/>
<path style="fill:none;stroke-width:3.8;stroke-linecap:butt;stroke-linejoin:miter;stroke:rgb(0%,0%,0%);stroke-opacity:1;stroke-miterlimit:4;" d="M 147.904815 195.220237 L 339.431653 386.747075 " transform="matrix(0.108809,0,0,-0.108809,-0.234,96.73)"/>
<path style="fill:none;stroke-width:3.8;stroke-linecap:butt;stroke-linejoin:miter;stroke:rgb(0%,0%,0%);stroke-opacity:1;stroke-miterlimit:4;" d="M 119.615565 223.509487 L 311.142403 415.000425 " transform="matrix(0.108809,0,0,-0.108809,-0.234,96.73)"/>
<path style="fill:none;stroke-width:3.8;stroke-linecap:butt;stroke-linejoin:miter;stroke:rgb(0%,0%,0%);stroke-opacity:1;stroke-miterlimit:4;" d="M 91.362215 251.798737 L 282.853153 443.289675 " transform="matrix(0.108809,0,0,-0.108809,-0.234,96.73)"/>
<path style="fill:none;stroke-width:3.8;stroke-linecap:butt;stroke-linejoin:miter;stroke:rgb(0%,0%,0%);stroke-opacity:1;stroke-miterlimit:4;" d="M 339.431653 386.747075 L 530.922591 578.238013 " transform="matrix(0.108809,0,0,-0.108809,-0.234,96.73)"/>
<path style="fill:none;stroke-width:3.8;stroke-linecap:butt;stroke-linejoin:miter;stroke:rgb(0%,0%,0%);stroke-opacity:1;stroke-miterlimit:4;" d="M 311.142403 415.000425 L 502.633341 606.527263 " transform="matrix(0.108809,0,0,-0.108809,-0.234,96.73)"/>
<path style="fill:none;stroke-width:3.8;stroke-linecap:butt;stroke-linejoin:miter;stroke:rgb(0%,0%,0%);stroke-opacity:1;stroke-miterlimit:4;" d="M 282.853153 443.289675 L 474.344091 634.816513 " transform="matrix(0.108809,0,0,-0.108809,-0.234,96.73)"/>
<path style="fill:none;stroke-width:3.8;stroke-linecap:butt;stroke-linejoin:miter;stroke:rgb(0%,0%,0%);stroke-opacity:1;stroke-miterlimit:4;" d="M 530.922591 578.238013 L 722.41353 769.728952 " transform="matrix(0.108809,0,0,-0.108809,-0.234,96.73)"/>
<path style="fill:none;stroke-width:3.8;stroke-linecap:butt;stroke-linejoin:miter;stroke:rgb(0%,0%,0%);stroke-opacity:1;stroke-miterlimit:4;" d="M 502.633341 606.527263 L 694.16018 798.018202 " transform="matrix(0.108809,0,0,-0.108809,-0.234,96.73)"/>
<path style="fill:none;stroke-width:3.8;stroke-linecap:butt;stroke-linejoin:miter;stroke:rgb(0%,0%,0%);stroke-opacity:1;stroke-miterlimit:4;" d="M 474.344091 634.816513 L 665.87093 826.307452 " transform="matrix(0.108809,0,0,-0.108809,-0.234,96.73)"/>
<path style="fill:none;stroke-width:3.8;stroke-linecap:butt;stroke-linejoin:miter;stroke:rgb(0%,0%,0%);stroke-opacity:1;stroke-miterlimit:4;" d="M 722.41353 769.728952 L 913.940368 961.25579 " transform="matrix(0.108809,0,0,-0.108809,-0.234,96.73)"/>
<path style="fill:none;stroke-width:3.8;stroke-linecap:butt;stroke-linejoin:miter;stroke:rgb(0%,0%,0%);stroke-opacity:1;stroke-miterlimit:4;" d="M 694.16018 798.018202 L 885.651118 989.50914 " transform="matrix(0.108809,0,0,-0.108809,-0.234,96.73)"/>
<path style="fill:none;stroke-width:3.8;stroke-linecap:butt;stroke-linejoin:miter;stroke:rgb(0%,0%,0%);stroke-opacity:1;stroke-miterlimit:4;" d="M 665.87093 826.307452 L 857.361868 1017.79839 " transform="matrix(0.108809,0,0,-0.108809,-0.234,96.73)"/>
<path style="fill:none;stroke-width:3.8;stroke-linecap:butt;stroke-linejoin:miter;stroke:rgb(0%,0%,0%);stroke-opacity:1;stroke-miterlimit:4;" d="M 41.281627 -81.138451 L 232.772565 110.388387 " transform="matrix(0.108809,0,0,-0.108809,-0.234,96.73)"/>
<path style="fill:none;stroke-width:3.8;stroke-linecap:butt;stroke-linejoin:miter;stroke:rgb(0%,0%,0%);stroke-opacity:1;stroke-miterlimit:4;" d="M 12.992377 -52.849201 L 204.483315 138.641737 " transform="matrix(0.108809,0,0,-0.108809,-0.234,96.73)"/>
<path style="fill:none;stroke-width:3.8;stroke-linecap:butt;stroke-linejoin:miter;stroke:rgb(0%,0%,0%);stroke-opacity:1;stroke-miterlimit:4;" d="M -15.296873 -24.559951 L 176.194065 166.930987 " transform="matrix(0.108809,0,0,-0.108809,-0.234,96.73)"/>
<path style="fill:none;stroke-width:3.8;stroke-linecap:butt;stroke-linejoin:miter;stroke:rgb(0%,0%,0%);stroke-opacity:1;stroke-miterlimit:4;" d="M 232.772565 110.388387 L 424.263503 301.879325 " transform="matrix(0.108809,0,0,-0.108809,-0.234,96.73)"/>
<path style="fill:none;stroke-width:3.8;stroke-linecap:butt;stroke-linejoin:miter;stroke:rgb(0%,0%,0%);stroke-opacity:1;stroke-miterlimit:4;" d="M 204.483315 138.641737 L 395.974253 330.168575 " transform="matrix(0.108809,0,0,-0.108809,-0.234,96.73)"/>
<path style="fill:none;stroke-width:3.8;stroke-linecap:butt;stroke-linejoin:miter;stroke:rgb(0%,0%,0%);stroke-opacity:1;stroke-miterlimit:4;" d="M 176.194065 166.930987 L 367.720903 358.457825 " transform="matrix(0.108809,0,0,-0.108809,-0.234,96.73)"/>
<path style="fill:none;stroke-width:3.8;stroke-linecap:butt;stroke-linejoin:miter;stroke:rgb(0%,0%,0%);stroke-opacity:1;stroke-miterlimit:4;" d="M 424.263503 301.879325 L 615.790341 493.370263 " transform="matrix(0.108809,0,0,-0.108809,-0.234,96.73)"/>
<path style="fill:none;stroke-width:3.8;stroke-linecap:butt;stroke-linejoin:miter;stroke:rgb(0%,0%,0%);stroke-opacity:1;stroke-miterlimit:4;" d="M 395.974253 330.168575 L 587.501091 521.659513 " transform="matrix(0.108809,0,0,-0.108809,-0.234,96.73)"/>
<path style="fill:none;stroke-width:3.8;stroke-linecap:butt;stroke-linejoin:miter;stroke:rgb(0%,0%,0%);stroke-opacity:1;stroke-miterlimit:4;" d="M 367.720903 358.457825 L 559.211841 549.948763 " transform="matrix(0.108809,0,0,-0.108809,-0.234,96.73)"/>
<path style="fill:none;stroke-width:3.8;stroke-linecap:butt;stroke-linejoin:miter;stroke:rgb(0%,0%,0%);stroke-opacity:1;stroke-miterlimit:4;" d="M 615.790341 493.370263 L 807.28128 684.897102 " transform="matrix(0.108809,0,0,-0.108809,-0.234,96.73)"/>
<path style="fill:none;stroke-width:3.8;stroke-linecap:butt;stroke-linejoin:miter;stroke:rgb(0%,0%,0%);stroke-opacity:1;stroke-miterlimit:4;" d="M 587.501091 521.659513 L 778.99203 713.150452 " transform="matrix(0.108809,0,0,-0.108809,-0.234,96.73)"/>
<path style="fill:none;stroke-width:3.8;stroke-linecap:butt;stroke-linejoin:miter;stroke:rgb(0%,0%,0%);stroke-opacity:1;stroke-miterlimit:4;" d="M 559.211841 549.948763 L 750.70278 741.439702 " transform="matrix(0.108809,0,0,-0.108809,-0.234,96.73)"/>
<path style="fill:none;stroke-width:3.8;stroke-linecap:butt;stroke-linejoin:miter;stroke:rgb(0%,0%,0%);stroke-opacity:1;stroke-miterlimit:4;" d="M 807.28128 684.897102 L 998.772218 876.38804 " transform="matrix(0.108809,0,0,-0.108809,-0.234,96.73)"/>
<path style="fill:none;stroke-width:3.8;stroke-linecap:butt;stroke-linejoin:miter;stroke:rgb(0%,0%,0%);stroke-opacity:1;stroke-miterlimit:4;" d="M 778.99203 713.150452 L 970.518868 904.67729 " transform="matrix(0.108809,0,0,-0.108809,-0.234,96.73)"/>
<path style="fill:none;stroke-width:3.8;stroke-linecap:butt;stroke-linejoin:miter;stroke:rgb(0%,0%,0%);stroke-opacity:1;stroke-miterlimit:4;" d="M 750.70278 741.439702 L 942.193718 932.96654 " transform="matrix(0.108809,0,0,-0.108809,-0.234,96.73)"/>
<path style="fill:none;stroke-width:3.8;stroke-linecap:butt;stroke-linejoin:miter;stroke:rgb(0%,0%,0%);stroke-opacity:1;stroke-miterlimit:4;" d="M 126.113476 -165.970301 L 317.604415 25.520637 " transform="matrix(0.108809,0,0,-0.108809,-0.234,96.73)"/>
<path style="fill:none;stroke-width:3.8;stroke-linecap:butt;stroke-linejoin:miter;stroke:rgb(0%,0%,0%);stroke-opacity:1;stroke-miterlimit:4;" d="M 97.824226 -137.716951 L 289.315165 53.809887 " transform="matrix(0.108809,0,0,-0.108809,-0.234,96.73)"/>
<path style="fill:none;stroke-width:3.8;stroke-linecap:butt;stroke-linejoin:miter;stroke:rgb(0%,0%,0%);stroke-opacity:1;stroke-miterlimit:4;" d="M 69.534976 -109.427701 L 261.061815 82.099137 " transform="matrix(0.108809,0,0,-0.108809,-0.234,96.73)"/>
<path style="fill:none;stroke-width:3.8;stroke-linecap:butt;stroke-linejoin:miter;stroke:rgb(0%,0%,0%);stroke-opacity:1;stroke-miterlimit:4;" d="M 317.604415 25.520637 L 509.131253 217.011575 " transform="matrix(0.108809,0,0,-0.108809,-0.234,96.73)"/>
<path style="fill:none;stroke-width:3.8;stroke-linecap:butt;stroke-linejoin:miter;stroke:rgb(0%,0%,0%);stroke-opacity:1;stroke-miterlimit:4;" d="M 289.351065 53.809887 L 480.842003 245.300825 " transform="matrix(0.108809,0,0,-0.108809,-0.234,96.73)"/>
<path style="fill:none;stroke-width:3.8;stroke-linecap:butt;stroke-linejoin:miter;stroke:rgb(0%,0%,0%);stroke-opacity:1;stroke-miterlimit:4;" d="M 261.061815 82.099137 L 452.552753 273.590075 " transform="matrix(0.108809,0,0,-0.108809,-0.234,96.73)"/>
<path style="fill:none;stroke-width:3.8;stroke-linecap:butt;stroke-linejoin:miter;stroke:rgb(0%,0%,0%);stroke-opacity:1;stroke-miterlimit:4;" d="M 509.131253 217.011575 L 700.622191 408.538414 " transform="matrix(0.108809,0,0,-0.108809,-0.234,96.73)"/>
<path style="fill:none;stroke-width:3.8;stroke-linecap:butt;stroke-linejoin:miter;stroke:rgb(0%,0%,0%);stroke-opacity:1;stroke-miterlimit:4;" d="M 480.842003 245.300825 L 672.332941 436.827664 " transform="matrix(0.108809,0,0,-0.108809,-0.234,96.73)"/>
<path style="fill:none;stroke-width:3.8;stroke-linecap:butt;stroke-linejoin:miter;stroke:rgb(0%,0%,0%);stroke-opacity:1;stroke-miterlimit:4;" d="M 452.552753 273.590075 L 644.043691 465.081014 " transform="matrix(0.108809,0,0,-0.108809,-0.234,96.73)"/>
<path style="fill:none;stroke-width:3.8;stroke-linecap:butt;stroke-linejoin:miter;stroke:rgb(0%,0%,0%);stroke-opacity:1;stroke-miterlimit:4;" d="M 700.622191 408.538414 L 892.149029 600.029352 " transform="matrix(0.108809,0,0,-0.108809,-0.234,96.73)"/>
<path style="fill:none;stroke-width:3.8;stroke-linecap:butt;stroke-linejoin:miter;stroke:rgb(0%,0%,0%);stroke-opacity:1;stroke-miterlimit:4;" d="M 672.332941 436.827664 L 863.85978 628.318602 " transform="matrix(0.108809,0,0,-0.108809,-0.234,96.73)"/>
<path style="fill:none;stroke-width:3.8;stroke-linecap:butt;stroke-linejoin:miter;stroke:rgb(0%,0%,0%);stroke-opacity:1;stroke-miterlimit:4;" d="M 644.043691 465.081014 L 835.57053 656.607852 " transform="matrix(0.108809,0,0,-0.108809,-0.234,96.73)"/>
<path style="fill:none;stroke-width:3.8;stroke-linecap:butt;stroke-linejoin:miter;stroke:rgb(0%,0%,0%);stroke-opacity:1;stroke-miterlimit:4;" d="M 892.149029 600.029352 L 1083.639968 791.55619 " transform="matrix(0.108809,0,0,-0.108809,-0.234,96.73)"/>
<path style="fill:none;stroke-width:3.8;stroke-linecap:butt;stroke-linejoin:miter;stroke:rgb(0%,0%,0%);stroke-opacity:1;stroke-miterlimit:4;" d="M 863.85978 628.318602 L 1055.350718 819.80954 " transform="matrix(0.108809,0,0,-0.108809,-0.234,96.73)"/>
<path style="fill:none;stroke-width:3.8;stroke-linecap:butt;stroke-linejoin:miter;stroke:rgb(0%,0%,0%);stroke-opacity:1;stroke-miterlimit:4;" d="M 835.57053 656.607852 L 1027.061468 848.09879 " transform="matrix(0.108809,0,0,-0.108809,-0.234,96.73)"/>
<path style="fill:none;stroke-width:3.8;stroke-linecap:butt;stroke-linejoin:miter;stroke:rgb(0%,0%,0%);stroke-opacity:1;stroke-miterlimit:4;" d="M 402.472165 -59.311213 L 593.963103 132.179725 " transform="matrix(0.108809,0,0,-0.108809,-0.234,96.73)"/>
<path style="fill:none;stroke-width:3.8;stroke-linecap:butt;stroke-linejoin:miter;stroke:rgb(0%,0%,0%);stroke-opacity:1;stroke-miterlimit:4;" d="M 374.182915 -31.057863 L 565.673853 160.468975 " transform="matrix(0.108809,0,0,-0.108809,-0.234,96.73)"/>
<path style="fill:none;stroke-width:3.8;stroke-linecap:butt;stroke-linejoin:miter;stroke:rgb(0%,0%,0%);stroke-opacity:1;stroke-miterlimit:4;" d="M 345.893665 -2.768613 L 537.384603 188.758225 " transform="matrix(0.108809,0,0,-0.108809,-0.234,96.73)"/>
<path style="fill:none;stroke-width:3.8;stroke-linecap:butt;stroke-linejoin:miter;stroke:rgb(0%,0%,0%);stroke-opacity:1;stroke-miterlimit:4;" d="M 593.963103 132.179725 L 785.489941 323.670664 " transform="matrix(0.108809,0,0,-0.108809,-0.234,96.73)"/>
<path style="fill:none;stroke-width:3.8;stroke-linecap:butt;stroke-linejoin:miter;stroke:rgb(0%,0%,0%);stroke-opacity:1;stroke-miterlimit:4;" d="M 565.673853 160.468975 L 757.200691 351.959914 " transform="matrix(0.108809,0,0,-0.108809,-0.234,96.73)"/>
<path style="fill:none;stroke-width:3.8;stroke-linecap:butt;stroke-linejoin:miter;stroke:rgb(0%,0%,0%);stroke-opacity:1;stroke-miterlimit:4;" d="M 537.384603 188.758225 L 728.911441 380.249164 " transform="matrix(0.108809,0,0,-0.108809,-0.234,96.73)"/>
<path style="fill:none;stroke-width:3.8;stroke-linecap:butt;stroke-linejoin:miter;stroke:rgb(0%,0%,0%);stroke-opacity:1;stroke-miterlimit:4;" d="M 785.489941 323.670664 L 976.980879 515.197502 " transform="matrix(0.108809,0,0,-0.108809,-0.234,96.73)"/>
<path style="fill:none;stroke-width:3.8;stroke-linecap:butt;stroke-linejoin:miter;stroke:rgb(0%,0%,0%);stroke-opacity:1;stroke-miterlimit:4;" d="M 757.200691 351.959914 L 948.691629 543.486752 " transform="matrix(0.108809,0,0,-0.108809,-0.234,96.73)"/>
<path style="fill:none;stroke-width:3.8;stroke-linecap:butt;stroke-linejoin:miter;stroke:rgb(0%,0%,0%);stroke-opacity:1;stroke-miterlimit:4;" d="M 728.911441 380.249164 L 920.402379 571.740102 " transform="matrix(0.108809,0,0,-0.108809,-0.234,96.73)"/>
<path style="fill:none;stroke-width:3.8;stroke-linecap:butt;stroke-linejoin:miter;stroke:rgb(0%,0%,0%);stroke-opacity:1;stroke-miterlimit:4;" d="M 948.691629 543.486752 L 1140.182568 734.97769 " transform="matrix(0.108809,0,0,-0.108809,-0.234,96.73)"/>
<path style="fill:none;stroke-width:3.8;stroke-linecap:butt;stroke-linejoin:miter;stroke:rgb(0%,0%,0%);stroke-opacity:1;stroke-miterlimit:4;" d="M 920.402379 571.740102 L 1111.893318 763.26694 " transform="matrix(0.108809,0,0,-0.108809,-0.234,96.73)"/>
<path style="fill:none;stroke-width:3.8;stroke-linecap:butt;stroke-linejoin:miter;stroke:rgb(0%,0%,0%);stroke-opacity:1;stroke-miterlimit:4;" d="M 487.304014 -144.178963 L 678.830853 47.311976 " transform="matrix(0.108809,0,0,-0.108809,-0.234,96.73)"/>
<path style="fill:none;stroke-width:3.8;stroke-linecap:butt;stroke-linejoin:miter;stroke:rgb(0%,0%,0%);stroke-opacity:1;stroke-miterlimit:4;" d="M 459.014764 -115.889713 L 650.541603 75.601226 " transform="matrix(0.108809,0,0,-0.108809,-0.234,96.73)"/>
<path style="fill:none;stroke-width:3.8;stroke-linecap:butt;stroke-linejoin:miter;stroke:rgb(0%,0%,0%);stroke-opacity:1;stroke-miterlimit:4;" d="M 430.761414 -87.600463 L 622.252353 103.890476 " transform="matrix(0.108809,0,0,-0.108809,-0.234,96.73)"/>
<path style="fill:none;stroke-width:3.8;stroke-linecap:butt;stroke-linejoin:miter;stroke:rgb(0%,0%,0%);stroke-opacity:1;stroke-miterlimit:4;" d="M 678.830853 47.311976 L 870.321791 238.838814 " transform="matrix(0.108809,0,0,-0.108809,-0.234,96.73)"/>
<path style="fill:none;stroke-width:3.8;stroke-linecap:butt;stroke-linejoin:miter;stroke:rgb(0%,0%,0%);stroke-opacity:1;stroke-miterlimit:4;" d="M 650.541603 75.601226 L 842.032541 267.092164 " transform="matrix(0.108809,0,0,-0.108809,-0.234,96.73)"/>
<path style="fill:none;stroke-width:3.8;stroke-linecap:butt;stroke-linejoin:miter;stroke:rgb(0%,0%,0%);stroke-opacity:1;stroke-miterlimit:4;" d="M 622.252353 103.890476 L 813.743291 295.381414 " transform="matrix(0.108809,0,0,-0.108809,-0.234,96.73)"/>
<path style="fill:none;stroke-width:3.8;stroke-linecap:butt;stroke-linejoin:miter;stroke:rgb(0%,0%,0%);stroke-opacity:1;stroke-miterlimit:4;" d="M 870.321791 238.838814 L 1061.812729 430.329752 " transform="matrix(0.108809,0,0,-0.108809,-0.234,96.73)"/>
<path style="fill:none;stroke-width:3.8;stroke-linecap:butt;stroke-linejoin:miter;stroke:rgb(0%,0%,0%);stroke-opacity:1;stroke-miterlimit:4;" d="M 842.032541 267.092164 L 1033.559379 458.619002 " transform="matrix(0.108809,0,0,-0.108809,-0.234,96.73)"/>
<path style="fill:none;stroke-width:3.8;stroke-linecap:butt;stroke-linejoin:miter;stroke:rgb(0%,0%,0%);stroke-opacity:1;stroke-miterlimit:4;" d="M 813.743291 295.381414 L 1005.270129 486.908252 " transform="matrix(0.108809,0,0,-0.108809,-0.234,96.73)"/>
<path style="fill:none;stroke-width:3.8;stroke-linecap:butt;stroke-linejoin:miter;stroke:rgb(0%,0%,0%);stroke-opacity:1;stroke-miterlimit:4;" d="M 515.593264 -172.468213 L 707.120103 19.058626 " transform="matrix(0.108809,0,0,-0.108809,-0.234,96.73)"/>
<path style="fill:none;stroke-width:3.8;stroke-linecap:butt;stroke-linejoin:miter;stroke:rgb(0%,0%,0%);stroke-opacity:1;stroke-miterlimit:4;" d="M 763.662703 -37.519874 L 955.189541 153.971064 " transform="matrix(0.108809,0,0,-0.108809,-0.234,96.73)"/>
<path style="fill:none;stroke-width:3.8;stroke-linecap:butt;stroke-linejoin:miter;stroke:rgb(0%,0%,0%);stroke-opacity:1;stroke-miterlimit:4;" d="M 735.409353 -9.266524 L 926.900291 182.260314 " transform="matrix(0.108809,0,0,-0.108809,-0.234,96.73)"/>
<path style="fill:none;stroke-width:3.8;stroke-linecap:butt;stroke-linejoin:miter;stroke:rgb(0%,0%,0%);stroke-opacity:1;stroke-miterlimit:4;" d="M 707.120103 19.058626 L 898.611041 210.549564 " transform="matrix(0.108809,0,0,-0.108809,-0.234,96.73)"/>
<path style="fill:none;stroke-width:3.8;stroke-linecap:butt;stroke-linejoin:miter;stroke:rgb(0%,0%,0%);stroke-opacity:1;stroke-miterlimit:4;" d="M 955.189541 153.971064 L 1146.680479 345.497902 " transform="matrix(0.108809,0,0,-0.108809,-0.234,96.73)"/>
<path style="fill:none;stroke-width:3.8;stroke-linecap:butt;stroke-linejoin:miter;stroke:rgb(0%,0%,0%);stroke-opacity:1;stroke-miterlimit:4;" d="M 926.900291 182.260314 L 1118.391229 373.751252 " transform="matrix(0.108809,0,0,-0.108809,-0.234,96.73)"/>
<path style="fill:none;stroke-width:3.8;stroke-linecap:butt;stroke-linejoin:miter;stroke:rgb(0%,0%,0%);stroke-opacity:1;stroke-miterlimit:4;" d="M 898.611041 210.549564 L 1090.101979 402.040502 " transform="matrix(0.108809,0,0,-0.108809,-0.234,96.73)"/>
<path style="fill:none;stroke-width:3.8;stroke-linecap:butt;stroke-linejoin:miter;stroke:rgb(0%,0%,0%);stroke-opacity:1;stroke-miterlimit:4;" d="M 848.530452 -122.387624 L 1040.021391 69.103314 " transform="matrix(0.108809,0,0,-0.108809,-0.234,96.73)"/>
<path style="fill:none;stroke-width:3.8;stroke-linecap:butt;stroke-linejoin:miter;stroke:rgb(0%,0%,0%);stroke-opacity:1;stroke-miterlimit:4;" d="M 820.241202 -94.098374 L 1011.732141 97.392564 " transform="matrix(0.108809,0,0,-0.108809,-0.234,96.73)"/>
<path style="fill:none;stroke-width:3.8;stroke-linecap:butt;stroke-linejoin:miter;stroke:rgb(0%,0%,0%);stroke-opacity:1;stroke-miterlimit:4;" d="M 791.951953 -65.809124 L 983.478791 125.681814 " transform="matrix(0.108809,0,0,-0.108809,-0.234,96.73)"/>
</g>
</g>
</g>
</g>
</svg>
