<?xml version="1.0" encoding="UTF-8"?>
<svg xmlns="http://www.w3.org/2000/svg" xmlns:xlink="http://www.w3.org/1999/xlink" width="112pt" height="269pt" viewBox="0 0 81 194" version="1.1">
<defs>
<clipPath id="clip1">
  <path d="M -265 666 L 347 666 L 347 -126 L -265 -126 L -265 666 Z M -265 666 "/>
</clipPath>
<clipPath id="clip2">
  <path d="M -0.476563 193.617188 L 81.726563 193.617188 L 81.726563 -1.199219 L -0.476563 -1.199219 L -0.476563 193.617188 Z M -0.476563 193.617188 "/>
</clipPath>
<clipPath id="clip3">
  <path d="M -265 666 L 347 666 L 347 -126 L -265 -126 L -265 666 Z M -265 666 "/>
</clipPath>
<clipPath id="clip4">
  <path d="M -0.476563 193.617188 L 81.726563 193.617188 L 81.726563 -1.199219 L -0.476563 -1.199219 L -0.476563 193.617188 Z M -0.476563 193.617188 "/>
</clipPath>
<clipPath id="clip5">
  <path d="M 44.777344 192.269531 L 44.777344 170.925781 C 44.777344 170.925781 39.191406 171.4375 34.804688 170.925781 L 34.804688 192.269531 "/>
</clipPath>
<clipPath id="clip6">
  <path d="M 58.882813 178.964844 L 48.53125 168.617188 L 26.167969 190.976563 L 36.519531 201.328125 L 58.882813 178.964844 Z M 58.882813 178.964844 "/>
</clipPath>
<clipPath id="clip7">
  <path d="M -265 666 L 347 666 L 347 -126 L -265 -126 L -265 666 Z M -265 666 "/>
</clipPath>
<clipPath id="clip8">
  <path d="M -0.476563 193.617188 L 81.726563 193.617188 L 81.726563 -1.199219 L -0.476563 -1.199219 L -0.476563 193.617188 Z M -0.476563 193.617188 "/>
</clipPath>
<clipPath id="clip9">
  <path d="M 44.777344 192.269531 L 44.777344 170.925781 C 44.777344 170.925781 39.191406 171.4375 34.804688 170.925781 L 34.804688 192.269531 "/>
</clipPath>
<clipPath id="clip10">
  <path d="M 49.328125 169.410156 L 38.976563 159.058594 L 16.613281 181.421875 L 26.964844 191.773438 L 49.328125 169.410156 Z M 49.328125 169.410156 "/>
</clipPath>
<clipPath id="clip11">
  <path d="M -265 666 L 347 666 L 347 -126 L -265 -126 L -265 666 Z M -265 666 "/>
</clipPath>
<clipPath id="clip12">
  <path d="M -0.476563 193.617188 L 81.726563 193.617188 L 81.726563 -1.199219 L -0.476563 -1.199219 L -0.476563 193.617188 Z M -0.476563 193.617188 "/>
</clipPath>
<clipPath id="clip13">
  <path d="M -0.476563 193.617188 L -0.476563 193.617188 L -0.476563 193.617188 L -0.476563 193.617188 Z M -0.476563 193.617188 "/>
</clipPath>
<clipPath id="clip14">
  <path d="M -265 666 L 347 666 L 347 -126 L -265 -126 L -265 666 Z M -265 666 "/>
</clipPath>
<clipPath id="clip15">
  <path d="M -0.476563 193.617188 L 81.726563 193.617188 L 81.726563 -1.199219 L -0.476563 -1.199219 L -0.476563 193.617188 Z M -0.476563 193.617188 "/>
</clipPath>
</defs>
<g id="surface0">
<g clip-path="url(#clip1)" clip-rule="nonzero">
<g clip-path="url(#clip2)" clip-rule="nonzero">
<path style=" stroke:none;fill-rule:nonzero;fill:rgb(100%,100%,100%);fill-opacity:1;" d="M 47.691406 144.867188 C 47.691406 147.34375 44.125 149.351563 39.71875 149.351563 C 35.3125 149.351563 31.742188 147.34375 31.742188 144.867188 C 31.742188 142.390625 35.3125 140.378906 39.71875 140.378906 C 44.125 140.378906 47.691406 142.390625 47.691406 144.867188 "/>
<path style="fill:none;stroke-width:5;stroke-linecap:butt;stroke-linejoin:miter;stroke:rgb(13.730068%,12.159915%,12.54902%);stroke-opacity:1;stroke-miterlimit:4;" d="M 427.75729 432.902574 C 427.75729 410.910032 396.086643 393.080117 356.957957 393.080117 C 317.829271 393.080117 286.123936 410.910032 286.123936 432.902574 C 286.123936 454.895115 317.829271 472.759719 356.957957 472.759719 C 396.086643 472.759719 427.75729 454.895115 427.75729 432.902574 Z M 427.75729 432.902574 " transform="matrix(0.112609,0,0,-0.112609,-0.478,193.616)"/>
<path style="fill-rule:nonzero;fill:rgb(100%,100%,100%);fill-opacity:1;stroke-width:5;stroke-linecap:butt;stroke-linejoin:miter;stroke:rgb(13.730068%,12.159915%,12.54902%);stroke-opacity:1;stroke-miterlimit:4;" d="M 373.608462 452.258785 C 403.683436 447.679896 425.780043 432.174114 425.780043 413.823871 C 425.780043 391.831329 394.109396 373.966725 354.98071 373.966725 C 315.852024 373.966725 284.112 391.831329 284.112 413.823871 C 284.112 432.139426 306.173918 447.610519 336.214204 452.258785 " transform="matrix(0.112609,0,0,-0.112609,-0.478,193.616)"/>
<path style="fill:none;stroke-width:5;stroke-linecap:butt;stroke-linejoin:miter;stroke:rgb(13.730068%,12.159915%,12.54902%);stroke-opacity:1;stroke-miterlimit:4;" d="M 713.140001 1503.772838 C 713.140001 1387.496814 555.758044 1293.213332 361.571535 1293.213332 C 167.385025 1293.213332 10.003068 1387.496814 10.003068 1503.772838 C 10.003068 1620.08355 167.385025 1714.367032 361.571535 1714.367032 C 555.758044 1714.367032 713.140001 1620.08355 713.140001 1503.772838 Z M 713.140001 1503.772838 " transform="matrix(0.112609,0,0,-0.112609,-0.478,193.616)"/>
<path style="fill:none;stroke-width:5;stroke-linecap:butt;stroke-linejoin:miter;stroke:rgb(13.730068%,12.159915%,12.54902%);stroke-opacity:1;stroke-miterlimit:4;" d="M 713.140001 1225.362526 C 713.140001 1109.051814 555.758044 1014.80302 361.571535 1014.80302 C 167.385025 1014.80302 10.003068 1109.051814 10.003068 1225.362526 C 10.003068 1341.673238 167.385025 1435.95672 361.571535 1435.95672 C 555.758044 1435.95672 713.140001 1341.673238 713.140001 1225.362526 Z M 713.140001 1225.362526 " transform="matrix(0.112609,0,0,-0.112609,-0.478,193.616)"/>
<path style="fill:none;stroke-width:5;stroke-linecap:butt;stroke-linejoin:miter;stroke:rgb(13.730068%,12.159915%,12.54902%);stroke-opacity:1;stroke-miterlimit:4;" d="M 202.108265 1264.179015 C 243.699838 1287.732541 294.17168 1301.503896 348.563328 1301.503896 C 426.820699 1301.503896 496.926261 1272.989907 544.172068 1227.964167 " transform="matrix(0.112609,0,0,-0.112609,-0.478,193.616)"/>
<path style=" stroke:none;fill-rule:nonzero;fill:rgb(13.730068%,12.159915%,12.54902%);fill-opacity:1;" d="M 22.457031 49.300781 L 17.949219 53.730469 L 24.070313 52.148438 L 22.457031 49.300781 "/>
<path style="fill:none;stroke-width:5;stroke-linecap:butt;stroke-linejoin:miter;stroke:rgb(13.730068%,12.159915%,12.54902%);stroke-opacity:1;stroke-miterlimit:4;" d="M 602.79572 1312.569544 C 625.100458 1292.658315 642.410045 1269.867937 653.406316 1245.100312 " transform="matrix(0.112609,0,0,-0.112609,-0.478,193.616)"/>
<path style="fill:none;stroke-width:5;stroke-linecap:butt;stroke-linejoin:miter;stroke:rgb(13.730068%,12.159915%,12.54902%);stroke-opacity:1;stroke-miterlimit:4;" d="M 427.896044 1388.710913 C 466.851287 1383.05668 503.031446 1372.129786 534.875536 1357.005578 " transform="matrix(0.112609,0,0,-0.112609,-0.478,193.616)"/>
<path style="fill:none;stroke-width:5;stroke-linecap:butt;stroke-linejoin:miter;stroke:rgb(13.730068%,12.159915%,12.54902%);stroke-opacity:1;stroke-miterlimit:4;" d="M 280.400325 1384.132025 C 307.838969 1389.925013 336.907975 1393.046982 367.017637 1393.046982 C 371.353706 1393.046982 375.655086 1392.977605 379.921778 1392.87354 " transform="matrix(0.112609,0,0,-0.112609,-0.478,193.616)"/>
<path style="fill:none;stroke-width:5;stroke-linecap:butt;stroke-linejoin:miter;stroke:rgb(13.730068%,12.159915%,12.54902%);stroke-opacity:1;stroke-miterlimit:4;" d="M 168.70319 1340.42445 C 192.222028 1354.993642 219.036278 1366.99588 248.209349 1375.87615 " transform="matrix(0.112609,0,0,-0.112609,-0.478,193.616)"/>
<path style="fill:none;stroke-width:5;stroke-linecap:butt;stroke-linejoin:miter;stroke:rgb(13.730068%,12.159915%,12.54902%);stroke-opacity:1;stroke-miterlimit:4;" d="M 75.56443 1232.092105 C 83.889682 1256.374091 98.250742 1279.025715 117.433511 1299.214451 " transform="matrix(0.112609,0,0,-0.112609,-0.478,193.616)"/>
<path style="fill:none;stroke-width:5;stroke-linecap:butt;stroke-linejoin:miter;stroke:rgb(13.730068%,12.159915%,12.54902%);stroke-opacity:1;stroke-miterlimit:4;" d="M 713.140001 410.077507 C 713.140001 293.801483 555.758044 199.518001 361.571535 199.518001 C 167.385025 199.518001 10.003068 293.801483 10.003068 410.077507 " transform="matrix(0.112609,0,0,-0.112609,-0.478,193.616)"/>
<path style="fill:none;stroke-width:5;stroke-linecap:butt;stroke-linejoin:miter;stroke:rgb(13.730068%,12.159915%,12.54902%);stroke-opacity:1;stroke-dasharray:30,20;stroke-miterlimit:4;" d="M 10.003068 410.077507 C 10.003068 526.388219 167.385025 620.671701 361.571535 620.671701 C 555.758044 620.671701 713.140001 526.388219 713.140001 410.077507 " transform="matrix(0.112609,0,0,-0.112609,-0.478,193.616)"/>
<path style="fill:none;stroke-width:5;stroke-linecap:butt;stroke-linejoin:miter;stroke:rgb(13.730068%,12.159915%,12.54902%);stroke-opacity:1;stroke-miterlimit:4;" d="M 713.140001 1503.772838 L 713.140001 400.850352 " transform="matrix(0.112609,0,0,-0.112609,-0.478,193.616)"/>
<path style="fill:none;stroke-width:5;stroke-linecap:butt;stroke-linejoin:miter;stroke:rgb(13.730068%,12.159915%,12.54902%);stroke-opacity:1;stroke-miterlimit:4;" d="M 10.315265 400.850352 L 10.315265 1494.61506 " transform="matrix(0.112609,0,0,-0.112609,-0.478,193.616)"/>
<path style="fill:none;stroke-width:5;stroke-linecap:butt;stroke-linejoin:miter;stroke:rgb(13.730068%,12.159915%,12.54902%);stroke-opacity:1;stroke-miterlimit:4;" d="M 490.682322 1187.864202 C 507.818466 1174.26629 517.843458 1157.893294 517.843458 1140.306198 C 517.843458 1137.253606 517.565949 1134.27039 516.976244 1131.287175 " transform="matrix(0.112609,0,0,-0.112609,-0.478,193.616)"/>
<path style="fill:none;stroke-width:5;stroke-linecap:butt;stroke-linejoin:miter;stroke:rgb(13.730068%,12.159915%,12.54902%);stroke-opacity:1;stroke-miterlimit:4;" d="M 381.239943 1224.530001 C 407.672619 1222.518065 432.058671 1217.037274 452.66367 1208.98953 " transform="matrix(0.112609,0,0,-0.112609,-0.478,193.616)"/>
<path style="fill:none;stroke-width:5;stroke-linecap:butt;stroke-linejoin:miter;stroke:rgb(13.730068%,12.159915%,12.54902%);stroke-opacity:1;stroke-miterlimit:4;" d="M 258.71998 1206.387888 C 278.145569 1214.817206 301.35221 1220.853014 326.778918 1223.628098 " transform="matrix(0.112609,0,0,-0.112609,-0.478,193.616)"/>
<path style="fill:none;stroke-width:5;stroke-linecap:butt;stroke-linejoin:miter;stroke:rgb(13.730068%,12.159915%,12.54902%);stroke-opacity:1;stroke-miterlimit:4;" d="M 199.81882 1140.306198 C 199.81882 1158.864573 210.919157 1176.035406 229.789729 1190.014892 " transform="matrix(0.112609,0,0,-0.112609,-0.478,193.616)"/>
<path style="fill:none;stroke-width:5;stroke-linecap:butt;stroke-linejoin:miter;stroke:rgb(13.730068%,12.159915%,12.54902%);stroke-opacity:1;stroke-miterlimit:4;" d="M 409.407047 1165.17789 C 445.552517 1156.401686 470.944537 1135.796687 470.944537 1111.792209 " transform="matrix(0.112609,0,0,-0.112609,-0.478,193.616)"/>
<path style="fill:none;stroke-width:5;stroke-linecap:butt;stroke-linejoin:miter;stroke:rgb(13.730068%,12.159915%,12.54902%);stroke-opacity:1;stroke-miterlimit:4;" d="M 290.529382 1147.243909 C 306.833001 1159.350213 331.288429 1167.640777 359.178025 1169.409893 " transform="matrix(0.112609,0,0,-0.112609,-0.478,193.616)"/>
<path style="fill:none;stroke-width:5;stroke-linecap:butt;stroke-linejoin:miter;stroke:rgb(13.730068%,12.159915%,12.54902%);stroke-opacity:1;stroke-miterlimit:4;" d="M 334.341022 1099.373708 C 334.341022 1099.373708 369.723344 1105.756401 392.270902 1099.373708 " transform="matrix(0.112609,0,0,-0.112609,-0.478,193.616)"/>
<path style="fill:none;stroke-width:7.5;stroke-linecap:butt;stroke-linejoin:miter;stroke:rgb(13.730068%,12.159915%,12.54902%);stroke-opacity:1;stroke-miterlimit:4;" d="M 10.315265 1216.6557 C 10.315265 1216.6557 122.49804 1162.888445 196.280588 1039.501269 " transform="matrix(0.112609,0,0,-0.112609,-0.478,193.616)"/>
<path style="fill:none;stroke-width:7.5;stroke-linecap:butt;stroke-linejoin:miter;stroke:rgb(13.730068%,12.159915%,12.54902%);stroke-opacity:1;stroke-miterlimit:4;" d="M 713.140001 1225.362526 C 713.140001 1225.362526 579.866587 1145.752301 527.452186 1039.674711 " transform="matrix(0.112609,0,0,-0.112609,-0.478,193.616)"/>
<path style="fill:none;stroke-width:5;stroke-linecap:butt;stroke-linejoin:miter;stroke:rgb(13.730068%,12.159915%,12.54902%);stroke-opacity:1;stroke-miterlimit:4;" d="M 571.784155 712.388231 C 520.791985 684.325193 438.78825 666.079015 346.273883 666.079015 C 208.109384 666.079015 93.324968 706.768685 70.430524 760.223743 " transform="matrix(0.112609,0,0,-0.112609,-0.478,193.616)"/>
<path style=" stroke:none;fill-rule:nonzero;fill:rgb(13.730068%,12.159915%,12.54902%);fill-opacity:1;" d="M 63.710938 115.347656 L 68.269531 110.96875 L 62.132813 112.480469 L 63.710938 115.347656 "/>
<path style="fill:none;stroke-width:5;stroke-linecap:butt;stroke-linejoin:miter;stroke:rgb(13.730068%,12.159915%,12.54902%);stroke-opacity:1;stroke-miterlimit:4;" d="M 200.373837 952.571759 C 165.130269 961.798914 136.234706 974.009284 116.462232 988.162213 " transform="matrix(0.112609,0,0,-0.112609,-0.478,193.616)"/>
<path style="fill:none;stroke-width:5;stroke-linecap:butt;stroke-linejoin:miter;stroke:rgb(13.730068%,12.159915%,12.54902%);stroke-opacity:1;stroke-miterlimit:4;" d="M 189.516321 860.438967 C 154.272753 869.70081 125.377189 881.91118 105.639404 896.029421 " transform="matrix(0.112609,0,0,-0.112609,-0.478,193.616)"/>
<path style="fill:none;stroke-width:5;stroke-linecap:butt;stroke-linejoin:miter;stroke:rgb(13.730068%,12.159915%,12.54902%);stroke-opacity:1;stroke-miterlimit:4;" d="M 276.098944 750.857834 C 236.415242 757.344593 203.877381 765.912665 181.642019 775.868279 " transform="matrix(0.112609,0,0,-0.112609,-0.478,193.616)"/>
<path style="fill:none;stroke-width:5;stroke-linecap:butt;stroke-linejoin:miter;stroke:rgb(13.730068%,12.159915%,12.54902%);stroke-opacity:1;stroke-miterlimit:4;" d="M 261.425687 620.255439 C 221.741985 626.742198 189.204124 635.344958 166.968762 645.265884 " transform="matrix(0.112609,0,0,-0.112609,-0.478,193.616)"/>
<path style="fill:none;stroke-width:5;stroke-linecap:butt;stroke-linejoin:miter;stroke:rgb(13.730068%,12.159915%,12.54902%);stroke-opacity:1;stroke-miterlimit:4;" d="M 131.378309 658.829108 C 106.125044 668.784722 85.86693 679.434107 72.650592 689.875361 " transform="matrix(0.112609,0,0,-0.112609,-0.478,193.616)"/>
<path style="fill:none;stroke-width:5;stroke-linecap:butt;stroke-linejoin:miter;stroke:rgb(13.730068%,12.159915%,12.54902%);stroke-opacity:1;stroke-miterlimit:4;" d="M 149.000093 615.364353 C 129.956078 623.516163 114.762493 632.396432 104.910944 641.207324 " transform="matrix(0.112609,0,0,-0.112609,-0.478,193.616)"/>
<path style="fill:none;stroke-width:5;stroke-linecap:butt;stroke-linejoin:miter;stroke:rgb(13.730068%,12.159915%,12.54902%);stroke-opacity:1;stroke-miterlimit:4;" d="M 252.545418 514.6288 C 225.557725 518.652672 203.42643 524.237529 188.267533 530.863042 " transform="matrix(0.112609,0,0,-0.112609,-0.478,193.616)"/>
<path style="fill:none;stroke-width:5;stroke-linecap:butt;stroke-linejoin:miter;stroke:rgb(13.730068%,12.159915%,12.54902%);stroke-opacity:1;stroke-miterlimit:4;" d="M 293.269777 575.403142 C 257.193684 579.912654 227.60435 586.191281 207.311547 593.718697 " transform="matrix(0.112609,0,0,-0.112609,-0.478,193.616)"/>
<path style="fill:none;stroke-width:5;stroke-linecap:butt;stroke-linejoin:miter;stroke:rgb(13.730068%,12.159915%,12.54902%);stroke-opacity:1;stroke-miterlimit:4;" d="M 598.459651 545.501611 C 555.237716 526.457596 517.496572 514.316603 488.774452 510.396797 " transform="matrix(0.112609,0,0,-0.112609,-0.478,193.616)"/>
<path style="fill:none;stroke-width:5;stroke-linecap:butt;stroke-linejoin:miter;stroke:rgb(13.730068%,12.159915%,12.54902%);stroke-opacity:1;stroke-miterlimit:4;" d="M 500.048231 353.01484 C 465.637188 342.261389 434.764378 337.474369 410.343638 339.416928 " transform="matrix(0.112609,0,0,-0.112609,-0.478,193.616)"/>
<path style="fill:none;stroke-width:5;stroke-linecap:butt;stroke-linejoin:miter;stroke:rgb(13.730068%,12.159915%,12.54902%);stroke-opacity:1;stroke-miterlimit:4;" d="M 417.524168 295.050271 C 377.458891 288.355381 342.2847 287.869741 315.262319 293.836172 " transform="matrix(0.112609,0,0,-0.112609,-0.478,193.616)"/>
<path style="fill:none;stroke-width:5;stroke-linecap:butt;stroke-linejoin:miter;stroke:rgb(13.730068%,12.159915%,12.54902%);stroke-opacity:1;stroke-miterlimit:4;" d="M 623.36603 414.30951 C 596.829289 393.149494 573.726714 377.19276 556.208995 367.965606 " transform="matrix(0.112609,0,0,-0.112609,-0.478,193.616)"/>
<path style="fill:none;stroke-width:5;stroke-linecap:butt;stroke-linejoin:miter;stroke:rgb(13.730068%,12.159915%,12.54902%);stroke-opacity:1;stroke-miterlimit:4;" d="M 440.93894 935.088729 C 405.209732 927.838822 373.920659 926.069706 349.95087 930.093578 " transform="matrix(0.112609,0,0,-0.112609,-0.478,193.616)"/>
<path style="fill:none;stroke-width:5;stroke-linecap:butt;stroke-linejoin:miter;stroke:rgb(13.730068%,12.159915%,12.54902%);stroke-opacity:1;stroke-miterlimit:4;" d="M 406.909471 840.458362 C 369.34177 834.526619 336.075449 834.665374 310.267167 841.117444 " transform="matrix(0.112609,0,0,-0.112609,-0.478,193.616)"/>
<path style="fill:none;stroke-width:5;stroke-linecap:butt;stroke-linejoin:miter;stroke:rgb(13.730068%,12.159915%,12.54902%);stroke-opacity:1;stroke-miterlimit:4;" d="M 445.96878 749.227472 C 408.747964 741.283794 375.516332 739.722809 349.395853 744.752649 " transform="matrix(0.112609,0,0,-0.112609,-0.478,193.616)"/>
<path style="fill:none;stroke-width:5;stroke-linecap:butt;stroke-linejoin:miter;stroke:rgb(13.730068%,12.159915%,12.54902%);stroke-opacity:1;stroke-miterlimit:4;" d="M 500.880756 629.413216 C 471.499553 620.810456 445.795337 616.682518 426.161617 617.619109 " transform="matrix(0.112609,0,0,-0.112609,-0.478,193.616)"/>
<path style="fill:none;stroke-width:5;stroke-linecap:butt;stroke-linejoin:miter;stroke:rgb(13.730068%,12.159915%,12.54902%);stroke-opacity:1;stroke-miterlimit:4;" d="M 607.548051 989.445689 C 591.834137 977.790336 569.945662 967.383771 543.40892 958.850387 " transform="matrix(0.112609,0,0,-0.112609,-0.478,193.616)"/>
<path style="fill:none;stroke-width:5;stroke-linecap:butt;stroke-linejoin:miter;stroke:rgb(13.730068%,12.159915%,12.54902%);stroke-opacity:1;stroke-miterlimit:4;" d="M 560.545064 874.418453 C 544.033314 866.786972 521.277624 860.473656 493.83898 855.82539 " transform="matrix(0.112609,0,0,-0.112609,-0.478,193.616)"/>
<path style="fill:none;stroke-width:5;stroke-linecap:butt;stroke-linejoin:miter;stroke:rgb(13.730068%,12.159915%,12.54902%);stroke-opacity:1;stroke-miterlimit:4;" d="M 540.495082 776.319231 C 523.948643 768.687749 501.192953 762.374433 473.788998 757.726167 " transform="matrix(0.112609,0,0,-0.112609,-0.478,193.616)"/>
<path style="fill:none;stroke-width:5;stroke-linecap:butt;stroke-linejoin:miter;stroke:rgb(13.730068%,12.159915%,12.54902%);stroke-opacity:1;stroke-miterlimit:4;" d="M 597.904634 667.917508 C 585.624887 660.181961 568.107168 652.30766 546.53089 644.814933 " transform="matrix(0.112609,0,0,-0.112609,-0.478,193.616)"/>
<path style="fill:none;stroke-width:5;stroke-linecap:butt;stroke-linejoin:miter;stroke:rgb(13.730068%,12.159915%,12.54902%);stroke-opacity:1;stroke-miterlimit:4;" d="M 151.809865 464.434467 C 100.991138 483.582547 62.86842 509.390829 44.032537 538.910786 " transform="matrix(0.112609,0,0,-0.112609,-0.478,193.616)"/>
<path style="fill:none;stroke-width:5;stroke-linecap:butt;stroke-linejoin:miter;stroke:rgb(13.730068%,12.159915%,12.54902%);stroke-opacity:1;stroke-miterlimit:4;" d="M 106.367863 568.396055 C 91.555852 579.496391 79.796433 591.568007 71.644624 604.333394 " transform="matrix(0.112609,0,0,-0.112609,-0.478,193.616)"/>
<path style="fill:none;stroke-width:5;stroke-linecap:butt;stroke-linejoin:miter;stroke:rgb(13.730068%,12.159915%,12.54902%);stroke-opacity:1;stroke-miterlimit:4;" d="M 249.666268 428.531816 C 230.587565 431.723163 212.306699 435.677658 195.0318 440.325924 " transform="matrix(0.112609,0,0,-0.112609,-0.478,193.616)"/>
<path style="fill:none;stroke-width:5;stroke-linecap:butt;stroke-linejoin:miter;stroke:rgb(13.730068%,12.159915%,12.54902%);stroke-opacity:1;stroke-miterlimit:4;" d="M 296.530501 340.388208 C 264.027329 344.377391 232.946387 349.337854 203.565184 355.130842 " transform="matrix(0.112609,0,0,-0.112609,-0.478,193.616)"/>
<path style="fill:none;stroke-width:5;stroke-linecap:butt;stroke-linejoin:miter;stroke:rgb(13.730068%,12.159915%,12.54902%);stroke-opacity:1;stroke-miterlimit:4;" d="M 235.27052 304.867131 C 212.688273 309.376643 191.077305 314.9615 170.645749 321.482947 " transform="matrix(0.112609,0,0,-0.112609,-0.478,193.616)"/>
<path style="fill:none;stroke-width:5;stroke-linecap:butt;stroke-linejoin:miter;stroke:rgb(13.730068%,12.159915%,12.54902%);stroke-opacity:1;stroke-miterlimit:4;" d="M 108.449176 394.398282 C 86.942275 406.88616 66.649472 421.767549 47.709523 438.73025 " transform="matrix(0.112609,0,0,-0.112609,-0.478,193.616)"/>
<path style="fill:none;stroke-width:5;stroke-linecap:butt;stroke-linejoin:miter;stroke:rgb(13.730068%,12.159915%,12.54902%);stroke-opacity:1;stroke-miterlimit:4;" d="M 579.866587 453.438196 C 541.952001 440.048415 497.515967 430.266244 449.056061 425.236404 " transform="matrix(0.112609,0,0,-0.112609,-0.478,193.616)"/>
<path style="fill:none;stroke-width:5;stroke-linecap:butt;stroke-linejoin:miter;stroke:rgb(13.730068%,12.159915%,12.54902%);stroke-opacity:1;stroke-miterlimit:4;" d="M 352.552511 497.943607 L 395.878512 499.435215 " transform="matrix(0.112609,0,0,-0.112609,-0.478,193.616)"/>
<path style="fill:none;stroke-width:5;stroke-linecap:butt;stroke-linejoin:miter;stroke:rgb(13.730068%,12.159915%,12.54902%);stroke-opacity:1;stroke-miterlimit:4;" d="M 464.214958 574.431863 L 489.225403 574.431863 " transform="matrix(0.112609,0,0,-0.112609,-0.478,193.616)"/>
<path style="fill:none;stroke-width:5;stroke-linecap:butt;stroke-linejoin:miter;stroke:rgb(13.730068%,12.159915%,12.54902%);stroke-opacity:1;stroke-miterlimit:4;" d="M 401.879631 11.957005 L 401.879631 201.495249 C 401.879631 201.495249 352.275003 196.951048 313.31976 201.495249 L 313.31976 11.957005 " transform="matrix(0.112609,0,0,-0.112609,-0.478,193.616)"/>
</g>
</g>
<g clip-path="url(#clip3)" clip-rule="nonzero">
<g clip-path="url(#clip4)" clip-rule="nonzero">
<g clip-path="url(#clip5)" clip-rule="nonzero">
<g clip-path="url(#clip6)" clip-rule="nonzero">
<path style="fill:none;stroke-width:5.99694;stroke-linecap:butt;stroke-linejoin:miter;stroke:rgb(0%,0%,0%);stroke-opacity:1;stroke-miterlimit:4;" d="M -358.555721 -265.917377 L -358.555721 -671.918462 " transform="matrix(-0.057537,-0.057537,-0.0550722,0.0550722,-0.478,193.616)"/>
<path style="fill:none;stroke-width:5.99694;stroke-linecap:butt;stroke-linejoin:miter;stroke:rgb(0%,0%,0%);stroke-opacity:1;stroke-miterlimit:4;" d="M -298.573932 -265.881912 L -298.573932 -671.953927 " transform="matrix(-0.057537,-0.057537,-0.0550722,0.0550722,-0.478,193.616)"/>
<path style="fill:none;stroke-width:5.99694;stroke-linecap:butt;stroke-linejoin:miter;stroke:rgb(0%,0%,0%);stroke-opacity:1;stroke-miterlimit:4;" d="M -238.626089 -265.881912 L -238.626089 -671.953927 " transform="matrix(-0.057537,-0.057537,-0.0550722,0.0550722,-0.478,193.616)"/>
</g>
</g>
</g>
</g>
<g clip-path="url(#clip7)" clip-rule="nonzero">
<g clip-path="url(#clip8)" clip-rule="nonzero">
<g clip-path="url(#clip9)" clip-rule="nonzero">
<g clip-path="url(#clip10)" clip-rule="nonzero">
<path style="fill:none;stroke-width:5.99694;stroke-linecap:butt;stroke-linejoin:miter;stroke:rgb(0%,0%,0%);stroke-opacity:1;stroke-miterlimit:4;" d="M -192.494085 -265.917377 L -192.494085 -671.918462 " transform="matrix(-0.057537,-0.057537,-0.0550722,0.0550722,-0.478,193.616)"/>
<path style="fill:none;stroke-width:5.99694;stroke-linecap:butt;stroke-linejoin:miter;stroke:rgb(0%,0%,0%);stroke-opacity:1;stroke-miterlimit:4;" d="M -132.512297 -265.881912 L -132.512297 -671.953927 " transform="matrix(-0.057537,-0.057537,-0.0550722,0.0550722,-0.478,193.616)"/>
<path style="fill:none;stroke-width:5.99694;stroke-linecap:butt;stroke-linejoin:miter;stroke:rgb(0%,0%,0%);stroke-opacity:1;stroke-miterlimit:4;" d="M -72.530508 -265.917377 L -72.530508 -671.918462 " transform="matrix(-0.057537,-0.057537,-0.0550722,0.0550722,-0.478,193.616)"/>
</g>
</g>
</g>
</g>
<g clip-path="url(#clip11)" clip-rule="nonzero">
<g clip-path="url(#clip12)" clip-rule="nonzero">
<g clip-path="url(#clip13)" clip-rule="nonzero">
<path style="fill:none;stroke-width:5.99694;stroke-linecap:butt;stroke-linejoin:miter;stroke:rgb(0%,0%,0%);stroke-opacity:1;stroke-miterlimit:4;" d="M -72.530508 125.684999 L -72.564454 -280.351552 " transform="matrix(-0.057537,-0.057537,-0.0550722,0.0550722,-0.478,193.616)"/>
</g>
</g>
</g>
<g clip-path="url(#clip14)" clip-rule="nonzero">
<g clip-path="url(#clip15)" clip-rule="nonzero">
<path style="fill:none;stroke-width:5;stroke-linecap:butt;stroke-linejoin:miter;stroke:rgb(13.730068%,12.159915%,12.54902%);stroke-opacity:1;stroke-miterlimit:4;" d="M 345.025096 88.722769 L 345.025096 -0.0105453 " transform="matrix(0.112609,0,0,-0.112609,-0.478,193.616)"/>
<path style="fill:none;stroke-width:5;stroke-linecap:butt;stroke-linejoin:miter;stroke:rgb(13.730068%,12.159915%,12.54902%);stroke-opacity:1;stroke-miterlimit:4;" d="M 366.70544 29.821609 L 366.70544 5.088672 " transform="matrix(0.112609,0,0,-0.112609,-0.478,193.616)"/>
<path style="fill:none;stroke-width:5;stroke-linecap:butt;stroke-linejoin:miter;stroke:rgb(13.730068%,12.159915%,12.54902%);stroke-opacity:1;stroke-miterlimit:4;" d="M 369.619278 162.19312 L 369.619278 55.283005 " transform="matrix(0.112609,0,0,-0.112609,-0.478,193.616)"/>
<path style="fill:none;stroke-width:5;stroke-linecap:butt;stroke-linejoin:miter;stroke:rgb(13.730068%,12.159915%,12.54902%);stroke-opacity:1;stroke-miterlimit:4;" d="M 345.025096 177.456083 L 345.025096 125.80483 " transform="matrix(0.112609,0,0,-0.112609,-0.478,193.616)"/>
<path style="fill:none;stroke-width:5;stroke-linecap:butt;stroke-linejoin:miter;stroke:rgb(13.730068%,12.159915%,12.54902%);stroke-opacity:1;stroke-dasharray:30,20;stroke-miterlimit:4;" d="M 512.536109 1011.091345 C 512.536109 1011.091345 354.25225 749.609046 373.781905 247.353513 " transform="matrix(0.112609,0,0,-0.112609,-0.478,193.616)"/>
<path style="fill:none;stroke-width:5;stroke-linecap:butt;stroke-linejoin:miter;stroke:rgb(13.730068%,12.159915%,12.54902%);stroke-opacity:1;stroke-dasharray:30,20;stroke-miterlimit:4;" d="M 217.54467 1003.598618 C 217.54467 1003.598618 345.025096 798.311772 345.025096 236.079734 " transform="matrix(0.112609,0,0,-0.112609,-0.478,193.616)"/>
</g>
</g>
</g>
</svg>
