<?xml version="1.0" encoding="UTF-8"?>
<svg xmlns="http://www.w3.org/2000/svg" xmlns:xlink="http://www.w3.org/1999/xlink" width="269.01pt" height="186.54pt" viewBox="0 0 269.01 186.54" version="1.1">
<defs>
<clipPath id="clip1">
  <path d="M 0 0 L 269.011719 0 L 269.011719 186.539062 L 0 186.539062 Z M 0 0 "/>
</clipPath>
</defs>
<g id="surface1">
<g clip-path="url(#clip1)" clip-rule="nonzero">
<path style=" stroke:none;fill-rule:nonzero;fill:rgb(28.556824%,27.256775%,27.580261%);fill-opacity:1;" d="M 3.082031 29.84375 C -0.660156 36.308594 0.03125 50.425781 4.925781 67.601562 C 14.636719 101.675781 42 150.03125 87.15625 174.160156 C 127.664062 195.804688 181.691406 184.027344 218.742188 165.785156 C 246.335938 152.199219 265.632812 134.628906 267.902344 121.011719 C 270.492188 105.484375 260.460938 78.324219 242.351562 51.820312 C 223.824219 24.703125 202.441406 6.117188 186.546875 3.3125 C 157.730469 -1.769531 138.058594 1.253906 102.351562 6.738281 C 94.933594 7.878906 86.53125 9.171875 77.285156 10.503906 C 67.214844 11.957031 58.644531 13.09375 51.085938 14.09375 C 18.738281 18.371094 8.976562 19.664062 3.082031 29.84375 Z M 137.925781 186.539062 C 120.046875 186.539062 102.445312 183.132812 86.820312 174.78125 C 41.472656 150.550781 13.992188 102.003906 4.242188 67.796875 C -0.703125 50.4375 -1.367188 36.117188 2.46875 29.488281 C 8.539062 19.007812 18.382812 17.703125 50.992188 13.390625 C 58.550781 12.390625 67.117188 11.257812 77.183594 9.804688 C 86.425781 8.472656 94.828125 7.179688 102.242188 6.039062 C 138.027344 0.539062 157.738281 -2.488281 186.671875 2.617188 C 205.886719 6.007812 228.335938 30.050781 242.933594 51.421875 C 261.144531 78.070312 271.21875 105.433594 268.601562 121.128906 C 266.296875 134.960938 246.847656 152.738281 219.058594 166.421875 C 196.113281 177.714844 166.671875 186.539062 137.925781 186.539062 "/>
</g>
<path style=" stroke:none;fill-rule:nonzero;fill:rgb(28.556824%,27.256775%,27.580261%);fill-opacity:1;" d="M 47.964844 49.636719 L 49.253906 53.601562 L 53.425781 53.601562 L 50.050781 56.054688 L 51.339844 60.019531 L 47.964844 57.570312 L 44.589844 60.019531 L 45.878906 56.054688 L 42.503906 53.601562 L 46.675781 53.601562 "/>
<path style=" stroke:none;fill-rule:nonzero;fill:rgb(28.556824%,27.256775%,27.580261%);fill-opacity:1;" d="M 122.933594 31.660156 L 124.222656 35.628906 L 128.394531 35.628906 L 125.019531 38.082031 L 126.308594 42.046875 L 122.933594 39.59375 L 119.5625 42.046875 L 120.847656 38.082031 L 117.472656 35.628906 L 121.644531 35.628906 "/>
<path style=" stroke:none;fill-rule:nonzero;fill:rgb(28.556824%,27.256775%,27.580261%);fill-opacity:1;" d="M 177.363281 26.015625 L 178.652344 29.984375 L 182.824219 29.984375 L 179.449219 32.433594 L 180.738281 36.402344 L 177.363281 33.949219 L 173.988281 36.402344 L 175.28125 32.433594 L 171.90625 29.984375 L 176.074219 29.984375 "/>
<path style=" stroke:none;fill-rule:nonzero;fill:rgb(28.556824%,27.256775%,27.580261%);fill-opacity:1;" d="M 96.230469 53.742188 L 97.523438 57.710938 L 101.691406 57.710938 L 98.316406 60.164062 L 99.605469 64.128906 L 96.230469 61.679688 L 92.859375 64.128906 L 94.148438 60.164062 L 90.773438 57.710938 L 94.945312 57.710938 "/>
<path style=" stroke:none;fill-rule:nonzero;fill:rgb(28.556824%,27.256775%,27.580261%);fill-opacity:1;" d="M 105.988281 72.742188 L 107.277344 76.710938 L 111.449219 76.710938 L 108.074219 79.160156 L 109.363281 83.128906 L 105.988281 80.675781 L 102.613281 83.128906 L 103.90625 79.160156 L 100.53125 76.710938 L 104.703125 76.710938 "/>
<path style=" stroke:none;fill-rule:nonzero;fill:rgb(28.556824%,27.256775%,27.580261%);fill-opacity:1;" d="M 78.261719 93.285156 L 79.546875 97.25 L 83.71875 97.25 L 80.34375 99.703125 L 81.636719 103.667969 L 78.261719 101.21875 L 74.886719 103.667969 L 76.175781 99.703125 L 72.800781 97.25 L 76.972656 97.25 "/>
<path style=" stroke:none;fill-rule:nonzero;fill:rgb(28.556824%,27.256775%,27.580261%);fill-opacity:1;" d="M 108.558594 138.46875 L 109.84375 142.4375 L 114.015625 142.4375 L 110.640625 144.886719 L 111.933594 148.855469 L 108.558594 146.402344 L 105.183594 148.855469 L 106.472656 144.886719 L 103.097656 142.4375 L 107.269531 142.4375 "/>
<path style=" stroke:none;fill-rule:nonzero;fill:rgb(28.556824%,27.256775%,27.580261%);fill-opacity:1;" d="M 147.585938 85.578125 L 148.871094 89.546875 L 153.042969 89.546875 L 149.667969 91.996094 L 150.957031 95.964844 L 147.585938 93.511719 L 144.210938 95.964844 L 145.5 91.996094 L 142.125 89.546875 L 146.292969 89.546875 "/>
<path style=" stroke:none;fill-rule:nonzero;fill:rgb(28.556824%,27.256775%,27.580261%);fill-opacity:1;" d="M 187.636719 59.390625 L 188.925781 63.359375 L 193.09375 63.359375 L 189.71875 65.808594 L 191.011719 69.777344 L 187.636719 67.324219 L 184.261719 69.777344 L 185.550781 65.808594 L 182.175781 63.359375 L 186.347656 63.359375 "/>
<path style=" stroke:none;fill-rule:nonzero;fill:rgb(28.556824%,27.256775%,27.580261%);fill-opacity:1;" d="M 208.6875 68.121094 L 209.976562 72.089844 L 214.148438 72.089844 L 210.773438 74.539062 L 212.0625 78.507812 L 208.6875 76.054688 L 205.3125 78.507812 L 206.601562 74.539062 L 203.226562 72.089844 L 207.398438 72.089844 "/>
<path style=" stroke:none;fill-rule:nonzero;fill:rgb(28.556824%,27.256775%,27.580261%);fill-opacity:1;" d="M 164.011719 123.066406 L 165.304688 127.03125 L 169.472656 127.03125 L 166.097656 129.484375 L 167.386719 133.449219 L 164.011719 130.996094 L 160.636719 133.449219 L 161.929688 129.484375 L 158.554688 127.03125 L 162.726562 127.03125 "/>
<path style=" stroke:none;fill-rule:nonzero;fill:rgb(28.556824%,27.256775%,27.580261%);fill-opacity:1;" d="M 173.769531 136.417969 L 175.058594 140.382812 L 179.230469 140.382812 L 175.855469 142.835938 L 177.144531 146.800781 L 173.769531 144.347656 L 170.394531 146.800781 L 171.6875 142.835938 L 168.3125 140.382812 L 172.480469 140.382812 "/>
<path style=" stroke:none;fill-rule:nonzero;fill:rgb(28.556824%,27.256775%,27.580261%);fill-opacity:1;" d="M 214.851562 116.902344 L 216.140625 120.871094 L 220.308594 120.871094 L 216.933594 123.320312 L 218.226562 127.289062 L 214.851562 124.839844 L 211.476562 127.289062 L 212.765625 123.320312 L 209.390625 120.871094 L 213.5625 120.871094 "/>
</g>
</svg>
