<?xml version="1.0" encoding="UTF-8"?>
<svg xmlns="http://www.w3.org/2000/svg" xmlns:xlink="http://www.w3.org/1999/xlink" width="208pt" height="148pt" viewBox="0 0 150 107" version="1.1">
<g id="surface0">
<path style=" stroke:none;fill-rule:nonzero;fill:rgb(100%,100%,100%);fill-opacity:1;" d="M 65.425781 6.558594 L 74.636719 1.011719 L 83.851563 6.558594 L 83.851563 16.960938 L 74.636719 22.507813 L 65.425781 16.960938 "/>
<path style="fill:none;stroke-width:5;stroke-linecap:butt;stroke-linejoin:round;stroke:rgb(0%,0%,0%);stroke-opacity:1;stroke-miterlimit:10;" d="M 654.257813 1004.414063 L 746.367188 1059.882813 L 838.515625 1004.414063 L 838.515625 900.390625 L 746.367188 844.921875 L 654.257813 900.390625 L 654.257813 1004.414063 Z M 654.257813 1004.414063 " transform="matrix(0.1,0,0,-0.1,0,107)"/>
<path style="fill:none;stroke-width:5;stroke-linecap:round;stroke-linejoin:round;stroke:rgb(0%,0%,0%);stroke-opacity:1;stroke-miterlimit:10;" d="M 654.257813 1004.414063 L 746.367188 948.984375 L 838.515625 1004.414063 " transform="matrix(0.1,0,0,-0.1,0,107)"/>
<path style="fill:none;stroke-width:5;stroke-linecap:round;stroke-linejoin:round;stroke:rgb(0%,0%,0%);stroke-opacity:1;stroke-miterlimit:10;" d="M 746.367188 948.984375 L 746.367188 844.921875 " transform="matrix(0.1,0,0,-0.1,0,107)"/>
<path style=" stroke:none;fill-rule:nonzero;fill:rgb(100%,100%,100%);fill-opacity:1;" d="M 56.210938 12.472656 L 65.425781 6.929688 L 74.636719 12.472656 L 74.636719 22.878906 L 65.425781 28.421875 L 56.210938 22.878906 "/>
<path style="fill:none;stroke-width:5;stroke-linecap:round;stroke-linejoin:round;stroke:rgb(0%,0%,0%);stroke-opacity:1;stroke-miterlimit:10;" d="M 562.109375 945.273438 L 654.257813 1000.703125 L 746.367188 945.273438 L 746.367188 841.210938 L 654.257813 785.78125 L 562.109375 841.210938 L 562.109375 945.273438 Z M 562.109375 945.273438 " transform="matrix(0.1,0,0,-0.1,0,107)"/>
<path style="fill:none;stroke-width:5;stroke-linecap:round;stroke-linejoin:round;stroke:rgb(0%,0%,0%);stroke-opacity:1;stroke-miterlimit:10;" d="M 562.109375 945.273438 L 654.257813 889.84375 L 746.367188 945.273438 " transform="matrix(0.1,0,0,-0.1,0,107)"/>
<path style="fill:none;stroke-width:5;stroke-linecap:round;stroke-linejoin:round;stroke:rgb(0%,0%,0%);stroke-opacity:1;stroke-miterlimit:10;" d="M 654.257813 889.84375 L 654.257813 785.78125 " transform="matrix(0.1,0,0,-0.1,0,107)"/>
<path style=" stroke:none;fill-rule:nonzero;fill:rgb(100%,100%,100%);fill-opacity:1;" d="M 47 18.390625 L 56.210938 12.84375 L 65.425781 18.390625 L 65.425781 28.792969 L 56.210938 34.339844 L 47 28.792969 "/>
<path style="fill:none;stroke-width:5;stroke-linecap:round;stroke-linejoin:round;stroke:rgb(0%,0%,0%);stroke-opacity:1;stroke-miterlimit:10;" d="M 470 886.09375 L 562.109375 941.5625 L 654.257813 886.09375 L 654.257813 782.070313 L 562.109375 726.601563 L 470 782.070313 L 470 886.09375 Z M 470 886.09375 " transform="matrix(0.1,0,0,-0.1,0,107)"/>
<path style="fill:none;stroke-width:5;stroke-linecap:round;stroke-linejoin:round;stroke:rgb(0%,0%,0%);stroke-opacity:1;stroke-miterlimit:10;" d="M 470 886.09375 L 562.109375 830.664063 L 654.257813 886.09375 " transform="matrix(0.1,0,0,-0.1,0,107)"/>
<path style="fill:none;stroke-width:5;stroke-linecap:round;stroke-linejoin:round;stroke:rgb(0%,0%,0%);stroke-opacity:1;stroke-miterlimit:10;" d="M 562.109375 830.664063 L 562.109375 726.601563 " transform="matrix(0.1,0,0,-0.1,0,107)"/>
<path style=" stroke:none;fill-rule:nonzero;fill:rgb(100%,100%,100%);fill-opacity:1;" d="M 37.785156 24.304688 L 47 18.761719 L 56.210938 24.304688 L 56.210938 34.710938 L 47 40.253906 L 37.785156 34.710938 "/>
<path style="fill:none;stroke-width:5;stroke-linecap:round;stroke-linejoin:round;stroke:rgb(0%,0%,0%);stroke-opacity:1;stroke-miterlimit:10;" d="M 377.851563 826.953125 L 470 882.382813 L 562.109375 826.953125 L 562.109375 722.890625 L 470 667.460938 L 377.851563 722.890625 L 377.851563 826.953125 Z M 377.851563 826.953125 " transform="matrix(0.1,0,0,-0.1,0,107)"/>
<path style="fill:none;stroke-width:5;stroke-linecap:round;stroke-linejoin:round;stroke:rgb(0%,0%,0%);stroke-opacity:1;stroke-miterlimit:10;" d="M 377.851563 826.953125 L 470 771.523438 L 562.109375 826.953125 " transform="matrix(0.1,0,0,-0.1,0,107)"/>
<path style="fill:none;stroke-width:5;stroke-linecap:round;stroke-linejoin:round;stroke:rgb(0%,0%,0%);stroke-opacity:1;stroke-miterlimit:10;" d="M 470 771.523438 L 470 667.460938 " transform="matrix(0.1,0,0,-0.1,0,107)"/>
<path style=" stroke:none;fill-rule:nonzero;fill:rgb(100%,100%,100%);fill-opacity:1;" d="M 28.574219 30.21875 L 37.785156 24.675781 L 47 30.21875 L 47 40.625 L 37.785156 46.167969 L 28.574219 40.625 "/>
<path style="fill:none;stroke-width:5;stroke-linecap:round;stroke-linejoin:round;stroke:rgb(0%,0%,0%);stroke-opacity:1;stroke-miterlimit:10;" d="M 285.742188 767.8125 L 377.851563 823.242188 L 470 767.8125 L 470 663.75 L 377.851563 608.320313 L 285.742188 663.75 L 285.742188 767.8125 Z M 285.742188 767.8125 " transform="matrix(0.1,0,0,-0.1,0,107)"/>
<path style="fill:none;stroke-width:5;stroke-linecap:round;stroke-linejoin:round;stroke:rgb(0%,0%,0%);stroke-opacity:1;stroke-miterlimit:10;" d="M 285.742188 767.8125 L 377.851563 712.34375 L 470 767.8125 " transform="matrix(0.1,0,0,-0.1,0,107)"/>
<path style="fill:none;stroke-width:5;stroke-linecap:round;stroke-linejoin:round;stroke:rgb(0%,0%,0%);stroke-opacity:1;stroke-miterlimit:10;" d="M 377.851563 712.34375 L 377.851563 608.320313 " transform="matrix(0.1,0,0,-0.1,0,107)"/>
<path style=" stroke:none;fill-rule:nonzero;fill:rgb(100%,100%,100%);fill-opacity:1;" d="M 19.363281 36.136719 L 28.574219 30.59375 L 37.785156 36.136719 L 37.785156 46.542969 L 28.574219 52.085938 L 19.363281 46.542969 "/>
<path style="fill:none;stroke-width:5;stroke-linecap:round;stroke-linejoin:round;stroke:rgb(0%,0%,0%);stroke-opacity:1;stroke-miterlimit:10;" d="M 193.632813 708.632813 L 285.742188 764.0625 L 377.851563 708.632813 L 377.851563 604.570313 L 285.742188 549.140625 L 193.632813 604.570313 L 193.632813 708.632813 Z M 193.632813 708.632813 " transform="matrix(0.1,0,0,-0.1,0,107)"/>
<path style="fill:none;stroke-width:5;stroke-linecap:round;stroke-linejoin:round;stroke:rgb(0%,0%,0%);stroke-opacity:1;stroke-miterlimit:10;" d="M 193.632813 708.632813 L 285.742188 653.203125 L 377.851563 708.632813 " transform="matrix(0.1,0,0,-0.1,0,107)"/>
<path style="fill:none;stroke-width:5;stroke-linecap:round;stroke-linejoin:round;stroke:rgb(0%,0%,0%);stroke-opacity:1;stroke-miterlimit:10;" d="M 285.742188 653.203125 L 285.742188 549.140625 " transform="matrix(0.1,0,0,-0.1,0,107)"/>
<path style=" stroke:none;fill-rule:nonzero;fill:rgb(100%,100%,100%);fill-opacity:1;" d="M 10.148438 42.050781 L 19.363281 36.507813 L 28.574219 42.050781 L 28.574219 52.457031 L 19.363281 58 L 10.148438 52.457031 "/>
<path style="fill:none;stroke-width:5;stroke-linecap:round;stroke-linejoin:round;stroke:rgb(0%,0%,0%);stroke-opacity:1;stroke-miterlimit:10;" d="M 101.484375 649.492188 L 193.632813 704.921875 L 285.742188 649.492188 L 285.742188 545.429688 L 193.632813 490 L 101.484375 545.429688 L 101.484375 649.492188 Z M 101.484375 649.492188 " transform="matrix(0.1,0,0,-0.1,0,107)"/>
<path style="fill:none;stroke-width:5;stroke-linecap:round;stroke-linejoin:round;stroke:rgb(0%,0%,0%);stroke-opacity:1;stroke-miterlimit:10;" d="M 101.484375 649.492188 L 193.632813 594.023438 L 285.742188 649.492188 " transform="matrix(0.1,0,0,-0.1,0,107)"/>
<path style="fill:none;stroke-width:5;stroke-linecap:round;stroke-linejoin:round;stroke:rgb(0%,0%,0%);stroke-opacity:1;stroke-miterlimit:10;" d="M 193.632813 594.023438 L 193.632813 490 " transform="matrix(0.1,0,0,-0.1,0,107)"/>
<path style=" stroke:none;fill-rule:nonzero;fill:rgb(100%,100%,100%);fill-opacity:1;" d="M 0.9375 47.96875 L 10.148438 42.421875 L 19.363281 47.96875 L 19.363281 58.371094 L 10.148438 63.917969 L 0.9375 58.371094 "/>
<path style="fill:none;stroke-width:5;stroke-linecap:round;stroke-linejoin:round;stroke:rgb(0%,0%,0%);stroke-opacity:1;stroke-miterlimit:10;" d="M 9.375 590.3125 L 101.484375 645.78125 L 193.632813 590.3125 L 193.632813 486.289063 L 101.484375 430.820313 L 9.375 486.289063 L 9.375 590.3125 Z M 9.375 590.3125 " transform="matrix(0.1,0,0,-0.1,0,107)"/>
<path style="fill:none;stroke-width:5;stroke-linecap:round;stroke-linejoin:round;stroke:rgb(0%,0%,0%);stroke-opacity:1;stroke-miterlimit:10;" d="M 9.375 590.3125 L 101.484375 534.882813 L 193.632813 590.3125 " transform="matrix(0.1,0,0,-0.1,0,107)"/>
<path style="fill:none;stroke-width:5;stroke-linecap:round;stroke-linejoin:round;stroke:rgb(0%,0%,0%);stroke-opacity:1;stroke-miterlimit:10;" d="M 101.484375 534.882813 L 101.484375 430.820313 " transform="matrix(0.1,0,0,-0.1,0,107)"/>
<path style=" stroke:none;fill-rule:nonzero;fill:rgb(100%,100%,100%);fill-opacity:1;" d="M 74.636719 11.730469 L 83.851563 6.183594 L 93.0625 11.730469 L 93.0625 22.132813 L 83.851563 27.679688 L 74.636719 22.132813 "/>
<path style="fill:none;stroke-width:5;stroke-linecap:round;stroke-linejoin:round;stroke:rgb(0%,0%,0%);stroke-opacity:1;stroke-miterlimit:10;" d="M 746.367188 952.695313 L 838.515625 1008.164063 L 930.625 952.695313 L 930.625 848.671875 L 838.515625 793.203125 L 746.367188 848.671875 L 746.367188 952.695313 Z M 746.367188 952.695313 " transform="matrix(0.1,0,0,-0.1,0,107)"/>
<path style="fill:none;stroke-width:5;stroke-linecap:round;stroke-linejoin:round;stroke:rgb(0%,0%,0%);stroke-opacity:1;stroke-miterlimit:10;" d="M 746.367188 952.695313 L 838.515625 897.265625 L 930.625 952.695313 " transform="matrix(0.1,0,0,-0.1,0,107)"/>
<path style="fill:none;stroke-width:5;stroke-linecap:round;stroke-linejoin:round;stroke:rgb(0%,0%,0%);stroke-opacity:1;stroke-miterlimit:10;" d="M 838.515625 897.265625 L 838.515625 793.203125 " transform="matrix(0.1,0,0,-0.1,0,107)"/>
<path style=" stroke:none;fill-rule:nonzero;fill:rgb(100%,100%,100%);fill-opacity:1;" d="M 65.425781 17.570313 L 74.636719 12.027344 L 83.851563 17.570313 L 83.851563 27.976563 L 74.636719 33.519531 L 65.425781 27.976563 "/>
<path style="fill:none;stroke-width:5;stroke-linecap:round;stroke-linejoin:round;stroke:rgb(0%,0%,0%);stroke-opacity:1;stroke-miterlimit:10;" d="M 654.257813 894.296875 L 746.367188 949.726563 L 838.515625 894.296875 L 838.515625 790.234375 L 746.367188 734.804688 L 654.257813 790.234375 L 654.257813 894.296875 Z M 654.257813 894.296875 " transform="matrix(0.1,0,0,-0.1,0,107)"/>
<path style="fill:none;stroke-width:5;stroke-linecap:round;stroke-linejoin:round;stroke:rgb(0%,0%,0%);stroke-opacity:1;stroke-miterlimit:10;" d="M 654.257813 894.296875 L 746.367188 838.867188 L 838.515625 894.296875 " transform="matrix(0.1,0,0,-0.1,0,107)"/>
<path style="fill:none;stroke-width:5;stroke-linecap:round;stroke-linejoin:round;stroke:rgb(0%,0%,0%);stroke-opacity:1;stroke-miterlimit:10;" d="M 746.367188 838.867188 L 746.367188 734.804688 " transform="matrix(0.1,0,0,-0.1,0,107)"/>
<path style=" stroke:none;fill-rule:nonzero;fill:rgb(100%,100%,100%);fill-opacity:1;" d="M 56.210938 23.636719 L 65.425781 18.089844 L 74.636719 23.636719 L 74.636719 34.039063 L 65.425781 39.585938 L 56.210938 34.039063 "/>
<path style="fill:none;stroke-width:5;stroke-linecap:round;stroke-linejoin:round;stroke:rgb(0%,0%,0%);stroke-opacity:1;stroke-miterlimit:10;" d="M 562.109375 833.632813 L 654.257813 889.101563 L 746.367188 833.632813 L 746.367188 729.609375 L 654.257813 674.140625 L 562.109375 729.609375 L 562.109375 833.632813 Z M 562.109375 833.632813 " transform="matrix(0.1,0,0,-0.1,0,107)"/>
<path style="fill:none;stroke-width:5;stroke-linecap:round;stroke-linejoin:round;stroke:rgb(0%,0%,0%);stroke-opacity:1;stroke-miterlimit:10;" d="M 562.109375 833.632813 L 654.257813 778.203125 L 746.367188 833.632813 " transform="matrix(0.1,0,0,-0.1,0,107)"/>
<path style="fill:none;stroke-width:5;stroke-linecap:round;stroke-linejoin:round;stroke:rgb(0%,0%,0%);stroke-opacity:1;stroke-miterlimit:10;" d="M 654.257813 778.203125 L 654.257813 674.140625 " transform="matrix(0.1,0,0,-0.1,0,107)"/>
<path style=" stroke:none;fill-rule:nonzero;fill:rgb(100%,100%,100%);fill-opacity:1;" d="M 47 29.699219 L 56.210938 24.15625 L 65.425781 29.699219 L 65.425781 40.105469 L 56.210938 45.648438 L 47 40.105469 "/>
<path style="fill:none;stroke-width:5;stroke-linecap:round;stroke-linejoin:round;stroke:rgb(0%,0%,0%);stroke-opacity:1;stroke-miterlimit:10;" d="M 470 773.007813 L 562.109375 828.4375 L 654.257813 773.007813 L 654.257813 668.945313 L 562.109375 613.515625 L 470 668.945313 L 470 773.007813 Z M 470 773.007813 " transform="matrix(0.1,0,0,-0.1,0,107)"/>
<path style="fill:none;stroke-width:5;stroke-linecap:round;stroke-linejoin:round;stroke:rgb(0%,0%,0%);stroke-opacity:1;stroke-miterlimit:10;" d="M 470 773.007813 L 562.109375 717.539063 L 654.257813 773.007813 " transform="matrix(0.1,0,0,-0.1,0,107)"/>
<path style="fill:none;stroke-width:5;stroke-linecap:round;stroke-linejoin:round;stroke:rgb(0%,0%,0%);stroke-opacity:1;stroke-miterlimit:10;" d="M 562.109375 717.539063 L 562.109375 613.515625 " transform="matrix(0.1,0,0,-0.1,0,107)"/>
<path style=" stroke:none;fill-rule:nonzero;fill:rgb(100%,100%,100%);fill-opacity:1;" d="M 37.785156 35.765625 L 47 30.21875 L 56.210938 35.765625 L 56.210938 46.167969 L 47 51.714844 L 37.785156 46.167969 "/>
<path style="fill:none;stroke-width:5;stroke-linecap:round;stroke-linejoin:round;stroke:rgb(0%,0%,0%);stroke-opacity:1;stroke-miterlimit:10;" d="M 377.851563 712.34375 L 470 767.8125 L 562.109375 712.34375 L 562.109375 608.320313 L 470 552.851563 L 377.851563 608.320313 L 377.851563 712.34375 Z M 377.851563 712.34375 " transform="matrix(0.1,0,0,-0.1,0,107)"/>
<path style="fill:none;stroke-width:5;stroke-linecap:round;stroke-linejoin:round;stroke:rgb(0%,0%,0%);stroke-opacity:1;stroke-miterlimit:10;" d="M 377.851563 712.34375 L 470 656.914063 L 562.109375 712.34375 " transform="matrix(0.1,0,0,-0.1,0,107)"/>
<path style="fill:none;stroke-width:5;stroke-linecap:round;stroke-linejoin:round;stroke:rgb(0%,0%,0%);stroke-opacity:1;stroke-miterlimit:10;" d="M 470 656.914063 L 470 552.851563 " transform="matrix(0.1,0,0,-0.1,0,107)"/>
<path style=" stroke:none;fill-rule:nonzero;fill:rgb(100%,100%,100%);fill-opacity:1;" d="M 28.574219 41.828125 L 37.785156 36.285156 L 47 41.828125 L 47 52.234375 L 37.785156 57.777344 L 28.574219 52.234375 "/>
<path style="fill:none;stroke-width:5;stroke-linecap:round;stroke-linejoin:round;stroke:rgb(0%,0%,0%);stroke-opacity:1;stroke-miterlimit:10;" d="M 285.742188 651.71875 L 377.851563 707.148438 L 470 651.71875 L 470 547.65625 L 377.851563 492.226563 L 285.742188 547.65625 L 285.742188 651.71875 Z M 285.742188 651.71875 " transform="matrix(0.1,0,0,-0.1,0,107)"/>
<path style="fill:none;stroke-width:5;stroke-linecap:round;stroke-linejoin:round;stroke:rgb(0%,0%,0%);stroke-opacity:1;stroke-miterlimit:10;" d="M 285.742188 651.71875 L 377.851563 596.25 L 470 651.71875 " transform="matrix(0.1,0,0,-0.1,0,107)"/>
<path style="fill:none;stroke-width:5;stroke-linecap:round;stroke-linejoin:round;stroke:rgb(0%,0%,0%);stroke-opacity:1;stroke-miterlimit:10;" d="M 377.851563 596.25 L 377.851563 492.226563 " transform="matrix(0.1,0,0,-0.1,0,107)"/>
<path style=" stroke:none;fill-rule:nonzero;fill:rgb(100%,100%,100%);fill-opacity:1;" d="M 19.363281 47.894531 L 28.574219 42.347656 L 37.785156 47.894531 L 37.785156 58.296875 L 28.574219 63.84375 L 19.363281 58.296875 "/>
<path style="fill:none;stroke-width:5;stroke-linecap:round;stroke-linejoin:round;stroke:rgb(0%,0%,0%);stroke-opacity:1;stroke-miterlimit:10;" d="M 193.632813 591.054688 L 285.742188 646.523438 L 377.851563 591.054688 L 377.851563 487.03125 L 285.742188 431.5625 L 193.632813 487.03125 L 193.632813 591.054688 Z M 193.632813 591.054688 " transform="matrix(0.1,0,0,-0.1,0,107)"/>
<path style="fill:none;stroke-width:5;stroke-linecap:round;stroke-linejoin:round;stroke:rgb(0%,0%,0%);stroke-opacity:1;stroke-miterlimit:10;" d="M 193.632813 591.054688 L 285.742188 535.625 L 377.851563 591.054688 " transform="matrix(0.1,0,0,-0.1,0,107)"/>
<path style="fill:none;stroke-width:5;stroke-linecap:round;stroke-linejoin:round;stroke:rgb(0%,0%,0%);stroke-opacity:1;stroke-miterlimit:10;" d="M 285.742188 535.625 L 285.742188 431.5625 " transform="matrix(0.1,0,0,-0.1,0,107)"/>
<path style=" stroke:none;fill-rule:nonzero;fill:rgb(100%,100%,100%);fill-opacity:1;" d="M 10.148438 53.882813 L 19.363281 48.339844 L 28.574219 53.882813 L 28.574219 64.289063 L 19.363281 69.832031 L 10.148438 64.289063 "/>
<path style="fill:none;stroke-width:5;stroke-linecap:round;stroke-linejoin:round;stroke:rgb(0%,0%,0%);stroke-opacity:1;stroke-miterlimit:10;" d="M 101.484375 531.171875 L 193.632813 586.601563 L 285.742188 531.171875 L 285.742188 427.109375 L 193.632813 371.679688 L 101.484375 427.109375 L 101.484375 531.171875 Z M 101.484375 531.171875 " transform="matrix(0.1,0,0,-0.1,0,107)"/>
<path style="fill:none;stroke-width:5;stroke-linecap:round;stroke-linejoin:round;stroke:rgb(0%,0%,0%);stroke-opacity:1;stroke-miterlimit:10;" d="M 101.484375 531.171875 L 193.632813 475.703125 L 285.742188 531.171875 " transform="matrix(0.1,0,0,-0.1,0,107)"/>
<path style="fill:none;stroke-width:5;stroke-linecap:round;stroke-linejoin:round;stroke:rgb(0%,0%,0%);stroke-opacity:1;stroke-miterlimit:10;" d="M 193.632813 475.703125 L 193.632813 371.679688 " transform="matrix(0.1,0,0,-0.1,0,107)"/>
<path style=" stroke:none;fill-rule:nonzero;fill:rgb(100%,100%,100%);fill-opacity:1;" d="M 83.851563 16.902344 L 93.0625 11.359375 L 102.273438 16.902344 L 102.273438 27.308594 L 93.0625 32.851563 L 83.851563 27.308594 "/>
<path style="fill:none;stroke-width:5;stroke-linecap:round;stroke-linejoin:round;stroke:rgb(0%,0%,0%);stroke-opacity:1;stroke-miterlimit:10;" d="M 838.515625 900.976563 L 930.625 956.40625 L 1022.734375 900.976563 L 1022.734375 796.914063 L 930.625 741.484375 L 838.515625 796.914063 L 838.515625 900.976563 Z M 838.515625 900.976563 " transform="matrix(0.1,0,0,-0.1,0,107)"/>
<path style="fill:none;stroke-width:5;stroke-linecap:round;stroke-linejoin:round;stroke:rgb(0%,0%,0%);stroke-opacity:1;stroke-miterlimit:10;" d="M 838.515625 900.976563 L 930.625 845.546875 L 1022.734375 900.976563 " transform="matrix(0.1,0,0,-0.1,0,107)"/>
<path style="fill:none;stroke-width:5;stroke-linecap:round;stroke-linejoin:round;stroke:rgb(0%,0%,0%);stroke-opacity:1;stroke-miterlimit:10;" d="M 930.625 845.546875 L 930.625 741.484375 " transform="matrix(0.1,0,0,-0.1,0,107)"/>
<path style=" stroke:none;fill-rule:nonzero;fill:rgb(100%,100%,100%);fill-opacity:1;" d="M 74.636719 22.59375 L 83.851563 17.050781 L 93.0625 22.59375 L 93.0625 33 L 83.851563 38.542969 L 74.636719 33 "/>
<path style="fill:none;stroke-width:5;stroke-linecap:round;stroke-linejoin:round;stroke:rgb(0%,0%,0%);stroke-opacity:1;stroke-miterlimit:10;" d="M 746.367188 844.0625 L 838.515625 899.492188 L 930.625 844.0625 L 930.625 740 L 838.515625 684.570313 L 746.367188 740 L 746.367188 844.0625 Z M 746.367188 844.0625 " transform="matrix(0.1,0,0,-0.1,0,107)"/>
<path style="fill:none;stroke-width:5;stroke-linecap:round;stroke-linejoin:round;stroke:rgb(0%,0%,0%);stroke-opacity:1;stroke-miterlimit:10;" d="M 746.367188 844.0625 L 838.515625 788.59375 L 930.625 844.0625 " transform="matrix(0.1,0,0,-0.1,0,107)"/>
<path style="fill:none;stroke-width:5;stroke-linecap:round;stroke-linejoin:round;stroke:rgb(0%,0%,0%);stroke-opacity:1;stroke-miterlimit:10;" d="M 838.515625 788.59375 L 838.515625 684.570313 " transform="matrix(0.1,0,0,-0.1,0,107)"/>
<path style=" stroke:none;fill-rule:nonzero;fill:rgb(100%,100%,100%);fill-opacity:1;" d="M 65.425781 28.484375 L 74.636719 22.941406 L 83.851563 28.484375 L 83.851563 38.890625 L 74.636719 44.433594 L 65.425781 38.890625 "/>
<path style="fill:none;stroke-width:5;stroke-linecap:round;stroke-linejoin:round;stroke:rgb(0%,0%,0%);stroke-opacity:1;stroke-miterlimit:10;" d="M 654.257813 785.15625 L 746.367188 840.585938 L 838.515625 785.15625 L 838.515625 681.09375 L 746.367188 625.664063 L 654.257813 681.09375 L 654.257813 785.15625 Z M 654.257813 785.15625 " transform="matrix(0.1,0,0,-0.1,0,107)"/>
<path style="fill:none;stroke-width:5;stroke-linecap:round;stroke-linejoin:round;stroke:rgb(0%,0%,0%);stroke-opacity:1;stroke-miterlimit:10;" d="M 654.257813 785.15625 L 746.367188 729.6875 L 838.515625 785.15625 " transform="matrix(0.1,0,0,-0.1,0,107)"/>
<path style="fill:none;stroke-width:5;stroke-linecap:round;stroke-linejoin:round;stroke:rgb(0%,0%,0%);stroke-opacity:1;stroke-miterlimit:10;" d="M 746.367188 729.6875 L 746.367188 625.664063 " transform="matrix(0.1,0,0,-0.1,0,107)"/>
<path style=" stroke:none;fill-rule:nonzero;fill:rgb(100%,100%,100%);fill-opacity:1;" d="M 56.210938 34.898438 L 65.425781 29.351563 L 74.636719 34.898438 L 74.636719 45.300781 L 65.425781 50.847656 L 56.210938 45.300781 "/>
<path style="fill:none;stroke-width:5;stroke-linecap:round;stroke-linejoin:round;stroke:rgb(0%,0%,0%);stroke-opacity:1;stroke-miterlimit:10;" d="M 562.109375 721.015625 L 654.257813 776.484375 L 746.367188 721.015625 L 746.367188 616.992188 L 654.257813 561.523438 L 562.109375 616.992188 L 562.109375 721.015625 Z M 562.109375 721.015625 " transform="matrix(0.1,0,0,-0.1,0,107)"/>
<path style="fill:none;stroke-width:5;stroke-linecap:round;stroke-linejoin:round;stroke:rgb(0%,0%,0%);stroke-opacity:1;stroke-miterlimit:10;" d="M 562.109375 721.015625 L 654.257813 665.585938 L 746.367188 721.015625 " transform="matrix(0.1,0,0,-0.1,0,107)"/>
<path style="fill:none;stroke-width:5;stroke-linecap:round;stroke-linejoin:round;stroke:rgb(0%,0%,0%);stroke-opacity:1;stroke-miterlimit:10;" d="M 654.257813 665.585938 L 654.257813 561.523438 " transform="matrix(0.1,0,0,-0.1,0,107)"/>
<path style=" stroke:none;fill-rule:nonzero;fill:rgb(100%,100%,100%);fill-opacity:1;" d="M 47 41.308594 L 56.210938 35.765625 L 65.425781 41.308594 L 65.425781 51.714844 L 56.210938 57.257813 L 47 51.714844 "/>
<path style="fill:none;stroke-width:5;stroke-linecap:round;stroke-linejoin:round;stroke:rgb(0%,0%,0%);stroke-opacity:1;stroke-miterlimit:10;" d="M 470 656.914063 L 562.109375 712.34375 L 654.257813 656.914063 L 654.257813 552.851563 L 562.109375 497.421875 L 470 552.851563 L 470 656.914063 Z M 470 656.914063 " transform="matrix(0.1,0,0,-0.1,0,107)"/>
<path style="fill:none;stroke-width:5;stroke-linecap:round;stroke-linejoin:round;stroke:rgb(0%,0%,0%);stroke-opacity:1;stroke-miterlimit:10;" d="M 470 656.914063 L 562.109375 601.484375 L 654.257813 656.914063 " transform="matrix(0.1,0,0,-0.1,0,107)"/>
<path style="fill:none;stroke-width:5;stroke-linecap:round;stroke-linejoin:round;stroke:rgb(0%,0%,0%);stroke-opacity:1;stroke-miterlimit:10;" d="M 562.109375 601.484375 L 562.109375 497.421875 " transform="matrix(0.1,0,0,-0.1,0,107)"/>
<path style=" stroke:none;fill-rule:nonzero;fill:rgb(100%,100%,100%);fill-opacity:1;" d="M 37.785156 47.71875 L 47 42.175781 L 56.210938 47.71875 L 56.210938 58.125 L 47 63.667969 L 37.785156 58.125 "/>
<path style="fill:none;stroke-width:5;stroke-linecap:round;stroke-linejoin:round;stroke:rgb(0%,0%,0%);stroke-opacity:1;stroke-miterlimit:10;" d="M 377.851563 592.8125 L 470 648.242188 L 562.109375 592.8125 L 562.109375 488.75 L 470 433.320313 L 377.851563 488.75 L 377.851563 592.8125 Z M 377.851563 592.8125 " transform="matrix(0.1,0,0,-0.1,0,107)"/>
<path style="fill:none;stroke-width:5;stroke-linecap:round;stroke-linejoin:round;stroke:rgb(0%,0%,0%);stroke-opacity:1;stroke-miterlimit:10;" d="M 377.851563 592.8125 L 470 537.34375 L 562.109375 592.8125 " transform="matrix(0.1,0,0,-0.1,0,107)"/>
<path style="fill:none;stroke-width:5;stroke-linecap:round;stroke-linejoin:round;stroke:rgb(0%,0%,0%);stroke-opacity:1;stroke-miterlimit:10;" d="M 470 537.34375 L 470 433.320313 " transform="matrix(0.1,0,0,-0.1,0,107)"/>
<path style=" stroke:none;fill-rule:nonzero;fill:rgb(100%,100%,100%);fill-opacity:1;" d="M 28.574219 53.957031 L 37.785156 48.414063 L 47 53.957031 L 47 64.363281 L 37.785156 69.90625 L 28.574219 64.363281 "/>
<path style="fill:none;stroke-width:5;stroke-linecap:round;stroke-linejoin:round;stroke:rgb(0%,0%,0%);stroke-opacity:1;stroke-miterlimit:10;" d="M 285.742188 530.429688 L 377.851563 585.859375 L 470 530.429688 L 470 426.367188 L 377.851563 370.9375 L 285.742188 426.367188 L 285.742188 530.429688 Z M 285.742188 530.429688 " transform="matrix(0.1,0,0,-0.1,0,107)"/>
<path style="fill:none;stroke-width:5;stroke-linecap:round;stroke-linejoin:round;stroke:rgb(0%,0%,0%);stroke-opacity:1;stroke-miterlimit:10;" d="M 285.742188 530.429688 L 377.851563 474.960938 L 470 530.429688 " transform="matrix(0.1,0,0,-0.1,0,107)"/>
<path style="fill:none;stroke-width:5;stroke-linecap:round;stroke-linejoin:round;stroke:rgb(0%,0%,0%);stroke-opacity:1;stroke-miterlimit:10;" d="M 377.851563 474.960938 L 377.851563 370.9375 " transform="matrix(0.1,0,0,-0.1,0,107)"/>
<path style=" stroke:none;fill-rule:nonzero;fill:rgb(100%,100%,100%);fill-opacity:1;" d="M 19.363281 59.800781 L 28.574219 54.257813 L 37.785156 59.800781 L 37.785156 70.207031 L 28.574219 75.75 L 19.363281 70.207031 "/>
<path style="fill:none;stroke-width:5;stroke-linecap:round;stroke-linejoin:round;stroke:rgb(0%,0%,0%);stroke-opacity:1;stroke-miterlimit:10;" d="M 193.632813 471.992188 L 285.742188 527.421875 L 377.851563 471.992188 L 377.851563 367.929688 L 285.742188 312.5 L 193.632813 367.929688 L 193.632813 471.992188 Z M 193.632813 471.992188 " transform="matrix(0.1,0,0,-0.1,0,107)"/>
<path style="fill:none;stroke-width:5;stroke-linecap:round;stroke-linejoin:round;stroke:rgb(0%,0%,0%);stroke-opacity:1;stroke-miterlimit:10;" d="M 193.632813 471.992188 L 285.742188 416.5625 L 377.851563 471.992188 " transform="matrix(0.1,0,0,-0.1,0,107)"/>
<path style="fill:none;stroke-width:5;stroke-linecap:round;stroke-linejoin:round;stroke:rgb(0%,0%,0%);stroke-opacity:1;stroke-miterlimit:10;" d="M 285.742188 416.5625 L 285.742188 312.5 " transform="matrix(0.1,0,0,-0.1,0,107)"/>
<path style=" stroke:none;fill-rule:nonzero;fill:rgb(100%,100%,100%);fill-opacity:1;" d="M 93.0625 22.074219 L 102.273438 16.53125 L 111.488281 22.074219 L 111.488281 32.480469 L 102.273438 38.023438 L 93.0625 32.480469 "/>
<path style="fill:none;stroke-width:5;stroke-linecap:round;stroke-linejoin:round;stroke:rgb(0%,0%,0%);stroke-opacity:1;stroke-miterlimit:10;" d="M 930.625 849.257813 L 1022.734375 904.6875 L 1114.882813 849.257813 L 1114.882813 745.195313 L 1022.734375 689.765625 L 930.625 745.195313 L 930.625 849.257813 Z M 930.625 849.257813 " transform="matrix(0.1,0,0,-0.1,0,107)"/>
<path style="fill:none;stroke-width:5;stroke-linecap:round;stroke-linejoin:round;stroke:rgb(0%,0%,0%);stroke-opacity:1;stroke-miterlimit:10;" d="M 930.625 849.257813 L 1022.734375 793.828125 L 1114.882813 849.257813 " transform="matrix(0.1,0,0,-0.1,0,107)"/>
<path style="fill:none;stroke-width:5;stroke-linecap:round;stroke-linejoin:round;stroke:rgb(0%,0%,0%);stroke-opacity:1;stroke-miterlimit:10;" d="M 1022.734375 793.828125 L 1022.734375 689.765625 " transform="matrix(0.1,0,0,-0.1,0,107)"/>
<path style=" stroke:none;fill-rule:nonzero;fill:rgb(100%,100%,100%);fill-opacity:1;" d="M 83.851563 27.617188 L 93.0625 22.074219 L 102.273438 27.617188 L 102.273438 38.023438 L 93.0625 43.570313 L 83.851563 38.023438 "/>
<path style="fill:none;stroke-width:5;stroke-linecap:round;stroke-linejoin:round;stroke:rgb(0%,0%,0%);stroke-opacity:1;stroke-miterlimit:10;" d="M 838.515625 793.828125 L 930.625 849.257813 L 1022.734375 793.828125 L 1022.734375 689.765625 L 930.625 634.296875 L 838.515625 689.765625 L 838.515625 793.828125 Z M 838.515625 793.828125 " transform="matrix(0.1,0,0,-0.1,0,107)"/>
<path style="fill:none;stroke-width:5;stroke-linecap:round;stroke-linejoin:round;stroke:rgb(0%,0%,0%);stroke-opacity:1;stroke-miterlimit:10;" d="M 838.515625 793.828125 L 930.625 738.359375 L 1022.734375 793.828125 " transform="matrix(0.1,0,0,-0.1,0,107)"/>
<path style="fill:none;stroke-width:5;stroke-linecap:round;stroke-linejoin:round;stroke:rgb(0%,0%,0%);stroke-opacity:1;stroke-miterlimit:10;" d="M 930.625 738.359375 L 930.625 634.296875 " transform="matrix(0.1,0,0,-0.1,0,107)"/>
<path style=" stroke:none;fill-rule:nonzero;fill:rgb(100%,100%,100%);fill-opacity:1;" d="M 74.636719 33.164063 L 83.851563 27.617188 L 93.0625 33.164063 L 93.0625 43.570313 L 83.851563 49.113281 L 74.636719 43.570313 "/>
<path style="fill:none;stroke-width:5;stroke-linecap:round;stroke-linejoin:round;stroke:rgb(0%,0%,0%);stroke-opacity:1;stroke-miterlimit:10;" d="M 746.367188 738.359375 L 838.515625 793.828125 L 930.625 738.359375 L 930.625 634.296875 L 838.515625 578.867188 L 746.367188 634.296875 L 746.367188 738.359375 Z M 746.367188 738.359375 " transform="matrix(0.1,0,0,-0.1,0,107)"/>
<path style="fill:none;stroke-width:5;stroke-linecap:round;stroke-linejoin:round;stroke:rgb(0%,0%,0%);stroke-opacity:1;stroke-miterlimit:10;" d="M 746.367188 738.359375 L 838.515625 682.929688 L 930.625 738.359375 " transform="matrix(0.1,0,0,-0.1,0,107)"/>
<path style="fill:none;stroke-width:5;stroke-linecap:round;stroke-linejoin:round;stroke:rgb(0%,0%,0%);stroke-opacity:1;stroke-miterlimit:10;" d="M 838.515625 682.929688 L 838.515625 578.867188 " transform="matrix(0.1,0,0,-0.1,0,107)"/>
<path style=" stroke:none;fill-rule:nonzero;fill:rgb(100%,100%,100%);fill-opacity:1;" d="M 65.425781 38.707031 L 74.636719 33.164063 L 83.851563 38.707031 L 83.851563 49.113281 L 74.636719 54.65625 L 65.425781 49.113281 "/>
<path style="fill:none;stroke-width:5;stroke-linecap:round;stroke-linejoin:round;stroke:rgb(0%,0%,0%);stroke-opacity:1;stroke-miterlimit:10;" d="M 654.257813 682.929688 L 746.367188 738.359375 L 838.515625 682.929688 L 838.515625 578.867188 L 746.367188 523.4375 L 654.257813 578.867188 L 654.257813 682.929688 Z M 654.257813 682.929688 " transform="matrix(0.1,0,0,-0.1,0,107)"/>
<path style="fill:none;stroke-width:5;stroke-linecap:round;stroke-linejoin:round;stroke:rgb(0%,0%,0%);stroke-opacity:1;stroke-miterlimit:10;" d="M 654.257813 682.929688 L 746.367188 627.460938 L 838.515625 682.929688 " transform="matrix(0.1,0,0,-0.1,0,107)"/>
<path style="fill:none;stroke-width:5;stroke-linecap:round;stroke-linejoin:round;stroke:rgb(0%,0%,0%);stroke-opacity:1;stroke-miterlimit:10;" d="M 746.367188 627.460938 L 746.367188 523.4375 " transform="matrix(0.1,0,0,-0.1,0,107)"/>
<path style=" stroke:none;fill-rule:nonzero;fill:rgb(100%,100%,100%);fill-opacity:1;" d="M 56.210938 46.851563 L 65.425781 41.308594 L 74.636719 46.851563 L 74.636719 57.257813 L 65.425781 62.800781 L 56.210938 57.257813 "/>
<path style="fill:none;stroke-width:5;stroke-linecap:round;stroke-linejoin:round;stroke:rgb(0%,0%,0%);stroke-opacity:1;stroke-miterlimit:10;" d="M 562.109375 601.484375 L 654.257813 656.914063 L 746.367188 601.484375 L 746.367188 497.421875 L 654.257813 441.992188 L 562.109375 497.421875 L 562.109375 601.484375 Z M 562.109375 601.484375 " transform="matrix(0.1,0,0,-0.1,0,107)"/>
<path style="fill:none;stroke-width:5;stroke-linecap:round;stroke-linejoin:round;stroke:rgb(0%,0%,0%);stroke-opacity:1;stroke-miterlimit:10;" d="M 562.109375 601.484375 L 654.257813 546.015625 L 746.367188 601.484375 " transform="matrix(0.1,0,0,-0.1,0,107)"/>
<path style="fill:none;stroke-width:5;stroke-linecap:round;stroke-linejoin:round;stroke:rgb(0%,0%,0%);stroke-opacity:1;stroke-miterlimit:10;" d="M 654.257813 546.015625 L 654.257813 441.992188 " transform="matrix(0.1,0,0,-0.1,0,107)"/>
<path style=" stroke:none;fill-rule:nonzero;fill:rgb(100%,100%,100%);fill-opacity:1;" d="M 47 54.132813 L 56.210938 48.585938 L 65.425781 54.132813 L 65.425781 64.535156 L 56.210938 70.082031 L 47 64.535156 "/>
<path style="fill:none;stroke-width:5;stroke-linecap:round;stroke-linejoin:round;stroke:rgb(0%,0%,0%);stroke-opacity:1;stroke-miterlimit:10;" d="M 470 528.671875 L 562.109375 584.140625 L 654.257813 528.671875 L 654.257813 424.648438 L 562.109375 369.179688 L 470 424.648438 L 470 528.671875 Z M 470 528.671875 " transform="matrix(0.1,0,0,-0.1,0,107)"/>
<path style="fill:none;stroke-width:5;stroke-linecap:round;stroke-linejoin:round;stroke:rgb(0%,0%,0%);stroke-opacity:1;stroke-miterlimit:10;" d="M 470 528.671875 L 562.109375 473.242188 L 654.257813 528.671875 " transform="matrix(0.1,0,0,-0.1,0,107)"/>
<path style="fill:none;stroke-width:5;stroke-linecap:round;stroke-linejoin:round;stroke:rgb(0%,0%,0%);stroke-opacity:1;stroke-miterlimit:10;" d="M 562.109375 473.242188 L 562.109375 369.179688 " transform="matrix(0.1,0,0,-0.1,0,107)"/>
<path style=" stroke:none;fill-rule:nonzero;fill:rgb(100%,100%,100%);fill-opacity:1;" d="M 37.785156 60.023438 L 47 54.476563 L 56.210938 60.023438 L 56.210938 70.429688 L 47 75.972656 L 37.785156 70.429688 "/>
<path style="fill:none;stroke-width:5;stroke-linecap:round;stroke-linejoin:round;stroke:rgb(0%,0%,0%);stroke-opacity:1;stroke-miterlimit:10;" d="M 377.851563 469.765625 L 470 525.234375 L 562.109375 469.765625 L 562.109375 365.703125 L 470 310.273438 L 377.851563 365.703125 L 377.851563 469.765625 Z M 377.851563 469.765625 " transform="matrix(0.1,0,0,-0.1,0,107)"/>
<path style="fill:none;stroke-width:5;stroke-linecap:round;stroke-linejoin:round;stroke:rgb(0%,0%,0%);stroke-opacity:1;stroke-miterlimit:10;" d="M 377.851563 469.765625 L 470 414.335938 L 562.109375 469.765625 " transform="matrix(0.1,0,0,-0.1,0,107)"/>
<path style="fill:none;stroke-width:5;stroke-linecap:round;stroke-linejoin:round;stroke:rgb(0%,0%,0%);stroke-opacity:1;stroke-miterlimit:10;" d="M 470 414.335938 L 470 310.273438 " transform="matrix(0.1,0,0,-0.1,0,107)"/>
<path style=" stroke:none;fill-rule:nonzero;fill:rgb(100%,100%,100%);fill-opacity:1;" d="M 28.574219 65.714844 L 37.785156 60.171875 L 47 65.714844 L 47 76.121094 L 37.785156 81.664063 L 28.574219 76.121094 "/>
<path style="fill:none;stroke-width:5;stroke-linecap:round;stroke-linejoin:round;stroke:rgb(0%,0%,0%);stroke-opacity:1;stroke-miterlimit:10;" d="M 285.742188 412.851563 L 377.851563 468.28125 L 470 412.851563 L 470 308.789063 L 377.851563 253.359375 L 285.742188 308.789063 L 285.742188 412.851563 Z M 285.742188 412.851563 " transform="matrix(0.1,0,0,-0.1,0,107)"/>
<path style="fill:none;stroke-width:5;stroke-linecap:round;stroke-linejoin:round;stroke:rgb(0%,0%,0%);stroke-opacity:1;stroke-miterlimit:10;" d="M 285.742188 412.851563 L 377.851563 357.382813 L 470 412.851563 " transform="matrix(0.1,0,0,-0.1,0,107)"/>
<path style="fill:none;stroke-width:5;stroke-linecap:round;stroke-linejoin:round;stroke:rgb(0%,0%,0%);stroke-opacity:1;stroke-miterlimit:10;" d="M 377.851563 357.382813 L 377.851563 253.359375 " transform="matrix(0.1,0,0,-0.1,0,107)"/>
<path style=" stroke:none;fill-rule:nonzero;fill:rgb(100%,100%,100%);fill-opacity:1;" d="M 102.273438 27.246094 L 111.488281 21.703125 L 120.699219 27.246094 L 120.699219 37.652344 L 111.488281 43.195313 L 102.273438 37.652344 "/>
<path style="fill:none;stroke-width:5;stroke-linecap:round;stroke-linejoin:round;stroke:rgb(0%,0%,0%);stroke-opacity:1;stroke-miterlimit:10;" d="M 1022.734375 797.539063 L 1114.882813 852.96875 L 1206.992188 797.539063 L 1206.992188 693.476563 L 1114.882813 638.046875 L 1022.734375 693.476563 L 1022.734375 797.539063 Z M 1022.734375 797.539063 " transform="matrix(0.1,0,0,-0.1,0,107)"/>
<path style="fill:none;stroke-width:5;stroke-linecap:round;stroke-linejoin:round;stroke:rgb(0%,0%,0%);stroke-opacity:1;stroke-miterlimit:10;" d="M 1022.734375 797.539063 L 1114.882813 742.070313 L 1206.992188 797.539063 " transform="matrix(0.1,0,0,-0.1,0,107)"/>
<path style="fill:none;stroke-width:5;stroke-linecap:round;stroke-linejoin:round;stroke:rgb(0%,0%,0%);stroke-opacity:1;stroke-miterlimit:10;" d="M 1114.882813 742.070313 L 1114.882813 638.046875 " transform="matrix(0.1,0,0,-0.1,0,107)"/>
<path style=" stroke:none;fill-rule:nonzero;fill:rgb(100%,100%,100%);fill-opacity:1;" d="M 93.0625 32.644531 L 102.273438 27.097656 L 111.488281 32.644531 L 111.488281 43.046875 L 102.273438 48.59375 L 93.0625 43.046875 "/>
<path style="fill:none;stroke-width:5;stroke-linecap:round;stroke-linejoin:round;stroke:rgb(0%,0%,0%);stroke-opacity:1;stroke-miterlimit:10;" d="M 930.625 743.554688 L 1022.734375 799.023438 L 1114.882813 743.554688 L 1114.882813 639.53125 L 1022.734375 584.0625 L 930.625 639.53125 L 930.625 743.554688 Z M 930.625 743.554688 " transform="matrix(0.1,0,0,-0.1,0,107)"/>
<path style="fill:none;stroke-width:5;stroke-linecap:round;stroke-linejoin:round;stroke:rgb(0%,0%,0%);stroke-opacity:1;stroke-miterlimit:10;" d="M 930.625 743.554688 L 1022.734375 688.125 L 1114.882813 743.554688 " transform="matrix(0.1,0,0,-0.1,0,107)"/>
<path style="fill:none;stroke-width:5;stroke-linecap:round;stroke-linejoin:round;stroke:rgb(0%,0%,0%);stroke-opacity:1;stroke-miterlimit:10;" d="M 1022.734375 688.125 L 1022.734375 584.0625 " transform="matrix(0.1,0,0,-0.1,0,107)"/>
<path style=" stroke:none;fill-rule:nonzero;fill:rgb(100%,100%,100%);fill-opacity:1;" d="M 83.851563 37.839844 L 93.0625 32.296875 L 102.273438 37.839844 L 102.273438 48.246094 L 93.0625 53.789063 L 83.851563 48.246094 "/>
<path style="fill:none;stroke-width:5;stroke-linecap:round;stroke-linejoin:round;stroke:rgb(0%,0%,0%);stroke-opacity:1;stroke-miterlimit:10;" d="M 838.515625 691.601563 L 930.625 747.03125 L 1022.734375 691.601563 L 1022.734375 587.539063 L 930.625 532.109375 L 838.515625 587.539063 L 838.515625 691.601563 Z M 838.515625 691.601563 " transform="matrix(0.1,0,0,-0.1,0,107)"/>
<path style="fill:none;stroke-width:5;stroke-linecap:round;stroke-linejoin:round;stroke:rgb(0%,0%,0%);stroke-opacity:1;stroke-miterlimit:10;" d="M 838.515625 691.601563 L 930.625 636.132813 L 1022.734375 691.601563 " transform="matrix(0.1,0,0,-0.1,0,107)"/>
<path style="fill:none;stroke-width:5;stroke-linecap:round;stroke-linejoin:round;stroke:rgb(0%,0%,0%);stroke-opacity:1;stroke-miterlimit:10;" d="M 930.625 636.132813 L 930.625 532.109375 " transform="matrix(0.1,0,0,-0.1,0,107)"/>
<path style=" stroke:none;fill-rule:nonzero;fill:rgb(100%,100%,100%);fill-opacity:1;" d="M 74.636719 41.652344 L 83.851563 36.105469 L 93.0625 41.652344 L 93.0625 52.054688 L 83.851563 57.601563 L 74.636719 52.054688 "/>
<path style="fill:none;stroke-width:5;stroke-linecap:round;stroke-linejoin:round;stroke:rgb(0%,0%,0%);stroke-opacity:1;stroke-miterlimit:10;" d="M 746.367188 653.476563 L 838.515625 708.945313 L 930.625 653.476563 L 930.625 549.453125 L 838.515625 493.984375 L 746.367188 549.453125 L 746.367188 653.476563 Z M 746.367188 653.476563 " transform="matrix(0.1,0,0,-0.1,0,107)"/>
<path style="fill:none;stroke-width:5;stroke-linecap:round;stroke-linejoin:round;stroke:rgb(0%,0%,0%);stroke-opacity:1;stroke-miterlimit:10;" d="M 746.367188 653.476563 L 838.515625 598.046875 L 930.625 653.476563 " transform="matrix(0.1,0,0,-0.1,0,107)"/>
<path style="fill:none;stroke-width:5;stroke-linecap:round;stroke-linejoin:round;stroke:rgb(0%,0%,0%);stroke-opacity:1;stroke-miterlimit:10;" d="M 838.515625 598.046875 L 838.515625 493.984375 " transform="matrix(0.1,0,0,-0.1,0,107)"/>
<path style=" stroke:none;fill-rule:nonzero;fill:rgb(100%,100%,100%);fill-opacity:1;" d="M 65.425781 55 L 74.636719 49.453125 L 83.851563 55 L 83.851563 65.402344 L 74.636719 70.949219 L 65.425781 65.402344 "/>
<path style="fill:none;stroke-width:5;stroke-linecap:round;stroke-linejoin:round;stroke:rgb(0%,0%,0%);stroke-opacity:1;stroke-miterlimit:10;" d="M 654.257813 520 L 746.367188 575.46875 L 838.515625 520 L 838.515625 415.976563 L 746.367188 360.507813 L 654.257813 415.976563 L 654.257813 520 Z M 654.257813 520 " transform="matrix(0.1,0,0,-0.1,0,107)"/>
<path style="fill:none;stroke-width:5;stroke-linecap:round;stroke-linejoin:round;stroke:rgb(0%,0%,0%);stroke-opacity:1;stroke-miterlimit:10;" d="M 654.257813 520 L 746.367188 464.570313 L 838.515625 520 " transform="matrix(0.1,0,0,-0.1,0,107)"/>
<path style="fill:none;stroke-width:5;stroke-linecap:round;stroke-linejoin:round;stroke:rgb(0%,0%,0%);stroke-opacity:1;stroke-miterlimit:10;" d="M 746.367188 464.570313 L 746.367188 360.507813 " transform="matrix(0.1,0,0,-0.1,0,107)"/>
<path style=" stroke:none;fill-rule:nonzero;fill:rgb(100%,100%,100%);fill-opacity:1;" d="M 56.210938 60.542969 L 65.425781 55 L 74.636719 60.542969 L 74.636719 70.949219 L 65.425781 76.492188 L 56.210938 70.949219 "/>
<path style="fill:none;stroke-width:5;stroke-linecap:round;stroke-linejoin:round;stroke:rgb(0%,0%,0%);stroke-opacity:1;stroke-miterlimit:10;" d="M 562.109375 464.570313 L 654.257813 520 L 746.367188 464.570313 L 746.367188 360.507813 L 654.257813 305.078125 L 562.109375 360.507813 L 562.109375 464.570313 Z M 562.109375 464.570313 " transform="matrix(0.1,0,0,-0.1,0,107)"/>
<path style="fill:none;stroke-width:5;stroke-linecap:round;stroke-linejoin:round;stroke:rgb(0%,0%,0%);stroke-opacity:1;stroke-miterlimit:10;" d="M 562.109375 464.570313 L 654.257813 409.140625 L 746.367188 464.570313 " transform="matrix(0.1,0,0,-0.1,0,107)"/>
<path style="fill:none;stroke-width:5;stroke-linecap:round;stroke-linejoin:round;stroke:rgb(0%,0%,0%);stroke-opacity:1;stroke-miterlimit:10;" d="M 654.257813 409.140625 L 654.257813 305.078125 " transform="matrix(0.1,0,0,-0.1,0,107)"/>
<path style=" stroke:none;fill-rule:nonzero;fill:rgb(100%,100%,100%);fill-opacity:1;" d="M 47 66.085938 L 56.210938 60.542969 L 65.425781 66.085938 L 65.425781 76.492188 L 56.210938 82.035156 L 47 76.492188 "/>
<path style="fill:none;stroke-width:5;stroke-linecap:round;stroke-linejoin:round;stroke:rgb(0%,0%,0%);stroke-opacity:1;stroke-miterlimit:10;" d="M 470 409.140625 L 562.109375 464.570313 L 654.257813 409.140625 L 654.257813 305.078125 L 562.109375 249.648438 L 470 305.078125 L 470 409.140625 Z M 470 409.140625 " transform="matrix(0.1,0,0,-0.1,0,107)"/>
<path style="fill:none;stroke-width:5;stroke-linecap:round;stroke-linejoin:round;stroke:rgb(0%,0%,0%);stroke-opacity:1;stroke-miterlimit:10;" d="M 470 409.140625 L 562.109375 353.671875 L 654.257813 409.140625 " transform="matrix(0.1,0,0,-0.1,0,107)"/>
<path style="fill:none;stroke-width:5;stroke-linecap:round;stroke-linejoin:round;stroke:rgb(0%,0%,0%);stroke-opacity:1;stroke-miterlimit:10;" d="M 562.109375 353.671875 L 562.109375 249.648438 " transform="matrix(0.1,0,0,-0.1,0,107)"/>
<path style=" stroke:none;fill-rule:nonzero;fill:rgb(100%,100%,100%);fill-opacity:1;" d="M 37.785156 71.632813 L 47 66.085938 L 56.210938 71.632813 L 56.210938 82.035156 L 47 87.582031 L 37.785156 82.035156 "/>
<path style="fill:none;stroke-width:5;stroke-linecap:round;stroke-linejoin:round;stroke:rgb(0%,0%,0%);stroke-opacity:1;stroke-miterlimit:10;" d="M 377.851563 353.671875 L 470 409.140625 L 562.109375 353.671875 L 562.109375 249.648438 L 470 194.179688 L 377.851563 249.648438 L 377.851563 353.671875 Z M 377.851563 353.671875 " transform="matrix(0.1,0,0,-0.1,0,107)"/>
<path style="fill:none;stroke-width:5;stroke-linecap:round;stroke-linejoin:round;stroke:rgb(0%,0%,0%);stroke-opacity:1;stroke-miterlimit:10;" d="M 377.851563 353.671875 L 470 298.242188 L 562.109375 353.671875 " transform="matrix(0.1,0,0,-0.1,0,107)"/>
<path style="fill:none;stroke-width:5;stroke-linecap:round;stroke-linejoin:round;stroke:rgb(0%,0%,0%);stroke-opacity:1;stroke-miterlimit:10;" d="M 470 298.242188 L 470 194.179688 " transform="matrix(0.1,0,0,-0.1,0,107)"/>
<path style=" stroke:none;fill-rule:nonzero;fill:rgb(100%,100%,100%);fill-opacity:1;" d="M 111.488281 32.421875 L 120.699219 26.875 L 129.914063 32.421875 L 129.914063 42.824219 L 120.699219 48.371094 L 111.488281 42.824219 "/>
<path style="fill:none;stroke-width:5;stroke-linecap:round;stroke-linejoin:round;stroke:rgb(0%,0%,0%);stroke-opacity:1;stroke-miterlimit:10;" d="M 1114.882813 745.78125 L 1206.992188 801.25 L 1299.140625 745.78125 L 1299.140625 641.757813 L 1206.992188 586.289063 L 1114.882813 641.757813 L 1114.882813 745.78125 Z M 1114.882813 745.78125 " transform="matrix(0.1,0,0,-0.1,0,107)"/>
<path style="fill:none;stroke-width:5;stroke-linecap:round;stroke-linejoin:round;stroke:rgb(0%,0%,0%);stroke-opacity:1;stroke-miterlimit:10;" d="M 1114.882813 745.78125 L 1206.992188 690.351563 L 1299.140625 745.78125 " transform="matrix(0.1,0,0,-0.1,0,107)"/>
<path style="fill:none;stroke-width:5;stroke-linecap:round;stroke-linejoin:round;stroke:rgb(0%,0%,0%);stroke-opacity:1;stroke-miterlimit:10;" d="M 1206.992188 690.351563 L 1206.992188 586.289063 " transform="matrix(0.1,0,0,-0.1,0,107)"/>
<path style=" stroke:none;fill-rule:nonzero;fill:rgb(100%,100%,100%);fill-opacity:1;" d="M 102.273438 37.667969 L 111.488281 32.121094 L 120.699219 37.667969 L 120.699219 48.074219 L 111.488281 53.617188 L 102.273438 48.074219 "/>
<path style="fill:none;stroke-width:5;stroke-linecap:round;stroke-linejoin:round;stroke:rgb(0%,0%,0%);stroke-opacity:1;stroke-miterlimit:10;" d="M 1022.734375 693.320313 L 1114.882813 748.789063 L 1206.992188 693.320313 L 1206.992188 589.257813 L 1114.882813 533.828125 L 1022.734375 589.257813 L 1022.734375 693.320313 Z M 1022.734375 693.320313 " transform="matrix(0.1,0,0,-0.1,0,107)"/>
<path style="fill:none;stroke-width:5;stroke-linecap:round;stroke-linejoin:round;stroke:rgb(0%,0%,0%);stroke-opacity:1;stroke-miterlimit:10;" d="M 1022.734375 693.320313 L 1114.882813 637.890625 L 1206.992188 693.320313 " transform="matrix(0.1,0,0,-0.1,0,107)"/>
<path style="fill:none;stroke-width:5;stroke-linecap:round;stroke-linejoin:round;stroke:rgb(0%,0%,0%);stroke-opacity:1;stroke-miterlimit:10;" d="M 1114.882813 637.890625 L 1114.882813 533.828125 " transform="matrix(0.1,0,0,-0.1,0,107)"/>
<path style=" stroke:none;fill-rule:nonzero;fill:rgb(100%,100%,100%);fill-opacity:1;" d="M 93.0625 42.519531 L 102.273438 36.972656 L 111.488281 42.519531 L 111.488281 52.921875 L 102.273438 58.46875 L 93.0625 52.921875 "/>
<path style="fill:none;stroke-width:5;stroke-linecap:round;stroke-linejoin:round;stroke:rgb(0%,0%,0%);stroke-opacity:1;stroke-miterlimit:10;" d="M 930.625 644.804688 L 1022.734375 700.273438 L 1114.882813 644.804688 L 1114.882813 540.78125 L 1022.734375 485.3125 L 930.625 540.78125 L 930.625 644.804688 Z M 930.625 644.804688 " transform="matrix(0.1,0,0,-0.1,0,107)"/>
<path style="fill:none;stroke-width:5;stroke-linecap:round;stroke-linejoin:round;stroke:rgb(0%,0%,0%);stroke-opacity:1;stroke-miterlimit:10;" d="M 930.625 644.804688 L 1022.734375 589.375 L 1114.882813 644.804688 " transform="matrix(0.1,0,0,-0.1,0,107)"/>
<path style="fill:none;stroke-width:5;stroke-linecap:round;stroke-linejoin:round;stroke:rgb(0%,0%,0%);stroke-opacity:1;stroke-miterlimit:10;" d="M 1022.734375 589.375 L 1022.734375 485.3125 " transform="matrix(0.1,0,0,-0.1,0,107)"/>
<path style=" stroke:none;fill-rule:nonzero;fill:rgb(100%,100%,100%);fill-opacity:1;" d="M 83.851563 47.195313 L 93.0625 41.652344 L 102.273438 47.195313 L 102.273438 57.601563 L 93.0625 63.144531 L 83.851563 57.601563 "/>
<path style="fill:none;stroke-width:5;stroke-linecap:round;stroke-linejoin:round;stroke:rgb(0%,0%,0%);stroke-opacity:1;stroke-miterlimit:10;" d="M 838.515625 598.046875 L 930.625 653.476563 L 1022.734375 598.046875 L 1022.734375 493.984375 L 930.625 438.554688 L 838.515625 493.984375 L 838.515625 598.046875 Z M 838.515625 598.046875 " transform="matrix(0.1,0,0,-0.1,0,107)"/>
<path style="fill:none;stroke-width:5;stroke-linecap:round;stroke-linejoin:round;stroke:rgb(0%,0%,0%);stroke-opacity:1;stroke-miterlimit:10;" d="M 838.515625 598.046875 L 930.625 542.617188 L 1022.734375 598.046875 " transform="matrix(0.1,0,0,-0.1,0,107)"/>
<path style="fill:none;stroke-width:5;stroke-linecap:round;stroke-linejoin:round;stroke:rgb(0%,0%,0%);stroke-opacity:1;stroke-miterlimit:10;" d="M 930.625 542.617188 L 930.625 438.554688 " transform="matrix(0.1,0,0,-0.1,0,107)"/>
<path style=" stroke:none;fill-rule:nonzero;fill:rgb(100%,100%,100%);fill-opacity:1;" d="M 74.636719 62.277344 L 83.851563 56.734375 L 93.0625 62.277344 L 93.0625 72.683594 L 83.851563 78.226563 L 74.636719 72.683594 "/>
<path style="fill:none;stroke-width:5;stroke-linecap:round;stroke-linejoin:round;stroke:rgb(0%,0%,0%);stroke-opacity:1;stroke-miterlimit:10;" d="M 746.367188 447.226563 L 838.515625 502.65625 L 930.625 447.226563 L 930.625 343.164063 L 838.515625 287.734375 L 746.367188 343.164063 L 746.367188 447.226563 Z M 746.367188 447.226563 " transform="matrix(0.1,0,0,-0.1,0,107)"/>
<path style="fill:none;stroke-width:5;stroke-linecap:round;stroke-linejoin:round;stroke:rgb(0%,0%,0%);stroke-opacity:1;stroke-miterlimit:10;" d="M 746.367188 447.226563 L 838.515625 391.796875 L 930.625 447.226563 " transform="matrix(0.1,0,0,-0.1,0,107)"/>
<path style="fill:none;stroke-width:5;stroke-linecap:round;stroke-linejoin:round;stroke:rgb(0%,0%,0%);stroke-opacity:1;stroke-miterlimit:10;" d="M 838.515625 391.796875 L 838.515625 287.734375 " transform="matrix(0.1,0,0,-0.1,0,107)"/>
<path style=" stroke:none;fill-rule:nonzero;fill:rgb(100%,100%,100%);fill-opacity:1;" d="M 65.425781 66.953125 L 74.636719 61.410156 L 83.851563 66.953125 L 83.851563 77.359375 L 74.636719 82.902344 L 65.425781 77.359375 "/>
<path style="fill:none;stroke-width:5;stroke-linecap:round;stroke-linejoin:round;stroke:rgb(0%,0%,0%);stroke-opacity:1;stroke-miterlimit:10;" d="M 654.257813 400.46875 L 746.367188 455.898438 L 838.515625 400.46875 L 838.515625 296.40625 L 746.367188 240.976563 L 654.257813 296.40625 L 654.257813 400.46875 Z M 654.257813 400.46875 " transform="matrix(0.1,0,0,-0.1,0,107)"/>
<path style="fill:none;stroke-width:5;stroke-linecap:round;stroke-linejoin:round;stroke:rgb(0%,0%,0%);stroke-opacity:1;stroke-miterlimit:10;" d="M 654.257813 400.46875 L 746.367188 345 L 838.515625 400.46875 " transform="matrix(0.1,0,0,-0.1,0,107)"/>
<path style="fill:none;stroke-width:5;stroke-linecap:round;stroke-linejoin:round;stroke:rgb(0%,0%,0%);stroke-opacity:1;stroke-miterlimit:10;" d="M 746.367188 345 L 746.367188 240.976563 " transform="matrix(0.1,0,0,-0.1,0,107)"/>
<path style=" stroke:none;fill-rule:nonzero;fill:rgb(100%,100%,100%);fill-opacity:1;" d="M 56.210938 72.152344 L 65.425781 66.609375 L 74.636719 72.152344 L 74.636719 82.558594 L 65.425781 88.101563 L 56.210938 82.558594 "/>
<path style="fill:none;stroke-width:5;stroke-linecap:round;stroke-linejoin:round;stroke:rgb(0%,0%,0%);stroke-opacity:1;stroke-miterlimit:10;" d="M 562.109375 348.476563 L 654.257813 403.90625 L 746.367188 348.476563 L 746.367188 244.414063 L 654.257813 188.984375 L 562.109375 244.414063 L 562.109375 348.476563 Z M 562.109375 348.476563 " transform="matrix(0.1,0,0,-0.1,0,107)"/>
<path style="fill:none;stroke-width:5;stroke-linecap:round;stroke-linejoin:round;stroke:rgb(0%,0%,0%);stroke-opacity:1;stroke-miterlimit:10;" d="M 562.109375 348.476563 L 654.257813 293.046875 L 746.367188 348.476563 " transform="matrix(0.1,0,0,-0.1,0,107)"/>
<path style="fill:none;stroke-width:5;stroke-linecap:round;stroke-linejoin:round;stroke:rgb(0%,0%,0%);stroke-opacity:1;stroke-miterlimit:10;" d="M 654.257813 293.046875 L 654.257813 188.984375 " transform="matrix(0.1,0,0,-0.1,0,107)"/>
<path style=" stroke:none;fill-rule:nonzero;fill:rgb(100%,100%,100%);fill-opacity:1;" d="M 47 77.546875 L 56.210938 72.003906 L 65.425781 77.546875 L 65.425781 87.953125 L 56.210938 93.496094 L 47 87.953125 "/>
<path style="fill:none;stroke-width:5;stroke-linecap:round;stroke-linejoin:round;stroke:rgb(0%,0%,0%);stroke-opacity:1;stroke-miterlimit:10;" d="M 470 294.53125 L 562.109375 349.960938 L 654.257813 294.53125 L 654.257813 190.46875 L 562.109375 135.039063 L 470 190.46875 L 470 294.53125 Z M 470 294.53125 " transform="matrix(0.1,0,0,-0.1,0,107)"/>
<path style="fill:none;stroke-width:5;stroke-linecap:round;stroke-linejoin:round;stroke:rgb(0%,0%,0%);stroke-opacity:1;stroke-miterlimit:10;" d="M 470 294.53125 L 562.109375 239.0625 L 654.257813 294.53125 " transform="matrix(0.1,0,0,-0.1,0,107)"/>
<path style="fill:none;stroke-width:5;stroke-linecap:round;stroke-linejoin:round;stroke:rgb(0%,0%,0%);stroke-opacity:1;stroke-miterlimit:10;" d="M 562.109375 239.0625 L 562.109375 135.039063 " transform="matrix(0.1,0,0,-0.1,0,107)"/>
<path style=" stroke:none;fill-rule:nonzero;fill:rgb(100%,100%,100%);fill-opacity:1;" d="M 120.699219 37.59375 L 129.914063 32.046875 L 139.125 37.59375 L 139.125 47.996094 L 129.914063 53.542969 L 120.699219 47.996094 "/>
<path style="fill:none;stroke-width:5;stroke-linecap:round;stroke-linejoin:round;stroke:rgb(0%,0%,0%);stroke-opacity:1;stroke-miterlimit:10;" d="M 1206.992188 694.0625 L 1299.140625 749.53125 L 1391.25 694.0625 L 1391.25 590.039063 L 1299.140625 534.570313 L 1206.992188 590.039063 L 1206.992188 694.0625 Z M 1206.992188 694.0625 " transform="matrix(0.1,0,0,-0.1,0,107)"/>
<path style="fill:none;stroke-width:5;stroke-linecap:round;stroke-linejoin:round;stroke:rgb(0%,0%,0%);stroke-opacity:1;stroke-miterlimit:10;" d="M 1206.992188 694.0625 L 1299.140625 638.632813 L 1391.25 694.0625 " transform="matrix(0.1,0,0,-0.1,0,107)"/>
<path style="fill:none;stroke-width:5;stroke-linecap:round;stroke-linejoin:round;stroke:rgb(0%,0%,0%);stroke-opacity:1;stroke-miterlimit:10;" d="M 1299.140625 638.632813 L 1299.140625 534.570313 " transform="matrix(0.1,0,0,-0.1,0,107)"/>
<path style=" stroke:none;fill-rule:nonzero;fill:rgb(100%,100%,100%);fill-opacity:1;" d="M 111.488281 42.691406 L 120.699219 37.148438 L 129.914063 42.691406 L 129.914063 53.097656 L 120.699219 58.640625 L 111.488281 53.097656 "/>
<path style="fill:none;stroke-width:5;stroke-linecap:round;stroke-linejoin:round;stroke:rgb(0%,0%,0%);stroke-opacity:1;stroke-miterlimit:10;" d="M 1114.882813 643.085938 L 1206.992188 698.515625 L 1299.140625 643.085938 L 1299.140625 539.023438 L 1206.992188 483.59375 L 1114.882813 539.023438 L 1114.882813 643.085938 Z M 1114.882813 643.085938 " transform="matrix(0.1,0,0,-0.1,0,107)"/>
<path style="fill:none;stroke-width:5;stroke-linecap:round;stroke-linejoin:round;stroke:rgb(0%,0%,0%);stroke-opacity:1;stroke-miterlimit:10;" d="M 1114.882813 643.085938 L 1206.992188 587.65625 L 1299.140625 643.085938 " transform="matrix(0.1,0,0,-0.1,0,107)"/>
<path style="fill:none;stroke-width:5;stroke-linecap:round;stroke-linejoin:round;stroke:rgb(0%,0%,0%);stroke-opacity:1;stroke-miterlimit:10;" d="M 1206.992188 587.65625 L 1206.992188 483.59375 " transform="matrix(0.1,0,0,-0.1,0,107)"/>
<path style=" stroke:none;fill-rule:nonzero;fill:rgb(100%,100%,100%);fill-opacity:1;" d="M 102.273438 47.714844 L 111.488281 42.171875 L 120.699219 47.714844 L 120.699219 58.121094 L 111.488281 63.664063 L 102.273438 58.121094 "/>
<path style="fill:none;stroke-width:5;stroke-linecap:round;stroke-linejoin:round;stroke:rgb(0%,0%,0%);stroke-opacity:1;stroke-miterlimit:10;" d="M 1022.734375 592.851563 L 1114.882813 648.28125 L 1206.992188 592.851563 L 1206.992188 488.789063 L 1114.882813 433.359375 L 1022.734375 488.789063 L 1022.734375 592.851563 Z M 1022.734375 592.851563 " transform="matrix(0.1,0,0,-0.1,0,107)"/>
<path style="fill:none;stroke-width:5;stroke-linecap:round;stroke-linejoin:round;stroke:rgb(0%,0%,0%);stroke-opacity:1;stroke-miterlimit:10;" d="M 1022.734375 592.851563 L 1114.882813 537.382813 L 1206.992188 592.851563 " transform="matrix(0.1,0,0,-0.1,0,107)"/>
<path style="fill:none;stroke-width:5;stroke-linecap:round;stroke-linejoin:round;stroke:rgb(0%,0%,0%);stroke-opacity:1;stroke-miterlimit:10;" d="M 1114.882813 537.382813 L 1114.882813 433.359375 " transform="matrix(0.1,0,0,-0.1,0,107)"/>
<path style=" stroke:none;fill-rule:nonzero;fill:rgb(100%,100%,100%);fill-opacity:1;" d="M 93.0625 52.738281 L 102.273438 47.195313 L 111.488281 52.738281 L 111.488281 63.144531 L 102.273438 68.6875 L 93.0625 63.144531 "/>
<path style="fill:none;stroke-width:5;stroke-linecap:round;stroke-linejoin:round;stroke:rgb(0%,0%,0%);stroke-opacity:1;stroke-miterlimit:10;" d="M 930.625 542.617188 L 1022.734375 598.046875 L 1114.882813 542.617188 L 1114.882813 438.554688 L 1022.734375 383.125 L 930.625 438.554688 L 930.625 542.617188 Z M 930.625 542.617188 " transform="matrix(0.1,0,0,-0.1,0,107)"/>
<path style="fill:none;stroke-width:5;stroke-linecap:round;stroke-linejoin:round;stroke:rgb(0%,0%,0%);stroke-opacity:1;stroke-miterlimit:10;" d="M 930.625 542.617188 L 1022.734375 487.148438 L 1114.882813 542.617188 " transform="matrix(0.1,0,0,-0.1,0,107)"/>
<path style="fill:none;stroke-width:5;stroke-linecap:round;stroke-linejoin:round;stroke:rgb(0%,0%,0%);stroke-opacity:1;stroke-miterlimit:10;" d="M 1022.734375 487.148438 L 1022.734375 383.125 " transform="matrix(0.1,0,0,-0.1,0,107)"/>
<path style=" stroke:none;fill-rule:nonzero;fill:rgb(100%,100%,100%);fill-opacity:1;" d="M 83.851563 68.167969 L 93.0625 62.625 L 102.273438 68.167969 L 102.273438 78.574219 L 93.0625 84.117188 L 83.851563 78.574219 "/>
<path style="fill:none;stroke-width:5;stroke-linecap:round;stroke-linejoin:round;stroke:rgb(0%,0%,0%);stroke-opacity:1;stroke-miterlimit:10;" d="M 838.515625 388.320313 L 930.625 443.75 L 1022.734375 388.320313 L 1022.734375 284.257813 L 930.625 228.828125 L 838.515625 284.257813 L 838.515625 388.320313 Z M 838.515625 388.320313 " transform="matrix(0.1,0,0,-0.1,0,107)"/>
<path style="fill:none;stroke-width:5;stroke-linecap:round;stroke-linejoin:round;stroke:rgb(0%,0%,0%);stroke-opacity:1;stroke-miterlimit:10;" d="M 838.515625 388.320313 L 930.625 332.851563 L 1022.734375 388.320313 " transform="matrix(0.1,0,0,-0.1,0,107)"/>
<path style="fill:none;stroke-width:5;stroke-linecap:round;stroke-linejoin:round;stroke:rgb(0%,0%,0%);stroke-opacity:1;stroke-miterlimit:10;" d="M 930.625 332.851563 L 930.625 228.828125 " transform="matrix(0.1,0,0,-0.1,0,107)"/>
<path style=" stroke:none;fill-rule:nonzero;fill:rgb(100%,100%,100%);fill-opacity:1;" d="M 74.636719 73.191406 L 83.851563 67.648438 L 93.0625 73.191406 L 93.0625 83.597656 L 83.851563 89.140625 L 74.636719 83.597656 "/>
<path style="fill:none;stroke-width:5;stroke-linecap:round;stroke-linejoin:round;stroke:rgb(0%,0%,0%);stroke-opacity:1;stroke-miterlimit:10;" d="M 746.367188 338.085938 L 838.515625 393.515625 L 930.625 338.085938 L 930.625 234.023438 L 838.515625 178.59375 L 746.367188 234.023438 L 746.367188 338.085938 Z M 746.367188 338.085938 " transform="matrix(0.1,0,0,-0.1,0,107)"/>
<path style="fill:none;stroke-width:5;stroke-linecap:round;stroke-linejoin:round;stroke:rgb(0%,0%,0%);stroke-opacity:1;stroke-miterlimit:10;" d="M 746.367188 338.085938 L 838.515625 282.617188 L 930.625 338.085938 " transform="matrix(0.1,0,0,-0.1,0,107)"/>
<path style="fill:none;stroke-width:5;stroke-linecap:round;stroke-linejoin:round;stroke:rgb(0%,0%,0%);stroke-opacity:1;stroke-miterlimit:10;" d="M 838.515625 282.617188 L 838.515625 178.59375 " transform="matrix(0.1,0,0,-0.1,0,107)"/>
<path style=" stroke:none;fill-rule:nonzero;fill:rgb(100%,100%,100%);fill-opacity:1;" d="M 65.425781 78.21875 L 74.636719 72.671875 L 83.851563 78.21875 L 83.851563 88.621094 L 74.636719 94.164063 L 65.425781 88.621094 "/>
<path style="fill:none;stroke-width:5;stroke-linecap:round;stroke-linejoin:round;stroke:rgb(0%,0%,0%);stroke-opacity:1;stroke-miterlimit:10;" d="M 654.257813 287.8125 L 746.367188 343.28125 L 838.515625 287.8125 L 838.515625 183.789063 L 746.367188 128.359375 L 654.257813 183.789063 L 654.257813 287.8125 Z M 654.257813 287.8125 " transform="matrix(0.1,0,0,-0.1,0,107)"/>
<path style="fill:none;stroke-width:5;stroke-linecap:round;stroke-linejoin:round;stroke:rgb(0%,0%,0%);stroke-opacity:1;stroke-miterlimit:10;" d="M 654.257813 287.8125 L 746.367188 232.382813 L 838.515625 287.8125 " transform="matrix(0.1,0,0,-0.1,0,107)"/>
<path style="fill:none;stroke-width:5;stroke-linecap:round;stroke-linejoin:round;stroke:rgb(0%,0%,0%);stroke-opacity:1;stroke-miterlimit:10;" d="M 746.367188 232.382813 L 746.367188 128.359375 " transform="matrix(0.1,0,0,-0.1,0,107)"/>
<path style=" stroke:none;fill-rule:nonzero;fill:rgb(100%,100%,100%);fill-opacity:1;" d="M 56.210938 83.464844 L 65.425781 77.917969 L 74.636719 83.464844 L 74.636719 93.867188 L 65.425781 99.414063 L 56.210938 93.867188 "/>
<path style="fill:none;stroke-width:5;stroke-linecap:round;stroke-linejoin:round;stroke:rgb(0%,0%,0%);stroke-opacity:1;stroke-miterlimit:10;" d="M 562.109375 235.351563 L 654.257813 290.820313 L 746.367188 235.351563 L 746.367188 131.328125 L 654.257813 75.859375 L 562.109375 131.328125 L 562.109375 235.351563 Z M 562.109375 235.351563 " transform="matrix(0.1,0,0,-0.1,0,107)"/>
<path style="fill:none;stroke-width:5;stroke-linecap:round;stroke-linejoin:round;stroke:rgb(0%,0%,0%);stroke-opacity:1;stroke-miterlimit:10;" d="M 562.109375 235.351563 L 654.257813 179.921875 L 746.367188 235.351563 " transform="matrix(0.1,0,0,-0.1,0,107)"/>
<path style="fill:none;stroke-width:5;stroke-linecap:round;stroke-linejoin:round;stroke:rgb(0%,0%,0%);stroke-opacity:1;stroke-miterlimit:10;" d="M 654.257813 179.921875 L 654.257813 75.859375 " transform="matrix(0.1,0,0,-0.1,0,107)"/>
<path style=" stroke:none;fill-rule:nonzero;fill:rgb(100%,100%,100%);fill-opacity:1;" d="M 129.914063 53.171875 L 139.125 47.625 L 148.339844 53.171875 L 148.339844 63.574219 L 139.125 69.121094 L 129.914063 63.574219 "/>
<path style="fill:none;stroke-width:5;stroke-linecap:round;stroke-linejoin:round;stroke:rgb(0%,0%,0%);stroke-opacity:1;stroke-miterlimit:10;" d="M 1299.140625 538.28125 L 1391.25 593.75 L 1483.398438 538.28125 L 1483.398438 434.257813 L 1391.25 378.789063 L 1299.140625 434.257813 L 1299.140625 538.28125 Z M 1299.140625 538.28125 " transform="matrix(0.1,0,0,-0.1,0,107)"/>
<path style="fill:none;stroke-width:5;stroke-linecap:round;stroke-linejoin:round;stroke:rgb(0%,0%,0%);stroke-opacity:1;stroke-miterlimit:10;" d="M 1299.140625 538.28125 L 1391.25 482.851563 L 1483.398438 538.28125 " transform="matrix(0.1,0,0,-0.1,0,107)"/>
<path style="fill:none;stroke-width:5;stroke-linecap:round;stroke-linejoin:round;stroke:rgb(0%,0%,0%);stroke-opacity:1;stroke-miterlimit:10;" d="M 1391.25 482.851563 L 1391.25 378.789063 " transform="matrix(0.1,0,0,-0.1,0,107)"/>
<path style=" stroke:none;fill-rule:nonzero;fill:rgb(100%,100%,100%);fill-opacity:1;" d="M 120.699219 58.34375 L 129.914063 52.800781 L 139.125 58.34375 L 139.125 68.75 L 129.914063 74.292969 L 120.699219 68.75 "/>
<path style="fill:none;stroke-width:5;stroke-linecap:round;stroke-linejoin:round;stroke:rgb(0%,0%,0%);stroke-opacity:1;stroke-miterlimit:10;" d="M 1206.992188 486.5625 L 1299.140625 541.992188 L 1391.25 486.5625 L 1391.25 382.5 L 1299.140625 327.070313 L 1206.992188 382.5 L 1206.992188 486.5625 Z M 1206.992188 486.5625 " transform="matrix(0.1,0,0,-0.1,0,107)"/>
<path style="fill:none;stroke-width:5;stroke-linecap:round;stroke-linejoin:round;stroke:rgb(0%,0%,0%);stroke-opacity:1;stroke-miterlimit:10;" d="M 1206.992188 486.5625 L 1299.140625 431.132813 L 1391.25 486.5625 " transform="matrix(0.1,0,0,-0.1,0,107)"/>
<path style="fill:none;stroke-width:5;stroke-linecap:round;stroke-linejoin:round;stroke:rgb(0%,0%,0%);stroke-opacity:1;stroke-miterlimit:10;" d="M 1299.140625 431.132813 L 1299.140625 327.070313 " transform="matrix(0.1,0,0,-0.1,0,107)"/>
<path style=" stroke:none;fill-rule:nonzero;fill:rgb(100%,100%,100%);fill-opacity:1;" d="M 111.488281 63.515625 L 120.699219 57.972656 L 129.914063 63.515625 L 129.914063 73.921875 L 120.699219 79.464844 L 111.488281 73.921875 "/>
<path style="fill:none;stroke-width:5;stroke-linecap:round;stroke-linejoin:round;stroke:rgb(0%,0%,0%);stroke-opacity:1;stroke-miterlimit:10;" d="M 1114.882813 434.84375 L 1206.992188 490.273438 L 1299.140625 434.84375 L 1299.140625 330.78125 L 1206.992188 275.351563 L 1114.882813 330.78125 L 1114.882813 434.84375 Z M 1114.882813 434.84375 " transform="matrix(0.1,0,0,-0.1,0,107)"/>
<path style="fill:none;stroke-width:5;stroke-linecap:round;stroke-linejoin:round;stroke:rgb(0%,0%,0%);stroke-opacity:1;stroke-miterlimit:10;" d="M 1114.882813 434.84375 L 1206.992188 379.414063 L 1299.140625 434.84375 " transform="matrix(0.1,0,0,-0.1,0,107)"/>
<path style="fill:none;stroke-width:5;stroke-linecap:round;stroke-linejoin:round;stroke:rgb(0%,0%,0%);stroke-opacity:1;stroke-miterlimit:10;" d="M 1206.992188 379.414063 L 1206.992188 275.351563 " transform="matrix(0.1,0,0,-0.1,0,107)"/>
<path style=" stroke:none;fill-rule:nonzero;fill:rgb(100%,100%,100%);fill-opacity:1;" d="M 102.273438 68.6875 L 111.488281 63.144531 L 120.699219 68.6875 L 120.699219 79.09375 L 111.488281 84.636719 L 102.273438 79.09375 "/>
<path style="fill:none;stroke-width:5;stroke-linecap:round;stroke-linejoin:round;stroke:rgb(0%,0%,0%);stroke-opacity:1;stroke-miterlimit:10;" d="M 1022.734375 383.125 L 1114.882813 438.554688 L 1206.992188 383.125 L 1206.992188 279.0625 L 1114.882813 223.632813 L 1022.734375 279.0625 L 1022.734375 383.125 Z M 1022.734375 383.125 " transform="matrix(0.1,0,0,-0.1,0,107)"/>
<path style="fill:none;stroke-width:5;stroke-linecap:round;stroke-linejoin:round;stroke:rgb(0%,0%,0%);stroke-opacity:1;stroke-miterlimit:10;" d="M 1022.734375 383.125 L 1114.882813 327.65625 L 1206.992188 383.125 " transform="matrix(0.1,0,0,-0.1,0,107)"/>
<path style="fill:none;stroke-width:5;stroke-linecap:round;stroke-linejoin:round;stroke:rgb(0%,0%,0%);stroke-opacity:1;stroke-miterlimit:10;" d="M 1114.882813 327.65625 L 1114.882813 223.632813 " transform="matrix(0.1,0,0,-0.1,0,107)"/>
<path style=" stroke:none;fill-rule:nonzero;fill:rgb(100%,100%,100%);fill-opacity:1;" d="M 129.914063 42.765625 L 139.125 37.222656 L 148.339844 42.765625 L 148.339844 53.171875 L 139.125 58.714844 L 129.914063 53.171875 "/>
<path style="fill:none;stroke-width:5;stroke-linecap:round;stroke-linejoin:round;stroke:rgb(0%,0%,0%);stroke-opacity:1;stroke-miterlimit:10;" d="M 1299.140625 642.34375 L 1391.25 697.773438 L 1483.398438 642.34375 L 1483.398438 538.28125 L 1391.25 482.851563 L 1299.140625 538.28125 L 1299.140625 642.34375 Z M 1299.140625 642.34375 " transform="matrix(0.1,0,0,-0.1,0,107)"/>
<path style="fill:none;stroke-width:5;stroke-linecap:round;stroke-linejoin:round;stroke:rgb(0%,0%,0%);stroke-opacity:1;stroke-miterlimit:10;" d="M 1299.140625 642.34375 L 1391.25 586.914063 L 1483.398438 642.34375 " transform="matrix(0.1,0,0,-0.1,0,107)"/>
<path style="fill:none;stroke-width:5;stroke-linecap:round;stroke-linejoin:round;stroke:rgb(0%,0%,0%);stroke-opacity:1;stroke-miterlimit:10;" d="M 1391.25 586.914063 L 1391.25 482.851563 " transform="matrix(0.1,0,0,-0.1,0,107)"/>
<path style=" stroke:none;fill-rule:nonzero;fill:rgb(100%,100%,100%);fill-opacity:1;" d="M 120.699219 47.9375 L 129.914063 42.394531 L 139.125 47.9375 L 139.125 58.34375 L 129.914063 63.886719 L 120.699219 58.34375 "/>
<path style="fill:none;stroke-width:5;stroke-linecap:round;stroke-linejoin:round;stroke:rgb(0%,0%,0%);stroke-opacity:1;stroke-miterlimit:10;" d="M 1206.992188 590.625 L 1299.140625 646.054688 L 1391.25 590.625 L 1391.25 486.5625 L 1299.140625 431.132813 L 1206.992188 486.5625 L 1206.992188 590.625 Z M 1206.992188 590.625 " transform="matrix(0.1,0,0,-0.1,0,107)"/>
<path style="fill:none;stroke-width:5;stroke-linecap:round;stroke-linejoin:round;stroke:rgb(0%,0%,0%);stroke-opacity:1;stroke-miterlimit:10;" d="M 1206.992188 590.625 L 1299.140625 535.15625 L 1391.25 590.625 " transform="matrix(0.1,0,0,-0.1,0,107)"/>
<path style="fill:none;stroke-width:5;stroke-linecap:round;stroke-linejoin:round;stroke:rgb(0%,0%,0%);stroke-opacity:1;stroke-miterlimit:10;" d="M 1299.140625 535.15625 L 1299.140625 431.132813 " transform="matrix(0.1,0,0,-0.1,0,107)"/>
<path style=" stroke:none;fill-rule:nonzero;fill:rgb(100%,100%,100%);fill-opacity:1;" d="M 111.488281 53.109375 L 120.699219 47.566406 L 129.914063 53.109375 L 129.914063 63.515625 L 120.699219 69.058594 L 111.488281 63.515625 "/>
<path style="fill:none;stroke-width:5;stroke-linecap:round;stroke-linejoin:round;stroke:rgb(0%,0%,0%);stroke-opacity:1;stroke-miterlimit:10;" d="M 1114.882813 538.90625 L 1206.992188 594.335938 L 1299.140625 538.90625 L 1299.140625 434.84375 L 1206.992188 379.414063 L 1114.882813 434.84375 L 1114.882813 538.90625 Z M 1114.882813 538.90625 " transform="matrix(0.1,0,0,-0.1,0,107)"/>
<path style="fill:none;stroke-width:5;stroke-linecap:round;stroke-linejoin:round;stroke:rgb(0%,0%,0%);stroke-opacity:1;stroke-miterlimit:10;" d="M 1114.882813 538.90625 L 1206.992188 483.4375 L 1299.140625 538.90625 " transform="matrix(0.1,0,0,-0.1,0,107)"/>
<path style="fill:none;stroke-width:5;stroke-linecap:round;stroke-linejoin:round;stroke:rgb(0%,0%,0%);stroke-opacity:1;stroke-miterlimit:10;" d="M 1206.992188 483.4375 L 1206.992188 379.414063 " transform="matrix(0.1,0,0,-0.1,0,107)"/>
<path style=" stroke:none;fill-rule:nonzero;fill:rgb(100%,100%,100%);fill-opacity:1;" d="M 102.273438 58.285156 L 111.488281 52.738281 L 120.699219 58.285156 L 120.699219 68.6875 L 111.488281 74.234375 L 102.273438 68.6875 "/>
<path style="fill:none;stroke-width:5;stroke-linecap:round;stroke-linejoin:round;stroke:rgb(0%,0%,0%);stroke-opacity:1;stroke-miterlimit:10;" d="M 1022.734375 487.148438 L 1114.882813 542.617188 L 1206.992188 487.148438 L 1206.992188 383.125 L 1114.882813 327.65625 L 1022.734375 383.125 L 1022.734375 487.148438 Z M 1022.734375 487.148438 " transform="matrix(0.1,0,0,-0.1,0,107)"/>
<path style="fill:none;stroke-width:5;stroke-linecap:round;stroke-linejoin:round;stroke:rgb(0%,0%,0%);stroke-opacity:1;stroke-miterlimit:10;" d="M 1022.734375 487.148438 L 1114.882813 431.71875 L 1206.992188 487.148438 " transform="matrix(0.1,0,0,-0.1,0,107)"/>
<path style="fill:none;stroke-width:5;stroke-linecap:round;stroke-linejoin:round;stroke:rgb(0%,0%,0%);stroke-opacity:1;stroke-miterlimit:10;" d="M 1114.882813 431.71875 L 1114.882813 327.65625 " transform="matrix(0.1,0,0,-0.1,0,107)"/>
<path style=" stroke:none;fill-rule:nonzero;fill:rgb(100%,100%,100%);fill-opacity:1;" d="M 93.0625 73.863281 L 102.273438 68.316406 L 111.488281 73.863281 L 111.488281 84.265625 L 102.273438 89.8125 L 93.0625 84.265625 "/>
<path style="fill:none;stroke-width:5;stroke-linecap:round;stroke-linejoin:round;stroke:rgb(0%,0%,0%);stroke-opacity:1;stroke-miterlimit:10;" d="M 930.625 331.367188 L 1022.734375 386.835938 L 1114.882813 331.367188 L 1114.882813 227.34375 L 1022.734375 171.875 L 930.625 227.34375 L 930.625 331.367188 Z M 930.625 331.367188 " transform="matrix(0.1,0,0,-0.1,0,107)"/>
<path style="fill:none;stroke-width:5;stroke-linecap:round;stroke-linejoin:round;stroke:rgb(0%,0%,0%);stroke-opacity:1;stroke-miterlimit:10;" d="M 930.625 331.367188 L 1022.734375 275.9375 L 1114.882813 331.367188 " transform="matrix(0.1,0,0,-0.1,0,107)"/>
<path style="fill:none;stroke-width:5;stroke-linecap:round;stroke-linejoin:round;stroke:rgb(0%,0%,0%);stroke-opacity:1;stroke-miterlimit:10;" d="M 1022.734375 275.9375 L 1022.734375 171.875 " transform="matrix(0.1,0,0,-0.1,0,107)"/>
<path style=" stroke:none;fill-rule:nonzero;fill:rgb(100%,100%,100%);fill-opacity:1;" d="M 83.851563 79.035156 L 93.0625 73.488281 L 102.273438 79.035156 L 102.273438 89.441406 L 93.0625 94.984375 L 83.851563 89.441406 "/>
<path style="fill:none;stroke-width:5;stroke-linecap:round;stroke-linejoin:round;stroke:rgb(0%,0%,0%);stroke-opacity:1;stroke-miterlimit:10;" d="M 838.515625 279.648438 L 930.625 335.117188 L 1022.734375 279.648438 L 1022.734375 175.585938 L 930.625 120.15625 L 838.515625 175.585938 L 838.515625 279.648438 Z M 838.515625 279.648438 " transform="matrix(0.1,0,0,-0.1,0,107)"/>
<path style="fill:none;stroke-width:5;stroke-linecap:round;stroke-linejoin:round;stroke:rgb(0%,0%,0%);stroke-opacity:1;stroke-miterlimit:10;" d="M 838.515625 279.648438 L 930.625 224.21875 L 1022.734375 279.648438 " transform="matrix(0.1,0,0,-0.1,0,107)"/>
<path style="fill:none;stroke-width:5;stroke-linecap:round;stroke-linejoin:round;stroke:rgb(0%,0%,0%);stroke-opacity:1;stroke-miterlimit:10;" d="M 930.625 224.21875 L 930.625 120.15625 " transform="matrix(0.1,0,0,-0.1,0,107)"/>
<path style=" stroke:none;fill-rule:nonzero;fill:rgb(100%,100%,100%);fill-opacity:1;" d="M 74.636719 84.207031 L 83.851563 78.664063 L 93.0625 84.207031 L 93.0625 94.613281 L 83.851563 100.15625 L 74.636719 94.613281 "/>
<path style="fill:none;stroke-width:5;stroke-linecap:round;stroke-linejoin:round;stroke:rgb(0%,0%,0%);stroke-opacity:1;stroke-miterlimit:10;" d="M 746.367188 227.929688 L 838.515625 283.359375 L 930.625 227.929688 L 930.625 123.867188 L 838.515625 68.4375 L 746.367188 123.867188 L 746.367188 227.929688 Z M 746.367188 227.929688 " transform="matrix(0.1,0,0,-0.1,0,107)"/>
<path style="fill:none;stroke-width:5;stroke-linecap:round;stroke-linejoin:round;stroke:rgb(0%,0%,0%);stroke-opacity:1;stroke-miterlimit:10;" d="M 746.367188 227.929688 L 838.515625 172.5 L 930.625 227.929688 " transform="matrix(0.1,0,0,-0.1,0,107)"/>
<path style="fill:none;stroke-width:5;stroke-linecap:round;stroke-linejoin:round;stroke:rgb(0%,0%,0%);stroke-opacity:1;stroke-miterlimit:10;" d="M 838.515625 172.5 L 838.515625 68.4375 " transform="matrix(0.1,0,0,-0.1,0,107)"/>
<path style=" stroke:none;fill-rule:nonzero;fill:rgb(100%,100%,100%);fill-opacity:1;" d="M 65.425781 89.378906 L 74.636719 83.835938 L 83.851563 89.378906 L 83.851563 99.785156 L 74.636719 105.328125 L 65.425781 99.785156 "/>
<path style="fill:none;stroke-width:5;stroke-linecap:round;stroke-linejoin:round;stroke:rgb(0%,0%,0%);stroke-opacity:1;stroke-miterlimit:10;" d="M 654.257813 176.210938 L 746.367188 231.640625 L 838.515625 176.210938 L 838.515625 72.148438 L 746.367188 16.71875 L 654.257813 72.148438 L 654.257813 176.210938 Z M 654.257813 176.210938 " transform="matrix(0.1,0,0,-0.1,0,107)"/>
<path style="fill:none;stroke-width:5;stroke-linecap:round;stroke-linejoin:round;stroke:rgb(0%,0%,0%);stroke-opacity:1;stroke-miterlimit:10;" d="M 654.257813 176.210938 L 746.367188 120.742188 L 838.515625 176.210938 " transform="matrix(0.1,0,0,-0.1,0,107)"/>
<path style="fill:none;stroke-width:5;stroke-linecap:round;stroke-linejoin:round;stroke:rgb(0%,0%,0%);stroke-opacity:1;stroke-miterlimit:10;" d="M 746.367188 120.742188 L 746.367188 16.71875 " transform="matrix(0.1,0,0,-0.1,0,107)"/>
</g>
</svg>
