<?xml version="1.0" encoding="UTF-8"?>
<svg xmlns="http://www.w3.org/2000/svg" xmlns:xlink="http://www.w3.org/1999/xlink" width="129pt" height="208pt" viewBox="0 0 93 150" version="1.1">
<defs>
<clipPath id="clip1">
  <path d="M -1 151 L 93 151 L 93 0 L -1 0 L -1 151 Z M -1 151 "/>
</clipPath>
</defs>
<g id="surface0">
<g clip-path="url(#clip1)" clip-rule="nonzero">
<path style="fill:none;stroke-width:4.99997;stroke-linecap:round;stroke-linejoin:round;stroke:rgb(0%,0%,0%);stroke-opacity:1;stroke-dasharray:29.9998,29.9998;stroke-miterlimit:10;" d="M 610.234375 1325.46875 C 597.03125 1368.59375 567.226563 1404.726563 527.421875 1425.898438 C 487.578125 1447.070313 440.976563 1451.5625 397.851563 1438.398438 C 354.6875 1425.195313 318.59375 1395.390625 297.382813 1355.585938 C 276.210938 1315.742188 271.71875 1269.140625 284.921875 1226.015625 C 298.125 1182.851563 327.890625 1146.757813 367.734375 1125.585938 C 407.539063 1104.375 454.140625 1099.882813 497.304688 1113.085938 C 540.429688 1126.289063 576.5625 1156.054688 597.734375 1195.898438 C 618.90625 1235.703125 623.398438 1282.304688 610.234375 1325.46875 Z M 610.234375 1325.46875 " transform="matrix(0.1,0,0,-0.1,-1,151)"/>
<path style="fill:none;stroke-width:4.99997;stroke-linecap:round;stroke-linejoin:round;stroke:rgb(0%,0%,0%);stroke-opacity:1;stroke-dasharray:29.9998,29.9998;stroke-miterlimit:10;" d="M 455.039063 1105.820313 L 788.164063 16.367188 L 869.453125 41.210938 L 536.367188 1130.664063 " transform="matrix(0.1,0,0,-0.1,-1,151)"/>
<path style="fill:none;stroke-width:4.99997;stroke-linecap:round;stroke-linejoin:round;stroke:rgb(0%,0%,0%);stroke-opacity:1;stroke-dasharray:29.9998,29.9998;stroke-miterlimit:10;" d="M 829.921875 73.59375 C 828.828125 77.1875 826.328125 80.195313 823.007813 81.953125 C 819.6875 83.710938 815.820313 84.101563 812.226563 83.007813 C 808.632813 81.875 805.625 79.414063 803.867188 76.09375 C 802.109375 72.773438 801.71875 68.90625 802.8125 65.3125 C 803.90625 61.71875 806.40625 58.671875 809.726563 56.914063 C 813.046875 55.15625 816.914063 54.804688 820.507813 55.898438 C 824.101563 56.992188 827.109375 59.453125 828.90625 62.773438 C 830.664063 66.09375 831.015625 70 829.921875 73.59375 Z M 829.921875 73.59375 " transform="matrix(0.1,0,0,-0.1,-1,151)"/>
<path style="fill:none;stroke-width:4.99998;stroke-linecap:round;stroke-linejoin:round;stroke:rgb(0%,0%,0%);stroke-opacity:1;stroke-miterlimit:10;" d="M 332.96875 1416.992188 C 310.390625 1456.054688 273.242188 1484.53125 229.6875 1496.210938 C 186.09375 1507.890625 139.6875 1501.796875 100.625 1479.21875 C 61.5625 1456.679688 33.046875 1419.53125 21.367188 1375.976563 C 9.726563 1332.382813 15.820313 1285.976563 38.359375 1246.914063 C 60.9375 1207.851563 98.085938 1179.335938 141.640625 1167.65625 C 185.234375 1155.976563 231.640625 1162.109375 270.703125 1184.648438 C 309.765625 1207.1875 338.28125 1244.335938 349.960938 1287.929688 C 361.601563 1331.484375 355.507813 1377.890625 332.96875 1416.992188 Z M 332.96875 1416.992188 " transform="matrix(0.1,0,0,-0.1,-1,151)"/>
<path style="fill:none;stroke-width:4.99998;stroke-linecap:round;stroke-linejoin:round;stroke:rgb(0%,0%,0%);stroke-opacity:1;stroke-miterlimit:10;" d="M 231.171875 1168.085938 L 800.820313 181.445313 L 874.453125 223.945313 L 304.84375 1210.585938 " transform="matrix(0.1,0,0,-0.1,-1,151)"/>
<path style="fill:none;stroke-width:4.99998;stroke-linecap:round;stroke-linejoin:round;stroke:rgb(0%,0%,0%);stroke-opacity:1;stroke-miterlimit:10;" d="M 828.632813 246.601563 C 826.757813 249.84375 823.671875 252.226563 820.039063 253.203125 C 816.40625 254.179688 812.539063 253.671875 809.296875 251.796875 C 806.015625 249.921875 803.671875 246.835938 802.695313 243.203125 C 801.71875 239.570313 802.226563 235.703125 804.101563 232.421875 C 805.976563 229.179688 809.0625 226.796875 812.695313 225.820313 C 816.328125 224.84375 820.195313 225.351563 823.476563 227.226563 C 826.71875 229.140625 829.101563 232.226563 830.078125 235.859375 C 831.015625 239.492188 830.507813 243.359375 828.632813 246.601563 Z M 828.632813 246.601563 " transform="matrix(0.1,0,0,-0.1,-1,151)"/>
<path style="fill:none;stroke-width:5;stroke-linecap:round;stroke-linejoin:round;stroke:rgb(0%,0%,0%);stroke-opacity:1;stroke-miterlimit:10;" d="M 915.585938 239.53125 L 915.585938 69.453125 " transform="matrix(0.1,0,0,-0.1,-1,151)"/>
<path style=" stroke:none;fill-rule:nonzero;fill:rgb(0%,0%,0%);fill-opacity:1;" d="M 89.332031 138.519531 L 90.558594 144.054688 L 91.785156 138.519531 "/>
<path style="fill:none;stroke-width:5;stroke-linecap:round;stroke-linejoin:round;stroke:rgb(0%,0%,0%);stroke-opacity:1;stroke-miterlimit:10;" d="M 903.320313 124.804688 L 915.585938 69.453125 L 927.851563 124.804688 L 903.320313 124.804688 Z M 903.320313 124.804688 " transform="matrix(0.1,0,0,-0.1,-1,151)"/>
</g>
</g>
</svg>
