<?xml version="1.0" encoding="UTF-8" standalone="no"?>
<svg xmlns:dc="http://purl.org/dc/elements/1.1/" xmlns:cc="http://creativecommons.org/ns#" xmlns:rdf="http://www.w3.org/1999/02/22-rdf-syntax-ns#" xmlns:svg="http://www.w3.org/2000/svg" xmlns="http://www.w3.org/2000/svg" xmlns:xlink="http://www.w3.org/1999/xlink" xmlns:sodipodi="http://sodipodi.sourceforge.net/DTD/sodipodi-0.dtd" xmlns:inkscape="http://www.inkscape.org/namespaces/inkscape" height="105.0pt" version="1.1" viewBox="56.6209 54.0603 75.373322 61.155159" width="129.5pt" id="svg29951" inkscape:version="0.48.4 r9939" sodipodi:docname="f34-10_tc_big_a.svg">
  <metadata id="metadata30157">
    <rdf:RDF>
      <cc:Work rdf:about="">
        <dc:format>image/svg+xml</dc:format>
        <dc:type rdf:resource="http://purl.org/dc/dcmitype/StillImage"/>
        <dc:title/>
      </cc:Work>
    </rdf:RDF>
  </metadata>
  <sodipodi:namedview pagecolor="#ffffff" bordercolor="#666666" borderopacity="1" objecttolerance="10" gridtolerance="10" guidetolerance="10" inkscape:pageopacity="0" inkscape:pageshadow="2" inkscape:window-width="640" inkscape:window-height="480" id="namedview30155" showgrid="false" fit-margin-top="0" fit-margin-left="0" fit-margin-right="0" fit-margin-bottom="0" inkscape:zoom="0.89751724" inkscape:cx="-22.590429" inkscape:cy="64.182861" inkscape:window-x="0" inkscape:window-y="25" inkscape:window-maximized="0" inkscape:current-layer="svg29951"/>
  <defs id="defs29953">
    <path d="m 0.53,-1.43 c -0.105,0.03 -0.12,0.185 -0.01,0.22 0.03,0.01 0.06,0.005 0.09,0.005 h 2.825 c 0.065,0 0.16,0.02 0.215,-0.03 C 3.715,-1.3 3.68,-1.415 3.59,-1.43 3.53,-1.445 3.46,-1.435 3.395,-1.435 H 0.62 c -0.03,0 -0.06,-0.005 -0.09,0.005 z" id="g00" inkscape:connector-curvature="0"/>
    <path d="m 1.04,-2.79 c -0.025,0 -0.05,0.01 -0.075,0.02 -0.115,0.05 -0.14,0.165 -0.175,0.275 l -0.06,0.2 -0.455,1.545 c -0.015,0.05 -0.13,0.41 -0.125,0.445 0.01,0.055 0.09,0.07 0.135,0.085 0.02,0.005 0.04,0.015 0.06,0.01 0.06,-0.005 0.08,-0.09 0.095,-0.135 L 0.635,-0.78 1.105,-1.865 C 1.15,-1.965 1.325,-2.34 1.35,-2.43 1.44,-2.665 1.2,-2.82 1.04,-2.79 z" id="g048" inkscape:connector-curvature="0"/>
    <path d="M 2.59,1.554 C 2.555,1.512 2.506,1.477 2.464,1.442 1.701,0.756 1.232,-0.308 1.183,-1.603 1.148,-2.485 1.295,-3.388 1.715,-4.179 1.911,-4.55 2.156,-4.865 2.464,-5.138 2.506,-5.173 2.555,-5.208 2.59,-5.25 H 2.331 c -0.147,0 -0.133,0 -0.238,0.084 C 1.729,-4.879 1.428,-4.501 1.197,-4.088 0.532,-2.835 0.483,-1.169 1.092,0.182 1.323,0.693 1.659,1.12 2.086,1.47 2.177,1.54 2.177,1.554 2.331,1.554 H 2.59 z" id="g340" inkscape:connector-curvature="0"/>
    <path d="m 0.434,-5.25 c 0.035,0.042 0.084,0.077 0.126,0.112 0.861,0.77 1.344,2.016 1.281,3.535 C 1.813,-0.854 1.638,-0.098 1.267,0.56 1.085,0.889 0.84,1.19 0.56,1.442 0.518,1.477 0.469,1.512 0.434,1.554 h 0.259 c 0.147,0 0.133,0 0.238,-0.084 C 1.295,1.183 1.596,0.805 1.827,0.392 2.492,-0.861 2.541,-2.527 1.932,-3.878 1.701,-4.389 1.365,-4.816 0.938,-5.166 0.847,-5.236 0.847,-5.25 0.693,-5.25 H 0.434 z" id="g341" inkscape:connector-curvature="0"/>
    <path d="m 0.644,-2.653 c 0.119,-0.063 0.224,-0.14 0.343,-0.196 0.224,-0.098 0.462,-0.154 0.707,-0.168 0.07,-0.007 0.147,-0.014 0.217,-0.007 0.28,0.035 0.518,0.231 0.602,0.504 0.07,0.203 0.042,0.441 0.042,0.651 -0.364,0 -0.735,0.028 -1.092,0.119 -0.511,0.126 -1.141,0.385 -1.064,1.022 0.035,0.287 0.196,0.574 0.462,0.707 C 1.043,0.07 1.246,0.063 1.442,0.042 1.75,0.014 2.065,-0.063 2.324,-0.245 2.415,-0.308 2.492,-0.385 2.569,-0.469 V 0 H 3.066 V -1.834 C 3.066,-2.03 3.087,-2.233 3.052,-2.429 2.982,-2.919 2.548,-3.283 2.093,-3.367 1.799,-3.423 1.365,-3.36 1.134,-3.304 1.05,-3.276 0.665,-3.15 0.623,-3.087 c -0.021,0.028 -0.007,0.091 -0.007,0.126 0.014,0.105 0.021,0.203 0.028,0.308 z m 1.911,1.022 v 0.518 c 0,0.133 0.007,0.266 -0.056,0.385 C 2.422,-0.574 2.268,-0.476 2.114,-0.42 1.785,-0.301 1.337,-0.28 1.05,-0.511 0.98,-0.567 0.91,-0.644 0.896,-0.749 0.819,-1.05 1.078,-1.288 1.323,-1.4 1.652,-1.554 2.114,-1.631 2.555,-1.631 z" id="g397" inkscape:connector-curvature="0"/>
    <path d="M 0.588,-4.858 V 0 h 0.511 v -0.469 h 0.007 c 0.056,0.112 0.161,0.203 0.259,0.28 C 1.673,0.07 2.191,0.14 2.646,-0.084 2.856,-0.196 3.031,-0.357 3.164,-0.546 3.864,-1.512 3.43,-3.101 2.471,-3.332 2.331,-3.367 2.184,-3.367 2.037,-3.346 1.631,-3.29 1.316,-3.087 1.085,-2.835 V -4.858 H 0.588 z m 1.225,1.89 c 0.343,-0.028 0.714,0.105 0.931,0.385 0.168,0.217 0.231,0.49 0.245,0.756 C 3.01,-1.449 2.968,-1.043 2.73,-0.735 2.527,-0.476 2.205,-0.357 1.883,-0.336 1.617,-0.322 1.379,-0.427 1.211,-0.637 1.176,-0.693 1.127,-0.756 1.106,-0.819 1.092,-0.861 1.099,-0.903 1.099,-0.945 v -1.386 c 0,-0.07 -0.014,-0.154 0.014,-0.217 0.035,-0.07 0.098,-0.126 0.154,-0.182 0.154,-0.133 0.343,-0.217 0.546,-0.238 z" id="g398" inkscape:connector-curvature="0"/>
    <use id="g10" xlink:href="#g00" x="0" y="0" width="176.311" height="62.521301"/>
    <path d="m 0.21,-2.247 h 0.35 c 0.112,0 0.154,0.014 0.203,-0.084 0.119,-0.175 0.259,-0.336 0.455,-0.434 0.119,-0.056 0.245,-0.049 0.378,-0.049 H 2.044 C 2.016,-2.611 1.561,-0.553 1.505,-0.252 1.484,-0.154 1.47,-0.056 1.554,0.007 1.687,0.119 1.89,0.028 1.967,-0.105 2.023,-0.203 2.03,-0.336 2.058,-0.448 2.093,-0.609 2.548,-2.779 2.555,-2.814 H 3.71 c 0.056,0 0.112,0.007 0.161,-0.007 C 4.032,-2.849 4.179,-3.052 4.095,-3.213 4.032,-3.318 3.899,-3.304 3.794,-3.304 H 1.911 c -0.224,0 -0.462,-0.021 -0.679,0.049 -0.308,0.105 -0.56,0.336 -0.756,0.588 -0.056,0.077 -0.245,0.336 -0.266,0.42 z" id="g228" inkscape:connector-curvature="0"/>
    <path d="m 0.217,0 h 0.357 l 0.154,-0.014 0.07,-0.091 C 1.064,-0.539 1.323,-0.973 1.61,-1.386 L 1.673,-1.4 h 2.31 c 0.091,0.462 0.161,0.945 0.28,1.386 C 4.41,0.028 4.641,-0.014 4.816,0 4.795,-0.147 3.955,-4.382 3.906,-4.634 3.899,-4.676 3.864,-4.914 3.829,-4.921 3.787,-4.935 3.738,-4.928 3.696,-4.928 h -0.28 c -0.042,0 -0.098,-0.014 -0.133,0.014 -0.049,0.035 -0.189,0.287 -0.189,0.287 l -2.023,3.248 -0.56,0.903 C 0.413,-0.322 0.301,-0.161 0.217,0 z m 3.199,-4.347 c 0.154,0.854 0.322,1.694 0.483,2.534 H 1.862 c 0.504,-0.861 1.043,-1.68 1.554,-2.534 z" id="g265" inkscape:connector-curvature="0"/>
    <path d="M 1.778,-4.858 0.749,0 H 2.212 C 2.464,0 2.723,0.014 2.975,-0.007 3.794,-0.077 4.592,-0.483 4.893,-1.12 5.047,-1.512 4.977,-1.869 4.648,-2.149 4.382,-2.373 4.039,-2.492 3.696,-2.541 3.829,-2.583 3.962,-2.604 4.095,-2.646 4.613,-2.821 5.187,-3.185 5.243,-3.717 5.25,-3.773 5.25,-3.829 5.243,-3.885 5.166,-4.298 4.893,-4.508 4.557,-4.669 4.144,-4.858 3.766,-4.858 3.227,-4.858 H 1.778 z m 0.063,2.135 C 1.855,-2.87 2.1,-3.934 2.177,-4.312 2.191,-4.382 2.184,-4.445 2.268,-4.445 h 0.567 c 0.497,0 1.015,-0.021 1.477,0.203 0.182,0.091 0.392,0.224 0.434,0.441 0.063,0.315 -0.21,0.567 -0.448,0.721 -0.042,0.028 -0.091,0.049 -0.14,0.077 -0.315,0.161 -0.665,0.245 -1.015,0.273 -0.189,0.014 -0.378,0.007 -0.567,0.007 H 1.841 z m -0.49,2.31 C 1.365,-0.518 1.442,-0.868 1.456,-0.91 1.498,-1.106 1.694,-2.023 1.722,-2.184 1.736,-2.261 1.729,-2.331 1.827,-2.331 h 0.707 c 0.154,0 0.315,-0.007 0.469,0 0.385,0.014 0.777,0.091 1.106,0.301 0.175,0.119 0.364,0.294 0.364,0.574 0,0.399 -0.371,0.658 -0.7,0.805 -0.245,0.126 -0.644,0.224 -0.945,0.231 -0.49,0.014 -0.987,0.007 -1.477,0.007 z" id="g266" inkscape:connector-curvature="0"/>
    <path d="M 3.367,-0.805 C 3.262,-0.742 3.164,-0.672 3.059,-0.616 2.779,-0.469 2.478,-0.378 2.163,-0.357 1.939,-0.343 1.715,-0.364 1.526,-0.49 1.127,-0.749 1.099,-1.267 1.211,-1.743 c 0.14,-0.539 0.497,-1.043 1.057,-1.197 0.175,-0.049 0.35,-0.049 0.525,-0.035 0.294,0.014 0.518,0.077 0.735,0.217 0.049,0.035 0.105,0.07 0.161,0.091 L 3.85,-3.094 C 3.486,-3.297 3.157,-3.423 2.576,-3.388 c -0.518,0.042 -0.91,0.273 -1.225,0.56 -0.553,0.511 -1.057,1.638 -0.427,2.422 0.063,0.077 0.126,0.14 0.203,0.203 0.462,0.35 1.092,0.301 1.617,0.119 0.119,-0.042 0.497,-0.196 0.56,-0.287 0.035,-0.056 0.063,-0.42 0.063,-0.434 z" id="g299" inkscape:connector-curvature="0"/>
    <path d="M 0.847,-3.304 0.77,-2.912 h 0.679 c -0.028,0.196 -0.084,0.399 -0.126,0.595 -0.063,0.301 -0.35,1.54 -0.35,1.827 0,0.112 0.014,0.231 0.07,0.329 0.07,0.154 0.217,0.217 0.434,0.217 0.273,0 0.546,-0.056 0.805,-0.147 0.056,-0.021 0.322,-0.126 0.35,-0.161 0.021,-0.028 0.007,-0.07 0.007,-0.098 0,-0.091 -0.014,-0.189 -0.014,-0.28 -0.147,0.084 -0.203,0.14 -0.399,0.203 -0.21,0.07 -0.546,0.168 -0.679,-0.056 -0.098,-0.168 -0.035,-0.392 0,-0.574 0.028,-0.147 0.385,-1.799 0.392,-1.855 H 3.087 L 3.164,-3.304 H 2.023 l 0.203,-0.945 c -0.161,0 -0.329,-0.007 -0.469,0.014 -0.105,0.273 -0.112,0.644 -0.217,0.917 L 1.484,-3.304 H 0.847 z" id="g2116" inkscape:connector-curvature="0"/>
    <path d="m 0.812,-3.304 c 0.147,0.854 0.315,1.68 0.469,2.52 0.063,0.259 0.07,0.574 0.168,0.798 0.168,0.007 0.357,0.014 0.511,-0.007 l 0.049,-0.063 1.988,-3.248 c -0.168,0 -0.336,-0.007 -0.483,0.014 L 2.261,-1.253 1.82,-0.511 1.435,-2.583 C 1.379,-2.814 1.365,-3.073 1.295,-3.29 1.148,-3.311 0.973,-3.304 0.812,-3.304 z" id="g2118" inkscape:connector-curvature="0"/>
    <path d="m 0.749,-3.304 c 0.077,0.147 0.182,0.28 0.273,0.413 0.056,0.084 0.672,1.008 0.7,1.043 0.028,0.035 0.077,0.091 0.077,0.133 0,0.049 -0.07,0.098 -0.105,0.126 C 1.379,-1.295 0.049,-0.049 0.007,0 0.189,0 0.371,0 0.539,-0.007 L 0.686,-0.14 1.988,-1.442 c 0.28,0.483 0.56,0.966 0.868,1.428 C 3.024,0.007 3.22,0 3.402,0 3.318,-0.14 2.366,-1.54 2.345,-1.575 2.324,-1.61 2.275,-1.659 2.282,-1.701 2.289,-1.75 2.359,-1.792 2.387,-1.82 c 0.105,-0.105 0.217,-0.203 0.329,-0.308 0.105,-0.098 1.218,-1.134 1.253,-1.176 -0.182,0 -0.364,0 -0.539,0.007 C 2.975,-2.891 2.555,-2.45 2.107,-2.037 1.834,-2.457 1.582,-2.898 1.288,-3.297 1.113,-3.304 0.931,-3.304 0.749,-3.304 z" id="g2120" inkscape:connector-curvature="0"/>
    <path d="M 1.022,-3.304 0.945,-2.926 H 3.073 L 1.05,-1.001 C 0.798,-0.749 0.525,-0.518 0.28,-0.259 0.259,-0.175 0.238,-0.091 0.217,0 1.176,-0.007 2.198,0.014 3.115,-0.007 3.164,-0.119 3.185,-0.259 3.213,-0.392 H 0.959 l 2.793,-2.66 C 3.78,-3.129 3.794,-3.213 3.808,-3.304 H 1.022 z" id="g2122" inkscape:connector-curvature="0"/>
  </defs>
  <g id="g30311" transform="translate(-99.261717,4.5902064e-4)">
    <path style="fill:none;stroke:#000000;stroke-width:0.36988601;stroke-linecap:round;stroke-linejoin:round;stroke-miterlimit:10.03750038" inkscape:connector-curvature="0" id="path29997" stroke-miterlimit="10.0375" d="m 225.7837,94.079 -61.1734,0"/>
    <path inkscape:connector-curvature="0" id="path30001" d="m 230.0517,94.079 -4.268,-0.946174 0,1.892348 4.268,-0.946174 z"/>
    <path style="fill:none;stroke:#000000;stroke-width:0.36988601;stroke-linecap:round;stroke-linejoin:round;stroke-miterlimit:10.03750038" inkscape:connector-curvature="0" id="path30005" stroke-miterlimit="10.0375" d="m 230.0517,94.079 -4.268,-0.946174 0,1.892348 4.268,-0.946174 z"/>
    <path style="fill:none;stroke:#000000;stroke-width:0.36988601;stroke-linecap:round;stroke-linejoin:round;stroke-miterlimit:10.03750038" inkscape:connector-curvature="0" id="path30009" stroke-miterlimit="10.0375" d="m 164.6103,64.2036 0,29.8754"/>
    <path inkscape:connector-curvature="0" id="path30013" d="m 164.6103,59.9357 -0.9461,4.2679 1.8925,0 -0.9464,-4.2679 z"/>
    <path style="fill:none;stroke:#000000;stroke-width:0.36988601;stroke-linecap:round;stroke-linejoin:round;stroke-miterlimit:10.03750038" inkscape:connector-curvature="0" id="path30017" stroke-miterlimit="10.0375" d="m 164.6103,59.9357 -0.9461,4.2679 1.8925,0 -0.9464,-4.2679 z"/>
    <path style="fill:none;stroke:#000000;stroke-width:0.51214999;stroke-linecap:round;stroke-linejoin:round;stroke-miterlimit:10.03750038" inkscape:connector-curvature="0" id="path30025" stroke-miterlimit="10.0375" d="m 164.6103,85.11894 c 0.2835,0.26822 0.5764,0.42423 0.8754,0.42423 0.508,0 1.002,-0.45358 1.458,-1.14358 0.534,-0.80869 1.009,-1.92619 1.458,-3.12429 0.507,-1.353 0.983,-2.8109 1.458,-4.268 0.476,-1.457 0.951,-2.9149 1.458,-4.2679 0.45,-1.1982 0.924,-2.3156 1.459,-3.1243 0.455,-0.69 0.949,-1.1436 1.458,-1.1436 0.508,0 1.002,0.4536 1.458,1.1436 0.534,0.8087 1.009,1.9261 1.458,3.1243 0.507,1.353 0.983,2.8109 1.458,4.2679 0.476,1.4571 0.951,2.915 1.459,4.268 0.449,1.1981 0.924,2.3156 1.458,3.12429 0.456,0.69 0.949,1.14358 1.458,1.14358 0.509,0 1.002,-0.45358 1.458,-1.14358 0.534,-0.80869 1.009,-1.92619 1.458,-3.12429 0.508,-1.353 0.983,-2.8109 1.459,-4.268 0.475,-1.457 0.951,-2.9149 1.458,-4.2679 0.449,-1.1982 0.924,-2.3156 1.458,-3.1243 0.456,-0.69 0.95,-1.1436 1.458,-1.1436 0.509,0 1.003,0.4536 1.458,1.1436 0.535,0.8087 1.01,1.9261 1.459,3.1243 0.507,1.353 0.982,2.8109 1.458,4.2679 0.475,1.4571 0.951,2.915 1.458,4.268 0.449,1.1981 0.924,2.3156 1.458,3.12429 0.456,0.69 0.95,1.14358 1.458,1.14358 0.509,0 1.003,-0.45358 1.459,-1.14358 0.534,-0.80869 1.009,-1.92619 1.458,-3.12429 0.507,-1.353 0.983,-2.8109 1.458,-4.268 0.475,-1.457 0.951,-2.9149 1.458,-4.2679 0.449,-1.1982 0.924,-2.3156 1.458,-3.1243 0.456,-0.69 0.95,-1.1436 1.459,-1.1436 0.508,0 1.002,0.4536 1.458,1.1436 0.534,0.8087 1.009,1.9261 1.458,3.1243 0.507,1.353 0.983,2.8109 1.458,4.2679 0.476,1.4571 0.951,2.915 1.458,4.268 0.45,1.1981 0.925,2.3156 1.459,3.12429 0.455,0.69 0.949,1.14358 1.458,1.14358 0.508,0 1.002,-0.45358 1.458,-1.14358 0.534,-0.80869 1.009,-1.92619 1.458,-3.12429 0.507,-1.353 0.983,-2.8109 1.459,-4.268 0.475,-1.457 0.951,-2.9149 1.458,-4.2679 0.449,-1.1982 0.924,-2.3156 1.458,-3.1243 0.456,-0.69 0.95,-1.1436 1.458,-1.1436 0.509,0 1.003,0.4536 1.458,1.1436 0.152,0.2294 0.299,0.4836 0.441,0.7575"/>
    <circle transform="translate(65.0257,94.079)" sodipodi:ry="1.06698" sodipodi:rx="1.06698" sodipodi:cy="-9.1909304" sodipodi:cx="116.864" d="m 117.93098,-9.1909304 c 0,0.5892768 -0.4777,1.06698 -1.06698,1.06698 -0.58928,0 -1.06698,-0.4777032 -1.06698,-1.06698 0,-0.5892768 0.4777,-1.0669796 1.06698,-1.0669796 0.58928,0 1.06698,0.4777028 1.06698,1.0669796 z" id="circle30037" r="1.06698" cy="-9.1909304" cx="116.864"/>
    <circle transform="translate(65.0257,94.079)" sodipodi:ry="1.06698" sodipodi:rx="1.06698" sodipodi:cy="-21.0944" sodipodi:cx="147.213" d="m 148.27998,-21.0944 c 0,0.589276 -0.47771,1.06698 -1.06698,1.06698 -0.58928,0 -1.06698,-0.477704 -1.06698,-1.06698 0,-0.589277 0.4777,-1.06698 1.06698,-1.06698 0.58927,0 1.06698,0.477703 1.06698,1.06698 z" id="circle30041" r="1.06698" cy="-21.0944" cx="147.213"/>
    <path style="fill:none;stroke:#000000;stroke-width:0.36988601;stroke-linecap:round;stroke-linejoin:round;stroke-miterlimit:10.03750038" inkscape:connector-curvature="0" id="path30073" stroke-miterlimit="10.0375" d="m 181.8897,68.4715 0,-14.2264"/>
    <path style="fill:none;stroke:#000000;stroke-width:0.36988601;stroke-linecap:round;stroke-linejoin:round;stroke-miterlimit:10.03750038" inkscape:connector-curvature="0" id="path30077" stroke-miterlimit="10.0375" d="m 212.2387,68.4715 0,-14.2264"/>
    <path style="fill:none;stroke:#000000;stroke-width:0.36988601;stroke-linecap:round;stroke-linejoin:round;stroke-miterlimit:10.03750038" inkscape:connector-curvature="0" id="path30081" stroke-miterlimit="10.0375" d="m 209.3937,59.9357 -24.658,0"/>
    <path inkscape:connector-curvature="0" id="path30085" d="m 212.2387,59.9357 -2.845,-0.6308 0,1.2616 2.845,-0.6308 z"/>
    <path style="fill:none;stroke:#000000;stroke-width:0.36988601;stroke-linecap:round;stroke-linejoin:round;stroke-miterlimit:10.03750038" inkscape:connector-curvature="0" id="path30089" stroke-miterlimit="10.0375" d="m 212.2387,59.9357 -2.845,-0.6308 0,1.2616 2.845,-0.6308 z"/>
    <path inkscape:connector-curvature="0" id="path30093" d="m 181.8897,59.9357 2.846,0.6308 0,-1.2616 -2.846,0.6308 z"/>
    <path style="fill:none;stroke:#000000;stroke-width:0.36988601;stroke-linecap:round;stroke-linejoin:round;stroke-miterlimit:10.03750038" inkscape:connector-curvature="0" id="path30097" stroke-miterlimit="10.0375" d="m 181.8897,59.9357 2.846,0.6308 0,-1.2616 -2.846,0.6308 z"/>
    <use xlink:href="#g340" transform="translate(192.386,113.661)" id="use30119" x="0" y="0" width="176.311" height="62.521301"/>
    <use xlink:href="#g398" transform="translate(195.415,113.661)" id="use30121" x="0" y="0" width="176.311" height="62.521301"/>
    <use xlink:href="#g341" transform="translate(199.255,113.661)" id="use30123" x="0" y="0" width="176.311" height="62.521301"/>
    <use xlink:href="#g299" transform="translate(224.212,101.28)" id="use30125" x="0" y="0" width="176.311" height="62.521301"/>
    <use xlink:href="#g2116" transform="translate(228.289,101.28)" id="use30127" x="0" y="0" width="176.311" height="62.521301"/>
    <use xlink:href="#g2120" transform="translate(155.573,64.6336)" id="use30129" x="0" y="0" width="176.311" height="62.521301"/>
    <use xlink:href="#g048" transform="translate(159.662,62.1631)" id="use30131" x="0" y="0" width="176.311" height="62.521301"/>
    <use xlink:href="#g265" transform="translate(178.403,91.9492)" id="use30133" x="0" y="0" width="176.311" height="62.521301"/>
    <use xlink:href="#g048" transform="translate(183.444,89.4788)" id="use30135" x="0" y="0" width="176.311" height="62.521301"/>
    <use xlink:href="#g266" transform="translate(213.831,75.5485)" id="use30137" x="0" y="0" width="176.311" height="62.521301"/>
    <use xlink:href="#g048" transform="translate(219.506,73.0781)" id="use30139" x="0" y="0" width="176.311" height="62.521301"/>
    <rect height="7.0055499" width="22.825899" x="185.655" y="56.372799" id="rect30141" style="fill:#ffffff"/>
    <use xlink:href="#g340" transform="translate(185.755,61.7228)" id="use30143" x="0" y="0" width="176.311" height="62.521301"/>
    <use xlink:href="#g299" transform="translate(187.544,61.7228)" id="use30145" x="0" y="0" width="176.311" height="62.521301"/>
    <use xlink:href="#g10" transform="translate(191.622,61.7228)" id="use30147" x="0" y="0" width="176.311" height="62.521301"/>
    <use xlink:href="#g2118" transform="translate(197.406,61.7228)" id="use30149" x="0" y="0" width="176.311" height="62.521301"/>
    <use xlink:href="#g341" transform="translate(200.954,61.7228)" id="use30151" x="0" y="0" width="176.311" height="62.521301"/>
    <use xlink:href="#g228" transform="translate(203.983,61.7228)" id="use30153" x="0" y="0" width="176.311" height="62.521301"/>
  </g>
</svg>
