<?xml version="1.0" encoding="UTF-8"?>
<svg xmlns="http://www.w3.org/2000/svg" xmlns:xlink="http://www.w3.org/1999/xlink" width="427.41pt" height="238.82pt" viewBox="0 0 427.41 238.82" version="1.1">
<defs>
<clipPath id="clip1">
  <path d="M 14 7 L 427.410156 7 L 427.410156 98 L 14 98 Z M 14 7 "/>
</clipPath>
</defs>
<g id="surface1">
<g clip-path="url(#clip1)" clip-rule="nonzero">
<path style=" stroke:none;fill-rule:nonzero;fill:rgb(28.556824%,27.256775%,27.580261%);fill-opacity:1;" d="M 302.84375 9.371094 C 300.742188 9.007812 298.886719 8.808594 297.3125 8.78125 L 297.339844 7.363281 C 298.980469 7.394531 300.914062 7.597656 303.082031 7.972656 Z M 289.101562 9.777344 L 288.761719 8.402344 C 290.691406 7.925781 292.601562 7.609375 294.4375 7.460938 L 294.550781 8.875 C 292.789062 9.015625 290.957031 9.320312 289.101562 9.777344 Z M 311.074219 11.269531 C 309.117188 10.726562 307.277344 10.269531 305.601562 9.90625 L 305.902344 8.523438 C 307.601562 8.890625 309.46875 9.355469 311.453125 9.902344 Z M 281.226562 12.542969 L 280.648438 11.25 C 282.46875 10.4375 284.273438 9.742188 286 9.1875 L 286.433594 10.539062 C 284.753906 11.078125 283 11.753906 281.226562 12.542969 Z M 319.1875 13.746094 C 317.324219 13.132812 315.523438 12.5625 313.789062 12.050781 L 314.195312 10.691406 C 315.941406 11.210938 317.757812 11.78125 319.632812 12.402344 Z M 273.769531 16.4375 L 273.046875 15.21875 C 274.753906 14.207031 276.4375 13.285156 278.058594 12.476562 L 278.695312 13.742188 C 277.101562 14.539062 275.445312 15.445312 273.769531 16.4375 Z M 327.210938 16.550781 C 325.390625 15.886719 323.609375 15.25 321.871094 14.652344 L 322.328125 13.3125 C 324.074219 13.914062 325.867188 14.550781 327.695312 15.21875 Z M 335.15625 19.5625 C 333.367188 18.863281 331.601562 18.1875 329.863281 17.535156 L 330.363281 16.207031 C 332.105469 16.859375 333.875 17.539062 335.675781 18.242188 Z M 266.671875 21.03125 L 265.863281 19.867188 C 267.496094 18.730469 269.09375 17.664062 270.609375 16.710938 L 271.367188 17.90625 C 269.867188 18.855469 268.289062 19.90625 266.671875 21.03125 Z M 343.058594 22.71875 C 341.289062 21.992188 339.53125 21.285156 337.796875 20.597656 L 338.320312 19.28125 C 340.058594 19.972656 341.816406 20.679688 343.597656 21.402344 Z M 350.917969 25.980469 C 349.160156 25.242188 347.414062 24.511719 345.683594 23.792969 L 346.222656 22.484375 C 347.960938 23.203125 349.707031 23.933594 351.46875 24.675781 Z M 259.851562 26.058594 L 258.984375 24.9375 C 260.515625 23.757812 262.035156 22.613281 263.542969 21.523438 L 264.375 22.667969 C 262.878906 23.753906 261.371094 24.886719 259.851562 26.058594 Z M 18.445312 28.636719 C 16.898438 27.230469 15.496094 25.933594 14.265625 24.769531 L 15.238281 23.738281 C 16.464844 24.898438 17.855469 26.1875 19.398438 27.589844 Z M 358.742188 29.324219 C 357 28.574219 355.261719 27.824219 353.527344 27.089844 L 354.082031 25.785156 C 355.816406 26.523438 357.558594 27.269531 359.304688 28.023438 Z M 253.21875 31.359375 L 252.320312 30.265625 C 253.804688 29.042969 255.28125 27.851562 256.746094 26.691406 L 257.625 27.800781 C 256.167969 28.957031 254.699219 30.144531 253.21875 31.359375 Z M 366.546875 32.734375 C 364.8125 31.972656 363.078125 31.210938 361.34375 30.453125 L 361.910156 29.15625 C 363.648438 29.910156 365.382812 30.671875 367.117188 31.4375 Z M 24.824219 34.316406 C 23.316406 33 21.890625 31.738281 20.558594 30.546875 L 21.503906 29.488281 C 22.832031 30.679688 24.253906 31.9375 25.753906 33.246094 Z M 374.328125 36.1875 C 372.609375 35.417969 370.878906 34.648438 369.144531 33.878906 L 369.71875 32.582031 C 371.453125 33.351562 373.1875 34.121094 374.90625 34.890625 Z M 246.707031 36.820312 L 245.789062 35.742188 C 247.246094 34.5 248.695312 33.277344 250.132812 32.078125 L 251.039062 33.164062 C 249.605469 34.363281 248.160156 35.582031 246.707031 36.820312 Z M 382.097656 39.671875 L 376.917969 37.34375 L 377.5 36.050781 L 382.679688 38.378906 Z M 31.296875 39.867188 C 29.796875 38.605469 28.351562 37.371094 26.96875 36.179688 L 27.894531 35.105469 C 29.273438 36.296875 30.714844 37.523438 32.210938 38.785156 Z M 240.257812 42.371094 L 239.328125 41.296875 C 240.773438 40.050781 242.207031 38.8125 243.628906 37.589844 L 244.550781 38.664062 C 243.132812 39.886719 241.699219 41.121094 240.257812 42.371094 Z M 389.859375 43.175781 L 384.683594 40.835938 L 385.269531 39.546875 L 390.445312 41.882812 Z M 37.867188 45.308594 C 36.363281 44.082031 34.898438 42.878906 33.476562 41.695312 L 34.382812 40.605469 C 35.800781 41.785156 37.261719 42.988281 38.761719 44.210938 Z M 397.621094 46.683594 L 392.445312 44.34375 L 393.027344 43.050781 L 398.203125 45.390625 Z M 233.824219 47.941406 L 232.898438 46.871094 L 237.1875 43.152344 L 238.113281 44.226562 Z M 405.398438 50.175781 C 403.714844 49.421875 401.984375 48.644531 400.210938 47.847656 L 400.796875 46.554688 C 402.566406 47.351562 404.296875 48.128906 405.976562 48.878906 Z M 44.527344 50.636719 C 43.011719 49.445312 41.527344 48.265625 40.078125 47.097656 L 40.964844 45.992188 C 42.410156 47.15625 43.890625 48.335938 45.402344 49.523438 Z M 227.359375 53.492188 L 226.441406 52.410156 C 227.890625 51.183594 229.324219 49.949219 230.746094 48.722656 L 231.675781 49.796875 C 230.246094 51.027344 228.808594 52.261719 227.359375 53.492188 Z M 413.195312 53.621094 C 411.53125 52.894531 409.792969 52.128906 407.992188 51.328125 L 408.566406 50.035156 C 410.363281 50.835938 412.097656 51.597656 413.761719 52.324219 Z M 51.277344 55.847656 C 49.75 54.6875 48.242188 53.535156 46.765625 52.386719 L 47.636719 51.265625 C 49.109375 52.410156 50.609375 53.5625 52.132812 54.71875 Z M 421.050781 56.964844 C 419.421875 56.296875 417.667969 55.554688 415.804688 54.753906 L 416.363281 53.449219 C 418.222656 54.246094 419.96875 54.984375 421.589844 55.65625 Z M 220.832031 58.96875 L 219.929688 57.878906 C 221.390625 56.671875 222.839844 55.457031 224.277344 54.242188 L 225.191406 55.328125 C 223.75 56.546875 222.296875 57.761719 220.832031 58.96875 Z M 426.917969 59.269531 C 425.925781 58.90625 424.851562 58.492188 423.695312 58.035156 L 424.21875 56.71875 C 425.359375 57.171875 426.425781 57.578125 427.40625 57.941406 Z M 58.125 60.929688 C 56.582031 59.808594 55.054688 58.679688 53.546875 57.554688 L 54.398438 56.417969 C 55.898438 57.542969 57.421875 58.664062 58.957031 59.785156 Z M 214.191406 64.339844 L 213.3125 63.230469 C 214.800781 62.054688 216.277344 60.867188 217.738281 59.675781 L 218.636719 60.773438 C 217.164062 61.972656 215.683594 63.160156 214.191406 64.339844 Z M 65.074219 65.875 C 63.511719 64.789062 61.964844 63.691406 60.429688 62.59375 L 61.253906 61.441406 C 62.78125 62.539062 64.328125 63.628906 65.882812 64.710938 Z M 207.421875 69.546875 L 206.574219 68.410156 C 208.089844 67.28125 209.589844 66.136719 211.082031 64.980469 L 211.949219 66.097656 C 210.453125 67.261719 208.941406 68.414062 207.421875 69.546875 Z M 72.128906 70.660156 C 70.546875 69.613281 68.972656 68.554688 67.410156 67.484375 L 68.210938 66.316406 C 69.769531 67.378906 71.335938 68.433594 72.910156 69.476562 Z M 200.496094 74.527344 L 199.691406 73.359375 C 201.238281 72.289062 202.773438 71.199219 204.296875 70.089844 L 205.132812 71.234375 C 203.597656 72.351562 202.054688 73.449219 200.496094 74.527344 Z M 79.316406 75.273438 C 77.710938 74.273438 76.109375 73.253906 74.515625 72.21875 L 75.285156 71.03125 C 76.871094 72.058594 78.464844 73.074219 80.0625 74.066406 Z M 193.386719 79.226562 L 192.632812 78.023438 C 194.21875 77.027344 195.796875 76 197.359375 74.949219 L 198.148438 76.128906 C 196.574219 77.183594 194.988281 78.21875 193.386719 79.226562 Z M 86.632812 79.671875 C 85 78.722656 83.367188 77.753906 81.738281 76.761719 L 82.476562 75.550781 C 84.09375 76.535156 85.71875 77.503906 87.339844 78.445312 Z M 186.054688 83.585938 L 185.363281 82.347656 C 186.976562 81.445312 188.617188 80.488281 190.238281 79.503906 L 190.976562 80.714844 C 189.339844 81.710938 187.683594 82.675781 186.054688 83.585938 Z M 94.09375 83.820312 C 92.433594 82.9375 90.765625 82.023438 89.101562 81.085938 L 89.796875 79.847656 C 91.453125 80.78125 93.109375 81.691406 94.757812 82.566406 Z M 178.46875 87.527344 L 177.855469 86.25 C 179.523438 85.449219 181.214844 84.589844 182.886719 83.699219 L 183.554688 84.949219 C 181.863281 85.851562 180.152344 86.71875 178.46875 87.527344 Z M 101.730469 87.65625 C 100.03125 86.855469 98.328125 86.011719 96.617188 85.136719 L 97.265625 83.875 C 98.960938 84.742188 100.652344 85.578125 102.335938 86.378906 Z M 170.636719 90.957031 L 170.113281 89.636719 C 171.828125 88.960938 173.574219 88.222656 175.300781 87.441406 L 175.886719 88.730469 C 174.136719 89.523438 172.371094 90.273438 170.636719 90.957031 Z M 109.554688 91.105469 C 107.839844 90.410156 106.074219 89.652344 104.3125 88.855469 L 104.898438 87.5625 C 106.644531 88.355469 108.390625 89.105469 110.085938 89.792969 Z M 162.566406 93.769531 L 162.15625 92.414062 C 163.914062 91.882812 165.707031 91.28125 167.484375 90.636719 L 167.96875 91.96875 C 166.167969 92.625 164.351562 93.230469 162.566406 93.769531 Z M 117.597656 94.039062 C 115.847656 93.476562 114.035156 92.839844 112.210938 92.148438 L 112.710938 90.820312 C 114.515625 91.507812 116.304688 92.136719 118.027344 92.691406 Z M 154.277344 95.871094 L 153.992188 94.484375 C 155.808594 94.113281 157.644531 93.675781 159.460938 93.1875 L 159.828125 94.554688 C 157.988281 95.054688 156.121094 95.496094 154.277344 95.871094 Z M 125.875 96.269531 C 124.085938 95.886719 122.21875 95.417969 120.328125 94.875 L 120.722656 93.511719 C 122.578125 94.046875 124.410156 94.507812 126.171875 94.882812 Z M 145.8125 97.175781 L 145.671875 95.761719 C 147.515625 95.574219 149.386719 95.320312 151.230469 95.003906 L 151.46875 96.398438 C 149.59375 96.722656 147.691406 96.980469 145.8125 97.175781 Z M 134.382812 97.492188 C 132.5625 97.371094 130.648438 97.140625 128.6875 96.808594 L 128.925781 95.410156 C 130.835938 95.734375 132.707031 95.960938 134.480469 96.078125 Z M 137.496094 97.597656 L 137.257812 97.597656 L 137.269531 96.179688 L 137.496094 96.179688 C 139.277344 96.179688 141.085938 96.121094 142.871094 96 L 142.96875 97.414062 C 141.148438 97.535156 139.308594 97.597656 137.496094 97.597656 "/>
</g>
<path style=" stroke:none;fill-rule:nonzero;fill:rgb(87.741089%,87.518311%,87.573242%);fill-opacity:1;" d="M 393.601562 51.183594 C 393.601562 51.183594 373.082031 74.539062 371.382812 76.402344 C 369.828125 78.113281 364.640625 74.039062 365.1875 72.859375 C 365.730469 71.6875 377.601562 44.9375 377.601562 44.9375 "/>
<path style=" stroke:none;fill-rule:nonzero;fill:rgb(28.556824%,27.256775%,27.580261%);fill-opacity:1;" d="M 370.320312 77.171875 C 369.5 77.171875 368.46875 76.785156 367.328125 76.03125 C 366.273438 75.328125 364.394531 73.730469 364.863281 72.714844 C 365.398438 71.554688 377.160156 45.0625 377.277344 44.792969 L 377.925781 45.082031 C 377.808594 45.347656 366.042969 71.847656 365.507812 73.011719 C 365.390625 73.261719 366.160156 74.402344 367.722656 75.441406 C 368.890625 76.214844 370.484375 76.867188 371.121094 76.164062 C 372.800781 74.324219 393.128906 51.183594 393.335938 50.949219 L 393.867188 51.417969 C 393.660156 51.652344 373.328125 74.796875 371.644531 76.640625 C 371.324219 76.996094 370.871094 77.171875 370.320312 77.171875 "/>
<path style=" stroke:none;fill-rule:nonzero;fill:rgb(87.741089%,87.518311%,87.573242%);fill-opacity:1;" d="M 398.921875 39.117188 C 398.921875 39.117188 402.324219 8.21875 402.5625 5.703125 C 402.773438 3.402344 396.261719 2.320312 395.761719 3.515625 C 395.261719 4.710938 383.519531 31.515625 383.519531 31.515625 "/>
<path style=" stroke:none;fill-rule:nonzero;fill:rgb(28.556824%,27.256775%,27.580261%);fill-opacity:1;" d="M 399.273438 39.152344 L 398.566406 39.078125 C 398.601562 38.769531 401.976562 8.15625 402.207031 5.671875 C 402.296875 4.722656 400.734375 3.988281 399.371094 3.648438 C 397.5625 3.199219 396.195312 3.398438 396.089844 3.652344 C 395.59375 4.835938 383.960938 31.390625 383.84375 31.65625 L 383.195312 31.371094 C 383.3125 31.105469 394.941406 4.558594 395.4375 3.378906 C 395.863281 2.351562 398.3125 2.65625 399.542969 2.964844 C 401.761719 3.515625 403.023438 4.550781 402.914062 5.734375 C 402.679688 8.226562 399.304688 38.84375 399.273438 39.152344 "/>
<path style=" stroke:none;fill-rule:nonzero;fill:rgb(87.741089%,87.518311%,87.573242%);fill-opacity:1;" d="M 366.816406 38.011719 C 366.816406 38.011719 358.097656 48.136719 357.160156 49.339844 C 356.226562 50.546875 352.589844 47.320312 352.789062 46.402344 C 352.992188 45.480469 357.277344 31.175781 357.277344 31.175781 "/>
<path style=" stroke:none;fill-rule:nonzero;fill:rgb(28.556824%,27.256775%,27.580261%);fill-opacity:1;" d="M 356.558594 49.960938 C 356.285156 49.960938 355.941406 49.886719 355.511719 49.683594 C 354.214844 49.078125 352.242188 47.257812 352.445312 46.324219 C 352.648438 45.402344 356.761719 31.660156 356.9375 31.074219 L 357.613281 31.277344 C 357.570312 31.421875 353.335938 45.578125 353.136719 46.476562 C 353.085938 46.867188 354.585938 48.539062 355.945312 49.101562 C 356.210938 49.214844 356.695312 49.367188 356.882812 49.125 C 357.8125 47.925781 366.191406 38.191406 366.546875 37.78125 L 367.082031 38.242188 C 366.996094 38.34375 358.359375 48.375 357.441406 49.558594 C 357.300781 49.738281 357.035156 49.960938 356.558594 49.960938 "/>
<path style=" stroke:none;fill-rule:nonzero;fill:rgb(87.741089%,87.518311%,87.573242%);fill-opacity:1;" d="M 371.128906 28.222656 C 371.128906 28.222656 372.726562 14.960938 372.984375 13.457031 C 373.242188 11.949219 368.410156 11.4375 367.867188 12.210938 C 367.324219 12.984375 359.652344 25.792969 359.652344 25.792969 "/>
<path style=" stroke:none;fill-rule:nonzero;fill:rgb(28.556824%,27.256775%,27.580261%);fill-opacity:1;" d="M 371.480469 28.265625 L 370.777344 28.179688 C 370.84375 27.640625 372.378906 14.890625 372.636719 13.394531 C 372.6875 13.089844 372.246094 12.835938 371.976562 12.710938 C 370.640625 12.09375 368.40625 12.113281 368.152344 12.414062 C 367.625 13.164062 360.03125 25.847656 359.953125 25.976562 L 359.347656 25.609375 C 359.660156 25.089844 367.03125 12.78125 367.574219 12.007812 C 368.121094 11.230469 370.789062 11.453125 372.113281 12 C 373.316406 12.496094 373.394531 13.160156 373.332031 13.515625 C 373.078125 14.992188 371.496094 28.132812 371.480469 28.265625 "/>
<path style=" stroke:none;fill-rule:nonzero;fill:rgb(87.741089%,87.518311%,87.573242%);fill-opacity:1;" d="M 408.515625 54.265625 C 408.230469 53.0625 408.3125 51.792969 408.828125 50.613281 C 409.351562 49.433594 410.234375 48.515625 411.3125 47.914062 C 407.542969 43.554688 398.53125 37.734375 387.347656 32.800781 C 371.441406 25.785156 357.167969 23.226562 355.46875 27.085938 C 353.769531 30.941406 365.28125 39.75 381.191406 46.765625 C 392.375 51.699219 402.75 54.425781 408.515625 54.265625 "/>
<path style=" stroke:none;fill-rule:nonzero;fill:rgb(28.556824%,27.256775%,27.580261%);fill-opacity:1;" d="M 408.023438 54.625 C 404.042969 54.625 398.207031 53.402344 391.503906 51.15625 L 391.730469 50.484375 C 398.359375 52.707031 404.113281 53.917969 408.019531 53.917969 C 408.039062 53.917969 408.0625 53.917969 408.082031 53.917969 C 407.886719 52.738281 408.027344 51.554688 408.503906 50.472656 C 408.980469 49.390625 409.757812 48.484375 410.765625 47.832031 C 408.097656 44.894531 403.207031 41.386719 396.914062 37.914062 L 397.257812 37.296875 C 403.847656 40.929688 408.933594 44.621094 411.578125 47.683594 L 411.863281 48.015625 L 411.484375 48.226562 C 410.429688 48.8125 409.621094 49.6875 409.152344 50.757812 C 408.683594 51.828125 408.578125 53.011719 408.859375 54.183594 L 408.957031 54.609375 L 408.523438 54.621094 C 408.359375 54.625 408.191406 54.625 408.023438 54.625 "/>
<path style=" stroke:none;fill-rule:nonzero;fill:rgb(28.556824%,27.256775%,27.580261%);fill-opacity:1;" d="M 379.082031 46.203125 C 363.714844 39.128906 353.421875 30.847656 355.144531 26.941406 C 356.863281 23.042969 369.914062 25.050781 385.507812 31.621094 L 385.230469 32.273438 C 370.507812 26.070312 357.300781 23.804688 355.789062 27.226562 C 354.28125 30.652344 364.863281 38.878906 379.378906 45.5625 L 379.082031 46.203125 "/>
<path style=" stroke:none;fill-rule:nonzero;fill:rgb(57.032776%,56.251526%,56.445312%);fill-opacity:1;" d="M 408.515625 54.265625 C 410.945312 54.199219 412.5625 53.625 413.066406 52.480469 C 413.570312 51.335938 412.902344 49.753906 411.3125 47.914062 C 410.234375 48.515625 409.351562 49.433594 408.828125 50.613281 C 408.3125 51.792969 408.230469 53.0625 408.515625 54.265625 "/>
<path style=" stroke:none;fill-rule:nonzero;fill:rgb(28.556824%,27.256775%,27.580261%);fill-opacity:1;" d="M 411.234375 48.371094 C 410.304688 48.953125 409.585938 49.773438 409.152344 50.757812 C 408.722656 51.742188 408.601562 52.824219 408.800781 53.902344 C 410.972656 53.800781 412.335938 53.261719 412.742188 52.335938 C 413.148438 51.414062 412.628906 50.046875 411.234375 48.371094 Z M 408.515625 54.621094 C 408.351562 54.621094 408.207031 54.507812 408.171875 54.347656 C 407.859375 53.023438 407.972656 51.683594 408.507812 50.472656 C 409.039062 49.261719 409.949219 48.269531 411.140625 47.605469 C 411.285156 47.527344 411.472656 47.558594 411.578125 47.683594 C 413.332031 49.710938 413.941406 51.371094 413.390625 52.621094 C 412.839844 53.875 411.199219 54.546875 408.523438 54.621094 C 408.519531 54.621094 408.519531 54.621094 408.515625 54.621094 "/>
<path style=" stroke:none;fill-rule:nonzero;fill:rgb(70.74585%,70.213318%,70.344543%);fill-opacity:1;" d="M 404.761719 48.820312 C 405.085938 48.085938 405.5 47.429688 405.976562 46.832031 L 403.164062 44.015625 C 402.359375 44.960938 401.671875 46.027344 401.144531 47.226562 C 400.617188 48.417969 400.289062 49.648438 400.136719 50.878906 L 404.113281 51.054688 C 404.234375 50.300781 404.4375 49.550781 404.761719 48.820312 "/>
<path style=" stroke:none;fill-rule:nonzero;fill:rgb(87.741089%,87.518311%,87.573242%);fill-opacity:1;" d="M 358.191406 28.28125 C 358.191406 28.28125 367.777344 34.996094 368.699219 32.914062 C 369.613281 30.835938 358.191406 28.28125 358.191406 28.28125 "/>
<path style=" stroke:none;fill-rule:nonzero;fill:rgb(28.556824%,27.256775%,27.580261%);fill-opacity:1;" d="M 360.019531 29.089844 C 363.042969 31.058594 366.976562 33.273438 368.167969 32.933594 C 368.304688 32.894531 368.351562 32.828125 368.375 32.773438 C 368.398438 32.71875 368.414062 32.640625 368.351562 32.515625 C 367.796875 31.414062 363.515625 29.996094 360.019531 29.089844 Z M 367.933594 33.664062 C 365.339844 33.664062 358.769531 29.121094 357.984375 28.574219 C 357.847656 28.476562 357.796875 28.296875 357.867188 28.140625 C 357.933594 27.984375 358.097656 27.902344 358.269531 27.9375 C 359.253906 28.160156 367.949219 30.152344 368.984375 32.195312 C 369.132812 32.484375 369.144531 32.78125 369.023438 33.058594 C 368.902344 33.335938 368.671875 33.527344 368.359375 33.613281 C 368.234375 33.648438 368.089844 33.664062 367.933594 33.664062 "/>
<path style=" stroke:none;fill-rule:nonzero;fill:rgb(87.741089%,87.518311%,87.573242%);fill-opacity:1;" d="M 234.378906 54.261719 C 234.378906 54.261719 245.644531 83.234375 246.519531 85.605469 C 247.320312 87.769531 241.3125 90.5 240.519531 89.472656 C 239.722656 88.449219 221.460938 65.585938 221.460938 65.585938 "/>
<path style=" stroke:none;fill-rule:nonzero;fill:rgb(28.556824%,27.256775%,27.580261%);fill-opacity:1;" d="M 241.191406 90.054688 C 240.78125 90.054688 240.4375 89.949219 240.238281 89.6875 C 239.453125 88.679688 221.367188 66.03125 221.183594 65.804688 L 221.738281 65.363281 C 221.921875 65.589844 240.011719 88.242188 240.796875 89.257812 C 240.96875 89.476562 242.339844 89.316406 243.976562 88.40625 C 245.203125 87.730469 246.519531 86.621094 246.1875 85.730469 C 245.324219 83.386719 234.160156 54.679688 234.046875 54.390625 L 234.707031 54.136719 C 234.816406 54.425781 245.988281 83.136719 246.851562 85.484375 C 247.265625 86.597656 246.316406 87.921875 244.320312 89.027344 C 243.535156 89.464844 242.167969 90.054688 241.191406 90.054688 "/>
<path style=" stroke:none;fill-rule:nonzero;fill:rgb(87.741089%,87.518311%,87.573242%);fill-opacity:1;" d="M 226.121094 43.980469 C 226.121094 43.980469 200.273438 26.714844 198.148438 25.347656 C 196.207031 24.097656 192.242188 29.375 193.070312 30.371094 C 193.902344 31.367188 212.277344 54.144531 212.277344 54.144531 "/>
<path style=" stroke:none;fill-rule:nonzero;fill:rgb(28.556824%,27.256775%,27.580261%);fill-opacity:1;" d="M 212.003906 54.363281 C 211.816406 54.136719 193.617188 31.582031 192.800781 30.597656 C 192.136719 29.796875 193.355469 27.855469 194.339844 26.746094 C 195.847656 25.042969 197.34375 24.410156 198.339844 25.050781 C 200.441406 26.402344 226.058594 43.511719 226.316406 43.6875 L 225.925781 44.273438 C 225.664062 44.101562 200.054688 26.996094 197.953125 25.644531 C 197.15625 25.132812 195.796875 26.171875 194.867188 27.214844 C 193.621094 28.625 193.167969 29.933594 193.34375 30.148438 C 194.164062 31.132812 212.367188 53.691406 212.550781 53.921875 L 212.003906 54.363281 "/>
<path style=" stroke:none;fill-rule:nonzero;fill:rgb(87.741089%,87.518311%,87.573242%);fill-opacity:1;" d="M 210.339844 71.960938 C 210.339844 71.960938 215.308594 84.363281 215.945312 85.746094 C 216.585938 87.136719 212.046875 88.878906 211.324219 88.273438 C 210.597656 87.671875 199.878906 77.273438 199.878906 77.273438 "/>
<path style=" stroke:none;fill-rule:nonzero;fill:rgb(28.556824%,27.256775%,27.580261%);fill-opacity:1;" d="M 211.835938 88.742188 C 211.519531 88.742188 211.261719 88.683594 211.09375 88.542969 C 210.371094 87.941406 200.070312 77.953125 199.632812 77.527344 L 200.125 77.019531 C 200.234375 77.125 210.84375 87.410156 211.550781 88 C 211.867188 88.226562 214.035156 87.671875 215.164062 86.726562 C 215.390625 86.539062 215.753906 86.175781 215.625 85.894531 C 214.988281 84.519531 210.214844 72.597656 210.011719 72.089844 L 210.667969 71.828125 C 210.71875 71.953125 215.640625 84.238281 216.269531 85.601562 C 216.417969 85.925781 216.515625 86.589844 215.480469 87.382812 C 214.601562 88.050781 212.898438 88.742188 211.835938 88.742188 "/>
<path style=" stroke:none;fill-rule:nonzero;fill:rgb(87.741089%,87.518311%,87.573242%);fill-opacity:1;" d="M 203.644531 63.621094 C 203.644531 63.621094 192.609375 56.089844 191.394531 55.167969 C 190.175781 54.242188 187.496094 58.300781 187.933594 59.136719 C 188.363281 59.976562 196.199219 72.6875 196.199219 72.6875 "/>
<path style=" stroke:none;fill-rule:nonzero;fill:rgb(28.556824%,27.256775%,27.580261%);fill-opacity:1;" d="M 195.898438 72.871094 C 195.578125 72.351562 188.050781 60.140625 187.617188 59.300781 C 187.179688 58.460938 188.605469 56.195312 189.699219 55.273438 C 190.695312 54.429688 191.324219 54.671875 191.609375 54.886719 C 192.804688 55.792969 203.734375 63.253906 203.84375 63.328125 L 203.445312 63.914062 C 202.992188 63.605469 192.390625 56.367188 191.183594 55.449219 C 190.9375 55.265625 190.503906 55.539062 190.269531 55.71875 C 189.109375 56.617188 188.097656 58.613281 188.246094 58.976562 C 188.667969 59.789062 196.421875 72.375 196.5 72.5 L 195.898438 72.871094 "/>
<path style=" stroke:none;fill-rule:nonzero;fill:rgb(87.741089%,87.518311%,87.573242%);fill-opacity:1;" d="M 243.988281 42.449219 C 242.789062 42.144531 241.699219 41.488281 240.890625 40.484375 C 240.085938 39.476562 239.679688 38.273438 239.644531 37.035156 C 234.03125 38.371094 224.714844 43.683594 215.179688 51.335938 C 201.628906 62.222656 192.777344 73.707031 195.414062 76.992188 C 198.050781 80.273438 211.179688 74.121094 224.734375 63.238281 C 234.269531 55.585938 241.46875 47.636719 243.988281 42.449219 "/>
<path style=" stroke:none;fill-rule:nonzero;fill:rgb(28.556824%,27.256775%,27.580261%);fill-opacity:1;" d="M 233.386719 56.109375 L 232.894531 55.601562 C 237.949219 50.714844 241.691406 46.144531 243.480469 42.671875 C 242.339844 42.300781 241.351562 41.625 240.613281 40.707031 C 239.875 39.78125 239.433594 38.675781 239.316406 37.480469 C 235.476562 38.496094 230.109375 41.222656 224.128906 45.203125 L 223.738281 44.613281 C 229.996094 40.441406 235.617188 37.632812 239.5625 36.691406 L 239.984375 36.589844 L 239.996094 37.023438 C 240.03125 38.230469 240.4375 39.347656 241.167969 40.261719 C 241.898438 41.171875 242.902344 41.808594 244.074219 42.105469 L 244.496094 42.214844 L 244.304688 42.605469 C 242.5625 46.191406 238.6875 50.988281 233.386719 56.109375 "/>
<path style=" stroke:none;fill-rule:nonzero;fill:rgb(28.556824%,27.256775%,27.580261%);fill-opacity:1;" d="M 197.820312 78.199219 C 196.589844 78.203125 195.675781 77.882812 195.136719 77.214844 C 192.46875 73.886719 200.269531 63.234375 213.285156 52.425781 L 213.738281 52.972656 C 201.445312 63.179688 193.347656 73.855469 195.691406 76.769531 C 198.035156 79.691406 210.210938 74.089844 222.832031 64.289062 L 223.265625 64.847656 C 212.589844 73.140625 202.71875 78.199219 197.820312 78.199219 "/>
<path style=" stroke:none;fill-rule:nonzero;fill:rgb(57.032776%,56.251526%,56.445312%);fill-opacity:1;" d="M 243.988281 42.449219 C 245.050781 40.257812 245.285156 38.5625 244.503906 37.585938 C 243.71875 36.609375 242.007812 36.476562 239.644531 37.035156 C 239.679688 38.273438 240.085938 39.476562 240.890625 40.484375 C 241.699219 41.488281 242.789062 42.144531 243.988281 42.449219 "/>
<path style=" stroke:none;fill-rule:nonzero;fill:rgb(28.556824%,27.256775%,27.580261%);fill-opacity:1;" d="M 240.011719 37.316406 C 240.097656 38.410156 240.496094 39.425781 241.164062 40.261719 C 241.839844 41.097656 242.742188 41.707031 243.796875 42.027344 C 244.707031 40.050781 244.855469 38.597656 244.226562 37.808594 C 243.59375 37.019531 242.140625 36.851562 240.011719 37.316406 Z M 243.988281 42.804688 C 243.960938 42.804688 243.929688 42.800781 243.898438 42.792969 C 242.578125 42.460938 241.441406 41.738281 240.613281 40.707031 C 239.785156 39.671875 239.328125 38.40625 239.289062 37.046875 C 239.285156 36.878906 239.398438 36.730469 239.5625 36.691406 C 242.164062 36.070312 243.921875 36.300781 244.777344 37.363281 C 245.632812 38.429688 245.476562 40.191406 244.304688 42.605469 C 244.246094 42.726562 244.121094 42.804688 243.988281 42.804688 "/>
<path style=" stroke:none;fill-rule:nonzero;fill:rgb(70.74585%,70.213318%,70.344543%);fill-opacity:1;" d="M 237.425781 43.269531 C 236.921875 42.644531 236.53125 41.972656 236.21875 41.277344 L 232.425781 42.472656 C 232.894531 43.621094 233.523438 44.726562 234.34375 45.742188 C 235.160156 46.761719 236.097656 47.617188 237.121094 48.320312 L 239.109375 44.875 C 238.496094 44.421875 237.925781 43.890625 237.425781 43.269531 "/>
<path style=" stroke:none;fill-rule:nonzero;fill:rgb(87.741089%,87.518311%,87.573242%);fill-opacity:1;" d="M 197.730469 75.132812 C 197.730469 75.132812 208.109375 69.710938 206.6875 67.941406 C 205.265625 66.171875 197.730469 75.132812 197.730469 75.132812 "/>
<path style=" stroke:none;fill-rule:nonzero;fill:rgb(28.556824%,27.256775%,27.580261%);fill-opacity:1;" d="M 206.164062 68.0625 C 204.925781 68.0625 201.703125 71.199219 199.292969 73.878906 C 202.4375 72.097656 206.207031 69.621094 206.457031 68.417969 C 206.484375 68.277344 206.449219 68.210938 206.410156 68.164062 C 206.371094 68.113281 206.285156 68.082031 206.164062 68.0625 Z M 197.730469 75.484375 C 197.628906 75.484375 197.523438 75.4375 197.457031 75.351562 C 197.351562 75.222656 197.351562 75.03125 197.460938 74.902344 C 198.109375 74.128906 203.871094 67.355469 206.167969 67.355469 C 206.171875 67.355469 206.175781 67.355469 206.179688 67.355469 C 206.503906 67.359375 206.777344 67.484375 206.964844 67.71875 C 207.152344 67.953125 207.214844 68.246094 207.152344 68.5625 C 206.683594 70.800781 198.792969 74.976562 197.894531 75.445312 C 197.84375 75.472656 197.785156 75.484375 197.730469 75.484375 "/>
<path style=" stroke:none;fill-rule:nonzero;fill:rgb(87.741089%,87.518311%,87.573242%);fill-opacity:1;" d="M 55.453125 64.949219 C 55.453125 64.949219 29.902344 82.660156 27.804688 84.0625 C 25.882812 85.347656 21.832031 80.140625 22.644531 79.128906 C 23.457031 78.117188 41.429688 55.027344 41.429688 55.027344 "/>
<path style=" stroke:none;fill-rule:nonzero;fill:rgb(28.556824%,27.256775%,27.580261%);fill-opacity:1;" d="M 27.113281 84.617188 C 26.210938 84.617188 25.097656 83.960938 23.964844 82.722656 C 23.105469 81.785156 21.664062 79.78125 22.371094 78.90625 C 23.167969 77.910156 40.972656 55.039062 41.152344 54.8125 L 41.710938 55.246094 C 41.53125 55.476562 23.722656 78.347656 22.921875 79.351562 C 22.746094 79.566406 23.21875 80.863281 24.484375 82.246094 C 25.429688 83.277344 26.816406 84.300781 27.605469 83.769531 C 29.679688 82.382812 54.996094 64.835938 55.25 64.660156 L 55.652344 65.242188 C 55.398438 65.417969 30.078125 82.96875 28 84.355469 C 27.738281 84.53125 27.441406 84.617188 27.113281 84.617188 "/>
<path style=" stroke:none;fill-rule:nonzero;fill:rgb(87.741089%,87.518311%,87.573242%);fill-opacity:1;" d="M 63.527344 54.523438 C 63.527344 54.523438 74.289062 25.363281 75.125 22.976562 C 75.886719 20.796875 69.828125 18.175781 69.054688 19.214844 C 68.277344 20.253906 50.417969 43.429688 50.417969 43.429688 "/>
<path style=" stroke:none;fill-rule:nonzero;fill:rgb(28.556824%,27.256775%,27.580261%);fill-opacity:1;" d="M 63.859375 54.644531 L 63.195312 54.398438 C 63.300781 54.109375 73.964844 25.214844 74.789062 22.859375 C 75.101562 21.964844 73.769531 20.878906 72.535156 20.21875 C 70.878906 19.339844 69.503906 19.203125 69.339844 19.425781 C 68.570312 20.453125 50.875 43.414062 50.699219 43.644531 L 50.136719 43.210938 C 50.316406 42.980469 68.003906 20.027344 68.773438 19.003906 C 69.441406 18.105469 71.742188 18.996094 72.863281 19.59375 C 74.882812 20.664062 75.851562 21.972656 75.457031 23.09375 C 74.632812 25.453125 63.964844 54.351562 63.859375 54.644531 "/>
<path style=" stroke:none;fill-rule:nonzero;fill:rgb(87.741089%,87.518311%,87.573242%);fill-opacity:1;" d="M 32.636719 45.699219 C 32.636719 45.699219 21.734375 53.421875 20.535156 54.367188 C 19.335938 55.308594 16.582031 51.304688 17.003906 50.457031 C 17.421875 49.609375 25.03125 36.765625 25.03125 36.765625 "/>
<path style=" stroke:none;fill-rule:nonzero;fill:rgb(28.556824%,27.256775%,27.580261%);fill-opacity:1;" d="M 20.117188 54.859375 C 19.792969 54.859375 19.371094 54.726562 18.84375 54.296875 C 17.730469 53.394531 16.261719 51.152344 16.683594 50.300781 C 17.105469 49.453125 24.417969 37.109375 24.726562 36.585938 L 25.335938 36.945312 C 25.261719 37.074219 17.726562 49.789062 17.320312 50.613281 C 17.175781 50.976562 18.222656 52.953125 19.402344 53.835938 C 19.640625 54.011719 20.074219 54.28125 20.316406 54.089844 C 21.507812 53.148438 31.988281 45.726562 32.433594 45.410156 L 32.839844 45.988281 C 32.734375 46.066406 21.933594 53.714844 20.753906 54.644531 C 20.621094 54.75 20.410156 54.859375 20.117188 54.859375 "/>
<path style=" stroke:none;fill-rule:nonzero;fill:rgb(87.741089%,87.518311%,87.573242%);fill-opacity:1;" d="M 39.1875 37.242188 C 39.1875 37.242188 43.941406 24.757812 44.550781 23.359375 C 45.167969 21.960938 40.597656 20.300781 39.886719 20.917969 C 39.171875 21.535156 28.632812 32.117188 28.632812 32.117188 "/>
<path style=" stroke:none;fill-rule:nonzero;fill:rgb(28.556824%,27.256775%,27.580261%);fill-opacity:1;" d="M 39.515625 37.371094 L 38.855469 37.117188 C 39.046875 36.609375 43.617188 24.609375 44.226562 23.21875 C 44.351562 22.933594 43.984375 22.582031 43.753906 22.398438 C 42.609375 21.472656 40.4375 20.953125 40.117188 21.1875 C 39.421875 21.785156 28.988281 32.257812 28.882812 32.363281 L 28.382812 31.863281 C 28.8125 31.433594 38.9375 21.269531 39.652344 20.648438 C 40.367188 20.027344 42.90625 20.886719 44.058594 21.738281 C 45.105469 22.507812 45.019531 23.175781 44.875 23.503906 C 44.273438 24.875 39.566406 37.246094 39.515625 37.371094 "/>
<path style=" stroke:none;fill-rule:nonzero;fill:rgb(87.741089%,87.518311%,87.573242%);fill-opacity:1;" d="M 69.179688 71.539062 C 69.195312 70.304688 69.578125 69.09375 70.367188 68.070312 C 71.15625 67.054688 72.238281 66.378906 73.429688 66.054688 C 70.824219 60.910156 63.484375 53.089844 53.820312 45.601562 C 40.078125 34.957031 26.84375 29.023438 24.265625 32.359375 C 21.683594 35.691406 30.734375 47.019531 44.476562 57.664062 C 54.140625 65.152344 63.546875 70.304688 69.179688 71.539062 "/>
<path style=" stroke:none;fill-rule:nonzero;fill:rgb(28.556824%,27.256775%,27.580261%);fill-opacity:1;" d="M 69.527344 71.980469 L 69.101562 71.886719 C 65.207031 71.03125 59.640625 68.378906 53.421875 64.417969 L 53.804688 63.820312 C 59.734375 67.597656 65.050781 70.171875 68.84375 71.097656 C 68.941406 69.90625 69.363281 68.792969 70.085938 67.855469 C 70.8125 66.921875 71.785156 66.230469 72.917969 65.84375 C 71.046875 62.351562 67.144531 57.765625 61.871094 52.875 L 62.355469 52.355469 C 67.875 57.480469 71.921875 62.285156 73.746094 65.894531 L 73.941406 66.285156 L 73.523438 66.398438 C 72.359375 66.710938 71.363281 67.367188 70.644531 68.289062 C 69.933594 69.214844 69.546875 70.339844 69.53125 71.546875 L 69.527344 71.980469 "/>
<path style=" stroke:none;fill-rule:nonzero;fill:rgb(28.556824%,27.256775%,27.580261%);fill-opacity:1;" d="M 42.566406 56.613281 C 29.363281 46.035156 21.375 35.515625 23.984375 32.140625 C 26.597656 28.773438 38.777344 33.875 52.316406 44.011719 L 51.894531 44.578125 C 39.101562 35.003906 26.839844 29.617188 24.546875 32.574219 C 22.253906 35.535156 30.535156 46.070312 43.011719 56.0625 L 42.566406 56.613281 "/>
<path style=" stroke:none;fill-rule:nonzero;fill:rgb(57.032776%,56.251526%,56.445312%);fill-opacity:1;" d="M 69.179688 71.539062 C 71.554688 72.0625 73.261719 71.894531 74.03125 70.90625 C 74.792969 69.921875 74.527344 68.222656 73.429688 66.054688 C 72.238281 66.378906 71.15625 67.054688 70.367188 68.070312 C 69.578125 69.09375 69.195312 70.304688 69.179688 71.539062 "/>
<path style=" stroke:none;fill-rule:nonzero;fill:rgb(28.556824%,27.256775%,27.580261%);fill-opacity:1;" d="M 69.542969 71.253906 C 71.675781 71.679688 73.128906 71.488281 73.75 70.691406 C 74.367188 69.890625 74.191406 68.4375 73.242188 66.480469 C 72.199219 66.816406 71.304688 67.4375 70.644531 68.289062 C 69.988281 69.140625 69.609375 70.160156 69.542969 71.253906 Z M 71.507812 72.183594 C 70.8125 72.183594 70.007812 72.085938 69.101562 71.886719 C 68.9375 71.851562 68.824219 71.703125 68.824219 71.535156 C 68.839844 70.179688 69.277344 68.90625 70.085938 67.855469 C 70.902344 66.808594 72.023438 66.066406 73.335938 65.714844 C 73.496094 65.671875 73.667969 65.746094 73.746094 65.894531 C 74.957031 68.285156 75.144531 70.042969 74.308594 71.125 C 73.761719 71.832031 72.824219 72.183594 71.507812 72.183594 "/>
<path style=" stroke:none;fill-rule:nonzero;fill:rgb(70.74585%,70.213318%,70.344543%);fill-opacity:1;" d="M 66.855469 65.351562 C 67.34375 64.71875 67.90625 64.179688 68.511719 63.714844 L 66.460938 60.304688 C 65.453125 61.023438 64.527344 61.898438 63.730469 62.929688 C 62.925781 63.960938 62.316406 65.074219 61.867188 66.234375 L 65.683594 67.367188 C 65.980469 66.660156 66.363281 65.980469 66.855469 65.351562 "/>
<path style=" stroke:none;fill-rule:nonzero;fill:rgb(87.741089%,87.518311%,87.573242%);fill-opacity:1;" d="M 26.617188 34.179688 C 26.617188 34.179688 34.304688 43.007812 35.695312 41.210938 C 37.085938 39.414062 26.617188 34.179688 26.617188 34.179688 "/>
<path style=" stroke:none;fill-rule:nonzero;fill:rgb(28.556824%,27.256775%,27.580261%);fill-opacity:1;" d="M 28.199219 35.402344 C 30.648438 38.03125 33.910156 41.097656 35.15625 41.097656 C 35.164062 41.097656 35.171875 41.097656 35.175781 41.097656 C 35.320312 41.09375 35.378906 41.042969 35.414062 40.992188 C 35.453125 40.945312 35.488281 40.878906 35.457031 40.738281 C 35.183594 39.535156 31.371094 37.128906 28.199219 35.402344 Z M 35.164062 41.808594 C 32.855469 41.808594 27.011719 35.171875 26.347656 34.410156 C 26.238281 34.28125 26.234375 34.09375 26.335938 33.960938 C 26.441406 33.828125 26.621094 33.785156 26.773438 33.859375 C 27.679688 34.3125 35.636719 38.351562 36.148438 40.582031 C 36.21875 40.894531 36.160156 41.191406 35.976562 41.429688 C 35.792969 41.664062 35.523438 41.796875 35.199219 41.804688 C 35.1875 41.808594 35.175781 41.808594 35.164062 41.808594 "/>
<path style=" stroke:none;fill-rule:nonzero;fill:rgb(87.741089%,87.518311%,87.573242%);fill-opacity:1;" d="M 47.03125 127.242188 C 48.640625 127.242188 55.5625 127.242188 56.429688 127.242188 C 57.414062 127.242188 62.148438 127.78125 57.859375 128.40625 C 54.234375 128.933594 48.695312 129.847656 47.070312 130.117188 "/>
<path style=" stroke:none;fill-rule:nonzero;fill:rgb(28.556824%,27.256775%,27.580261%);fill-opacity:1;" d="M 47.125 130.464844 L 47.011719 129.765625 C 48.617188 129.5 54.144531 128.589844 57.808594 128.058594 C 58.261719 127.988281 58.585938 127.929688 58.8125 127.878906 C 58.125 127.726562 56.984375 127.597656 56.429688 127.597656 L 47.03125 127.597656 L 47.03125 126.890625 L 56.429688 126.890625 C 56.464844 126.890625 59.917969 126.960938 59.980469 127.84375 C 60.015625 128.300781 59.511719 128.523438 57.910156 128.757812 C 54.25 129.289062 48.730469 130.199219 47.125 130.464844 "/>
<path style=" stroke:none;fill-rule:nonzero;fill:rgb(87.741089%,87.518311%,87.573242%);fill-opacity:1;" d="M 45.207031 127.242188 C 43.597656 127.242188 36.675781 127.242188 35.808594 127.242188 C 34.824219 127.242188 30.089844 127.78125 34.378906 128.40625 C 38.003906 128.933594 43.542969 129.847656 45.167969 130.117188 "/>
<path style=" stroke:none;fill-rule:nonzero;fill:rgb(28.556824%,27.256775%,27.580261%);fill-opacity:1;" d="M 45.113281 130.464844 C 43.507812 130.199219 37.988281 129.289062 34.328125 128.757812 C 32.726562 128.523438 32.222656 128.300781 32.257812 127.84375 C 32.320312 126.960938 35.773438 126.890625 35.808594 126.890625 L 45.207031 126.890625 L 45.207031 127.597656 L 35.808594 127.597656 C 35.253906 127.597656 34.113281 127.726562 33.425781 127.878906 C 33.65625 127.929688 33.976562 127.988281 34.429688 128.058594 C 38.09375 128.589844 43.621094 129.5 45.226562 129.765625 L 45.113281 130.464844 "/>
<path style=" stroke:none;fill-rule:nonzero;fill:rgb(87.741089%,87.518311%,87.573242%);fill-opacity:1;" d="M 47.082031 128.007812 C 47.082031 121.007812 46.464844 114.003906 45.695312 114.003906 C 44.925781 114.003906 44.308594 121.007812 44.308594 128.007812 "/>
<path style=" stroke:none;fill-rule:nonzero;fill:rgb(28.556824%,27.256775%,27.580261%);fill-opacity:1;" d="M 47.433594 128.007812 L 46.726562 128.007812 C 46.726562 121.492188 46.199219 115.796875 45.695312 114.539062 C 45.195312 115.796875 44.664062 121.492188 44.664062 128.007812 L 43.957031 128.007812 C 43.957031 127.421875 43.976562 113.652344 45.695312 113.652344 C 47.414062 113.652344 47.433594 127.421875 47.433594 128.007812 "/>
<path style=" stroke:none;fill-rule:nonzero;fill:rgb(87.741089%,87.518311%,87.573242%);fill-opacity:1;" d="M 84.640625 137.882812 C 76.710938 136.726562 61.953125 134.796875 55.304688 133.839844 C 53.988281 129.789062 50.1875 126.859375 45.695312 126.859375 C 41.203125 126.859375 37.402344 129.789062 36.085938 133.839844 C 29.4375 134.796875 14.679688 136.726562 6.75 137.882812 C -4.183594 139.476562 7.886719 140.839844 10.394531 140.839844 C 12.28125 140.839844 28.960938 140.839844 36.355469 140.839844 C 37.875 144.503906 41.484375 147.078125 45.695312 147.078125 C 49.90625 147.078125 53.511719 144.503906 55.03125 140.839844 C 62.429688 140.839844 79.109375 140.839844 80.996094 140.839844 C 83.503906 140.839844 95.574219 139.476562 84.640625 137.882812 "/>
<path style=" stroke:none;fill-rule:nonzero;fill:rgb(28.556824%,27.256775%,27.580261%);fill-opacity:1;" d="M 2.636719 139.238281 C 3.332031 139.847656 8.386719 140.488281 10.394531 140.488281 L 36.355469 140.488281 C 36.5 140.488281 36.628906 140.574219 36.683594 140.707031 C 38.203125 144.359375 41.738281 146.722656 45.695312 146.722656 C 49.648438 146.722656 53.1875 144.359375 54.707031 140.707031 C 54.761719 140.574219 54.890625 140.488281 55.03125 140.488281 L 80.996094 140.488281 C 83 140.488281 88.058594 139.847656 88.753906 139.238281 C 88.5625 139.085938 87.777344 138.699219 84.589844 138.234375 C 80.25 137.601562 73.964844 136.75 67.886719 135.925781 C 62.9375 135.253906 58.265625 134.621094 55.253906 134.1875 C 55.121094 134.171875 55.011719 134.074219 54.96875 133.945312 C 53.65625 129.917969 49.929688 127.210938 45.695312 127.210938 C 41.457031 127.210938 37.730469 129.917969 36.421875 133.945312 C 36.378906 134.074219 36.269531 134.171875 36.132812 134.1875 C 33.117188 134.625 28.4375 135.257812 23.476562 135.929688 C 17.410156 136.75 11.132812 137.601562 6.800781 138.234375 C 3.613281 138.699219 2.828125 139.085938 2.636719 139.238281 Z M 45.695312 147.429688 C 41.53125 147.429688 37.800781 144.992188 36.125 141.195312 L 10.394531 141.195312 C 10.308594 141.195312 2 140.839844 1.886719 139.277344 C 1.84375 138.640625 2.628906 138.128906 6.695312 137.53125 C 11.035156 136.898438 17.3125 136.050781 23.382812 135.226562 C 28.222656 134.570312 32.796875 133.953125 35.816406 133.519531 C 37.28125 129.3125 41.222656 126.503906 45.695312 126.503906 C 50.164062 126.503906 54.105469 129.3125 55.570312 133.519531 C 58.585938 133.949219 63.152344 134.570312 67.984375 135.222656 C 74.0625 136.046875 80.351562 136.898438 84.691406 137.53125 C 88.757812 138.128906 89.546875 138.640625 89.5 139.277344 C 89.386719 140.839844 81.078125 141.195312 80.996094 141.195312 L 55.265625 141.195312 C 53.589844 144.992188 49.855469 147.429688 45.695312 147.429688 "/>
<path style=" stroke:none;fill-rule:nonzero;fill:rgb(57.032776%,56.251526%,56.445312%);fill-opacity:1;" d="M 42.089844 136.96875 C 42.089844 134.976562 43.703125 133.363281 45.695312 133.363281 C 47.683594 133.363281 49.296875 134.976562 49.296875 136.96875 C 49.296875 138.957031 47.683594 140.570312 45.695312 140.570312 C 43.703125 140.570312 42.089844 138.957031 42.089844 136.96875 "/>
<path style=" stroke:none;fill-rule:nonzero;fill:rgb(28.556824%,27.256775%,27.580261%);fill-opacity:1;" d="M 45.695312 133.714844 C 43.902344 133.714844 42.445312 135.175781 42.445312 136.96875 C 42.445312 138.757812 43.902344 140.21875 45.695312 140.21875 C 47.484375 140.21875 48.945312 138.757812 48.945312 136.96875 C 48.945312 135.175781 47.484375 133.714844 45.695312 133.714844 Z M 45.695312 140.925781 C 43.511719 140.925781 41.734375 139.148438 41.734375 136.96875 C 41.734375 134.785156 43.511719 133.007812 45.695312 133.007812 C 47.878906 133.007812 49.652344 134.785156 49.652344 136.96875 C 49.652344 139.148438 47.878906 140.925781 45.695312 140.925781 "/>
<path style=" stroke:none;fill-rule:nonzero;fill:rgb(70.74585%,70.213318%,70.344543%);fill-opacity:1;" d="M 45.695312 131.960938 C 46.648438 131.960938 47.527344 132.242188 48.289062 132.703125 L 50.175781 129.601562 C 48.871094 128.804688 47.335938 128.339844 45.695312 128.339844 C 44.046875 128.339844 42.519531 128.804688 41.210938 129.601562 L 43.097656 132.703125 C 43.855469 132.242188 44.738281 131.960938 45.695312 131.960938 "/>
<path style=" stroke:none;fill-rule:nonzero;fill:rgb(87.741089%,87.518311%,87.573242%);fill-opacity:1;" d="M 214.933594 127.242188 C 216.542969 127.242188 223.464844 127.242188 224.332031 127.242188 C 225.316406 127.242188 230.050781 127.78125 225.761719 128.40625 C 222.136719 128.933594 216.597656 129.847656 214.96875 130.117188 "/>
<path style=" stroke:none;fill-rule:nonzero;fill:rgb(28.556824%,27.256775%,27.580261%);fill-opacity:1;" d="M 215.027344 130.464844 L 214.910156 129.765625 C 216.527344 129.5 222.082031 128.585938 225.710938 128.058594 C 226.164062 127.988281 226.484375 127.929688 226.714844 127.878906 C 226.027344 127.726562 224.886719 127.597656 224.332031 127.597656 L 214.933594 127.597656 L 214.933594 126.890625 L 224.332031 126.890625 C 224.367188 126.890625 227.820312 126.960938 227.882812 127.84375 C 227.914062 128.300781 227.414062 128.523438 225.8125 128.757812 C 222.191406 129.285156 216.640625 130.199219 215.027344 130.464844 "/>
<path style=" stroke:none;fill-rule:nonzero;fill:rgb(87.741089%,87.518311%,87.573242%);fill-opacity:1;" d="M 213.109375 127.242188 C 211.5 127.242188 204.574219 127.242188 203.710938 127.242188 C 202.726562 127.242188 197.988281 127.78125 202.277344 128.40625 C 205.902344 128.933594 211.445312 129.847656 213.070312 130.117188 "/>
<path style=" stroke:none;fill-rule:nonzero;fill:rgb(28.556824%,27.256775%,27.580261%);fill-opacity:1;" d="M 213.015625 130.464844 C 211.398438 130.195312 205.839844 129.28125 202.226562 128.757812 C 200.628906 128.523438 200.125 128.300781 200.15625 127.84375 C 200.222656 126.960938 203.675781 126.890625 203.710938 126.890625 L 213.109375 126.890625 L 213.109375 127.597656 L 203.710938 127.597656 C 203.152344 127.597656 202.015625 127.726562 201.328125 127.878906 C 201.554688 127.929688 201.875 127.988281 202.328125 128.058594 C 205.945312 128.582031 211.511719 129.5 213.128906 129.765625 L 213.015625 130.464844 "/>
<path style=" stroke:none;fill-rule:nonzero;fill:rgb(87.741089%,87.518311%,87.573242%);fill-opacity:1;" d="M 214.980469 128.007812 C 214.980469 121.007812 214.363281 114.003906 213.59375 114.003906 C 212.824219 114.003906 212.210938 121.007812 212.210938 128.007812 "/>
<path style=" stroke:none;fill-rule:nonzero;fill:rgb(28.556824%,27.256775%,27.580261%);fill-opacity:1;" d="M 215.335938 128.007812 L 214.628906 128.007812 C 214.628906 121.492188 214.097656 115.796875 213.59375 114.539062 C 213.09375 115.796875 212.5625 121.492188 212.5625 128.007812 L 211.855469 128.007812 C 211.855469 127.421875 211.875 113.652344 213.59375 113.652344 C 215.3125 113.652344 215.335938 127.421875 215.335938 128.007812 "/>
<path style=" stroke:none;fill-rule:nonzero;fill:rgb(87.741089%,87.518311%,87.573242%);fill-opacity:1;" d="M 252.542969 137.882812 C 244.609375 136.726562 229.855469 134.796875 223.207031 133.839844 C 221.890625 129.789062 218.085938 126.859375 213.59375 126.859375 C 209.101562 126.859375 205.300781 129.789062 203.984375 133.839844 C 197.335938 134.796875 182.582031 136.726562 174.648438 137.882812 C 163.714844 139.476562 175.789062 140.839844 178.292969 140.839844 C 180.183594 140.839844 196.859375 140.839844 204.257812 140.839844 C 205.777344 144.503906 209.386719 147.078125 213.59375 147.078125 C 217.804688 147.078125 221.410156 144.503906 222.933594 140.839844 C 230.332031 140.839844 247.007812 140.839844 248.898438 140.839844 C 251.402344 140.839844 263.472656 139.476562 252.542969 137.882812 "/>
<path style=" stroke:none;fill-rule:nonzero;fill:rgb(28.556824%,27.256775%,27.580261%);fill-opacity:1;" d="M 170.535156 139.238281 C 171.230469 139.847656 176.289062 140.488281 178.292969 140.488281 L 204.257812 140.488281 C 204.398438 140.488281 204.527344 140.574219 204.582031 140.707031 C 206.101562 144.359375 209.640625 146.722656 213.59375 146.722656 C 217.550781 146.722656 221.085938 144.359375 222.605469 140.707031 C 222.660156 140.574219 222.789062 140.488281 222.933594 140.488281 L 248.898438 140.488281 C 250.902344 140.488281 255.960938 139.847656 256.652344 139.238281 C 256.464844 139.085938 255.679688 138.699219 252.488281 138.234375 C 248.15625 137.601562 241.882812 136.75 235.8125 135.929688 C 230.855469 135.257812 226.171875 134.625 223.15625 134.1875 C 223.023438 134.171875 222.910156 134.074219 222.867188 133.945312 C 221.558594 129.917969 217.832031 127.210938 213.59375 127.210938 C 209.359375 127.210938 205.632812 129.917969 204.320312 133.949219 C 204.277344 134.074219 204.167969 134.171875 204.035156 134.1875 C 201.019531 134.625 196.335938 135.257812 191.378906 135.929688 C 185.3125 136.75 179.035156 137.601562 174.699219 138.234375 C 171.511719 138.699219 170.726562 139.085938 170.535156 139.238281 Z M 213.59375 147.429688 C 209.429688 147.429688 205.699219 144.992188 204.023438 141.195312 L 178.292969 141.195312 C 178.210938 141.195312 169.902344 140.839844 169.789062 139.277344 C 169.742188 138.640625 170.53125 138.128906 174.597656 137.53125 C 178.9375 136.898438 185.214844 136.050781 191.285156 135.226562 C 196.121094 134.570312 200.699219 133.953125 203.71875 133.519531 C 205.183594 129.3125 209.125 126.503906 213.59375 126.503906 C 218.066406 126.503906 222.007812 129.3125 223.472656 133.519531 C 226.492188 133.953125 231.066406 134.570312 235.90625 135.226562 C 241.976562 136.050781 248.253906 136.898438 252.59375 137.53125 C 256.660156 138.128906 257.445312 138.640625 257.402344 139.277344 C 257.289062 140.839844 248.980469 141.195312 248.898438 141.195312 L 223.167969 141.195312 C 221.488281 144.992188 217.757812 147.429688 213.59375 147.429688 "/>
<path style=" stroke:none;fill-rule:nonzero;fill:rgb(57.032776%,56.251526%,56.445312%);fill-opacity:1;" d="M 209.988281 136.96875 C 209.988281 134.976562 211.601562 133.363281 213.59375 133.363281 C 215.585938 133.363281 217.195312 134.976562 217.195312 136.96875 C 217.195312 138.957031 215.585938 140.570312 213.59375 140.570312 C 211.601562 140.570312 209.988281 138.957031 209.988281 136.96875 "/>
<path style=" stroke:none;fill-rule:nonzero;fill:rgb(28.556824%,27.256775%,27.580261%);fill-opacity:1;" d="M 213.59375 133.714844 C 211.800781 133.714844 210.34375 135.175781 210.34375 136.96875 C 210.34375 138.757812 211.800781 140.21875 213.59375 140.21875 C 215.386719 140.21875 216.84375 138.757812 216.84375 136.96875 C 216.84375 135.175781 215.386719 133.714844 213.59375 133.714844 Z M 213.59375 140.925781 C 211.410156 140.925781 209.636719 139.148438 209.636719 136.96875 C 209.636719 134.785156 211.410156 133.007812 213.59375 133.007812 C 215.777344 133.007812 217.550781 134.785156 217.550781 136.96875 C 217.550781 139.148438 215.777344 140.925781 213.59375 140.925781 "/>
<path style=" stroke:none;fill-rule:nonzero;fill:rgb(70.74585%,70.213318%,70.344543%);fill-opacity:1;" d="M 213.59375 131.960938 C 214.550781 131.960938 215.429688 132.242188 216.1875 132.703125 L 218.078125 129.601562 C 216.773438 128.804688 215.238281 128.339844 213.59375 128.339844 C 211.949219 128.339844 210.421875 128.804688 209.113281 129.601562 L 211 132.703125 C 211.757812 132.242188 212.640625 131.960938 213.59375 131.960938 "/>
<path style=" stroke:none;fill-rule:nonzero;fill:rgb(87.741089%,87.518311%,87.573242%);fill-opacity:1;" d="M 382.832031 127.242188 C 384.441406 127.242188 391.363281 127.242188 392.234375 127.242188 C 393.214844 127.242188 397.949219 127.78125 393.664062 128.40625 C 390.035156 128.933594 384.496094 129.847656 382.867188 130.117188 "/>
<path style=" stroke:none;fill-rule:nonzero;fill:rgb(28.556824%,27.256775%,27.580261%);fill-opacity:1;" d="M 382.925781 130.464844 L 382.8125 129.765625 C 384.898438 129.421875 390.128906 128.5625 393.609375 128.058594 C 394.066406 127.988281 394.386719 127.929688 394.613281 127.878906 C 393.925781 127.726562 392.789062 127.597656 392.234375 127.597656 L 382.832031 127.597656 L 382.832031 126.890625 L 392.234375 126.890625 C 392.269531 126.890625 395.71875 126.960938 395.78125 127.84375 C 395.816406 128.300781 395.3125 128.523438 393.714844 128.757812 C 390.234375 129.265625 385.011719 130.121094 382.925781 130.464844 "/>
<path style=" stroke:none;fill-rule:nonzero;fill:rgb(87.741089%,87.518311%,87.573242%);fill-opacity:1;" d="M 381.011719 127.242188 C 379.398438 127.242188 372.480469 127.242188 371.609375 127.242188 C 370.628906 127.242188 365.890625 127.78125 370.179688 128.40625 C 373.804688 128.933594 379.347656 129.847656 380.972656 130.117188 "/>
<path style=" stroke:none;fill-rule:nonzero;fill:rgb(28.556824%,27.256775%,27.580261%);fill-opacity:1;" d="M 380.910156 130.464844 C 379.773438 130.277344 373.894531 129.304688 370.128906 128.757812 C 368.53125 128.523438 368.027344 128.300781 368.058594 127.84375 C 368.125 126.960938 371.570312 126.890625 371.609375 126.890625 L 381.011719 126.890625 L 381.011719 127.597656 L 371.609375 127.597656 C 371.054688 127.597656 369.914062 127.726562 369.230469 127.878906 C 369.457031 127.929688 369.777344 127.988281 370.234375 128.058594 C 374.003906 128.605469 379.886719 129.578125 381.027344 129.765625 L 380.910156 130.464844 "/>
<path style=" stroke:none;fill-rule:nonzero;fill:rgb(87.741089%,87.518311%,87.573242%);fill-opacity:1;" d="M 382.882812 128.007812 C 382.882812 121.007812 382.265625 114.003906 381.496094 114.003906 C 380.726562 114.003906 380.109375 121.007812 380.109375 128.007812 "/>
<path style=" stroke:none;fill-rule:nonzero;fill:rgb(28.556824%,27.256775%,27.580261%);fill-opacity:1;" d="M 383.234375 128.007812 L 382.527344 128.007812 C 382.527344 121.492188 381.996094 115.796875 381.496094 114.539062 C 380.992188 115.796875 380.464844 121.492188 380.464844 128.007812 L 379.753906 128.007812 C 379.753906 127.421875 379.777344 113.652344 381.496094 113.652344 C 383.214844 113.652344 383.234375 127.421875 383.234375 128.007812 "/>
<path style=" stroke:none;fill-rule:nonzero;fill:rgb(87.741089%,87.518311%,87.573242%);fill-opacity:1;" d="M 420.445312 137.882812 C 412.511719 136.726562 397.757812 134.796875 391.105469 133.839844 C 389.789062 129.789062 385.988281 126.859375 381.496094 126.859375 C 377.003906 126.859375 373.203125 129.789062 371.886719 133.839844 C 365.238281 134.796875 350.484375 136.726562 342.550781 137.882812 C 331.621094 139.476562 343.691406 140.839844 346.195312 140.839844 C 348.085938 140.839844 364.761719 140.839844 372.160156 140.839844 C 373.679688 144.503906 377.285156 147.078125 381.496094 147.078125 C 385.707031 147.078125 389.3125 144.503906 390.835938 140.839844 C 398.230469 140.839844 414.910156 140.839844 416.800781 140.839844 C 419.304688 140.839844 431.378906 139.476562 420.445312 137.882812 "/>
<path style=" stroke:none;fill-rule:nonzero;fill:rgb(28.556824%,27.256775%,27.580261%);fill-opacity:1;" d="M 338.441406 139.238281 C 339.132812 139.847656 344.191406 140.488281 346.195312 140.488281 L 372.15625 140.488281 C 372.300781 140.488281 372.429688 140.574219 372.484375 140.707031 C 374.003906 144.359375 377.539062 146.722656 381.496094 146.722656 C 385.449219 146.722656 388.984375 144.359375 390.511719 140.707031 C 390.566406 140.574219 390.691406 140.488281 390.835938 140.488281 L 416.796875 140.488281 C 418.804688 140.488281 423.863281 139.847656 424.558594 139.238281 C 424.363281 139.085938 423.582031 138.699219 420.394531 138.234375 C 416.050781 137.601562 409.761719 136.746094 403.679688 135.925781 C 398.734375 135.253906 394.066406 134.621094 391.058594 134.1875 C 390.921875 134.171875 390.8125 134.074219 390.769531 133.945312 C 389.460938 129.917969 385.734375 127.210938 381.496094 127.210938 C 377.257812 127.210938 373.53125 129.917969 372.222656 133.945312 C 372.179688 134.074219 372.070312 134.171875 371.9375 134.1875 C 368.921875 134.621094 364.242188 135.257812 359.289062 135.929688 C 353.21875 136.75 346.9375 137.601562 342.601562 138.234375 C 339.414062 138.699219 338.632812 139.085938 338.441406 139.238281 Z M 381.496094 147.429688 C 377.332031 147.429688 373.601562 144.992188 371.925781 141.195312 L 346.195312 141.195312 C 346.113281 141.195312 337.804688 140.839844 337.691406 139.277344 C 337.644531 138.640625 338.433594 138.128906 342.5 137.53125 C 346.839844 136.898438 353.121094 136.050781 359.191406 135.226562 C 364.027344 134.570312 368.601562 133.953125 371.617188 133.519531 C 373.085938 129.3125 377.023438 126.503906 381.496094 126.503906 C 385.964844 126.503906 389.90625 129.3125 391.371094 133.519531 C 394.386719 133.949219 398.945312 134.570312 403.773438 135.222656 C 409.859375 136.046875 416.148438 136.898438 420.496094 137.53125 C 424.5625 138.128906 425.351562 138.640625 425.304688 139.277344 C 425.191406 140.839844 416.882812 141.195312 416.796875 141.195312 L 391.070312 141.195312 C 389.386719 144.992188 385.65625 147.429688 381.496094 147.429688 "/>
<path style=" stroke:none;fill-rule:nonzero;fill:rgb(57.032776%,56.251526%,56.445312%);fill-opacity:1;" d="M 377.890625 136.96875 C 377.890625 134.976562 379.503906 133.363281 381.496094 133.363281 C 383.484375 133.363281 385.101562 134.976562 385.101562 136.96875 C 385.101562 138.957031 383.484375 140.570312 381.496094 140.570312 C 379.503906 140.570312 377.890625 138.957031 377.890625 136.96875 "/>
<path style=" stroke:none;fill-rule:nonzero;fill:rgb(28.556824%,27.256775%,27.580261%);fill-opacity:1;" d="M 381.496094 133.714844 C 379.703125 133.714844 378.246094 135.175781 378.246094 136.96875 C 378.246094 138.757812 379.703125 140.21875 381.496094 140.21875 C 383.285156 140.21875 384.742188 138.757812 384.742188 136.96875 C 384.742188 135.175781 383.285156 133.714844 381.496094 133.714844 Z M 381.496094 140.925781 C 379.3125 140.925781 377.535156 139.148438 377.535156 136.96875 C 377.535156 134.785156 379.3125 133.007812 381.496094 133.007812 C 383.679688 133.007812 385.453125 134.785156 385.453125 136.96875 C 385.453125 139.148438 383.679688 140.925781 381.496094 140.925781 "/>
<path style=" stroke:none;fill-rule:nonzero;fill:rgb(70.74585%,70.213318%,70.344543%);fill-opacity:1;" d="M 381.496094 131.960938 C 382.449219 131.960938 383.332031 132.242188 384.09375 132.703125 L 385.980469 129.601562 C 384.671875 128.804688 383.140625 128.339844 381.496094 128.339844 C 379.855469 128.339844 378.320312 128.804688 377.011719 129.601562 L 378.898438 132.703125 C 379.660156 132.242188 380.542969 131.960938 381.496094 131.960938 "/>
<path style=" stroke:none;fill-rule:nonzero;fill:rgb(87.741089%,87.518311%,87.573242%);fill-opacity:1;" d="M 131.339844 131.035156 C 132.480469 132.175781 137.375 137.070312 137.988281 137.683594 C 138.683594 138.378906 141.652344 142.109375 138.179688 139.515625 C 135.238281 137.328125 130.679688 134.054688 129.339844 133.09375 "/>
<path style=" stroke:none;fill-rule:nonzero;fill:rgb(28.556824%,27.256775%,27.580261%);fill-opacity:1;" d="M 139.734375 140.777344 C 139.398438 140.777344 138.875 140.476562 137.96875 139.800781 C 134.867188 137.488281 130.0625 134.046875 129.132812 133.382812 L 129.542969 132.804688 C 130.476562 133.472656 135.28125 136.917969 138.390625 139.234375 C 138.753906 139.507812 139.023438 139.691406 139.222656 139.8125 C 138.84375 139.222656 138.132812 138.328125 137.738281 137.933594 C 137.125 137.320312 132.230469 132.425781 131.089844 131.285156 L 131.589844 130.785156 C 132.730469 131.925781 137.625 136.820312 138.238281 137.433594 C 138.261719 137.460938 140.652344 139.949219 140.074219 140.617188 C 139.984375 140.722656 139.875 140.777344 139.734375 140.777344 "/>
<path style=" stroke:none;fill-rule:nonzero;fill:rgb(87.741089%,87.518311%,87.573242%);fill-opacity:1;" d="M 130.054688 129.75 C 128.914062 128.609375 124.019531 123.714844 123.40625 123.101562 C 122.710938 122.40625 118.984375 119.4375 121.574219 122.910156 C 123.761719 125.847656 127.035156 130.410156 127.996094 131.753906 "/>
<path style=" stroke:none;fill-rule:nonzero;fill:rgb(28.556824%,27.256775%,27.580261%);fill-opacity:1;" d="M 127.707031 131.960938 C 127.039062 131.023438 123.582031 126.199219 121.289062 123.121094 C 120.324219 121.824219 120.125 121.3125 120.472656 121.015625 C 121.136719 120.4375 123.628906 122.828125 123.65625 122.851562 C 124.140625 123.332031 127.285156 126.480469 129.152344 128.347656 L 130.304688 129.5 L 129.800781 130 L 128.652344 128.847656 C 126.785156 126.980469 123.640625 123.835938 123.15625 123.355469 C 122.761719 122.960938 121.871094 122.25 121.277344 121.867188 C 121.402344 122.066406 121.585938 122.335938 121.855469 122.699219 C 124.152344 125.78125 127.613281 130.609375 128.28125 131.546875 L 127.707031 131.960938 "/>
<path style=" stroke:none;fill-rule:nonzero;fill:rgb(87.741089%,87.518311%,87.573242%);fill-opacity:1;" d="M 130.835938 131.609375 C 135.789062 126.660156 140.304688 121.273438 139.757812 120.730469 C 139.214844 120.183594 133.828125 124.699219 128.875 129.652344 "/>
<path style=" stroke:none;fill-rule:nonzero;fill:rgb(28.556824%,27.256775%,27.580261%);fill-opacity:1;" d="M 131.085938 131.859375 L 130.585938 131.359375 C 135.191406 126.753906 138.847656 122.351562 139.382812 121.105469 C 138.140625 121.640625 133.734375 125.296875 129.125 129.902344 L 128.625 129.402344 C 131.054688 126.972656 133.648438 124.585938 135.746094 122.855469 C 139.382812 119.851562 139.761719 120.230469 140.011719 120.480469 C 140.078125 120.546875 140.15625 120.667969 140.15625 120.863281 C 140.160156 122.191406 134.855469 128.09375 131.085938 131.859375 "/>
<path style=" stroke:none;fill-rule:nonzero;fill:rgb(87.741089%,87.518311%,87.573242%);fill-opacity:1;" d="M 150.414062 165.152344 C 145.621094 158.726562 136.554688 146.925781 132.53125 141.550781 C 134.464844 137.757812 133.847656 132.992188 130.671875 129.816406 C 127.492188 126.644531 122.734375 126.023438 118.9375 127.957031 C 113.5625 123.933594 101.761719 114.863281 95.335938 110.074219 C 86.480469 103.472656 94.046875 112.976562 95.820312 114.746094 C 97.15625 116.082031 108.949219 127.871094 114.179688 133.105469 C 112.667969 136.765625 113.394531 141.140625 116.371094 144.113281 C 119.347656 147.09375 123.722656 147.820312 127.382812 146.3125 C 132.613281 151.539062 144.40625 163.335938 145.742188 164.667969 C 147.515625 166.441406 157.015625 174.007812 150.414062 165.152344 "/>
<path style=" stroke:none;fill-rule:nonzero;fill:rgb(28.556824%,27.256775%,27.580261%);fill-opacity:1;" d="M 127.386719 145.957031 C 127.476562 145.957031 127.566406 145.992188 127.636719 146.058594 L 136.734375 155.160156 C 141.113281 159.539062 145.234375 163.660156 145.992188 164.417969 C 147.410156 165.835938 151.441406 168.960938 152.363281 169.019531 C 152.335938 168.777344 152.054688 167.949219 150.132812 165.363281 C 150.128906 165.363281 150.128906 165.363281 150.128906 165.363281 C 147.488281 161.820312 143.613281 156.734375 139.867188 151.8125 C 136.875 147.878906 134.054688 144.175781 132.246094 141.761719 C 132.167969 141.65625 132.152344 141.511719 132.214844 141.390625 C 134.136719 137.613281 133.414062 133.0625 130.417969 130.066406 C 127.421875 127.074219 122.875 126.351562 119.097656 128.273438 C 118.980469 128.335938 118.835938 128.320312 118.726562 128.242188 C 116.28125 126.410156 112.507812 123.539062 108.515625 120.5 C 103.65625 116.796875 98.628906 112.96875 95.125 110.359375 C 92.539062 108.433594 91.714844 108.152344 91.472656 108.125 C 91.53125 109.046875 94.652344 113.078125 96.070312 114.496094 C 97.40625 115.828125 109.199219 127.621094 114.429688 132.855469 C 114.53125 132.957031 114.558594 133.109375 114.507812 133.242188 C 112.996094 136.898438 113.824219 141.070312 116.621094 143.863281 C 119.414062 146.660156 123.585938 147.492188 127.25 145.984375 C 127.292969 145.964844 127.339844 145.957031 127.386719 145.957031 Z M 152.46875 169.699219 C 150.691406 169.699219 145.546875 164.972656 145.492188 164.921875 C 144.734375 164.164062 140.613281 160.042969 136.234375 155.660156 L 127.300781 146.726562 C 123.425781 148.226562 119.0625 147.3125 116.121094 144.363281 C 113.179688 141.421875 112.265625 137.0625 113.761719 133.191406 C 108.453125 127.878906 96.890625 116.316406 95.570312 114.996094 C 95.511719 114.9375 89.886719 108.8125 90.914062 107.625 C 91.335938 107.140625 92.253906 107.335938 95.546875 109.792969 C 99.054688 112.402344 104.082031 116.234375 108.945312 119.9375 C 112.839844 122.902344 116.527344 125.710938 118.976562 127.542969 C 122.980469 125.605469 127.757812 126.40625 130.921875 129.566406 C 134.082031 132.730469 134.882812 137.503906 132.945312 141.511719 C 134.753906 143.925781 137.511719 147.546875 140.429688 151.382812 C 144.179688 156.304688 148.054688 161.394531 150.699219 164.941406 C 153.152344 168.234375 153.347656 169.15625 152.867188 169.574219 C 152.765625 169.660156 152.632812 169.699219 152.46875 169.699219 "/>
<path style=" stroke:none;fill-rule:nonzero;fill:rgb(57.032776%,56.251526%,56.445312%);fill-opacity:1;" d="M 120.972656 134.417969 C 122.378906 133.011719 124.660156 133.007812 126.070312 134.417969 C 127.476562 135.820312 127.476562 138.109375 126.070312 139.515625 C 124.660156 140.925781 122.378906 140.921875 120.972656 139.515625 C 119.566406 138.109375 119.566406 135.820312 120.972656 134.417969 "/>
<path style=" stroke:none;fill-rule:nonzero;fill:rgb(28.556824%,27.256775%,27.580261%);fill-opacity:1;" d="M 121.222656 134.667969 C 120.609375 135.28125 120.273438 136.097656 120.273438 136.964844 C 120.273438 137.835938 120.609375 138.648438 121.222656 139.261719 C 121.839844 139.878906 122.652344 140.214844 123.523438 140.214844 C 124.390625 140.214844 125.207031 139.878906 125.816406 139.265625 C 126.433594 138.648438 126.773438 137.835938 126.773438 136.964844 C 126.773438 136.097656 126.433594 135.28125 125.820312 134.667969 C 124.554688 133.402344 122.492188 133.402344 121.222656 134.667969 Z M 123.523438 140.925781 C 122.464844 140.925781 121.472656 140.511719 120.722656 139.765625 C 119.976562 139.019531 119.5625 138.023438 119.5625 136.964844 C 119.5625 135.90625 119.976562 134.914062 120.722656 134.167969 C 122.265625 132.625 124.777344 132.625 126.320312 134.167969 C 127.066406 134.914062 127.480469 135.90625 127.480469 136.964844 C 127.480469 138.023438 127.066406 139.019531 126.316406 139.765625 C 125.574219 140.511719 124.578125 140.925781 123.523438 140.925781 "/>
<path style=" stroke:none;fill-rule:nonzero;fill:rgb(70.74585%,70.213318%,70.344543%);fill-opacity:1;" d="M 127.0625 133.425781 C 127.738281 134.097656 128.160156 134.925781 128.371094 135.785156 L 131.898438 134.929688 C 131.539062 133.4375 130.785156 132.023438 129.625 130.863281 C 128.460938 129.703125 127.046875 128.949219 125.558594 128.589844 L 124.699219 132.117188 C 125.5625 132.328125 126.386719 132.75 127.0625 133.425781 "/>
<path style=" stroke:none;fill-rule:nonzero;fill:rgb(87.741089%,87.518311%,87.573242%);fill-opacity:1;" d="M 305.035156 129.144531 C 306.171875 128.007812 311.066406 123.109375 311.679688 122.496094 C 312.375 121.800781 316.101562 118.835938 313.511719 122.308594 C 311.324219 125.246094 308.050781 129.808594 307.089844 131.148438 "/>
<path style=" stroke:none;fill-rule:nonzero;fill:rgb(28.556824%,27.256775%,27.580261%);fill-opacity:1;" d="M 307.378906 131.355469 L 306.800781 130.941406 C 307.863281 129.457031 311.089844 124.96875 313.226562 122.097656 C 313.5 121.730469 313.683594 121.460938 313.808594 121.261719 C 313.214844 121.644531 312.324219 122.355469 311.933594 122.746094 L 305.285156 129.394531 L 304.78125 128.894531 L 311.429688 122.246094 C 311.453125 122.222656 313.949219 119.839844 314.613281 120.410156 C 314.960938 120.710938 314.761719 121.222656 313.796875 122.519531 C 311.660156 125.386719 308.441406 129.871094 307.378906 131.355469 "/>
<path style=" stroke:none;fill-rule:nonzero;fill:rgb(87.741089%,87.518311%,87.573242%);fill-opacity:1;" d="M 303.742188 130.433594 C 302.605469 131.570312 297.710938 136.46875 297.097656 137.078125 C 296.402344 137.773438 293.433594 141.503906 296.902344 138.910156 C 299.84375 136.722656 304.40625 133.449219 305.746094 132.492188 "/>
<path style=" stroke:none;fill-rule:nonzero;fill:rgb(28.556824%,27.256775%,27.580261%);fill-opacity:1;" d="M 295.351562 140.171875 C 295.210938 140.171875 295.101562 140.117188 295.011719 140.015625 C 294.429688 139.34375 296.824219 136.851562 296.847656 136.828125 C 297.183594 136.492188 298.796875 134.882812 300.375 133.300781 L 303.492188 130.183594 L 303.992188 130.683594 L 300.878906 133.800781 C 299.296875 135.382812 297.683594 136.996094 297.347656 137.328125 C 296.957031 137.722656 296.246094 138.613281 295.863281 139.207031 C 296.0625 139.082031 296.328125 138.898438 296.691406 138.628906 C 299.40625 136.609375 303.667969 133.542969 305.542969 132.203125 L 305.953125 132.777344 C 304.082031 134.117188 299.824219 137.179688 297.113281 139.195312 C 296.207031 139.871094 295.6875 140.171875 295.351562 140.171875 "/>
<path style=" stroke:none;fill-rule:nonzero;fill:rgb(87.741089%,87.518311%,87.573242%);fill-opacity:1;" d="M 305.605469 129.648438 C 300.65625 124.695312 295.269531 120.179688 294.722656 120.726562 C 294.179688 121.269531 298.695312 126.65625 303.648438 131.609375 "/>
<path style=" stroke:none;fill-rule:nonzero;fill:rgb(28.556824%,27.256775%,27.580261%);fill-opacity:1;" d="M 303.398438 131.859375 C 302.984375 131.445312 293.257812 121.691406 294.472656 120.476562 C 294.722656 120.226562 295.109375 119.855469 298.738281 122.851562 C 300.835938 124.585938 303.429688 126.96875 305.855469 129.398438 L 305.355469 129.898438 C 300.75 125.289062 296.347656 121.636719 295.101562 121.101562 C 295.636719 122.347656 299.292969 126.753906 303.898438 131.359375 L 303.398438 131.859375 "/>
<path style=" stroke:none;fill-rule:nonzero;fill:rgb(87.741089%,87.518311%,87.573242%);fill-opacity:1;" d="M 339.148438 110.070312 C 332.722656 114.863281 320.925781 123.929688 315.546875 127.953125 C 311.75 126.023438 306.992188 126.640625 303.8125 129.816406 C 300.636719 132.992188 300.019531 137.753906 301.953125 141.546875 C 297.929688 146.925781 288.859375 158.722656 284.070312 165.148438 C 277.46875 174.003906 286.972656 166.4375 288.742188 164.667969 C 290.074219 163.332031 301.867188 151.539062 307.101562 146.304688 C 310.765625 147.820312 315.136719 147.089844 318.109375 144.109375 C 321.089844 141.136719 321.816406 136.765625 320.308594 133.101562 C 325.535156 127.871094 337.332031 116.078125 338.660156 114.742188 C 340.4375 112.96875 348.007812 103.46875 339.148438 110.070312 "/>
<path style=" stroke:none;fill-rule:nonzero;fill:rgb(28.556824%,27.256775%,27.580261%);fill-opacity:1;" d="M 310.960938 127.203125 C 308.433594 127.203125 305.941406 128.1875 304.0625 130.066406 C 301.066406 133.0625 300.347656 137.609375 302.269531 141.386719 C 302.332031 141.507812 302.320312 141.652344 302.238281 141.761719 C 300.410156 144.199219 297.546875 147.964844 294.511719 151.945312 C 290.804688 156.816406 286.972656 161.851562 284.355469 165.359375 C 282.429688 167.945312 282.148438 168.773438 282.121094 169.015625 C 283.042969 168.957031 287.074219 165.835938 288.492188 164.417969 C 289.445312 163.460938 295.773438 157.132812 301.210938 151.695312 L 306.851562 146.054688 C 306.949219 145.957031 307.105469 145.925781 307.234375 145.980469 C 310.898438 147.492188 315.066406 146.65625 317.859375 143.859375 C 320.65625 141.066406 321.488281 136.898438 319.980469 133.234375 C 319.925781 133.105469 319.957031 132.953125 320.058594 132.851562 L 329.410156 123.492188 C 333.695312 119.210938 337.671875 115.234375 338.410156 114.492188 C 339.832031 113.074219 342.957031 109.042969 343.015625 108.121094 C 342.773438 108.148438 341.945312 108.429688 339.359375 110.355469 C 335.871094 112.953125 330.871094 116.761719 326.035156 120.445312 C 322.019531 123.503906 318.21875 126.398438 315.757812 128.238281 C 315.648438 128.316406 315.507812 128.332031 315.382812 128.269531 C 313.976562 127.554688 312.460938 127.203125 310.960938 127.203125 Z M 282.015625 169.695312 C 281.851562 169.695312 281.71875 169.65625 281.621094 169.570312 C 281.136719 169.152344 281.332031 168.230469 283.789062 164.9375 C 286.40625 161.425781 290.238281 156.390625 293.949219 151.519531 C 296.910156 147.628906 299.710938 143.953125 301.539062 141.511719 C 299.601562 137.5 300.402344 132.726562 303.5625 129.566406 C 306.726562 126.40625 311.503906 125.609375 315.507812 127.539062 C 317.96875 125.695312 321.683594 122.867188 325.605469 119.882812 C 330.445312 116.199219 335.445312 112.390625 338.9375 109.785156 C 342.234375 107.332031 343.15625 107.136719 343.570312 107.617188 C 344.601562 108.8125 338.972656 114.933594 338.910156 114.992188 C 338.171875 115.734375 334.195312 119.710938 329.910156 123.996094 L 320.722656 133.1875 C 322.21875 137.058594 321.304688 141.421875 318.359375 144.359375 C 315.421875 147.308594 311.058594 148.21875 307.1875 146.722656 L 301.710938 152.199219 C 296.277344 157.632812 289.949219 163.960938 288.992188 164.917969 C 288.941406 164.972656 283.792969 169.695312 282.015625 169.695312 "/>
<path style=" stroke:none;fill-rule:nonzero;fill:rgb(57.032776%,56.251526%,56.445312%);fill-opacity:1;" d="M 308.414062 139.515625 C 307.007812 138.105469 307.003906 135.820312 308.414062 134.410156 C 309.820312 133.003906 312.101562 133.003906 313.511719 134.414062 C 314.917969 135.820312 314.917969 138.105469 313.511719 139.511719 C 312.101562 140.921875 309.820312 140.921875 308.414062 139.515625 "/>
<path style=" stroke:none;fill-rule:nonzero;fill:rgb(28.556824%,27.256775%,27.580261%);fill-opacity:1;" d="M 308.664062 139.261719 C 309.929688 140.527344 311.992188 140.527344 313.261719 139.261719 C 313.875 138.648438 314.210938 137.832031 314.210938 136.960938 C 314.210938 136.09375 313.875 135.277344 313.261719 134.664062 C 311.992188 133.394531 309.929688 133.398438 308.664062 134.660156 C 307.398438 135.929688 307.398438 137.992188 308.664062 139.261719 Z M 310.960938 140.921875 C 309.945312 140.921875 308.933594 140.535156 308.160156 139.765625 C 306.621094 138.21875 306.621094 135.703125 308.160156 134.160156 C 309.707031 132.621094 312.21875 132.621094 313.761719 134.164062 C 314.507812 134.910156 314.921875 135.902344 314.921875 136.960938 C 314.921875 138.019531 314.507812 139.015625 313.761719 139.761719 C 312.988281 140.53125 311.972656 140.921875 310.960938 140.921875 "/>
<path style=" stroke:none;fill-rule:nonzero;fill:rgb(70.74585%,70.213318%,70.344543%);fill-opacity:1;" d="M 307.417969 133.425781 C 308.097656 132.746094 308.921875 132.324219 309.78125 132.113281 L 308.925781 128.585938 C 307.433594 128.949219 306.019531 129.699219 304.859375 130.859375 C 303.695312 132.023438 302.941406 133.4375 302.582031 134.925781 L 306.113281 135.78125 C 306.320312 134.921875 306.746094 134.097656 307.417969 133.425781 "/>
<path style=" stroke:none;fill-rule:nonzero;fill:rgb(28.556824%,27.256775%,27.580261%);fill-opacity:1;" d="M 46.757812 223.671875 L 44.628906 223.671875 L 44.628906 173.957031 L 46.757812 173.957031 L 46.757812 223.671875 "/>
<path style=" stroke:none;fill-rule:nonzero;fill:rgb(28.556824%,27.256775%,27.580261%);fill-opacity:1;" d="M 45.695312 222.371094 L 50.289062 219.578125 L 50.394531 219.734375 L 47.417969 227.230469 C 46.84375 229.839844 46.269531 232.449219 45.695312 235.0625 C 45.117188 232.449219 44.546875 229.839844 43.96875 227.230469 L 40.992188 219.734375 L 41.070312 219.578125 "/>
<path style=" stroke:none;fill-rule:nonzero;fill:rgb(28.556824%,27.256775%,27.580261%);fill-opacity:1;" d="M 214.660156 223.671875 L 212.53125 223.671875 L 212.53125 173.957031 L 214.660156 173.957031 L 214.660156 223.671875 "/>
<path style=" stroke:none;fill-rule:nonzero;fill:rgb(28.556824%,27.256775%,27.580261%);fill-opacity:1;" d="M 213.59375 222.371094 L 218.191406 219.578125 L 218.296875 219.734375 L 215.320312 227.230469 C 214.742188 229.839844 214.171875 232.449219 213.59375 235.0625 C 213.019531 232.449219 212.449219 229.839844 211.871094 227.230469 L 208.894531 219.734375 L 208.972656 219.578125 "/>
<path style=" stroke:none;fill-rule:nonzero;fill:rgb(28.556824%,27.256775%,27.580261%);fill-opacity:1;" d="M 382.558594 223.671875 L 380.433594 223.671875 L 380.433594 173.957031 L 382.558594 173.957031 L 382.558594 223.671875 "/>
<path style=" stroke:none;fill-rule:nonzero;fill:rgb(28.556824%,27.256775%,27.580261%);fill-opacity:1;" d="M 381.496094 222.371094 L 386.09375 219.578125 L 386.195312 219.734375 L 383.21875 227.230469 C 382.644531 229.839844 382.070312 232.449219 381.496094 235.0625 C 380.921875 232.449219 380.347656 229.839844 379.773438 227.230469 L 376.792969 219.734375 L 376.871094 219.578125 "/>
<path style=" stroke:none;fill-rule:nonzero;fill:rgb(28.556824%,27.256775%,27.580261%);fill-opacity:1;" d="M 109.347656 216.144531 L 107.84375 214.640625 L 142.996094 179.484375 L 144.503906 180.988281 L 109.347656 216.144531 "/>
<path style=" stroke:none;fill-rule:nonzero;fill:rgb(28.556824%,27.256775%,27.580261%);fill-opacity:1;" d="M 109.515625 214.472656 L 114.742188 215.746094 L 114.703125 215.929688 L 107.300781 219.125 C 105.046875 220.566406 102.792969 222.007812 100.539062 223.445312 C 101.980469 221.191406 103.421875 218.941406 104.863281 216.6875 L 108.058594 209.285156 L 108.222656 209.226562 "/>
<path style=" stroke:none;fill-rule:nonzero;fill:rgb(28.556824%,27.256775%,27.580261%);fill-opacity:1;" d="M 321.488281 216.144531 L 286.335938 180.988281 L 287.839844 179.484375 L 322.992188 214.640625 L 321.488281 216.144531 "/>
<path style=" stroke:none;fill-rule:nonzero;fill:rgb(28.556824%,27.256775%,27.580261%);fill-opacity:1;" d="M 321.320312 214.472656 L 322.597656 209.246094 L 322.78125 209.285156 L 325.976562 216.6875 C 327.417969 218.941406 328.855469 221.191406 330.296875 223.445312 C 328.042969 222.007812 325.789062 220.566406 323.539062 219.125 L 316.132812 215.929688 L 316.078125 215.765625 "/>
</g>
</svg>
