<?xml version="1.0" encoding="UTF-8"?>
<svg xmlns="http://www.w3.org/2000/svg" xmlns:xlink="http://www.w3.org/1999/xlink" width="277pt" height="255pt" viewBox="0 0 200 184" version="1.1">
<defs>
<clipPath id="clip1">
  <path d="M -205 665 L 407 665 L 407 -127 L -205 -127 L -205 665 Z M -205 665 "/>
</clipPath>
<clipPath id="clip2">
  <path d="M -0.0078125 184.6875 L 201.253906 184.6875 L 201.253906 -2.199219 L -0.0078125 -2.199219 L -0.0078125 184.6875 Z M -0.0078125 184.6875 "/>
</clipPath>
</defs>
<g id="surface0">
<g clip-path="url(#clip1)" clip-rule="nonzero">
<g clip-path="url(#clip2)" clip-rule="nonzero">
<path style="fill:none;stroke-width:5;stroke-linecap:butt;stroke-linejoin:miter;stroke:rgb(13.730068%,12.159915%,12.54902%);stroke-opacity:1;stroke-miterlimit:4;" d="M 60.529578 1541.082694 L 1341.744452 1541.082694 " transform="matrix(0.110582,0,0,-0.110582,-0.006,184.686)"/>
<path style="fill:none;stroke-width:5;stroke-linecap:butt;stroke-linejoin:miter;stroke:rgb(13.730068%,12.159915%,12.54902%);stroke-opacity:1;stroke-miterlimit:4;" d="M 1358.558852 1643.841284 C 1358.558852 1641.721822 1358.558852 1639.60236 1358.558852 1637.482897 C 1358.558852 1626.355721 1358.558852 1615.228545 1358.558852 1604.101368 C 1358.558852 1584.778938 1358.558852 1565.491833 1358.558852 1546.169403 C 1358.558852 1520.241316 1358.558852 1494.277904 1358.558852 1468.314493 C 1358.558852 1437.264372 1358.558852 1406.178927 1358.558852 1375.093482 C 1358.558852 1340.440276 1358.558852 1305.78707 1358.558852 1271.133864 C 1358.558852 1234.39652 1358.558852 1197.6945 1358.558852 1160.99248 C 1358.558852 1123.760595 1358.558852 1086.493385 1358.558852 1049.2615 C 1358.558852 1013.018697 1358.558852 976.775895 1358.558852 940.533092 C 1358.558852 906.833643 1358.558852 873.134195 1358.558852 839.434747 C 1358.558852 809.797601 1358.558852 780.160455 1358.558852 750.523309 C 1358.558852 726.467414 1358.558852 702.446843 1358.558852 678.390947 C 1358.558852 673.48086 1358.558852 652.674806 1358.558852 625.29842 L 1094.650489 618.0216 C 1094.650489 618.0216 1645.463379 605.516773 1798.806466 484.672106 " transform="matrix(0.110582,0,0,-0.110582,-0.006,184.686)"/>
<path style="fill:none;stroke-width:5;stroke-linecap:butt;stroke-linejoin:miter;stroke:rgb(13.730068%,12.159915%,12.54902%);stroke-opacity:1;stroke-miterlimit:4;" d="M 1347.467 1643.417391 C 1347.467 1638.577953 1347.467 1633.773839 1347.467 1628.9344 C 1347.467 1613.532975 1347.467 1598.13155 1347.467 1582.765449 C 1347.467 1558.462283 1347.467 1534.159117 1347.467 1509.855951 C 1347.467 1478.381938 1347.467 1446.907925 1347.467 1415.433912 C 1347.467 1378.519946 1347.467 1341.570656 1347.467 1304.621366 C 1347.467 1263.963017 1347.467 1223.269343 1347.467 1182.57567 C 1347.467 1139.903832 1347.467 1097.161345 1347.467 1054.454183 C 1347.467 1011.464425 1347.467 968.439343 1347.467 925.414262 C 1347.467 883.837479 1347.467 842.225372 1347.467 800.613265 C 1347.467 762.180351 1347.467 723.676789 1347.467 685.243875 C 1347.467 644.903445 1347.467 641.936198 1347.467 626.852693 " transform="matrix(0.110582,0,0,-0.110582,-0.006,184.686)"/>
<path style="fill:none;stroke-width:5;stroke-linecap:butt;stroke-linejoin:miter;stroke:rgb(13.730068%,12.159915%,12.54902%);stroke-opacity:1;stroke-miterlimit:4;" d="M 50.850701 1668.250423 L 50.850701 456.765854 C 50.850701 447.687492 57.06779 438.53848 70.950267 438.53848 C 83.561067 438.53848 1334.008415 439.033021 1347.184405 438.750426 L 1357.463796 438.503156 C 1357.463796 438.503156 1357.463796 536.740227 1357.463796 539.424879 L 1347.467 539.424879 " transform="matrix(0.110582,0,0,-0.110582,-0.006,184.686)"/>
<path style="fill:none;stroke-width:5;stroke-linecap:butt;stroke-linejoin:miter;stroke:rgb(13.730068%,12.159915%,12.54902%);stroke-opacity:1;stroke-miterlimit:4;" d="M 60.847498 1668.250423 L 60.847498 456.765854 C 60.847498 452.491606 63.390852 448.535276 70.950267 448.535276 C 70.950267 448.535276 1349.551137 449.029818 1347.467 448.747223 C 1346.477917 448.605925 1346.477917 448.605925 1347.467 448.747223 C 1347.467 465.844217 1347.467 486.120405 1347.467 503.182076 C 1347.467 514.061981 1347.467 528.615622 1347.467 539.495527 C 1347.467 539.495527 1220.546541 536.881524 1086.384586 536.881524 C 1030.46611 536.881524 1530.058664 616.785247 1791.3177 449.700981 " transform="matrix(0.110582,0,0,-0.110582,-0.006,184.686)"/>
<path style="fill:none;stroke-width:5;stroke-linecap:butt;stroke-linejoin:miter;stroke:rgb(13.730068%,12.159915%,12.54902%);stroke-opacity:1;stroke-miterlimit:4;" d="M 148.487258 1436.699182 L 358.102065 1436.699182 " transform="matrix(0.110582,0,0,-0.110582,-0.006,184.686)"/>
<path style="fill:none;stroke-width:5;stroke-linecap:butt;stroke-linejoin:miter;stroke:rgb(13.730068%,12.159915%,12.54902%);stroke-opacity:1;stroke-miterlimit:4;" d="M 368.593403 1209.669461 L 439.701358 1209.669461 " transform="matrix(0.110582,0,0,-0.110582,-0.006,184.686)"/>
<path style="fill:none;stroke-width:5;stroke-linecap:butt;stroke-linejoin:miter;stroke:rgb(13.730068%,12.159915%,12.54902%);stroke-opacity:1;stroke-miterlimit:4;" d="M 591.984714 1210.164002 L 674.643738 1210.164002 " transform="matrix(0.110582,0,0,-0.110582,-0.006,184.686)"/>
<path style="fill:none;stroke-width:5;stroke-linecap:butt;stroke-linejoin:miter;stroke:rgb(13.730068%,12.159915%,12.54902%);stroke-opacity:1;stroke-miterlimit:4;" d="M 825.832039 1211.223733 L 883.869977 1211.223733 " transform="matrix(0.110582,0,0,-0.110582,-0.006,184.686)"/>
<path style="fill:none;stroke-width:5;stroke-linecap:butt;stroke-linejoin:miter;stroke:rgb(13.730068%,12.159915%,12.54902%);stroke-opacity:1;stroke-miterlimit:4;" d="M 931.487227 1212.283464 L 964.09162 1212.283464 " transform="matrix(0.110582,0,0,-0.110582,-0.006,184.686)"/>
<path style="fill:none;stroke-width:5;stroke-linecap:butt;stroke-linejoin:miter;stroke:rgb(13.730068%,12.159915%,12.54902%);stroke-opacity:1;stroke-miterlimit:4;" d="M 1105.707016 1211.753599 L 1180.524031 1211.753599 " transform="matrix(0.110582,0,0,-0.110582,-0.006,184.686)"/>
<path style="fill:none;stroke-width:5;stroke-linecap:butt;stroke-linejoin:miter;stroke:rgb(13.730068%,12.159915%,12.54902%);stroke-opacity:1;stroke-miterlimit:4;" d="M 1207.759119 1103.978948 L 1305.254378 1103.978948 " transform="matrix(0.110582,0,0,-0.110582,-0.006,184.686)"/>
<path style="fill:none;stroke-width:5;stroke-linecap:butt;stroke-linejoin:miter;stroke:rgb(13.730068%,12.159915%,12.54902%);stroke-opacity:1;stroke-miterlimit:4;" d="M 1102.739769 997.793894 L 1200.235029 997.793894 " transform="matrix(0.110582,0,0,-0.110582,-0.006,184.686)"/>
<path style="fill:none;stroke-width:5;stroke-linecap:butt;stroke-linejoin:miter;stroke:rgb(13.730068%,12.159915%,12.54902%);stroke-opacity:1;stroke-miterlimit:4;" d="M 1240.716756 891.573516 L 1331.641682 891.573516 " transform="matrix(0.110582,0,0,-0.110582,-0.006,184.686)"/>
<path style="fill:none;stroke-width:5;stroke-linecap:butt;stroke-linejoin:miter;stroke:rgb(13.730068%,12.159915%,12.54902%);stroke-opacity:1;stroke-miterlimit:4;" d="M 1098.924738 780.160455 L 1200.129055 780.160455 " transform="matrix(0.110582,0,0,-0.110582,-0.006,184.686)"/>
<path style="fill:none;stroke-width:5;stroke-linecap:butt;stroke-linejoin:miter;stroke:rgb(13.730068%,12.159915%,12.54902%);stroke-opacity:1;stroke-miterlimit:4;" d="M 890.510959 779.63059 L 956.638178 779.63059 " transform="matrix(0.110582,0,0,-0.110582,-0.006,184.686)"/>
<path style="fill:none;stroke-width:5;stroke-linecap:butt;stroke-linejoin:miter;stroke:rgb(13.730068%,12.159915%,12.54902%);stroke-opacity:1;stroke-miterlimit:4;" d="M 688.914783 777.016586 L 758.892359 777.016586 " transform="matrix(0.110582,0,0,-0.110582,-0.006,184.686)"/>
<path style="fill:none;stroke-width:5;stroke-linecap:butt;stroke-linejoin:miter;stroke:rgb(13.730068%,12.159915%,12.54902%);stroke-opacity:1;stroke-miterlimit:4;" d="M 474.955079 777.546452 L 569.942308 777.546452 " transform="matrix(0.110582,0,0,-0.110582,-0.006,184.686)"/>
<path style="fill:none;stroke-width:5;stroke-linecap:butt;stroke-linejoin:miter;stroke:rgb(13.730068%,12.159915%,12.54902%);stroke-opacity:1;stroke-miterlimit:4;" d="M 251.705065 778.570859 L 314.193874 778.570859 " transform="matrix(0.110582,0,0,-0.110582,-0.006,184.686)"/>
<path style="fill:none;stroke-width:5;stroke-linecap:butt;stroke-linejoin:miter;stroke:rgb(13.730068%,12.159915%,12.54902%);stroke-opacity:1;stroke-miterlimit:4;" d="M 73.776217 777.546452 L 116.977921 777.546452 " transform="matrix(0.110582,0,0,-0.110582,-0.006,184.686)"/>
<path style="fill:none;stroke-width:5;stroke-linecap:butt;stroke-linejoin:miter;stroke:rgb(13.730068%,12.159915%,12.54902%);stroke-opacity:1;stroke-miterlimit:4;" d="M 115.105729 663.060171 L 210.092958 663.060171 " transform="matrix(0.110582,0,0,-0.110582,-0.006,184.686)"/>
<path style="fill:none;stroke-width:5;stroke-linecap:butt;stroke-linejoin:miter;stroke:rgb(13.730068%,12.159915%,12.54902%);stroke-opacity:1;stroke-miterlimit:4;" d="M 334.081494 663.484063 L 387.456616 663.484063 " transform="matrix(0.110582,0,0,-0.110582,-0.006,184.686)"/>
<path style="fill:none;stroke-width:5;stroke-linecap:butt;stroke-linejoin:miter;stroke:rgb(13.730068%,12.159915%,12.54902%);stroke-opacity:1;stroke-miterlimit:4;" d="M 137.324757 554.685006 L 199.813566 554.685006 " transform="matrix(0.110582,0,0,-0.110582,-0.006,184.686)"/>
<path style="fill:none;stroke-width:5;stroke-linecap:butt;stroke-linejoin:miter;stroke:rgb(13.730068%,12.159915%,12.54902%);stroke-opacity:1;stroke-miterlimit:4;" d="M 252.729472 555.532791 L 315.253605 555.532791 " transform="matrix(0.110582,0,0,-0.110582,-0.006,184.686)"/>
<path style="fill:none;stroke-width:5;stroke-linecap:butt;stroke-linejoin:miter;stroke:rgb(13.730068%,12.159915%,12.54902%);stroke-opacity:1;stroke-miterlimit:4;" d="M 448.815045 556.062657 L 518.792621 556.062657 " transform="matrix(0.110582,0,0,-0.110582,-0.006,184.686)"/>
<path style="fill:none;stroke-width:5;stroke-linecap:butt;stroke-linejoin:miter;stroke:rgb(13.730068%,12.159915%,12.54902%);stroke-opacity:1;stroke-miterlimit:4;" d="M 650.658491 555.532791 L 752.145404 555.532791 " transform="matrix(0.110582,0,0,-0.110582,-0.006,184.686)"/>
<path style="fill:none;stroke-width:5;stroke-linecap:butt;stroke-linejoin:miter;stroke:rgb(13.730068%,12.159915%,12.54902%);stroke-opacity:1;stroke-miterlimit:4;" d="M 1122.733362 584.675396 L 1169.644125 584.675396 " transform="matrix(0.110582,0,0,-0.110582,-0.006,184.686)"/>
<path style="fill:none;stroke-width:5;stroke-linecap:butt;stroke-linejoin:miter;stroke:rgb(13.730068%,12.159915%,12.54902%);stroke-opacity:1;stroke-miterlimit:4;" d="M 850.241178 558.005497 L 948.796168 558.005497 " transform="matrix(0.110582,0,0,-0.110582,-0.006,184.686)"/>
<path style="fill:none;stroke-width:5;stroke-linecap:butt;stroke-linejoin:miter;stroke:rgb(13.730068%,12.159915%,12.54902%);stroke-opacity:1;stroke-miterlimit:4;" d="M 493.111805 663.484063 L 545.957061 663.484063 " transform="matrix(0.110582,0,0,-0.110582,-0.006,184.686)"/>
<path style="fill:none;stroke-width:5;stroke-linecap:butt;stroke-linejoin:miter;stroke:rgb(13.730068%,12.159915%,12.54902%);stroke-opacity:1;stroke-miterlimit:4;" d="M 690.151136 665.568201 L 770.160833 665.568201 " transform="matrix(0.110582,0,0,-0.110582,-0.006,184.686)"/>
<path style="fill:none;stroke-width:5;stroke-linecap:butt;stroke-linejoin:miter;stroke:rgb(13.730068%,12.159915%,12.54902%);stroke-opacity:1;stroke-miterlimit:4;" d="M 877.794186 665.568201 L 957.803882 665.568201 " transform="matrix(0.110582,0,0,-0.110582,-0.006,184.686)"/>
<path style="fill:none;stroke-width:5;stroke-linecap:butt;stroke-linejoin:miter;stroke:rgb(13.730068%,12.159915%,12.54902%);stroke-opacity:1;stroke-miterlimit:4;" d="M 1042.829639 667.687663 L 1121.426361 667.687663 " transform="matrix(0.110582,0,0,-0.110582,-0.006,184.686)"/>
<path style="fill:none;stroke-width:5;stroke-linecap:butt;stroke-linejoin:miter;stroke:rgb(13.730068%,12.159915%,12.54902%);stroke-opacity:1;stroke-miterlimit:4;" d="M 1235.347452 667.687663 L 1313.944173 667.687663 " transform="matrix(0.110582,0,0,-0.110582,-0.006,184.686)"/>
<path style="fill:none;stroke-width:5;stroke-linecap:butt;stroke-linejoin:miter;stroke:rgb(13.730068%,12.159915%,12.54902%);stroke-opacity:1;stroke-miterlimit:4;" d="M 967.447435 891.820786 L 1068.581104 891.820786 " transform="matrix(0.110582,0,0,-0.110582,-0.006,184.686)"/>
<path style="fill:none;stroke-width:5;stroke-linecap:butt;stroke-linejoin:miter;stroke:rgb(13.730068%,12.159915%,12.54902%);stroke-opacity:1;stroke-miterlimit:4;" d="M 741.19485 889.489378 L 805.979743 889.489378 " transform="matrix(0.110582,0,0,-0.110582,-0.006,184.686)"/>
<path style="fill:none;stroke-width:5;stroke-linecap:butt;stroke-linejoin:miter;stroke:rgb(13.730068%,12.159915%,12.54902%);stroke-opacity:1;stroke-miterlimit:4;" d="M 533.593532 890.549109 L 622.328347 890.549109 " transform="matrix(0.110582,0,0,-0.110582,-0.006,184.686)"/>
<path style="fill:none;stroke-width:5;stroke-linecap:butt;stroke-linejoin:miter;stroke:rgb(13.730068%,12.159915%,12.54902%);stroke-opacity:1;stroke-miterlimit:4;" d="M 267.283112 888.464971 L 370.182999 888.464971 " transform="matrix(0.110582,0,0,-0.110582,-0.006,184.686)"/>
<path style="fill:none;stroke-width:5;stroke-linecap:butt;stroke-linejoin:miter;stroke:rgb(13.730068%,12.159915%,12.54902%);stroke-opacity:1;stroke-miterlimit:4;" d="M 89.672183 888.464971 L 165.619577 888.464971 " transform="matrix(0.110582,0,0,-0.110582,-0.006,184.686)"/>
<path style="fill:none;stroke-width:5;stroke-linecap:butt;stroke-linejoin:miter;stroke:rgb(13.730068%,12.159915%,12.54902%);stroke-opacity:1;stroke-miterlimit:4;" d="M 795.311784 995.179891 L 892.807043 995.179891 " transform="matrix(0.110582,0,0,-0.110582,-0.006,184.686)"/>
<path style="fill:none;stroke-width:5;stroke-linecap:butt;stroke-linejoin:miter;stroke:rgb(13.730068%,12.159915%,12.54902%);stroke-opacity:1;stroke-miterlimit:4;" d="M 583.259595 995.709756 L 663.269291 995.709756 " transform="matrix(0.110582,0,0,-0.110582,-0.006,184.686)"/>
<path style="fill:none;stroke-width:5;stroke-linecap:butt;stroke-linejoin:miter;stroke:rgb(13.730068%,12.159915%,12.54902%);stroke-opacity:1;stroke-miterlimit:4;" d="M 382.758475 994.650025 L 450.22802 994.650025 " transform="matrix(0.110582,0,0,-0.110582,-0.006,184.686)"/>
<path style="fill:none;stroke-width:5;stroke-linecap:butt;stroke-linejoin:miter;stroke:rgb(13.730068%,12.159915%,12.54902%);stroke-opacity:1;stroke-miterlimit:4;" d="M 141.563682 994.12016 L 244.604867 994.12016 " transform="matrix(0.110582,0,0,-0.110582,-0.006,184.686)"/>
<path style="fill:none;stroke-width:5;stroke-linecap:butt;stroke-linejoin:miter;stroke:rgb(13.730068%,12.159915%,12.54902%);stroke-opacity:1;stroke-miterlimit:4;" d="M 960.099966 1103.978948 L 1053.886167 1103.978948 " transform="matrix(0.110582,0,0,-0.110582,-0.006,184.686)"/>
<path style="fill:none;stroke-width:5;stroke-linecap:butt;stroke-linejoin:miter;stroke:rgb(13.730068%,12.159915%,12.54902%);stroke-opacity:1;stroke-miterlimit:4;" d="M 731.869216 1103.484407 L 810.148019 1103.484407 " transform="matrix(0.110582,0,0,-0.110582,-0.006,184.686)"/>
<path style="fill:none;stroke-width:5;stroke-linecap:butt;stroke-linejoin:miter;stroke:rgb(13.730068%,12.159915%,12.54902%);stroke-opacity:1;stroke-miterlimit:4;" d="M 527.51774 1101.364945 L 597.742586 1101.364945 " transform="matrix(0.110582,0,0,-0.110582,-0.006,184.686)"/>
<path style="fill:none;stroke-width:5;stroke-linecap:butt;stroke-linejoin:miter;stroke:rgb(13.730068%,12.159915%,12.54902%);stroke-opacity:1;stroke-miterlimit:4;" d="M 252.941418 1102.424676 L 356.68909 1102.424676 " transform="matrix(0.110582,0,0,-0.110582,-0.006,184.686)"/>
<path style="fill:none;stroke-width:5;stroke-linecap:butt;stroke-linejoin:miter;stroke:rgb(13.730068%,12.159915%,12.54902%);stroke-opacity:1;stroke-miterlimit:4;" d="M 129.871315 1101.89481 L 200.661351 1101.89481 " transform="matrix(0.110582,0,0,-0.110582,-0.006,184.686)"/>
<path style="fill:none;stroke-width:5;stroke-linecap:butt;stroke-linejoin:miter;stroke:rgb(13.730068%,12.159915%,12.54902%);stroke-opacity:1;stroke-miterlimit:4;" d="M 91.120482 1207.055458 L 217.369778 1207.055458 " transform="matrix(0.110582,0,0,-0.110582,-0.006,184.686)"/>
<path style="fill:none;stroke-width:5;stroke-linecap:butt;stroke-linejoin:miter;stroke:rgb(13.730068%,12.159915%,12.54902%);stroke-opacity:1;stroke-miterlimit:4;" d="M 565.632735 1437.758913 L 670.652084 1437.758913 " transform="matrix(0.110582,0,0,-0.110582,-0.006,184.686)"/>
<path style="fill:none;stroke-width:5;stroke-linecap:butt;stroke-linejoin:miter;stroke:rgb(13.730068%,12.159915%,12.54902%);stroke-opacity:1;stroke-miterlimit:4;" d="M 838.725433 1439.313186 L 940.918834 1439.313186 " transform="matrix(0.110582,0,0,-0.110582,-0.006,184.686)"/>
<path style="fill:none;stroke-width:5;stroke-linecap:butt;stroke-linejoin:miter;stroke:rgb(13.730068%,12.159915%,12.54902%);stroke-opacity:1;stroke-miterlimit:4;" d="M 1099.595901 1441.927189 L 1260.569051 1441.927189 " transform="matrix(0.110582,0,0,-0.110582,-0.006,184.686)"/>
<path style="fill:none;stroke-width:5;stroke-linecap:butt;stroke-linejoin:miter;stroke:rgb(13.730068%,12.159915%,12.54902%);stroke-opacity:1;stroke-miterlimit:4;" d="M 1217.685267 1326.769745 L 1284.97819 1326.769745 " transform="matrix(0.110582,0,0,-0.110582,-0.006,184.686)"/>
<path style="fill:none;stroke-width:5;stroke-linecap:butt;stroke-linejoin:miter;stroke:rgb(13.730068%,12.159915%,12.54902%);stroke-opacity:1;stroke-miterlimit:4;" d="M 993.76409 1326.769745 L 1039.261878 1326.769745 " transform="matrix(0.110582,0,0,-0.110582,-0.006,184.686)"/>
<path style="fill:none;stroke-width:5;stroke-linecap:butt;stroke-linejoin:miter;stroke:rgb(13.730068%,12.159915%,12.54902%);stroke-opacity:1;stroke-miterlimit:4;" d="M 833.532751 1327.37026 L 892.241853 1327.37026 " transform="matrix(0.110582,0,0,-0.110582,-0.006,184.686)"/>
<path style="fill:none;stroke-width:5;stroke-linecap:butt;stroke-linejoin:miter;stroke:rgb(13.730068%,12.159915%,12.54902%);stroke-opacity:1;stroke-miterlimit:4;" d="M 629.110626 1326.345853 L 700.253906 1326.345853 " transform="matrix(0.110582,0,0,-0.110582,-0.006,184.686)"/>
<path style="fill:none;stroke-width:5;stroke-linecap:butt;stroke-linejoin:miter;stroke:rgb(13.730068%,12.159915%,12.54902%);stroke-opacity:1;stroke-miterlimit:4;" d="M 439.736683 1325.780663 L 531.120826 1325.780663 " transform="matrix(0.110582,0,0,-0.110582,-0.006,184.686)"/>
<path style="fill:none;stroke-width:5;stroke-linecap:butt;stroke-linejoin:miter;stroke:rgb(13.730068%,12.159915%,12.54902%);stroke-opacity:1;stroke-miterlimit:4;" d="M 195.927886 1324.756256 L 280.105858 1324.756256 " transform="matrix(0.110582,0,0,-0.110582,-0.006,184.686)"/>
<path style="fill:none;stroke-width:3.8;stroke-linecap:butt;stroke-linejoin:round;stroke:rgb(13.730068%,12.159915%,12.54902%);stroke-opacity:1;stroke-miterlimit:4;" d="M 1279.14967 438.53848 L 1392.293624 9.983232 L 10.01573 9.983232 L 123.124361 438.53848 " transform="matrix(0.110582,0,0,-0.110582,-0.006,184.686)"/>
<path style="fill:none;stroke-width:5;stroke-linecap:butt;stroke-linejoin:miter;stroke:rgb(13.730068%,12.159915%,12.54902%);stroke-opacity:1;stroke-miterlimit:4;" d="M 1536.311078 480.503831 C 1536.311078 480.503831 1613.812744 462.170483 1652.139685 443.837135 " transform="matrix(0.110582,0,0,-0.110582,-0.006,184.686)"/>
<path style=" stroke:none;fill-rule:nonzero;fill:rgb(13.730068%,12.159915%,12.54902%);fill-opacity:1;" d="M 181.019531 136.5625 L 187.121094 137.699219 L 182.402344 133.664063 L 181.019531 136.5625 "/>
<path style="fill:none;stroke-width:5;stroke-linecap:butt;stroke-linejoin:miter;stroke:rgb(13.730068%,12.159915%,12.54902%);stroke-opacity:1;stroke-miterlimit:4;" d="M 1310.482385 579.69466 L 1396.320602 573.018354 " transform="matrix(0.110582,0,0,-0.110582,-0.006,184.686)"/>
<path style="fill:none;stroke-width:5;stroke-linecap:butt;stroke-linejoin:miter;stroke:rgb(13.730068%,12.159915%,12.54902%);stroke-opacity:1;stroke-miterlimit:4;" d="M 1513.809455 555.532791 C 1513.809455 555.532791 1573.825558 547.19624 1596.327181 538.859689 " transform="matrix(0.110582,0,0,-0.110582,-0.006,184.686)"/>
<path style="fill:none;stroke-width:3.8;stroke-linecap:butt;stroke-linejoin:miter;stroke:rgb(13.730068%,12.159915%,12.54902%);stroke-opacity:1;stroke-miterlimit:4;" d="M 1657.155745 523.846832 C 1657.155745 523.846832 1718.372877 508.445407 1726.32086 500.532748 " transform="matrix(0.110582,0,0,-0.110582,-0.006,184.686)"/>
</g>
</g>
</g>
</svg>
