<?xml version="1.0" encoding="UTF-8"?>
<svg xmlns="http://www.w3.org/2000/svg" xmlns:xlink="http://www.w3.org/1999/xlink" width="159.3486742963367pt" height="55.42562584220407pt" viewBox="0 0 92 32" version="1.1">
<defs>
<clipPath id="clip1">
  <path d="M 0 32 L 93 32 L 93 -1 L 0 -1 L 0 32 Z M 0 32 "/>
</clipPath>
</defs>
<g id="surface0">
<g clip-path="url(#clip1)" clip-rule="nonzero">
<path style="fill:none;stroke-width:5;stroke-linecap:butt;stroke-linejoin:miter;stroke:rgb(0%,0%,0%);stroke-opacity:1;stroke-miterlimit:4;" d="M 460 308.75 L 908.75 308.75 L 908.75 10 L 460 10 L 460 134.804688 " transform="matrix(0.1,0,0,-0.1,0,32)"/>
<path style="fill:none;stroke-width:5;stroke-linecap:butt;stroke-linejoin:miter;stroke:rgb(0%,0%,0%);stroke-opacity:1;stroke-miterlimit:4;" d="M 460 10 L 10 10 L 10 308.75 L 460 308.75 L 460 177.5 " transform="matrix(0.1,0,0,-0.1,0,32)"/>
<path style="fill:none;stroke-width:5;stroke-linecap:butt;stroke-linejoin:miter;stroke:rgb(0%,0%,0%);stroke-opacity:1;stroke-miterlimit:4;" d="M 537.109375 262.5 C 537.109375 252.382813 528.867188 244.140625 518.75 244.140625 C 508.632813 244.140625 500.390625 252.382813 500.390625 262.5 C 500.390625 272.617188 508.632813 280.859375 518.75 280.859375 C 528.867188 280.859375 537.109375 272.617188 537.109375 262.5 Z M 537.109375 262.5 " transform="matrix(0.1,0,0,-0.1,0,32)"/>
<path style=" stroke:none;fill-rule:nonzero;fill:rgb(0%,0%,0%);fill-opacity:1;" d="M 58.355469 6.164063 C 58.355469 6.71875 57.90625 7.164063 57.355469 7.164063 C 56.800781 7.164063 56.355469 6.71875 56.355469 6.164063 C 56.355469 5.613281 56.800781 5.164063 57.355469 5.164063 C 57.90625 5.164063 58.355469 5.613281 58.355469 6.164063 "/>
<path style=" stroke:none;fill-rule:nonzero;fill:rgb(0%,0%,0%);fill-opacity:1;" d="M 71.707031 7.167969 C 71.707031 7.71875 71.261719 8.167969 70.707031 8.167969 C 70.15625 8.167969 69.707031 7.71875 69.707031 7.167969 C 69.707031 6.613281 70.15625 6.167969 70.707031 6.167969 C 71.261719 6.167969 71.707031 6.613281 71.707031 7.167969 "/>
<path style=" stroke:none;fill-rule:nonzero;fill:rgb(0%,0%,0%);fill-opacity:1;" d="M 86.292969 24.917969 C 86.292969 25.46875 85.84375 25.917969 85.292969 25.917969 C 84.738281 25.917969 84.292969 25.46875 84.292969 24.917969 C 84.292969 24.363281 84.738281 23.917969 85.292969 23.917969 C 85.84375 23.917969 86.292969 24.363281 86.292969 24.917969 "/>
<path style=" stroke:none;fill-rule:nonzero;fill:rgb(0%,0%,0%);fill-opacity:1;" d="M 77.125 16.75 C 77.125 17.300781 76.675781 17.75 76.125 17.75 C 75.574219 17.75 75.125 17.300781 75.125 16.75 C 75.125 16.195313 75.574219 15.75 76.125 15.75 C 76.675781 15.75 77.125 16.195313 77.125 16.75 "/>
<path style=" stroke:none;fill-rule:nonzero;fill:rgb(0%,0%,0%);fill-opacity:1;" d="M 63.542969 14.832031 C 63.542969 15.386719 63.09375 15.832031 62.542969 15.832031 C 61.988281 15.832031 61.542969 15.386719 61.542969 14.832031 C 61.542969 14.28125 61.988281 13.832031 62.542969 13.832031 C 63.09375 13.832031 63.542969 14.28125 63.542969 14.832031 "/>
<path style=" stroke:none;fill-rule:nonzero;fill:rgb(0%,0%,0%);fill-opacity:1;" d="M 54.125 16.582031 C 54.125 17.136719 53.675781 17.582031 53.125 17.582031 C 52.574219 17.582031 52.125 17.136719 52.125 16.582031 C 52.125 16.03125 52.574219 15.582031 53.125 15.582031 C 53.675781 15.582031 54.125 16.03125 54.125 16.582031 "/>
<path style=" stroke:none;fill-rule:nonzero;fill:rgb(0%,0%,0%);fill-opacity:1;" d="M 62.875 20.25 C 62.875 20.800781 62.425781 21.25 61.875 21.25 C 61.324219 21.25 60.875 20.800781 60.875 20.25 C 60.875 19.699219 61.324219 19.25 61.875 19.25 C 62.425781 19.25 62.875 19.699219 62.875 20.25 "/>
<path style=" stroke:none;fill-rule:nonzero;fill:rgb(0%,0%,0%);fill-opacity:1;" d="M 71.875 26.332031 C 71.875 26.886719 71.425781 27.332031 70.875 27.332031 C 70.324219 27.332031 69.875 26.886719 69.875 26.332031 C 69.875 25.78125 70.324219 25.332031 70.875 25.332031 C 71.425781 25.332031 71.875 25.78125 71.875 26.332031 "/>
<path style=" stroke:none;fill-rule:nonzero;fill:rgb(0%,0%,0%);fill-opacity:1;" d="M 50.457031 27 C 50.457031 27.550781 50.011719 28 49.457031 28 C 48.90625 28 48.457031 27.550781 48.457031 27 C 48.457031 26.449219 48.90625 26 49.457031 26 C 50.011719 26 50.457031 26.449219 50.457031 27 "/>
<path style=" stroke:none;fill-rule:nonzero;fill:rgb(0%,0%,0%);fill-opacity:1;" d="M 41.039063 25.582031 C 41.039063 26.136719 40.59375 26.582031 40.039063 26.582031 C 39.488281 26.582031 39.039063 26.136719 39.039063 25.582031 C 39.039063 25.03125 39.488281 24.582031 40.039063 24.582031 C 40.59375 24.582031 41.039063 25.03125 41.039063 25.582031 "/>
<path style=" stroke:none;fill-rule:nonzero;fill:rgb(0%,0%,0%);fill-opacity:1;" d="M 38.539063 22.332031 C 38.539063 22.886719 38.09375 23.332031 37.539063 23.332031 C 36.988281 23.332031 36.539063 22.886719 36.539063 22.332031 C 36.539063 21.78125 36.988281 21.332031 37.539063 21.332031 C 38.09375 21.332031 38.539063 21.78125 38.539063 22.332031 "/>
<path style=" stroke:none;fill-rule:nonzero;fill:rgb(0%,0%,0%);fill-opacity:1;" d="M 35.789063 7.5 C 35.789063 8.050781 35.34375 8.5 34.789063 8.5 C 34.238281 8.5 33.789063 8.050781 33.789063 7.5 C 33.789063 6.949219 34.238281 6.5 34.789063 6.5 C 35.34375 6.5 35.789063 6.949219 35.789063 7.5 "/>
<path style=" stroke:none;fill-rule:nonzero;fill:rgb(0%,0%,0%);fill-opacity:1;" d="M 26.292969 5.332031 C 26.292969 5.886719 25.84375 6.332031 25.292969 6.332031 C 24.738281 6.332031 24.292969 5.886719 24.292969 5.332031 C 24.292969 4.78125 24.738281 4.332031 25.292969 4.332031 C 25.84375 4.332031 26.292969 4.78125 26.292969 5.332031 "/>
<path style=" stroke:none;fill-rule:nonzero;fill:rgb(0%,0%,0%);fill-opacity:1;" d="M 26.707031 18.75 C 26.707031 19.300781 26.261719 19.75 25.707031 19.75 C 25.15625 19.75 24.707031 19.300781 24.707031 18.75 C 24.707031 18.199219 25.15625 17.75 25.707031 17.75 C 26.261719 17.75 26.707031 18.199219 26.707031 18.75 "/>
<path style=" stroke:none;fill-rule:nonzero;fill:rgb(0%,0%,0%);fill-opacity:1;" d="M 14.125 14.5 C 14.125 15.050781 13.675781 15.5 13.125 15.5 C 12.574219 15.5 12.125 15.050781 12.125 14.5 C 12.125 13.949219 12.574219 13.5 13.125 13.5 C 13.675781 13.5 14.125 13.949219 14.125 14.5 "/>
<path style=" stroke:none;fill-rule:nonzero;fill:rgb(0%,0%,0%);fill-opacity:1;" d="M 16.957031 25.582031 C 16.957031 26.136719 16.511719 26.582031 15.957031 26.582031 C 15.40625 26.582031 14.957031 26.136719 14.957031 25.582031 C 14.957031 25.03125 15.40625 24.582031 15.957031 24.582031 C 16.511719 24.582031 16.957031 25.03125 16.957031 25.582031 "/>
<path style=" stroke:none;fill-rule:nonzero;fill:rgb(0%,0%,0%);fill-opacity:1;" d="M 9.125 5.917969 C 9.125 6.46875 8.675781 6.917969 8.125 6.917969 C 7.574219 6.917969 7.125 6.46875 7.125 5.917969 C 7.125 5.363281 7.574219 4.917969 8.125 4.917969 C 8.675781 4.917969 9.125 5.363281 9.125 5.917969 "/>
<path style="fill:none;stroke-width:5;stroke-linecap:butt;stroke-linejoin:miter;stroke:rgb(0%,0%,0%);stroke-opacity:1;stroke-miterlimit:4;" d="M 732.929688 194.179688 C 732.929688 184.023438 724.6875 175.820313 714.570313 175.820313 C 704.453125 175.820313 696.25 184.023438 696.25 194.179688 C 696.25 204.296875 704.453125 212.5 714.570313 212.5 C 724.6875 212.5 732.929688 204.296875 732.929688 194.179688 Z M 732.929688 194.179688 " transform="matrix(0.1,0,0,-0.1,0,32)"/>
<path style="fill:none;stroke-width:5;stroke-linecap:butt;stroke-linejoin:miter;stroke:rgb(0%,0%,0%);stroke-opacity:1;stroke-miterlimit:4;" d="M 829.609375 172.5 C 829.609375 162.382813 821.367188 154.140625 811.25 154.140625 C 801.132813 154.140625 792.890625 162.382813 792.890625 172.5 C 792.890625 182.617188 801.132813 190.859375 811.25 190.859375 C 821.367188 190.859375 829.609375 182.617188 829.609375 172.5 Z M 829.609375 172.5 " transform="matrix(0.1,0,0,-0.1,0,32)"/>
<path style="fill:none;stroke-width:5;stroke-linecap:butt;stroke-linejoin:miter;stroke:rgb(0%,0%,0%);stroke-opacity:1;stroke-miterlimit:4;" d="M 874.609375 236.679688 C 874.609375 226.523438 866.367188 218.320313 856.25 218.320313 C 846.132813 218.320313 837.890625 226.523438 837.890625 236.679688 C 837.890625 246.796875 846.132813 255 856.25 255 C 866.367188 255 874.609375 246.796875 874.609375 236.679688 Z M 874.609375 236.679688 " transform="matrix(0.1,0,0,-0.1,0,32)"/>
<path style="fill:none;stroke-width:5;stroke-linecap:butt;stroke-linejoin:miter;stroke:rgb(0%,0%,0%);stroke-opacity:1;stroke-miterlimit:4;" d="M 735.859375 97.929688 C 735.859375 87.773438 727.617188 79.570313 717.5 79.570313 C 707.382813 79.570313 699.140625 87.773438 699.140625 97.929688 C 699.140625 108.046875 707.382813 116.25 717.5 116.25 C 727.617188 116.25 735.859375 108.046875 735.859375 97.929688 Z M 735.859375 97.929688 " transform="matrix(0.1,0,0,-0.1,0,32)"/>
<path style="fill:none;stroke-width:5;stroke-linecap:butt;stroke-linejoin:miter;stroke:rgb(0%,0%,0%);stroke-opacity:1;stroke-miterlimit:4;" d="M 577.109375 57.5 C 577.109375 47.382813 568.867188 39.179688 558.75 39.179688 C 548.632813 39.179688 540.390625 47.382813 540.390625 57.5 C 540.390625 67.617188 548.632813 75.820313 558.75 75.820313 C 568.867188 75.820313 577.109375 67.617188 577.109375 57.5 Z M 577.109375 57.5 " transform="matrix(0.1,0,0,-0.1,0,32)"/>
</g>
</g>
</svg>
