<?xml version="1.0" encoding="UTF-8"?>
<svg xmlns="http://www.w3.org/2000/svg" xmlns:xlink="http://www.w3.org/1999/xlink" width="236pt" height="245pt" viewBox="0 0 170 177" version="1.1">
<defs>
<clipPath id="clip1">
  <path d="M -220 666 L 392 666 L 392 -126 L -220 -126 L -220 666 Z M -220 666 "/>
</clipPath>
<clipPath id="clip2">
  <path d="M 0.585938 177.660156 L 170.664063 177.660156 L 170.664063 -1.199219 L 0.585938 -1.199219 L 0.585938 177.660156 Z M 0.585938 177.660156 "/>
</clipPath>
<clipPath id="clip3">
  <path d="M 169.132813 57.691406 L 100.007813 57.691406 C 98.195313 57.691406 97.261719 56.578125 97.261719 55.222656 C 97.261719 53.863281 98.195313 52.753906 100.007813 52.753906 L 169.132813 52.753906 "/>
</clipPath>
<clipPath id="clip4">
  <path d="M -220 666 L 392 666 L 392 -126 L -220 -126 L -220 666 Z M -220 666 "/>
</clipPath>
<clipPath id="clip5">
  <path d="M 0.585938 177.660156 L 170.664063 177.660156 L 170.664063 -1.199219 L 0.585938 -1.199219 L 0.585938 177.660156 Z M 0.585938 177.660156 "/>
</clipPath>
<clipPath id="clip6">
  <path d="M 169.132813 124.257813 L 100.007813 124.257813 C 98.195313 124.257813 97.261719 123.148438 97.261719 121.789063 C 97.261719 120.433594 98.195313 119.320313 100.007813 119.320313 L 169.132813 119.320313 "/>
</clipPath>
<clipPath id="clip7">
  <path d="M -220 666 L 392 666 L 392 -126 L -220 -126 L -220 666 Z M -220 666 "/>
</clipPath>
<clipPath id="clip8">
  <path d="M 0.585938 177.660156 L 170.664063 177.660156 L 170.664063 -1.199219 L 0.585938 -1.199219 L 0.585938 177.660156 Z M 0.585938 177.660156 "/>
</clipPath>
</defs>
<g id="surface0">
<g clip-path="url(#clip1)" clip-rule="nonzero">
<g clip-path="url(#clip2)" clip-rule="nonzero">
<g clip-path="url(#clip3)" clip-rule="nonzero">
<path style="fill:none;stroke-width:3.8;stroke-linecap:butt;stroke-linejoin:miter;stroke:rgb(0%,0%,0%);stroke-opacity:1;stroke-miterlimit:4;" d="M 1363.951189 1311.824187 L 1555.474168 1120.336807 " transform="matrix(0.109729,0,0,-0.109729,0.585,177.66)"/>
<path style="fill:none;stroke-width:3.8;stroke-linecap:butt;stroke-linejoin:miter;stroke:rgb(0%,0%,0%);stroke-opacity:1;stroke-miterlimit:4;" d="M 1378.084018 1325.957017 L 1569.606998 1134.469637 " transform="matrix(0.109729,0,0,-0.109729,0.585,177.66)"/>
<path style="fill:none;stroke-width:3.8;stroke-linecap:butt;stroke-linejoin:miter;stroke:rgb(0%,0%,0%);stroke-opacity:1;stroke-miterlimit:4;" d="M 1321.517101 1269.3901 L 1513.040081 1077.902719 " transform="matrix(0.109729,0,0,-0.109729,0.585,177.66)"/>
<path style="fill:none;stroke-width:3.8;stroke-linecap:butt;stroke-linejoin:miter;stroke:rgb(0%,0%,0%);stroke-opacity:1;stroke-miterlimit:4;" d="M 1335.68553 1283.522929 L 1527.17291 1092.035549 " transform="matrix(0.109729,0,0,-0.109729,0.585,177.66)"/>
<path style="fill:none;stroke-width:3.8;stroke-linecap:butt;stroke-linejoin:miter;stroke:rgb(0%,0%,0%);stroke-opacity:1;stroke-miterlimit:4;" d="M 1349.818359 1297.691358 L 1541.30574 1106.168378 " transform="matrix(0.109729,0,0,-0.109729,0.585,177.66)"/>
<path style="fill:none;stroke-width:3.8;stroke-linecap:butt;stroke-linejoin:miter;stroke:rgb(0%,0%,0%);stroke-opacity:1;stroke-miterlimit:4;" d="M 1527.17291 1092.035549 L 1718.695889 900.51257 " transform="matrix(0.109729,0,0,-0.109729,0.585,177.66)"/>
<path style="fill:none;stroke-width:3.8;stroke-linecap:butt;stroke-linejoin:miter;stroke:rgb(0%,0%,0%);stroke-opacity:1;stroke-miterlimit:4;" d="M 1279.118613 1226.956012 L 1470.605993 1035.468632 " transform="matrix(0.109729,0,0,-0.109729,0.585,177.66)"/>
<path style="fill:none;stroke-width:3.8;stroke-linecap:butt;stroke-linejoin:miter;stroke:rgb(0%,0%,0%);stroke-opacity:1;stroke-miterlimit:4;" d="M 1293.251442 1241.124441 L 1484.738822 1049.601461 " transform="matrix(0.109729,0,0,-0.109729,0.585,177.66)"/>
<path style="fill:none;stroke-width:3.8;stroke-linecap:butt;stroke-linejoin:miter;stroke:rgb(0%,0%,0%);stroke-opacity:1;stroke-miterlimit:4;" d="M 1307.384272 1255.25727 L 1498.907251 1063.734291 " transform="matrix(0.109729,0,0,-0.109729,0.585,177.66)"/>
<path style="fill:none;stroke-width:3.8;stroke-linecap:butt;stroke-linejoin:miter;stroke:rgb(0%,0%,0%);stroke-opacity:1;stroke-miterlimit:4;" d="M 1236.684525 1184.557524 L 1428.207504 993.034544 " transform="matrix(0.109729,0,0,-0.109729,0.585,177.66)"/>
<path style="fill:none;stroke-width:3.8;stroke-linecap:butt;stroke-linejoin:miter;stroke:rgb(0%,0%,0%);stroke-opacity:1;stroke-miterlimit:4;" d="M 1250.817355 1198.690353 L 1442.340334 1007.167374 " transform="matrix(0.109729,0,0,-0.109729,0.585,177.66)"/>
<path style="fill:none;stroke-width:3.8;stroke-linecap:butt;stroke-linejoin:miter;stroke:rgb(0%,0%,0%);stroke-opacity:1;stroke-miterlimit:4;" d="M 1264.985783 1212.823183 L 1456.473163 1021.335802 " transform="matrix(0.109729,0,0,-0.109729,0.585,177.66)"/>
<path style="fill:none;stroke-width:3.8;stroke-linecap:butt;stroke-linejoin:miter;stroke:rgb(0%,0%,0%);stroke-opacity:1;stroke-miterlimit:4;" d="M 1002.763057 1333.610816 L 1194.250437 1142.123436 " transform="matrix(0.109729,0,0,-0.109729,0.585,177.66)"/>
<path style="fill:none;stroke-width:3.8;stroke-linecap:butt;stroke-linejoin:miter;stroke:rgb(0%,0%,0%);stroke-opacity:1;stroke-miterlimit:4;" d="M 1194.250437 1142.123436 L 1385.773417 950.600457 " transform="matrix(0.109729,0,0,-0.109729,0.585,177.66)"/>
<path style="fill:none;stroke-width:3.8;stroke-linecap:butt;stroke-linejoin:miter;stroke:rgb(0%,0%,0%);stroke-opacity:1;stroke-miterlimit:4;" d="M 1208.383267 1156.256265 L 1399.906246 964.768885 " transform="matrix(0.109729,0,0,-0.109729,0.585,177.66)"/>
<path style="fill:none;stroke-width:3.8;stroke-linecap:butt;stroke-linejoin:miter;stroke:rgb(0%,0%,0%);stroke-opacity:1;stroke-miterlimit:4;" d="M 1222.516096 1170.389095 L 1414.039076 978.901715 " transform="matrix(0.109729,0,0,-0.109729,0.585,177.66)"/>
<path style="fill:none;stroke-width:3.8;stroke-linecap:butt;stroke-linejoin:miter;stroke:rgb(0%,0%,0%);stroke-opacity:1;stroke-miterlimit:4;" d="M 960.32897 1291.212328 L 1151.81635 1099.689348 " transform="matrix(0.109729,0,0,-0.109729,0.585,177.66)"/>
<path style="fill:none;stroke-width:3.8;stroke-linecap:butt;stroke-linejoin:miter;stroke:rgb(0%,0%,0%);stroke-opacity:1;stroke-miterlimit:4;" d="M 974.461799 1305.345157 L 1165.984778 1113.822178 " transform="matrix(0.109729,0,0,-0.109729,0.585,177.66)"/>
<path style="fill:none;stroke-width:3.8;stroke-linecap:butt;stroke-linejoin:miter;stroke:rgb(0%,0%,0%);stroke-opacity:1;stroke-miterlimit:4;" d="M 988.594629 1319.477987 L 1180.117608 1127.990606 " transform="matrix(0.109729,0,0,-0.109729,0.585,177.66)"/>
<path style="fill:none;stroke-width:3.8;stroke-linecap:butt;stroke-linejoin:miter;stroke:rgb(0%,0%,0%);stroke-opacity:1;stroke-miterlimit:4;" d="M 1151.81635 1099.689348 L 1343.339329 908.201968 " transform="matrix(0.109729,0,0,-0.109729,0.585,177.66)"/>
<path style="fill:none;stroke-width:3.8;stroke-linecap:butt;stroke-linejoin:miter;stroke:rgb(0%,0%,0%);stroke-opacity:1;stroke-miterlimit:4;" d="M 1165.984778 1113.857777 L 1357.472159 922.334798 " transform="matrix(0.109729,0,0,-0.109729,0.585,177.66)"/>
<path style="fill:none;stroke-width:3.8;stroke-linecap:butt;stroke-linejoin:miter;stroke:rgb(0%,0%,0%);stroke-opacity:1;stroke-miterlimit:4;" d="M 1180.117608 1127.990606 L 1371.604988 936.467627 " transform="matrix(0.109729,0,0,-0.109729,0.585,177.66)"/>
<path style="fill:none;stroke-width:3.8;stroke-linecap:butt;stroke-linejoin:miter;stroke:rgb(0%,0%,0%);stroke-opacity:1;stroke-miterlimit:4;" d="M 917.894882 1248.77824 L 1109.382262 1057.255261 " transform="matrix(0.109729,0,0,-0.109729,0.585,177.66)"/>
<path style="fill:none;stroke-width:3.8;stroke-linecap:butt;stroke-linejoin:miter;stroke:rgb(0%,0%,0%);stroke-opacity:1;stroke-miterlimit:4;" d="M 932.027711 1262.91107 L 1123.550691 1071.423689 " transform="matrix(0.109729,0,0,-0.109729,0.585,177.66)"/>
<path style="fill:none;stroke-width:3.8;stroke-linecap:butt;stroke-linejoin:miter;stroke:rgb(0%,0%,0%);stroke-opacity:1;stroke-miterlimit:4;" d="M 946.160541 1277.043899 L 1137.68352 1085.556519 " transform="matrix(0.109729,0,0,-0.109729,0.585,177.66)"/>
<path style="fill:none;stroke-width:3.8;stroke-linecap:butt;stroke-linejoin:miter;stroke:rgb(0%,0%,0%);stroke-opacity:1;stroke-miterlimit:4;" d="M 875.460794 1206.344152 L 1066.983774 1014.856772 " transform="matrix(0.109729,0,0,-0.109729,0.585,177.66)"/>
<path style="fill:none;stroke-width:3.8;stroke-linecap:butt;stroke-linejoin:miter;stroke:rgb(0%,0%,0%);stroke-opacity:1;stroke-miterlimit:4;" d="M 889.629223 1220.476982 L 1081.116603 1028.989602 " transform="matrix(0.109729,0,0,-0.109729,0.585,177.66)"/>
<path style="fill:none;stroke-width:3.8;stroke-linecap:butt;stroke-linejoin:miter;stroke:rgb(0%,0%,0%);stroke-opacity:1;stroke-miterlimit:4;" d="M 903.762052 1234.645411 L 1095.249433 1043.122431 " transform="matrix(0.109729,0,0,-0.109729,0.585,177.66)"/>
<path style="fill:none;stroke-width:3.8;stroke-linecap:butt;stroke-linejoin:miter;stroke:rgb(0%,0%,0%);stroke-opacity:1;stroke-miterlimit:4;" d="M 833.026707 1163.910065 L 1024.549686 972.422685 " transform="matrix(0.109729,0,0,-0.109729,0.585,177.66)"/>
<path style="fill:none;stroke-width:3.8;stroke-linecap:butt;stroke-linejoin:miter;stroke:rgb(0%,0%,0%);stroke-opacity:1;stroke-miterlimit:4;" d="M 847.195135 1178.042894 L 1038.682516 986.555514 " transform="matrix(0.109729,0,0,-0.109729,0.585,177.66)"/>
<path style="fill:none;stroke-width:3.8;stroke-linecap:butt;stroke-linejoin:miter;stroke:rgb(0%,0%,0%);stroke-opacity:1;stroke-miterlimit:4;" d="M 861.327965 1192.211323 L 1052.815345 1000.688344 " transform="matrix(0.109729,0,0,-0.109729,0.585,177.66)"/>
<path style="fill:none;stroke-width:3.8;stroke-linecap:butt;stroke-linejoin:miter;stroke:rgb(0%,0%,0%);stroke-opacity:1;stroke-miterlimit:4;" d="M 790.628218 1121.475977 L 982.115598 929.988597 " transform="matrix(0.109729,0,0,-0.109729,0.585,177.66)"/>
<path style="fill:none;stroke-width:3.8;stroke-linecap:butt;stroke-linejoin:miter;stroke:rgb(0%,0%,0%);stroke-opacity:1;stroke-miterlimit:4;" d="M 804.761048 1135.644406 L 996.248428 944.121426 " transform="matrix(0.109729,0,0,-0.109729,0.585,177.66)"/>
<path style="fill:none;stroke-width:3.8;stroke-linecap:butt;stroke-linejoin:miter;stroke:rgb(0%,0%,0%);stroke-opacity:1;stroke-miterlimit:4;" d="M 818.893877 1149.777235 L 1010.416857 958.289855 " transform="matrix(0.109729,0,0,-0.109729,0.585,177.66)"/>
</g>
</g>
</g>
<g clip-path="url(#clip4)" clip-rule="nonzero">
<g clip-path="url(#clip5)" clip-rule="nonzero">
<g clip-path="url(#clip6)" clip-rule="nonzero">
<path style="fill:none;stroke-width:3.8;stroke-linecap:butt;stroke-linejoin:miter;stroke:rgb(0%,0%,0%);stroke-opacity:1;stroke-miterlimit:4;" d="M 1449.994133 631.846413 L 1641.481514 440.323433 " transform="matrix(0.109729,0,0,-0.109729,0.585,177.66)"/>
<path style="fill:none;stroke-width:3.8;stroke-linecap:butt;stroke-linejoin:miter;stroke:rgb(0%,0%,0%);stroke-opacity:1;stroke-miterlimit:4;" d="M 1464.126963 645.979242 L 1655.614343 454.456263 " transform="matrix(0.109729,0,0,-0.109729,0.585,177.66)"/>
<path style="fill:none;stroke-width:3.8;stroke-linecap:butt;stroke-linejoin:miter;stroke:rgb(0%,0%,0%);stroke-opacity:1;stroke-miterlimit:4;" d="M 1478.259792 660.112072 L 1669.782772 468.624691 " transform="matrix(0.109729,0,0,-0.109729,0.585,177.66)"/>
<path style="fill:none;stroke-width:3.8;stroke-linecap:butt;stroke-linejoin:miter;stroke:rgb(0%,0%,0%);stroke-opacity:1;stroke-miterlimit:4;" d="M 1407.560046 589.412325 L 1599.047426 397.889346 " transform="matrix(0.109729,0,0,-0.109729,0.585,177.66)"/>
<path style="fill:none;stroke-width:3.8;stroke-linecap:butt;stroke-linejoin:miter;stroke:rgb(0%,0%,0%);stroke-opacity:1;stroke-miterlimit:4;" d="M 1421.692875 603.545154 L 1613.215855 412.057774 " transform="matrix(0.109729,0,0,-0.109729,0.585,177.66)"/>
<path style="fill:none;stroke-width:3.8;stroke-linecap:butt;stroke-linejoin:miter;stroke:rgb(0%,0%,0%);stroke-opacity:1;stroke-miterlimit:4;" d="M 1435.825705 617.677984 L 1627.348684 426.190604 " transform="matrix(0.109729,0,0,-0.109729,0.585,177.66)"/>
<path style="fill:none;stroke-width:3.8;stroke-linecap:butt;stroke-linejoin:miter;stroke:rgb(0%,0%,0%);stroke-opacity:1;stroke-miterlimit:4;" d="M 1365.125958 546.978237 L 1556.648937 355.490857 " transform="matrix(0.109729,0,0,-0.109729,0.585,177.66)"/>
<path style="fill:none;stroke-width:3.8;stroke-linecap:butt;stroke-linejoin:miter;stroke:rgb(0%,0%,0%);stroke-opacity:1;stroke-miterlimit:4;" d="M 1379.258788 561.111067 L 1570.781767 369.623687 " transform="matrix(0.109729,0,0,-0.109729,0.585,177.66)"/>
<path style="fill:none;stroke-width:3.8;stroke-linecap:butt;stroke-linejoin:miter;stroke:rgb(0%,0%,0%);stroke-opacity:1;stroke-miterlimit:4;" d="M 1393.427216 575.279495 L 1584.914596 383.756516 " transform="matrix(0.109729,0,0,-0.109729,0.585,177.66)"/>
<path style="fill:none;stroke-width:3.8;stroke-linecap:butt;stroke-linejoin:miter;stroke:rgb(0%,0%,0%);stroke-opacity:1;stroke-miterlimit:4;" d="M 1131.20449 696.067129 L 1322.727469 504.579749 " transform="matrix(0.109729,0,0,-0.109729,0.585,177.66)"/>
<path style="fill:none;stroke-width:3.8;stroke-linecap:butt;stroke-linejoin:miter;stroke:rgb(0%,0%,0%);stroke-opacity:1;stroke-miterlimit:4;" d="M 1145.33732 710.199959 L 1336.860299 518.712578 " transform="matrix(0.109729,0,0,-0.109729,0.585,177.66)"/>
<path style="fill:none;stroke-width:3.8;stroke-linecap:butt;stroke-linejoin:miter;stroke:rgb(0%,0%,0%);stroke-opacity:1;stroke-miterlimit:4;" d="M 1159.505748 724.332788 L 1350.993129 532.845408 " transform="matrix(0.109729,0,0,-0.109729,0.585,177.66)"/>
<path style="fill:none;stroke-width:3.8;stroke-linecap:butt;stroke-linejoin:miter;stroke:rgb(0%,0%,0%);stroke-opacity:1;stroke-miterlimit:4;" d="M 1322.727469 504.579749 L 1514.21485 313.056769 " transform="matrix(0.109729,0,0,-0.109729,0.585,177.66)"/>
<path style="fill:none;stroke-width:3.8;stroke-linecap:butt;stroke-linejoin:miter;stroke:rgb(0%,0%,0%);stroke-opacity:1;stroke-miterlimit:4;" d="M 1336.860299 518.712578 L 1528.347679 327.189599 " transform="matrix(0.109729,0,0,-0.109729,0.585,177.66)"/>
<path style="fill:none;stroke-width:3.8;stroke-linecap:butt;stroke-linejoin:miter;stroke:rgb(0%,0%,0%);stroke-opacity:1;stroke-miterlimit:4;" d="M 1350.993129 532.845408 L 1542.480509 341.322428 " transform="matrix(0.109729,0,0,-0.109729,0.585,177.66)"/>
<path style="fill:none;stroke-width:3.8;stroke-linecap:butt;stroke-linejoin:miter;stroke:rgb(0%,0%,0%);stroke-opacity:1;stroke-miterlimit:4;" d="M 1088.770403 653.633041 L 1280.293382 462.145661 " transform="matrix(0.109729,0,0,-0.109729,0.585,177.66)"/>
<path style="fill:none;stroke-width:3.8;stroke-linecap:butt;stroke-linejoin:miter;stroke:rgb(0%,0%,0%);stroke-opacity:1;stroke-miterlimit:4;" d="M 1102.903232 667.765871 L 1294.426211 476.278491 " transform="matrix(0.109729,0,0,-0.109729,0.585,177.66)"/>
<path style="fill:none;stroke-width:3.8;stroke-linecap:butt;stroke-linejoin:miter;stroke:rgb(0%,0%,0%);stroke-opacity:1;stroke-miterlimit:4;" d="M 1117.071661 681.8987 L 1308.559041 490.41132 " transform="matrix(0.109729,0,0,-0.109729,0.585,177.66)"/>
<path style="fill:none;stroke-width:3.8;stroke-linecap:butt;stroke-linejoin:miter;stroke:rgb(0%,0%,0%);stroke-opacity:1;stroke-miterlimit:4;" d="M 1308.559041 490.41132 L 1500.046421 298.888341 " transform="matrix(0.109729,0,0,-0.109729,0.585,177.66)"/>
<path style="fill:none;stroke-width:3.8;stroke-linecap:butt;stroke-linejoin:miter;stroke:rgb(0%,0%,0%);stroke-opacity:1;stroke-miterlimit:4;" d="M 1046.336315 611.198954 L 1237.859294 419.711574 " transform="matrix(0.109729,0,0,-0.109729,0.585,177.66)"/>
<path style="fill:none;stroke-width:3.8;stroke-linecap:butt;stroke-linejoin:miter;stroke:rgb(0%,0%,0%);stroke-opacity:1;stroke-miterlimit:4;" d="M 1060.504744 625.367382 L 1251.992124 433.844403 " transform="matrix(0.109729,0,0,-0.109729,0.585,177.66)"/>
<path style="fill:none;stroke-width:3.8;stroke-linecap:butt;stroke-linejoin:miter;stroke:rgb(0%,0%,0%);stroke-opacity:1;stroke-miterlimit:4;" d="M 1074.637573 639.500212 L 1266.124953 447.977233 " transform="matrix(0.109729,0,0,-0.109729,0.585,177.66)"/>
<path style="fill:none;stroke-width:3.8;stroke-linecap:butt;stroke-linejoin:miter;stroke:rgb(0%,0%,0%);stroke-opacity:1;stroke-miterlimit:4;" d="M 1003.902227 568.764866 L 1195.425207 377.277486 " transform="matrix(0.109729,0,0,-0.109729,0.585,177.66)"/>
<path style="fill:none;stroke-width:3.8;stroke-linecap:butt;stroke-linejoin:miter;stroke:rgb(0%,0%,0%);stroke-opacity:1;stroke-miterlimit:4;" d="M 1018.070656 582.933295 L 1209.558036 391.410315 " transform="matrix(0.109729,0,0,-0.109729,0.585,177.66)"/>
<path style="fill:none;stroke-width:3.8;stroke-linecap:butt;stroke-linejoin:miter;stroke:rgb(0%,0%,0%);stroke-opacity:1;stroke-miterlimit:4;" d="M 1032.203485 597.066124 L 1223.726465 405.543145 " transform="matrix(0.109729,0,0,-0.109729,0.585,177.66)"/>
<path style="fill:none;stroke-width:3.8;stroke-linecap:butt;stroke-linejoin:miter;stroke:rgb(0%,0%,0%);stroke-opacity:1;stroke-miterlimit:4;" d="M 769.980759 717.853758 L 961.503739 526.366378 " transform="matrix(0.109729,0,0,-0.109729,0.585,177.66)"/>
<path style="fill:none;stroke-width:3.8;stroke-linecap:butt;stroke-linejoin:miter;stroke:rgb(0%,0%,0%);stroke-opacity:1;stroke-miterlimit:4;" d="M 961.503739 526.366378 L 1152.991119 334.843398 " transform="matrix(0.109729,0,0,-0.109729,0.585,177.66)"/>
<path style="fill:none;stroke-width:3.8;stroke-linecap:butt;stroke-linejoin:miter;stroke:rgb(0%,0%,0%);stroke-opacity:1;stroke-miterlimit:4;" d="M 975.636568 540.499207 L 1167.123949 348.976228 " transform="matrix(0.109729,0,0,-0.109729,0.585,177.66)"/>
<path style="fill:none;stroke-width:3.8;stroke-linecap:butt;stroke-linejoin:miter;stroke:rgb(0%,0%,0%);stroke-opacity:1;stroke-miterlimit:4;" d="M 989.769398 554.632037 L 1181.292377 363.144656 " transform="matrix(0.109729,0,0,-0.109729,0.585,177.66)"/>
<path style="fill:none;stroke-width:3.8;stroke-linecap:butt;stroke-linejoin:miter;stroke:rgb(0%,0%,0%);stroke-opacity:1;stroke-miterlimit:4;" d="M 727.546672 675.41967 L 919.069651 483.93229 " transform="matrix(0.109729,0,0,-0.109729,0.585,177.66)"/>
<path style="fill:none;stroke-width:3.8;stroke-linecap:butt;stroke-linejoin:miter;stroke:rgb(0%,0%,0%);stroke-opacity:1;stroke-miterlimit:4;" d="M 741.7151 689.5525 L 933.202481 498.06512 " transform="matrix(0.109729,0,0,-0.109729,0.585,177.66)"/>
<path style="fill:none;stroke-width:3.8;stroke-linecap:butt;stroke-linejoin:miter;stroke:rgb(0%,0%,0%);stroke-opacity:1;stroke-miterlimit:4;" d="M 755.84793 703.720928 L 947.33531 512.197949 " transform="matrix(0.109729,0,0,-0.109729,0.585,177.66)"/>
<path style="fill:none;stroke-width:3.8;stroke-linecap:butt;stroke-linejoin:miter;stroke:rgb(0%,0%,0%);stroke-opacity:1;stroke-miterlimit:4;" d="M 919.069651 483.93229 L 1110.557031 292.409311 " transform="matrix(0.109729,0,0,-0.109729,0.585,177.66)"/>
<path style="fill:none;stroke-width:3.8;stroke-linecap:butt;stroke-linejoin:miter;stroke:rgb(0%,0%,0%);stroke-opacity:1;stroke-miterlimit:4;" d="M 933.202481 498.06512 L 1124.72546 306.577739 " transform="matrix(0.109729,0,0,-0.109729,0.585,177.66)"/>
<path style="fill:none;stroke-width:3.8;stroke-linecap:butt;stroke-linejoin:miter;stroke:rgb(0%,0%,0%);stroke-opacity:1;stroke-miterlimit:4;" d="M 947.33531 512.197949 L 1138.85829 320.710569 " transform="matrix(0.109729,0,0,-0.109729,0.585,177.66)"/>
<path style="fill:none;stroke-width:3.8;stroke-linecap:butt;stroke-linejoin:miter;stroke:rgb(0%,0%,0%);stroke-opacity:1;stroke-miterlimit:4;" d="M 699.281013 647.154011 L 890.768393 455.631032 " transform="matrix(0.109729,0,0,-0.109729,0.585,177.66)"/>
<path style="fill:none;stroke-width:3.8;stroke-linecap:butt;stroke-linejoin:miter;stroke:rgb(0%,0%,0%);stroke-opacity:1;stroke-miterlimit:4;" d="M 713.413842 661.286841 L 904.936822 469.79946 " transform="matrix(0.109729,0,0,-0.109729,0.585,177.66)"/>
</g>
</g>
</g>
<g clip-path="url(#clip7)" clip-rule="nonzero">
<g clip-path="url(#clip8)" clip-rule="nonzero">
<path style="fill:none;stroke-width:5;stroke-linecap:butt;stroke-linejoin:miter;stroke:rgb(13.730068%,12.159915%,12.54902%);stroke-opacity:1;stroke-miterlimit:4;" d="M 1166.055977 1136.676779 C 1166.055977 1136.676779 1172.713002 1363.336037 1002.727458 1483.340491 C 832.741914 1603.344945 549.408942 1598.325477 334.390578 1449.984166 C 119.407814 1301.678453 14.390567 1059.996389 14.390567 853.343806 C 14.390567 646.655624 96.054826 407.892683 249.415606 263.324873 C 398.04171 123.171347 554.642004 75.255003 765.139286 91.41698 C 993.5073 108.93172 1114.366132 248.052873 1155.198261 486.673418 " transform="matrix(0.109729,0,0,-0.109729,0.585,177.66)"/>
<path style="fill:none;stroke-width:5;stroke-linecap:butt;stroke-linejoin:miter;stroke:rgb(13.730068%,12.159915%,12.54902%);stroke-opacity:1;stroke-miterlimit:4;" d="M 971.044289 1138.314336 C 971.044289 1138.314336 992.72412 1258.31879 837.725784 1321.685129 C 682.727447 1385.015869 406.0515 1286.655647 322.714084 981.678442 C 239.412268 676.665638 412.744124 443.313755 547.735785 368.34212 C 682.442654 293.512882 865.243862 236.910366 975.316177 486.673418 " transform="matrix(0.109729,0,0,-0.109729,0.585,177.66)"/>
<path style="fill:none;stroke-width:5;stroke-linecap:butt;stroke-linejoin:miter;stroke:rgb(13.730068%,12.159915%,12.54902%);stroke-opacity:1;stroke-miterlimit:4;" d="M 893.54512 1135.858 C 893.54512 1135.858 813.44722 1258.461186 672.724109 1186.657868 C 518.900541 1108.197525 485.615414 957.115086 480.275554 823.582986 C 479.634771 807.634604 480.382351 759.575864 486.220598 732.769767 C 501.314602 663.707577 548.803757 530.246676 695.222719 457.909372 C 695.222719 457.909372 806.5766 405.044758 892.121158 489.841735 " transform="matrix(0.109729,0,0,-0.109729,0.585,177.66)"/>
<path style="fill:none;stroke-width:5;stroke-linecap:butt;stroke-linejoin:miter;stroke:rgb(13.730068%,12.159915%,12.54902%);stroke-opacity:1;stroke-miterlimit:4;" d="M 882.651806 1124.537497 C 882.651806 1124.537497 786.641123 1163.34048 698.569031 1068.32657 C 613.273667 976.338582 616.904772 834.155909 627.726889 762.494988 C 627.726889 762.494988 645.241629 612.516119 767.738018 540.819599 C 767.738018 540.819599 777.064974 535.016951 793.084554 528.324326 C 811.880861 520.456933 848.227508 510.63159 881.085447 508.388849 " transform="matrix(0.109729,0,0,-0.109729,0.585,177.66)"/>
<path style="fill:none;stroke-width:5;stroke-linecap:butt;stroke-linejoin:miter;stroke:rgb(13.730068%,12.159915%,12.54902%);stroke-opacity:1;stroke-miterlimit:4;" d="M 882.50941 517.50221 C 856.486492 533.059002 829.110809 556.554386 808.676945 578.768204 C 764.462904 626.862543 734.025702 687.23856 727.795865 752.740843 C 720.74725 826.751303 725.980313 907.703581 750.721664 978.33213 C 772.330298 1039.918515 813.482819 1093.673106 876.315172 1116.670103 C 877.881531 1117.239688 879.483489 1117.809273 881.049848 1118.343259 " transform="matrix(0.109729,0,0,-0.109729,0.585,177.66)"/>
<path style="fill:none;stroke-width:5;stroke-linecap:butt;stroke-linejoin:miter;stroke:rgb(13.730068%,12.159915%,12.54902%);stroke-opacity:1;stroke-miterlimit:4;" d="M 886.176113 1101.220108 C 886.176113 1101.220108 799.385589 1014.18039 799.385589 825.825727 C 799.385589 637.471065 896.037055 527.505548 896.037055 527.505548 " transform="matrix(0.109729,0,0,-0.109729,0.585,177.66)"/>
<path style="fill:none;stroke-width:5;stroke-linecap:butt;stroke-linejoin:miter;stroke:rgb(13.730068%,12.159915%,12.54902%);stroke-opacity:1;stroke-miterlimit:4;" d="M 929.144187 1093.317115 C 929.144187 1093.317115 869.373354 993.319337 869.373354 822.479415 C 869.373354 604.150339 931.885315 531.670639 931.885315 531.670639 " transform="matrix(0.109729,0,0,-0.109729,0.585,177.66)"/>
<path style="fill:none;stroke-width:5;stroke-linecap:butt;stroke-linejoin:miter;stroke:rgb(13.730068%,12.159915%,12.54902%);stroke-opacity:1;stroke-miterlimit:4;" d="M 968.943944 1093.317115 C 968.943944 1093.317115 933.98566 1032.051121 933.98566 832.055564 C 935.196028 693.610793 975.850163 531.670639 975.850163 531.670639 " transform="matrix(0.109729,0,0,-0.109729,0.585,177.66)"/>
<path style="fill:none;stroke-width:5;stroke-linecap:butt;stroke-linejoin:miter;stroke:rgb(13.730068%,12.159915%,12.54902%);stroke-opacity:1;stroke-miterlimit:4;" d="M 1019.387821 1093.317115 C 1019.387821 1093.317115 991.050964 985.843533 991.050964 824.152571 C 991.050964 680.901927 1019.387821 531.670639 1019.387821 531.670639 " transform="matrix(0.109729,0,0,-0.109729,0.585,177.66)"/>
<path style="fill:none;stroke-width:5;stroke-linecap:butt;stroke-linejoin:miter;stroke:rgb(13.730068%,12.159915%,12.54902%);stroke-opacity:1;stroke-miterlimit:4;" d="M 1049.397835 1093.317115 L 1049.397835 531.670639 " transform="matrix(0.109729,0,0,-0.109729,0.585,177.66)"/>
<path style=" stroke:none;fill-rule:nonzero;fill:rgb(13.730068%,12.159915%,12.54902%);fill-opacity:1;" d="M 117.328125 91.480469 L 115.734375 85.53125 L 114.140625 91.480469 L 117.328125 91.480469 "/>
<path style=" stroke:none;fill-rule:nonzero;fill:rgb(13.730068%,12.159915%,12.54902%);fill-opacity:1;" d="M 110.933594 91.480469 L 109.34375 85.53125 L 107.75 91.480469 L 110.933594 91.480469 "/>
<path style=" stroke:none;fill-rule:nonzero;fill:rgb(13.730068%,12.159915%,12.54902%);fill-opacity:1;" d="M 104.664063 91.480469 L 103.070313 85.53125 L 101.476563 91.480469 L 104.664063 91.480469 "/>
<path style=" stroke:none;fill-rule:nonzero;fill:rgb(13.730068%,12.159915%,12.54902%);fill-opacity:1;" d="M 97.601563 91.480469 L 96.007813 85.53125 L 94.414063 91.480469 L 97.601563 91.480469 "/>
<path style=" stroke:none;fill-rule:nonzero;fill:rgb(13.730068%,12.159915%,12.54902%);fill-opacity:1;" d="M 89.914063 91.480469 L 88.320313 85.53125 L 86.726563 91.480469 L 89.914063 91.480469 "/>
<path style=" stroke:none;fill-rule:nonzero;fill:rgb(13.730068%,12.159915%,12.54902%);fill-opacity:1;" d="M 81.890625 91.480469 L 80.300781 85.53125 L 78.707031 91.480469 L 81.890625 91.480469 "/>
<path style=" stroke:none;fill-rule:nonzero;fill:rgb(13.730068%,12.159915%,12.54902%);fill-opacity:1;" d="M 70.445313 91.480469 L 68.851563 85.53125 L 67.257813 91.480469 L 70.445313 91.480469 "/>
<path style=" stroke:none;fill-rule:nonzero;fill:rgb(13.730068%,12.159915%,12.54902%);fill-opacity:1;" d="M 54.964844 91.480469 L 53.371094 85.53125 L 51.777344 91.480469 L 54.964844 91.480469 "/>
<path style=" stroke:none;fill-rule:nonzero;fill:rgb(13.730068%,12.159915%,12.54902%);fill-opacity:1;" d="M 3.773438 91.480469 L 2.179688 85.53125 L 0.585938 91.480469 L 3.773438 91.480469 "/>
<path style=" stroke:none;fill-rule:nonzero;fill:rgb(13.730068%,12.159915%,12.54902%);fill-opacity:1;" d="M 35.226563 91.480469 L 33.632813 85.53125 L 32.042969 91.480469 L 35.226563 91.480469 "/>
<path style="fill:none;stroke-width:5;stroke-linecap:butt;stroke-linejoin:miter;stroke:rgb(13.730068%,12.159915%,12.54902%);stroke-opacity:1;stroke-miterlimit:4;" d="M 1105.217171 1093.317115 L 1105.217171 531.670639 " transform="matrix(0.109729,0,0,-0.109729,0.585,177.66)"/>
<path style=" stroke:none;fill-rule:nonzero;fill:rgb(13.730068%,12.159915%,12.54902%);fill-opacity:1;" d="M 123.453125 91.480469 L 121.859375 85.53125 L 120.265625 91.480469 L 123.453125 91.480469 "/>
<path style="fill:none;stroke-width:5;stroke-linecap:butt;stroke-linejoin:miter;stroke:rgb(13.730068%,12.159915%,12.54902%);stroke-opacity:1;stroke-miterlimit:4;" d="M 1159.398951 1093.317115 L 1159.398951 531.670639 " transform="matrix(0.109729,0,0,-0.109729,0.585,177.66)"/>
<path style=" stroke:none;fill-rule:nonzero;fill:rgb(13.730068%,12.159915%,12.54902%);fill-opacity:1;" d="M 129.398438 91.480469 L 127.804688 85.53125 L 126.210938 91.480469 L 129.398438 91.480469 "/>
<path style="fill:none;stroke-width:5;stroke-linecap:butt;stroke-linejoin:miter;stroke:rgb(13.730068%,12.159915%,12.54902%);stroke-opacity:1;stroke-miterlimit:4;" d="M 1219.383379 1093.317115 L 1219.383379 531.670639 " transform="matrix(0.109729,0,0,-0.109729,0.585,177.66)"/>
<path style=" stroke:none;fill-rule:nonzero;fill:rgb(13.730068%,12.159915%,12.54902%);fill-opacity:1;" d="M 135.980469 91.480469 L 134.386719 85.53125 L 132.796875 91.480469 L 135.980469 91.480469 "/>
<path style="fill:none;stroke-width:5;stroke-linecap:butt;stroke-linejoin:miter;stroke:rgb(13.730068%,12.159915%,12.54902%);stroke-opacity:1;stroke-miterlimit:4;" d="M 1266.053755 1093.317115 L 1266.053755 531.670639 " transform="matrix(0.109729,0,0,-0.109729,0.585,177.66)"/>
<path style=" stroke:none;fill-rule:nonzero;fill:rgb(13.730068%,12.159915%,12.54902%);fill-opacity:1;" d="M 141.101563 91.480469 L 139.507813 85.53125 L 137.914063 91.480469 L 141.101563 91.480469 "/>
<path style="fill:none;stroke-width:5;stroke-linecap:butt;stroke-linejoin:miter;stroke:rgb(13.730068%,12.159915%,12.54902%);stroke-opacity:1;stroke-miterlimit:4;" d="M 1316.034845 1093.317115 L 1316.034845 531.670639 " transform="matrix(0.109729,0,0,-0.109729,0.585,177.66)"/>
<path style=" stroke:none;fill-rule:nonzero;fill:rgb(13.730068%,12.159915%,12.54902%);fill-opacity:1;" d="M 146.589844 91.480469 L 144.992188 85.53125 L 143.402344 91.480469 L 146.589844 91.480469 "/>
<path style="fill:none;stroke-width:5;stroke-linecap:butt;stroke-linejoin:miter;stroke:rgb(13.730068%,12.159915%,12.54902%);stroke-opacity:1;stroke-miterlimit:4;" d="M 1366.905911 1093.317115 L 1366.905911 531.670639 " transform="matrix(0.109729,0,0,-0.109729,0.585,177.66)"/>
<path style=" stroke:none;fill-rule:nonzero;fill:rgb(13.730068%,12.159915%,12.54902%);fill-opacity:1;" d="M 152.167969 91.480469 L 150.574219 85.53125 L 148.980469 91.480469 L 152.167969 91.480469 "/>
<path style="fill:none;stroke-width:5;stroke-linecap:butt;stroke-linejoin:miter;stroke:rgb(13.730068%,12.159915%,12.54902%);stroke-opacity:1;stroke-miterlimit:4;" d="M 1418.560157 1093.317115 L 1418.560157 531.670639 " transform="matrix(0.109729,0,0,-0.109729,0.585,177.66)"/>
<path style=" stroke:none;fill-rule:nonzero;fill:rgb(13.730068%,12.159915%,12.54902%);fill-opacity:1;" d="M 157.835938 91.480469 L 156.242188 85.53125 L 154.648438 91.480469 L 157.835938 91.480469 "/>
<path style="fill:none;stroke-width:5;stroke-linecap:butt;stroke-linejoin:miter;stroke:rgb(13.730068%,12.159915%,12.54902%);stroke-opacity:1;stroke-miterlimit:4;" d="M 1471.033182 1093.317115 L 1471.033182 531.670639 " transform="matrix(0.109729,0,0,-0.109729,0.585,177.66)"/>
<path style=" stroke:none;fill-rule:nonzero;fill:rgb(13.730068%,12.159915%,12.54902%);fill-opacity:1;" d="M 163.597656 91.480469 L 162 85.53125 L 160.410156 91.480469 L 163.597656 91.480469 "/>
<path style="fill:none;stroke-width:5;stroke-linecap:butt;stroke-linejoin:miter;stroke:rgb(13.730068%,12.159915%,12.54902%);stroke-opacity:1;stroke-miterlimit:4;" d="M 1520.231092 1093.317115 L 1520.231092 531.670639 " transform="matrix(0.109729,0,0,-0.109729,0.585,177.66)"/>
<path style=" stroke:none;fill-rule:nonzero;fill:rgb(13.730068%,12.159915%,12.54902%);fill-opacity:1;" d="M 168.992188 91.480469 L 167.398438 85.53125 L 165.804688 91.480469 L 168.992188 91.480469 "/>
<path style="fill:none;stroke-width:5;stroke-linecap:butt;stroke-linejoin:miter;stroke:rgb(13.730068%,12.159915%,12.54902%);stroke-opacity:1;stroke-miterlimit:4;" d="M 1536.037078 1093.317115 L 906.075992 1093.317115 C 889.558025 1093.317115 881.049848 1103.462849 881.049848 1115.815726 C 881.049848 1128.204201 889.558025 1138.314336 906.075992 1138.314336 L 1536.037078 1138.314336 " transform="matrix(0.109729,0,0,-0.109729,0.585,177.66)"/>
<path style="fill:none;stroke-width:5;stroke-linecap:butt;stroke-linejoin:miter;stroke:rgb(13.730068%,12.159915%,12.54902%);stroke-opacity:1;stroke-miterlimit:4;" d="M 1536.037078 486.673418 L 906.075992 486.673418 C 889.558025 486.673418 881.049848 496.783553 881.049848 509.172028 C 881.049848 521.524905 889.558025 531.670639 906.075992 531.670639 L 1536.037078 531.670639 " transform="matrix(0.109729,0,0,-0.109729,0.585,177.66)"/>
<path style="fill:none;stroke-width:5;stroke-linecap:butt;stroke-linejoin:miter;stroke:rgb(13.730068%,12.159915%,12.54902%);stroke-opacity:1;stroke-miterlimit:4;" d="M 1487.729144 1138.314336 C 1487.729144 1138.314336 1512.719689 1308.335479 1334.403963 1614.98584 " transform="matrix(0.109729,0,0,-0.109729,0.585,177.66)"/>
<path style="fill:none;stroke-width:5;stroke-linecap:butt;stroke-linejoin:miter;stroke:rgb(13.730068%,12.159915%,12.54902%);stroke-opacity:1;stroke-miterlimit:4;" d="M 1487.729144 486.673418 C 1487.729144 486.673418 1512.719689 316.652275 1334.403963 10.001914 " transform="matrix(0.109729,0,0,-0.109729,0.585,177.66)"/>
</g>
</g>
</g>
</svg>
