<?xml version="1.0" encoding="UTF-8"?>
<svg xmlns="http://www.w3.org/2000/svg" xmlns:xlink="http://www.w3.org/1999/xlink" width="307.17pt" height="220.09pt" viewBox="0 0 307.17 220.09" version="1.1">
<g id="surface1">
<path style=" stroke:none;fill-rule:nonzero;fill:rgb(28.556824%,27.256775%,27.580261%);fill-opacity:1;" d="M 142.945312 193.136719 C 142.914062 193.136719 142.882812 193.132812 142.851562 193.128906 C 142.464844 193.074219 142.195312 192.722656 142.246094 192.335938 L 156.21875 90.023438 C 156.269531 89.640625 156.621094 89.367188 157.011719 89.421875 C 157.394531 89.476562 157.664062 89.828125 157.613281 90.214844 L 143.640625 192.527344 C 143.59375 192.878906 143.292969 193.136719 142.945312 193.136719 "/>
<path style=" stroke:none;fill-rule:nonzero;fill:rgb(28.556824%,27.256775%,27.580261%);fill-opacity:1;" d="M 226.058594 118.878906 C 226.023438 118.878906 225.992188 118.878906 225.960938 118.871094 L 26.957031 92.109375 C 26.574219 92.058594 26.300781 91.703125 26.355469 91.316406 C 26.40625 90.933594 26.753906 90.65625 27.144531 90.714844 L 226.148438 117.476562 C 226.535156 117.53125 226.804688 117.882812 226.753906 118.269531 C 226.707031 118.621094 226.402344 118.878906 226.058594 118.878906 "/>
<path style=" stroke:none;fill-rule:nonzero;fill:rgb(79.042053%,78.660583%,78.755188%);fill-opacity:1;" d="M 201.253906 148.453125 L 59.761719 128.875 L 63.765625 97.726562 L 205.261719 117.304688 "/>
<path style=" stroke:none;fill-rule:nonzero;fill:rgb(28.556824%,27.256775%,27.580261%);fill-opacity:1;" d="M 60.15625 128.574219 L 200.949219 148.054688 L 204.867188 117.609375 L 64.070312 98.128906 Z M 201.253906 148.804688 C 201.238281 148.804688 201.222656 148.804688 201.207031 148.800781 L 59.710938 129.222656 C 59.519531 129.195312 59.386719 129.019531 59.410156 128.828125 L 63.417969 97.683594 C 63.429688 97.589844 63.476562 97.507812 63.554688 97.449219 C 63.628906 97.390625 63.722656 97.363281 63.816406 97.378906 L 205.3125 116.957031 C 205.503906 116.984375 205.636719 117.160156 205.613281 117.351562 L 201.605469 148.496094 C 201.59375 148.589844 201.542969 148.675781 201.46875 148.734375 C 201.40625 148.78125 201.332031 148.804688 201.253906 148.804688 "/>
<path style=" stroke:none;fill-rule:nonzero;fill:rgb(66.952515%,66.351318%,66.500854%);fill-opacity:1;" d="M 201.253906 148.453125 L 241.300781 119.53125 L 245.304688 88.386719 L 205.261719 117.304688 "/>
<path style=" stroke:none;fill-rule:nonzero;fill:rgb(28.556824%,27.256775%,27.580261%);fill-opacity:1;" d="M 205.59375 117.503906 L 201.707031 147.691406 L 240.972656 119.335938 L 244.851562 89.148438 Z M 201.253906 148.804688 C 201.191406 148.804688 201.128906 148.789062 201.074219 148.757812 C 200.953125 148.683594 200.886719 148.546875 200.90625 148.40625 L 204.914062 117.261719 C 204.925781 117.164062 204.976562 117.078125 205.054688 117.019531 L 245.097656 88.101562 C 245.210938 88.019531 245.363281 88.011719 245.484375 88.082031 C 245.605469 88.152344 245.671875 88.289062 245.65625 88.429688 L 241.652344 119.574219 C 241.636719 119.671875 241.585938 119.757812 241.507812 119.816406 L 201.460938 148.738281 C 201.398438 148.78125 201.328125 148.804688 201.253906 148.804688 "/>
<path style=" stroke:none;fill-rule:nonzero;fill:rgb(87.741089%,87.518311%,87.573242%);fill-opacity:1;" d="M 245.320312 88.382812 L 103.824219 68.804688 L 63.765625 97.726562 L 205.261719 117.308594 "/>
<path style=" stroke:none;fill-rule:nonzero;fill:rgb(28.556824%,27.256775%,27.580261%);fill-opacity:1;" d="M 64.6875 97.5 L 205.171875 116.941406 L 244.398438 88.609375 L 103.914062 69.171875 Z M 205.261719 117.660156 C 205.246094 117.660156 205.230469 117.660156 205.214844 117.65625 L 63.71875 98.078125 C 63.574219 98.058594 63.460938 97.953125 63.425781 97.8125 C 63.390625 97.675781 63.445312 97.527344 63.5625 97.441406 L 103.617188 68.519531 C 103.691406 68.464844 103.785156 68.441406 103.871094 68.453125 L 245.367188 88.03125 C 245.507812 88.050781 245.625 88.15625 245.660156 88.296875 C 245.695312 88.433594 245.640625 88.582031 245.523438 88.664062 L 205.46875 117.59375 C 205.40625 117.636719 205.335938 117.660156 205.261719 117.660156 "/>
<path style=" stroke:none;fill-rule:nonzero;fill:rgb(28.556824%,27.256775%,27.580261%);fill-opacity:1;" d="M 156.914062 90.824219 C 156.882812 90.824219 156.851562 90.820312 156.820312 90.816406 C 156.433594 90.765625 156.164062 90.410156 156.21875 90.023438 L 165.179688 24.386719 C 165.230469 24 165.578125 23.730469 165.972656 23.78125 C 166.355469 23.835938 166.625 24.191406 166.574219 24.574219 L 157.613281 90.214844 C 157.5625 90.566406 157.261719 90.824219 156.914062 90.824219 "/>
<path style=" stroke:none;fill-rule:nonzero;fill:rgb(28.556824%,27.256775%,27.580261%);fill-opacity:1;" d="M 280.527344 126.203125 C 280.496094 126.203125 280.464844 126.199219 280.433594 126.195312 L 225.960938 118.871094 C 225.574219 118.820312 225.304688 118.464844 225.355469 118.082031 C 225.40625 117.695312 225.765625 117.425781 226.148438 117.476562 L 280.621094 124.800781 C 281.003906 124.855469 281.273438 125.207031 281.222656 125.59375 C 281.175781 125.945312 280.871094 126.203125 280.527344 126.203125 "/>
</g>
</svg>
