<?xml version="1.0" encoding="UTF-8"?>
<svg xmlns="http://www.w3.org/2000/svg" xmlns:xlink="http://www.w3.org/1999/xlink" width="188.15pt" height="220.09pt" viewBox="0 0 188.15 220.09" version="1.1">
<g id="surface1">
<path style=" stroke:none;fill-rule:nonzero;fill:rgb(28.556824%,27.256775%,27.580261%);fill-opacity:1;" d="M 89.445312 117.808594 C 89.375 117.808594 89.300781 117.796875 89.226562 117.773438 C 88.859375 117.648438 88.65625 117.253906 88.777344 116.882812 L 117.722656 28.789062 C 117.84375 28.421875 118.238281 28.222656 118.609375 28.339844 C 118.980469 28.464844 119.179688 28.859375 119.058594 29.230469 L 90.117188 117.324219 C 90.019531 117.617188 89.742188 117.808594 89.445312 117.808594 "/>
<path style=" stroke:none;fill-rule:nonzero;fill:rgb(28.556824%,27.256775%,27.580261%);fill-opacity:1;" d="M 135.300781 191.675781 C 135.046875 191.675781 134.800781 191.535156 134.675781 191.296875 L 67.636719 64.167969 C 67.457031 63.824219 67.589844 63.398438 67.929688 63.21875 C 68.273438 63.039062 68.699219 63.171875 68.882812 63.511719 L 135.921875 190.640625 C 136.101562 190.984375 135.96875 191.410156 135.628906 191.59375 C 135.523438 191.648438 135.410156 191.675781 135.300781 191.675781 "/>
<path style=" stroke:none;fill-rule:nonzero;fill:rgb(79.042053%,78.660583%,78.755188%);fill-opacity:1;" d="M 142.03125 152.058594 L 89.707031 177.058594 L 39.707031 82.871094 L 92.03125 57.871094 "/>
<path style=" stroke:none;fill-rule:nonzero;fill:rgb(28.556824%,27.256775%,27.580261%);fill-opacity:1;" d="M 40.191406 83.03125 L 89.859375 176.59375 L 141.546875 151.898438 L 91.878906 58.335938 Z M 89.703125 177.410156 C 89.578125 177.410156 89.457031 177.34375 89.394531 177.222656 L 39.394531 83.035156 C 39.347656 82.953125 39.339844 82.851562 39.371094 82.761719 C 39.402344 82.671875 39.464844 82.59375 39.554688 82.554688 L 91.878906 57.554688 C 92.046875 57.472656 92.253906 57.539062 92.34375 57.703125 L 142.34375 151.890625 C 142.386719 151.976562 142.394531 152.074219 142.367188 152.167969 C 142.335938 152.257812 142.269531 152.335938 142.183594 152.375 L 89.855469 177.375 C 89.808594 177.398438 89.757812 177.410156 89.703125 177.410156 "/>
<path style=" stroke:none;fill-rule:nonzero;fill:rgb(66.952515%,66.351318%,66.500854%);fill-opacity:1;" d="M 142.03125 152.058594 L 146.40625 138.191406 L 96.40625 44.003906 L 92.03125 57.871094 "/>
<path style=" stroke:none;fill-rule:nonzero;fill:rgb(28.556824%,27.256775%,27.580261%);fill-opacity:1;" d="M 92.414062 57.835938 L 141.949219 151.148438 L 146.027344 138.226562 L 96.492188 44.914062 Z M 142.03125 152.410156 C 141.902344 152.410156 141.78125 152.339844 141.71875 152.222656 L 91.71875 58.035156 C 91.675781 57.953125 91.667969 57.855469 91.695312 57.765625 L 96.074219 43.898438 C 96.113281 43.761719 96.234375 43.667969 96.375 43.652344 C 96.53125 43.640625 96.652344 43.714844 96.71875 43.839844 L 146.71875 138.027344 C 146.765625 138.109375 146.773438 138.207031 146.742188 138.296875 L 142.367188 152.164062 C 142.324219 152.300781 142.203125 152.394531 142.0625 152.40625 C 142.050781 152.410156 142.042969 152.410156 142.03125 152.410156 "/>
<path style=" stroke:none;fill-rule:nonzero;fill:rgb(87.741089%,87.518311%,87.573242%);fill-opacity:1;" d="M 96.398438 44.035156 L 44.074219 69.035156 L 39.707031 82.871094 L 92.03125 57.871094 "/>
<path style=" stroke:none;fill-rule:nonzero;fill:rgb(28.556824%,27.256775%,27.580261%);fill-opacity:1;" d="M 44.363281 69.289062 L 40.285156 82.203125 L 91.738281 57.617188 L 95.820312 44.703125 Z M 39.707031 83.222656 C 39.621094 83.222656 39.539062 83.195312 39.472656 83.136719 C 39.367188 83.046875 39.328125 82.898438 39.367188 82.765625 L 43.738281 68.929688 C 43.769531 68.839844 43.835938 68.761719 43.921875 68.71875 L 96.246094 43.71875 C 96.375 43.660156 96.523438 43.679688 96.628906 43.769531 C 96.734375 43.863281 96.777344 44.007812 96.734375 44.144531 L 92.367188 57.976562 C 92.335938 58.070312 92.269531 58.148438 92.179688 58.1875 L 39.855469 83.1875 C 39.808594 83.214844 39.757812 83.222656 39.707031 83.222656 "/>
<path style=" stroke:none;fill-rule:nonzero;fill:rgb(28.556824%,27.256775%,27.580261%);fill-opacity:1;" d="M 67.222656 185.445312 C 67.148438 185.445312 67.074219 185.433594 67.003906 185.410156 C 66.632812 185.289062 66.433594 184.890625 66.550781 184.523438 L 88.777344 116.882812 C 88.898438 116.515625 89.289062 116.316406 89.664062 116.433594 C 90.035156 116.554688 90.234375 116.953125 90.113281 117.324219 L 67.890625 184.960938 C 67.792969 185.257812 67.519531 185.445312 67.222656 185.445312 "/>
<path style=" stroke:none;fill-rule:nonzero;fill:rgb(28.556824%,27.256775%,27.580261%);fill-opacity:1;" d="M 68.257812 64.546875 C 68.007812 64.546875 67.761719 64.40625 67.636719 64.167969 L 48.800781 28.449219 C 48.621094 28.105469 48.753906 27.679688 49.09375 27.5 C 49.4375 27.320312 49.863281 27.449219 50.046875 27.792969 L 68.878906 63.511719 C 69.0625 63.855469 68.929688 64.28125 68.585938 64.464844 C 68.480469 64.519531 68.367188 64.546875 68.257812 64.546875 "/>
</g>
</svg>
