<?xml version="1.0" encoding="UTF-8"?>
<svg xmlns="http://www.w3.org/2000/svg" xmlns:xlink="http://www.w3.org/1999/xlink" width="287.5204340564336pt" height="140.29611541307906pt" viewBox="0 0 166 81" version="1.1">
<defs>
<clipPath id="clip1">
  <path d="M -222 665 L 390 665 L 390 -127 L -222 -127 L -222 665 Z M -222 665 "/>
</clipPath>
<clipPath id="clip2">
  <path d="M 0.00390625 81.425781 L 167.25 81.425781 L 167.25 -2.199219 L 0.00390625 -2.199219 L 0.00390625 81.425781 Z M 0.00390625 81.425781 "/>
</clipPath>
</defs>
<g id="surface0">
<g clip-path="url(#clip1)" clip-rule="nonzero">
<g clip-path="url(#clip2)" clip-rule="nonzero">
<path style="fill:none;stroke-width:10;stroke-linecap:butt;stroke-linejoin:miter;stroke:rgb(13.730068%,12.159915%,12.54902%);stroke-opacity:1;stroke-miterlimit:4;" d="M 10.00754 666.995258 C 34.987066 626.995784 76.630354 9.985364 138.708506 9.985364 C 172.390577 9.985364 195.081657 78.187529 205.331321 101.619937 C 228.151327 153.770742 244.84732 209.660418 271.535124 260.00625 C 282.783969 281.214674 292.614621 306.871065 318.142085 314.445502 C 343.443928 321.987708 364.330036 303.325584 382.379758 288.337868 C 416.545304 259.877324 461.250598 201.989286 509.984849 201.989286 C 571.515063 201.989286 620.958409 244.470596 682.488624 244.470596 C 743.27751 244.470596 775.412462 229.482881 836.201348 229.482881 C 896.603455 229.482881 957.070025 236.992854 1017.504363 236.992854 C 1078.067628 236.992854 1303.173451 231.964717 1363.736715 231.964717 " transform="matrix(0.121193,0,0,-0.121193,0.002,81.425)"/>
</g>
</g>
</g>
</svg>
