<?xml version="1.0" encoding="UTF-8"?>
<svg xmlns="http://www.w3.org/2000/svg" xmlns:xlink="http://www.w3.org/1999/xlink" width="289.2524848640025pt" height="117.77945491468365pt" viewBox="0 0 167 68" version="1.1">
<defs>
<clipPath id="clip1">
  <path d="M -222 668 L 390 668 L 390 -124 L -222 -124 L -222 668 Z M -222 668 "/>
</clipPath>
<clipPath id="clip2">
  <path d="M 0.00390625 68.09375 L 167.246094 68.09375 L 167.246094 0.800781 L 0.00390625 0.800781 L 0.00390625 68.09375 Z M 0.00390625 68.09375 "/>
</clipPath>
</defs>
<g id="surface0">
<g clip-path="url(#clip1)" clip-rule="nonzero">
<g clip-path="url(#clip2)" clip-rule="nonzero">
<path style="fill:none;stroke-width:7.5;stroke-linecap:butt;stroke-linejoin:miter;stroke:rgb(0%,0%,0%);stroke-opacity:1;stroke-miterlimit:10;" d="M 9.038374 679.493609 L 3371.034383 679.493609 " transform="matrix(0.04948,0,0,-0.04948,0.002,68.094)"/>
<path style="fill:none;stroke-width:7.5;stroke-linecap:butt;stroke-linejoin:miter;stroke:rgb(0%,0%,0%);stroke-opacity:1;stroke-miterlimit:10;" d="M 9.038374 276.47408 L 20.011873 289.973853 L 31.537995 329.999495 L 42.511495 394.024732 L 54.037616 478.023318 L 65.011116 575.995352 L 76.537237 682.019882 L 87.510737 788.991764 L 99.036858 889.963748 L 110.010358 977.514905 L 121.536479 1046.513743 L 132.509979 1091.512985 L 144.0361 1109.039006 L 155.0096 1097.039208 L 166.535722 1056.460944 L 177.509221 988.962081 L 189.035343 898.48992 L 200.008842 790.491739 L 211.534964 672.467411 L 222.508463 551.995756 L 234.034585 436.971377 L 245.008084 335.999394 L 256.534206 256.500733 L 267.507705 204.001617 L 279.033827 183.00197 L 290.007326 196.501743 L 301.533448 243.474636 L 312.506947 322.499621 L 324.033069 428.997827 L 335.006568 555.469382 L 346.53269 694.01968 L 357.506189 835.017305 L 369.032311 969.462409 L 380.00581 1086.539385 L 391.531932 1178.51152 L 402.505431 1238.036833 L 414.031553 1259.510156 L 425.005053 1241.510459 L 436.531174 1183.48512 L 447.504674 1088.986712 L 459.030795 964.015132 L 470.004295 817.017608 L 481.530416 656.993987 L 492.503916 496.023014 L 503.477415 344.999242 L 515.003537 214.50144 L 525.977036 114.476809 L 537.503158 52.504168 L 548.476657 33.004497 L 560.002779 58.504067 L 570.976278 127.502905 L 582.5024 235.501086 L 593.475899 375.472413 L 605.002021 538.022307 L 615.97552 710.993078 L 627.501642 883.490173 L 638.475141 1042.487495 L 650.001263 1177.011545 L 660.974763 1277.509852 L 672.500884 1337.035166 L 683.474384 1351.008615 L 695.000505 1318.482847 L 705.974005 1241.984135 L 717.500126 1127.038703 L 728.473626 981.462207 L 739.999747 815.517633 L 750.973247 641.520564 L 762.499368 470.99712 L 773.472868 316.499722 L 784.998989 187.975571 L 795.972489 94.977137 L 807.498611 43.030644 L 818.47211 35.53077 L 829.998232 72.477516 L 840.971731 150.476203 L 852.497853 263.52693 L 863.471352 403.498257 L 874.997474 559.969306 L 885.970973 721.492901 L 897.497095 877.96395 L 908.470594 1017.461601 L 919.996716 1130.986004 L 930.970215 1211.037288 L 942.496337 1253.510257 L 953.469836 1255.483908 L 964.995958 1218.537161 L 975.969457 1145.512076 L 987.021903 1042.487495 L 998.469078 916.963293 L 1009.521524 778.965617 L 1020.968699 637.494316 L 1032.021145 502.49659 L 1043.468321 383.524909 L 1054.520766 287.526526 L 1065.967942 220.501339 L 1077.020387 187.028218 L 1088.467563 187.501895 L 1099.520008 221.527637 L 1110.967184 285.473929 L 1122.019629 374.525061 L 1133.466805 481.970619 L 1144.51925 599.994947 L 1155.966426 720.466603 L 1167.018871 835.490981 L 1178.466047 937.015587 L 1189.518492 1018.961575 L 1200.965668 1075.960615 L 1212.018113 1105.486434 L 1223.465289 1105.486434 L 1234.517734 1076.513238 L 1245.96491 1021.487849 L 1257.017355 944.515461 L 1268.464531 850.490729 L 1279.516977 746.518795 L 1290.964152 638.994291 L 1302.016598 535.496034 L 1313.463773 442.4976 L 1324.516219 365.998888 L 1335.963394 310.973499 L 1347.01584 281.526627 L 1358.463015 278.526677 L 1369.515461 302.999949 L 1380.962636 352.972792 L 1392.015082 425.524202 L 1403.462257 515.522686 L 1414.514703 617.520968 L 1425.961879 724.966527 L 1437.014324 830.517381 L 1448.4615 926.98944 L 1459.513945 1007.988076 L 1470.487444 1067.513389 L 1482.013566 1102.012808 L 1492.987065 1108.012707 L 1504.513187 1084.486788 L 1515.486687 1032.461348 L 1527.012808 955.015284 L 1537.986308 856.964304 L 1549.512429 743.992522 L 1560.485929 623.994543 L 1572.01205 505.022863 L 1582.98555 394.498408 L 1594.511671 301.499975 L 1605.485171 232.027461 L 1617.011292 191.528143 L 1627.984792 184.028269 L 1639.510914 211.027814 L 1650.484413 271.50048 L 1662.010535 361.97264 L 1672.984034 477.470695 L 1684.510156 610.021094 L 1695.483655 750.466097 L 1707.009777 890.51637 L 1717.983276 1018.961575 L 1729.509398 1127.038703 L 1740.482897 1206.537364 L 1752.009019 1251.536606 L 1762.982518 1256.983882 L 1774.50864 1223.037086 L 1785.482139 1150.012 L 1797.008261 1042.487495 L 1807.98176 907.489769 L 1819.507882 754.018669 L 1830.481381 592.021398 L 1842.007503 433.497752 L 1852.981002 289.500177 L 1864.507124 170.528496 L 1875.480623 84.477314 L 1887.006745 39.478072 L 1897.980245 37.978097 L 1909.506366 81.003688 L 1920.479866 166.502248 L 1931.532311 288.473878 L 1942.979487 438.471352 L 1954.031932 606.468523 L 1965.479108 781.018214 L 1976.531553 949.489061 L 1987.978729 1100.039157 L 1999.031174 1222.010787 L 2010.47835 1306.483049 L 2021.530795 1348.482341 L 2032.977971 1343.508741 L 2044.030416 1292.983276 L 2055.477592 1200.537465 L 2066.530037 1072.013313 L 2077.977213 916.489617 L 2089.029658 745.966173 L 2100.476834 571.969104 L 2111.52928 406.498206 L 2122.976455 261.474333 L 2134.028901 145.976278 L 2145.476076 69.00389 L 2156.528522 34.504472 L 2167.975697 45.004295 L 2179.028143 99.003385 L 2190.475318 191.528143 L 2201.527764 316.499722 L 2212.974939 464.523545 L 2224.027385 624.468219 L 2235.47456 785.518139 L 2246.527006 935.989289 L 2257.974181 1066.487091 L 2269.026627 1167.53802 L 2280.473803 1232.984287 L 2291.526248 1259.036479 L 2302.973424 1245.536707 L 2314.025869 1193.511267 L 2325.473045 1107.539031 L 2336.52549 994.488303 L 2347.972666 862.964203 L 2359.025111 722.5192 L 2370.472287 582.468927 L 2381.524732 452.523747 L 2392.971908 341.999293 L 2404.024353 256.974409 L 2414.997853 202.975318 L 2426.523974 183.00197 L 2437.497474 196.975419 L 2449.023595 243.474636 L 2459.997095 318.473373 L 2471.523216 415.498055 L 2482.496716 528.469836 L 2494.022838 648.467815 L 2504.996337 767.518442 L 2516.522459 877.96395 L 2527.495958 972.462359 L 2539.02208 1045.013768 L 2549.995579 1091.512985 L 2561.521701 1109.039006 L 2572.4952 1097.512884 L 2584.021322 1057.487242 L 2594.994821 992.988329 L 2606.520943 908.516067 L 2617.494442 809.991411 L 2629.020564 703.493204 L 2639.994063 596.521322 L 2651.520185 496.496691 L 2662.493684 409.498156 L 2674.019806 340.972994 L 2684.993305 295.973752 L 2696.519427 277.026703 L 2707.492926 285.000253 L 2719.019048 319.973348 L 2729.992547 379.498661 L 2741.518669 459.470998 L 2752.492169 555.469382 L 2764.01829 660.467613 L 2774.99179 767.992118 L 2786.517911 870.464076 L 2797.491411 961.488859 L 2809.017532 1034.513945 L 2819.991032 1084.486788 L 2831.517153 1107.539031 L 2842.490653 1102.012808 L 2854.016774 1066.960767 L 2864.990274 1004.51445 L 2876.516396 917.989592 L 2887.489895 812.99136 L 2898.463394 696.467007 L 2909.989516 575.995352 L 2920.963015 459.470998 L 2932.489137 355.025389 L 2943.462636 270.474181 L 2954.988758 211.975167 L 2965.962257 184.501945 L 2977.488379 190.97552 L 2988.461879 231.474838 L 2999.988 304.499924 L 3010.9615 405.471908 L 3022.487621 528.469836 L 3033.461121 665.52016 L 3044.987242 806.991461 L 3055.960742 943.489162 L 3067.486863 1064.987116 L 3078.539309 1162.485474 L 3089.986484 1229.036985 L 3101.03893 1258.483857 L 3112.486105 1247.984034 L 3123.538551 1198.011191 L 3134.985727 1110.53898 L 3146.038172 991.014678 L 3157.485348 847.490779 L 3168.537793 689.519755 L 3179.984969 527.522484 L 3191.037414 373.498762 L 3202.48459 238.501036 L 3213.537035 131.529153 L 3224.984211 61.504017 L 3236.036656 33.478173 L 3247.483832 49.977895 L 3258.536277 110.529507 L 3269.983453 211.027814 L 3281.035898 345.472918 L 3292.483074 503.996564 L 3303.535519 676.493659 L 3314.982695 849.46443 L 3326.03514 1012.488 L 3337.482316 1152.538273 L 3348.534762 1260.536454 L 3359.981937 1328.98267 L 3371.034383 1352.034913 M 9.038374 1082.986813 L 20.011873 1083.539435 L 31.537995 1084.013111 L 42.511495 1085.03941 L 54.037616 1085.986762 L 65.011116 1087.486737 L 76.537237 1089.539334 L 87.510737 1091.986661 L 99.036858 1094.986611 L 110.010358 1097.98656 L 121.536479 1100.98651 L 132.509979 1105.012758 L 144.0361 1109.039006 L 155.0096 1113.53893 L 166.535722 1118.038854 L 177.509221 1122.538778 L 189.035343 1127.986055 L 200.008842 1133.038601 L 211.534964 1139.0385 L 222.508463 1144.485777 L 234.034585 1150.485676 L 245.008084 1157.038197 L 256.534206 1163.511772 L 267.507705 1169.985348 L 279.033827 1176.537869 L 290.007326 1183.48512 L 301.533448 1190.037641 L 312.506947 1196.984893 L 324.033069 1204.01109 L 335.006568 1211.037288 L 346.53269 1218.537161 L 357.506189 1225.484413 L 369.032311 1232.51061 L 380.00581 1239.536808 L 391.531932 1246.484059 L 402.505431 1253.03658 L 414.031553 1259.983832 L 425.005053 1266.536353 L 436.531174 1273.009928 L 447.504674 1279.483503 L 459.030795 1285.483402 L 470.004295 1291.483301 L 481.530416 1297.4832 L 492.503916 1303.009423 L 503.477415 1308.535646 L 515.003537 1313.509246 L 525.977036 1318.00917 L 537.503158 1322.509095 L 548.476657 1327.009019 L 560.002779 1331.035267 L 570.976278 1334.508892 L 582.5024 1337.982518 L 593.475899 1340.982468 L 605.002021 1343.508741 L 615.97552 1346.035014 L 627.501642 1347.534989 L 638.475141 1349.50864 L 650.001263 1350.534938 L 660.974763 1351.482291 L 672.500884 1352.034913 L 683.474384 1352.034913 L 695.000505 1351.482291 L 705.974005 1351.008615 L 717.500126 1349.982316 L 728.473626 1348.482341 L 739.999747 1346.982367 L 750.973247 1345.008716 L 762.499368 1342.482442 L 773.472868 1339.482493 L 784.998989 1336.482543 L 795.972489 1333.008918 L 807.498611 1329.535292 L 818.47211 1325.509044 L 829.998232 1321.00912 L 840.971731 1316.509196 L 852.497853 1311.535595 L 863.471352 1306.009372 L 874.997474 1300.48315 L 885.970973 1295.035873 L 897.497095 1289.035974 L 908.470594 1283.036075 L 919.996716 1277.036176 L 930.970215 1270.483655 L 942.496337 1264.01008 L 953.469836 1256.983882 L 964.995958 1250.510307 L 975.969457 1243.48411 L 987.021903 1236.536858 L 998.469078 1229.510661 L 1009.521524 1222.484463 L 1020.968699 1215.537212 L 1032.021145 1208.511015 L 1043.468321 1201.484817 L 1054.520766 1194.537566 L 1065.967942 1187.511368 L 1077.020387 1180.485171 L 1088.467563 1174.011596 L 1099.520008 1166.985398 L 1110.967184 1160.985499 L 1122.019629 1154.511924 L 1133.466805 1148.512025 L 1144.51925 1142.512126 L 1155.966426 1136.512227 L 1167.018871 1130.986004 L 1178.466047 1126.012404 L 1189.518492 1120.486181 L 1200.965668 1115.986257 L 1212.018113 1111.486333 L 1223.465289 1107.539031 L 1234.517734 1103.512783 L 1245.96491 1100.039157 L 1257.017355 1096.486585 L 1268.464531 1093.486636 L 1279.516977 1091.039309 L 1290.964152 1088.986712 L 1302.016598 1087.013061 L 1313.463773 1085.513086 L 1324.516219 1084.486788 L 1335.963394 1083.539435 L 1347.01584 1082.986813 L 1358.463015 1082.986813 L 1369.515461 1083.539435 L 1380.962636 1084.013111 L 1392.015082 1085.03941 L 1403.462257 1086.539385 L 1414.514703 1088.513036 L 1425.961879 1090.486687 L 1437.014324 1093.01296 L 1448.4615 1096.012909 L 1459.513945 1099.012859 L 1470.487444 1102.486484 L 1482.013566 1106.512732 L 1492.987065 1110.53898 L 1504.513187 1115.038905 L 1515.486687 1120.012505 L 1527.012808 1124.986105 L 1537.986308 1130.038652 L 1549.512429 1135.485929 L 1560.485929 1141.012151 L 1572.01205 1147.01205 L 1582.98555 1153.011949 L 1594.511671 1159.485524 L 1605.485171 1166.038046 L 1617.011292 1172.511621 L 1627.984792 1178.985196 L 1639.510914 1186.011393 L 1650.484413 1193.037591 L 1662.010535 1199.984842 L 1672.984034 1207.01104 L 1684.510156 1214.037237 L 1695.483655 1220.984489 L 1707.009777 1228.010686 L 1717.983276 1235.036884 L 1729.509398 1241.984135 L 1740.482897 1249.010332 L 1752.009019 1256.03653 L 1762.982518 1262.510105 L 1774.50864 1268.98368 L 1785.482139 1275.536201 L 1797.008261 1282.009777 L 1807.98176 1288.009676 L 1819.507882 1294.009575 L 1830.481381 1299.535797 L 1842.007503 1304.983074 L 1852.981002 1310.509297 L 1864.507124 1315.482897 L 1875.480623 1319.982821 L 1887.006745 1324.482746 L 1897.980245 1328.508994 L 1909.506366 1332.535242 L 1920.479866 1336.008867 L 1931.532311 1339.008817 L 1942.979487 1342.008766 L 1954.031932 1344.535039 L 1965.479108 1346.50869 L 1976.531553 1348.482341 L 1987.978729 1349.982316 L 1999.031174 1351.008615 L 2010.47835 1351.482291 L 2021.530795 1352.034913 L 2032.977971 1352.034913 L 2044.030416 1351.482291 L 2055.477592 1350.534938 L 2066.530037 1349.50864 L 2077.977213 1348.008665 L 2089.029658 1346.035014 L 2100.476834 1343.982417 L 2111.52928 1341.53509 L 2122.976455 1338.53514 L 2134.028901 1335.535191 L 2145.476076 1331.508943 L 2156.528522 1328.035317 L 2167.975697 1323.535393 L 2179.028143 1319.035469 L 2190.475318 1314.535545 L 2201.527764 1309.482998 L 2212.974939 1304.035722 L 2224.027385 1298.509499 L 2235.47456 1292.983276 L 2246.527006 1286.983377 L 2257.974181 1280.509802 L 2269.026627 1274.509903 L 2280.473803 1268.036328 L 2291.526248 1261.01013 L 2302.973424 1254.536555 L 2314.025869 1247.510358 L 2325.473045 1240.48416 L 2336.52549 1234.010585 L 2347.972666 1226.510711 L 2359.025111 1219.484514 L 2370.472287 1212.537263 L 2381.524732 1205.511065 L 2392.971908 1198.484868 L 2404.024353 1191.537616 L 2414.997853 1184.511419 L 2426.523974 1178.037844 L 2437.497474 1171.011646 L 2449.023595 1164.538071 L 2459.997095 1157.98555 L 2471.523216 1151.985651 L 2482.496716 1145.985752 L 2494.022838 1139.985853 L 2504.996337 1134.538576 L 2516.522459 1129.012353 L 2527.495958 1123.486131 L 2539.02208 1118.986207 L 2549.995579 1114.012606 L 2561.521701 1109.986358 L 2572.4952 1105.486434 L 2584.021322 1102.012808 L 2594.994821 1098.539182 L 2606.520943 1095.539233 L 2617.494442 1092.539284 L 2629.020564 1090.01301 L 2639.994063 1088.039359 L 2651.520185 1086.539385 L 2662.493684 1085.03941 L 2674.019806 1084.013111 L 2684.993305 1083.539435 L 2696.519427 1082.986813 L 2707.492926 1082.986813 L 2719.019048 1083.539435 L 2729.992547 1084.486788 L 2741.518669 1085.986762 L 2752.492169 1087.486737 L 2764.01829 1089.539334 L 2774.99179 1091.512985 L 2786.517911 1094.039258 L 2797.491411 1097.039208 L 2809.017532 1100.512833 L 2819.991032 1103.986459 L 2831.517153 1108.012707 L 2842.490653 1112.512631 L 2854.016774 1117.012556 L 2864.990274 1121.51248 L 2876.516396 1127.038703 L 2887.489895 1132.012303 L 2898.463394 1137.538526 L 2909.989516 1143.538425 L 2920.963015 1149.538324 L 2932.489137 1155.538223 L 2943.462636 1162.011798 L 2954.988758 1168.485373 L 2965.962257 1175.037894 L 2977.488379 1181.985146 L 2988.461879 1189.011343 L 2999.988 1196.03754 L 3010.9615 1202.511116 L 3022.487621 1210.010989 L 3033.461121 1217.037187 L 3044.987242 1223.984438 L 3055.960742 1231.010636 L 3067.486863 1238.036833 L 3078.539309 1244.984084 L 3089.986484 1252.010282 L 3101.03893 1258.483857 L 3112.486105 1265.036378 L 3123.538551 1271.98363 L 3134.985727 1277.983529 L 3146.038172 1284.53605 L 3157.485348 1290.535949 L 3168.537793 1295.983226 L 3179.984969 1301.983124 L 3191.037414 1307.035671 L 3202.48459 1312.482948 L 3213.537035 1316.982872 L 3224.984211 1322.035418 L 3236.036656 1325.98272 L 3247.483832 1330.008968 L 3258.536277 1334.035216 L 3269.983453 1337.035166 L 3281.035898 1340.508791 L 3292.483074 1343.035065 L 3303.535519 1345.482392 L 3314.982695 1347.534989 L 3326.03514 1349.034964 L 3337.482316 1350.534938 L 3348.534762 1351.482291 L 3359.981937 1352.034913 L 3371.034383 1352.034913 M 9.038374 276.47408 L 20.011873 276.000404 L 31.537995 275.526728 L 42.511495 274.500429 L 54.037616 273.474131 L 65.011116 271.974156 L 76.537237 270.000505 L 87.510737 267.474232 L 99.036858 264.474283 L 110.010358 261.474333 L 121.536479 258.474384 L 132.509979 254.527082 L 144.0361 250.500834 L 155.0096 246.000909 L 166.535722 241.500985 L 177.509221 237.001061 L 189.035343 231.474838 L 200.008842 226.501238 L 211.534964 220.501339 L 222.508463 214.975116 L 234.034585 208.975217 L 245.008084 202.501642 L 256.534206 196.028067 L 267.507705 189.475546 L 279.033827 183.00197 L 290.007326 175.975773 L 301.533448 169.502198 L 312.506947 162.476 L 324.033069 155.528749 L 335.006568 148.502552 L 346.53269 141.002678 L 357.506189 133.97648 L 369.032311 127.029229 L 380.00581 120.003032 L 391.531932 112.976834 L 402.505431 106.503259 L 414.031553 99.477061 L 425.005053 93.003486 L 436.531174 86.529911 L 447.504674 79.97739 L 459.030795 73.977491 L 470.004295 67.977592 L 481.530416 61.977693 L 492.503916 56.530416 L 503.477415 51.004194 L 515.003537 46.030593 L 525.977036 41.530669 L 537.503158 37.030745 L 548.476657 32.530821 L 560.002779 28.504573 L 570.976278 25.030947 L 582.5024 21.478375 L 593.475899 18.478426 L 605.002021 16.031098 L 615.97552 13.504825 L 627.501642 12.00485 L 638.475141 10.031199 L 650.001263 9.004901 L 660.974763 7.978602 L 672.500884 7.504926 L 683.474384 7.504926 L 695.000505 7.978602 L 705.974005 8.531225 L 717.500126 9.478577 L 728.473626 10.978552 L 739.999747 12.478527 L 750.973247 14.531124 L 762.499368 16.978451 L 773.472868 19.9784 L 784.998989 22.97835 L 795.972489 26.530922 L 807.498611 30.004547 L 818.47211 34.030795 L 829.998232 38.530719 L 840.971731 43.030644 L 852.497853 48.004244 L 863.471352 53.530467 L 874.997474 58.977744 L 885.970973 64.503966 L 897.497095 70.503865 L 908.470594 76.503764 L 919.996716 82.503663 L 930.970215 88.977238 L 942.496337 95.529759 L 953.469836 102.477011 L 964.995958 109.029532 L 975.969457 115.976784 L 987.021903 123.002981 L 998.469078 130.029178 L 1009.521524 136.97643 L 1020.968699 144.002627 L 1032.021145 151.028825 L 1043.468321 157.976076 L 1054.520766 165.002274 L 1065.967942 172.028471 L 1077.020387 178.975723 L 1088.467563 185.528244 L 1099.520008 192.475495 L 1110.967184 198.475394 L 1122.019629 205.027915 L 1133.466805 211.027814 L 1144.51925 217.027713 L 1155.966426 223.027612 L 1167.018871 228.474889 L 1178.466047 233.527435 L 1189.518492 238.974712 L 1200.965668 243.474636 L 1212.018113 247.97456 L 1223.465289 252.000808 L 1234.517734 256.027056 L 1245.96491 259.500682 L 1257.017355 262.974308 L 1268.464531 265.974257 L 1279.516977 268.500531 L 1290.964152 270.474181 L 1302.016598 272.526778 L 1313.463773 274.026753 L 1324.516219 274.974106 L 1335.963394 276.000404 L 1347.01584 276.47408 L 1358.463015 276.47408 L 1369.515461 276.000404 L 1380.962636 275.526728 L 1392.015082 274.500429 L 1403.462257 273.000455 L 1414.514703 271.026804 L 1425.961879 268.974207 L 1437.014324 266.52688 L 1448.4615 263.52693 L 1459.513945 260.526981 L 1470.487444 256.974409 L 1482.013566 253.027107 L 1492.987065 249.000859 L 1504.513187 244.500935 L 1515.486687 239.527334 L 1527.012808 234.474788 L 1537.986308 229.501187 L 1549.512429 223.974965 L 1560.485929 218.527688 L 1572.01205 212.527789 L 1582.98555 206.52789 L 1594.511671 199.975369 L 1605.485171 193.501794 L 1617.011292 187.028218 L 1627.984792 180.475697 L 1639.510914 173.528446 L 1650.484413 166.502248 L 1662.010535 159.476051 L 1672.984034 152.5288 L 1684.510156 145.502602 L 1695.483655 138.476405 L 1707.009777 131.529153 L 1717.983276 124.502956 L 1729.509398 117.476758 L 1740.482897 110.529507 L 1752.009019 103.503309 L 1762.982518 97.029734 L 1774.50864 90.477213 L 1785.482139 84.003638 L 1797.008261 77.530063 L 1807.98176 71.530164 L 1819.507882 65.530265 L 1830.481381 60.004042 L 1842.007503 54.477819 L 1852.981002 49.030543 L 1864.507124 43.977996 L 1875.480623 39.478072 L 1887.006745 34.978148 L 1897.980245 31.030846 L 1909.506366 27.004598 L 1920.479866 23.530972 L 1931.532311 20.531023 L 1942.979487 17.531073 L 1954.031932 15.0048 L 1965.479108 13.031149 L 1976.531553 10.978552 L 1987.978729 9.478577 L 1999.031174 8.531225 L 2010.47835 7.978602 L 2021.530795 7.504926 L 2032.977971 7.504926 L 2044.030416 7.978602 L 2055.477592 9.004901 L 2066.530037 10.031199 L 2077.977213 11.531174 L 2089.029658 13.504825 L 2100.476834 15.478476 L 2111.52928 18.004749 L 2122.976455 21.004699 L 2134.028901 24.004648 L 2145.476076 28.030896 L 2156.528522 31.504522 L 2167.975697 36.004446 L 2179.028143 40.50437 L 2190.475318 45.004295 L 2201.527764 49.977895 L 2212.974939 55.504118 L 2224.027385 61.030341 L 2235.47456 66.477617 L 2246.527006 72.477516 L 2257.974181 79.030037 L 2269.026627 85.029936 L 2280.473803 91.503512 L 2291.526248 98.529709 L 2302.973424 105.003284 L 2314.025869 112.029482 L 2325.473045 118.976733 L 2336.52549 125.529254 L 2347.972666 133.029128 L 2359.025111 139.976379 L 2370.472287 147.002577 L 2381.524732 154.028774 L 2392.971908 160.976026 L 2404.024353 168.002223 L 2414.997853 175.028421 L 2426.523974 181.501996 L 2437.497474 188.528193 L 2449.023595 195.001768 L 2459.997095 201.475344 L 2471.523216 207.475243 L 2482.496716 213.475141 L 2494.022838 219.47504 L 2504.996337 225.001263 L 2516.522459 230.527486 L 2527.495958 235.974763 L 2539.02208 240.474687 L 2549.995579 245.527233 L 2561.521701 249.474535 L 2572.4952 253.974459 L 2584.021322 257.527031 L 2594.994821 261.000657 L 2606.520943 264.000606 L 2617.494442 267.000556 L 2629.020564 269.526829 L 2639.994063 271.50048 L 2651.520185 273.000455 L 2662.493684 274.500429 L 2674.019806 275.526728 L 2684.993305 276.000404 L 2696.519427 276.47408 L 2707.492926 276.47408 L 2719.019048 276.000404 L 2729.992547 274.974106 L 2741.518669 273.474131 L 2752.492169 271.974156 L 2764.01829 270.000505 L 2774.99179 268.026854 L 2786.517911 265.500581 L 2797.491411 262.500632 L 2809.017532 259.027006 L 2819.991032 255.474434 L 2831.517153 251.527132 L 2842.490653 247.027208 L 2854.016774 242.527284 L 2864.990274 238.02736 L 2876.516396 232.501137 L 2887.489895 227.527536 L 2898.463394 222.001314 L 2909.989516 216.001415 L 2920.963015 210.001516 L 2932.489137 204.001617 L 2943.462636 197.528042 L 2954.988758 190.97552 L 2965.962257 184.501945 L 2977.488379 177.475748 L 2988.461879 170.528496 L 2999.988 163.502299 L 3010.9615 157.028724 L 3022.487621 149.52885 L 3033.461121 142.502653 L 3044.987242 135.476455 L 3055.960742 128.529204 L 3067.486863 121.503006 L 3078.539309 114.476809 L 3089.986484 107.529557 L 3101.03893 100.977036 L 3112.486105 94.503461 L 3123.538551 87.477264 L 3134.985727 81.477365 L 3146.038172 75.003789 L 3157.485348 69.00389 L 3168.537793 63.477668 L 3179.984969 57.477769 L 3191.037414 52.504168 L 3202.48459 46.977946 L 3213.537035 42.478021 L 3224.984211 37.504421 L 3236.036656 33.478173 L 3247.483832 29.530871 L 3258.536277 25.504623 L 3269.983453 22.504674 L 3281.035898 19.031048 L 3292.483074 16.504775 L 3303.535519 13.978501 L 3314.982695 12.00485 L 3326.03514 10.504876 L 3337.482316 9.004901 L 3348.534762 7.978602 L 3359.981937 7.504926 L 3371.034383 7.504926 " transform="matrix(0.04948,0,0,-0.04948,0.002,68.094)"/>
</g>
</g>
</g>
</svg>
