<?xml version="1.0" encoding="UTF-8"?>
<svg xmlns="http://www.w3.org/2000/svg" xmlns:xlink="http://www.w3.org/1999/xlink" width="347pt" height="113pt" viewBox="0 0 250 82" version="1.1">
<defs>
<clipPath id="clip1">
  <path d="M -180 666 L 432 666 L 432 -126 L -180 -126 L -180 666 Z M -180 666 "/>
</clipPath>
<clipPath id="clip2">
  <path d="M -0.519531 81.804688 L 251.769531 81.804688 L 251.769531 -1.199219 L -0.519531 -1.199219 L -0.519531 81.804688 Z M -0.519531 81.804688 "/>
</clipPath>
<clipPath id="clip3">
  <path d="M -180 666 L 432 666 L 432 -126 L -180 -126 L -180 666 Z M -180 666 "/>
</clipPath>
<clipPath id="clip4">
  <path d="M -0.519531 81.804688 L 251.769531 81.804688 L 251.769531 -1.199219 L -0.519531 -1.199219 L -0.519531 81.804688 Z M -0.519531 81.804688 "/>
</clipPath>
<clipPath id="clip5">
  <path d="M 249.855469 81.804688 L 3.519531 81.804688 L 5.722656 72.613281 L 249.855469 72.613281 L 249.855469 81.804688 Z M 249.855469 81.804688 "/>
</clipPath>
<clipPath id="clip6">
  <path d="M 283.726563 81.410156 L 264.417969 62.101563 L 242.730469 83.789063 L 262.039063 103.097656 L 283.726563 81.410156 Z M 283.726563 81.410156 "/>
</clipPath>
<clipPath id="clip7">
  <path d="M -180 666 L 432 666 L 432 -126 L -180 -126 L -180 666 Z M -180 666 "/>
</clipPath>
<clipPath id="clip8">
  <path d="M -0.519531 81.804688 L 251.769531 81.804688 L 251.769531 -1.199219 L -0.519531 -1.199219 L -0.519531 81.804688 Z M -0.519531 81.804688 "/>
</clipPath>
<clipPath id="clip9">
  <path d="M 249.855469 81.804688 L 3.519531 81.804688 L 5.722656 72.613281 L 249.855469 72.613281 L 249.855469 81.804688 Z M 249.855469 81.804688 "/>
</clipPath>
<clipPath id="clip10">
  <path d="M 265.191406 62.875 L 245.882813 43.570313 L 224.195313 65.257813 L 243.503906 84.5625 L 265.191406 62.875 Z M 265.191406 62.875 "/>
</clipPath>
<clipPath id="clip11">
  <path d="M -180 666 L 432 666 L 432 -126 L -180 -126 L -180 666 Z M -180 666 "/>
</clipPath>
<clipPath id="clip12">
  <path d="M -0.519531 81.804688 L 251.769531 81.804688 L 251.769531 -1.199219 L -0.519531 -1.199219 L -0.519531 81.804688 Z M -0.519531 81.804688 "/>
</clipPath>
<clipPath id="clip13">
  <path d="M 249.855469 81.804688 L 3.519531 81.804688 L 5.722656 72.613281 L 249.855469 72.613281 L 249.855469 81.804688 Z M 249.855469 81.804688 "/>
</clipPath>
<clipPath id="clip14">
  <path d="M 244.277344 83.789063 L 224.96875 64.484375 L 203.28125 86.171875 L 222.585938 105.476563 L 244.277344 83.789063 Z M 244.277344 83.789063 "/>
</clipPath>
<clipPath id="clip15">
  <path d="M -180 666 L 432 666 L 432 -126 L -180 -126 L -180 666 Z M -180 666 "/>
</clipPath>
<clipPath id="clip16">
  <path d="M -0.519531 81.804688 L 251.769531 81.804688 L 251.769531 -1.199219 L -0.519531 -1.199219 L -0.519531 81.804688 Z M -0.519531 81.804688 "/>
</clipPath>
<clipPath id="clip17">
  <path d="M 249.855469 81.804688 L 3.519531 81.804688 L 5.722656 72.613281 L 249.855469 72.613281 L 249.855469 81.804688 Z M 249.855469 81.804688 "/>
</clipPath>
<clipPath id="clip18">
  <path d="M 225.742188 65.257813 L 206.433594 45.949219 L 184.746094 67.636719 L 204.054688 86.945313 L 225.742188 65.257813 Z M 225.742188 65.257813 "/>
</clipPath>
<clipPath id="clip19">
  <path d="M -180 666 L 432 666 L 432 -126 L -180 -126 L -180 666 Z M -180 666 "/>
</clipPath>
<clipPath id="clip20">
  <path d="M -0.519531 81.804688 L 251.769531 81.804688 L 251.769531 -1.199219 L -0.519531 -1.199219 L -0.519531 81.804688 Z M -0.519531 81.804688 "/>
</clipPath>
<clipPath id="clip21">
  <path d="M 249.855469 81.804688 L 3.519531 81.804688 L 5.722656 72.613281 L 249.855469 72.613281 L 249.855469 81.804688 Z M 249.855469 81.804688 "/>
</clipPath>
<clipPath id="clip22">
  <path d="M 204.828125 86.171875 L 185.519531 66.867188 L 163.832031 88.554688 L 183.136719 107.859375 L 204.828125 86.171875 Z M 204.828125 86.171875 "/>
</clipPath>
<clipPath id="clip23">
  <path d="M -180 666 L 432 666 L 432 -126 L -180 -126 L -180 666 Z M -180 666 "/>
</clipPath>
<clipPath id="clip24">
  <path d="M -0.519531 81.804688 L 251.769531 81.804688 L 251.769531 -1.199219 L -0.519531 -1.199219 L -0.519531 81.804688 Z M -0.519531 81.804688 "/>
</clipPath>
<clipPath id="clip25">
  <path d="M 249.855469 81.804688 L 3.519531 81.804688 L 5.722656 72.613281 L 249.855469 72.613281 L 249.855469 81.804688 Z M 249.855469 81.804688 "/>
</clipPath>
<clipPath id="clip26">
  <path d="M 186.292969 67.636719 L 166.984375 48.332031 L 145.296875 70.019531 L 164.605469 89.324219 L 186.292969 67.636719 Z M 186.292969 67.636719 "/>
</clipPath>
<clipPath id="clip27">
  <path d="M -180 666 L 432 666 L 432 -126 L -180 -126 L -180 666 Z M -180 666 "/>
</clipPath>
<clipPath id="clip28">
  <path d="M -0.519531 81.804688 L 251.769531 81.804688 L 251.769531 -1.199219 L -0.519531 -1.199219 L -0.519531 81.804688 Z M -0.519531 81.804688 "/>
</clipPath>
<clipPath id="clip29">
  <path d="M 249.855469 81.804688 L 3.519531 81.804688 L 5.722656 72.613281 L 249.855469 72.613281 L 249.855469 81.804688 Z M 249.855469 81.804688 "/>
</clipPath>
<clipPath id="clip30">
  <path d="M 165.375 88.550781 L 146.070313 69.246094 L 124.382813 90.933594 L 143.691406 110.238281 L 165.375 88.550781 Z M 165.375 88.550781 "/>
</clipPath>
<clipPath id="clip31">
  <path d="M -180 666 L 432 666 L 432 -126 L -180 -126 L -180 666 Z M -180 666 "/>
</clipPath>
<clipPath id="clip32">
  <path d="M -0.519531 81.804688 L 251.769531 81.804688 L 251.769531 -1.199219 L -0.519531 -1.199219 L -0.519531 81.804688 Z M -0.519531 81.804688 "/>
</clipPath>
<clipPath id="clip33">
  <path d="M 249.855469 81.804688 L 3.519531 81.804688 L 5.722656 72.613281 L 249.855469 72.613281 L 249.855469 81.804688 Z M 249.855469 81.804688 "/>
</clipPath>
<clipPath id="clip34">
  <path d="M 146.839844 70.019531 L 127.535156 50.710938 L 105.847656 72.398438 L 125.15625 91.707031 L 146.839844 70.019531 Z M 146.839844 70.019531 "/>
</clipPath>
<clipPath id="clip35">
  <path d="M -180 666 L 432 666 L 432 -126 L -180 -126 L -180 666 Z M -180 666 "/>
</clipPath>
<clipPath id="clip36">
  <path d="M -0.519531 81.804688 L 251.769531 81.804688 L 251.769531 -1.199219 L -0.519531 -1.199219 L -0.519531 81.804688 Z M -0.519531 81.804688 "/>
</clipPath>
<clipPath id="clip37">
  <path d="M 249.855469 81.804688 L 3.519531 81.804688 L 5.722656 72.613281 L 249.855469 72.613281 L 249.855469 81.804688 Z M 249.855469 81.804688 "/>
</clipPath>
<clipPath id="clip38">
  <path d="M 125.925781 90.933594 L 106.617188 71.625 L 84.929688 93.3125 L 104.238281 112.621094 L 125.925781 90.933594 Z M 125.925781 90.933594 "/>
</clipPath>
<clipPath id="clip39">
  <path d="M -180 666 L 432 666 L 432 -126 L -180 -126 L -180 666 Z M -180 666 "/>
</clipPath>
<clipPath id="clip40">
  <path d="M -0.519531 81.804688 L 251.769531 81.804688 L 251.769531 -1.199219 L -0.519531 -1.199219 L -0.519531 81.804688 Z M -0.519531 81.804688 "/>
</clipPath>
<clipPath id="clip41">
  <path d="M 249.855469 81.804688 L 3.519531 81.804688 L 5.722656 72.613281 L 249.855469 72.613281 L 249.855469 81.804688 Z M 249.855469 81.804688 "/>
</clipPath>
<clipPath id="clip42">
  <path d="M 107.390625 72.398438 L 88.085938 53.09375 L 66.398438 74.78125 L 85.707031 94.085938 L 107.390625 72.398438 Z M 107.390625 72.398438 "/>
</clipPath>
<clipPath id="clip43">
  <path d="M -180 666 L 432 666 L 432 -126 L -180 -126 L -180 666 Z M -180 666 "/>
</clipPath>
<clipPath id="clip44">
  <path d="M -0.519531 81.804688 L 251.769531 81.804688 L 251.769531 -1.199219 L -0.519531 -1.199219 L -0.519531 81.804688 Z M -0.519531 81.804688 "/>
</clipPath>
<clipPath id="clip45">
  <path d="M 249.855469 81.804688 L 3.519531 81.804688 L 5.722656 72.613281 L 249.855469 72.613281 L 249.855469 81.804688 Z M 249.855469 81.804688 "/>
</clipPath>
<clipPath id="clip46">
  <path d="M 88.859375 53.867188 L 69.550781 34.558594 L 47.863281 56.246094 L 67.171875 75.554688 L 88.859375 53.867188 Z M 88.859375 53.867188 "/>
</clipPath>
<clipPath id="clip47">
  <path d="M -180 666 L 432 666 L 432 -126 L -180 -126 L -180 666 Z M -180 666 "/>
</clipPath>
<clipPath id="clip48">
  <path d="M -0.519531 81.804688 L 251.769531 81.804688 L 251.769531 -1.199219 L -0.519531 -1.199219 L -0.519531 81.804688 Z M -0.519531 81.804688 "/>
</clipPath>
<clipPath id="clip49">
  <path d="M 249.855469 81.804688 L 3.519531 81.804688 L 5.722656 72.613281 L 249.855469 72.613281 L 249.855469 81.804688 Z M 249.855469 81.804688 "/>
</clipPath>
<clipPath id="clip50">
  <path d="M 86.476563 93.316406 L 67.171875 74.007813 L 45.484375 95.695313 L 64.789063 115.003906 L 86.476563 93.316406 Z M 86.476563 93.316406 "/>
</clipPath>
<clipPath id="clip51">
  <path d="M -180 666 L 432 666 L 432 -126 L -180 -126 L -180 666 Z M -180 666 "/>
</clipPath>
<clipPath id="clip52">
  <path d="M -0.519531 81.804688 L 251.769531 81.804688 L 251.769531 -1.199219 L -0.519531 -1.199219 L -0.519531 81.804688 Z M -0.519531 81.804688 "/>
</clipPath>
<clipPath id="clip53">
  <path d="M 249.855469 81.804688 L 3.519531 81.804688 L 5.722656 72.613281 L 249.855469 72.613281 L 249.855469 81.804688 Z M 249.855469 81.804688 "/>
</clipPath>
<clipPath id="clip54">
  <path d="M 67.941406 74.78125 L 48.636719 55.472656 L 26.949219 77.160156 L 46.253906 96.46875 L 67.941406 74.78125 Z M 67.941406 74.78125 "/>
</clipPath>
<clipPath id="clip55">
  <path d="M -180 666 L 432 666 L 432 -126 L -180 -126 L -180 666 Z M -180 666 "/>
</clipPath>
<clipPath id="clip56">
  <path d="M -0.519531 81.804688 L 251.769531 81.804688 L 251.769531 -1.199219 L -0.519531 -1.199219 L -0.519531 81.804688 Z M -0.519531 81.804688 "/>
</clipPath>
<clipPath id="clip57">
  <path d="M 249.855469 81.804688 L 3.519531 81.804688 L 5.722656 72.613281 L 249.855469 72.613281 L 249.855469 81.804688 Z M 249.855469 81.804688 "/>
</clipPath>
<clipPath id="clip58">
  <path d="M 49.40625 56.246094 L 30.101563 36.9375 L 8.414063 58.625 L 27.71875 77.933594 L 49.40625 56.246094 Z M 49.40625 56.246094 "/>
</clipPath>
<clipPath id="clip59">
  <path d="M -180 666 L 432 666 L 432 -126 L -180 -126 L -180 666 Z M -180 666 "/>
</clipPath>
<clipPath id="clip60">
  <path d="M -0.519531 81.804688 L 251.769531 81.804688 L 251.769531 -1.199219 L -0.519531 -1.199219 L -0.519531 81.804688 Z M -0.519531 81.804688 "/>
</clipPath>
<clipPath id="clip61">
  <path d="M 249.855469 81.804688 L 3.519531 81.804688 L 5.722656 72.613281 L 249.855469 72.613281 L 249.855469 81.804688 Z M 249.855469 81.804688 "/>
</clipPath>
<clipPath id="clip62">
  <path d="M 47.027344 95.695313 L 27.722656 76.386719 L 6.03125 98.074219 L 25.339844 117.382813 L 47.027344 95.695313 Z M 47.027344 95.695313 "/>
</clipPath>
<clipPath id="clip63">
  <path d="M -180 666 L 432 666 L 432 -126 L -180 -126 L -180 666 Z M -180 666 "/>
</clipPath>
<clipPath id="clip64">
  <path d="M -0.519531 81.804688 L 251.769531 81.804688 L 251.769531 -1.199219 L -0.519531 -1.199219 L -0.519531 81.804688 Z M -0.519531 81.804688 "/>
</clipPath>
<clipPath id="clip65">
  <path d="M 249.855469 81.804688 L 3.519531 81.804688 L 5.722656 72.613281 L 249.855469 72.613281 L 249.855469 81.804688 Z M 249.855469 81.804688 "/>
</clipPath>
<clipPath id="clip66">
  <path d="M 28.492188 77.160156 L 9.1875 57.855469 L -12.5 79.542969 L 6.804688 98.847656 L 28.492188 77.160156 Z M 28.492188 77.160156 "/>
</clipPath>
<clipPath id="clip67">
  <path d="M -180 666 L 432 666 L 432 -126 L -180 -126 L -180 666 Z M -180 666 "/>
</clipPath>
<clipPath id="clip68">
  <path d="M -0.519531 81.804688 L 251.769531 81.804688 L 251.769531 -1.199219 L -0.519531 -1.199219 L -0.519531 81.804688 Z M -0.519531 81.804688 "/>
</clipPath>
</defs>
<g id="surface0">
<g clip-path="url(#clip1)" clip-rule="nonzero">
<g clip-path="url(#clip2)" clip-rule="nonzero">
<path style="fill:none;stroke-width:5;stroke-linecap:butt;stroke-linejoin:miter;stroke:rgb(13.730068%,12.159915%,12.54902%);stroke-opacity:1;stroke-miterlimit:4;" d="M 20.122395 84.170074 L 2292.461441 84.170074 " transform="matrix(0.109216,0,0,-0.109216,-0.518,81.806)"/>
</g>
</g>
<g clip-path="url(#clip3)" clip-rule="nonzero">
<g clip-path="url(#clip4)" clip-rule="nonzero">
<g clip-path="url(#clip5)" clip-rule="nonzero">
<g clip-path="url(#clip6)" clip-rule="nonzero">
<path style="fill:none;stroke-width:5.87909;stroke-linecap:butt;stroke-linejoin:miter;stroke:rgb(0%,0%,0%);stroke-opacity:1;stroke-miterlimit:4;" d="M -2299.077334 -2214.119114 L -2299.077334 -2612.17625 " transform="matrix(-0.0547326,-0.0547326,-0.0544834,0.0544834,-0.518,81.806)"/>
</g>
</g>
</g>
</g>
<g clip-path="url(#clip7)" clip-rule="nonzero">
<g clip-path="url(#clip8)" clip-rule="nonzero">
<g clip-path="url(#clip9)" clip-rule="nonzero">
<g clip-path="url(#clip10)" clip-rule="nonzero">
<path style="fill:none;stroke-width:5.87909;stroke-linecap:butt;stroke-linejoin:miter;stroke:rgb(0%,0%,0%);stroke-opacity:1;stroke-miterlimit:4;" d="M -2195.591278 -2214.119114 L -2195.591278 -2612.17625 " transform="matrix(-0.0547326,-0.0547326,-0.0544834,0.0544834,-0.518,81.806)"/>
<path style="fill:none;stroke-width:5.87909;stroke-linecap:butt;stroke-linejoin:miter;stroke:rgb(0%,0%,0%);stroke-opacity:1;stroke-miterlimit:4;" d="M -2078.009708 -2214.083266 L -2078.009708 -2612.140402 " transform="matrix(-0.0547326,-0.0547326,-0.0544834,0.0544834,-0.518,81.806)"/>
</g>
</g>
</g>
</g>
<g clip-path="url(#clip11)" clip-rule="nonzero">
<g clip-path="url(#clip12)" clip-rule="nonzero">
<g clip-path="url(#clip13)" clip-rule="nonzero">
<g clip-path="url(#clip14)" clip-rule="nonzero">
<path style="fill:none;stroke-width:5.87909;stroke-linecap:butt;stroke-linejoin:miter;stroke:rgb(0%,0%,0%);stroke-opacity:1;stroke-miterlimit:4;" d="M -2195.626963 -1830.221972 L -2195.626963 -2228.279108 " transform="matrix(-0.0547326,-0.0547326,-0.0544834,0.0544834,-0.518,81.806)"/>
<path style="fill:none;stroke-width:5.87909;stroke-linecap:butt;stroke-linejoin:miter;stroke:rgb(0%,0%,0%);stroke-opacity:1;stroke-miterlimit:4;" d="M -2078.009708 -1830.221972 L -2078.009708 -2228.279108 " transform="matrix(-0.0547326,-0.0547326,-0.0544834,0.0544834,-0.518,81.806)"/>
<path style="fill:none;stroke-width:5.87909;stroke-linecap:butt;stroke-linejoin:miter;stroke:rgb(0%,0%,0%);stroke-opacity:1;stroke-miterlimit:4;" d="M -1960.463822 -1830.221972 L -1960.463822 -2228.279108 " transform="matrix(-0.0547326,-0.0547326,-0.0544834,0.0544834,-0.518,81.806)"/>
</g>
</g>
</g>
</g>
<g clip-path="url(#clip15)" clip-rule="nonzero">
<g clip-path="url(#clip16)" clip-rule="nonzero">
<g clip-path="url(#clip17)" clip-rule="nonzero">
<g clip-path="url(#clip18)" clip-rule="nonzero">
<path style="fill:none;stroke-width:5.87909;stroke-linecap:butt;stroke-linejoin:miter;stroke:rgb(0%,0%,0%);stroke-opacity:1;stroke-miterlimit:4;" d="M -1856.977766 -1830.221972 L -1856.977766 -2228.279108 " transform="matrix(-0.0547326,-0.0547326,-0.0544834,0.0544834,-0.518,81.806)"/>
<path style="fill:none;stroke-width:5.87909;stroke-linecap:butt;stroke-linejoin:miter;stroke:rgb(0%,0%,0%);stroke-opacity:1;stroke-miterlimit:4;" d="M -1739.396196 -1830.25782 L -1739.360511 -2228.279108 " transform="matrix(-0.0547326,-0.0547326,-0.0544834,0.0544834,-0.518,81.806)"/>
</g>
</g>
</g>
</g>
<g clip-path="url(#clip19)" clip-rule="nonzero">
<g clip-path="url(#clip20)" clip-rule="nonzero">
<g clip-path="url(#clip21)" clip-rule="nonzero">
<g clip-path="url(#clip22)" clip-rule="nonzero">
<path style="fill:none;stroke-width:5.87909;stroke-linecap:butt;stroke-linejoin:miter;stroke:rgb(0%,0%,0%);stroke-opacity:1;stroke-miterlimit:4;" d="M -1739.396196 -1446.32483 L -1739.396196 -1844.381966 " transform="matrix(-0.0547326,-0.0547326,-0.0544834,0.0544834,-0.518,81.806)"/>
<path style="fill:none;stroke-width:5.87909;stroke-linecap:butt;stroke-linejoin:miter;stroke:rgb(0%,0%,0%);stroke-opacity:1;stroke-miterlimit:4;" d="M -1621.814626 -1446.360678 L -1621.814626 -1844.417814 " transform="matrix(-0.0547326,-0.0547326,-0.0544834,0.0544834,-0.518,81.806)"/>
</g>
</g>
</g>
</g>
<g clip-path="url(#clip23)" clip-rule="nonzero">
<g clip-path="url(#clip24)" clip-rule="nonzero">
<g clip-path="url(#clip25)" clip-rule="nonzero">
<g clip-path="url(#clip26)" clip-rule="nonzero">
<path style="fill:none;stroke-width:5.87909;stroke-linecap:butt;stroke-linejoin:miter;stroke:rgb(0%,0%,0%);stroke-opacity:1;stroke-miterlimit:4;" d="M -1518.32857 -1446.360678 L -1518.32857 -1844.417814 " transform="matrix(-0.0547326,-0.0547326,-0.0544834,0.0544834,-0.518,81.806)"/>
<path style="fill:none;stroke-width:5.87909;stroke-linecap:butt;stroke-linejoin:miter;stroke:rgb(0%,0%,0%);stroke-opacity:1;stroke-miterlimit:4;" d="M -1400.747 -1446.32483 L -1400.747 -1844.381966 " transform="matrix(-0.0547326,-0.0547326,-0.0544834,0.0544834,-0.518,81.806)"/>
<path style="fill:none;stroke-width:5.87909;stroke-linecap:butt;stroke-linejoin:miter;stroke:rgb(0%,0%,0%);stroke-opacity:1;stroke-miterlimit:4;" d="M -1283.165429 -1446.360678 L -1283.165429 -1844.417814 " transform="matrix(-0.0547326,-0.0547326,-0.0544834,0.0544834,-0.518,81.806)"/>
</g>
</g>
</g>
</g>
<g clip-path="url(#clip27)" clip-rule="nonzero">
<g clip-path="url(#clip28)" clip-rule="nonzero">
<g clip-path="url(#clip29)" clip-rule="nonzero">
<g clip-path="url(#clip30)" clip-rule="nonzero">
<path style="fill:none;stroke-width:5.87909;stroke-linecap:butt;stroke-linejoin:miter;stroke:rgb(0%,0%,0%);stroke-opacity:1;stroke-miterlimit:4;" d="M -1400.747 -1062.463536 L -1400.747 -1460.520671 " transform="matrix(-0.0547326,-0.0547326,-0.0544834,0.0544834,-0.518,81.806)"/>
<path style="fill:none;stroke-width:5.87909;stroke-linecap:butt;stroke-linejoin:miter;stroke:rgb(0%,0%,0%);stroke-opacity:1;stroke-miterlimit:4;" d="M -1283.201114 -1062.463536 L -1283.201114 -1460.520671 " transform="matrix(-0.0547326,-0.0547326,-0.0544834,0.0544834,-0.518,81.806)"/>
</g>
</g>
</g>
</g>
<g clip-path="url(#clip31)" clip-rule="nonzero">
<g clip-path="url(#clip32)" clip-rule="nonzero">
<g clip-path="url(#clip33)" clip-rule="nonzero">
<g clip-path="url(#clip34)" clip-rule="nonzero">
<path style="fill:none;stroke-width:5.87909;stroke-linecap:butt;stroke-linejoin:miter;stroke:rgb(0%,0%,0%);stroke-opacity:1;stroke-miterlimit:4;" d="M -1179.715058 -1062.463536 L -1179.715058 -1460.520671 " transform="matrix(-0.0547326,-0.0547326,-0.0544834,0.0544834,-0.518,81.806)"/>
<path style="fill:none;stroke-width:5.87909;stroke-linecap:butt;stroke-linejoin:miter;stroke:rgb(0%,0%,0%);stroke-opacity:1;stroke-miterlimit:4;" d="M -1062.097803 -1062.463536 L -1062.097803 -1460.520671 " transform="matrix(-0.0547326,-0.0547326,-0.0544834,0.0544834,-0.518,81.806)"/>
<path style="fill:none;stroke-width:5.87909;stroke-linecap:butt;stroke-linejoin:miter;stroke:rgb(0%,0%,0%);stroke-opacity:1;stroke-miterlimit:4;" d="M -944.551917 -1062.463536 L -944.551917 -1460.520671 " transform="matrix(-0.0547326,-0.0547326,-0.0544834,0.0544834,-0.518,81.806)"/>
</g>
</g>
</g>
</g>
<g clip-path="url(#clip35)" clip-rule="nonzero">
<g clip-path="url(#clip36)" clip-rule="nonzero">
<g clip-path="url(#clip37)" clip-rule="nonzero">
<g clip-path="url(#clip38)" clip-rule="nonzero">
<path style="fill:none;stroke-width:5.87909;stroke-linecap:butt;stroke-linejoin:miter;stroke:rgb(0%,0%,0%);stroke-opacity:1;stroke-miterlimit:4;" d="M -1062.133488 -678.566393 L -1062.133488 -1076.623529 " transform="matrix(-0.0547326,-0.0547326,-0.0544834,0.0544834,-0.518,81.806)"/>
<path style="fill:none;stroke-width:5.87909;stroke-linecap:butt;stroke-linejoin:miter;stroke:rgb(0%,0%,0%);stroke-opacity:1;stroke-miterlimit:4;" d="M -944.516233 -678.566393 L -944.516233 -1076.623529 " transform="matrix(-0.0547326,-0.0547326,-0.0544834,0.0544834,-0.518,81.806)"/>
</g>
</g>
</g>
</g>
<g clip-path="url(#clip39)" clip-rule="nonzero">
<g clip-path="url(#clip40)" clip-rule="nonzero">
<g clip-path="url(#clip41)" clip-rule="nonzero">
<g clip-path="url(#clip42)" clip-rule="nonzero">
<path style="fill:none;stroke-width:5.87909;stroke-linecap:butt;stroke-linejoin:miter;stroke:rgb(0%,0%,0%);stroke-opacity:1;stroke-miterlimit:4;" d="M -841.101546 -678.566393 L -841.065862 -1076.659377 " transform="matrix(-0.0547326,-0.0547326,-0.0544834,0.0544834,-0.518,81.806)"/>
<path style="fill:none;stroke-width:5.87909;stroke-linecap:butt;stroke-linejoin:miter;stroke:rgb(0%,0%,0%);stroke-opacity:1;stroke-miterlimit:4;" d="M -723.484291 -678.566393 L -723.484291 -1076.623529 " transform="matrix(-0.0547326,-0.0547326,-0.0544834,0.0544834,-0.518,81.806)"/>
<path style="fill:none;stroke-width:5.87909;stroke-linecap:butt;stroke-linejoin:miter;stroke:rgb(0%,0%,0%);stroke-opacity:1;stroke-miterlimit:4;" d="M -605.902721 -678.602241 L -605.938406 -1076.623529 " transform="matrix(-0.0547326,-0.0547326,-0.0544834,0.0544834,-0.518,81.806)"/>
</g>
</g>
</g>
</g>
<g clip-path="url(#clip43)" clip-rule="nonzero">
<g clip-path="url(#clip44)" clip-rule="nonzero">
<g clip-path="url(#clip45)" clip-rule="nonzero">
<g clip-path="url(#clip46)" clip-rule="nonzero">
<path style="fill:none;stroke-width:5.87909;stroke-linecap:butt;stroke-linejoin:miter;stroke:rgb(0%,0%,0%);stroke-opacity:1;stroke-miterlimit:4;" d="M -502.45235 -678.566393 L -502.416665 -1076.659377 " transform="matrix(-0.0547326,-0.0547326,-0.0544834,0.0544834,-0.518,81.806)"/>
</g>
</g>
</g>
</g>
<g clip-path="url(#clip47)" clip-rule="nonzero">
<g clip-path="url(#clip48)" clip-rule="nonzero">
<g clip-path="url(#clip49)" clip-rule="nonzero">
<g clip-path="url(#clip50)" clip-rule="nonzero">
<path style="fill:none;stroke-width:5.87909;stroke-linecap:butt;stroke-linejoin:miter;stroke:rgb(0%,0%,0%);stroke-opacity:1;stroke-miterlimit:4;" d="M -605.902721 -294.669251 L -605.902721 -692.726387 " transform="matrix(-0.0547326,-0.0547326,-0.0544834,0.0544834,-0.518,81.806)"/>
</g>
</g>
</g>
</g>
<g clip-path="url(#clip51)" clip-rule="nonzero">
<g clip-path="url(#clip52)" clip-rule="nonzero">
<g clip-path="url(#clip53)" clip-rule="nonzero">
<g clip-path="url(#clip54)" clip-rule="nonzero">
<path style="fill:none;stroke-width:5.87909;stroke-linecap:butt;stroke-linejoin:miter;stroke:rgb(0%,0%,0%);stroke-opacity:1;stroke-miterlimit:4;" d="M -502.416665 -294.669251 L -502.45235 -692.762235 " transform="matrix(-0.0547326,-0.0547326,-0.0544834,0.0544834,-0.518,81.806)"/>
<path style="fill:none;stroke-width:5.87909;stroke-linecap:butt;stroke-linejoin:miter;stroke:rgb(0%,0%,0%);stroke-opacity:1;stroke-miterlimit:4;" d="M -384.87078 -294.669251 L -384.87078 -692.726387 " transform="matrix(-0.0547326,-0.0547326,-0.0544834,0.0544834,-0.518,81.806)"/>
<path style="fill:none;stroke-width:5.87909;stroke-linecap:butt;stroke-linejoin:miter;stroke:rgb(0%,0%,0%);stroke-opacity:1;stroke-miterlimit:4;" d="M -267.289209 -294.705099 L -267.289209 -692.762235 " transform="matrix(-0.0547326,-0.0547326,-0.0544834,0.0544834,-0.518,81.806)"/>
</g>
</g>
</g>
</g>
<g clip-path="url(#clip55)" clip-rule="nonzero">
<g clip-path="url(#clip56)" clip-rule="nonzero">
<g clip-path="url(#clip57)" clip-rule="nonzero">
<g clip-path="url(#clip58)" clip-rule="nonzero">
<path style="fill:none;stroke-width:5.87909;stroke-linecap:butt;stroke-linejoin:miter;stroke:rgb(0%,0%,0%);stroke-opacity:1;stroke-miterlimit:4;" d="M -163.803153 -294.705099 L -163.803153 -692.762235 " transform="matrix(-0.0547326,-0.0547326,-0.0544834,0.0544834,-0.518,81.806)"/>
</g>
</g>
</g>
</g>
<g clip-path="url(#clip59)" clip-rule="nonzero">
<g clip-path="url(#clip60)" clip-rule="nonzero">
<g clip-path="url(#clip61)" clip-rule="nonzero">
<g clip-path="url(#clip62)" clip-rule="nonzero">
<path style="fill:none;stroke-width:5.87909;stroke-linecap:butt;stroke-linejoin:miter;stroke:rgb(0%,0%,0%);stroke-opacity:1;stroke-miterlimit:4;" d="M -267.253524 89.192043 L -267.253524 -308.865093 " transform="matrix(-0.0547326,-0.0547326,-0.0544834,0.0544834,-0.518,81.806)"/>
</g>
</g>
</g>
</g>
<g clip-path="url(#clip63)" clip-rule="nonzero">
<g clip-path="url(#clip64)" clip-rule="nonzero">
<g clip-path="url(#clip65)" clip-rule="nonzero">
<g clip-path="url(#clip66)" clip-rule="nonzero">
<path style="fill:none;stroke-width:5.87909;stroke-linecap:butt;stroke-linejoin:miter;stroke:rgb(0%,0%,0%);stroke-opacity:1;stroke-miterlimit:4;" d="M -163.767468 89.192043 L -163.767468 -308.865093 " transform="matrix(-0.0547326,-0.0547326,-0.0544834,0.0544834,-0.518,81.806)"/>
<path style="fill:none;stroke-width:5.87909;stroke-linecap:butt;stroke-linejoin:miter;stroke:rgb(0%,0%,0%);stroke-opacity:1;stroke-miterlimit:4;" d="M -46.221583 89.192043 L -46.221583 -308.865093 " transform="matrix(-0.0547326,-0.0547326,-0.0544834,0.0544834,-0.518,81.806)"/>
<path style="fill:none;stroke-width:5.87909;stroke-linecap:butt;stroke-linejoin:miter;stroke:rgb(0%,0%,0%);stroke-opacity:1;stroke-miterlimit:4;" d="M 71.359987 89.227891 L 71.395672 -308.865093 " transform="matrix(-0.0547326,-0.0547326,-0.0544834,0.0544834,-0.518,81.806)"/>
</g>
</g>
</g>
</g>
<g clip-path="url(#clip67)" clip-rule="nonzero">
<g clip-path="url(#clip68)" clip-rule="nonzero">
<path style="fill:none;stroke-width:5;stroke-linecap:butt;stroke-linejoin:miter;stroke:rgb(13.730068%,12.159915%,12.54902%);stroke-opacity:1;stroke-miterlimit:4;" d="M 612.519285 412.039559 C 612.519285 368.941192 630.044762 333.997537 651.683361 333.997537 C 673.321961 333.997537 690.847438 368.941192 690.847438 412.039559 C 690.847438 455.137926 673.321961 490.045815 651.683361 490.045815 C 630.044762 490.045815 612.519285 455.137926 612.519285 412.039559 Z M 612.519285 412.039559 " transform="matrix(0.109216,0,0,-0.109216,-0.518,81.806)"/>
<path style="fill:none;stroke-width:5;stroke-linecap:butt;stroke-linejoin:miter;stroke:rgb(13.730068%,12.159915%,12.54902%);stroke-opacity:1;stroke-miterlimit:4;" d="M 486.943877 412.003793 C 486.943877 230.81182 560.693946 83.91971 651.683361 83.91971 C 742.672777 83.91971 816.458612 230.81182 816.458612 412.003793 C 816.458612 593.231532 742.672777 740.159409 651.683361 740.159409 C 560.693946 740.159409 486.943877 593.231532 486.943877 412.003793 Z M 486.943877 412.003793 " transform="matrix(0.109216,0,0,-0.109216,-0.518,81.806)"/>
<path style="fill:none;stroke-width:5;stroke-linecap:butt;stroke-linejoin:miter;stroke:rgb(13.730068%,12.159915%,12.54902%);stroke-opacity:1;stroke-miterlimit:4;" d="M 651.683361 740.159409 L 424.925148 740.159409 C 333.935733 740.159409 260.149898 593.231532 260.149898 412.003793 C 260.149898 230.81182 333.935733 83.91971 424.925148 83.91971 L 651.683361 83.91971 " transform="matrix(0.109216,0,0,-0.109216,-0.518,81.806)"/>
<path style="fill:none;stroke-width:5;stroke-linecap:butt;stroke-linejoin:miter;stroke:rgb(13.730068%,12.159915%,12.54902%);stroke-opacity:1;stroke-miterlimit:4;" d="M 449.71118 740.159409 C 449.71118 740.159409 486.979644 729.501058 454.718459 716.911327 C 451.606793 715.695274 447.815567 714.47922 443.309016 713.2274 C 443.309016 713.2274 492.022689 713.2274 436.871086 702.962478 C 381.755249 692.697556 417.664594 685.007806 421.491585 681.180814 C 425.354344 677.318056 394.595343 670.915891 386.905593 670.915891 C 379.215843 670.915891 429.074037 655.679456 366.375749 643.983883 C 311.259912 633.718961 418.95218 641.51601 343.306498 613.224882 C 343.306498 613.224882 326.675178 605.320535 353.57142 588.868046 C 376.640671 574.776132 306.359931 589.189942 352.283834 563.223623 C 381.755249 546.556537 320.201481 547.379161 352.283834 528.601865 C 378.57205 513.222364 348.421076 515.797537 335.616748 502.993208 C 322.776654 490.153114 386.154501 493.193248 307.397153 472.198442 C 268.948403 461.969286 356.718853 470.982388 307.397153 446.589785 C 269.663728 427.884021 370.238507 436.324863 311.259912 415.795019 C 302.711771 412.826417 290.622768 411.002337 284.971696 403.741782 C 288.691389 402.919158 293.19794 403.312587 296.9534 402.025001 C 323.062784 393.011898 280.250547 369.656518 315.086903 369.656518 C 315.086903 369.656518 338.19192 369.656518 315.086903 346.587267 C 292.017653 323.518017 341.375119 353.633225 321.524834 333.782939 C 290.086274 302.344379 364.444369 322.874224 333.041576 291.435664 C 301.638782 260.068637 338.19192 276.056164 338.19192 276.056164 C 338.19192 276.056164 365.231228 268.11605 329.214584 251.735094 C 326.603646 250.554807 324.243071 249.481818 322.705121 247.335841 C 333.649603 243.508849 346.990425 247.586205 339.121843 232.957797 C 334.364928 224.123526 325.60219 227.485556 334.794124 219.223546 C 338.978778 215.43232 348.170712 214.860059 353.321056 212.177588 C 366.483047 205.310463 367.770633 198.801 352.283834 192.756499 C 352.283834 192.756499 342.018912 188.929507 353.57142 177.376998 C 365.088162 165.82449 334.329162 165.82449 363.800576 153.020162 C 393.307757 140.180067 336.904334 142.75524 390.732585 123.512981 C 390.732585 123.512981 406.219384 131.739225 397.134749 111.996239 C 388.050114 92.253253 413.193809 119.042196 447.136008 85.064231 " transform="matrix(0.109216,0,0,-0.109216,-0.518,81.806)"/>
<path style="fill:none;stroke-width:5;stroke-linecap:butt;stroke-linejoin:miter;stroke:rgb(13.730068%,12.159915%,12.54902%);stroke-opacity:1;stroke-miterlimit:4;" d="M 10.000538 294.010836 C 20.408525 301.629054 30.816513 309.247271 41.2245 316.829723 C 59.858732 330.456675 80.925071 340.757364 91.011161 362.539028 C 101.490681 385.107551 106.49796 410.823506 111.254876 435.037277 C 111.254876 435.037277 123.558476 504.853055 174.096229 545.304717 C 218.947144 581.178296 213.832566 595.27021 213.832566 595.27021 C 221.844212 601.886972 225.313542 594.590651 226.779959 587.29433 C 235.685763 542.550714 197.237012 517.156655 170.233471 490.153114 L 279.07026 564.79734 " transform="matrix(0.109216,0,0,-0.109216,-0.518,81.806)"/>
<path style="fill:none;stroke-width:5;stroke-linecap:butt;stroke-linejoin:miter;stroke:rgb(13.730068%,12.159915%,12.54902%);stroke-opacity:1;stroke-miterlimit:4;" d="M 268.805338 511.112154 L 248.454324 495.732654 " transform="matrix(0.109216,0,0,-0.109216,-0.518,81.806)"/>
<path style="fill:none;stroke-width:5;stroke-linecap:butt;stroke-linejoin:miter;stroke:rgb(13.730068%,12.159915%,12.54902%);stroke-opacity:1;stroke-miterlimit:4;" d="M 250.99373 459.394113 L 262.224342 464.32986 " transform="matrix(0.109216,0,0,-0.109216,-0.518,81.806)"/>
<path style="fill:none;stroke-width:5;stroke-linecap:butt;stroke-linejoin:miter;stroke:rgb(13.730068%,12.159915%,12.54902%);stroke-opacity:1;stroke-miterlimit:4;" d="M 239.476988 422.232949 L 247.166738 429.922699 " transform="matrix(0.109216,0,0,-0.109216,-0.518,81.806)"/>
<path style="fill:none;stroke-width:5;stroke-linecap:butt;stroke-linejoin:miter;stroke:rgb(13.730068%,12.159915%,12.54902%);stroke-opacity:1;stroke-miterlimit:4;" d="M 265.157177 331.529664 C 254.534592 313.360394 233.146357 304.597655 213.474903 300.556066 C 195.877893 296.979438 183.753125 293.760472 167.908663 285.212332 C 129.352613 264.503656 94.695088 236.427126 63.828789 205.560827 " transform="matrix(0.109216,0,0,-0.109216,-0.518,81.806)"/>
<path style="fill:none;stroke-width:5;stroke-linecap:butt;stroke-linejoin:miter;stroke:rgb(13.730068%,12.159915%,12.54902%);stroke-opacity:1;stroke-miterlimit:4;" d="M 156.141557 391.438182 C 156.320388 402.382664 160.934238 412.89795 166.728375 421.982585 C 172.057551 430.423427 177.637091 435.859901 185.148009 441.54674 C 191.943603 446.697084 202.280057 450.273712 202.280057 460.6817 " transform="matrix(0.109216,0,0,-0.109216,-0.518,81.806)"/>
<path style="fill:none;stroke-width:5;stroke-linecap:butt;stroke-linejoin:miter;stroke:rgb(13.730068%,12.159915%,12.54902%);stroke-opacity:1;stroke-miterlimit:4;" d="M 198.453065 441.439441 C 198.453065 441.439441 206.142816 442.727027 206.142816 419.657777 C 206.142816 396.588526 217.659558 396.588526 217.659558 396.588526 " transform="matrix(0.109216,0,0,-0.109216,-0.518,81.806)"/>
<path style="fill:none;stroke-width:5;stroke-linecap:butt;stroke-linejoin:miter;stroke:rgb(13.730068%,12.159915%,12.54902%);stroke-opacity:1;stroke-miterlimit:4;" d="M 152.314565 376.058682 C 152.314565 376.058682 145.232841 367.725139 152.314565 360.679182 " transform="matrix(0.109216,0,0,-0.109216,-0.518,81.806)"/>
<path style="fill:none;stroke-width:5;stroke-linecap:butt;stroke-linejoin:miter;stroke:rgb(13.730068%,12.159915%,12.54902%);stroke-opacity:1;stroke-miterlimit:4;" d="M 250.957964 412.003793 L 260.149898 412.003793 " transform="matrix(0.109216,0,0,-0.109216,-0.518,81.806)"/>
<path style="fill:none;stroke-width:5;stroke-linecap:butt;stroke-linejoin:miter;stroke:rgb(13.730068%,12.159915%,12.54902%);stroke-opacity:1;stroke-miterlimit:4;" d="M 253.568902 382.496612 L 260.829457 382.496612 " transform="matrix(0.109216,0,0,-0.109216,-0.518,81.806)"/>
<path style="fill:none;stroke-width:5;stroke-linecap:butt;stroke-linejoin:miter;stroke:rgb(13.730068%,12.159915%,12.54902%);stroke-opacity:1;stroke-miterlimit:4;" d="M 2197.859631 372.088625 L 2197.859631 84.170074 L 2139.524829 84.170074 L 2139.524829 354.563148 C 2139.524829 354.563148 2134.946745 369.978414 2152.865652 359.570427 C 2173.502795 347.588723 2188.703464 378.741153 2188.703464 378.741153 C 2188.703464 378.741153 2197.859631 386.252072 2197.859631 372.088625 Z M 2197.859631 372.088625 " transform="matrix(0.109216,0,0,-0.109216,-0.518,81.806)"/>
<path style="fill:none;stroke-width:5;stroke-linecap:butt;stroke-linejoin:round;stroke:rgb(13.730068%,12.159915%,12.54902%);stroke-opacity:1;stroke-miterlimit:4;" d="M 2152.865652 359.570427 C 2152.865652 359.570427 2156.227682 383.748432 2138.702205 412.89795 C 2134.088355 420.5877 2130.547493 427.812489 2130.154064 437.075955 C 2129.474505 454.029172 2141.527741 468.550281 2151.649598 480.889648 C 2157.157605 487.577942 2162.379482 492.549455 2165.634213 500.739933 C 2167.458294 505.246484 2174.575783 522.59313 2171.213753 527.063915 C 2179.869193 515.511406 2182.480131 498.701255 2182.337066 484.71664 C 2182.158235 470.088231 2176.256798 456.532811 2176.399864 442.047468 C 2176.542929 426.775266 2181.299844 411.968027 2181.371376 396.731592 C 2181.442909 380.422168 2173.145132 356.887956 2152.865652 359.570427 Z M 2152.865652 359.570427 " transform="matrix(0.109216,0,0,-0.109216,-0.518,81.806)"/>
<path style=" stroke:none;fill-rule:nonzero;fill:rgb(13.730068%,12.159915%,12.54902%);fill-opacity:1;" d="M 233.421875 42.378906 C 233.375 42.273438 233.320313 42.171875 233.257813 42.078125 C 232.523438 42.273438 233.035156 43.125 233.035156 43.847656 C 233.035156 45.71875 232.46875 45.152344 232.46875 45.152344 C 232.46875 45.152344 232.359375 45.71875 232.359375 46.085938 C 232.359375 46.449219 232.359375 46.449219 232.359375 46.996094 C 232.359375 47.539063 231.628906 47.175781 231.992188 47.902344 C 232.359375 48.632813 232.359375 48.632813 232.359375 48.632813 C 232.359375 48.632813 231.902344 48.542969 231.902344 49.089844 C 231.902344 49.632813 232.632813 49.632813 232.265625 49.996094 C 231.902344 50.363281 231.902344 50.363281 231.902344 50.363281 C 231.902344 50.363281 232.871094 51.417969 232.902344 51.453125 C 233.28125 51.867188 232.363281 53.179688 233.121094 53.441406 C 233.238281 53.792969 232.351563 54.914063 232.550781 55.011719 C 232.730469 55.097656 232.855469 56.761719 233.21875 55.308594 C 233.371094 54.710938 233.152344 53.996094 233.148438 53.386719 C 233.144531 51.589844 233.140625 49.792969 233.140625 47.996094 C 233.136719 46.359375 233.558594 44.8125 233.59375 43.21875 C 233.597656 42.929688 233.539063 42.640625 233.421875 42.378906 "/>
<path style="fill:none;stroke-width:5;stroke-linecap:butt;stroke-linejoin:miter;stroke:rgb(13.730068%,12.159915%,12.54902%);stroke-opacity:1;stroke-miterlimit:4;" d="M 1337.859437 221.655653 L 1461.07427 221.655653 " transform="matrix(0.109216,0,0,-0.109216,-0.518,81.806)"/>
<path style=" stroke:none;fill-rule:nonzero;fill:rgb(13.730068%,12.159915%,12.54902%);fill-opacity:1;" d="M 157.972656 59.164063 L 163.890625 57.578125 L 157.972656 55.992188 L 157.972656 59.164063 "/>
<path style=" stroke:none;fill-rule:nonzero;fill:rgb(13.730068%,12.159915%,12.54902%);fill-opacity:1;" d="M 148.921875 31.160156 C 148.921875 31.160156 148.875 31.929688 149.285156 31.929688 C 149.695313 31.929688 149.695313 32.660156 150.058594 32.296875 C 150.421875 31.929688 150.421875 31.703125 150.421875 32.160156 C 150.421875 32.613281 150.242188 33.070313 149.96875 33.070313 C 149.695313 33.070313 149.535156 33.226563 149.535156 33.226563 C 149.535156 33.226563 149.832031 33.84375 149.558594 34.117188 C 149.285156 34.390625 149.511719 34.730469 148.945313 34.730469 C 148.375 34.730469 149.226563 35.320313 149.226563 35.582031 C 149.226563 35.84375 148.421875 36.210938 148.054688 35.84375 C 147.691406 35.480469 148.011719 31.160156 148.921875 31.160156 "/>
<path style=" stroke:none;fill-rule:nonzero;fill:rgb(13.730068%,12.159915%,12.54902%);fill-opacity:1;" d="M 150.011719 30.429688 C 150.011719 30.429688 149.785156 29.519531 149.375 29.519531 C 148.964844 29.519531 149.21875 28.132813 149.695313 27.652344 C 150.171875 27.175781 150.832031 28.019531 150.832031 28.472656 C 150.832031 28.929688 150.398438 29.265625 149.875 28.746094 C 149.355469 28.226563 149.808594 28.949219 150.378906 29.519531 C 150.945313 30.089844 150.332031 30.429688 150.011719 30.429688 "/>
<path style=" stroke:none;fill-rule:nonzero;fill:rgb(13.730068%,12.159915%,12.54902%);fill-opacity:1;" d="M 152.515625 24.605469 C 152.515625 24.605469 152.421875 24.96875 152.878906 24.96875 C 153.335938 24.96875 152.695313 25.855469 152.449219 25.855469 C 152.199219 25.855469 152.332031 26.878906 152.515625 26.878906 C 152.699219 26.878906 152.515625 28.199219 152.105469 28.199219 C 151.699219 28.199219 150.695313 28.519531 151.605469 27.699219 C 151.605469 27.699219 151.265625 25.675781 151.789063 25.152344 C 152.3125 24.628906 152.515625 24.605469 152.515625 24.605469 "/>
<path style=" stroke:none;fill-rule:nonzero;fill:rgb(13.730068%,12.159915%,12.54902%);fill-opacity:1;" d="M 153.789063 24.515625 L 153.539063 24.765625 L 153.0625 24.765625 L 152.730469 24.433594 L 152.730469 23.96875 L 153.652344 23.96875 L 153.789063 24.515625 "/>
<path style=" stroke:none;fill-rule:nonzero;fill:rgb(13.730068%,12.159915%,12.54902%);fill-opacity:1;" d="M 154.792969 23.511719 L 155.746094 23.511719 L 155.835938 24.96875 L 157.203125 24.96875 L 157.203125 26.152344 C 157.203125 26.152344 156.339844 25.878906 156.066406 25.605469 C 155.792969 25.332031 154.929688 25.332031 154.929688 25.332031 L 154.929688 24.789063 L 155.292969 24.605469 L 154.996094 24.308594 L 154.746094 24.058594 L 154.792969 23.511719 "/>
<path style=" stroke:none;fill-rule:nonzero;fill:rgb(13.730068%,12.159915%,12.54902%);fill-opacity:1;" d="M 150.011719 27.109375 L 149.96875 26.652344 L 150.332031 26.652344 L 150.71875 27.039063 L 150.011719 27.109375 "/>
<path style=" stroke:none;fill-rule:nonzero;fill:rgb(13.730068%,12.159915%,12.54902%);fill-opacity:1;" d="M 156.566406 24.011719 L 157.292969 24.011719 C 157.292969 24.011719 157.886719 25.332031 158.160156 25.332031 C 158.433594 25.332031 158.796875 25.332031 158.796875 25.332031 L 158.796875 24.421875 L 157.929688 23.558594 L 157.292969 22.875 L 156.382813 22.875 L 156.566406 24.011719 "/>
<path style=" stroke:none;fill-rule:nonzero;fill:rgb(13.730068%,12.159915%,12.54902%);fill-opacity:1;" d="M 158.75 27.425781 L 158.75 26.972656 L 160.023438 26.972656 L 160.023438 26.425781 L 159.570313 26.105469 L 159.25 26.105469 L 158.863281 26.492188 L 158.160156 26.492188 L 157.738281 26.914063 L 158.023438 27.199219 L 158.75 27.425781 "/>
<path style=" stroke:none;fill-rule:nonzero;fill:rgb(13.730068%,12.159915%,12.54902%);fill-opacity:1;" d="M 160.707031 28.65625 L 160.320313 29.042969 L 160.34375 29.429688 L 160.660156 29.746094 L 161.6875 30.769531 C 161.738281 30.824219 161.71875 31.332031 161.660156 31.398438 C 161.496094 31.589844 161.054688 31.476563 160.84375 31.476563 L 159.546875 30.179688 L 159.546875 29.566406 C 159.546875 29.566406 159.683594 29.425781 159.691406 29.417969 C 159.929688 29.183594 159.378906 28.867188 159.402344 28.636719 C 159.417969 28.503906 159.707031 28.308594 159.804688 28.207031 L 159.804688 27.515625 L 160.027344 27.292969 L 160.253906 27.292969 L 160.753906 28.335938 L 160.707031 28.65625 "/>
<path style=" stroke:none;fill-rule:nonzero;fill:rgb(13.730068%,12.159915%,12.54902%);fill-opacity:1;" d="M 160.84375 33.113281 C 161.402344 33.019531 161.664063 33.910156 161.574219 34.3125 C 161.53125 34.523438 161.441406 34.582031 161.414063 34.835938 C 161.390625 35.015625 161.414063 35.207031 161.414063 35.390625 C 162.0625 35.222656 161.59375 35.890625 161.484375 36.15625 C 161.277344 36.679688 161.496094 37.609375 161.734375 38.09375 C 161.777344 38.183594 161.914063 38.222656 161.949219 38.316406 C 161.996094 38.433594 161.953125 38.660156 162.007813 38.746094 C 162.246094 39.128906 162.242188 38.734375 162.484375 38.917969 C 162.675781 39.070313 162.617188 39.246094 162.617188 39.484375 L 162.617188 39.894531 L 162.34375 39.894531 C 161.878906 40.175781 162.3125 40.445313 162.308594 40.769531 C 162.304688 41.289063 161.769531 40.941406 161.34375 40.941406 C 161.339844 40.941406 161.117188 40.941406 161.117188 40.941406 L 161.117188 39.394531 L 160.84375 39.394531 L 160.84375 38.484375 C 160.84375 38.484375 160.84375 38.015625 160.84375 37.945313 C 160.84375 37.75 160.886719 37.5 160.84375 37.304688 C 160.746094 36.882813 160.523438 36.769531 160.515625 36.324219 C 160.507813 35.761719 160.378906 35.167969 160.570313 34.617188 C 160.546875 34.191406 160.519531 33.765625 160.523438 33.34375 "/>
<path style=" stroke:none;fill-rule:nonzero;fill:rgb(13.730068%,12.159915%,12.54902%);fill-opacity:1;" d="M 147.917969 36.664063 C 148.058594 36.597656 148.371094 36.585938 148.566406 36.617188 C 148.980469 36.683594 148.808594 36.707031 149.066406 36.925781 C 149.289063 37.117188 149.597656 37.226563 149.695313 37.472656 C 149.875 37.9375 149.453125 38.113281 149.433594 38.484375 C 149.417969 38.695313 149.652344 39.074219 149.695313 39.347656 C 149.804688 40.042969 150.363281 40.539063 149.660156 41.132813 C 149.355469 41.390625 149.210938 41.386719 149.386719 41.792969 C 149.601563 42.285156 149.855469 42.058594 150.28125 42.226563 C 150.332031 42.574219 150.070313 42.847656 150.109375 43.210938 C 151.121094 43.230469 150.34375 43.800781 150.613281 44.398438 C 150.730469 44.660156 151.074219 44.753906 151.195313 45.046875 C 151.296875 45.292969 151.292969 45.519531 151.28125 45.804688 C 151.070313 45.851563 150.65625 45.714844 150.464844 45.628906 C 150.167969 45.492188 150.109375 45.15625 149.835938 45.027344 C 149.800781 44.375 149.460938 44.050781 149.332031 43.453125 C 149.203125 42.867188 148.539063 42.496094 148.65625 41.898438 C 148.707031 41.636719 149.023438 41.398438 149.015625 41.113281 C 149.003906 40.785156 148.785156 40.621094 148.832031 40.261719 C 148.925781 39.546875 148.824219 38.96875 148.777344 38.21875 C 148.625 38.078125 148.582031 37.648438 148.59375 37.394531 C 148.359375 37.3125 148.089844 37.355469 147.835938 37.339844 C 147.824219 37.125 147.777344 36.855469 147.917969 36.753906 "/>
<path style=" stroke:none;fill-rule:nonzero;fill:rgb(13.730068%,12.159915%,12.54902%);fill-opacity:1;" d="M 161.890625 43.398438 C 161.582031 43.320313 161.027344 42.761719 161.269531 42.394531 C 161.410156 42.1875 162.023438 42.1875 162.246094 42.175781 C 162.304688 42.476563 162.644531 42.757813 162.617188 42.988281 C 162.585938 43.257813 162.085938 43.371094 161.890625 43.445313 "/>
<path style=" stroke:none;fill-rule:nonzero;fill:rgb(13.730068%,12.159915%,12.54902%);fill-opacity:1;" d="M 161.160156 44.492188 C 160.785156 44.335938 160.710938 44.09375 160.523438 43.773438 C 160.429688 43.613281 159.925781 43.214844 159.929688 43.082031 C 159.941406 42.8125 160.59375 42.847656 160.800781 42.898438 C 161.128906 42.976563 161.277344 43.113281 161.261719 43.527344 C 161.621094 43.652344 162.050781 43.84375 161.878906 44.265625 C 161.726563 44.636719 161.386719 44.535156 161.027344 44.535156 "/>
<path style=" stroke:none;fill-rule:nonzero;fill:rgb(13.730068%,12.159915%,12.54902%);fill-opacity:1;" d="M 151.105469 46.675781 C 150.8125 46.574219 150.75 46.675781 150.542969 46.765625 C 150.527344 46.773438 150.03125 47.042969 150.023438 47.050781 C 149.5625 47.550781 150.289063 47.960938 150.777344 47.898438 C 150.964844 47.433594 151.195313 47.320313 151.195313 46.765625 "/>
<path style=" stroke:none;fill-rule:nonzero;fill:rgb(13.730068%,12.159915%,12.54902%);fill-opacity:1;" d="M 149.464844 47.222656 C 149.417969 46.859375 149.199219 46.414063 148.992188 46.140625 C 148.917969 46.042969 148.792969 46.066406 148.726563 45.949219 C 148.664063 45.832031 148.71875 45.710938 148.691406 45.585938 C 148.648438 45.371094 148.558594 45.027344 148.609375 44.816406 C 149.082031 44.765625 149.128906 44.863281 149.332031 45.175781 C 149.40625 45.292969 149.316406 45.425781 149.464844 45.539063 C 149.558594 45.613281 149.792969 45.5 149.910156 45.578125 C 150.191406 45.765625 150.269531 46.332031 150.136719 46.585938 C 150.042969 46.777344 149.714844 47.011719 149.601563 47.175781 "/>
<path style=" stroke:none;fill-rule:nonzero;fill:rgb(13.730068%,12.159915%,12.54902%);fill-opacity:1;" d="M 152.652344 50 C 152.363281 50.03125 152.054688 49.992188 152.097656 49.640625 C 151.785156 49.621094 151.5 49.789063 151.15625 49.765625 C 151.175781 49.175781 150.859375 48.5625 151.738281 48.742188 C 152.519531 48.898438 152.914063 49.261719 152.871094 50.039063 C 152.769531 50.042969 152.617188 50.070313 152.515625 50.042969 "/>
<path style=" stroke:none;fill-rule:nonzero;fill:rgb(13.730068%,12.159915%,12.54902%);fill-opacity:1;" d="M 155.199219 51.679688 C 155.199219 51.265625 155.148438 51.109375 155.472656 50.863281 C 155.722656 50.671875 156.050781 50.613281 156.367188 50.640625 C 156.542969 51.40625 155.792969 51.703125 155.199219 51.679688 C 155.1875 51.625 155.195313 51.742188 155.199219 51.679688 "/>
<path style=" stroke:none;fill-rule:nonzero;fill:rgb(13.730068%,12.159915%,12.54902%);fill-opacity:1;" d="M 154.246094 51.542969 C 153.546875 51.65625 152.855469 50.558594 153.746094 50.40625 C 154.109375 50.34375 154.480469 50.390625 154.609375 50.769531 C 154.726563 51.097656 154.617188 51.550781 154.246094 51.589844 "/>
<path style=" stroke:none;fill-rule:nonzero;fill:rgb(13.730068%,12.159915%,12.54902%);fill-opacity:1;" d="M 155.066406 49.953125 C 155.070313 49.765625 154.996094 49.574219 155.007813 49.394531 C 155.039063 49.042969 154.929688 49.21875 155.199219 49.042969 C 155.222656 49.027344 155.5625 48.949219 155.597656 48.941406 C 155.765625 48.898438 155.816406 48.722656 156.027344 48.859375 C 155.5 49.234375 155.816406 49.742188 155.558594 50.265625 C 155.339844 50.28125 155.1875 50.167969 155.066406 50 "/>
<path style=" stroke:none;fill-rule:nonzero;fill:rgb(13.730068%,12.159915%,12.54902%);fill-opacity:1;" d="M 157.429688 50.226563 C 157.566406 49.59375 156.710938 49.707031 156.609375 50.222656 C 156.519531 50.675781 156.726563 50.980469 157.125 50.691406 C 157.214844 50.625 157.402344 50.304688 157.476563 50.179688 "/>
<path style=" stroke:none;fill-rule:nonzero;fill:rgb(13.730068%,12.159915%,12.54902%);fill-opacity:1;" d="M 157.929688 47.996094 C 158.269531 47.84375 158.621094 48.007813 158.667969 48.398438 C 158.742188 48.382813 158.847656 48.425781 158.921875 48.410156 C 159.050781 48.59375 159.144531 48.808594 159.121094 49.035156 C 159.691406 49.078125 160.160156 48.644531 159.933594 48.039063 C 159.84375 47.804688 159.671875 47.75 159.613281 47.449219 C 159.570313 47.226563 159.542969 46.914063 159.679688 46.765625 C 160.28125 46.125 160.476563 47.230469 160.582031 47.585938 C 160.726563 48.0625 160.820313 48.605469 160.789063 49.125 C 160.585938 49.207031 160.304688 49.09375 160.113281 49.179688 C 159.828125 49.308594 159.945313 49.496094 159.855469 49.78125 C 159.71875 50.222656 159.238281 50.871094 158.761719 50.53125 C 158.632813 50.441406 158.390625 50.109375 158.296875 49.960938 C 158.074219 49.625 158.203125 49.445313 158.113281 49.042969 C 158.070313 48.84375 157.292969 47.980469 157.886719 47.949219 "/>
<path style=" stroke:none;fill-rule:nonzero;fill:rgb(13.730068%,12.159915%,12.54902%);fill-opacity:1;" d="M 160.890625 46.265625 C 160.882813 45.957031 161.109375 45.71875 161.109375 45.40625 C 160.890625 45.398438 160.660156 45.394531 160.441406 45.410156 C 160.464844 45.703125 160.03125 45.777344 160.125 46.050781 C 160.207031 46.285156 160.765625 46.371094 160.84375 46.265625 "/>
</g>
</g>
</g>
</svg>
