<?xml version="1.0" encoding="UTF-8"?>
<svg xmlns="http://www.w3.org/2000/svg" xmlns:xlink="http://www.w3.org/1999/xlink" width="188.9494225976888137pt" height="215.5710435100224563pt" viewBox="0 0 109.09 124.46" version="1.1">
<defs>
<clipPath id="clip1">
  <path d="M 49 108 L 65 108 L 65 124.460938 L 49 124.460938 Z M 49 108 "/>
</clipPath>
<clipPath id="clip2">
  <path d="M 48 108 L 66 108 L 66 124.460938 L 48 124.460938 Z M 48 108 "/>
</clipPath>
<clipPath id="clip3">
  <path d="M 92 74 L 109.089844 74 L 109.089844 92 L 92 92 Z M 92 74 "/>
</clipPath>
</defs>
<g id="surface1">
<path style="fill:none;stroke-width:7.08661;stroke-linecap:round;stroke-linejoin:round;stroke:rgb(0%,0%,0%);stroke-opacity:1;stroke-miterlimit:10;" d="M 159.453125 1137.4125 L 159.453125 542.139063 L 953.164062 542.139063 Z M 159.453125 1137.4125 " transform="matrix(0.1,0,0,-0.1,0,124.46)"/>
<path style="fill:none;stroke-width:7.08661;stroke-linecap:round;stroke-linejoin:round;stroke:rgb(0%,0%,0%);stroke-opacity:1;stroke-miterlimit:10;" d="M 159.453125 620.06875 C 159.453125 663.115625 124.53125 698.0375 81.484375 698.0375 C 38.4375 698.0375 3.554688 663.115625 3.554688 620.06875 C 3.554688 577.021875 38.4375 542.139063 81.484375 542.139063 C 124.53125 542.139063 159.453125 577.021875 159.453125 620.06875 Z M 159.453125 620.06875 " transform="matrix(0.1,0,0,-0.1,0,124.46)"/>
<path style="fill:none;stroke-width:7.08661;stroke-linecap:round;stroke-linejoin:round;stroke:rgb(0%,0%,0%);stroke-opacity:1;stroke-miterlimit:10;" d="M 159.453125 839.75625 C 159.453125 882.803125 124.53125 917.725 81.484375 917.725 C 38.4375 917.725 3.554688 882.803125 3.554688 839.75625 C 3.554688 796.709375 38.4375 761.826563 81.484375 761.826563 C 124.53125 761.826563 159.453125 796.709375 159.453125 839.75625 Z M 159.453125 839.75625 " transform="matrix(0.1,0,0,-0.1,0,124.46)"/>
<path style="fill:none;stroke-width:7.08661;stroke-linecap:round;stroke-linejoin:round;stroke:rgb(0%,0%,0%);stroke-opacity:1;stroke-miterlimit:10;" d="M 159.453125 1059.44375 C 159.453125 1102.490625 124.53125 1137.4125 81.484375 1137.4125 C 38.4375 1137.4125 3.554688 1102.490625 3.554688 1059.44375 C 3.554688 1016.396875 38.4375 981.514063 81.484375 981.514063 C 124.53125 981.514063 159.453125 1016.396875 159.453125 1059.44375 Z M 159.453125 1059.44375 " transform="matrix(0.1,0,0,-0.1,0,124.46)"/>
<path style="fill:none;stroke-width:7.08661;stroke-linecap:round;stroke-linejoin:round;stroke:rgb(0%,0%,0%);stroke-opacity:1;stroke-miterlimit:10;" d="M 81.484375 698.0375 L 81.484375 761.826563 " transform="matrix(0.1,0,0,-0.1,0,124.46)"/>
<path style="fill:none;stroke-width:7.08661;stroke-linecap:round;stroke-linejoin:round;stroke:rgb(0%,0%,0%);stroke-opacity:1;stroke-miterlimit:10;" d="M 81.484375 981.514063 L 81.484375 917.725 " transform="matrix(0.1,0,0,-0.1,0,124.46)"/>
<path style="fill:none;stroke-width:7.08661;stroke-linecap:round;stroke-linejoin:round;stroke:rgb(0%,0%,0%);stroke-opacity:1;stroke-miterlimit:10;" d="M 1057.109375 620.06875 C 1057.109375 663.115625 1022.1875 698.0375 979.140625 698.0375 C 936.09375 698.0375 901.171875 663.115625 901.171875 620.06875 C 901.171875 577.021875 936.09375 542.139063 979.140625 542.139063 C 1022.1875 542.139063 1057.109375 577.021875 1057.109375 620.06875 Z M 1057.109375 620.06875 " transform="matrix(0.1,0,0,-0.1,0,124.46)"/>
<path style="fill:none;stroke-width:7.08661;stroke-linecap:round;stroke-linejoin:round;stroke:rgb(0%,0%,0%);stroke-opacity:1;stroke-miterlimit:10;" d="M 876.054688 755.85 C 876.054688 798.896875 841.171875 833.779688 798.125 833.779688 C 755.078125 833.779688 720.15625 798.896875 720.15625 755.85 C 720.15625 712.803125 755.078125 677.88125 798.125 677.88125 C 841.171875 677.88125 876.054688 712.803125 876.054688 755.85 Z M 876.054688 755.85 " transform="matrix(0.1,0,0,-0.1,0,124.46)"/>
<path style="fill:none;stroke-width:7.08661;stroke-linecap:round;stroke-linejoin:round;stroke:rgb(0%,0%,0%);stroke-opacity:1;stroke-miterlimit:10;" d="M 860.46875 709.092188 L 916.757812 666.865625 " transform="matrix(0.1,0,0,-0.1,0,124.46)"/>
<path style="fill:none;stroke-width:7.08661;stroke-linecap:round;stroke-linejoin:round;stroke:rgb(0%,0%,0%);stroke-opacity:1;stroke-miterlimit:10;" d="M 695.039062 891.592188 C 695.039062 934.678125 660.15625 969.560938 617.109375 969.560938 C 574.023438 969.560938 539.140625 934.678125 539.140625 891.592188 C 539.140625 848.545313 574.023438 813.6625 617.109375 813.6625 C 660.15625 813.6625 695.039062 848.545313 695.039062 891.592188 Z M 695.039062 891.592188 " transform="matrix(0.1,0,0,-0.1,0,124.46)"/>
<path style="fill:none;stroke-width:7.08661;stroke-linecap:round;stroke-linejoin:round;stroke:rgb(0%,0%,0%);stroke-opacity:1;stroke-miterlimit:10;" d="M 679.453125 844.834375 L 735.742188 802.607813 " transform="matrix(0.1,0,0,-0.1,0,124.46)"/>
<path style="fill:none;stroke-width:7.08661;stroke-linecap:round;stroke-linejoin:round;stroke:rgb(0%,0%,0%);stroke-opacity:1;stroke-miterlimit:10;" d="M 514.023438 1027.373438 C 514.023438 1070.420313 479.140625 1105.342188 436.054688 1105.342188 C 393.007812 1105.342188 358.125 1070.420313 358.125 1027.373438 C 358.125 984.326563 393.007812 949.404688 436.054688 949.404688 C 479.140625 949.404688 514.023438 984.326563 514.023438 1027.373438 Z M 514.023438 1027.373438 " transform="matrix(0.1,0,0,-0.1,0,124.46)"/>
<path style="fill:none;stroke-width:7.08661;stroke-linecap:round;stroke-linejoin:round;stroke:rgb(0%,0%,0%);stroke-opacity:1;stroke-miterlimit:10;" d="M 498.4375 980.615625 L 554.726562 938.389063 " transform="matrix(0.1,0,0,-0.1,0,124.46)"/>
<path style="fill:none;stroke-width:7.08661;stroke-linecap:round;stroke-linejoin:round;stroke:rgb(0%,0%,0%);stroke-opacity:1;stroke-miterlimit:10;" d="M 333.007812 1163.154688 C 333.007812 1206.201563 298.085938 1241.084375 255.039062 1241.084375 C 211.992188 1241.084375 177.109375 1206.201563 177.109375 1163.154688 C 177.109375 1120.107813 211.992188 1085.185938 255.039062 1085.185938 C 298.085938 1085.185938 333.007812 1120.107813 333.007812 1163.154688 Z M 333.007812 1163.154688 " transform="matrix(0.1,0,0,-0.1,0,124.46)"/>
<path style="fill:none;stroke-width:7.08661;stroke-linecap:round;stroke-linejoin:round;stroke:rgb(0%,0%,0%);stroke-opacity:1;stroke-miterlimit:10;" d="M 317.421875 1116.357813 L 373.710938 1074.13125 " transform="matrix(0.1,0,0,-0.1,0,124.46)"/>
<path style="fill:none;stroke-width:7.08661;stroke-linecap:round;stroke-linejoin:round;stroke:rgb(0%,0%,0%);stroke-opacity:1;stroke-miterlimit:10;" d="M 192.695312 1209.9125 C 147.8125 1243.584375 81.484375 1203.6625 81.484375 1137.4125 " transform="matrix(0.1,0,0,-0.1,0,124.46)"/>
<path style="fill:none;stroke-width:7.08661;stroke-linecap:round;stroke-linejoin:round;stroke:rgb(0%,0%,0%);stroke-opacity:1;stroke-miterlimit:10;" d="M 94.492188 485.420313 C 99.335938 475.810938 104.296875 466.240625 109.375 456.748438 C 114.257812 447.607813 119.21875 438.50625 124.257812 429.44375 C 129.140625 420.771875 134.101562 412.139063 139.140625 403.545313 C 144.023438 395.303125 148.984375 387.1 154.0625 378.935938 C 158.90625 371.123438 163.867188 363.310938 168.945312 355.615625 C 173.789062 348.19375 178.75 340.810938 183.828125 333.50625 C 188.671875 326.435938 193.632812 319.44375 198.710938 312.529688 C 203.59375 305.889063 208.554688 299.248438 213.59375 292.725 C 218.476562 286.435938 223.4375 280.185938 228.476562 274.014063 C 233.359375 268.0375 238.320312 262.139063 243.359375 256.31875 C 248.242188 250.69375 253.203125 245.146875 258.28125 239.678125 C 263.164062 234.365625 268.085938 229.13125 273.164062 224.014063 C 278.046875 219.014063 283.007812 214.092188 288.046875 209.2875 C 292.929688 204.6 297.890625 199.990625 302.929688 195.498438 C 307.8125 191.084375 312.773438 186.7875 317.8125 182.56875 C 322.695312 178.50625 327.65625 174.482813 332.695312 170.5375 C 337.617188 166.748438 342.578125 162.998438 347.578125 159.365625 C 352.5 155.810938 357.460938 152.373438 362.460938 149.014063 C 367.382812 145.732813 372.34375 142.529688 377.382812 139.44375 C 382.265625 136.435938 387.226562 133.50625 392.265625 130.654688 C 397.148438 127.88125 402.148438 125.225 407.148438 122.646875 C 412.070312 120.146875 417.03125 117.725 422.03125 115.38125 C 426.953125 113.115625 431.914062 110.928125 436.914062 108.857813 C 441.835938 106.826563 446.796875 104.873438 451.796875 103.076563 C 456.71875 101.240625 461.679688 99.560938 466.679688 97.959375 C 471.640625 96.396875 476.601562 94.9125 481.601562 93.584375 C 486.523438 92.217188 491.484375 91.00625 496.484375 89.873438 C 501.40625 88.740625 506.367188 87.725 511.367188 86.826563 C 516.328125 85.967188 521.289062 85.185938 526.25 84.482813 C 531.210938 83.81875 536.171875 83.271875 541.132812 82.842188 C 546.09375 82.373438 551.054688 82.060938 556.015625 81.826563 C 560.976562 81.592188 565.9375 81.514063 570.898438 81.514063 C 575.898438 81.514063 580.859375 81.592188 585.820312 81.826563 C 590.78125 82.060938 595.742188 82.373438 600.703125 82.842188 C 605.664062 83.271875 610.625 83.81875 615.585938 84.482813 C 620.546875 85.185938 625.507812 85.967188 630.46875 86.826563 C 635.46875 87.725 640.429688 88.740625 645.351562 89.873438 C 650.351562 91.00625 655.3125 92.217188 660.234375 93.584375 C 665.234375 94.9125 670.195312 96.396875 675.117188 97.959375 C 680.117188 99.560938 685.117188 101.240625 690.039062 103.076563 C 695.039062 104.873438 700 106.826563 704.921875 108.857813 C 709.921875 110.928125 714.882812 113.115625 719.804688 115.38125 C 724.804688 117.725 729.765625 120.146875 734.6875 122.646875 C 739.6875 125.225 744.648438 127.88125 749.570312 130.654688 C 754.609375 133.50625 759.570312 136.435938 764.453125 139.44375 C 769.492188 142.529688 774.453125 145.732813 779.335938 149.014063 C 784.375 152.373438 789.335938 155.810938 794.257812 159.365625 C 799.257812 162.998438 804.21875 166.748438 809.140625 170.5375 C 814.140625 174.482813 819.140625 178.50625 824.023438 182.56875 C 829.0625 186.7875 834.023438 191.084375 838.90625 195.498438 C 843.945312 199.990625 848.90625 204.6 853.789062 209.2875 C 858.828125 214.092188 863.789062 219.014063 868.671875 224.014063 C 873.710938 229.13125 878.671875 234.365625 883.554688 239.678125 C 888.632812 245.146875 893.59375 250.69375 898.476562 256.31875 C 903.515625 262.139063 908.476562 268.0375 913.359375 274.014063 C 918.398438 280.185938 923.359375 286.435938 928.242188 292.725 C 933.28125 299.248438 938.242188 305.889063 943.125 312.529688 C 948.164062 319.44375 953.125 326.435938 958.007812 333.50625 C 963.085938 340.810938 968.007812 348.19375 972.890625 355.615625 C 977.96875 363.310938 982.929688 371.123438 987.773438 378.935938 C 992.851562 387.1 997.8125 395.303125 1002.695312 403.545313 C 1007.734375 412.139063 1012.695312 420.771875 1017.578125 429.44375 C 1022.617188 438.50625 1027.578125 447.607813 1032.460938 456.748438 C 1037.539062 466.240625 1042.460938 475.810938 1047.34375 485.420313 " transform="matrix(0.1,0,0,-0.1,0,124.46)"/>
<path style=" stroke:none;fill-rule:nonzero;fill:rgb(100%,100%,100%);fill-opacity:1;" d="M 21.035156 82.949219 C 21.035156 78.644531 17.546875 75.152344 13.242188 75.152344 C 8.9375 75.152344 5.445312 78.644531 5.445312 82.949219 C 5.445312 87.253906 8.9375 90.742188 13.242188 90.742188 C 17.546875 90.742188 21.035156 87.253906 21.035156 82.949219 "/>
<path style="fill:none;stroke-width:7.08661;stroke-linecap:round;stroke-linejoin:round;stroke:rgb(0%,0%,0%);stroke-opacity:1;stroke-miterlimit:10;" d="M 210.351562 415.107813 C 210.351562 458.154688 175.46875 493.076563 132.421875 493.076563 C 89.375 493.076563 54.453125 458.154688 54.453125 415.107813 C 54.453125 372.060938 89.375 337.178125 132.421875 337.178125 C 175.46875 337.178125 210.351562 372.060938 210.351562 415.107813 Z M 210.351562 415.107813 " transform="matrix(0.1,0,0,-0.1,0,124.46)"/>
<path style=" stroke:none;fill-rule:nonzero;fill:rgb(100%,100%,100%);fill-opacity:1;" d="M 32.027344 98.703125 C 32.027344 94.398438 28.535156 90.910156 24.230469 90.910156 C 19.925781 90.910156 16.4375 94.398438 16.4375 98.703125 C 16.4375 103.011719 19.925781 106.5 24.230469 106.5 C 28.535156 106.5 32.027344 103.011719 32.027344 98.703125 "/>
<path style="fill:none;stroke-width:7.08661;stroke-linecap:round;stroke-linejoin:round;stroke:rgb(0%,0%,0%);stroke-opacity:1;stroke-miterlimit:10;" d="M 320.273438 257.56875 C 320.273438 300.615625 285.351562 335.498438 242.304688 335.498438 C 199.257812 335.498438 164.375 300.615625 164.375 257.56875 C 164.375 214.482813 199.257812 179.6 242.304688 179.6 C 285.351562 179.6 320.273438 214.482813 320.273438 257.56875 Z M 320.273438 257.56875 " transform="matrix(0.1,0,0,-0.1,0,124.46)"/>
<path style=" stroke:none;fill-rule:nonzero;fill:rgb(100%,100%,100%);fill-opacity:1;" d="M 46.585938 111.144531 C 46.585938 106.839844 43.09375 103.347656 38.789062 103.347656 C 34.484375 103.347656 30.996094 106.839844 30.996094 111.144531 C 30.996094 115.449219 34.484375 118.941406 38.789062 118.941406 C 43.09375 118.941406 46.585938 115.449219 46.585938 111.144531 "/>
<path style="fill:none;stroke-width:7.08661;stroke-linecap:round;stroke-linejoin:round;stroke:rgb(0%,0%,0%);stroke-opacity:1;stroke-miterlimit:10;" d="M 465.859375 133.154688 C 465.859375 176.201563 430.9375 211.123438 387.890625 211.123438 C 344.84375 211.123438 309.960938 176.201563 309.960938 133.154688 C 309.960938 90.107813 344.84375 55.185938 387.890625 55.185938 C 430.9375 55.185938 465.859375 90.107813 465.859375 133.154688 Z M 465.859375 133.154688 " transform="matrix(0.1,0,0,-0.1,0,124.46)"/>
<g clip-path="url(#clip1)" clip-rule="nonzero">
<path style=" stroke:none;fill-rule:nonzero;fill:rgb(100%,100%,100%);fill-opacity:1;" d="M 64.886719 116.308594 C 64.886719 112.003906 61.398438 108.515625 57.089844 108.515625 C 52.785156 108.515625 49.296875 112.003906 49.296875 116.308594 C 49.296875 120.617188 52.785156 124.105469 57.089844 124.105469 C 61.398438 124.105469 64.886719 120.617188 64.886719 116.308594 "/>
</g>
<g clip-path="url(#clip2)" clip-rule="nonzero">
<path style="fill:none;stroke-width:7.08661;stroke-linecap:round;stroke-linejoin:round;stroke:rgb(0%,0%,0%);stroke-opacity:1;stroke-miterlimit:10;" d="M 648.867188 81.514063 C 648.867188 124.560938 613.984375 159.44375 570.898438 159.44375 C 527.851562 159.44375 492.96875 124.560938 492.96875 81.514063 C 492.96875 38.428125 527.851562 3.545313 570.898438 3.545313 C 613.984375 3.545313 648.867188 38.428125 648.867188 81.514063 Z M 648.867188 81.514063 " transform="matrix(0.1,0,0,-0.1,0,124.46)"/>
</g>
<path style=" stroke:none;fill-rule:nonzero;fill:rgb(100%,100%,100%);fill-opacity:1;" d="M 83.1875 111.144531 C 83.1875 106.839844 79.699219 103.347656 75.394531 103.347656 C 71.085938 103.347656 67.597656 106.839844 67.597656 111.144531 C 67.597656 115.449219 71.085938 118.941406 75.394531 118.941406 C 79.699219 118.941406 83.1875 115.449219 83.1875 111.144531 "/>
<path style="fill:none;stroke-width:7.08661;stroke-linecap:round;stroke-linejoin:round;stroke:rgb(0%,0%,0%);stroke-opacity:1;stroke-miterlimit:10;" d="M 831.875 133.154688 C 831.875 176.201563 796.992188 211.123438 753.945312 211.123438 C 710.859375 211.123438 675.976562 176.201563 675.976562 133.154688 C 675.976562 90.107813 710.859375 55.185938 753.945312 55.185938 C 796.992188 55.185938 831.875 90.107813 831.875 133.154688 Z M 831.875 133.154688 " transform="matrix(0.1,0,0,-0.1,0,124.46)"/>
<path style=" stroke:none;fill-rule:nonzero;fill:rgb(100%,100%,100%);fill-opacity:1;" d="M 97.746094 98.703125 C 97.746094 94.398438 94.257812 90.910156 89.953125 90.910156 C 85.648438 90.910156 82.15625 94.398438 82.15625 98.703125 C 82.15625 103.011719 85.648438 106.5 89.953125 106.5 C 94.257812 106.5 97.746094 103.011719 97.746094 98.703125 "/>
<path style="fill:none;stroke-width:7.08661;stroke-linecap:round;stroke-linejoin:round;stroke:rgb(0%,0%,0%);stroke-opacity:1;stroke-miterlimit:10;" d="M 977.460938 257.56875 C 977.460938 300.615625 942.578125 335.498438 899.53125 335.498438 C 856.484375 335.498438 821.5625 300.615625 821.5625 257.56875 C 821.5625 214.482813 856.484375 179.6 899.53125 179.6 C 942.578125 179.6 977.460938 214.482813 977.460938 257.56875 Z M 977.460938 257.56875 " transform="matrix(0.1,0,0,-0.1,0,124.46)"/>
<path style=" stroke:none;fill-rule:nonzero;fill:rgb(100%,100%,100%);fill-opacity:1;" d="M 108.738281 82.949219 C 108.738281 78.644531 105.246094 75.152344 100.941406 75.152344 C 96.636719 75.152344 93.148438 78.644531 93.148438 82.949219 C 93.148438 87.253906 96.636719 90.742188 100.941406 90.742188 C 105.246094 90.742188 108.738281 87.253906 108.738281 82.949219 "/>
<g clip-path="url(#clip3)" clip-rule="nonzero">
<path style="fill:none;stroke-width:7.08661;stroke-linecap:round;stroke-linejoin:round;stroke:rgb(0%,0%,0%);stroke-opacity:1;stroke-miterlimit:10;" d="M 1087.382812 415.107813 C 1087.382812 458.154688 1052.460938 493.076563 1009.414062 493.076563 C 966.367188 493.076563 931.484375 458.154688 931.484375 415.107813 C 931.484375 372.060938 966.367188 337.178125 1009.414062 337.178125 C 1052.460938 337.178125 1087.382812 372.060938 1087.382812 415.107813 Z M 1087.382812 415.107813 " transform="matrix(0.1,0,0,-0.1,0,124.46)"/>
</g>
<path style="fill:none;stroke-width:7.08661;stroke-linecap:round;stroke-linejoin:round;stroke:rgb(0%,0%,0%);stroke-opacity:1;stroke-miterlimit:10;" d="M 81.484375 542.139063 C 81.484375 522.490625 85.625 502.959375 94.492188 485.420313 " transform="matrix(0.1,0,0,-0.1,0,124.46)"/>
<path style="fill:none;stroke-width:7.08661;stroke-linecap:round;stroke-linejoin:round;stroke:rgb(0%,0%,0%);stroke-opacity:1;stroke-miterlimit:10;" d="M 1047.34375 485.420313 C 1062.96875 516.31875 1067.265625 553.975 1041.484375 573.310938 " transform="matrix(0.1,0,0,-0.1,0,124.46)"/>
</g>
</svg>
