<?xml version="1.0" encoding="UTF-8"?>
<svg xmlns="http://www.w3.org/2000/svg" xmlns:xlink="http://www.w3.org/1999/xlink" width="247.66pt" height="168.17pt" viewBox="0 0 247.66 168.17" version="1.1">
<g id="surface1">
<path style=" stroke:none;fill-rule:nonzero;fill:rgb(100%,100%,100%);fill-opacity:1;" d="M 57.621094 78.484375 L 64.292969 78.484375 L 64.292969 62 L 57.621094 62 L 57.621094 78.484375 "/>
<path style=" stroke:none;fill-rule:nonzero;fill:rgb(28.556824%,27.256775%,27.580261%);fill-opacity:1;" d="M 57.972656 78.132812 L 63.9375 78.132812 L 63.9375 62.351562 L 57.972656 62.351562 Z M 64.648438 78.839844 L 57.265625 78.839844 L 57.265625 61.644531 L 64.648438 61.644531 L 64.648438 78.839844 "/>
<path style=" stroke:none;fill-rule:nonzero;fill:rgb(100%,100%,100%);fill-opacity:1;" d="M 57.621094 114.605469 L 64.292969 114.605469 L 64.292969 98.117188 L 57.621094 98.117188 L 57.621094 114.605469 "/>
<path style=" stroke:none;fill-rule:nonzero;fill:rgb(28.556824%,27.256775%,27.580261%);fill-opacity:1;" d="M 57.972656 114.25 L 63.9375 114.25 L 63.9375 98.46875 L 57.972656 98.46875 Z M 64.648438 114.957031 L 57.265625 114.957031 L 57.265625 97.761719 L 64.648438 97.761719 L 64.648438 114.957031 "/>
<path style=" stroke:none;fill-rule:nonzero;fill:rgb(100%,100%,100%);fill-opacity:1;" d="M 186.847656 78.484375 L 193.523438 78.484375 L 193.523438 62 L 186.847656 62 L 186.847656 78.484375 "/>
<path style=" stroke:none;fill-rule:nonzero;fill:rgb(28.556824%,27.256775%,27.580261%);fill-opacity:1;" d="M 187.203125 78.132812 L 193.167969 78.132812 L 193.167969 62.351562 L 187.203125 62.351562 Z M 193.878906 78.839844 L 186.496094 78.839844 L 186.496094 61.644531 L 193.878906 61.644531 L 193.878906 78.839844 "/>
<path style=" stroke:none;fill-rule:nonzero;fill:rgb(100%,100%,100%);fill-opacity:1;" d="M 186.847656 114.601562 L 193.523438 114.601562 L 193.523438 98.113281 L 186.847656 98.113281 L 186.847656 114.601562 "/>
<path style=" stroke:none;fill-rule:nonzero;fill:rgb(28.556824%,27.256775%,27.580261%);fill-opacity:1;" d="M 187.203125 114.25 L 193.167969 114.25 L 193.167969 98.46875 L 187.203125 98.46875 Z M 193.878906 114.957031 L 186.496094 114.957031 L 186.496094 97.761719 L 193.878906 97.761719 L 193.878906 114.957031 "/>
<path style=" stroke:none;fill-rule:nonzero;fill:rgb(100%,100%,100%);fill-opacity:1;" d="M 53.683594 94.679688 L 197.460938 94.679688 L 197.460938 81.921875 L 53.683594 81.921875 L 53.683594 94.679688 "/>
<path style=" stroke:none;fill-rule:nonzero;fill:rgb(28.556824%,27.256775%,27.580261%);fill-opacity:1;" d="M 54.039062 94.328125 L 197.105469 94.328125 L 197.105469 82.277344 L 54.039062 82.277344 Z M 197.8125 95.035156 L 53.332031 95.035156 L 53.332031 81.570312 L 197.8125 81.570312 L 197.8125 95.035156 "/>
<path style=" stroke:none;fill-rule:nonzero;fill:rgb(100%,100%,100%);fill-opacity:1;" d="M 120.300781 100.515625 L 106.996094 76.261719 L 113.585938 72.644531 L 126.886719 96.898438 "/>
<path style=" stroke:none;fill-rule:nonzero;fill:rgb(28.556824%,27.256775%,27.580261%);fill-opacity:1;" d="M 107.476562 76.402344 L 120.441406 100.035156 L 126.40625 96.761719 L 113.445312 73.128906 Z M 120.15625 100.996094 L 106.515625 76.121094 L 113.726562 72.167969 L 127.367188 97.039062 L 120.15625 100.996094 "/>
<path style=" stroke:none;fill-rule:nonzero;fill:rgb(100%,100%,100%);fill-opacity:1;" d="M 157.316406 152.9375 L 88.660156 26.617188 L 99.867188 20.523438 L 168.527344 146.847656 "/>
<path style=" stroke:none;fill-rule:nonzero;fill:rgb(28.556824%,27.256775%,27.580261%);fill-opacity:1;" d="M 89.140625 26.757812 L 157.460938 152.457031 L 168.046875 146.703125 L 99.726562 21.003906 Z M 157.175781 153.417969 L 157.007812 153.105469 L 88.179688 26.476562 L 100.011719 20.046875 L 100.179688 20.355469 L 169.007812 146.988281 L 157.175781 153.417969 "/>
<path style=" stroke:none;fill-rule:nonzero;fill:rgb(28.556824%,27.256775%,27.580261%);fill-opacity:1;" d="M 123.089844 84.691406 C 123.089844 86.253906 121.820312 87.527344 120.253906 87.527344 C 118.6875 87.527344 117.417969 86.253906 117.417969 84.691406 C 117.417969 83.125 118.6875 81.855469 120.253906 81.855469 C 121.820312 81.855469 123.089844 83.125 123.089844 84.691406 "/>
<path style=" stroke:none;fill-rule:nonzero;fill:rgb(28.556824%,27.256775%,27.580261%);fill-opacity:1;" d="M 47.164062 126.6875 L 46.128906 124.832031 L 119.734375 83.761719 L 120.773438 85.621094 L 47.164062 126.6875 "/>
<path style=" stroke:none;fill-rule:nonzero;fill:rgb(28.556824%,27.256775%,27.580261%);fill-opacity:1;" d="M 47.785156 125.125 L 52.46875 127.769531 L 52.378906 127.9375 L 44.386719 129 C 41.828125 129.777344 39.269531 130.550781 36.710938 131.320312 C 38.707031 129.546875 40.707031 127.769531 42.703125 125.992188 L 47.789062 119.730469 L 47.964844 119.726562 "/>
<path style=" stroke:none;fill-rule:nonzero;fill:rgb(13.729858%,12.159729%,12.548828%);fill-opacity:1;" d="M 30.480469 139.621094 L 27.183594 139.621094 C 27.875 138.292969 28.453125 136.34375 28.453125 134.851562 C 28.453125 133.308594 28.023438 131.8125 26.539062 131.8125 C 25.054688 131.8125 24.625 133.308594 24.625 134.851562 C 24.625 136.34375 25.203125 138.292969 25.894531 139.621094 L 22.597656 139.621094 L 21.804688 137.285156 L 22.210938 137.285156 L 22.527344 138.214844 L 24.714844 138.214844 C 24.839844 138.214844 24.875 138.167969 24.875 138.113281 C 24.875 138.054688 24.839844 138.011719 24.726562 137.953125 C 24.046875 137.613281 22.609375 136.980469 22.609375 134.851562 C 22.609375 132.914062 24.195312 131.472656 26.539062 131.472656 C 28.886719 131.472656 30.472656 132.914062 30.472656 134.851562 C 30.472656 136.980469 29.03125 137.613281 28.351562 137.953125 C 28.238281 138.011719 28.207031 138.054688 28.207031 138.113281 C 28.207031 138.167969 28.238281 138.214844 28.363281 138.214844 L 30.550781 138.214844 L 30.867188 137.285156 L 31.277344 137.285156 L 30.480469 139.621094 "/>
</g>
</svg>
