<?xml version="1.0" encoding="UTF-8"?>
<svg xmlns="http://www.w3.org/2000/svg" xmlns:xlink="http://www.w3.org/1999/xlink" width="336pt" height="208pt" viewBox="0 0 168 104" version="1.1">
<g id="surface0">
<path style=" stroke:none;fill-rule:nonzero;fill:rgb(13.730068%,12.159915%,12.54902%);fill-opacity:1;" d="M 125.363281 48.113281 L 127.664063 48.113281 C 128.09375 48.113281 128.445313 47.765625 128.445313 47.335938 L 128.445313 37.171875 C 128.445313 36.746094 128.09375 36.394531 127.664063 36.394531 L 125.363281 36.394531 C 125.363281 36.394531 124.976563 36.347656 124.976563 36.785156 L 124.976563 47.726563 C 124.976563 47.726563 124.929688 48.113281 125.363281 48.113281 "/>
<path style=" stroke:none;fill-rule:nonzero;fill:rgb(100%,100%,100%);fill-opacity:1;" d="M 125.804688 40.664063 L 127.617188 40.664063 L 127.617188 39.917969 L 125.804688 39.917969 L 125.804688 40.664063 Z M 125.804688 40.664063 "/>
<path style=" stroke:none;fill-rule:nonzero;fill:rgb(100%,100%,100%);fill-opacity:1;" d="M 125.804688 39.199219 L 127.617188 39.199219 L 127.617188 38.449219 L 125.804688 38.449219 L 125.804688 39.199219 Z M 125.804688 39.199219 "/>
<path style=" stroke:none;fill-rule:nonzero;fill:rgb(100%,100%,100%);fill-opacity:1;" d="M 125.804688 42.15625 L 127.617188 42.15625 L 127.617188 41.410156 L 125.804688 41.410156 L 125.804688 42.15625 Z M 125.804688 42.15625 "/>
<path style=" stroke:none;fill-rule:nonzero;fill:rgb(100%,100%,100%);fill-opacity:1;" d="M 125.804688 43.644531 L 127.617188 43.644531 L 127.617188 42.898438 L 125.804688 42.898438 L 125.804688 43.644531 Z M 125.804688 43.644531 "/>
<path style=" stroke:none;fill-rule:nonzero;fill:rgb(100%,100%,100%);fill-opacity:1;" d="M 125.804688 45.136719 L 127.617188 45.136719 L 127.617188 44.386719 L 125.804688 44.386719 L 125.804688 45.136719 Z M 125.804688 45.136719 "/>
<path style=" stroke:none;fill-rule:nonzero;fill:rgb(100%,100%,100%);fill-opacity:1;" d="M 125.804688 46.625 L 127.617188 46.625 L 127.617188 45.878906 L 125.804688 45.878906 L 125.804688 46.625 Z M 125.804688 46.625 "/>
<path style="fill:none;stroke-width:5;stroke-linecap:butt;stroke-linejoin:miter;stroke:rgb(13.730068%,12.159915%,12.54902%);stroke-opacity:1;stroke-miterlimit:4;" d="M 1046.328125 90.507813 C 1044.882813 48.203125 917.695313 17.070313 762.226563 20.976563 C 606.757813 24.84375 481.875 62.265625 483.320313 104.53125 C 484.726563 146.796875 611.914063 177.890625 767.382813 174.023438 C 922.890625 170.15625 1047.734375 132.773438 1046.328125 90.507813 Z M 1046.328125 90.507813 " transform="matrix(0.1,0,0,-0.1,0,104)"/>
<path style="fill:none;stroke-width:5;stroke-linecap:butt;stroke-linejoin:miter;stroke:rgb(13.730068%,12.159915%,12.54902%);stroke-opacity:1;stroke-miterlimit:4;" d="M 1123.203125 930.9375 L 1124.453125 583.515625 C 1123.554688 535.3125 965.78125 496.25 771.171875 496.25 C 576.5625 496.25 418.789063 535.3125 418.789063 583.515625 L 418.789063 931.054688 " transform="matrix(0.1,0,0,-0.1,0,104)"/>
<path style="fill:none;stroke-width:5;stroke-linecap:butt;stroke-linejoin:miter;stroke:rgb(13.730068%,12.159915%,12.54902%);stroke-opacity:1;stroke-miterlimit:4;" d="M 1194.609375 577.851563 C 1194.609375 520.234375 1006.09375 473.554688 773.554688 473.554688 C 541.015625 473.554688 352.539063 520.234375 352.539063 577.851563 C 352.539063 635.429688 541.015625 682.109375 773.554688 682.109375 C 1006.09375 682.109375 1194.609375 635.429688 1194.609375 577.851563 Z M 1194.609375 577.851563 " transform="matrix(0.1,0,0,-0.1,0,104)"/>
<path style="fill:none;stroke-width:5;stroke-linecap:butt;stroke-linejoin:miter;stroke:rgb(13.730068%,12.159915%,12.54902%);stroke-opacity:1;stroke-miterlimit:4;" d="M 1059.648438 580.859375 C 1059.648438 542.890625 930.820313 512.109375 771.953125 512.109375 C 613.046875 512.109375 484.257813 542.890625 484.257813 580.859375 C 484.257813 618.828125 613.046875 649.609375 771.953125 649.609375 C 930.820313 649.609375 1059.648438 618.828125 1059.648438 580.859375 Z M 1059.648438 580.859375 " transform="matrix(0.1,0,0,-0.1,0,104)"/>
<path style=" stroke:none;fill-rule:nonzero;fill:rgb(13.730068%,12.159915%,12.54902%);fill-opacity:1;" d="M 57.410156 29.148438 C 57.265625 32.363281 55.167969 35.261719 52.726563 35.617188 C 50.28125 35.96875 48.417969 33.652344 48.5625 30.433594 C 48.707031 27.214844 50.804688 24.320313 53.246094 23.964844 C 55.691406 23.609375 57.554688 25.929688 57.410156 29.148438 "/>
<path style=" stroke:none;fill-rule:nonzero;fill:rgb(100%,100%,100%);fill-opacity:1;" d="M 57.4375 29.445313 C 57.320313 32 55.527344 34.300781 53.429688 34.582031 C 51.332031 34.863281 49.722656 33.023438 49.839844 30.46875 C 49.957031 27.914063 51.75 25.613281 53.847656 25.332031 C 55.945313 25.050781 57.550781 26.890625 57.4375 29.445313 "/>
<path style="fill:none;stroke-width:5;stroke-linecap:butt;stroke-linejoin:miter;stroke:rgb(13.730068%,12.159915%,12.54902%);stroke-opacity:1;stroke-miterlimit:4;" d="M 574.375 745.546875 C 573.203125 720 555.273438 696.992188 534.296875 694.179688 C 513.320313 691.367188 497.226563 709.765625 498.398438 735.3125 C 499.570313 760.859375 517.5 783.867188 538.476563 786.679688 C 559.453125 789.492188 575.507813 771.09375 574.375 745.546875 Z M 574.375 745.546875 " transform="matrix(0.1,0,0,-0.1,0,104)"/>
<path style="fill:none;stroke-width:5;stroke-linecap:butt;stroke-linejoin:miter;stroke:rgb(13.730068%,12.159915%,12.54902%);stroke-opacity:1;stroke-miterlimit:4;" d="M 1119.335938 937.890625 C 1122.109375 932.96875 1123.554688 927.890625 1123.554688 922.617188 C 1123.554688 867.695313 965.78125 833.789063 771.171875 833.789063 C 576.5625 833.789063 418.789063 867.695313 418.789063 922.617188 C 418.789063 977.578125 576.5625 1013.789063 771.171875 1013.789063 C 916.09375 1013.789063 1040.585938 993.710938 1094.726563 960.78125 " transform="matrix(0.1,0,0,-0.1,0,104)"/>
<path style="fill:none;stroke-width:5;stroke-linecap:butt;stroke-linejoin:miter;stroke:rgb(13.730068%,12.159915%,12.54902%);stroke-opacity:1;stroke-miterlimit:4;" d="M 1112.734375 946.679688 C 1114.375 944.921875 1115.820313 943.164063 1117.109375 941.367188 " transform="matrix(0.1,0,0,-0.1,0,104)"/>
<path style="fill:none;stroke-width:5;stroke-linecap:butt;stroke-linejoin:miter;stroke:rgb(13.730068%,12.159915%,12.54902%);stroke-opacity:1;stroke-miterlimit:4;" d="M 1109.726563 949.648438 C 1110.78125 948.671875 1111.796875 947.65625 1112.734375 946.679688 " transform="matrix(0.1,0,0,-0.1,0,104)"/>
<path style="fill:none;stroke-width:5;stroke-linecap:butt;stroke-linejoin:miter;stroke:rgb(13.730068%,12.159915%,12.54902%);stroke-opacity:1;stroke-miterlimit:4;" d="M 1094.726563 960.78125 C 1098.632813 958.359375 1102.1875 955.9375 1105.351563 953.398438 " transform="matrix(0.1,0,0,-0.1,0,104)"/>
<path style="fill:none;stroke-width:5;stroke-linecap:butt;stroke-linejoin:miter;stroke:rgb(13.730068%,12.159915%,12.54902%);stroke-opacity:1;stroke-miterlimit:4;" d="M 1081.953125 946.328125 C 1096.953125 938.554688 1105.117188 930.078125 1104.960938 921.210938 C 1104.375 883.671875 954.453125 853.554688 770.078125 853.90625 C 585.742188 854.257813 436.757813 885 437.34375 922.539063 C 437.96875 960.078125 587.890625 990.195313 772.226563 989.84375 C 898.945313 989.609375 1008.945313 975 1065.15625 953.710938 " transform="matrix(0.1,0,0,-0.1,0,104)"/>
<path style="fill:none;stroke-width:5;stroke-linecap:butt;stroke-linejoin:miter;stroke:rgb(13.730068%,12.159915%,12.54902%);stroke-opacity:1;stroke-miterlimit:4;" d="M 1065.15625 953.710938 C 1068.671875 952.382813 1072.03125 951.015625 1075.117188 949.609375 " transform="matrix(0.1,0,0,-0.1,0,104)"/>
<path style="fill:none;stroke-width:5;stroke-linecap:butt;stroke-linejoin:miter;stroke:rgb(13.730068%,12.159915%,12.54902%);stroke-opacity:1;stroke-miterlimit:4;" d="M 418.90625 583.359375 C 419.335938 631.09375 577.539063 672.1875 772.265625 670.429688 C 959.375 668.789063 1113.671875 631.875 1123.59375 586.953125 " transform="matrix(0.1,0,0,-0.1,0,104)"/>
<path style="fill:none;stroke-width:5;stroke-linecap:butt;stroke-linejoin:miter;stroke:rgb(13.730068%,12.159915%,12.54902%);stroke-opacity:1;stroke-miterlimit:4;" d="M 526.328125 933.789063 C 467.65625 913.046875 537.578125 907.109375 537.578125 907.109375 " transform="matrix(0.1,0,0,-0.1,0,104)"/>
<path style="fill:none;stroke-width:5;stroke-linecap:butt;stroke-linejoin:miter;stroke:rgb(13.730068%,12.159915%,12.54902%);stroke-opacity:1;stroke-dasharray:30,15;stroke-miterlimit:4;" d="M 546.328125 936.289063 C 546.328125 936.289063 914.765625 1018.203125 1084.296875 897.851563 " transform="matrix(0.1,0,0,-0.1,0,104)"/>
<path style="fill:none;stroke-width:5;stroke-linecap:butt;stroke-linejoin:miter;stroke:rgb(13.730068%,12.159915%,12.54902%);stroke-opacity:1;stroke-miterlimit:4;" d="M 418.789063 892.539063 C 418.789063 892.539063 445.664063 647.148438 487.890625 569.960938 " transform="matrix(0.1,0,0,-0.1,0,104)"/>
<path style="fill:none;stroke-width:5;stroke-linecap:butt;stroke-linejoin:miter;stroke:rgb(13.730068%,12.159915%,12.54902%);stroke-opacity:1;stroke-miterlimit:4;" d="M 1123.554688 897.539063 C 1123.554688 897.539063 1097.304688 627.226563 1058.320313 574.375 " transform="matrix(0.1,0,0,-0.1,0,104)"/>
<path style="fill:none;stroke-width:5;stroke-linecap:butt;stroke-linejoin:miter;stroke:rgb(13.730068%,12.159915%,12.54902%);stroke-opacity:1;stroke-miterlimit:4;" d="M 1555.703125 967.539063 L 588.828125 901.289063 L 537.578125 907.109375 L 586.328125 925.039063 L 1555.703125 993.164063 C 1555.703125 993.164063 1551.914063 978.046875 1560.351563 973.867188 C 1569.492188 969.257813 1555.703125 967.539063 1555.703125 967.539063 Z M 1555.703125 967.539063 " transform="matrix(0.1,0,0,-0.1,0,104)"/>
<path style="fill-rule:nonzero;fill:rgb(100%,100%,100%);fill-opacity:1;stroke-width:5;stroke-linecap:butt;stroke-linejoin:miter;stroke:rgb(13.730068%,12.159915%,12.54902%);stroke-opacity:1;stroke-miterlimit:4;" d="M 621.484375 755.546875 L 600.78125 769.375 L 521.289063 754.84375 L 521.289063 663.242188 C 521.289063 663.242188 588.828125 671.875 621.484375 674.84375 " transform="matrix(0.1,0,0,-0.1,0,104)"/>
<path style="fill:none;stroke-width:5;stroke-linecap:round;stroke-linejoin:round;stroke:rgb(13.730068%,12.159915%,12.54902%);stroke-opacity:1;stroke-miterlimit:4;" d="M 621.484375 674.84375 L 539.84375 664.570313 L 539.84375 743.710938 L 621.484375 755.546875 L 621.484375 674.84375 Z M 621.484375 674.84375 " transform="matrix(0.1,0,0,-0.1,0,104)"/>
<path style="fill:none;stroke-width:5;stroke-linecap:round;stroke-linejoin:round;stroke:rgb(13.730068%,12.159915%,12.54902%);stroke-opacity:1;stroke-miterlimit:4;" d="M 521.289063 754.84375 L 539.84375 743.710938 " transform="matrix(0.1,0,0,-0.1,0,104)"/>
<path style=" stroke:none;fill-rule:nonzero;fill:rgb(13.730068%,12.159915%,12.54902%);fill-opacity:1;" d="M 60.117188 33.277344 C 59.835938 33.894531 59.347656 34.277344 59.027344 34.128906 C 58.707031 33.980469 58.679688 33.363281 58.960938 32.75 C 59.242188 32.132813 59.730469 31.75 60.050781 31.898438 C 60.371094 32.042969 60.398438 32.660156 60.117188 33.277344 "/>
<path style="fill:none;stroke-width:5;stroke-linecap:butt;stroke-linejoin:miter;stroke:rgb(13.730068%,12.159915%,12.54902%);stroke-opacity:1;stroke-miterlimit:4;" d="M 601.171875 707.226563 C 598.359375 701.054688 593.476563 697.226563 590.273438 698.710938 C 587.070313 700.195313 586.796875 706.367188 589.609375 712.5 C 592.421875 718.671875 597.304688 722.5 600.507813 721.015625 C 603.710938 719.570313 603.984375 713.398438 601.171875 707.226563 Z M 601.171875 707.226563 " transform="matrix(0.1,0,0,-0.1,0,104)"/>
<path style="fill:none;stroke-width:5;stroke-linecap:butt;stroke-linejoin:miter;stroke:rgb(13.730068%,12.159915%,12.54902%);stroke-opacity:1;stroke-miterlimit:4;" d="M 600.507813 721.015625 L 578.632813 728.75 C 575.429688 730.195313 570.546875 726.40625 567.734375 720.234375 C 564.921875 714.0625 565.234375 707.890625 568.398438 706.445313 L 590.273438 698.710938 " transform="matrix(0.1,0,0,-0.1,0,104)"/>
<path style="fill-rule:nonzero;fill:rgb(100%,100%,100%);fill-opacity:1;stroke-width:5;stroke-linecap:butt;stroke-linejoin:miter;stroke:rgb(13.730068%,12.159915%,12.54902%);stroke-opacity:1;stroke-miterlimit:4;" d="M 1203.203125 656.289063 L 1230.078125 656.289063 L 1230.078125 690.742188 L 1203.203125 690.742188 L 1203.203125 656.289063 Z M 1203.203125 656.289063 " transform="matrix(0.1,0,0,-0.1,0,104)"/>
<path style=" stroke:none;fill-rule:nonzero;fill:rgb(100%,100%,100%);fill-opacity:1;" d="M 113.917969 42.933594 L 125.269531 42.933594 L 125.269531 41.050781 L 113.917969 41.050781 L 112.355469 42.058594 L 113.917969 42.933594 "/>
<path style="fill:none;stroke-width:5;stroke-linecap:butt;stroke-linejoin:miter;stroke:rgb(13.730068%,12.159915%,12.54902%);stroke-opacity:1;stroke-miterlimit:4;" d="M 1139.179688 610.664063 L 1252.695313 610.664063 L 1252.695313 629.492188 L 1139.179688 629.492188 L 1123.554688 619.414063 L 1139.179688 610.664063 Z M 1139.179688 610.664063 " transform="matrix(0.1,0,0,-0.1,0,104)"/>
<path style="fill-rule:nonzero;fill:rgb(100%,100%,100%);fill-opacity:1;stroke-width:5;stroke-linecap:butt;stroke-linejoin:miter;stroke:rgb(13.730068%,12.159915%,12.54902%);stroke-opacity:1;stroke-miterlimit:4;" d="M 1203.125 545.039063 L 1230.078125 545.039063 L 1230.078125 656.289063 L 1203.125 656.289063 L 1203.125 545.039063 Z M 1203.125 545.039063 " transform="matrix(0.1,0,0,-0.1,0,104)"/>
<path style="fill:none;stroke-width:5;stroke-linecap:butt;stroke-linejoin:miter;stroke:rgb(13.730068%,12.159915%,12.54902%);stroke-opacity:1;stroke-miterlimit:4;" d="M 53.90625 459.765625 L 528.945313 460.078125 " transform="matrix(0.1,0,0,-0.1,0,104)"/>
<path style="fill:none;stroke-width:5;stroke-linecap:butt;stroke-linejoin:round;stroke:rgb(13.730068%,12.159915%,12.54902%);stroke-opacity:1;stroke-miterlimit:4;" d="M 431.679688 516.09375 L 122.578125 516.09375 C 115.898438 494.179688 100.898438 497.929688 67.578125 477.929688 C 34.257813 457.929688 67.578125 447.109375 39.257813 433.789063 C 28.125 428.554688 23.320313 417.578125 23.359375 405.742188 C 23.359375 400.898438 24.101563 396.09375 25.234375 391.40625 C 26.71875 385.3125 26.523438 382.8125 23.867188 376.71875 C 21.5625 371.40625 19.53125 365.9375 17.578125 360.429688 C 2.5 318.59375 38.867188 297.109375 38.867188 297.109375 L 809.921875 297.109375 C 837.8125 297.109375 860.585938 320.15625 860.585938 348.320313 L 860.585938 440.703125 C 860.585938 440.703125 689.414063 436.015625 617.578125 446.445313 " transform="matrix(0.1,0,0,-0.1,0,104)"/>
<path style="fill:none;stroke-width:5;stroke-linecap:butt;stroke-linejoin:miter;stroke:rgb(13.730068%,12.159915%,12.54902%);stroke-opacity:1;stroke-miterlimit:4;" d="M 591.5625 536.601563 L 617.578125 554.609375 " transform="matrix(0.1,0,0,-0.1,0,104)"/>
<path style=" stroke:none;fill-rule:nonzero;fill:rgb(100%,100%,100%);fill-opacity:1;" d="M 37.242188 43.066406 C 36.320313 43.199219 35.558594 43.804688 35.007813 44.53125 C 34.503906 45.191406 34.117188 45.984375 33.933594 46.796875 C 33.699219 47.851563 34.144531 49.058594 34.742188 49.929688 C 35.402344 50.894531 36.308594 51.675781 37.257813 52.34375 C 38.496094 53.214844 39.851563 53.914063 41.234375 54.523438 C 42.945313 55.277344 44.714844 55.890625 46.503906 56.425781 C 48.605469 57.050781 50.742188 57.558594 52.894531 57.992188 C 55.324219 58.480469 57.773438 58.863281 60.230469 59.171875 C 62.925781 59.511719 65.636719 59.757813 68.347656 59.917969 C 71.234375 60.09375 74.128906 60.179688 77.023438 60.179688 C 81.917969 60.179688 86.816406 59.945313 91.683594 59.421875 C 95.90625 58.972656 100.121094 58.3125 104.253906 57.320313 C 107.492188 56.539063 110.726563 55.566406 113.746094 54.132813 C 115.769531 53.171875 117.898438 51.960938 119.265625 50.132813 C 120.847656 48.011719 120.691406 44.960938 118.179688 43.65625 L 117.453125 43.023438 C 118.757813 44.03125 119.460938 45.101563 119.460938 46.214844 C 119.460938 51.976563 100.609375 56.644531 77.355469 56.644531 C 54.101563 56.644531 35.253906 51.976563 35.253906 46.214844 C 35.253906 45.136719 35.914063 44.09375 37.144531 43.117188 L 37.242188 43.066406 "/>
<path style="fill:none;stroke-width:5;stroke-linecap:butt;stroke-linejoin:miter;stroke:rgb(13.730068%,12.159915%,12.54902%);stroke-opacity:1;stroke-miterlimit:4;" d="M 372.421875 609.335938 C 363.203125 608.007813 355.585938 601.953125 350.078125 594.6875 C 345.039063 588.085938 341.171875 580.15625 339.335938 572.03125 C 336.992188 561.484375 341.445313 549.414063 347.421875 540.703125 C 354.023438 531.054688 363.085938 523.242188 372.578125 516.5625 C 384.960938 507.851563 398.515625 500.859375 412.34375 494.765625 C 429.453125 487.226563 447.148438 481.09375 465.039063 475.742188 C 486.054688 469.492188 507.421875 464.414063 528.945313 460.078125 C 553.242188 455.195313 577.734375 451.367188 602.304688 448.28125 C 629.257813 444.882813 656.367188 442.421875 683.476563 440.820313 C 712.34375 439.0625 741.289063 438.203125 770.234375 438.203125 C 819.179688 438.203125 868.164063 440.546875 916.835938 445.78125 C 959.0625 450.273438 1001.210938 456.875 1042.539063 466.796875 C 1074.921875 474.609375 1107.265625 484.335938 1137.460938 498.671875 C 1157.695313 508.28125 1178.984375 520.390625 1192.65625 538.671875 C 1208.476563 559.882813 1206.914063 590.390625 1181.796875 603.4375 L 1174.53125 609.765625 C 1187.578125 599.6875 1194.609375 588.984375 1194.609375 577.851563 C 1194.609375 520.234375 1006.09375 473.554688 773.554688 473.554688 C 541.015625 473.554688 352.539063 520.234375 352.539063 577.851563 C 352.539063 588.632813 359.140625 599.0625 371.445313 608.828125 L 372.421875 609.335938 Z M 372.421875 609.335938 " transform="matrix(0.1,0,0,-0.1,0,104)"/>
<path style=" stroke:none;fill-rule:nonzero;fill:rgb(100%,100%,100%);fill-opacity:1;" d="M 53.589844 46.539063 L 61.757813 48.539063 L 61.757813 59.355469 L 59.15625 59.789063 L 51.894531 57.78125 L 51.445313 48.5625 L 53.589844 46.539063 "/>
<path style="fill:none;stroke-width:5;stroke-linecap:butt;stroke-linejoin:miter;stroke:rgb(13.730068%,12.159915%,12.54902%);stroke-opacity:1;stroke-miterlimit:4;" d="M 535.898438 574.609375 L 617.578125 554.609375 L 617.578125 446.445313 L 591.5625 442.109375 L 518.945313 462.1875 L 514.453125 554.375 L 535.898438 574.609375 Z M 535.898438 574.609375 " transform="matrix(0.1,0,0,-0.1,0,104)"/>
<path style=" stroke:none;fill-rule:nonzero;fill:rgb(13.730068%,12.159915%,12.54902%);fill-opacity:1;" d="M 51.257813 58.539063 C 49.675781 58.105469 48.390625 56.414063 48.183594 54.296875 C 47.933594 51.734375 49.363281 49.523438 51.382813 49.355469 C 53.402344 49.1875 55.238281 51.132813 55.488281 53.695313 C 55.738281 56.261719 54.304688 58.472656 52.289063 58.640625 C 51.9375 58.667969 51.589844 58.632813 51.257813 58.539063 "/>
<path style="fill:none;stroke-width:5;stroke-linecap:butt;stroke-linejoin:miter;stroke:rgb(13.730068%,12.159915%,12.54902%);stroke-opacity:1;stroke-miterlimit:4;" d="M 514.453125 554.375 L 591.5625 536.601563 L 591.5625 442.109375 " transform="matrix(0.1,0,0,-0.1,0,104)"/>
<path style=" stroke:none;fill-rule:nonzero;fill:rgb(100%,100%,100%);fill-opacity:1;" d="M 54.191406 53.96875 C 54.421875 56.332031 53.179688 58.363281 51.421875 58.511719 C 49.664063 58.65625 48.050781 56.855469 47.820313 54.492188 C 47.589844 52.132813 48.828125 50.097656 50.589844 49.953125 C 52.347656 49.808594 53.960938 51.605469 54.191406 53.96875 "/>
<path style="fill:none;stroke-width:2.5;stroke-linecap:butt;stroke-linejoin:miter;stroke:rgb(13.730068%,12.159915%,12.54902%);stroke-opacity:1;stroke-miterlimit:4;" d="M 541.914063 500.3125 C 544.21875 476.679688 531.796875 456.367188 514.21875 454.882813 C 496.640625 453.4375 480.507813 471.445313 478.203125 495.078125 C 475.898438 518.671875 488.28125 539.023438 505.898438 540.46875 C 523.476563 541.914063 539.609375 523.945313 541.914063 500.3125 Z M 541.914063 500.3125 " transform="matrix(0.1,0,0,-0.1,0,104)"/>
<path style="fill-rule:nonzero;fill:rgb(100%,100%,100%);fill-opacity:1;stroke-width:5;stroke-linecap:butt;stroke-linejoin:miter;stroke:rgb(13.730068%,12.159915%,12.54902%);stroke-opacity:1;stroke-miterlimit:4;" d="M 1007.851563 143.4375 C 961.328125 122.148438 870.234375 109.140625 765.9375 111.835938 C 621.757813 115.546875 504.765625 147.8125 496.40625 185.078125 L 498.59375 179.257813 C 484.21875 109.882813 853.828125 2.5 1034.84375 161.992188 " transform="matrix(0.1,0,0,-0.1,0,104)"/>
<path style="fill:none;stroke-width:10;stroke-linecap:butt;stroke-linejoin:miter;stroke:rgb(13.730068%,12.159915%,12.54902%);stroke-opacity:1;stroke-miterlimit:4;" d="M 498.59375 179.257813 C 489.101563 133.359375 594.375 107.304688 624.101563 98.75 C 645.390625 92.617188 667.03125 87.851563 688.867188 84.335938 C 730.703125 77.578125 773.125 75.429688 815.429688 75.429688 C 868.4375 75.429688 921.445313 75.429688 974.453125 75.429688 C 1077.1875 75.429688 1554.882813 75.429688 1657.578125 75.429688 " transform="matrix(0.1,0,0,-0.1,0,104)"/>
<path style="fill:none;stroke-width:10;stroke-linecap:butt;stroke-linejoin:miter;stroke:rgb(13.730068%,12.159915%,12.54902%);stroke-opacity:1;stroke-miterlimit:4;" d="M 1039.023438 184.453125 L 1657.578125 184.453125 " transform="matrix(0.1,0,0,-0.1,0,104)"/>
<path style=" stroke:none;fill-rule:nonzero;fill:rgb(100%,100%,100%);fill-opacity:1;" d="M 104.070313 86.398438 C 103.9375 90.332031 91.636719 93.203125 76.59375 92.816406 C 61.550781 92.429688 49.460938 88.933594 49.59375 85.003906 C 49.726563 81.078125 62.027344 78.207031 77.070313 78.59375 C 92.113281 78.976563 104.203125 82.472656 104.070313 86.398438 "/>
<path style="fill:none;stroke-width:5;stroke-linecap:butt;stroke-linejoin:miter;stroke:rgb(13.730068%,12.159915%,12.54902%);stroke-opacity:1;stroke-miterlimit:4;" d="M 1040.703125 176.015625 C 1039.375 136.679688 916.367188 107.96875 765.9375 111.835938 C 615.507813 115.703125 494.609375 150.664063 495.9375 189.960938 C 497.265625 229.21875 620.273438 257.929688 770.703125 254.0625 C 921.132813 250.234375 1042.03125 215.273438 1040.703125 176.015625 Z M 1040.703125 176.015625 " transform="matrix(0.1,0,0,-0.1,0,104)"/>
<path style="fill:none;stroke-width:5;stroke-linecap:butt;stroke-linejoin:miter;stroke:rgb(13.730068%,12.159915%,12.54902%);stroke-opacity:1;stroke-miterlimit:4;" d="M 835.898438 241.445313 C 835.898438 234.453125 805.976563 228.789063 769.023438 228.789063 C 732.109375 228.789063 702.148438 234.453125 702.148438 241.445313 C 702.148438 248.4375 732.109375 254.101563 769.023438 254.101563 C 805.976563 254.101563 835.898438 248.4375 835.898438 241.445313 Z M 835.898438 241.445313 " transform="matrix(0.1,0,0,-0.1,0,104)"/>
<path style="fill:none;stroke-width:5;stroke-linecap:butt;stroke-linejoin:miter;stroke:rgb(13.730068%,12.159915%,12.54902%);stroke-opacity:1;stroke-miterlimit:4;" d="M 835.898438 243.28125 L 835.898438 183.945313 C 835.898438 174.335938 805.976563 166.523438 769.023438 166.523438 C 732.109375 166.523438 702.148438 174.335938 702.148438 183.945313 L 702.148438 243.28125 " transform="matrix(0.1,0,0,-0.1,0,104)"/>
<path style=" stroke:none;fill-rule:nonzero;fill:rgb(100%,100%,100%);fill-opacity:1;" d="M 78.226563 79.980469 C 78.226563 80.222656 77.640625 80.417969 76.914063 80.417969 C 76.1875 80.417969 75.671875 80.222656 75.671875 79.980469 L 75.671875 74.289063 L 78.171875 74.289063 L 78.226563 79.980469 "/>
<path style="fill:none;stroke-width:5;stroke-linecap:butt;stroke-linejoin:miter;stroke:rgb(13.730068%,12.159915%,12.54902%);stroke-opacity:1;stroke-miterlimit:4;" d="M 782.265625 240.195313 C 782.265625 237.773438 776.40625 235.820313 769.140625 235.820313 C 761.875 235.820313 756.71875 237.773438 756.71875 240.195313 L 756.71875 297.109375 L 781.71875 297.109375 L 782.265625 240.195313 Z M 782.265625 240.195313 " transform="matrix(0.1,0,0,-0.1,0,104)"/>
<path style="fill:none;stroke-width:5;stroke-linecap:butt;stroke-linejoin:miter;stroke:rgb(13.730068%,12.159915%,12.54902%);stroke-opacity:1;stroke-miterlimit:4;" d="M 382.695313 958.710938 C 382.695313 958.710938 415 990.976563 472.1875 1011.914063 " transform="matrix(0.1,0,0,-0.1,0,104)"/>
<path style=" stroke:none;fill-rule:nonzero;fill:rgb(13.730068%,12.159915%,12.54902%);fill-opacity:1;" d="M 46.78125 4.496094 L 51.371094 1.269531 L 45.78125 1.765625 L 46.78125 4.496094 "/>
</g>
</svg>
