<?xml version="1.0" encoding="UTF-8"?>
<svg xmlns="http://www.w3.org/2000/svg" xmlns:xlink="http://www.w3.org/1999/xlink" width="247pt" height="111pt" viewBox="0 0 178 80" version="1.1">
<defs>
<clipPath id="clip1">
  <path d="M 0.0898438 79.246094 L 177.910156 79.246094 L 177.910156 0.753906 L 0.0898438 0.753906 L 0.0898438 79.246094 Z M 0.0898438 79.246094 "/>
</clipPath>
</defs>
<g id="surface0">
<g clip-path="url(#clip1)" clip-rule="nonzero">
<path style="fill:none;stroke-width:4.819;stroke-linecap:round;stroke-linejoin:round;stroke:rgb(0%,0%,0%);stroke-opacity:1;stroke-miterlimit:4;" d="M 791.796875 10.273438 L 3.554688 789.804688 L 698.398438 789.804688 L 1776.367188 10.273438 L 791.796875 10.273438 L 791.796875 10.273438 Z M 791.796875 10.273438 " transform="matrix(0.1,0,0,-0.1,0,80)"/>
<path style="fill:none;stroke-width:2.268;stroke-linecap:round;stroke-linejoin:round;stroke:rgb(0%,0%,0%);stroke-opacity:1;stroke-miterlimit:4;" d="M 615.3125 721.40625 L 768.632813 721.40625 " transform="matrix(0.1,0,0,-0.1,0,80)"/>
<path style="fill:none;stroke-width:2.268;stroke-linecap:round;stroke-linejoin:round;stroke:rgb(0%,0%,0%);stroke-opacity:1;stroke-miterlimit:4;" d="M 368.59375 721.40625 L 595.351563 721.40625 " transform="matrix(0.1,0,0,-0.1,0,80)"/>
<path style="fill:none;stroke-width:2.268;stroke-linecap:round;stroke-linejoin:round;stroke:rgb(0%,0%,0%);stroke-opacity:1;stroke-miterlimit:4;" d="M 477.460938 463.75 L 579.023438 463.75 " transform="matrix(0.1,0,0,-0.1,0,80)"/>
<path style="fill:none;stroke-width:2.268;stroke-linecap:round;stroke-linejoin:round;stroke:rgb(0%,0%,0%);stroke-opacity:1;stroke-miterlimit:4;" d="M 519.179688 369.6875 L 629.375 369.6875 " transform="matrix(0.1,0,0,-0.1,0,80)"/>
<path style="fill:none;stroke-width:2.268;stroke-linecap:round;stroke-linejoin:round;stroke:rgb(0%,0%,0%);stroke-opacity:1;stroke-miterlimit:4;" d="M 647.070313 369.6875 L 731.445313 369.6875 " transform="matrix(0.1,0,0,-0.1,0,80)"/>
<path style="fill:none;stroke-width:2.268;stroke-linecap:round;stroke-linejoin:round;stroke:rgb(0%,0%,0%);stroke-opacity:1;stroke-miterlimit:4;" d="M 747.773438 369.6875 L 772.265625 369.6875 " transform="matrix(0.1,0,0,-0.1,0,80)"/>
<path style="fill:none;stroke-width:2.268;stroke-linecap:round;stroke-linejoin:round;stroke:rgb(0%,0%,0%);stroke-opacity:1;stroke-miterlimit:4;" d="M 784.492188 369.6875 L 808.984375 369.6875 " transform="matrix(0.1,0,0,-0.1,0,80)"/>
<path style="fill:none;stroke-width:2.268;stroke-linecap:round;stroke-linejoin:round;stroke:rgb(0%,0%,0%);stroke-opacity:1;stroke-miterlimit:4;" d="M 1027.578125 369.6875 L 1243.476563 369.6875 " transform="matrix(0.1,0,0,-0.1,0,80)"/>
<path style="fill:none;stroke-width:2.268;stroke-linecap:round;stroke-linejoin:round;stroke:rgb(0%,0%,0%);stroke-opacity:1;stroke-miterlimit:4;" d="M 589.414063 281.953125 L 1379.609375 281.953125 " transform="matrix(0.1,0,0,-0.1,0,80)"/>
<path style="fill:none;stroke-width:2.268;stroke-linecap:round;stroke-linejoin:round;stroke:rgb(0%,0%,0%);stroke-opacity:1;stroke-miterlimit:4;" d="M 932.34375 463.75 L 987.695313 463.75 " transform="matrix(0.1,0,0,-0.1,0,80)"/>
<path style="fill:none;stroke-width:2.268;stroke-linecap:round;stroke-linejoin:round;stroke:rgb(0%,0%,0%);stroke-opacity:1;stroke-miterlimit:4;" d="M 828.515625 192.148438 L 1467.304688 192.148438 " transform="matrix(0.1,0,0,-0.1,0,80)"/>
<path style="fill:none;stroke-width:2.268;stroke-linecap:round;stroke-linejoin:round;stroke:rgb(0%,0%,0%);stroke-opacity:1;stroke-miterlimit:4;" d="M 886.835938 97.148438 L 1494.414063 97.148438 " transform="matrix(0.1,0,0,-0.1,0,80)"/>
<path style="fill:none;stroke-width:2.268;stroke-linecap:round;stroke-linejoin:round;stroke:rgb(0%,0%,0%);stroke-opacity:1;stroke-miterlimit:4;" d="M 252.5 634.335938 L 673.398438 634.335938 " transform="matrix(0.1,0,0,-0.1,0,80)"/>
<path style="fill:none;stroke-width:2.268;stroke-linecap:round;stroke-linejoin:round;stroke:rgb(0%,0%,0%);stroke-opacity:1;stroke-miterlimit:4;" d="M 526.445313 547.265625 L 956.40625 547.265625 " transform="matrix(0.1,0,0,-0.1,0,80)"/>
<path style="fill:none;stroke-width:4.252;stroke-linecap:butt;stroke-linejoin:miter;stroke:rgb(0%,0%,0%);stroke-opacity:1;stroke-miterlimit:4;" d="M 798.789063 437.460938 C 798.125 428.164063 778.242188 421.992188 754.335938 423.632813 C 730.429688 425.3125 711.601563 434.179688 712.226563 443.476563 C 713.671875 465.585938 800.546875 462.109375 798.789063 437.460938 L 798.789063 437.460938 Z M 798.789063 437.460938 " transform="matrix(0.1,0,0,-0.1,0,80)"/>
<path style="fill:none;stroke-width:4.252;stroke-linecap:butt;stroke-linejoin:miter;stroke:rgb(0%,0%,0%);stroke-opacity:1;stroke-miterlimit:4;" d="M 826.875 448.125 C 829.53125 441.757813 826.210938 434.335938 819.53125 431.5625 C 812.851563 428.789063 805.273438 431.71875 802.617188 438.125 C 799.960938 444.492188 803.28125 451.914063 809.960938 454.6875 C 816.640625 457.460938 824.21875 454.53125 826.875 448.164063 L 826.875 448.125 L 826.875 448.125 L 826.875 448.125 Z M 826.875 448.125 " transform="matrix(0.1,0,0,-0.1,0,80)"/>
<path style="fill:none;stroke-width:4.252;stroke-linecap:butt;stroke-linejoin:miter;stroke:rgb(0%,0%,0%);stroke-opacity:1;stroke-miterlimit:4;" d="M 826.679688 438.515625 C 826.679688 438.515625 842.109375 446.054688 850.195313 442.695313 C 861.210938 438.125 856.914063 429.804688 851.953125 431.875 " transform="matrix(0.1,0,0,-0.1,0,80)"/>
<path style="fill:none;stroke-width:4.252;stroke-linecap:butt;stroke-linejoin:miter;stroke:rgb(0%,0%,0%);stroke-opacity:1;stroke-miterlimit:4;" d="M 823.945313 451.132813 C 823.945313 451.132813 832.5 466.015625 841.054688 467.773438 C 852.734375 470.195313 853.867188 460.9375 848.59375 459.84375 " transform="matrix(0.1,0,0,-0.1,0,80)"/>
<path style="fill:none;stroke-width:4.252;stroke-linecap:round;stroke-linejoin:miter;stroke:rgb(0%,0%,0%);stroke-opacity:1;stroke-miterlimit:4;" d="M 791.992188 429.21875 C 791.992188 429.21875 795.546875 411.132813 804.53125 407.421875 " transform="matrix(0.1,0,0,-0.1,0,80)"/>
<path style="fill:none;stroke-width:4.252;stroke-linecap:round;stroke-linejoin:miter;stroke:rgb(0%,0%,0%);stroke-opacity:1;stroke-miterlimit:4;" d="M 776.679688 424.53125 C 776.679688 424.53125 781.289063 399.84375 793.398438 404.84375 " transform="matrix(0.1,0,0,-0.1,0,80)"/>
<path style="fill:none;stroke-width:4.252;stroke-linecap:round;stroke-linejoin:miter;stroke:rgb(0%,0%,0%);stroke-opacity:1;stroke-miterlimit:4;" d="M 762.304688 423.398438 C 762.304688 423.398438 760.3125 404.6875 772.578125 399.609375 " transform="matrix(0.1,0,0,-0.1,0,80)"/>
<path style="fill:none;stroke-width:4.252;stroke-linecap:round;stroke-linejoin:miter;stroke:rgb(0%,0%,0%);stroke-opacity:1;stroke-miterlimit:4;" d="M 747.304688 424.375 C 747.304688 424.375 746.484375 404.6875 755.039063 401.132813 " transform="matrix(0.1,0,0,-0.1,0,80)"/>
<path style="fill:none;stroke-width:4.252;stroke-linecap:round;stroke-linejoin:miter;stroke:rgb(0%,0%,0%);stroke-opacity:1;stroke-miterlimit:4;" d="M 731.054688 427.96875 C 731.054688 427.96875 724.101563 409.648438 731.875 406.40625 " transform="matrix(0.1,0,0,-0.1,0,80)"/>
<path style="fill:none;stroke-width:4.252;stroke-linecap:round;stroke-linejoin:round;stroke:rgb(0%,0%,0%);stroke-opacity:1;stroke-miterlimit:4;" d="M 717.8125 434.375 C 717.8125 434.375 712.539063 422.109375 715.898438 414.023438 " transform="matrix(0.1,0,0,-0.1,0,80)"/>
</g>
</g>
</svg>
