<?xml version="1.0" encoding="UTF-8"?>
<svg xmlns="http://www.w3.org/2000/svg" xmlns:xlink="http://www.w3.org/1999/xlink" width="188pt" height="158pt" viewBox="0 0 136 114" version="1.1">
<defs>
<clipPath id="clip1">
  <path d="M -237 666 L 375 666 L 375 -126 L -237 -126 L -237 666 Z M -237 666 "/>
</clipPath>
<clipPath id="clip2">
  <path d="M -0.117188 114.246094 L 137.371094 114.246094 L 137.371094 -1.199219 L -0.117188 -1.199219 L -0.117188 114.246094 Z M -0.117188 114.246094 "/>
</clipPath>
</defs>
<g id="surface0">
<g clip-path="url(#clip1)" clip-rule="nonzero">
<g clip-path="url(#clip2)" clip-rule="nonzero">
<path style="fill:none;stroke-width:5;stroke-linecap:butt;stroke-linejoin:round;stroke:rgb(0%,0%,0%);stroke-opacity:1;stroke-miterlimit:4;" d="M 122.99996 176.25368 L 156.572174 176.25368 L 235.999121 94.593548 L 92.851962 94.593548 L 10.000798 176.25368 L 100.333132 176.25368 " transform="matrix(0.104951,0,0,-0.104951,-0.116,114.248)"/>
<path style="fill:none;stroke-width:5;stroke-linecap:butt;stroke-linejoin:round;stroke:rgb(0%,0%,0%);stroke-opacity:1;stroke-miterlimit:4;" d="M 10.000798 176.25368 L 10.000798 156.266674 L 92.665863 73.601609 L 236.18522 73.601609 L 236.18522 93.588615 " transform="matrix(0.104951,0,0,-0.104951,-0.116,114.248)"/>
<path style="fill:none;stroke-width:5;stroke-linecap:butt;stroke-linejoin:round;stroke:rgb(0%,0%,0%);stroke-opacity:1;stroke-miterlimit:4;" d="M 92.665863 93.588615 L 92.665863 73.601609 " transform="matrix(0.104951,0,0,-0.104951,-0.116,114.248)"/>
<path style="fill:none;stroke-width:5;stroke-linecap:butt;stroke-linejoin:round;stroke:rgb(0%,0%,0%);stroke-opacity:1;stroke-miterlimit:4;" d="M 122.99996 512.236365 L 122.99996 138.587293 C 122.99996 133.190429 118.49637 128.761279 112.987847 128.761279 L 110.345244 128.761279 C 104.836721 128.761279 100.333132 133.190429 100.333132 138.587293 L 100.333132 512.236365 " transform="matrix(0.104951,0,0,-0.104951,-0.116,114.248)"/>
<path style="fill:none;stroke-width:5;stroke-linecap:butt;stroke-linejoin:round;stroke:rgb(0%,0%,0%);stroke-opacity:1;stroke-miterlimit:4;" d="M 276.159231 372.327324 L 120.692335 372.327324 " transform="matrix(0.104951,0,0,-0.104951,-0.116,114.248)"/>
<path style="fill:none;stroke-width:5;stroke-linecap:butt;stroke-linejoin:round;stroke:rgb(0%,0%,0%);stroke-opacity:1;stroke-miterlimit:4;" d="M 120.692335 394.994152 L 276.159231 394.994152 " transform="matrix(0.104951,0,0,-0.104951,-0.116,114.248)"/>
<path style="fill:none;stroke-width:5;stroke-linecap:butt;stroke-linejoin:round;stroke:rgb(0%,0%,0%);stroke-opacity:1;stroke-miterlimit:4;" d="M 122.99996 512.683002 C 122.99996 509.407664 117.938073 506.727842 111.647936 506.727842 C 105.395018 506.727842 100.333132 509.407664 100.333132 512.683002 C 100.333132 515.92112 105.395018 518.563723 111.647936 518.563723 C 117.938073 518.563723 122.99996 515.92112 122.99996 512.683002 Z M 122.99996 512.683002 " transform="matrix(0.104951,0,0,-0.104951,-0.116,114.248)"/>
<path style=" stroke:none;fill-rule:nonzero;fill:rgb(100%,100%,100%);fill-opacity:1;" d="M 13.378906 73.921875 C 13.378906 74.863281 12.617188 75.628906 11.675781 75.628906 C 10.730469 75.628906 9.96875 74.863281 9.96875 73.921875 C 9.96875 72.980469 10.730469 72.214844 11.675781 72.214844 C 12.617188 72.214844 13.378906 72.980469 13.378906 73.921875 "/>
<path style="fill:none;stroke-width:5;stroke-linecap:butt;stroke-linejoin:round;stroke:rgb(0%,0%,0%);stroke-opacity:1;stroke-miterlimit:4;" d="M 128.582922 384.237644 C 128.582922 375.267684 121.325071 367.972613 112.355111 367.972613 C 103.347931 367.972613 96.09008 375.267684 96.09008 384.237644 C 96.09008 393.207604 103.347931 400.502675 112.355111 400.502675 C 121.325071 400.502675 128.582922 393.207604 128.582922 384.237644 Z M 128.582922 384.237644 " transform="matrix(0.104951,0,0,-0.104951,-0.116,114.248)"/>
<path style="fill:none;stroke-width:5;stroke-linecap:butt;stroke-linejoin:round;stroke:rgb(0%,0%,0%);stroke-opacity:1;stroke-miterlimit:4;" d="M 1174.68122 176.25368 L 1208.253435 176.25368 L 1287.717602 94.593548 L 1144.496003 94.593548 L 1061.682059 176.25368 L 1152.014392 176.25368 " transform="matrix(0.104951,0,0,-0.104951,-0.116,114.248)"/>
<path style="fill:none;stroke-width:5;stroke-linecap:butt;stroke-linejoin:round;stroke:rgb(0%,0%,0%);stroke-opacity:1;stroke-miterlimit:4;" d="M 1061.682059 176.25368 L 1061.682059 156.266674 L 1144.347124 73.601609 L 1287.866481 73.601609 L 1287.866481 93.588615 " transform="matrix(0.104951,0,0,-0.104951,-0.116,114.248)"/>
<path style="fill:none;stroke-width:5;stroke-linecap:butt;stroke-linejoin:round;stroke:rgb(0%,0%,0%);stroke-opacity:1;stroke-miterlimit:4;" d="M 1144.347124 93.588615 L 1144.347124 73.601609 " transform="matrix(0.104951,0,0,-0.104951,-0.116,114.248)"/>
<path style="fill:none;stroke-width:5;stroke-linecap:butt;stroke-linejoin:round;stroke:rgb(0%,0%,0%);stroke-opacity:1;stroke-miterlimit:4;" d="M 1151.344437 512.236365 L 1151.344437 138.587293 C 1151.344437 133.190429 1155.848027 128.761279 1161.35655 128.761279 L 1163.999152 128.761279 C 1169.507675 128.761279 1174.011265 133.190429 1174.011265 138.587293 L 1174.011265 512.236365 " transform="matrix(0.104951,0,0,-0.104951,-0.116,114.248)"/>
<path style="fill:none;stroke-width:5;stroke-linecap:butt;stroke-linejoin:round;stroke:rgb(0%,0%,0%);stroke-opacity:1;stroke-miterlimit:4;" d="M 995.207585 372.327324 L 1153.652061 372.327324 " transform="matrix(0.104951,0,0,-0.104951,-0.116,114.248)"/>
<path style="fill:none;stroke-width:5;stroke-linecap:butt;stroke-linejoin:round;stroke:rgb(0%,0%,0%);stroke-opacity:1;stroke-miterlimit:4;" d="M 1153.652061 394.994152 L 995.207585 394.994152 " transform="matrix(0.104951,0,0,-0.104951,-0.116,114.248)"/>
<path style="fill:none;stroke-width:5;stroke-linecap:butt;stroke-linejoin:round;stroke:rgb(0%,0%,0%);stroke-opacity:1;stroke-miterlimit:4;" d="M 1151.344437 512.683002 C 1151.344437 509.407664 1156.406323 506.727842 1162.696461 506.727842 C 1168.949379 506.727842 1174.011265 509.407664 1174.011265 512.683002 C 1174.011265 515.92112 1168.949379 518.563723 1162.696461 518.563723 C 1156.406323 518.563723 1151.344437 515.92112 1151.344437 512.683002 Z M 1151.344437 512.683002 " transform="matrix(0.104951,0,0,-0.104951,-0.116,114.248)"/>
<path style=" stroke:none;fill-rule:nonzero;fill:rgb(100%,100%,100%);fill-opacity:1;" d="M 120.132813 73.921875 C 120.132813 74.863281 120.894531 75.628906 121.839844 75.628906 C 122.78125 75.628906 123.542969 74.863281 123.542969 73.921875 C 123.542969 72.980469 122.78125 72.214844 121.839844 72.214844 C 120.894531 72.214844 120.132813 72.980469 120.132813 73.921875 "/>
<path style="fill:none;stroke-width:5;stroke-linecap:butt;stroke-linejoin:round;stroke:rgb(0%,0%,0%);stroke-opacity:1;stroke-miterlimit:4;" d="M 1145.761474 384.237644 C 1145.761474 375.267684 1153.019326 367.972613 1162.026505 367.972613 C 1170.996465 367.972613 1178.254316 375.267684 1178.254316 384.237644 C 1178.254316 393.207604 1170.996465 400.502675 1162.026505 400.502675 C 1153.019326 400.502675 1145.761474 393.207604 1145.761474 384.237644 Z M 1145.761474 384.237644 " transform="matrix(0.104951,0,0,-0.104951,-0.116,114.248)"/>
<path style="fill:none;stroke-width:5;stroke-linecap:butt;stroke-linejoin:round;stroke:rgb(0%,0%,0%);stroke-opacity:1;stroke-miterlimit:4;" d="M 758.787732 485.252046 C 895.830852 472.001815 993.607136 437.387447 993.607136 396.74348 C 993.607136 344.67305 833.190012 302.465853 635.36704 302.465853 C 437.506848 302.465853 277.126945 344.67305 277.126945 396.74348 C 277.126945 441.742158 397.04898 479.408545 557.428883 488.750703 " transform="matrix(0.104951,0,0,-0.104951,-0.116,114.248)"/>
<path style="fill:none;stroke-width:5;stroke-linecap:butt;stroke-linejoin:round;stroke:rgb(0%,0%,0%);stroke-opacity:1;stroke-miterlimit:4;" d="M 592.080471 490.313932 C 606.261196 490.760569 620.702459 490.983888 635.36704 490.983888 C 662.760776 490.983888 689.484557 490.202273 715.128965 488.639043 " transform="matrix(0.104951,0,0,-0.104951,-0.116,114.248)"/>
<path style="fill:none;stroke-width:5;stroke-linecap:butt;stroke-linejoin:round;stroke:rgb(0%,0%,0%);stroke-opacity:1;stroke-miterlimit:4;" d="M 277.126945 400.539895 L 277.126945 377.984726 C 277.126945 325.914296 437.506848 283.707099 635.36704 283.707099 C 833.190012 283.707099 993.607136 325.914296 993.607136 377.984726 L 993.607136 394.845273 " transform="matrix(0.104951,0,0,-0.104951,-0.116,114.248)"/>
<path style="fill:none;stroke-width:5;stroke-linecap:butt;stroke-linejoin:round;stroke:rgb(0%,0%,0%);stroke-opacity:1;stroke-miterlimit:4;" d="M 767.497153 657.951687 C 767.497153 520.350271 713.305197 408.76546 646.421306 408.76546 C 579.537415 408.76546 525.345459 520.350271 525.345459 657.951687 C 525.345459 795.627543 579.537415 907.175134 646.421306 907.175134 C 713.305197 907.175134 767.497153 795.627543 767.497153 657.951687 Z M 767.497153 657.951687 " transform="matrix(0.104951,0,0,-0.104951,-0.116,114.248)"/>
<path style="fill:none;stroke-width:5;stroke-linecap:butt;stroke-linejoin:round;stroke:rgb(0%,0%,0%);stroke-opacity:1;stroke-miterlimit:4;" d="M 645.974669 907.175134 C 731.282337 907.175134 781.268461 795.627543 781.268461 657.951687 C 781.268461 520.350271 751.343782 408.76546 645.974669 408.76546 " transform="matrix(0.104951,0,0,-0.104951,-0.116,114.248)"/>
<path style="fill:none;stroke-width:5;stroke-linecap:butt;stroke-linejoin:round;stroke:rgb(0%,0%,0%);stroke-opacity:1;stroke-miterlimit:4;" d="M 751.60432 656.239578 C 751.60432 531.962833 703.479183 431.246189 644.076462 431.246189 C 584.71096 431.246189 536.585823 531.962833 536.585823 656.239578 C 536.585823 780.516324 584.71096 881.232968 644.076462 881.232968 C 703.479183 881.232968 751.60432 780.516324 751.60432 656.239578 Z M 751.60432 656.239578 " transform="matrix(0.104951,0,0,-0.104951,-0.116,114.248)"/>
<path style="fill:none;stroke-width:5;stroke-linecap:butt;stroke-linejoin:round;stroke:rgb(0%,0%,0%);stroke-opacity:1;stroke-miterlimit:4;" d="M 751.60432 656.239578 C 751.60432 537.508575 707.945553 441.258301 654.088575 441.258301 C 600.231596 441.258301 556.572829 537.508575 556.572829 656.239578 C 556.572829 774.970582 600.231596 871.258075 654.088575 871.258075 C 707.945553 871.258075 751.60432 774.970582 751.60432 656.239578 Z M 751.60432 656.239578 " transform="matrix(0.104951,0,0,-0.104951,-0.116,114.248)"/>
<path style="fill:none;stroke-width:5;stroke-linecap:butt;stroke-linejoin:round;stroke:rgb(0%,0%,0%);stroke-opacity:1;stroke-miterlimit:4;" d="M 645.341933 1085.420518 L 645.341933 908.254507 " transform="matrix(0.104951,0,0,-0.104951,-0.116,114.248)"/>
<path style="fill:none;stroke-width:5;stroke-linecap:butt;stroke-linejoin:round;stroke:rgb(0%,0%,0%);stroke-opacity:1;stroke-miterlimit:4;" d="M 644.523099 1029.107036 C 688.219086 1029.107036 723.689507 1012.09761 723.689507 991.18011 C 723.689507 970.225391 688.219086 953.253185 644.523099 953.253185 C 600.789892 953.253185 565.319471 970.225391 565.319471 991.18011 C 565.319471 996.428095 567.552656 1001.415542 571.572389 1005.956351 " transform="matrix(0.104951,0,0,-0.104951,-0.116,114.248)"/>
<path style=" stroke:none;fill-rule:nonzero;fill:rgb(0%,0%,0%);fill-opacity:1;" d="M 60.199219 10.003906 L 62.167969 6.050781 L 58.484375 8.492188 L 60.199219 10.003906 "/>
<path style="fill:none;stroke-width:5;stroke-linecap:butt;stroke-linejoin:round;stroke:rgb(0%,0%,0%);stroke-opacity:1;stroke-miterlimit:4;" d="M 958.434472 130.622267 C 958.434472 63.998914 817.967135 9.993056 644.858077 9.993056 C 471.60014 9.993056 331.132802 63.998914 331.132802 130.622267 C 331.132802 223.746082 471.60014 251.251477 644.858077 251.251477 C 817.967135 251.251477 958.434472 219.577469 958.434472 130.622267 Z M 958.434472 130.622267 " transform="matrix(0.104951,0,0,-0.104951,-0.116,114.248)"/>
<path style="fill:none;stroke-width:5;stroke-linecap:butt;stroke-linejoin:round;stroke:rgb(0%,0%,0%);stroke-opacity:1;stroke-miterlimit:4;" d="M 805.945155 144.98909 C 805.945155 129.133477 732.25005 116.255443 641.136102 116.255443 C 549.984933 116.255443 476.103729 129.133477 476.103729 144.98909 C 476.103729 160.881923 549.984933 173.759957 641.136102 173.759957 C 732.25005 173.759957 805.945155 160.881923 805.945155 144.98909 Z M 805.945155 144.98909 " transform="matrix(0.104951,0,0,-0.104951,-0.116,114.248)"/>
<path style="fill:none;stroke-width:5;stroke-linecap:butt;stroke-linejoin:round;stroke:rgb(0%,0%,0%);stroke-opacity:1;stroke-miterlimit:4;" d="M 419.045852 224.527696 C 419.045852 224.527696 477.51808 225.011553 498.2867 159.393133 " transform="matrix(0.104951,0,0,-0.104951,-0.116,114.248)"/>
<path style="fill:none;stroke-width:5;stroke-linecap:butt;stroke-linejoin:round;stroke:rgb(0%,0%,0%);stroke-opacity:1;stroke-miterlimit:4;" d="M 550.878207 248.050578 C 550.878207 248.050578 529.439631 200.18598 559.029333 170.596278 " transform="matrix(0.104951,0,0,-0.104951,-0.116,114.248)"/>
<path style="fill:none;stroke-width:5;stroke-linecap:butt;stroke-linejoin:round;stroke:rgb(0%,0%,0%);stroke-opacity:1;stroke-miterlimit:4;" d="M 701.432097 250.023225 C 701.432097 250.023225 623.010083 217.716482 654.051355 173.759957 " transform="matrix(0.104951,0,0,-0.104951,-0.116,114.248)"/>
<path style="fill:none;stroke-width:5;stroke-linecap:butt;stroke-linejoin:round;stroke:rgb(0%,0%,0%);stroke-opacity:1;stroke-miterlimit:4;" d="M 786.404787 158.611519 C 786.404787 158.611519 781.41734 225.755948 874.652814 221.438457 " transform="matrix(0.104951,0,0,-0.104951,-0.116,114.248)"/>
<path style="fill:none;stroke-width:5;stroke-linecap:butt;stroke-linejoin:round;stroke:rgb(0%,0%,0%);stroke-opacity:1;stroke-miterlimit:4;" d="M 805.945155 144.98909 C 805.945155 144.98909 897.542961 232.306624 949.873929 102.633014 " transform="matrix(0.104951,0,0,-0.104951,-0.116,114.248)"/>
<path style="fill:none;stroke-width:5;stroke-linecap:butt;stroke-linejoin:round;stroke:rgb(0%,0%,0%);stroke-opacity:1;stroke-miterlimit:4;" d="M 772.41016 127.607467 C 772.41016 127.607467 826.974314 111.826293 803.339773 26.555845 " transform="matrix(0.104951,0,0,-0.104951,-0.116,114.248)"/>
<path style="fill:none;stroke-width:5;stroke-linecap:butt;stroke-linejoin:round;stroke:rgb(0%,0%,0%);stroke-opacity:1;stroke-miterlimit:4;" d="M 600.789892 117.111497 C 600.789892 117.111497 549.01722 72.671116 577.37867 12.821757 " transform="matrix(0.104951,0,0,-0.104951,-0.116,114.248)"/>
<path style="fill:none;stroke-width:5;stroke-linecap:butt;stroke-linejoin:round;stroke:rgb(0%,0%,0%);stroke-opacity:1;stroke-miterlimit:4;" d="M 476.103729 144.98909 C 476.103729 144.98909 403.227459 116.106564 403.227459 53.689043 " transform="matrix(0.104951,0,0,-0.104951,-0.116,114.248)"/>
</g>
</g>
</g>
</svg>
