<?xml version="1.0" encoding="UTF-8" standalone="no"?>
<!-- Created with Inkscape (http://www.inkscape.org/) -->
<svg xmlns:dc="http://purl.org/dc/elements/1.1/" xmlns:cc="http://creativecommons.org/ns#" xmlns:rdf="http://www.w3.org/1999/02/22-rdf-syntax-ns#" xmlns:svg="http://www.w3.org/2000/svg" xmlns="http://www.w3.org/2000/svg" xmlns:xlink="http://www.w3.org/1999/xlink" version="1.1" width="94.7pt" height="136.0pt" viewBox="56.6209 54.0603 54.92423 78.881201" id="svg22255">
  <metadata id="metadata22468">
    <rdf:RDF>
      <cc:Work rdf:about="">
        <dc:format>image/svg+xml</dc:format>
        <dc:type rdf:resource="http://purl.org/dc/dcmitype/StillImage"/>
        <dc:title/>
      </cc:Work>
    </rdf:RDF>
  </metadata>
  <defs id="defs22257">
    <path d="m 1.315,-3.36 c -0.12,0.015 -0.235,0.035 -0.345,0.085 -0.52,0.2 -0.705,0.88 -0.705,1.55 0,0.105 0,0.205 0.005,0.31 0.015,0.465 0.12,0.92 0.385,1.2 0.22,0.225 0.545,0.32 0.85,0.29 C 1.69,0.055 1.85,-0.015 1.985,-0.1 2.41,-0.4 2.51,-1.02 2.51,-1.69 2.51,-2.24 2.415,-2.735 2.145,-3.035 1.94,-3.26 1.62,-3.39 1.315,-3.36 z m 0.425,0.365 c 0.05,0.03 0.1,0.07 0.145,0.11 0.185,0.185 0.245,0.545 0.255,0.875 0,0.07 0.005,0.135 0.005,0.205 v 0.255 c 0,0.43 -0.04,0.845 -0.23,1.1 -0.25,0.325 -0.78,0.335 -1.045,0.01 C 0.81,-0.51 0.77,-0.59 0.74,-0.675 0.65,-0.93 0.63,-1.25 0.63,-1.57 v -0.255 c 0,-0.065 0.005,-0.125 0.005,-0.19 0,-0.395 0.1,-0.785 0.365,-0.955 0.195,-0.12 0.5,-0.155 0.74,-0.025 z" id="g348"/>
    <path d="m 0.555,-3.03 v 0.28 c 0.25,0 0.495,-0.04 0.725,-0.14 v 2.61 H 0.585 V 0 h 1.75 V -0.28 H 1.64 V -3.36 C 1.61,-3.36 1.575,-3.365 1.55,-3.355 1.51,-3.34 1.48,-3.3 1.445,-3.275 1.24,-3.105 0.88,-3.03 0.555,-3.03 z" id="g349"/>
    <path d="m 0.445,-2.295 c 0.08,-0.29 0.21,-0.605 0.515,-0.72 0.12,-0.045 0.245,-0.055 0.37,-0.045 0.26,0.02 0.525,0.125 0.675,0.345 0.105,0.15 0.14,0.33 0.115,0.51 -0.06,0.475 -0.485,0.78 -0.835,1.05 -0.275,0.215 -0.86,0.73 -0.86,0.73 L 0.33,-0.345 C 0.275,-0.29 0.275,-0.3 0.275,-0.195 V 0 H 2.5 V -0.31 H 0.6 c 0.195,-0.17 0.765,-0.65 0.935,-0.775 0.31,-0.235 0.665,-0.46 0.86,-0.81 0.22,-0.4 0.085,-0.92 -0.26,-1.2 -0.385,-0.32 -1.085,-0.37 -1.505,-0.06 -0.155,0.115 -0.275,0.3 -0.355,0.48 -0.01,0.035 -0.045,0.085 -0.04,0.125 0.01,0.03 0.04,0.055 0.06,0.08 0.045,0.06 0.095,0.125 0.15,0.175 z" id="g350"/>
    <path d="m 0.315,-1.915 c -0.045,0.065 -0.005,0.16 0.07,0.175 0.03,0.01 0.065,0.005 0.1,0.005 h 3.19 c 0.045,0 0.085,0 0.12,-0.03 0.065,-0.065 0.03,-0.185 -0.065,-0.2 -0.07,-0.01 -0.15,0 -0.22,0 H 0.48 c -0.08,0 -0.12,-0.005 -0.165,0.05 z m 0,1.065 c -0.045,0.065 -0.005,0.155 0.07,0.17 0.03,0.01 0.065,0.005 0.1,0.005 h 3.19 c 0.045,0 0.085,0 0.12,-0.03 0.065,-0.065 0.03,-0.185 -0.065,-0.2 -0.07,-0.01 -0.15,0 -0.22,0 H 0.475 C 0.4,-0.905 0.35,-0.91 0.315,-0.85 z" id="g361"/>
    <use id="g448" x="0" y="0" width="208.855" height="183.79201" xlink:href="#g348"/>
    <use id="g449" x="0" y="0" width="208.855" height="183.79201" xlink:href="#g349"/>
    <use id="g461" x="0" y="0" width="208.855" height="183.79201" xlink:href="#g361"/>
    <path d="m 0.742,-2.002 c -0.147,0.042 -0.168,0.259 -0.014,0.308 0.042,0.014 0.084,0.007 0.126,0.007 h 3.955 c 0.091,0 0.224,0.028 0.301,-0.042 C 5.201,-1.82 5.152,-1.981 5.026,-2.002 4.942,-2.023 4.844,-2.009 4.753,-2.009 H 0.868 c -0.042,0 -0.084,-0.007 -0.126,0.007 z" id="g00"/>
    <path d="M 1.26,-3.46 0.525,0 c 0.85,-0.005 1.745,0.01 2.565,-0.005 0.04,-0.09 0.055,-0.2 0.075,-0.305 H 0.97 l 0.285,-1.34 c 0.645,-0.005 1.335,0.01 1.95,-0.005 0.04,-0.08 0.055,-0.19 0.075,-0.29 H 1.32 c 0.085,-0.405 0.175,-0.81 0.255,-1.22 h 2.12 L 3.755,-3.46 H 1.26 z" id="g169"/>
    <path d="m 0.535,-2.36 c 0.055,0.105 0.13,0.2 0.195,0.295 0.04,0.06 0.48,0.72 0.5,0.745 0.02,0.025 0.055,0.065 0.055,0.095 0,0.035 -0.05,0.07 -0.075,0.09 -0.225,0.21 -1.175,1.1 -1.205,1.135 0.13,0 0.26,0 0.38,-0.005 L 0.49,-0.1 1.42,-1.03 c 0.2,0.345 0.4,0.69 0.62,1.02 C 2.16,0.005 2.3,0 2.43,0 2.37,-0.1 1.69,-1.1 1.675,-1.125 1.66,-1.15 1.625,-1.185 1.63,-1.215 1.635,-1.25 1.685,-1.28 1.705,-1.3 1.78,-1.375 1.86,-1.445 1.94,-1.52 c 0.075,-0.07 0.87,-0.81 0.895,-0.84 -0.13,0 -0.26,0 -0.385,0.005 -0.325,0.29 -0.625,0.605 -0.945,0.9 C 1.31,-1.755 1.13,-2.07 0.92,-2.355 0.795,-2.36 0.665,-2.36 0.535,-2.36 z" id="g1120"/>
    <path d="m 0.58,-2.36 c 0.01,0.07 0.03,0.14 0.045,0.21 0.1,0.49 0.46,2.095 0.46,2.145 C 1.08,0.02 0.95,0.215 0.95,0.215 0.835,0.415 0.675,0.63 0.37,0.595 0.305,0.59 0.235,0.585 0.17,0.57 0.12,0.56 0.07,0.54 0.02,0.53 L -0.015,0.84 C 0.15,0.865 0.42,0.895 0.57,0.85 0.885,0.765 1.11,0.425 1.26,0.185 l 0.245,-0.39 c 0.135,-0.22 1.28,-2.035 1.35,-2.155 -0.12,0 -0.24,-0.005 -0.345,0.01 -0.125,0.17 -0.225,0.36 -0.34,0.535 -0.285,0.485 -0.605,0.93 -0.855,1.45 H 1.31 C 1.24,-1.085 1.06,-1.695 0.935,-2.36 H 0.58 z" id="g1121"/>
    <use id="g269" x="0" y="0" width="208.855" height="183.79201" xlink:href="#g169"/>
    <use id="g2120" x="0" y="0" width="208.855" height="183.79201" xlink:href="#g1120"/>
    <use id="g2121" x="0" y="0" width="208.855" height="183.79201" xlink:href="#g1121"/>
  </defs>
  <g transform="translate(-151.36731,-2.1893)" id="g22613">
    <path d="m 208.7011,87.0334 48.37,0" id="path22340" style="fill:none;stroke:#000000;stroke-width:0.51214999;stroke-linecap:round;stroke-linejoin:round;stroke-miterlimit:10.03750038"/>
    <path d="m 232.8861,111.2182 0,-48.3696" id="path22344" style="fill:none;stroke:#000000;stroke-width:0.51214999;stroke-linecap:round;stroke-linejoin:round;stroke-miterlimit:10.03750038"/>
    <path d="m 208.7011,111.2182 48.37,-48.3696" id="path22348" style="fill:none;stroke:#000000;stroke-width:1.42263997;stroke-linecap:round;stroke-linejoin:round;stroke-miterlimit:10.03750038"/>
    <use transform="translate(260.086,88.6259)" id="use22350" x="0" y="0" width="208.855" height="183.79201" xlink:href="#g2120"/>
    <use transform="translate(230.78,58.6104)" id="use22352" x="0" y="0" width="208.855" height="183.79201" xlink:href="#g2121"/>
    <use transform="translate(221.69,122.615)" id="use22354" x="0" y="0" width="208.855" height="183.79201" xlink:href="#g269"/>
    <use transform="translate(226.765,123.49)" id="use22356" x="0" y="0" width="208.855" height="183.79201" xlink:href="#g1121"/>
    <use transform="translate(232.345,122.615)" id="use22358" x="0" y="0" width="208.855" height="183.79201" xlink:href="#g461"/>
    <use transform="translate(240.195,122.615)" id="use22360" x="0" y="0" width="208.855" height="183.79201" xlink:href="#g449"/>
    <use transform="translate(221.783,134.255)" id="use22362" x="0" y="0" width="208.855" height="183.79201" xlink:href="#g269"/>
    <use transform="translate(226.858,135.13)" id="use22364" x="0" y="0" width="208.855" height="183.79201" xlink:href="#g1120"/>
    <use transform="translate(232.345,134.255)" id="use22366" x="0" y="0" width="208.855" height="183.79201" xlink:href="#g461"/>
    <use transform="translate(240.195,134.255)" id="use22368" x="0" y="0" width="208.855" height="183.79201" xlink:href="#g449"/>
  </g>
</svg>
