<?xml version="1.0" encoding="UTF-8"?>
<svg xmlns="http://www.w3.org/2000/svg" xmlns:xlink="http://www.w3.org/1999/xlink" width="219pt" height="226pt" viewBox="0 0 158 163" version="1.1">
<defs>
<clipPath id="clip1">
  <path d="M -226 666 L 386 666 L 386 -126 L -226 -126 L -226 666 Z M -226 666 "/>
</clipPath>
<clipPath id="clip2">
  <path d="M -0.453125 163.15625 L 159.710938 163.15625 L 159.710938 -1.199219 L -0.453125 -1.199219 L -0.453125 163.15625 Z M -0.453125 163.15625 "/>
</clipPath>
</defs>
<g id="surface0">
<g clip-path="url(#clip1)" clip-rule="nonzero">
<g clip-path="url(#clip2)" clip-rule="nonzero">
<path style="fill:none;stroke-width:7.5;stroke-linecap:butt;stroke-linejoin:miter;stroke:rgb(0%,0%,0%);stroke-opacity:1;stroke-miterlimit:4;" d="M 405.964319 1420.007773 C 405.964319 1368.923976 364.545024 1327.504681 313.461226 1327.504681 C 262.377429 1327.504681 220.958134 1368.923976 220.958134 1420.007773 C 220.958134 1471.091571 262.377429 1512.510866 313.461226 1512.510866 C 364.545024 1512.510866 405.964319 1471.091571 405.964319 1420.007773 Z M 405.964319 1420.007773 " transform="matrix(0.104684,0,0,-0.104684,-0.455,163.156)"/>
<path style="fill:none;stroke-width:7.5;stroke-linecap:butt;stroke-linejoin:miter;stroke:rgb(0%,0%,0%);stroke-opacity:1;stroke-miterlimit:4;" d="M 591.082448 1420.007773 C 591.082448 1368.923976 549.663153 1327.504681 498.579355 1327.504681 C 447.495558 1327.504681 406.076263 1368.923976 406.076263 1420.007773 C 406.076263 1471.091571 447.495558 1512.510866 498.579355 1512.510866 C 549.663153 1512.510866 591.082448 1471.091571 591.082448 1420.007773 Z M 591.082448 1420.007773 " transform="matrix(0.104684,0,0,-0.104684,-0.455,163.156)"/>
<path style="fill:none;stroke-width:7.5;stroke-linecap:butt;stroke-linejoin:miter;stroke:rgb(0%,0%,0%);stroke-opacity:1;stroke-miterlimit:4;" d="M 776.200577 1420.007773 C 776.200577 1368.923976 734.781282 1327.504681 683.697485 1327.504681 C 632.613687 1327.504681 591.194392 1368.923976 591.194392 1420.007773 C 591.194392 1471.091571 632.613687 1512.510866 683.697485 1512.510866 C 734.781282 1512.510866 776.200577 1471.091571 776.200577 1420.007773 Z M 776.200577 1420.007773 " transform="matrix(0.104684,0,0,-0.104684,-0.455,163.156)"/>
<path style="fill:none;stroke-width:7.5;stroke-linecap:butt;stroke-linejoin:miter;stroke:rgb(0%,0%,0%);stroke-opacity:1;stroke-miterlimit:4;" d="M 961.318707 1420.007773 C 961.318707 1368.923976 919.899412 1327.504681 868.815614 1327.504681 C 817.731817 1327.504681 776.312521 1368.923976 776.312521 1420.007773 C 776.312521 1471.091571 817.731817 1512.510866 868.815614 1512.510866 C 919.899412 1512.510866 961.318707 1471.091571 961.318707 1420.007773 Z M 961.318707 1420.007773 " transform="matrix(0.104684,0,0,-0.104684,-0.455,163.156)"/>
<path style="fill:none;stroke-width:7.5;stroke-linecap:butt;stroke-linejoin:miter;stroke:rgb(0%,0%,0%);stroke-opacity:1;stroke-miterlimit:4;" d="M 305.363941 1259.442704 C 305.363941 1208.358906 263.944645 1166.939611 212.860848 1166.939611 C 161.77705 1166.939611 120.357755 1208.358906 120.357755 1259.442704 C 120.357755 1310.526501 161.77705 1351.945796 212.860848 1351.945796 C 263.944645 1351.945796 305.363941 1310.526501 305.363941 1259.442704 Z M 305.363941 1259.442704 " transform="matrix(0.104684,0,0,-0.104684,-0.455,163.156)"/>
<path style="fill:none;stroke-width:7.5;stroke-linecap:butt;stroke-linejoin:miter;stroke:rgb(0%,0%,0%);stroke-opacity:1;stroke-miterlimit:4;" d="M 386.038279 1093.765523 C 386.038279 1044.47283 346.111571 1004.546122 296.818879 1004.546122 C 247.563501 1004.546122 207.599478 1044.47283 207.599478 1093.765523 C 207.599478 1143.020901 247.563501 1182.984924 296.818879 1182.984924 C 346.111571 1182.984924 386.038279 1143.020901 386.038279 1093.765523 Z M 386.038279 1093.765523 " transform="matrix(0.104684,0,0,-0.104684,-0.455,163.156)"/>
<path style="fill:none;stroke-width:7.5;stroke-linecap:butt;stroke-linejoin:miter;stroke:rgb(0%,0%,0%);stroke-opacity:1;stroke-miterlimit:4;" d="M 429.621826 925.924091 C 429.621826 879.691202 392.120572 842.189948 345.850369 842.189948 C 299.61748 842.189948 262.116226 879.691202 262.116226 925.924091 C 262.116226 972.194294 299.61748 1009.695548 345.850369 1009.695548 C 392.120572 1009.695548 429.621826 972.194294 429.621826 925.924091 Z M 429.621826 925.924091 " transform="matrix(0.104684,0,0,-0.104684,-0.455,163.156)"/>
<path style="fill:none;stroke-width:7.5;stroke-linecap:butt;stroke-linejoin:miter;stroke:rgb(0%,0%,0%);stroke-opacity:1;stroke-miterlimit:4;" d="M 321.7824 798.046681 C 321.7824 751.104813 283.758741 713.043839 236.816873 713.043839 C 189.875005 713.043839 151.814031 751.104813 151.814031 798.046681 C 151.814031 844.988549 189.875005 883.049523 236.816873 883.049523 C 283.758741 883.049523 321.7824 844.988549 321.7824 798.046681 Z M 321.7824 798.046681 " transform="matrix(0.104684,0,0,-0.104684,-0.455,163.156)"/>
<path style="fill:none;stroke-width:7.5;stroke-linecap:butt;stroke-linejoin:miter;stroke:rgb(0%,0%,0%);stroke-opacity:1;stroke-miterlimit:4;" d="M 513.057451 778.046012 C 513.057451 731.104144 474.996477 693.04317 428.05461 693.04317 C 381.112742 693.04317 343.051768 731.104144 343.051768 778.046012 C 343.051768 824.98788 381.112742 863.048854 428.05461 863.048854 C 474.996477 863.048854 513.057451 824.98788 513.057451 778.046012 Z M 513.057451 778.046012 " transform="matrix(0.104684,0,0,-0.104684,-0.455,163.156)"/>
<path style="fill:none;stroke-width:7.5;stroke-linecap:butt;stroke-linejoin:miter;stroke:rgb(0%,0%,0%);stroke-opacity:1;stroke-miterlimit:4;" d="M 203.047087 651.810449 C 203.047087 604.868581 164.986113 566.807607 118.044245 566.807607 C 71.102377 566.807607 33.041403 604.868581 33.041403 651.810449 C 33.041403 698.752316 71.102377 736.81329 118.044245 736.81329 C 164.986113 736.81329 203.047087 698.752316 203.047087 651.810449 Z M 203.047087 651.810449 " transform="matrix(0.104684,0,0,-0.104684,-0.455,163.156)"/>
<path style="fill:none;stroke-width:7.5;stroke-linecap:butt;stroke-linejoin:miter;stroke:rgb(0%,0%,0%);stroke-opacity:1;stroke-miterlimit:4;" d="M 247.227669 982.119999 C 247.227669 935.178131 209.166695 897.117157 162.224827 897.117157 C 115.282959 897.117157 77.221985 935.178131 77.221985 982.119999 C 77.221985 1029.061867 115.282959 1067.122841 162.224827 1067.122841 C 209.166695 1067.122841 247.227669 1029.061867 247.227669 982.119999 Z M 247.227669 982.119999 " transform="matrix(0.104684,0,0,-0.104684,-0.455,163.156)"/>
<path style="fill:none;stroke-width:7.5;stroke-linecap:butt;stroke-linejoin:miter;stroke:rgb(0%,0%,0%);stroke-opacity:1;stroke-miterlimit:4;" d="M 643.658833 931.073516 C 643.658833 884.131649 605.597859 846.070675 558.655991 846.070675 C 511.714123 846.070675 473.653149 884.131649 473.653149 931.073516 C 473.653149 978.015384 511.714123 1016.076358 558.655991 1016.076358 C 605.597859 1016.076358 643.658833 978.015384 643.658833 931.073516 Z M 643.658833 931.073516 " transform="matrix(0.104684,0,0,-0.104684,-0.455,163.156)"/>
<path style="fill:none;stroke-width:7.5;stroke-linecap:butt;stroke-linejoin:miter;stroke:rgb(0%,0%,0%);stroke-opacity:1;stroke-miterlimit:4;" d="M 850.009015 931.073516 C 850.009015 884.131649 811.948041 846.070675 765.006173 846.070675 C 718.064305 846.070675 680.003331 884.131649 680.003331 931.073516 C 680.003331 978.015384 718.064305 1016.076358 765.006173 1016.076358 C 811.948041 1016.076358 850.009015 978.015384 850.009015 931.073516 Z M 850.009015 931.073516 " transform="matrix(0.104684,0,0,-0.104684,-0.455,163.156)"/>
<path style="fill:none;stroke-width:7.5;stroke-linecap:butt;stroke-linejoin:miter;stroke:rgb(0%,0%,0%);stroke-opacity:1;stroke-miterlimit:4;" d="M 1463.798193 953.648898 C 1463.798193 906.669716 1425.774533 868.646056 1378.795351 868.646056 C 1331.890798 868.646056 1293.792509 906.669716 1293.792509 953.648898 C 1293.792509 1000.590766 1331.890798 1038.614425 1378.795351 1038.614425 C 1425.774533 1038.614425 1463.798193 1000.590766 1463.798193 953.648898 Z M 1463.798193 953.648898 " transform="matrix(0.104684,0,0,-0.104684,-0.455,163.156)"/>
<path style="fill:none;stroke-width:7.5;stroke-linecap:butt;stroke-linejoin:miter;stroke:rgb(0%,0%,0%);stroke-opacity:1;stroke-miterlimit:4;" d="M 1490.478189 626.958871 C 1490.478189 580.017004 1452.417215 541.95603 1405.475347 541.95603 C 1358.533479 541.95603 1320.472505 580.017004 1320.472505 626.958871 C 1320.472505 673.900739 1358.533479 711.961713 1405.475347 711.961713 C 1452.417215 711.961713 1490.478189 673.900739 1490.478189 626.958871 Z M 1490.478189 626.958871 " transform="matrix(0.104684,0,0,-0.104684,-0.455,163.156)"/>
<path style="fill:none;stroke-width:7.5;stroke-linecap:butt;stroke-linejoin:miter;stroke:rgb(0%,0%,0%);stroke-opacity:1;stroke-miterlimit:4;" d="M 1508.799697 326.986156 C 1508.799697 280.006973 1470.776038 241.983314 1423.796855 241.983314 C 1376.892302 241.983314 1338.794013 280.006973 1338.794013 326.986156 C 1338.794013 373.890709 1376.892302 411.988998 1423.796855 411.988998 C 1470.776038 411.988998 1508.799697 373.890709 1508.799697 326.986156 Z M 1508.799697 326.986156 " transform="matrix(0.104684,0,0,-0.104684,-0.455,163.156)"/>
<path style="fill:none;stroke-width:7.5;stroke-linecap:butt;stroke-linejoin:miter;stroke:rgb(0%,0%,0%);stroke-opacity:1;stroke-miterlimit:4;" d="M 1066.172959 919.207448 C 1066.172959 872.26558 1028.111985 834.204606 981.170117 834.204606 C 934.228249 834.204606 896.167275 872.26558 896.167275 919.207448 C 896.167275 966.149316 934.228249 1004.21029 981.170117 1004.21029 C 1028.111985 1004.21029 1066.172959 966.149316 1066.172959 919.207448 Z M 1066.172959 919.207448 " transform="matrix(0.104684,0,0,-0.104684,-0.455,163.156)"/>
<path style="fill:none;stroke-width:7.5;stroke-linecap:butt;stroke-linejoin:miter;stroke:rgb(0%,0%,0%);stroke-opacity:1;stroke-miterlimit:4;" d="M 382.903846 635.951709 C 382.903846 589.009842 344.842872 550.948868 297.901004 550.948868 C 250.959137 550.948868 212.898163 589.009842 212.898163 635.951709 C 212.898163 682.893577 250.959137 720.954551 297.901004 720.954551 C 344.842872 720.954551 382.903846 682.893577 382.903846 635.951709 Z M 382.903846 635.951709 " transform="matrix(0.104684,0,0,-0.104684,-0.455,163.156)"/>
<path style="fill:none;stroke-width:7.5;stroke-linecap:butt;stroke-linejoin:miter;stroke:rgb(0%,0%,0%);stroke-opacity:1;stroke-miterlimit:4;" d="M 574.141583 620.951208 C 574.141583 574.00934 536.080609 535.948366 489.138741 535.948366 C 442.196873 535.948366 404.173214 574.00934 404.173214 620.951208 C 404.173214 667.893076 442.196873 705.95405 489.138741 705.95405 C 536.080609 705.95405 574.141583 667.893076 574.141583 620.951208 Z M 574.141583 620.951208 " transform="matrix(0.104684,0,0,-0.104684,-0.455,163.156)"/>
<path style="fill:none;stroke-width:7.5;stroke-linecap:butt;stroke-linejoin:miter;stroke:rgb(0%,0%,0%);stroke-opacity:1;stroke-miterlimit:4;" d="M 1111.584925 613.898733 C 1111.584925 566.956865 1073.523951 528.895891 1026.582083 528.895891 C 979.640215 528.895891 941.616556 566.956865 941.616556 613.898733 C 941.616556 660.840601 979.640215 698.901575 1026.582083 698.901575 C 1073.523951 698.901575 1111.584925 660.840601 1111.584925 613.898733 Z M 1111.584925 613.898733 " transform="matrix(0.104684,0,0,-0.104684,-0.455,163.156)"/>
<path style="fill:none;stroke-width:7.5;stroke-linecap:butt;stroke-linejoin:miter;stroke:rgb(0%,0%,0%);stroke-opacity:1;stroke-miterlimit:4;" d="M 1018.596741 472.43878 C 1018.596741 425.496912 980.535767 387.435938 933.631214 387.435938 C 886.652031 387.435938 848.628372 425.496912 848.628372 472.43878 C 848.628372 519.380648 886.652031 557.441622 933.631214 557.441622 C 980.535767 557.441622 1018.596741 519.380648 1018.596741 472.43878 Z M 1018.596741 472.43878 " transform="matrix(0.104684,0,0,-0.104684,-0.455,163.156)"/>
<path style="fill:none;stroke-width:7.5;stroke-linecap:butt;stroke-linejoin:miter;stroke:rgb(0%,0%,0%);stroke-opacity:1;stroke-miterlimit:4;" d="M 1206.364213 472.43878 C 1206.364213 425.496912 1168.265924 387.435938 1121.361371 387.435938 C 1074.382188 387.435938 1036.358529 425.496912 1036.358529 472.43878 C 1036.358529 519.380648 1074.382188 557.441622 1121.361371 557.441622 C 1168.265924 557.441622 1206.364213 519.380648 1206.364213 472.43878 Z M 1206.364213 472.43878 " transform="matrix(0.104684,0,0,-0.104684,-0.455,163.156)"/>
<path style="fill:none;stroke-width:7.5;stroke-linecap:butt;stroke-linejoin:miter;stroke:rgb(0%,0%,0%);stroke-opacity:1;stroke-miterlimit:4;" d="M 666.905879 480.200234 C 666.905879 433.258366 628.844905 395.197392 581.903037 395.197392 C 534.961169 395.197392 496.900195 433.258366 496.900195 480.200234 C 496.900195 527.142101 534.961169 565.203075 581.903037 565.203075 C 628.844905 565.203075 666.905879 527.142101 666.905879 480.200234 Z M 666.905879 480.200234 " transform="matrix(0.104684,0,0,-0.104684,-0.455,163.156)"/>
<path style="fill:none;stroke-width:7.5;stroke-linecap:butt;stroke-linejoin:miter;stroke:rgb(0%,0%,0%);stroke-opacity:1;stroke-miterlimit:4;" d="M 470.406772 487.178079 C 470.406772 440.236211 432.345798 402.212552 385.40393 402.212552 C 338.462062 402.212552 300.401088 440.236211 300.401088 487.178079 C 300.401088 534.157261 338.462062 572.180921 385.40393 572.180921 C 432.345798 572.180921 470.406772 534.157261 470.406772 487.178079 Z M 470.406772 487.178079 " transform="matrix(0.104684,0,0,-0.104684,-0.455,163.156)"/>
<path style="fill:none;stroke-width:7.5;stroke-linecap:butt;stroke-linejoin:miter;stroke:rgb(0%,0%,0%);stroke-opacity:1;stroke-miterlimit:4;" d="M 282.900503 493.446945 C 282.900503 446.505077 244.839529 408.444103 197.897661 408.444103 C 150.955793 408.444103 112.894819 446.505077 112.894819 493.446945 C 112.894819 540.388813 150.955793 578.449787 197.897661 578.449787 C 244.839529 578.449787 282.900503 540.388813 282.900503 493.446945 Z M 282.900503 493.446945 " transform="matrix(0.104684,0,0,-0.104684,-0.455,163.156)"/>
<path style="fill:none;stroke-width:7.5;stroke-linecap:butt;stroke-linejoin:miter;stroke:rgb(0%,0%,0%);stroke-opacity:1;stroke-miterlimit:4;" d="M 755.714818 729.984704 C 755.714818 678.900907 714.295523 637.481611 663.211725 637.481611 C 612.127928 637.481611 570.708633 678.900907 570.708633 729.984704 C 570.708633 781.068501 612.127928 822.487797 663.211725 822.487797 C 714.295523 822.487797 755.714818 781.068501 755.714818 729.984704 Z M 755.714818 729.984704 " transform="matrix(0.104684,0,0,-0.104684,-0.455,163.156)"/>
<path style="fill:none;stroke-width:7.5;stroke-linecap:butt;stroke-linejoin:miter;stroke:rgb(0%,0%,0%);stroke-opacity:1;stroke-miterlimit:4;" d="M 380.627651 340.270182 C 380.627651 289.186385 339.208356 247.76709 288.124558 247.76709 C 237.040761 247.76709 195.621466 289.186385 195.621466 340.270182 C 195.621466 391.35398 237.040761 432.773275 288.124558 432.773275 C 339.208356 432.773275 380.627651 391.35398 380.627651 340.270182 Z M 380.627651 340.270182 " transform="matrix(0.104684,0,0,-0.104684,-0.455,163.156)"/>
<path style="fill:none;stroke-width:7.5;stroke-linecap:butt;stroke-linejoin:miter;stroke:rgb(0%,0%,0%);stroke-opacity:1;stroke-miterlimit:4;" d="M 764.633027 327.769764 C 764.633027 278.06661 722.056976 237.766755 669.517906 237.766755 C 616.978836 237.766755 574.365471 278.06661 574.365471 327.769764 C 574.365471 377.472918 616.978836 417.772773 669.517906 417.772773 C 722.056976 417.772773 764.633027 377.472918 764.633027 327.769764 Z M 764.633027 327.769764 " transform="matrix(0.104684,0,0,-0.104684,-0.455,163.156)"/>
<path style="fill:none;stroke-width:7.5;stroke-linecap:butt;stroke-linejoin:miter;stroke:rgb(0%,0%,0%);stroke-opacity:1;stroke-miterlimit:4;" d="M 1216.849638 167.652471 C 1216.849638 117.949317 1175.281084 77.649462 1124.010713 77.649462 C 1072.740342 77.649462 1031.171788 117.949317 1031.171788 167.652471 C 1031.171788 217.355625 1072.740342 257.65548 1124.010713 257.65548 C 1175.281084 257.65548 1216.849638 217.355625 1216.849638 167.652471 Z M 1216.849638 167.652471 " transform="matrix(0.104684,0,0,-0.104684,-0.455,163.156)"/>
<path style="fill:none;stroke-width:7.5;stroke-linecap:butt;stroke-linejoin:miter;stroke:rgb(0%,0%,0%);stroke-opacity:1;stroke-miterlimit:4;" d="M 944.303213 337.993987 C 944.303213 288.290832 903.854099 251.946334 854.300203 247.990978 C 800.305861 243.662475 764.297194 288.290832 764.297194 337.993987 C 764.297194 387.697141 804.597049 427.996996 854.300203 427.996996 C 904.040672 427.996996 944.303213 387.697141 944.303213 337.993987 Z M 944.303213 337.993987 " transform="matrix(0.104684,0,0,-0.104684,-0.455,163.156)"/>
<path style="fill:none;stroke-width:7.5;stroke-linecap:butt;stroke-linejoin:miter;stroke:rgb(0%,0%,0%);stroke-opacity:1;stroke-miterlimit:4;" d="M 571.865388 334.635665 C 571.865388 282.507057 529.62517 240.266839 477.496561 240.266839 C 425.367953 240.266839 383.127734 282.507057 383.127734 334.635665 C 383.127734 386.764274 425.367953 429.004492 477.496561 429.004492 C 529.62517 429.004492 571.865388 386.764274 571.865388 334.635665 Z M 571.865388 334.635665 " transform="matrix(0.104684,0,0,-0.104684,-0.455,163.156)"/>
<path style="fill:none;stroke-width:7.5;stroke-linecap:butt;stroke-linejoin:miter;stroke:rgb(0%,0%,0%);stroke-opacity:1;stroke-miterlimit:4;" d="M 949.527268 724.238243 C 949.527268 673.154446 908.107973 631.735151 857.024175 631.735151 C 805.940378 631.735151 764.521082 673.154446 764.521082 724.238243 C 764.521082 775.322041 805.940378 816.741336 857.024175 816.741336 C 908.107973 816.741336 949.527268 775.322041 949.527268 724.238243 Z M 949.527268 724.238243 " transform="matrix(0.104684,0,0,-0.104684,-0.455,163.156)"/>
<path style="fill:none;stroke-width:7.5;stroke-linecap:butt;stroke-linejoin:miter;stroke:rgb(0%,0%,0%);stroke-opacity:1;stroke-miterlimit:4;" d="M 853.815113 559.195412 C 853.815113 508.111614 812.395817 466.692319 761.31202 466.692319 C 710.228223 466.692319 668.808927 508.111614 668.808927 559.195412 C 668.808927 610.279209 710.228223 651.698505 761.31202 651.698505 C 812.395817 651.698505 853.815113 610.279209 853.815113 559.195412 Z M 853.815113 559.195412 " transform="matrix(0.104684,0,0,-0.104684,-0.455,163.156)"/>
<path style="fill:none;stroke-width:7.5;stroke-linecap:butt;stroke-linejoin:miter;stroke:rgb(0%,0%,0%);stroke-opacity:1;stroke-miterlimit:4;" d="M 194.987116 335.605847 C 194.987116 284.52205 153.605135 243.102754 102.484023 243.102754 C 51.437541 243.102754 10.018245 284.52205 10.018245 335.605847 C 10.018245 386.689645 51.437541 428.10894 102.484023 428.10894 C 153.605135 428.10894 194.987116 386.689645 194.987116 335.605847 Z M 194.987116 335.605847 " transform="matrix(0.104684,0,0,-0.104684,-0.455,163.156)"/>
<path style="fill:none;stroke-width:7.5;stroke-linecap:butt;stroke-linejoin:miter;stroke:rgb(0%,0%,0%);stroke-opacity:1;stroke-miterlimit:4;" d="M 290.176866 176.906512 C 290.176866 125.822714 248.75757 84.403419 197.673773 84.403419 C 146.589976 84.403419 105.17068 125.822714 105.17068 176.906512 C 105.17068 227.990309 146.589976 269.409604 197.673773 269.409604 C 248.75757 269.409604 290.176866 227.990309 290.176866 176.906512 Z M 290.176866 176.906512 " transform="matrix(0.104684,0,0,-0.104684,-0.455,163.156)"/>
<path style="fill:none;stroke-width:7.5;stroke-linecap:butt;stroke-linejoin:miter;stroke:rgb(0%,0%,0%);stroke-opacity:1;stroke-miterlimit:4;" d="M 472.235191 176.906512 C 472.235191 125.822714 430.815896 84.403419 379.732099 84.403419 C 328.648301 84.403419 287.229006 125.822714 287.229006 176.906512 C 287.229006 227.990309 328.648301 269.409604 379.732099 269.409604 C 430.815896 269.409604 472.235191 227.990309 472.235191 176.906512 Z M 472.235191 176.906512 " transform="matrix(0.104684,0,0,-0.104684,-0.455,163.156)"/>
<path style="fill:none;stroke-width:7.5;stroke-linecap:butt;stroke-linejoin:miter;stroke:rgb(0%,0%,0%);stroke-opacity:1;stroke-miterlimit:4;" d="M 662.204229 171.943659 C 662.204229 120.822547 620.822248 79.440566 569.701136 79.440566 C 518.654654 79.440566 477.235358 120.822547 477.235358 171.943659 C 477.235358 222.990142 518.654654 264.409437 569.701136 264.409437 C 620.822248 264.409437 662.204229 222.990142 662.204229 171.943659 Z M 662.204229 171.943659 " transform="matrix(0.104684,0,0,-0.104684,-0.455,163.156)"/>
<path style="fill:none;stroke-width:7.5;stroke-linecap:butt;stroke-linejoin:miter;stroke:rgb(0%,0%,0%);stroke-opacity:1;stroke-miterlimit:4;" d="M 1031.731509 172.913841 C 1031.731509 121.830043 990.312213 80.410748 939.228416 80.410748 C 888.144619 80.410748 850.717994 121.830043 850.717994 172.913841 C 850.717994 223.997638 888.144619 265.416933 939.228416 265.416933 C 990.312213 265.416933 1031.731509 223.997638 1031.731509 172.913841 Z M 1031.731509 172.913841 " transform="matrix(0.104684,0,0,-0.104684,-0.455,163.156)"/>
<path style="fill:none;stroke-width:7.5;stroke-linecap:butt;stroke-linejoin:miter;stroke:rgb(0%,0%,0%);stroke-opacity:1;stroke-miterlimit:4;" d="M 852.061323 167.950988 C 852.061323 116.867191 810.679342 75.447896 759.55823 75.447896 C 708.511747 75.447896 667.092452 116.867191 667.092452 167.950988 C 667.092452 219.034786 708.511747 260.454081 759.55823 260.454081 C 818.47811 260.454081 852.061323 219.034786 852.061323 167.950988 Z M 852.061323 167.950988 " transform="matrix(0.104684,0,0,-0.104684,-0.455,163.156)"/>
<path style="fill:none;stroke-width:7.5;stroke-linecap:butt;stroke-linejoin:miter;stroke:rgb(0%,0%,0%);stroke-opacity:1;stroke-miterlimit:4;" d="M 1310.5468 324.672646 C 1310.5468 273.588848 1269.127505 232.169553 1218.043708 232.169553 C 1166.95991 232.169553 1125.540615 273.588848 1125.540615 324.672646 C 1125.540615 375.756443 1166.95991 417.175738 1218.043708 417.175738 C 1269.127505 417.175738 1310.5468 375.756443 1310.5468 324.672646 Z M 1310.5468 324.672646 " transform="matrix(0.104684,0,0,-0.104684,-0.455,163.156)"/>
<path style="fill:none;stroke-width:7.5;stroke-linecap:butt;stroke-linejoin:miter;stroke:rgb(0%,0%,0%);stroke-opacity:1;stroke-miterlimit:4;" d="M 1419.468352 175.264666 C 1419.468352 124.180868 1378.049057 82.798888 1326.96526 82.798888 C 1275.881462 82.798888 1234.462167 124.180868 1234.462167 175.264666 C 1234.462167 226.348463 1275.881462 267.767758 1326.96526 267.767758 C 1378.049057 267.767758 1419.468352 226.348463 1419.468352 175.264666 Z M 1419.468352 175.264666 " transform="matrix(0.104684,0,0,-0.104684,-0.455,163.156)"/>
<path style="fill:none;stroke-width:7.5;stroke-linecap:butt;stroke-linejoin:miter;stroke:rgb(0%,0%,0%);stroke-opacity:1;stroke-miterlimit:4;" d="M 1122.667385 324.262184 C 1122.667385 276.909855 1082.442159 238.513049 1032.813634 238.513049 C 983.185109 238.513049 942.959884 276.909855 942.959884 324.262184 C 942.959884 371.651828 983.185109 410.048634 1032.813634 410.048634 C 1082.442159 410.048634 1122.667385 371.651828 1122.667385 324.262184 Z M 1122.667385 324.262184 " transform="matrix(0.104684,0,0,-0.104684,-0.455,163.156)"/>
<path style="fill:none;stroke-width:7.5;stroke-linecap:butt;stroke-linejoin:miter;stroke:rgb(0%,0%,0%);stroke-opacity:1;stroke-miterlimit:4;" d="M 1414.020409 470.68499 C 1414.020409 420.981836 1373.757869 380.719296 1324.0174 380.719296 C 1274.35156 380.719296 1234.051706 420.981836 1234.051706 470.68499 C 1234.051706 520.425459 1274.35156 560.687999 1324.0174 560.687999 C 1373.757869 560.687999 1414.020409 520.425459 1414.020409 470.68499 Z M 1414.020409 470.68499 " transform="matrix(0.104684,0,0,-0.104684,-0.455,163.156)"/>
<path style="fill:none;stroke-width:7.5;stroke-linecap:butt;stroke-linejoin:miter;stroke:rgb(0%,0%,0%);stroke-opacity:1;stroke-miterlimit:4;" d="M 587.574868 1095.743201 C 587.574868 1044.659404 546.155573 1003.240108 495.071776 1003.240108 C 443.987978 1003.240108 402.568683 1044.659404 402.568683 1095.743201 C 402.568683 1146.826998 443.987978 1188.246294 495.071776 1188.246294 C 546.155573 1188.246294 587.574868 1146.826998 587.574868 1095.743201 Z M 587.574868 1095.743201 " transform="matrix(0.104684,0,0,-0.104684,-0.455,163.156)"/>
<path style="fill:none;stroke-width:7.5;stroke-linecap:butt;stroke-linejoin:miter;stroke:rgb(0%,0%,0%);stroke-opacity:1;stroke-miterlimit:4;" d="M 778.402144 1095.743201 C 778.402144 1044.659404 736.982848 1003.240108 685.899051 1003.240108 C 634.815254 1003.240108 593.395958 1044.659404 593.395958 1095.743201 C 593.395958 1146.826998 634.815254 1188.246294 685.899051 1188.246294 C 736.982848 1188.246294 778.402144 1146.826998 778.402144 1095.743201 Z M 778.402144 1095.743201 " transform="matrix(0.104684,0,0,-0.104684,-0.455,163.156)"/>
<path style="fill:none;stroke-width:7.5;stroke-linecap:butt;stroke-linejoin:miter;stroke:rgb(0%,0%,0%);stroke-opacity:1;stroke-miterlimit:4;" d="M 962.475462 1095.743201 C 962.475462 1044.659404 921.056167 1003.240108 869.972369 1003.240108 C 818.888572 1003.240108 777.469277 1044.659404 777.469277 1095.743201 C 777.469277 1146.826998 818.888572 1188.246294 869.972369 1188.246294 C 921.056167 1188.246294 962.475462 1146.826998 962.475462 1095.743201 Z M 962.475462 1095.743201 " transform="matrix(0.104684,0,0,-0.104684,-0.455,163.156)"/>
<path style="fill:none;stroke-width:7.5;stroke-linecap:butt;stroke-linejoin:miter;stroke:rgb(0%,0%,0%);stroke-opacity:1;stroke-miterlimit:4;" d="M 1146.884612 1095.743201 C 1146.884612 1044.659404 1105.502632 1003.240108 1054.38152 1003.240108 C 1003.335037 1003.240108 961.878427 1044.659404 961.878427 1095.743201 C 961.878427 1146.826998 1003.335037 1188.246294 1054.38152 1188.246294 C 1105.502632 1188.246294 1146.884612 1146.826998 1146.884612 1095.743201 Z M 1146.884612 1095.743201 " transform="matrix(0.104684,0,0,-0.104684,-0.455,163.156)"/>
<path style="fill:none;stroke-width:7.5;stroke-linecap:butt;stroke-linejoin:miter;stroke:rgb(0%,0%,0%);stroke-opacity:1;stroke-miterlimit:4;" d="M 492.459748 1259.442704 C 492.459748 1208.358906 451.040453 1166.939611 399.956655 1166.939611 C 348.872858 1166.939611 307.453563 1208.358906 307.453563 1259.442704 C 307.453563 1310.526501 348.872858 1351.945796 399.956655 1351.945796 C 451.040453 1351.945796 492.459748 1310.526501 492.459748 1259.442704 Z M 492.459748 1259.442704 " transform="matrix(0.104684,0,0,-0.104684,-0.455,163.156)"/>
<path style="fill:none;stroke-width:7.5;stroke-linecap:butt;stroke-linejoin:miter;stroke:rgb(0%,0%,0%);stroke-opacity:1;stroke-miterlimit:4;" d="M 680.600366 1259.442704 C 680.600366 1208.358906 639.181071 1166.939611 588.097274 1166.939611 C 537.013476 1166.939611 495.594181 1208.358906 495.594181 1259.442704 C 495.594181 1310.526501 537.013476 1351.945796 588.097274 1351.945796 C 639.181071 1351.945796 680.600366 1310.526501 680.600366 1259.442704 Z M 680.600366 1259.442704 " transform="matrix(0.104684,0,0,-0.104684,-0.455,163.156)"/>
<path style="fill:none;stroke-width:7.5;stroke-linecap:butt;stroke-linejoin:miter;stroke:rgb(0%,0%,0%);stroke-opacity:1;stroke-miterlimit:4;" d="M 868.70367 1259.442704 C 868.70367 1208.358906 827.284375 1166.939611 776.200577 1166.939611 C 725.11678 1166.939611 683.697485 1208.358906 683.697485 1259.442704 C 683.697485 1310.526501 725.11678 1351.945796 776.200577 1351.945796 C 827.284375 1351.945796 868.70367 1310.526501 868.70367 1259.442704 Z M 868.70367 1259.442704 " transform="matrix(0.104684,0,0,-0.104684,-0.455,163.156)"/>
<path style="fill:none;stroke-width:7.5;stroke-linecap:butt;stroke-linejoin:miter;stroke:rgb(0%,0%,0%);stroke-opacity:1;stroke-miterlimit:4;" d="M 1053.709855 1259.442704 C 1053.709855 1208.358906 1012.29056 1166.939611 961.206763 1166.939611 C 910.122965 1166.939611 868.70367 1208.358906 868.70367 1259.442704 C 868.70367 1310.526501 910.122965 1351.945796 961.206763 1351.945796 C 1012.29056 1351.945796 1053.709855 1310.526501 1053.709855 1259.442704 Z M 1053.709855 1259.442704 " transform="matrix(0.104684,0,0,-0.104684,-0.455,163.156)"/>
<path style="fill:none;stroke-width:7.5;stroke-linecap:butt;stroke-linejoin:miter;stroke:rgb(0%,0%,0%);stroke-opacity:1;stroke-miterlimit:4;" d="M 1147.220444 1420.754067 C 1147.220444 1369.67027 1105.763834 1328.250974 1054.717352 1328.250974 C 1003.59624 1328.250974 962.214259 1369.67027 962.214259 1420.754067 C 962.214259 1471.837864 1003.59624 1513.25716 1054.717352 1513.25716 C 1105.763834 1513.25716 1147.220444 1471.837864 1147.220444 1420.754067 Z M 1147.220444 1420.754067 " transform="matrix(0.104684,0,0,-0.104684,-0.455,163.156)"/>
<path style="fill:none;stroke-width:7.5;stroke-linecap:butt;stroke-linejoin:miter;stroke:rgb(0%,0%,0%);stroke-opacity:1;stroke-miterlimit:4;" d="M 1239.723537 1261.233808 C 1239.723537 1210.187326 1198.304242 1168.76803 1147.220444 1168.76803 C 1096.136647 1168.76803 1054.717352 1210.187326 1054.717352 1261.233808 C 1054.717352 1312.317606 1096.136647 1353.736901 1147.220444 1353.736901 C 1198.304242 1353.736901 1239.723537 1312.317606 1239.723537 1261.233808 Z M 1239.723537 1261.233808 " transform="matrix(0.104684,0,0,-0.104684,-0.455,163.156)"/>
<path style="fill:none;stroke-width:7.5;stroke-linecap:butt;stroke-linejoin:miter;stroke:rgb(0%,0%,0%);stroke-opacity:1;stroke-miterlimit:4;" d="M 1423.796855 1261.233808 C 1423.796855 1210.187326 1382.37756 1168.76803 1331.293763 1168.76803 C 1280.209965 1168.76803 1238.79067 1210.187326 1238.79067 1261.233808 C 1238.79067 1312.317606 1280.209965 1353.736901 1331.293763 1353.736901 C 1382.37756 1353.736901 1423.796855 1312.317606 1423.796855 1261.233808 Z M 1423.796855 1261.233808 " transform="matrix(0.104684,0,0,-0.104684,-0.455,163.156)"/>
<path style="fill:none;stroke-width:7.5;stroke-linecap:butt;stroke-linejoin:miter;stroke:rgb(0%,0%,0%);stroke-opacity:1;stroke-miterlimit:4;" d="M 1353.906459 1090.593775 C 1353.906459 1039.509978 1312.449849 998.090682 1261.403366 998.090682 C 1210.282254 998.090682 1168.900274 1039.509978 1168.900274 1090.593775 C 1168.900274 1141.677573 1210.282254 1183.096868 1261.403366 1183.096868 C 1312.449849 1183.096868 1353.906459 1141.677573 1353.906459 1090.593775 Z M 1353.906459 1090.593775 " transform="matrix(0.104684,0,0,-0.104684,-0.455,163.156)"/>
<path style="fill:none;stroke-width:7.5;stroke-linecap:butt;stroke-linejoin:miter;stroke:rgb(0%,0%,0%);stroke-opacity:1;stroke-miterlimit:4;" d="M 1278.605434 922.640399 C 1278.605434 874.989552 1239.98474 836.368858 1192.371208 836.368858 C 1144.720361 836.368858 1106.099667 874.989552 1106.099667 922.640399 C 1106.099667 970.253931 1144.720361 1008.874625 1192.371208 1008.874625 C 1239.98474 1008.874625 1278.605434 970.253931 1278.605434 922.640399 Z M 1278.605434 922.640399 " transform="matrix(0.104684,0,0,-0.104684,-0.455,163.156)"/>
<path style="fill:none;stroke-width:7.5;stroke-linecap:butt;stroke-linejoin:miter;stroke:rgb(0%,0%,0%);stroke-opacity:1;stroke-miterlimit:4;" d="M 1372.41454 767.560587 C 1372.41454 719.90974 1333.793846 681.289046 1286.180314 681.289046 C 1238.529467 681.289046 1199.908773 719.90974 1199.908773 767.560587 C 1199.908773 815.211434 1238.529467 853.832128 1286.180314 853.832128 C 1333.793846 853.832128 1372.41454 815.211434 1372.41454 767.560587 Z M 1372.41454 767.560587 " transform="matrix(0.104684,0,0,-0.104684,-0.455,163.156)"/>
<path style="fill:none;stroke-width:7.5;stroke-linecap:butt;stroke-linejoin:miter;stroke:rgb(0%,0%,0%);stroke-opacity:1;stroke-miterlimit:4;" d="M 1297.635921 613.189754 C 1297.635921 566.919551 1260.134667 529.418297 1213.864464 529.418297 C 1167.59426 529.418297 1130.130321 566.919551 1130.130321 613.189754 C 1130.130321 659.422643 1167.59426 696.923897 1213.864464 696.923897 C 1260.134667 696.923897 1297.635921 659.422643 1297.635921 613.189754 Z M 1297.635921 613.189754 " transform="matrix(0.104684,0,0,-0.104684,-0.455,163.156)"/>
<path style="fill:none;stroke-width:7.5;stroke-linecap:butt;stroke-linejoin:miter;stroke:rgb(0%,0%,0%);stroke-opacity:1;stroke-miterlimit:4;" d="M 1179.908104 771.32937 C 1179.908104 723.678523 1141.324725 685.057829 1093.673878 685.057829 C 1046.023031 685.057829 1007.402337 723.678523 1007.402337 771.32937 C 1007.402337 818.942902 1046.023031 857.563596 1093.673878 857.563596 C 1141.324725 857.563596 1179.908104 818.942902 1179.908104 771.32937 Z M 1179.908104 771.32937 " transform="matrix(0.104684,0,0,-0.104684,-0.455,163.156)"/>
<path style="fill:none;stroke-width:7.5;stroke-linecap:butt;stroke-linejoin:miter;stroke:rgb(0%,0%,0%);stroke-opacity:1;stroke-miterlimit:4;" d="M 1332.22663 1422.022766 C 1332.22663 1370.938969 1290.807334 1329.519673 1239.723537 1329.519673 C 1188.63974 1329.519673 1147.220444 1370.938969 1147.220444 1422.022766 C 1147.220444 1473.106564 1188.63974 1514.525859 1239.723537 1514.525859 C 1290.807334 1514.525859 1332.22663 1473.106564 1332.22663 1422.022766 Z M 1332.22663 1422.022766 " transform="matrix(0.104684,0,0,-0.104684,-0.455,163.156)"/>
<path style="fill:none;stroke-width:5;stroke-linecap:butt;stroke-linejoin:miter;stroke:rgb(0%,0%,0%);stroke-opacity:1;stroke-dasharray:30,20;stroke-miterlimit:4;" d="M 217.89833 747.149457 C 201.703758 603.375993 189.725746 380.83124 189.725746 9.997946 " transform="matrix(0.104684,0,0,-0.104684,-0.455,163.156)"/>
<path style="fill:none;stroke-width:5;stroke-linecap:butt;stroke-linejoin:miter;stroke:rgb(0%,0%,0%);stroke-opacity:1;stroke-dasharray:30,20;stroke-miterlimit:4;" d="M 313.461226 1553.333126 C 313.461226 1553.333126 328.461728 1352.020426 296.818879 1119.997743 C 281.258657 1006.001395 244.055921 979.433342 217.89833 747.149457 " transform="matrix(0.104684,0,0,-0.104684,-0.455,163.156)"/>
<path style="fill:none;stroke-width:5;stroke-linecap:butt;stroke-linejoin:miter;stroke:rgb(0%,0%,0%);stroke-opacity:1;stroke-dasharray:30,20;stroke-miterlimit:4;" d="M 460.10792 982.455831 C 428.577015 815.808469 379.732099 739.499947 379.732099 9.997946 " transform="matrix(0.104684,0,0,-0.104684,-0.455,163.156)"/>
<path style="fill:none;stroke-width:5;stroke-linecap:butt;stroke-linejoin:miter;stroke:rgb(0%,0%,0%);stroke-opacity:1;stroke-dasharray:30,20;stroke-miterlimit:4;" d="M 499.736111 1557.512371 C 499.736111 1557.512371 502.236194 1342.505182 474.735275 1082.496489 C 470.63066 1043.689222 465.630493 1011.673226 460.10792 982.455831 " transform="matrix(0.104684,0,0,-0.104684,-0.455,163.156)"/>
<path style="fill:none;stroke-width:5;stroke-linecap:butt;stroke-linejoin:miter;stroke:rgb(0%,0%,0%);stroke-opacity:1;stroke-dasharray:30,20;stroke-miterlimit:4;" d="M 659.480257 1037.009894 C 648.920203 935.252761 635.151086 833.532942 617.240039 747.485289 C 554.737949 447.437944 571.865388 9.997946 571.865388 9.997946 " transform="matrix(0.104684,0,0,-0.104684,-0.455,163.156)"/>
<path style="fill:none;stroke-width:5;stroke-linecap:butt;stroke-linejoin:miter;stroke:rgb(0%,0%,0%);stroke-opacity:1;stroke-dasharray:30,20;stroke-miterlimit:4;" d="M 692.205232 1557.512371 C 692.205232 1557.512371 686.384142 1297.093216 659.480257 1037.009894 " transform="matrix(0.104684,0,0,-0.104684,-0.455,163.156)"/>
<path style="fill:none;stroke-width:5;stroke-linecap:butt;stroke-linejoin:miter;stroke:rgb(0%,0%,0%);stroke-opacity:1;stroke-dasharray:30,20;stroke-miterlimit:4;" d="M 866.651363 1139.998412 C 870.046999 1055.55529 875.942718 973.089847 885.831108 908.871282 C 919.48895 690.244569 969.938398 812.487462 944.713674 9.997946 " transform="matrix(0.104684,0,0,-0.104684,-0.455,163.156)"/>
<path style="fill:none;stroke-width:5;stroke-linecap:butt;stroke-linejoin:miter;stroke:rgb(0%,0%,0%);stroke-opacity:1;stroke-dasharray:30,20;stroke-miterlimit:4;" d="M 864.710999 1557.512371 C 864.710999 1557.512371 858.442133 1343.027588 866.651363 1139.998412 " transform="matrix(0.104684,0,0,-0.104684,-0.455,163.156)"/>
<path style="fill:none;stroke-width:5;stroke-linecap:butt;stroke-linejoin:miter;stroke:rgb(0%,0%,0%);stroke-opacity:1;stroke-dasharray:30,20;stroke-miterlimit:4;" d="M 1082.591418 889.691536 C 1088.113991 851.108156 1094.64406 814.129308 1102.293569 779.949061 C 1167.221113 490.013994 1139.720194 39.998949 1139.720194 9.997946 " transform="matrix(0.104684,0,0,-0.104684,-0.455,163.156)"/>
<path style="fill:none;stroke-width:5;stroke-linecap:butt;stroke-linejoin:miter;stroke:rgb(0%,0%,0%);stroke-opacity:1;stroke-dasharray:30,20;stroke-miterlimit:4;" d="M 1054.717352 1557.512371 C 1054.717352 1557.512371 1041.209437 1178.134015 1082.591418 889.691536 " transform="matrix(0.104684,0,0,-0.104684,-0.455,163.156)"/>
<path style="fill:none;stroke-width:5;stroke-linecap:butt;stroke-linejoin:miter;stroke:rgb(0%,0%,0%);stroke-opacity:1;stroke-dasharray:30,20;stroke-miterlimit:4;" d="M 1326.96526 9.997946 C 1356.630431 239.595175 1297.300089 682.072654 1272.224624 984.99323 C 1247.186473 1287.913805 1249.723871 1557.512371 1249.723871 1557.512371 " transform="matrix(0.104684,0,0,-0.104684,-0.455,163.156)"/>
<path style="fill:none;stroke-width:5;stroke-linecap:butt;stroke-linejoin:miter;stroke:rgb(0%,0%,0%);stroke-opacity:1;stroke-dasharray:30,20;stroke-miterlimit:4;" d="M 762.729978 729.984704 L 762.729978 9.997946 " transform="matrix(0.104684,0,0,-0.104684,-0.455,163.156)"/>
</g>
</g>
</g>
</svg>
