<?xml version="1.0" encoding="UTF-8"?>
<svg xmlns="http://www.w3.org/2000/svg" xmlns:xlink="http://www.w3.org/1999/xlink" width="287.5204340564336pt" height="197.453792062852pt" viewBox="0 0 166 114" version="1.1">
<defs>
<clipPath id="clip1">
  <path d="M -222 666 L 390 666 L 390 -126 L -222 -126 L -222 666 Z M -222 666 "/>
</clipPath>
<clipPath id="clip2">
  <path d="M 0.00390625 114.222656 L 167.246094 114.222656 L 167.246094 -1.199219 L 0.00390625 -1.199219 L 0.00390625 114.222656 Z M 0.00390625 114.222656 "/>
</clipPath>
</defs>
<g id="surface0">
<g clip-path="url(#clip1)" clip-rule="nonzero">
<g clip-path="url(#clip2)" clip-rule="nonzero">
<path style="fill:none;stroke-width:10;stroke-linecap:butt;stroke-linejoin:miter;stroke:rgb(13.730068%,12.159915%,12.54902%);stroke-opacity:1;stroke-miterlimit:4;" d="M 9.999215 965.015485 C 49.997665 924.983868 32.917066 9.994439 95.004213 9.994439 C 155.598881 9.994439 274.101753 873.344077 334.69642 873.344077 C 395.589584 873.344077 379.105977 52.513521 439.99914 52.513521 C 501.522462 52.513521 616.443383 774.906763 677.966704 774.906763 C 738.760369 774.906763 731.695966 87.503874 792.489631 87.503874 C 852.918467 87.503874 962.599127 697.496827 1022.994797 697.496827 C 1083.556299 697.496827 1081.931154 112.511197 1142.492656 112.511197 C 1204.181808 112.511197 1289.584801 613.752144 1351.240788 613.752144 C 1388.486443 613.752144 1391.5709 528.349151 1401.520764 460.258919 " transform="matrix(0.117778,0,0,-0.117778,0.002,114.224)"/>
</g>
</g>
</g>
</svg>
