<?xml version="1.0" encoding="UTF-8"?>
<svg xmlns="http://www.w3.org/2000/svg" xmlns:xlink="http://www.w3.org/1999/xlink" width="233pt" height="168pt" viewBox="0 0 168 121" version="1.1">
<g id="surface0">
<path style="fill:none;stroke-width:5;stroke-linecap:butt;stroke-linejoin:round;stroke:rgb(0%,0%,0%);stroke-opacity:1;stroke-miterlimit:10;" d="M 332.265625 309.453125 C 343.90625 388.398438 338.59375 464.0625 317.578125 519.882813 C 296.523438 575.703125 261.484375 607.070313 220.15625 607.070313 C 178.789063 607.070313 134.53125 575.703125 97.070313 519.882813 C 59.648438 464.0625 32.070313 388.398438 20.46875 309.453125 C 8.867188 230.507813 14.140625 154.804688 35.195313 98.984375 C 56.210938 43.164063 91.25 11.796875 132.617188 11.796875 C 173.945313 11.796875 218.203125 43.164063 255.664063 98.984375 C 293.085938 154.804688 320.664063 230.507813 332.265625 309.453125 Z M 332.265625 309.453125 " transform="matrix(0.1,0,0,-0.1,0,121)"/>
<path style="fill:none;stroke-width:5;stroke-linecap:round;stroke-linejoin:round;stroke:rgb(0%,0%,0%);stroke-opacity:1;stroke-miterlimit:10;" d="M 135.976563 231.484375 L 181.328125 146.445313 " transform="matrix(0.1,0,0,-0.1,0,121)"/>
<path style="fill:none;stroke-width:5;stroke-linecap:round;stroke-linejoin:round;stroke:rgb(0%,0%,0%);stroke-opacity:1;stroke-miterlimit:10;" d="M 135.976563 146.445313 L 181.328125 231.484375 " transform="matrix(0.1,0,0,-0.1,0,121)"/>
<path style="fill:none;stroke-width:5;stroke-linecap:round;stroke-linejoin:round;stroke:rgb(0%,0%,0%);stroke-opacity:1;stroke-miterlimit:10;" d="M 171.40625 472.421875 L 216.757813 387.382813 " transform="matrix(0.1,0,0,-0.1,0,121)"/>
<path style="fill:none;stroke-width:5;stroke-linecap:round;stroke-linejoin:round;stroke:rgb(0%,0%,0%);stroke-opacity:1;stroke-miterlimit:10;" d="M 171.40625 387.382813 L 216.757813 472.421875 " transform="matrix(0.1,0,0,-0.1,0,121)"/>
<path style="fill:none;stroke-width:5;stroke-linecap:round;stroke-linejoin:round;stroke:rgb(0%,0%,0%);stroke-opacity:1;stroke-miterlimit:10;" d="M 644.101563 309.453125 C 655.703125 388.398438 650.390625 464.0625 629.375 519.882813 C 608.359375 575.703125 573.320313 607.070313 531.953125 607.070313 C 490.585938 607.070313 446.328125 575.703125 408.90625 519.882813 C 371.445313 464.0625 343.90625 388.398438 332.265625 309.453125 C 320.664063 230.507813 325.976563 154.804688 346.992188 98.984375 C 368.007813 43.164063 403.046875 11.796875 444.414063 11.796875 C 485.78125 11.796875 530.039063 43.164063 567.460938 98.984375 C 604.921875 154.804688 632.460938 230.507813 644.101563 309.453125 Z M 644.101563 309.453125 " transform="matrix(0.1,0,0,-0.1,0,121)"/>
<path style="fill:none;stroke-width:5;stroke-linecap:round;stroke-linejoin:round;stroke:rgb(0%,0%,0%);stroke-opacity:1;stroke-miterlimit:10;" d="M 447.773438 231.484375 L 493.164063 146.445313 " transform="matrix(0.1,0,0,-0.1,0,121)"/>
<path style="fill:none;stroke-width:5;stroke-linecap:round;stroke-linejoin:round;stroke:rgb(0%,0%,0%);stroke-opacity:1;stroke-miterlimit:10;" d="M 447.773438 146.445313 L 493.164063 231.484375 " transform="matrix(0.1,0,0,-0.1,0,121)"/>
<path style="fill:none;stroke-width:5;stroke-linecap:round;stroke-linejoin:round;stroke:rgb(0%,0%,0%);stroke-opacity:1;stroke-miterlimit:10;" d="M 483.242188 472.421875 L 528.59375 387.382813 " transform="matrix(0.1,0,0,-0.1,0,121)"/>
<path style="fill:none;stroke-width:5;stroke-linecap:round;stroke-linejoin:round;stroke:rgb(0%,0%,0%);stroke-opacity:1;stroke-miterlimit:10;" d="M 483.242188 387.382813 L 528.59375 472.421875 " transform="matrix(0.1,0,0,-0.1,0,121)"/>
<path style="fill:none;stroke-width:5;stroke-linecap:round;stroke-linejoin:round;stroke:rgb(0%,0%,0%);stroke-opacity:1;stroke-miterlimit:10;" d="M 955.898438 309.453125 C 967.5 388.398438 962.226563 464.0625 941.171875 519.882813 C 920.15625 575.703125 885.117188 607.070313 843.75 607.070313 C 802.421875 607.070313 758.164063 575.703125 720.703125 519.882813 C 683.242188 464.0625 655.703125 388.398438 644.101563 309.453125 C 632.460938 230.507813 637.773438 154.804688 658.789063 98.984375 C 679.84375 43.164063 714.882813 11.796875 756.210938 11.796875 C 797.578125 11.796875 841.835938 43.164063 879.296875 98.984375 C 916.71875 154.804688 944.296875 230.507813 955.898438 309.453125 Z M 955.898438 309.453125 " transform="matrix(0.1,0,0,-0.1,0,121)"/>
<path style="fill:none;stroke-width:5;stroke-linecap:round;stroke-linejoin:round;stroke:rgb(0%,0%,0%);stroke-opacity:1;stroke-miterlimit:10;" d="M 759.609375 231.484375 L 804.960938 146.445313 " transform="matrix(0.1,0,0,-0.1,0,121)"/>
<path style="fill:none;stroke-width:5;stroke-linecap:round;stroke-linejoin:round;stroke:rgb(0%,0%,0%);stroke-opacity:1;stroke-miterlimit:10;" d="M 759.609375 146.445313 L 804.960938 231.484375 " transform="matrix(0.1,0,0,-0.1,0,121)"/>
<path style="fill:none;stroke-width:5;stroke-linecap:round;stroke-linejoin:round;stroke:rgb(0%,0%,0%);stroke-opacity:1;stroke-miterlimit:10;" d="M 795.039063 472.421875 L 840.390625 387.382813 " transform="matrix(0.1,0,0,-0.1,0,121)"/>
<path style="fill:none;stroke-width:5;stroke-linecap:round;stroke-linejoin:round;stroke:rgb(0%,0%,0%);stroke-opacity:1;stroke-miterlimit:10;" d="M 795.039063 387.382813 L 840.390625 472.421875 " transform="matrix(0.1,0,0,-0.1,0,121)"/>
<path style="fill:none;stroke-width:5;stroke-linecap:round;stroke-linejoin:round;stroke:rgb(0%,0%,0%);stroke-opacity:1;stroke-miterlimit:10;" d="M 1267.695313 309.453125 C 1279.335938 388.398438 1274.023438 464.0625 1253.007813 519.882813 C 1231.953125 575.703125 1196.914063 607.070313 1155.585938 607.070313 C 1114.21875 607.070313 1069.960938 575.703125 1032.539063 519.882813 C 995.078125 464.0625 967.5 388.398438 955.898438 309.453125 C 944.296875 230.507813 949.570313 154.804688 970.625 98.984375 C 991.640625 43.164063 1026.679688 11.796875 1068.046875 11.796875 C 1109.375 11.796875 1153.632813 43.164063 1191.09375 98.984375 C 1228.554688 154.804688 1256.09375 230.507813 1267.695313 309.453125 Z M 1267.695313 309.453125 " transform="matrix(0.1,0,0,-0.1,0,121)"/>
<path style="fill:none;stroke-width:5;stroke-linecap:round;stroke-linejoin:round;stroke:rgb(0%,0%,0%);stroke-opacity:1;stroke-miterlimit:10;" d="M 1071.40625 231.484375 L 1116.757813 146.445313 " transform="matrix(0.1,0,0,-0.1,0,121)"/>
<path style="fill:none;stroke-width:5;stroke-linecap:round;stroke-linejoin:round;stroke:rgb(0%,0%,0%);stroke-opacity:1;stroke-miterlimit:10;" d="M 1071.40625 146.445313 L 1116.757813 231.484375 " transform="matrix(0.1,0,0,-0.1,0,121)"/>
<path style="fill:none;stroke-width:5;stroke-linecap:round;stroke-linejoin:round;stroke:rgb(0%,0%,0%);stroke-opacity:1;stroke-miterlimit:10;" d="M 1106.835938 472.421875 L 1152.1875 387.382813 " transform="matrix(0.1,0,0,-0.1,0,121)"/>
<path style="fill:none;stroke-width:5;stroke-linecap:round;stroke-linejoin:round;stroke:rgb(0%,0%,0%);stroke-opacity:1;stroke-miterlimit:10;" d="M 1106.835938 387.382813 L 1152.1875 472.421875 " transform="matrix(0.1,0,0,-0.1,0,121)"/>
<path style="fill:none;stroke-width:5;stroke-linecap:round;stroke-linejoin:round;stroke:rgb(0%,0%,0%);stroke-opacity:1;stroke-miterlimit:10;" d="M 1579.53125 309.453125 C 1591.132813 388.398438 1585.820313 464.0625 1564.804688 519.882813 C 1543.789063 575.703125 1508.75 607.070313 1467.382813 607.070313 C 1426.054688 607.070313 1381.757813 575.703125 1344.335938 519.882813 C 1306.875 464.0625 1279.335938 388.398438 1267.695313 309.453125 C 1256.09375 230.507813 1261.40625 154.804688 1282.421875 98.984375 C 1303.4375 43.164063 1338.476563 11.796875 1379.84375 11.796875 C 1421.171875 11.796875 1465.46875 43.164063 1502.890625 98.984375 C 1540.351563 154.804688 1567.890625 230.507813 1579.53125 309.453125 Z M 1579.53125 309.453125 " transform="matrix(0.1,0,0,-0.1,0,121)"/>
<path style="fill:none;stroke-width:5;stroke-linecap:round;stroke-linejoin:round;stroke:rgb(0%,0%,0%);stroke-opacity:1;stroke-miterlimit:10;" d="M 1383.203125 231.484375 L 1428.554688 146.445313 " transform="matrix(0.1,0,0,-0.1,0,121)"/>
<path style="fill:none;stroke-width:5;stroke-linecap:round;stroke-linejoin:round;stroke:rgb(0%,0%,0%);stroke-opacity:1;stroke-miterlimit:10;" d="M 1383.203125 146.445313 L 1428.554688 231.484375 " transform="matrix(0.1,0,0,-0.1,0,121)"/>
<path style="fill:none;stroke-width:5;stroke-linecap:round;stroke-linejoin:round;stroke:rgb(0%,0%,0%);stroke-opacity:1;stroke-miterlimit:10;" d="M 1418.671875 472.421875 L 1464.023438 387.382813 " transform="matrix(0.1,0,0,-0.1,0,121)"/>
<path style="fill:none;stroke-width:5;stroke-linecap:round;stroke-linejoin:round;stroke:rgb(0%,0%,0%);stroke-opacity:1;stroke-miterlimit:10;" d="M 1418.671875 387.382813 L 1464.023438 472.421875 " transform="matrix(0.1,0,0,-0.1,0,121)"/>
<path style="fill:none;stroke-width:5;stroke-linecap:round;stroke-linejoin:round;stroke:rgb(0%,0%,0%);stroke-opacity:1;stroke-miterlimit:10;" d="M 419.804688 904.726563 C 431.445313 983.671875 426.132813 1059.375 405.117188 1115.15625 C 384.0625 1170.976563 349.023438 1202.34375 307.695313 1202.34375 C 266.328125 1202.34375 222.070313 1170.976563 184.648438 1115.15625 C 147.1875 1059.375 119.609375 983.671875 108.007813 904.726563 C 96.40625 825.78125 101.679688 750.078125 122.734375 694.257813 C 143.75 638.4375 178.789063 607.070313 220.15625 607.070313 C 261.484375 607.070313 305.742188 638.4375 343.203125 694.257813 C 380.664063 750.078125 408.203125 825.78125 419.804688 904.726563 Z M 419.804688 904.726563 " transform="matrix(0.1,0,0,-0.1,0,121)"/>
<path style="fill:none;stroke-width:5;stroke-linecap:round;stroke-linejoin:round;stroke:rgb(0%,0%,0%);stroke-opacity:1;stroke-miterlimit:10;" d="M 223.515625 826.757813 L 268.867188 741.71875 " transform="matrix(0.1,0,0,-0.1,0,121)"/>
<path style="fill:none;stroke-width:5;stroke-linecap:round;stroke-linejoin:round;stroke:rgb(0%,0%,0%);stroke-opacity:1;stroke-miterlimit:10;" d="M 223.515625 741.71875 L 268.867188 826.757813 " transform="matrix(0.1,0,0,-0.1,0,121)"/>
<path style="fill:none;stroke-width:5;stroke-linecap:round;stroke-linejoin:round;stroke:rgb(0%,0%,0%);stroke-opacity:1;stroke-miterlimit:10;" d="M 258.945313 1067.695313 L 304.296875 982.65625 " transform="matrix(0.1,0,0,-0.1,0,121)"/>
<path style="fill:none;stroke-width:5;stroke-linecap:round;stroke-linejoin:round;stroke:rgb(0%,0%,0%);stroke-opacity:1;stroke-miterlimit:10;" d="M 258.945313 982.65625 L 304.296875 1067.695313 " transform="matrix(0.1,0,0,-0.1,0,121)"/>
<path style="fill:none;stroke-width:5;stroke-linecap:round;stroke-linejoin:round;stroke:rgb(0%,0%,0%);stroke-opacity:1;stroke-miterlimit:10;" d="M 731.640625 904.726563 C 743.242188 983.671875 737.929688 1059.375 716.914063 1115.15625 C 695.898438 1170.976563 660.859375 1202.34375 619.492188 1202.34375 C 578.164063 1202.34375 533.867188 1170.976563 496.445313 1115.15625 C 458.984375 1059.375 431.445313 983.671875 419.804688 904.726563 C 408.203125 825.78125 413.515625 750.078125 434.53125 694.257813 C 455.546875 638.4375 490.585938 607.070313 531.953125 607.070313 C 573.320313 607.070313 617.578125 638.4375 655 694.257813 C 692.460938 750.078125 720.039063 825.78125 731.640625 904.726563 Z M 731.640625 904.726563 " transform="matrix(0.1,0,0,-0.1,0,121)"/>
<path style="fill:none;stroke-width:5;stroke-linecap:round;stroke-linejoin:round;stroke:rgb(0%,0%,0%);stroke-opacity:1;stroke-miterlimit:10;" d="M 535.3125 826.757813 L 580.703125 741.71875 " transform="matrix(0.1,0,0,-0.1,0,121)"/>
<path style="fill:none;stroke-width:5;stroke-linecap:round;stroke-linejoin:round;stroke:rgb(0%,0%,0%);stroke-opacity:1;stroke-miterlimit:10;" d="M 535.3125 741.71875 L 580.703125 826.757813 " transform="matrix(0.1,0,0,-0.1,0,121)"/>
<path style="fill:none;stroke-width:5;stroke-linecap:round;stroke-linejoin:round;stroke:rgb(0%,0%,0%);stroke-opacity:1;stroke-miterlimit:10;" d="M 570.78125 1067.695313 L 616.132813 982.65625 " transform="matrix(0.1,0,0,-0.1,0,121)"/>
<path style="fill:none;stroke-width:5;stroke-linecap:round;stroke-linejoin:round;stroke:rgb(0%,0%,0%);stroke-opacity:1;stroke-miterlimit:10;" d="M 570.78125 982.65625 L 616.132813 1067.695313 " transform="matrix(0.1,0,0,-0.1,0,121)"/>
<path style="fill:none;stroke-width:5;stroke-linecap:round;stroke-linejoin:round;stroke:rgb(0%,0%,0%);stroke-opacity:1;stroke-miterlimit:10;" d="M 1043.4375 904.726563 C 1055.039063 983.671875 1049.765625 1059.375 1028.710938 1115.15625 C 1007.695313 1170.976563 972.65625 1202.34375 931.328125 1202.34375 C 889.960938 1202.34375 845.703125 1170.976563 808.242188 1115.15625 C 770.820313 1059.375 743.242188 983.671875 731.640625 904.726563 C 720.039063 825.78125 725.3125 750.078125 746.367188 694.257813 C 767.382813 638.4375 802.421875 607.070313 843.75 607.070313 C 885.117188 607.070313 929.375 638.4375 966.835938 694.257813 C 1004.257813 750.078125 1031.835938 825.78125 1043.4375 904.726563 Z M 1043.4375 904.726563 " transform="matrix(0.1,0,0,-0.1,0,121)"/>
<path style="fill:none;stroke-width:5;stroke-linecap:round;stroke-linejoin:round;stroke:rgb(0%,0%,0%);stroke-opacity:1;stroke-miterlimit:10;" d="M 847.148438 826.757813 L 892.5 741.71875 " transform="matrix(0.1,0,0,-0.1,0,121)"/>
<path style="fill:none;stroke-width:5;stroke-linecap:round;stroke-linejoin:round;stroke:rgb(0%,0%,0%);stroke-opacity:1;stroke-miterlimit:10;" d="M 847.148438 741.71875 L 892.5 826.757813 " transform="matrix(0.1,0,0,-0.1,0,121)"/>
<path style="fill:none;stroke-width:5;stroke-linecap:round;stroke-linejoin:round;stroke:rgb(0%,0%,0%);stroke-opacity:1;stroke-miterlimit:10;" d="M 882.578125 1067.695313 L 927.929688 982.65625 " transform="matrix(0.1,0,0,-0.1,0,121)"/>
<path style="fill:none;stroke-width:5;stroke-linecap:round;stroke-linejoin:round;stroke:rgb(0%,0%,0%);stroke-opacity:1;stroke-miterlimit:10;" d="M 882.578125 982.65625 L 927.929688 1067.695313 " transform="matrix(0.1,0,0,-0.1,0,121)"/>
<path style="fill:none;stroke-width:5;stroke-linecap:round;stroke-linejoin:round;stroke:rgb(0%,0%,0%);stroke-opacity:1;stroke-miterlimit:10;" d="M 1355.234375 904.726563 C 1366.875 983.671875 1361.5625 1059.375 1340.546875 1115.15625 C 1319.492188 1170.976563 1284.453125 1202.34375 1243.125 1202.34375 C 1201.757813 1202.34375 1157.5 1170.976563 1120.078125 1115.15625 C 1082.617188 1059.375 1055.039063 983.671875 1043.4375 904.726563 C 1031.835938 825.78125 1037.148438 750.078125 1058.164063 694.257813 C 1079.179688 638.4375 1114.21875 607.070313 1155.585938 607.070313 C 1196.914063 607.070313 1241.171875 638.4375 1278.632813 694.257813 C 1316.09375 750.078125 1343.632813 825.78125 1355.234375 904.726563 Z M 1355.234375 904.726563 " transform="matrix(0.1,0,0,-0.1,0,121)"/>
<path style="fill:none;stroke-width:5;stroke-linecap:round;stroke-linejoin:round;stroke:rgb(0%,0%,0%);stroke-opacity:1;stroke-miterlimit:10;" d="M 1158.945313 826.757813 L 1204.296875 741.71875 " transform="matrix(0.1,0,0,-0.1,0,121)"/>
<path style="fill:none;stroke-width:5;stroke-linecap:round;stroke-linejoin:round;stroke:rgb(0%,0%,0%);stroke-opacity:1;stroke-miterlimit:10;" d="M 1158.945313 741.71875 L 1204.296875 826.757813 " transform="matrix(0.1,0,0,-0.1,0,121)"/>
<path style="fill:none;stroke-width:5;stroke-linecap:round;stroke-linejoin:round;stroke:rgb(0%,0%,0%);stroke-opacity:1;stroke-miterlimit:10;" d="M 1194.375 1067.695313 L 1239.726563 982.65625 " transform="matrix(0.1,0,0,-0.1,0,121)"/>
<path style="fill:none;stroke-width:5;stroke-linecap:round;stroke-linejoin:round;stroke:rgb(0%,0%,0%);stroke-opacity:1;stroke-miterlimit:10;" d="M 1194.375 982.65625 L 1239.726563 1067.695313 " transform="matrix(0.1,0,0,-0.1,0,121)"/>
<path style="fill:none;stroke-width:5;stroke-linecap:round;stroke-linejoin:round;stroke:rgb(0%,0%,0%);stroke-opacity:1;stroke-miterlimit:10;" d="M 1667.070313 904.726563 C 1678.671875 983.671875 1673.398438 1059.375 1652.34375 1115.15625 C 1631.328125 1170.976563 1596.289063 1202.34375 1554.921875 1202.34375 C 1513.59375 1202.34375 1469.335938 1170.976563 1431.875 1115.15625 C 1394.414063 1059.375 1366.875 983.671875 1355.234375 904.726563 C 1343.632813 825.78125 1348.945313 750.078125 1369.960938 694.257813 C 1391.015625 638.4375 1426.054688 607.070313 1467.382813 607.070313 C 1508.75 607.070313 1553.007813 638.4375 1590.46875 694.257813 C 1627.890625 750.078125 1655.46875 825.78125 1667.070313 904.726563 Z M 1667.070313 904.726563 " transform="matrix(0.1,0,0,-0.1,0,121)"/>
<path style="fill:none;stroke-width:5;stroke-linecap:round;stroke-linejoin:round;stroke:rgb(0%,0%,0%);stroke-opacity:1;stroke-miterlimit:10;" d="M 1470.78125 826.757813 L 1516.132813 741.71875 " transform="matrix(0.1,0,0,-0.1,0,121)"/>
<path style="fill:none;stroke-width:5;stroke-linecap:round;stroke-linejoin:round;stroke:rgb(0%,0%,0%);stroke-opacity:1;stroke-miterlimit:10;" d="M 1470.78125 741.71875 L 1516.132813 826.757813 " transform="matrix(0.1,0,0,-0.1,0,121)"/>
<path style="fill:none;stroke-width:5;stroke-linecap:round;stroke-linejoin:round;stroke:rgb(0%,0%,0%);stroke-opacity:1;stroke-miterlimit:10;" d="M 1506.210938 1067.695313 L 1551.5625 982.65625 " transform="matrix(0.1,0,0,-0.1,0,121)"/>
<path style="fill:none;stroke-width:5;stroke-linecap:round;stroke-linejoin:round;stroke:rgb(0%,0%,0%);stroke-opacity:1;stroke-miterlimit:10;" d="M 1506.210938 982.65625 L 1551.5625 1067.695313 " transform="matrix(0.1,0,0,-0.1,0,121)"/>
</g>
</svg>
