<?xml version="1.0" encoding="UTF-8"?>
<svg xmlns="http://www.w3.org/2000/svg" xmlns:xlink="http://www.w3.org/1999/xlink" width="140pt" height="138pt" viewBox="0 0 101 100" version="1.1">
<g id="surface0">
<path style="fill:none;stroke-width:4.8;stroke-linecap:butt;stroke-linejoin:round;stroke:rgb(0%,0%,0%);stroke-opacity:1;stroke-miterlimit:10;" d="M 1002.421875 499.453125 C 1002.421875 631.015625 950.15625 757.1875 857.148438 850.195313 C 764.101563 943.242188 637.929688 995.507813 506.367188 995.507813 C 374.804688 995.507813 248.632813 943.242188 155.625 850.195313 C 62.578125 757.1875 10.3125 631.015625 10.3125 499.453125 C 10.3125 367.851563 62.578125 241.71875 155.625 148.671875 C 248.632813 55.664063 374.804688 3.359375 506.367188 3.359375 C 637.929688 3.359375 764.101563 55.664063 857.148438 148.671875 C 950.15625 241.71875 1002.421875 367.851563 1002.421875 499.453125 L 1002.421875 499.453125 Z M 1002.421875 499.453125 " transform="matrix(0.1,0,0,-0.1,0,100)"/>
<path style="fill:none;stroke-width:2.4;stroke-linecap:round;stroke-linejoin:round;stroke:rgb(0%,0%,0%);stroke-opacity:1;stroke-miterlimit:10;" d="M 10.3125 499.453125 C 10.3125 428.710938 32.851563 358.59375 76.757813 296.289063 C 142.578125 202.929688 250.898438 134.84375 377.96875 106.953125 C 505.039063 79.0625 640.46875 93.632813 754.414063 147.539063 C 868.359375 201.40625 951.484375 290.195313 985.507813 394.257813 C 996.835938 428.867188 1002.421875 464.21875 1002.421875 499.453125 " transform="matrix(0.1,0,0,-0.1,0,100)"/>
<path style="fill:none;stroke-width:2.4;stroke-linecap:round;stroke-linejoin:round;stroke:rgb(0%,0%,0%);stroke-opacity:1;stroke-miterlimit:10;" d="M 100.3125 214.53125 C 84.882813 236.835938 76.796875 264.335938 76.796875 296.289063 C 76.796875 371.71875 122.070313 465.507813 202.617188 556.953125 C 283.164063 648.4375 392.421875 730.078125 506.367188 783.984375 C 620.3125 837.851563 729.570313 859.570313 810.15625 844.296875 C 856.640625 835.46875 891.40625 814.804688 912.460938 784.335938 " transform="matrix(0.1,0,0,-0.1,0,100)"/>
<path style="fill:none;stroke-width:2.4;stroke-linecap:round;stroke-linejoin:round;stroke:rgb(0%,0%,0%);stroke-opacity:1;stroke-miterlimit:10;" d="M 717.96875 50.78125 C 741.601563 61.601563 754.414063 94.726563 754.414063 147.539063 C 754.414063 223.007813 728.28125 332.421875 681.757813 451.796875 C 635.234375 571.132813 572.148438 690.625 506.367188 783.984375 C 440.585938 877.304688 377.5 936.835938 330.976563 949.453125 C 317.03125 953.28125 304.882813 952.734375 294.765625 948.085938 " transform="matrix(0.1,0,0,-0.1,0,100)"/>
<path style=" stroke:none;fill-rule:nonzero;fill:rgb(100%,100%,100%);fill-opacity:1;" d="M 57.332031 23.664063 L 74.164063 23.664063 L 74.164063 11.332031 L 57.332031 11.332031 L 57.332031 23.664063 Z M 57.332031 23.664063 "/>
<path style="fill:none;stroke-width:4.252;stroke-linecap:butt;stroke-linejoin:miter;stroke:rgb(0%,0%,0%);stroke-opacity:1;stroke-miterlimit:4;" d="M 672.1875 817.34375 C 668.046875 809.023438 647.265625 810.9375 625.859375 821.601563 C 604.414063 832.304688 590.390625 847.695313 594.53125 856.054688 C 604.335938 875.898438 683.28125 839.453125 672.226563 817.34375 L 672.226563 817.34375 L 672.1875 817.34375 Z M 672.1875 817.34375 " transform="matrix(0.1,0,0,-0.1,0,100)"/>
<path style="fill:none;stroke-width:4.252;stroke-linecap:butt;stroke-linejoin:miter;stroke:rgb(0%,0%,0%);stroke-opacity:1;stroke-miterlimit:4;" d="M 702.226563 816.523438 C 702.226563 809.609375 696.367188 804.023438 689.101563 804.023438 C 681.875 804.023438 675.976563 809.609375 675.976563 816.523438 C 675.976563 823.4375 681.875 829.023438 689.101563 829.023438 C 696.367188 829.023438 702.265625 823.4375 702.265625 816.523438 L 702.265625 816.523438 L 702.226563 816.523438 Z M 702.226563 816.523438 " transform="matrix(0.1,0,0,-0.1,0,100)"/>
<path style="fill:none;stroke-width:4.252;stroke-linecap:butt;stroke-linejoin:miter;stroke:rgb(0%,0%,0%);stroke-opacity:1;stroke-miterlimit:4;" d="M 698.398438 807.65625 C 698.398438 807.65625 715.507813 808.710938 721.679688 802.539063 C 730.15625 794.0625 723.007813 788.046875 719.179688 791.875 " transform="matrix(0.1,0,0,-0.1,0,100)"/>
<path style="fill:none;stroke-width:4.252;stroke-linecap:butt;stroke-linejoin:miter;stroke:rgb(0%,0%,0%);stroke-opacity:1;stroke-miterlimit:4;" d="M 700.664063 820.390625 C 700.664063 820.390625 714.257813 830.898438 722.851563 829.21875 C 734.609375 826.992188 732.070313 818.007813 726.796875 819.023438 " transform="matrix(0.1,0,0,-0.1,0,100)"/>
<path style="fill:none;stroke-width:4.252;stroke-linecap:round;stroke-linejoin:miter;stroke:rgb(0%,0%,0%);stroke-opacity:1;stroke-miterlimit:4;" d="M 662.773438 812.382813 C 662.773438 812.382813 659.140625 794.296875 666.015625 787.421875 " transform="matrix(0.1,0,0,-0.1,0,100)"/>
<path style="fill:none;stroke-width:4.252;stroke-linecap:round;stroke-linejoin:miter;stroke:rgb(0%,0%,0%);stroke-opacity:1;stroke-miterlimit:4;" d="M 646.835938 813.867188 C 646.835938 813.867188 641.640625 789.296875 654.765625 789.296875 " transform="matrix(0.1,0,0,-0.1,0,100)"/>
<path style="fill:none;stroke-width:4.252;stroke-linecap:round;stroke-linejoin:miter;stroke:rgb(0%,0%,0%);stroke-opacity:1;stroke-miterlimit:4;" d="M 633.125 818.320313 C 633.125 818.320313 624.140625 801.835938 633.515625 792.421875 " transform="matrix(0.1,0,0,-0.1,0,100)"/>
<path style="fill:none;stroke-width:4.252;stroke-linecap:round;stroke-linejoin:miter;stroke:rgb(0%,0%,0%);stroke-opacity:1;stroke-miterlimit:4;" d="M 619.609375 824.960938 C 619.609375 824.960938 611.328125 807.148438 617.890625 800.585938 " transform="matrix(0.1,0,0,-0.1,0,100)"/>
<path style="fill:none;stroke-width:4.252;stroke-linecap:round;stroke-linejoin:miter;stroke:rgb(0%,0%,0%);stroke-opacity:1;stroke-miterlimit:4;" d="M 606.015625 834.53125 C 606.015625 834.53125 592.578125 820.234375 598.515625 814.335938 " transform="matrix(0.1,0,0,-0.1,0,100)"/>
<path style="fill:none;stroke-width:4.252;stroke-linecap:round;stroke-linejoin:round;stroke:rgb(0%,0%,0%);stroke-opacity:1;stroke-miterlimit:4;" d="M 596.210938 845.546875 C 596.210938 845.546875 586.640625 836.171875 586.640625 827.421875 " transform="matrix(0.1,0,0,-0.1,0,100)"/>
</g>
</svg>
