<?xml version="1.0" encoding="UTF-8"?>
<svg xmlns="http://www.w3.org/2000/svg" xmlns:xlink="http://www.w3.org/1999/xlink" width="137pt" height="136pt" viewBox="0 0 99 98" version="1.1">
<defs>
<clipPath id="clip1">
  <path d="M 70.003906 67.511719 C 81.585938 65.230469 90.546875 61.097656 94.917969 56.019531 C 99.289063 50.945313 98.714844 45.34375 93.3125 40.449219 C 87.910156 35.554688 78.128906 31.765625 66.117188 29.917969 C 54.109375 28.070313 40.855469 28.316406 29.273438 30.597656 L 70.003906 67.511719 Z M 70.003906 67.511719 "/>
</clipPath>
<clipPath id="clip2">
  <path d="M 29.273438 30.597656 C 29.273438 42.183594 31.417969 55.234375 35.238281 66.886719 C 39.054688 78.539063 44.234375 87.835938 49.636719 92.730469 C 55.039063 97.625 60.21875 97.71875 64.039063 92.988281 C 67.855469 88.261719 70.003906 79.097656 70.003906 67.511719 L 29.273438 30.597656 Z M 29.273438 30.597656 "/>
</clipPath>
<clipPath id="clip3">
  <path d="M 29.273438 30.597656 C 17.6875 32.882813 8.726563 37.015625 4.355469 42.089844 C -0.015625 47.164063 0.5625 52.765625 5.964844 57.664063 C 11.363281 62.558594 21.148438 66.34375 33.15625 68.191406 C 45.164063 70.039063 58.417969 69.796875 70.003906 67.511719 L 29.273438 30.597656 Z M 29.273438 30.597656 "/>
</clipPath>
<clipPath id="clip4">
  <path d="M 70.003906 67.511719 C 70.003906 55.929688 67.855469 42.878906 64.039063 31.226563 C 60.21875 19.574219 55.039063 10.277344 49.636719 5.382813 C 44.234375 0.484375 39.054688 0.394531 35.238281 5.121094 C 31.417969 9.851563 29.273438 19.015625 29.273438 30.597656 L 70.003906 67.511719 Z M 70.003906 67.511719 "/>
</clipPath>
</defs>
<g id="surface0">
<path style="fill:none;stroke-width:5;stroke-linecap:round;stroke-linejoin:round;stroke:rgb(0%,0%,0%);stroke-opacity:1;stroke-miterlimit:10;" d="M 700.039063 304.882813 C 815.859375 327.695313 905.46875 369.023438 949.179688 419.804688 C 992.890625 470.546875 987.148438 526.5625 933.125 575.507813 C 879.101563 624.453125 781.289063 662.34375 661.171875 680.820313 C 541.09375 699.296875 408.554688 696.835938 292.734375 674.023438 " transform="matrix(0.1,0,0,-0.1,0,98)"/>
<g clip-path="url(#clip1)" clip-rule="nonzero">
<path style="fill:none;stroke-width:3;stroke-linecap:round;stroke-linejoin:round;stroke:rgb(0%,0%,0%);stroke-opacity:1;stroke-miterlimit:10;" d="M 333.4375 637.109375 L 770.195313 723.164063 " transform="matrix(0.1,0,0,-0.1,0,98)"/>
<path style="fill:none;stroke-width:3;stroke-linecap:round;stroke-linejoin:round;stroke:rgb(0%,0%,0%);stroke-opacity:1;stroke-miterlimit:10;" d="M 414.921875 563.28125 L 851.640625 649.335938 " transform="matrix(0.1,0,0,-0.1,0,98)"/>
<path style="fill:none;stroke-width:3;stroke-linecap:round;stroke-linejoin:round;stroke:rgb(0%,0%,0%);stroke-opacity:1;stroke-miterlimit:10;" d="M 496.367188 489.453125 L 933.125 575.507813 " transform="matrix(0.1,0,0,-0.1,0,98)"/>
<path style="fill:none;stroke-width:3;stroke-linecap:round;stroke-linejoin:round;stroke:rgb(0%,0%,0%);stroke-opacity:1;stroke-miterlimit:10;" d="M 577.851563 415.625 L 1014.570313 501.679688 " transform="matrix(0.1,0,0,-0.1,0,98)"/>
<path style="fill:none;stroke-width:3;stroke-linecap:round;stroke-linejoin:round;stroke:rgb(0%,0%,0%);stroke-opacity:1;stroke-miterlimit:10;" d="M 659.296875 341.796875 L 1096.054688 427.851563 " transform="matrix(0.1,0,0,-0.1,0,98)"/>
</g>
<path style="fill:none;stroke-width:5;stroke-linecap:round;stroke-linejoin:round;stroke:rgb(0%,0%,0%);stroke-opacity:1;stroke-miterlimit:10;" d="M 292.734375 674.023438 C 292.734375 558.164063 314.179688 427.65625 352.382813 311.132813 C 390.546875 194.609375 442.34375 101.640625 496.367188 52.695313 C 550.390625 3.75 602.1875 2.8125 640.390625 50.117188 C 678.554688 97.382813 700.039063 189.023438 700.039063 304.882813 " transform="matrix(0.1,0,0,-0.1,0,98)"/>
<g clip-path="url(#clip2)" clip-rule="nonzero">
<path style="fill:none;stroke-width:3;stroke-linecap:round;stroke-linejoin:round;stroke:rgb(0%,0%,0%);stroke-opacity:1;stroke-miterlimit:10;" d="M 333.4375 637.109375 L 333.4375 200.351563 " transform="matrix(0.1,0,0,-0.1,0,98)"/>
<path style="fill:none;stroke-width:3;stroke-linecap:round;stroke-linejoin:round;stroke:rgb(0%,0%,0%);stroke-opacity:1;stroke-miterlimit:10;" d="M 414.921875 563.28125 L 414.921875 126.523438 " transform="matrix(0.1,0,0,-0.1,0,98)"/>
<path style="fill:none;stroke-width:3;stroke-linecap:round;stroke-linejoin:round;stroke:rgb(0%,0%,0%);stroke-opacity:1;stroke-miterlimit:10;" d="M 496.367188 489.453125 L 496.367188 52.695313 " transform="matrix(0.1,0,0,-0.1,0,98)"/>
<path style="fill:none;stroke-width:3;stroke-linecap:round;stroke-linejoin:round;stroke:rgb(0%,0%,0%);stroke-opacity:1;stroke-miterlimit:10;" d="M 577.851563 415.625 L 577.851563 -21.132813 " transform="matrix(0.1,0,0,-0.1,0,98)"/>
<path style="fill:none;stroke-width:3;stroke-linecap:round;stroke-linejoin:round;stroke:rgb(0%,0%,0%);stroke-opacity:1;stroke-miterlimit:10;" d="M 659.296875 341.796875 L 659.296875 -94.960938 " transform="matrix(0.1,0,0,-0.1,0,98)"/>
</g>
<path style="fill-rule:nonzero;fill:rgb(100%,100%,100%);fill-opacity:1;stroke-width:5;stroke-linecap:round;stroke-linejoin:round;stroke:rgb(0%,0%,0%);stroke-opacity:1;stroke-miterlimit:10;" d="M 292.734375 674.023438 C 176.875 651.171875 87.265625 609.84375 43.554688 559.101563 C -0.15625 508.359375 5.625 452.34375 59.648438 403.359375 C 113.632813 354.414063 211.484375 316.5625 331.5625 298.085938 C 451.640625 279.609375 584.179688 282.03125 700.039063 304.882813 " transform="matrix(0.1,0,0,-0.1,0,98)"/>
<g clip-path="url(#clip3)" clip-rule="nonzero">
<path style="fill:none;stroke-width:3;stroke-linecap:round;stroke-linejoin:round;stroke:rgb(0%,0%,0%);stroke-opacity:1;stroke-miterlimit:10;" d="M -103.28125 551.015625 L 333.4375 637.109375 " transform="matrix(0.1,0,0,-0.1,0,98)"/>
<path style="fill:none;stroke-width:3;stroke-linecap:round;stroke-linejoin:round;stroke:rgb(0%,0%,0%);stroke-opacity:1;stroke-miterlimit:10;" d="M -21.835938 477.1875 L 414.921875 563.28125 " transform="matrix(0.1,0,0,-0.1,0,98)"/>
<path style="fill:none;stroke-width:3;stroke-linecap:round;stroke-linejoin:round;stroke:rgb(0%,0%,0%);stroke-opacity:1;stroke-miterlimit:10;" d="M 59.648438 403.359375 L 496.367188 489.453125 " transform="matrix(0.1,0,0,-0.1,0,98)"/>
<path style="fill:none;stroke-width:3;stroke-linecap:round;stroke-linejoin:round;stroke:rgb(0%,0%,0%);stroke-opacity:1;stroke-miterlimit:10;" d="M 141.09375 329.53125 L 577.851563 415.625 " transform="matrix(0.1,0,0,-0.1,0,98)"/>
<path style="fill:none;stroke-width:3;stroke-linecap:round;stroke-linejoin:round;stroke:rgb(0%,0%,0%);stroke-opacity:1;stroke-miterlimit:10;" d="M 222.578125 255.703125 L 659.296875 341.796875 " transform="matrix(0.1,0,0,-0.1,0,98)"/>
</g>
<path style="fill-rule:nonzero;fill:rgb(100%,100%,100%);fill-opacity:1;stroke-width:5;stroke-linecap:round;stroke-linejoin:round;stroke:rgb(0%,0%,0%);stroke-opacity:1;stroke-miterlimit:10;" d="M 700.039063 304.882813 C 700.039063 420.703125 678.554688 551.210938 640.390625 667.734375 C 602.1875 784.257813 550.390625 877.226563 496.367188 926.171875 C 442.34375 975.15625 390.546875 976.054688 352.382813 928.789063 C 314.179688 881.484375 292.734375 789.84375 292.734375 674.023438 " transform="matrix(0.1,0,0,-0.1,0,98)"/>
<g clip-path="url(#clip4)" clip-rule="nonzero">
<path style="fill:none;stroke-width:3;stroke-linecap:round;stroke-linejoin:round;stroke:rgb(0%,0%,0%);stroke-opacity:1;stroke-miterlimit:10;" d="M 333.4375 637.109375 L 333.4375 1073.828125 " transform="matrix(0.1,0,0,-0.1,0,98)"/>
<path style="fill:none;stroke-width:3;stroke-linecap:round;stroke-linejoin:round;stroke:rgb(0%,0%,0%);stroke-opacity:1;stroke-miterlimit:10;" d="M 414.921875 563.28125 L 414.921875 1000 " transform="matrix(0.1,0,0,-0.1,0,98)"/>
<path style="fill:none;stroke-width:3;stroke-linecap:round;stroke-linejoin:round;stroke:rgb(0%,0%,0%);stroke-opacity:1;stroke-miterlimit:10;" d="M 496.367188 489.453125 L 496.367188 926.171875 " transform="matrix(0.1,0,0,-0.1,0,98)"/>
<path style="fill:none;stroke-width:3;stroke-linecap:round;stroke-linejoin:round;stroke:rgb(0%,0%,0%);stroke-opacity:1;stroke-miterlimit:10;" d="M 577.851563 415.625 L 577.851563 852.34375 " transform="matrix(0.1,0,0,-0.1,0,98)"/>
<path style="fill:none;stroke-width:3;stroke-linecap:round;stroke-linejoin:round;stroke:rgb(0%,0%,0%);stroke-opacity:1;stroke-miterlimit:10;" d="M 659.296875 341.796875 L 659.296875 778.515625 " transform="matrix(0.1,0,0,-0.1,0,98)"/>
</g>
<path style="fill:none;stroke-width:5;stroke-linecap:round;stroke-linejoin:round;stroke:rgb(0%,0%,0%);stroke-opacity:1;stroke-miterlimit:10;" d="M 292.734375 674.023438 L 700.039063 304.84375 " transform="matrix(0.1,0,0,-0.1,0,98)"/>
</g>
</svg>
