<?xml version="1.0" encoding="UTF-8"?>
<svg xmlns="http://www.w3.org/2000/svg" xmlns:xlink="http://www.w3.org/1999/xlink" width="236pt" height="301pt" viewBox="0 0 170 217" version="1.1">
<defs>
<clipPath id="clip1">
  <path d="M -1 218 L 170 218 L 170 -1 L -1 -1 L -1 218 Z M -1 218 "/>
</clipPath>
</defs>
<g id="surface0">
<g clip-path="url(#clip1)" clip-rule="nonzero">
<path style="fill:none;stroke-width:5;stroke-linecap:butt;stroke-linejoin:round;stroke:rgb(0%,0%,0%);stroke-opacity:1;stroke-miterlimit:10;" d="M 12.773438 99.0625 L 1359.21875 99.0625 L 1699.960938 439.804688 L 353.515625 439.804688 L 12.773438 99.0625 Z M 12.773438 99.0625 " transform="matrix(0.1,0,0,-0.1,-1,218)"/>
<path style="fill:none;stroke-width:5;stroke-linecap:round;stroke-linejoin:round;stroke:rgb(0%,0%,0%);stroke-opacity:1;stroke-miterlimit:10;" d="M 12.773438 99.0625 L 12.773438 14.023438 L 1359.21875 14.023438 L 1699.960938 354.765625 L 1699.960938 439.804688 " transform="matrix(0.1,0,0,-0.1,-1,218)"/>
<path style="fill:none;stroke-width:5;stroke-linecap:round;stroke-linejoin:round;stroke:rgb(0%,0%,0%);stroke-opacity:1;stroke-miterlimit:10;" d="M 1359.21875 99.0625 L 1359.21875 14.023438 " transform="matrix(0.1,0,0,-0.1,-1,218)"/>
<path style=" stroke:none;fill-rule:nonzero;fill:rgb(100%,100%,100%);fill-opacity:1;" d="M 125.933594 200.074219 L 134.4375 200.074219 L 152.476563 182.035156 L 152.476563 114.003906 L 143.972656 114.003906 L 125.933594 132.042969 "/>
<path style="fill:none;stroke-width:5;stroke-linecap:round;stroke-linejoin:round;stroke:rgb(0%,0%,0%);stroke-opacity:1;stroke-miterlimit:10;" d="M 1269.335938 179.257813 L 1354.375 179.257813 L 1534.765625 359.648438 L 1534.765625 1039.960938 L 1449.726563 1039.960938 L 1269.335938 859.570313 L 1269.335938 179.257813 Z M 1269.335938 179.257813 " transform="matrix(0.1,0,0,-0.1,-1,218)"/>
<path style="fill:none;stroke-width:5;stroke-linecap:round;stroke-linejoin:round;stroke:rgb(0%,0%,0%);stroke-opacity:1;stroke-miterlimit:10;" d="M 1354.375 179.257813 L 1354.375 859.570313 L 1534.765625 1039.960938 " transform="matrix(0.1,0,0,-0.1,-1,218)"/>
<path style="fill:none;stroke-width:5;stroke-linecap:round;stroke-linejoin:round;stroke:rgb(0%,0%,0%);stroke-opacity:1;stroke-miterlimit:10;" d="M 1354.375 859.570313 L 1269.335938 859.570313 " transform="matrix(0.1,0,0,-0.1,-1,218)"/>
<path style="fill:none;stroke-width:5;stroke-linecap:round;stroke-linejoin:round;stroke:rgb(0%,0%,0%);stroke-opacity:1;stroke-miterlimit:10;" d="M 1419.492188 669.570313 L 1419.492188 811.328125 L 1469.609375 861.445313 " transform="matrix(0.1,0,0,-0.1,-1,218)"/>
<path style="fill:none;stroke-width:5;stroke-linecap:round;stroke-linejoin:round;stroke:rgb(0%,0%,0%);stroke-opacity:1;stroke-miterlimit:10;" d="M 1326.015625 675.3125 C 1326.015625 679.0625 1324.53125 682.65625 1321.875 685.3125 C 1319.21875 687.96875 1315.585938 689.492188 1311.835938 689.492188 C 1308.085938 689.492188 1304.492188 687.96875 1301.835938 685.3125 C 1299.140625 682.65625 1297.65625 679.0625 1297.65625 675.3125 C 1297.65625 671.5625 1299.140625 667.929688 1301.835938 665.273438 C 1304.492188 662.617188 1308.085938 661.132813 1311.835938 661.132813 C 1315.585938 661.132813 1319.21875 662.617188 1321.875 665.273438 C 1324.53125 667.929688 1326.015625 671.5625 1326.015625 675.3125 Z M 1326.015625 675.3125 " transform="matrix(0.1,0,0,-0.1,-1,218)"/>
<path style="fill:none;stroke-width:5;stroke-linecap:round;stroke-linejoin:round;stroke:rgb(0%,0%,0%);stroke-opacity:1;stroke-miterlimit:10;" d="M 1479.140625 707.929688 L 1479.140625 793.007813 L 1509.21875 823.046875 L 1509.21875 738.007813 L 1479.140625 707.929688 Z M 1479.140625 707.929688 " transform="matrix(0.1,0,0,-0.1,-1,218)"/>
<path style="fill:none;stroke-width:5;stroke-linecap:round;stroke-linejoin:round;stroke:rgb(0%,0%,0%);stroke-opacity:1;stroke-miterlimit:10;" d="M 1479.140625 707.929688 L 1419.492188 707.929688 " transform="matrix(0.1,0,0,-0.1,-1,218)"/>
<path style="fill:none;stroke-width:5;stroke-linecap:round;stroke-linejoin:round;stroke:rgb(0%,0%,0%);stroke-opacity:1;stroke-miterlimit:10;" d="M 1479.140625 793.007813 L 1419.492188 793.007813 " transform="matrix(0.1,0,0,-0.1,-1,218)"/>
<path style="fill:none;stroke-width:5;stroke-linecap:round;stroke-linejoin:round;stroke:rgb(0%,0%,0%);stroke-opacity:1;stroke-miterlimit:10;" d="M 1469.609375 861.445313 L 1469.609375 823.046875 " transform="matrix(0.1,0,0,-0.1,-1,218)"/>
<path style="fill:none;stroke-width:5;stroke-linecap:round;stroke-linejoin:round;stroke:rgb(0%,0%,0%);stroke-opacity:1;stroke-miterlimit:10;" d="M 1431.25 823.046875 L 1509.21875 823.046875 " transform="matrix(0.1,0,0,-0.1,-1,218)"/>
<path style="fill:none;stroke-width:5;stroke-linecap:round;stroke-linejoin:round;stroke:rgb(0%,0%,0%);stroke-opacity:1;stroke-miterlimit:10;" d="M 1419.492188 669.570313 L 1457.890625 707.929688 " transform="matrix(0.1,0,0,-0.1,-1,218)"/>
<path style="fill:none;stroke-width:5;stroke-linecap:round;stroke-linejoin:round;stroke:rgb(0%,0%,0%);stroke-opacity:1;stroke-miterlimit:10;" d="M 1269.335938 707.929688 L 352.34375 707.929688 L 352.34375 793.007813 L 382.421875 823.046875 L 1269.335938 823.046875 " transform="matrix(0.1,0,0,-0.1,-1,218)"/>
<path style="fill:none;stroke-width:5;stroke-linecap:round;stroke-linejoin:round;stroke:rgb(0%,0%,0%);stroke-opacity:1;stroke-miterlimit:10;" d="M 1269.335938 793.007813 L 352.34375 793.007813 " transform="matrix(0.1,0,0,-0.1,-1,218)"/>
<path style="fill:none;stroke-width:5;stroke-linecap:round;stroke-linejoin:round;stroke:rgb(0%,0%,0%);stroke-opacity:1;stroke-miterlimit:10;" d="M 629.609375 891.640625 L 955.585938 870.390625 " transform="matrix(0.1,0,0,-0.1,-1,218)"/>
<path style="fill:none;stroke-width:5;stroke-linecap:round;stroke-linejoin:round;stroke:rgb(0%,0%,0%);stroke-opacity:1;stroke-miterlimit:10;" d="M 615.429688 870.390625 L 983.945313 856.210938 " transform="matrix(0.1,0,0,-0.1,-1,218)"/>
<path style="fill:none;stroke-width:5;stroke-linecap:round;stroke-linejoin:round;stroke:rgb(0%,0%,0%);stroke-opacity:1;stroke-miterlimit:10;" d="M 615.429688 849.140625 L 998.085938 842.03125 " transform="matrix(0.1,0,0,-0.1,-1,218)"/>
<path style="fill:none;stroke-width:5;stroke-linecap:round;stroke-linejoin:round;stroke:rgb(0%,0%,0%);stroke-opacity:1;stroke-miterlimit:10;" d="M 580 680.46875 L 799.6875 687.539063 " transform="matrix(0.1,0,0,-0.1,-1,218)"/>
<path style="fill:none;stroke-width:5;stroke-linecap:round;stroke-linejoin:round;stroke:rgb(0%,0%,0%);stroke-opacity:1;stroke-miterlimit:10;" d="M 572.890625 659.21875 L 941.40625 673.398438 " transform="matrix(0.1,0,0,-0.1,-1,218)"/>
<path style="fill:none;stroke-width:5;stroke-linecap:round;stroke-linejoin:round;stroke:rgb(0%,0%,0%);stroke-opacity:1;stroke-miterlimit:10;" d="M 558.75 630.859375 L 920.15625 652.109375 " transform="matrix(0.1,0,0,-0.1,-1,218)"/>
<path style=" stroke:none;fill-rule:nonzero;fill:rgb(100%,100%,100%);fill-opacity:1;" d="M 81.59375 190.554688 L 98.601563 190.554688 L 111.632813 177.527344 L 111.632813 153.429688 C 108.988281 152.125 106.078125 151.449219 103.128906 151.449219 C 100.179688 151.449219 97.269531 152.125 94.625 153.429688 L 81.59375 166.460938 "/>
<path style="fill:none;stroke-width:5;stroke-linecap:round;stroke-linejoin:round;stroke:rgb(0%,0%,0%);stroke-opacity:1;stroke-miterlimit:10;" d="M 825.9375 274.453125 L 996.015625 274.453125 L 1126.328125 404.726563 L 1126.328125 645.703125 C 1099.882813 658.75 1070.78125 665.507813 1041.289063 665.507813 C 1011.796875 665.507813 982.695313 658.75 956.25 645.703125 L 825.9375 515.390625 L 825.9375 274.453125 Z M 825.9375 274.453125 " transform="matrix(0.1,0,0,-0.1,-1,218)"/>
<path style="fill:none;stroke-width:5;stroke-linecap:round;stroke-linejoin:round;stroke:rgb(0%,0%,0%);stroke-opacity:1;stroke-miterlimit:10;" d="M 996.015625 274.453125 L 996.015625 515.390625 C 969.570313 528.4375 940.46875 535.234375 910.976563 535.234375 C 881.484375 535.234375 852.382813 528.4375 825.9375 515.390625 " transform="matrix(0.1,0,0,-0.1,-1,218)"/>
<path style="fill:none;stroke-width:5;stroke-linecap:round;stroke-linejoin:round;stroke:rgb(0%,0%,0%);stroke-opacity:1;stroke-miterlimit:10;" d="M 996.015625 515.390625 L 1126.328125 645.703125 " transform="matrix(0.1,0,0,-0.1,-1,218)"/>
<path style=" stroke:none;fill-rule:nonzero;fill:rgb(100%,100%,100%);fill-opacity:1;" d="M 97.601563 178.800781 C 97.601563 176.546875 96.703125 174.382813 95.109375 172.789063 C 93.515625 171.195313 91.351563 170.296875 89.097656 170.296875 C 86.839844 170.296875 84.679688 171.195313 83.082031 172.789063 C 81.488281 174.382813 80.59375 176.546875 80.59375 178.800781 C 80.59375 181.054688 81.488281 183.21875 83.082031 184.8125 C 84.679688 186.410156 86.839844 187.304688 89.097656 187.304688 C 91.351563 187.304688 93.515625 186.410156 95.109375 184.8125 C 96.703125 183.21875 97.601563 181.054688 97.601563 178.800781 "/>
<path style="fill:none;stroke-width:5;stroke-linecap:round;stroke-linejoin:round;stroke:rgb(0%,0%,0%);stroke-opacity:1;stroke-miterlimit:10;" d="M 986.015625 391.992188 C 986.015625 414.53125 977.03125 436.171875 961.09375 452.109375 C 945.15625 468.046875 923.515625 477.03125 900.976563 477.03125 C 878.398438 477.03125 856.796875 468.046875 840.820313 452.109375 C 824.882813 436.171875 815.9375 414.53125 815.9375 391.992188 C 815.9375 369.453125 824.882813 347.8125 840.820313 331.875 C 856.796875 315.898438 878.398438 306.953125 900.976563 306.953125 C 923.515625 306.953125 945.15625 315.898438 961.09375 331.875 C 977.03125 347.8125 986.015625 369.453125 986.015625 391.992188 Z M 986.015625 391.992188 " transform="matrix(0.1,0,0,-0.1,-1,218)"/>
<path style=" stroke:none;fill-rule:nonzero;fill:rgb(100%,100%,100%);fill-opacity:1;" d="M 96.597656 179.804688 C 96.597656 177.546875 95.703125 175.386719 94.109375 173.789063 C 92.511719 172.195313 90.351563 171.300781 88.09375 171.300781 C 85.839844 171.300781 83.675781 172.195313 82.082031 173.789063 C 80.488281 175.386719 79.589844 177.546875 79.589844 179.804688 C 79.589844 182.058594 80.488281 184.222656 82.082031 185.816406 C 83.675781 187.410156 85.839844 188.308594 88.09375 188.308594 C 90.351563 188.308594 92.511719 187.410156 94.109375 185.816406 C 95.703125 184.222656 96.597656 182.058594 96.597656 179.804688 "/>
<path style="fill:none;stroke-width:5;stroke-linecap:round;stroke-linejoin:round;stroke:rgb(0%,0%,0%);stroke-opacity:1;stroke-miterlimit:10;" d="M 975.976563 381.953125 C 975.976563 404.53125 967.03125 426.132813 951.09375 442.109375 C 935.117188 458.046875 913.515625 466.992188 890.9375 466.992188 C 868.398438 466.992188 846.757813 458.046875 830.820313 442.109375 C 814.882813 426.132813 805.898438 404.53125 805.898438 381.953125 C 805.898438 359.414063 814.882813 337.773438 830.820313 321.835938 C 846.757813 305.898438 868.398438 296.914063 890.9375 296.914063 C 913.515625 296.914063 935.117188 305.898438 951.09375 321.835938 C 967.03125 337.773438 975.976563 359.414063 975.976563 381.953125 Z M 975.976563 381.953125 " transform="matrix(0.1,0,0,-0.1,-1,218)"/>
<path style="fill:none;stroke-width:5;stroke-linecap:round;stroke-linejoin:round;stroke:rgb(0%,0%,0%);stroke-opacity:1;stroke-miterlimit:10;" d="M 951.09375 321.835938 L 961.09375 331.875 " transform="matrix(0.1,0,0,-0.1,-1,218)"/>
<path style="fill:none;stroke-width:5;stroke-linecap:round;stroke-linejoin:round;stroke:rgb(0%,0%,0%);stroke-opacity:1;stroke-miterlimit:10;" d="M 830.820313 442.109375 L 840.820313 452.109375 " transform="matrix(0.1,0,0,-0.1,-1,218)"/>
<path style="fill:none;stroke-width:5;stroke-linecap:round;stroke-linejoin:round;stroke:rgb(0%,0%,0%);stroke-opacity:1;stroke-miterlimit:10;" d="M 905.117188 381.953125 C 905.117188 385.742188 903.632813 389.335938 900.976563 391.992188 C 898.320313 394.648438 894.6875 396.132813 890.9375 396.132813 C 887.1875 396.132813 883.59375 394.648438 880.9375 391.992188 C 878.28125 389.335938 876.757813 385.742188 876.757813 381.953125 C 876.757813 378.203125 878.28125 374.609375 880.9375 371.953125 C 883.59375 369.296875 887.1875 367.8125 890.9375 367.8125 C 894.6875 367.8125 898.320313 369.296875 900.976563 371.953125 C 903.632813 374.609375 905.117188 378.203125 905.117188 381.953125 Z M 905.117188 381.953125 " transform="matrix(0.1,0,0,-0.1,-1,218)"/>
<path style=" stroke:none;fill-rule:nonzero;fill:rgb(100%,100%,100%);fill-opacity:1;" d="M 80.324219 179.425781 L 84.863281 145.714844 L 84.863281 145.714844 L 84.714844 145.53125 C 84.03125 144.636719 83.730469 143.503906 83.878906 142.386719 C 84.03125 141.269531 84.617188 140.257813 85.515625 139.574219 C 86.414063 138.886719 87.542969 138.589844 88.660156 138.738281 C 89.78125 138.890625 90.792969 139.476563 91.476563 140.375 C 92.160156 141.269531 92.460938 142.402344 92.308594 143.519531 C 92.15625 144.636719 91.570313 145.648438 90.671875 146.332031 L 90.480469 146.472656 L 90.480469 146.472656 L 85.945313 180.179688 L 85.945313 180.179688 C 85.84375 180.925781 85.449219 181.601563 84.851563 182.058594 C 84.253906 182.511719 83.5 182.714844 82.757813 182.613281 C 82.011719 182.511719 81.335938 182.121094 80.878906 181.523438 C 80.425781 180.925781 80.222656 180.171875 80.324219 179.425781 "/>
<path style="fill:none;stroke-width:5;stroke-linecap:round;stroke-linejoin:round;stroke:rgb(0%,0%,0%);stroke-opacity:1;stroke-miterlimit:10;" d="M 813.242188 385.742188 L 858.632813 722.851563 L 858.632813 722.851563 L 857.148438 724.6875 C 850.3125 733.632813 847.304688 744.960938 848.789063 756.132813 C 850.3125 767.304688 856.171875 777.421875 865.15625 784.257813 C 874.140625 791.132813 885.429688 794.101563 896.601563 792.617188 C 907.8125 791.09375 917.929688 785.234375 924.765625 776.25 C 931.601563 767.304688 934.609375 755.976563 933.085938 744.804688 C 931.5625 733.632813 925.703125 723.515625 916.71875 716.679688 L 914.804688 715.273438 L 914.804688 715.273438 L 869.453125 378.203125 L 869.453125 378.203125 C 868.4375 370.742188 864.492188 363.984375 858.515625 359.414063 C 852.539063 354.882813 845 352.851563 837.578125 353.867188 C 830.117188 354.882813 823.359375 358.789063 818.789063 364.765625 C 814.257813 370.742188 812.226563 378.28125 813.242188 385.742188 Z M 813.242188 385.742188 " transform="matrix(0.1,0,0,-0.1,-1,218)"/>
<path style=" stroke:none;fill-rule:nonzero;fill:rgb(100%,100%,100%);fill-opacity:1;" d="M 79.324219 180.425781 L 83.859375 146.71875 L 83.859375 146.71875 L 83.710938 146.535156 C 83.027344 145.636719 82.726563 144.503906 82.878906 143.386719 C 83.027344 142.269531 83.617188 141.257813 84.515625 140.574219 C 85.410156 139.890625 86.542969 139.589844 87.660156 139.742188 C 88.777344 139.890625 89.789063 140.480469 90.472656 141.375 C 91.15625 142.273438 91.457031 143.40625 91.304688 144.523438 C 91.15625 145.640625 90.566406 146.652344 89.671875 147.335938 L 89.480469 147.472656 L 89.480469 147.472656 L 84.941406 181.183594 L 84.941406 181.183594 C 84.839844 181.929688 84.449219 182.601563 83.851563 183.058594 C 83.253906 183.515625 82.5 183.714844 81.753906 183.613281 C 81.007813 183.515625 80.335938 183.121094 79.878906 182.523438 C 79.421875 181.925781 79.222656 181.171875 79.324219 180.425781 "/>
<path style="fill:none;stroke-width:5;stroke-linecap:round;stroke-linejoin:round;stroke:rgb(0%,0%,0%);stroke-opacity:1;stroke-miterlimit:10;" d="M 803.242188 375.742188 L 848.59375 712.8125 L 848.59375 712.8125 L 847.109375 714.648438 C 840.273438 723.632813 837.265625 734.960938 838.789063 746.132813 C 840.273438 757.304688 846.171875 767.421875 855.15625 774.257813 C 864.101563 781.09375 875.429688 784.101563 886.601563 782.578125 C 897.773438 781.09375 907.890625 775.195313 914.726563 766.25 C 921.5625 757.265625 924.570313 745.9375 923.046875 734.765625 C 921.5625 723.59375 915.664063 713.476563 906.71875 706.640625 L 904.804688 705.273438 L 904.804688 705.273438 L 859.414063 368.164063 L 859.414063 368.164063 C 858.398438 360.703125 854.492188 353.984375 848.515625 349.414063 C 842.539063 344.84375 835 342.851563 827.539063 343.867188 C 820.078125 344.84375 813.359375 348.789063 808.789063 354.765625 C 804.21875 360.742188 802.226563 368.28125 803.242188 375.742188 Z M 803.242188 375.742188 " transform="matrix(0.1,0,0,-0.1,-1,218)"/>
<path style="fill:none;stroke-width:5;stroke-linecap:round;stroke-linejoin:round;stroke:rgb(0%,0%,0%);stroke-opacity:1;stroke-miterlimit:10;" d="M 910.976563 710.390625 L 921.015625 720.390625 " transform="matrix(0.1,0,0,-0.1,-1,218)"/>
<path style="fill:none;stroke-width:5;stroke-linecap:round;stroke-linejoin:round;stroke:rgb(0%,0%,0%);stroke-opacity:1;stroke-miterlimit:10;" d="M 850.859375 770.507813 L 860.898438 780.546875 " transform="matrix(0.1,0,0,-0.1,-1,218)"/>
<path style="fill:none;stroke-width:5;stroke-linecap:round;stroke-linejoin:round;stroke:rgb(0%,0%,0%);stroke-opacity:1;stroke-miterlimit:10;" d="M 851.367188 351.914063 L 861.367188 361.914063 " transform="matrix(0.1,0,0,-0.1,-1,218)"/>
<path style="fill:none;stroke-width:5;stroke-linecap:round;stroke-linejoin:round;stroke:rgb(0%,0%,0%);stroke-opacity:1;stroke-miterlimit:10;" d="M 895.117188 740.429688 C 895.117188 744.21875 893.59375 747.8125 890.9375 750.46875 C 888.28125 753.125 884.6875 754.609375 880.9375 754.609375 C 877.148438 754.609375 873.554688 753.125 870.898438 750.46875 C 868.242188 747.8125 866.757813 744.21875 866.757813 740.429688 C 866.757813 736.679688 868.242188 733.085938 870.898438 730.429688 C 873.554688 727.773438 877.148438 726.289063 880.9375 726.289063 C 884.6875 726.289063 888.28125 727.773438 890.9375 730.429688 C 893.59375 733.085938 895.117188 736.679688 895.117188 740.429688 Z M 895.117188 740.429688 " transform="matrix(0.1,0,0,-0.1,-1,218)"/>
<path style="fill:none;stroke-width:5;stroke-linecap:round;stroke-linejoin:round;stroke:rgb(0%,0%,0%);stroke-opacity:1;stroke-miterlimit:10;" d="M 509.179688 2023.203125 C 503.671875 2068.007813 480.625 2108.75 445.078125 2136.523438 C 409.53125 2164.296875 364.414063 2176.796875 319.648438 2171.289063 C 274.84375 2165.820313 234.101563 2142.734375 206.328125 2107.1875 C 178.554688 2071.640625 166.054688 2026.523438 171.5625 1981.757813 C 177.070313 1936.992188 200.117188 1896.25 235.664063 1868.476563 C 271.210938 1840.703125 316.328125 1828.164063 361.09375 1833.671875 C 405.859375 1839.179688 446.601563 1862.226563 474.375 1897.773438 C 502.148438 1933.320313 514.6875 1978.4375 509.179688 2023.203125 Z M 509.179688 2023.203125 " transform="matrix(0.1,0,0,-0.1,-1,218)"/>
<path style=" stroke:none;fill-rule:nonzero;fill:rgb(100%,100%,100%);fill-opacity:1;" d="M 40.734375 115.335938 L 44.707031 147.691406 L 53.148438 146.65625 L 49.175781 114.300781 "/>
<path style="fill:none;stroke-width:5;stroke-linecap:round;stroke-linejoin:round;stroke:rgb(0%,0%,0%);stroke-opacity:1;stroke-miterlimit:10;" d="M 402.65625 1844.21875 L 541.484375 713.4375 L 531.445313 703.4375 " transform="matrix(0.1,0,0,-0.1,-1,218)"/>
<path style=" stroke:none;fill-rule:nonzero;fill:rgb(100%,100%,100%);fill-opacity:1;" d="M 48.914063 16.679688 C 48.367188 12.203125 46.058594 8.128906 42.503906 5.351563 C 38.949219 2.574219 34.4375 1.320313 29.960938 1.871094 C 25.484375 2.421875 21.410156 4.726563 18.632813 8.28125 C 15.855469 11.835938 14.601563 16.347656 15.152344 20.824219 C 15.703125 25.304688 18.007813 29.378906 21.5625 32.15625 C 25.117188 34.933594 29.628906 36.183594 34.105469 35.632813 C 38.585938 35.085938 42.660156 32.777344 45.4375 29.222656 C 48.214844 25.671875 49.464844 21.15625 48.914063 16.679688 "/>
<path style="fill:none;stroke-width:5;stroke-linecap:round;stroke-linejoin:round;stroke:rgb(0%,0%,0%);stroke-opacity:1;stroke-miterlimit:10;" d="M 499.140625 2013.203125 C 493.671875 2057.96875 470.585938 2098.710938 435.039063 2126.484375 C 399.492188 2154.257813 354.375 2166.796875 309.609375 2161.289063 C 264.84375 2155.78125 224.101563 2132.734375 196.328125 2097.1875 C 168.554688 2061.640625 156.015625 2016.523438 161.523438 1971.757813 C 167.03125 1926.953125 190.078125 1886.210938 225.625 1858.4375 C 261.171875 1830.664063 306.289063 1818.164063 351.054688 1823.671875 C 395.859375 1829.140625 436.601563 1852.226563 464.375 1887.773438 C 492.148438 1923.28125 504.648438 1968.4375 499.140625 2013.203125 Z M 499.140625 2013.203125 " transform="matrix(0.1,0,0,-0.1,-1,218)"/>
<path style=" stroke:none;fill-rule:nonzero;fill:rgb(100%,100%,100%);fill-opacity:1;" d="M 39.730469 116.339844 L 43.707031 148.695313 L 52.144531 147.65625 L 48.171875 115.300781 "/>
<path style="fill:none;stroke-width:5;stroke-linecap:round;stroke-linejoin:round;stroke:rgb(0%,0%,0%);stroke-opacity:1;stroke-miterlimit:10;" d="M 308.203125 1823.828125 L 447.070313 693.046875 L 531.445313 703.4375 L 392.617188 1834.21875 " transform="matrix(0.1,0,0,-0.1,-1,218)"/>
<path style="fill:none;stroke-width:5;stroke-linecap:round;stroke-linejoin:round;stroke:rgb(0%,0%,0%);stroke-opacity:1;stroke-miterlimit:10;" d="M 450.585938 1872.226563 L 460.625 1882.226563 " transform="matrix(0.1,0,0,-0.1,-1,218)"/>
<path style="fill:none;stroke-width:5;stroke-linecap:round;stroke-linejoin:round;stroke:rgb(0%,0%,0%);stroke-opacity:1;stroke-miterlimit:10;" d="M 210.078125 2112.734375 L 220.117188 2122.773438 " transform="matrix(0.1,0,0,-0.1,-1,218)"/>
<path style="fill:none;stroke-width:5;stroke-linecap:round;stroke-linejoin:round;stroke:rgb(0%,0%,0%);stroke-opacity:1;stroke-miterlimit:10;" d="M 498.242188 740.429688 C 498.242188 744.21875 496.757813 747.8125 494.101563 750.46875 C 491.445313 753.125 487.8125 754.609375 484.0625 754.609375 C 480.3125 754.609375 476.71875 753.125 474.0625 750.46875 C 471.40625 747.8125 469.882813 744.21875 469.882813 740.429688 C 469.882813 736.679688 471.40625 733.085938 474.0625 730.429688 C 476.71875 727.773438 480.3125 726.289063 484.0625 726.289063 C 487.8125 726.289063 491.445313 727.773438 494.101563 730.429688 C 496.757813 733.085938 498.242188 736.679688 498.242188 740.429688 Z M 498.242188 740.429688 " transform="matrix(0.1,0,0,-0.1,-1,218)"/>
<path style="fill:none;stroke-width:3;stroke-linecap:round;stroke-linejoin:round;stroke:rgb(0%,0%,0%);stroke-opacity:1;stroke-miterlimit:10;" d="M 865.078125 339.648438 C 872.773438 334.921875 881.71875 332.34375 890.9375 332.34375 C 904.101563 332.34375 916.71875 337.578125 926.015625 346.875 C 935.3125 356.210938 940.546875 368.828125 940.546875 381.953125 " transform="matrix(0.1,0,0,-0.1,-1,218)"/>
<path style=" stroke:none;fill-rule:nonzero;fill:rgb(0%,0%,0%);fill-opacity:1;" d="M 92.609375 183.175781 C 93.148438 182.144531 93.308594 180.949219 93.054688 179.804688 C 92.800781 180.949219 92.148438 181.964844 91.226563 182.671875 "/>
<path style="fill:none;stroke-width:3;stroke-linecap:round;stroke-linejoin:round;stroke:rgb(0%,0%,0%);stroke-opacity:1;stroke-miterlimit:10;" d="M 936.09375 348.242188 C 941.484375 358.554688 943.085938 370.507813 940.546875 381.953125 C 938.007813 370.507813 931.484375 360.351563 922.265625 353.28125 L 936.09375 348.242188 Z M 936.09375 348.242188 " transform="matrix(0.1,0,0,-0.1,-1,218)"/>
<path style="fill:none;stroke-width:3;stroke-linecap:round;stroke-linejoin:round;stroke:rgb(0%,0%,0%);stroke-opacity:1;stroke-miterlimit:10;" d="M 608.28125 1781.875 C 567.265625 1786.757813 525.820313 1789.257813 484.0625 1789.257813 C 470.15625 1789.257813 456.25 1788.984375 442.382813 1788.4375 " transform="matrix(0.1,0,0,-0.1,-1,218)"/>
<path style=" stroke:none;fill-rule:nonzero;fill:rgb(0%,0%,0%);fill-opacity:1;" d="M 46.542969 38.34375 C 45.4375 38.597656 44.335938 38.867188 43.238281 39.15625 C 44.355469 39.359375 45.46875 39.578125 46.578125 39.8125 "/>
<path style="fill:none;stroke-width:3;stroke-linecap:round;stroke-linejoin:round;stroke:rgb(0%,0%,0%);stroke-opacity:1;stroke-miterlimit:10;" d="M 475.429688 1796.5625 C 464.375 1794.023438 453.359375 1791.328125 442.382813 1788.4375 C 453.554688 1786.40625 464.6875 1784.21875 475.78125 1781.875 L 475.429688 1796.5625 Z M 475.429688 1796.5625 " transform="matrix(0.1,0,0,-0.1,-1,218)"/>
<path style=" stroke:none;fill-rule:nonzero;fill:rgb(0%,0%,0%);fill-opacity:1;" d="M 56.449219 40.203125 C 57.574219 40.054688 58.699219 39.925781 59.828125 39.8125 C 58.757813 39.4375 57.679688 39.078125 56.597656 38.738281 "/>
<path style="fill:none;stroke-width:3;stroke-linecap:round;stroke-linejoin:round;stroke:rgb(0%,0%,0%);stroke-opacity:1;stroke-miterlimit:10;" d="M 574.492188 1777.96875 C 585.742188 1779.453125 596.992188 1780.742188 608.28125 1781.875 C 597.578125 1785.625 586.796875 1789.21875 575.976563 1792.617188 L 574.492188 1777.96875 Z M 574.492188 1777.96875 " transform="matrix(0.1,0,0,-0.1,-1,218)"/>
<path style="fill:none;stroke-width:3;stroke-linecap:round;stroke-linejoin:round;stroke:rgb(0%,0%,0%);stroke-opacity:1;stroke-dasharray:30,30;stroke-miterlimit:10;" d="M 891.71875 1946.25 C 900.3125 1990.507813 890.976563 2036.40625 865.78125 2073.789063 C 840.546875 2111.171875 801.484375 2137.03125 757.226563 2145.625 C 712.929688 2154.257813 667.070313 2144.921875 629.648438 2119.6875 C 592.265625 2094.453125 566.40625 2055.429688 557.8125 2011.132813 C 549.21875 1966.875 558.554688 1920.976563 583.75 1883.59375 C 608.984375 1846.171875 648.046875 1820.351563 692.304688 1811.71875 C 736.601563 1803.125 782.460938 1812.460938 819.882813 1837.695313 C 857.265625 1862.890625 883.125 1901.953125 891.71875 1946.25 Z M 891.71875 1946.25 " transform="matrix(0.1,0,0,-0.1,-1,218)"/>
<path style="fill:none;stroke-width:3;stroke-linecap:round;stroke-linejoin:round;stroke:rgb(0%,0%,0%);stroke-opacity:1;stroke-dasharray:30,30;stroke-miterlimit:10;" d="M 651.601563 1825.15625 L 434.21875 706.835938 L 517.695313 690.585938 L 735.078125 1808.945313 " transform="matrix(0.1,0,0,-0.1,-1,218)"/>
</g>
</g>
</svg>
