<?xml version="1.0" encoding="UTF-8"?>
<svg xmlns="http://www.w3.org/2000/svg" xmlns:xlink="http://www.w3.org/1999/xlink" width="243pt" height="144pt" viewBox="0 0 175 104" version="1.1">
<g id="surface0">
<path style="fill:none;stroke-width:5;stroke-linecap:round;stroke-linejoin:round;stroke:rgb(0%,0%,0%);stroke-opacity:1;stroke-miterlimit:10;" d="M 632.421875 1014.335938 C 684.53125 1024.375 737.539063 1029.140625 790.625 1028.671875 C 843.789063 1028.164063 896.757813 1022.382813 948.828125 1011.601563 C 1002.96875 1000.429688 1055.820313 983.90625 1107.03125 963.164063 C 1161.875 940.898438 1214.609375 913.867188 1265.234375 883.242188 C 1320.46875 849.882813 1373.125 812.382813 1423.4375 771.953125 C 1478.867188 727.421875 1531.367188 679.414063 1581.640625 629.21875 C 1637.1875 573.75 1689.960938 515.625 1739.84375 455.039063 " transform="matrix(0.1,0,0,-0.1,0,104)"/>
<path style="fill:none;stroke-width:5;stroke-linecap:round;stroke-linejoin:round;stroke:rgb(0%,0%,0%);stroke-opacity:1;stroke-miterlimit:10;" d="M 12.890625 570 C 65.039063 580.039063 118.007813 584.84375 171.09375 584.375 C 224.257813 583.867188 277.265625 578.085938 329.296875 567.304688 C 383.4375 556.09375 436.328125 539.609375 487.539063 518.828125 C 542.34375 496.5625 595.078125 469.53125 645.742188 438.945313 C 700.976563 405.546875 753.59375 368.046875 803.945313 327.617188 C 859.335938 283.085938 911.835938 235.117188 962.148438 184.882813 C 1017.65625 129.453125 1070.46875 71.328125 1120.351563 10.742188 " transform="matrix(0.1,0,0,-0.1,0,104)"/>
<path style="fill:none;stroke-width:5;stroke-linecap:round;stroke-linejoin:round;stroke:rgb(0%,0%,0%);stroke-opacity:1;stroke-miterlimit:10;" d="M 632.421875 1014.335938 C 604.140625 978.164063 574.609375 943.046875 543.90625 908.945313 C 515.507813 877.421875 486.09375 846.835938 455.390625 817.539063 C 427.03125 790.46875 397.578125 764.53125 366.914063 740.117188 C 338.476563 717.5 309.023438 696.171875 278.398438 676.640625 C 249.882813 658.4375 220.390625 641.796875 189.882813 627.109375 C 161.210938 613.320313 131.679688 601.328125 101.367188 591.5625 C 72.421875 582.265625 42.851563 575.078125 12.890625 570 " transform="matrix(0.1,0,0,-0.1,0,104)"/>
<path style="fill:none;stroke-width:5;stroke-linecap:round;stroke-linejoin:round;stroke:rgb(0%,0%,0%);stroke-opacity:1;stroke-miterlimit:10;" d="M 1739.84375 455.039063 C 1711.5625 418.945313 1682.070313 383.789063 1651.367188 349.6875 C 1622.96875 318.203125 1593.515625 287.578125 1562.851563 258.28125 C 1534.453125 231.210938 1505.039063 205.273438 1474.335938 180.859375 C 1445.898438 158.242188 1416.445313 136.914063 1385.859375 117.382813 C 1357.304688 99.179688 1327.8125 82.539063 1297.34375 67.851563 C 1268.632813 54.0625 1239.140625 42.070313 1208.828125 32.304688 C 1179.882813 23.007813 1150.3125 15.820313 1120.3125 10.742188 " transform="matrix(0.1,0,0,-0.1,0,104)"/>
<path style="fill:none;stroke-width:3;stroke-linecap:round;stroke-linejoin:round;stroke:rgb(0%,0%,0%);stroke-opacity:1;stroke-miterlimit:10;" d="M 790.625 1028.671875 C 762.34375 992.539063 732.8125 957.382813 702.109375 923.320313 C 673.710938 891.796875 644.296875 861.210938 613.59375 831.914063 C 585.234375 804.84375 555.78125 778.90625 525.117188 754.492188 C 496.679688 731.835938 467.226563 710.546875 436.601563 691.015625 C 408.085938 672.8125 378.59375 656.171875 348.085938 641.484375 C 319.414063 627.695313 289.882813 615.703125 259.609375 605.9375 C 230.664063 596.640625 201.054688 589.414063 171.09375 584.375 " transform="matrix(0.1,0,0,-0.1,0,104)"/>
<path style="fill:none;stroke-width:3;stroke-linecap:round;stroke-linejoin:round;stroke:rgb(0%,0%,0%);stroke-opacity:1;stroke-miterlimit:10;" d="M 948.828125 1011.601563 C 920.546875 975.46875 891.015625 940.351563 860.3125 906.25 C 831.914063 874.726563 802.5 844.140625 771.796875 814.84375 C 743.4375 787.773438 713.984375 761.835938 683.320313 737.421875 C 654.882813 714.804688 625.429688 693.476563 594.804688 673.945313 C 566.289063 655.742188 536.796875 639.101563 506.328125 624.453125 C 477.617188 610.625 448.085938 598.632813 417.8125 588.867188 C 388.867188 579.570313 359.257813 572.34375 329.296875 567.304688 " transform="matrix(0.1,0,0,-0.1,0,104)"/>
<path style="fill:none;stroke-width:3;stroke-linecap:round;stroke-linejoin:round;stroke:rgb(0%,0%,0%);stroke-opacity:1;stroke-miterlimit:10;" d="M 1107.03125 963.164063 C 1078.789063 926.992188 1049.257813 891.875 1018.515625 857.773438 C 990.117188 826.25 960.703125 795.664063 930.039063 766.367188 C 901.640625 739.296875 872.1875 713.359375 841.523438 688.945313 C 813.085938 666.328125 783.632813 645 753.007813 625.46875 C 724.492188 607.265625 695 590.625 664.53125 575.9375 C 635.820313 562.148438 606.328125 550.15625 576.015625 540.390625 C 547.070313 531.09375 517.5 523.90625 487.5 518.828125 " transform="matrix(0.1,0,0,-0.1,0,104)"/>
<path style="fill:none;stroke-width:3;stroke-linecap:round;stroke-linejoin:round;stroke:rgb(0%,0%,0%);stroke-opacity:1;stroke-miterlimit:10;" d="M 1265.234375 883.242188 C 1236.953125 847.109375 1207.460938 811.953125 1176.71875 777.890625 C 1148.320313 746.367188 1118.90625 715.78125 1088.203125 686.484375 C 1059.84375 659.414063 1030.390625 633.476563 999.726563 609.0625 C 971.289063 586.40625 941.835938 565.117188 911.210938 545.546875 C 882.695313 527.382813 853.203125 510.742188 822.734375 496.054688 C 794.023438 482.265625 764.53125 470.234375 734.21875 460.507813 C 705.273438 451.210938 675.703125 443.984375 645.703125 438.945313 " transform="matrix(0.1,0,0,-0.1,0,104)"/>
<path style="fill:none;stroke-width:3;stroke-linecap:round;stroke-linejoin:round;stroke:rgb(0%,0%,0%);stroke-opacity:1;stroke-miterlimit:10;" d="M 1423.4375 771.953125 C 1395.15625 735.820313 1365.664063 700.664063 1334.921875 666.5625 C 1306.523438 635.078125 1277.109375 604.453125 1246.445313 575.15625 C 1218.046875 548.085938 1188.59375 522.148438 1157.929688 497.734375 C 1129.492188 475.117188 1100.039063 453.789063 1069.414063 434.257813 C 1040.898438 416.054688 1011.40625 399.414063 980.9375 384.726563 C 952.226563 370.9375 922.734375 358.945313 892.421875 349.21875 C 863.476563 339.882813 833.90625 332.695313 803.90625 327.617188 " transform="matrix(0.1,0,0,-0.1,0,104)"/>
<path style="fill:none;stroke-width:3;stroke-linecap:round;stroke-linejoin:round;stroke:rgb(0%,0%,0%);stroke-opacity:1;stroke-miterlimit:10;" d="M 1581.640625 629.21875 C 1553.398438 593.085938 1523.867188 557.929688 1493.125 523.828125 C 1464.726563 492.34375 1435.3125 461.71875 1404.648438 432.421875 C 1376.289063 405.351563 1346.835938 379.414063 1316.132813 355 C 1287.695313 332.382813 1258.242188 311.054688 1227.617188 291.523438 C 1199.101563 273.320313 1169.609375 256.679688 1139.140625 242.03125 C 1110.46875 228.242188 1080.9375 216.210938 1050.625 206.484375 C 1021.679688 197.148438 992.109375 189.960938 962.109375 184.882813 " transform="matrix(0.1,0,0,-0.1,0,104)"/>
<path style="fill:none;stroke-width:5;stroke-linecap:round;stroke-linejoin:round;stroke:rgb(0%,0%,0%);stroke-opacity:1;stroke-miterlimit:10;" d="M 662.851563 506.953125 C 681.679688 497.421875 700.78125 488.398438 720.039063 479.804688 C 741.132813 470.390625 762.460938 461.523438 784.023438 453.320313 C 806.679688 444.726563 829.609375 436.875 852.851563 430.15625 C 876.015625 423.476563 899.492188 417.890625 923.320313 414.0625 C 945.78125 410.429688 968.515625 408.398438 991.289063 408.632813 C 1012.148438 408.867188 1032.96875 411.054688 1053.320313 415.820313 C 1072.070313 420.195313 1090.234375 426.757813 1107.265625 435.742188 C 1123.554688 444.335938 1138.632813 455.078125 1151.953125 467.773438 C 1165.273438 480.46875 1176.71875 495.039063 1185.976563 510.9375 C 1195.507813 527.382813 1202.65625 545.117188 1207.265625 563.554688 C 1212.03125 582.695313 1214.101563 602.421875 1213.4375 622.148438 C 1212.773438 642.265625 1209.296875 662.1875 1203.164063 681.40625 C 1197.070313 700.507813 1188.4375 718.671875 1177.421875 735.46875 C 1166.601563 751.992188 1153.59375 767.03125 1138.789063 780.117188 C 1123.984375 793.242188 1107.539063 804.335938 1089.921875 813.242188 C 1071.757813 822.382813 1052.539063 829.179688 1032.695313 833.710938 C 1011.71875 838.515625 990.234375 840.742188 968.710938 840.859375 C 945.625 840.976563 922.578125 838.671875 899.882813 834.570313 C 875.9375 830.195313 852.460938 823.828125 829.453125 816.054688 C 806.289063 808.242188 783.632813 798.945313 761.484375 788.671875 C 740.351563 778.867188 719.6875 768.125 699.453125 756.640625 C 681.054688 746.210938 663.046875 735.195313 645.46875 723.554688 C 630.195313 713.4375 615.234375 702.8125 600.820313 691.484375 C 588.90625 682.148438 577.382813 672.304688 566.796875 661.484375 C 558.59375 653.125 550.898438 644.179688 545.507813 633.75 C 541.328125 625.78125 538.59375 616.953125 539.296875 607.96875 C 540.039063 598.90625 544.179688 590.625 549.570313 583.320313 C 556.679688 573.710938 565.78125 565.898438 575.3125 558.710938 C 587.617188 549.453125 600.664063 541.171875 613.984375 533.359375 C 629.960938 523.984375 646.289063 515.273438 662.851563 506.953125 Z M 662.851563 506.953125 " transform="matrix(0.1,0,0,-0.1,0,104)"/>
<path style=" stroke:none;fill-rule:nonzero;fill:rgb(0%,0%,0%);fill-opacity:1;" d="M 88.769531 42.054688 C 88.769531 41.753906 88.652344 41.46875 88.4375 41.253906 C 88.226563 41.042969 87.9375 40.921875 87.636719 40.921875 C 87.335938 40.921875 87.046875 41.042969 86.835938 41.253906 C 86.621094 41.46875 86.503906 41.753906 86.503906 42.054688 C 86.503906 42.355469 86.621094 42.644531 86.835938 42.855469 C 87.046875 43.070313 87.335938 43.191406 87.636719 43.191406 C 87.9375 43.191406 88.226563 43.070313 88.4375 42.855469 C 88.652344 42.644531 88.769531 42.355469 88.769531 42.054688 "/>
</g>
</svg>
