<?xml version="1.0" encoding="UTF-8"?>
<svg xmlns="http://www.w3.org/2000/svg" xmlns:xlink="http://www.w3.org/1999/xlink" width="180pt" height="155pt" viewBox="0 0 130 112" version="1.1">
<defs>
<clipPath id="clip1">
  <path d="M -240 666 L 372 666 L 372 -126 L -240 -126 L -240 666 Z M -240 666 "/>
</clipPath>
<clipPath id="clip2">
  <path d="M 0.425781 111.820313 L 130.832031 111.820313 L 130.832031 -1.199219 L 0.425781 -1.199219 L 0.425781 111.820313 Z M 0.425781 111.820313 "/>
</clipPath>
</defs>
<g id="surface0">
<g clip-path="url(#clip1)" clip-rule="nonzero">
<g clip-path="url(#clip2)" clip-rule="nonzero">
<path style=" stroke:none;fill-rule:nonzero;fill:rgb(13.730068%,12.159915%,12.54902%);fill-opacity:1;" d="M 110.507813 106.585938 C 110.488281 107.484375 109.75 108.203125 108.847656 108.1875 C 107.953125 108.171875 107.234375 107.429688 107.25 106.53125 C 107.257813 105.632813 108.003906 104.914063 108.902344 104.929688 C 109.804688 104.941406 110.519531 105.683594 110.507813 106.585938 "/>
<path style="fill:none;stroke-width:5;stroke-linecap:butt;stroke-linejoin:miter;stroke:rgb(0%,0%,0%);stroke-opacity:1;stroke-miterlimit:4;" d="M 997.974697 48.415473 L 1047.50735 21.204864 " transform="matrix(0.108672,0,0,-0.108672,0.427,111.82)"/>
<path style=" stroke:none;fill-rule:nonzero;fill:rgb(0%,0%,0%);fill-opacity:1;" d="M 112.566406 110.367188 L 118.488281 111.820313 L 114.089844 107.597656 L 112.566406 110.367188 "/>
<path style="fill:none;stroke-width:5;stroke-linecap:butt;stroke-linejoin:miter;stroke:rgb(0%,0%,0%);stroke-opacity:1;stroke-miterlimit:4;" d="M 680.649397 349.385651 L 779.606867 336.301554 " transform="matrix(0.108672,0,0,-0.108672,0.427,111.82)"/>
<path style=" stroke:none;fill-rule:nonzero;fill:rgb(0%,0%,0%);fill-opacity:1;" d="M 83.832031 76.640625 L 89.902344 76.042969 L 84.347656 73.523438 L 83.832031 76.640625 "/>
<path style="fill:none;stroke-width:5;stroke-linecap:butt;stroke-linejoin:miter;stroke:rgb(0%,0%,0%);stroke-opacity:1;stroke-miterlimit:4;" d="M 1088.556907 388.314435 L 1144.128375 377.962182 " transform="matrix(0.108672,0,0,-0.108672,0.427,111.82)"/>
<path style=" stroke:none;fill-rule:nonzero;fill:rgb(0%,0%,0%);fill-opacity:1;" d="M 123.414063 72.082031 L 129.496094 71.609375 L 123.992188 68.980469 L 123.414063 72.082031 "/>
<path style=" stroke:none;fill-rule:nonzero;fill:rgb(13.730068%,12.159915%,12.54902%);fill-opacity:1;" d="M 120.351563 69.621094 C 120.351563 70.523438 119.621094 71.253906 118.722656 71.253906 C 117.820313 71.253906 117.089844 70.523438 117.089844 69.621094 C 117.089844 68.722656 117.820313 67.992188 118.722656 67.992188 C 119.621094 67.992188 120.351563 68.722656 120.351563 69.621094 "/>
<path style="fill:none;stroke-width:5;stroke-linecap:butt;stroke-linejoin:miter;stroke:rgb(0%,0%,0%);stroke-opacity:1;stroke-miterlimit:4;" d="M 988.377296 951.901134 L 1052.108351 1001.002443 " transform="matrix(0.108672,0,0,-0.108672,0.427,111.82)"/>
<path style=" stroke:none;fill-rule:nonzero;fill:rgb(0%,0%,0%);fill-opacity:1;" d="M 114.757813 4.9375 L 118.722656 0.300781 L 112.96875 2.332031 L 114.757813 4.9375 "/>
<path style="fill:none;stroke-width:5;stroke-linecap:butt;stroke-linejoin:miter;stroke:rgb(0%,0%,0%);stroke-opacity:1;stroke-miterlimit:4;" d="M 1032.554096 633.030185 L 1085.825063 651.901479 " transform="matrix(0.108672,0,0,-0.108672,0.427,111.82)"/>
<path style=" stroke:none;fill-rule:nonzero;fill:rgb(0%,0%,0%);fill-opacity:1;" d="M 117.929688 42.808594 L 122.960938 39.355469 L 116.878906 39.832031 L 117.929688 42.808594 "/>
<path style=" stroke:none;fill-rule:nonzero;fill:rgb(13.730068%,12.159915%,12.54902%);fill-opacity:1;" d="M 109.46875 7.433594 C 109.988281 8.335938 109.679688 9.488281 108.78125 10.007813 C 107.878906 10.527344 106.726563 10.21875 106.207031 9.316406 C 105.6875 8.417969 105.996094 7.265625 106.898438 6.746094 C 107.796875 6.226563 108.949219 6.535156 109.46875 7.433594 "/>
<path style=" stroke:none;fill-rule:nonzero;fill:rgb(13.730068%,12.159915%,12.54902%);fill-opacity:1;" d="M 76.027344 73.851563 C 76.027344 74.75 75.296875 75.480469 74.394531 75.480469 C 73.496094 75.480469 72.765625 74.75 72.765625 73.851563 C 72.765625 72.949219 73.496094 72.21875 74.394531 72.21875 C 75.296875 72.21875 76.027344 72.949219 76.027344 73.851563 "/>
<path style="fill:none;stroke-width:5;stroke-linecap:butt;stroke-linejoin:miter;stroke:rgb(0%,0%,0%);stroke-opacity:1;stroke-miterlimit:4;" d="M 635.645854 134.18101 L 724.143236 88.063163 " transform="matrix(0.108672,0,0,-0.108672,0.427,111.82)"/>
<path style=" stroke:none;fill-rule:nonzero;fill:rgb(0%,0%,0%);fill-opacity:1;" d="M 77.417969 103.082031 L 83.324219 104.601563 L 78.964844 100.332031 L 77.417969 103.082031 "/>
<path style=" stroke:none;fill-rule:nonzero;fill:rgb(13.730068%,12.159915%,12.54902%);fill-opacity:1;" d="M 71.234375 97.878906 C 70.90625 98.78125 69.910156 99.246094 69.007813 98.917969 C 68.109375 98.589844 67.644531 97.59375 67.972656 96.695313 C 68.300781 95.792969 69.296875 95.328125 70.195313 95.65625 C 71.097656 95.988281 71.558594 96.980469 71.234375 97.878906 "/>
<path style="fill:none;stroke-width:5;stroke-linecap:butt;stroke-linejoin:miter;stroke:rgb(0%,0%,0%);stroke-opacity:1;stroke-miterlimit:4;" d="M 788.593198 486.121655 L 908.219229 486.121655 " transform="matrix(0.108672,0,0,-0.108672,0.427,111.82)"/>
<path style=" stroke:none;fill-rule:nonzero;fill:rgb(0%,0%,0%);fill-opacity:1;" d="M 98.050781 60.570313 L 103.9375 58.835938 L 98.050781 57.414063 L 98.050781 60.570313 "/>
<path style=" stroke:none;fill-rule:nonzero;fill:rgb(13.730068%,12.159915%,12.54902%);fill-opacity:1;" d="M 87.757813 58.992188 C 87.757813 59.890625 87.027344 60.621094 86.125 60.621094 C 85.226563 60.621094 84.496094 59.890625 84.496094 58.992188 C 84.496094 58.089844 85.226563 57.363281 86.125 57.363281 C 87.027344 57.363281 87.757813 58.089844 87.757813 58.992188 "/>
<path style=" stroke:none;fill-rule:nonzero;fill:rgb(13.730068%,12.159915%,12.54902%);fill-opacity:1;" d="M 114.265625 43.027344 C 114.265625 43.925781 113.535156 44.65625 112.636719 44.65625 C 111.734375 44.65625 111.003906 43.925781 111.003906 43.027344 C 111.003906 42.125 111.734375 41.394531 112.636719 41.394531 C 113.535156 41.394531 114.265625 42.125 114.265625 43.027344 "/>
<path style="fill:none;stroke-width:5;stroke-linecap:butt;stroke-linejoin:miter;stroke:rgb(0%,0%,0%);stroke-opacity:1;stroke-miterlimit:4;" d="M 451.102572 451.110912 L 570.728603 451.110912 " transform="matrix(0.108672,0,0,-0.108672,0.427,111.82)"/>
<path style=" stroke:none;fill-rule:nonzero;fill:rgb(0%,0%,0%);fill-opacity:1;" d="M 61.414063 64.375 L 67.261719 62.640625 L 61.332031 61.214844 L 61.414063 64.375 "/>
<path style=" stroke:none;fill-rule:nonzero;fill:rgb(13.730068%,12.159915%,12.54902%);fill-opacity:1;" d="M 51.078125 62.796875 C 51.078125 63.695313 50.347656 64.425781 49.449219 64.425781 C 48.550781 64.425781 47.820313 63.695313 47.820313 62.796875 C 47.820313 61.894531 48.550781 61.164063 49.449219 61.164063 C 50.347656 61.164063 51.078125 61.894531 51.078125 62.796875 "/>
<path style="fill:none;stroke-width:5;stroke-linecap:butt;stroke-linejoin:miter;stroke:rgb(0%,0%,0%);stroke-opacity:1;stroke-miterlimit:4;" d="M 15.01393 498.055502 L 179.89512 498.055502 " transform="matrix(0.108672,0,0,-0.108672,0.427,111.82)"/>
<path style=" stroke:none;fill-rule:nonzero;fill:rgb(0%,0%,0%);fill-opacity:1;" d="M 18.898438 59.273438 L 24.789063 57.542969 L 18.898438 56.117188 L 18.898438 59.273438 "/>
<path style=" stroke:none;fill-rule:nonzero;fill:rgb(13.730068%,12.159915%,12.54902%);fill-opacity:1;" d="M 3.6875 57.695313 C 3.6875 58.597656 2.957031 59.328125 2.058594 59.328125 C 1.15625 59.328125 0.425781 58.597656 0.425781 57.695313 C 0.425781 56.796875 1.15625 56.066406 2.058594 56.066406 C 2.957031 56.066406 3.6875 56.796875 3.6875 57.695313 "/>
<path style="fill:none;stroke-width:5;stroke-linecap:butt;stroke-linejoin:miter;stroke:rgb(0%,0%,0%);stroke-opacity:1;stroke-miterlimit:4;" d="M 185.682317 733.892758 L 349.952437 748.270886 " transform="matrix(0.108672,0,0,-0.108672,0.427,111.82)"/>
<path style=" stroke:none;fill-rule:nonzero;fill:rgb(0%,0%,0%);fill-opacity:1;" d="M 37.5625 32.167969 L 43.234375 29.929688 L 37.203125 29.03125 L 37.5625 32.167969 "/>
<path style=" stroke:none;fill-rule:nonzero;fill:rgb(13.730068%,12.159915%,12.54902%);fill-opacity:1;" d="M 22.242188 31.917969 C 22.320313 32.816406 21.65625 33.613281 20.753906 33.691406 C 19.855469 33.769531 19.058594 33.101563 18.980469 32.203125 C 18.902344 31.300781 19.570313 30.507813 20.46875 30.429688 C 21.367188 30.351563 22.164063 31.015625 22.242188 31.917969 "/>
<path style="fill:none;stroke-width:5;stroke-linecap:butt;stroke-linejoin:miter;stroke:rgb(0%,0%,0%);stroke-opacity:1;stroke-miterlimit:4;" d="M 225.258116 291.369902 L 344.884147 291.369902 " transform="matrix(0.108672,0,0,-0.108672,0.427,111.82)"/>
<path style=" stroke:none;fill-rule:nonzero;fill:rgb(0%,0%,0%);fill-opacity:1;" d="M 36.832031 81.734375 L 42.71875 80 L 36.832031 78.578125 L 36.832031 81.734375 "/>
<path style=" stroke:none;fill-rule:nonzero;fill:rgb(13.730068%,12.159915%,12.54902%);fill-opacity:1;" d="M 26.539063 80.15625 C 26.539063 81.054688 25.808594 81.785156 24.90625 81.785156 C 24.007813 81.785156 23.277344 81.054688 23.277344 80.15625 C 23.277344 79.253906 24.007813 78.527344 24.90625 78.527344 C 25.808594 78.527344 26.539063 79.253906 26.539063 80.15625 "/>
<path style="fill:none;stroke-width:5;stroke-linecap:butt;stroke-linejoin:miter;stroke:rgb(0%,0%,0%);stroke-opacity:1;stroke-miterlimit:4;" d="M 684.998781 630.406176 L 800.56299 661.391044 " transform="matrix(0.108672,0,0,-0.108672,0.427,111.82)"/>
<path style=" stroke:none;fill-rule:nonzero;fill:rgb(0%,0%,0%);fill-opacity:1;" d="M 86.832031 41.738281 L 92.03125 38.550781 L 85.933594 38.710938 L 86.832031 41.738281 "/>
<path style=" stroke:none;fill-rule:nonzero;fill:rgb(13.730068%,12.159915%,12.54902%);fill-opacity:1;" d="M 76.550781 42.820313 C 76.792969 43.71875 76.257813 44.644531 75.359375 44.886719 C 74.457031 45.125 73.53125 44.59375 73.292969 43.691406 C 73.050781 42.792969 73.585938 41.867188 74.484375 41.625 C 75.382813 41.382813 76.308594 41.917969 76.550781 42.820313 "/>
<path style="fill:none;stroke-width:5;stroke-linecap:butt;stroke-linejoin:miter;stroke:rgb(0%,0%,0%);stroke-opacity:1;stroke-miterlimit:4;" d="M 561.023366 787.235615 L 673.424387 828.141391 " transform="matrix(0.108672,0,0,-0.108672,0.427,111.82)"/>
<path style=" stroke:none;fill-rule:nonzero;fill:rgb(0%,0%,0%);fill-opacity:1;" d="M 73.179688 23.660156 L 78.082031 20.03125 L 72.019531 20.722656 L 73.179688 23.660156 "/>
<path style=" stroke:none;fill-rule:nonzero;fill:rgb(13.730068%,12.159915%,12.54902%);fill-opacity:1;" d="M 63.125 25.578125 C 63.453125 26.476563 62.988281 27.472656 62.085938 27.800781 C 61.1875 28.128906 60.191406 27.664063 59.863281 26.765625 C 59.539063 25.863281 60 24.867188 60.902344 24.539063 C 61.800781 24.214844 62.796875 24.675781 63.125 25.578125 "/>
</g>
</g>
</g>
</svg>
