<?xml version="1.0" encoding="UTF-8"?>
<svg xmlns="http://www.w3.org/2000/svg" xmlns:xlink="http://www.w3.org/1999/xlink" width="159.61pt" height="145.29pt" viewBox="0 0 159.61 145.29" version="1.1">
<defs>
<clipPath id="clip1">
  <path d="M 121 0 L 159.609375 0 L 159.609375 135 L 121 135 Z M 121 0 "/>
</clipPath>
<clipPath id="clip2">
  <path d="M 118 129 L 128 129 L 128 145.289062 L 118 145.289062 Z M 118 129 "/>
</clipPath>
</defs>
<g id="surface1">
<g clip-path="url(#clip1)" clip-rule="nonzero">
<path style=" stroke:none;fill-rule:nonzero;fill:rgb(51.472473%,50.588989%,50.808716%);fill-opacity:1;" d="M 123.082031 134.488281 L 121.027344 133.929688 L 157.582031 -0.101562 L 159.636719 0.457031 L 123.082031 134.488281 "/>
</g>
<g clip-path="url(#clip2)" clip-rule="nonzero">
<path style=" stroke:none;fill-rule:nonzero;fill:rgb(51.472473%,50.588989%,50.808716%);fill-opacity:1;" d="M 122.398438 132.953125 L 127.566406 131.46875 L 127.625 131.644531 L 122.78125 138.09375 C 121.539062 140.460938 120.300781 142.832031 119.058594 145.199219 C 119.191406 142.527344 119.324219 139.855469 119.457031 137.183594 L 118.558594 129.171875 L 118.675781 129.042969 "/>
</g>
<path style=" stroke:none;fill-rule:nonzero;fill:rgb(51.472473%,50.588989%,50.808716%);fill-opacity:1;" d="M 0.367188 80.1875 L 0.0507812 78.082031 L 68.285156 67.847656 L 68.597656 69.949219 L 0.367188 80.1875 "/>
<path style=" stroke:none;fill-rule:nonzero;fill:rgb(51.472473%,50.588989%,50.808716%);fill-opacity:1;" d="M 67.15625 69.089844 L 63.710938 64.960938 L 63.851562 64.832031 L 71.703125 66.664062 C 74.371094 66.847656 77.039062 67.027344 79.707031 67.207031 C 77.210938 68.164062 74.714844 69.121094 72.214844 70.074219 L 65.246094 74.132812 L 65.078125 74.078125 "/>
</g>
</svg>
