<?xml version="1.0" encoding="UTF-8"?>
<svg xmlns="http://www.w3.org/2000/svg" xmlns:xlink="http://www.w3.org/1999/xlink" width="226pt" height="133pt" viewBox="0 0 163 96" version="1.1">
<defs>
<clipPath id="clip1">
  <path d="M -223 662 L 389 662 L 389 -130 L -223 -130 L -223 662 Z M -223 662 "/>
</clipPath>
<clipPath id="clip2">
  <path d="M 0.417969 98.644531 L 164.835938 98.644531 L 164.835938 -5.199219 L 0.417969 -5.199219 L 0.417969 98.644531 Z M 0.417969 98.644531 "/>
</clipPath>
<clipPath id="clip3">
  <path d="M -223 662 L 389 662 L 389 -130 L -223 -130 L -223 662 Z M -223 662 "/>
</clipPath>
<clipPath id="clip4">
  <path d="M 0.417969 98.644531 L 164.835938 98.644531 L 164.835938 -5.199219 L 0.417969 -5.199219 L 0.417969 98.644531 Z M 0.417969 98.644531 "/>
</clipPath>
<clipPath id="clip5">
  <path d="M 103.660156 47.828125 C 103.660156 59.527344 94.363281 69.015625 82.894531 69.015625 C 71.425781 69.015625 62.128906 59.527344 62.128906 47.828125 C 62.128906 36.128906 71.425781 26.640625 82.894531 26.640625 C 94.363281 26.640625 103.660156 36.128906 103.660156 47.828125 Z M 103.660156 47.828125 "/>
</clipPath>
</defs>
<g id="surface0">
<g clip-path="url(#clip1)" clip-rule="nonzero">
<g clip-path="url(#clip2)" clip-rule="nonzero">
<path style="fill:none;stroke-width:5;stroke-linecap:butt;stroke-linejoin:miter;stroke:rgb(13.730068%,12.159915%,12.54902%);stroke-opacity:1;stroke-miterlimit:4;" d="M 19.744171 834.15555 C 19.744171 834.15555 148.594663 801.220671 433.48859 871.387853 C 663.99663 901.433707 868.720127 938.66601 1110.675928 872.796252 C 1235.192883 844.158797 1352.631728 821.263278 1495.782891 828.413614 " transform="matrix(0.108168,0,0,-0.108168,0.419,98.643)"/>
<path style=" stroke:none;fill-rule:nonzero;fill:rgb(13.730068%,12.159915%,12.54902%);fill-opacity:1;" d="M 138.492188 9.414063 L 144.496094 8.53125 L 138.855469 6.292969 L 138.492188 9.414063 "/>
<path style=" stroke:none;fill-rule:nonzero;fill:rgb(13.730068%,12.159915%,12.54902%);fill-opacity:1;" d="M 14.738281 10.675781 L 20.550781 8.929688 L 14.644531 7.535156 L 14.738281 10.675781 "/>
<path style="fill:none;stroke-width:5;stroke-linecap:butt;stroke-linejoin:miter;stroke:rgb(13.730068%,12.159915%,12.54902%);stroke-opacity:1;stroke-miterlimit:4;" d="M 19.744171 778.325152 C 19.744171 778.325152 284.59549 768.285792 507.917083 831.302638 C 652.512758 861.348493 821.448464 889.985948 1009.018379 841.305885 C 1148.197133 804.470823 1288.675949 771.535944 1498.635803 773.486036 " transform="matrix(0.108168,0,0,-0.108168,0.419,98.643)"/>
<path style=" stroke:none;fill-rule:nonzero;fill:rgb(13.730068%,12.159915%,12.54902%);fill-opacity:1;" d="M 138.488281 15.109375 L 144.5 14.273438 L 138.875 11.992188 L 138.488281 15.109375 "/>
<path style=" stroke:none;fill-rule:nonzero;fill:rgb(13.730068%,12.159915%,12.54902%);fill-opacity:1;" d="M 14.796875 16 L 20.566406 14.113281 L 14.628906 12.863281 L 14.796875 16 "/>
<path style="fill:none;stroke-width:5;stroke-linecap:butt;stroke-linejoin:miter;stroke:rgb(13.730068%,12.159915%,12.54902%);stroke-opacity:1;stroke-miterlimit:4;" d="M 18.299659 721.050241 C 18.299659 721.050241 288.892914 686.706963 512.214507 778.325152 C 653.95727 816.965854 801.405857 859.90398 1001.868043 786.919999 C 1094.930744 758.282544 1265.27485 699.563122 1485.743531 709.602482 " transform="matrix(0.108168,0,0,-0.108168,0.419,98.643)"/>
<path style=" stroke:none;fill-rule:nonzero;fill:rgb(13.730068%,12.159915%,12.54902%);fill-opacity:1;" d="M 138.5 22.445313 L 144.484375 21.4375 L 138.796875 19.316406 L 138.5 22.445313 "/>
<path style=" stroke:none;fill-rule:nonzero;fill:rgb(13.730068%,12.159915%,12.54902%);fill-opacity:1;" d="M 14.648438 22.6875 L 20.546875 21.257813 L 14.722656 19.546875 L 14.648438 22.6875 "/>
<path style="fill:none;stroke-width:5;stroke-linecap:butt;stroke-linejoin:miter;stroke:rgb(13.730068%,12.159915%,12.54902%);stroke-opacity:1;stroke-miterlimit:4;" d="M 19.744171 658.069508 C 19.744171 658.069508 362.888054 636.582388 548.002297 732.498001 C 663.99663 775.436127 794.255522 827.005214 1011.87129 723.903153 C 1109.231415 683.817938 1230.931572 636.582388 1490.040955 653.772084 " transform="matrix(0.108168,0,0,-0.108168,0.419,98.643)"/>
<path style=" stroke:none;fill-rule:nonzero;fill:rgb(13.730068%,12.159915%,12.54902%);fill-opacity:1;" d="M 138.507813 29.269531 L 144.480469 28.1875 L 138.769531 26.136719 L 138.507813 29.269531 "/>
<path style=" stroke:none;fill-rule:nonzero;fill:rgb(13.730068%,12.159915%,12.54902%);fill-opacity:1;" d="M 14.683594 29.105469 L 20.535156 27.488281 L 14.660156 25.964844 L 14.683594 29.105469 "/>
<path style="fill:none;stroke-width:5;stroke-linecap:butt;stroke-linejoin:miter;stroke:rgb(13.730068%,12.159915%,12.54902%);stroke-opacity:1;stroke-miterlimit:4;" d="M 14.002235 600.794597 C 86.697313 583.71324 165.495456 584.904963 239.201693 592.163637 C 298.282244 598.013911 356.78499 609.533896 413.770997 626.145787 C 447.319794 635.932358 480.290786 647.488455 512.611747 660.66963 C 530.01812 667.74774 547.207816 675.295316 564.216947 683.312359 C 610.477452 705.124494 656.087926 725.67268 707.187546 734.881446 C 774.574042 747.015349 842.935584 736.21762 907.288604 714.694387 C 925.742248 708.519098 944.484794 702.777161 961.782829 693.857298 C 1122.268138 611.014521 1235.192883 589.346838 1482.890619 589.346838 " transform="matrix(0.108168,0,0,-0.108168,0.419,98.643)"/>
<path style=" stroke:none;fill-rule:nonzero;fill:rgb(13.730068%,12.159915%,12.54902%);fill-opacity:1;" d="M 138.507813 35.550781 L 144.480469 34.480469 L 138.769531 32.421875 L 138.507813 35.550781 "/>
<path style=" stroke:none;fill-rule:nonzero;fill:rgb(13.730068%,12.159915%,12.54902%);fill-opacity:1;" d="M 14.824219 36.964844 L 20.574219 35.019531 L 14.621094 33.828125 L 14.824219 36.964844 "/>
<path style="fill:none;stroke-width:5;stroke-linecap:butt;stroke-linejoin:miter;stroke:rgb(13.730068%,12.159915%,12.54902%);stroke-opacity:1;stroke-miterlimit:4;" d="M 15.446747 536.369351 C 15.446747 536.369351 321.827793 489.133801 490.7635 583.604902 C 561.761276 623.328988 624.416995 678.003777 704.948552 699.129768 C 776.163006 717.836202 867.672856 703.029951 926.897858 657.816718 C 977.780802 619.031564 1031.372206 583.352112 1092.402848 562.803925 C 1219.122684 520.154701 1360.612658 520.732506 1492.604964 523.188177 " transform="matrix(0.108168,0,0,-0.108168,0.419,98.643)"/>
<path style=" stroke:none;fill-rule:nonzero;fill:rgb(13.730068%,12.159915%,12.54902%);fill-opacity:1;" d="M 138.515625 43.167969 L 144.46875 41.984375 L 138.722656 40.035156 L 138.515625 43.167969 "/>
<path style=" stroke:none;fill-rule:nonzero;fill:rgb(13.730068%,12.159915%,12.54902%);fill-opacity:1;" d="M 14.652344 43.371094 L 20.542969 41.902344 L 14.707031 40.226563 L 14.652344 43.371094 "/>
<path style="fill:none;stroke-width:5;stroke-linecap:butt;stroke-linejoin:miter;stroke:rgb(13.730068%,12.159915%,12.54902%);stroke-opacity:1;stroke-miterlimit:4;" d="M 19.744171 112.874475 C 19.744171 112.874475 171.634633 134.144918 433.48859 69.791898 C 663.99663 25.373146 868.720127 2.51374 1110.675928 68.347386 C 1235.192883 96.984841 1352.631728 119.88036 1495.782891 112.730024 " transform="matrix(0.108168,0,0,-0.108168,0.419,98.643)"/>
<path style=" stroke:none;fill-rule:nonzero;fill:rgb(13.730068%,12.159915%,12.54902%);fill-opacity:1;" d="M 138.492188 86.050781 L 144.496094 86.933594 L 138.855469 89.175781 L 138.492188 86.050781 "/>
<path style=" stroke:none;fill-rule:nonzero;fill:rgb(13.730068%,12.159915%,12.54902%);fill-opacity:1;" d="M 14.738281 84.792969 L 20.550781 86.539063 L 14.644531 87.933594 L 14.738281 84.792969 "/>
<path style="fill:none;stroke-width:5;stroke-linecap:butt;stroke-linejoin:miter;stroke:rgb(13.730068%,12.159915%,12.54902%);stroke-opacity:1;stroke-miterlimit:4;" d="M 30.072434 173.218974 C 359.276773 172.785621 359.457337 144.762083 507.917083 102.907341 C 652.512758 67.155663 821.448464 51.15769 1009.018379 99.837752 C 1148.197133 136.708927 1288.675949 169.643806 1498.635803 167.693715 " transform="matrix(0.108168,0,0,-0.108168,0.419,98.643)"/>
<path style=" stroke:none;fill-rule:nonzero;fill:rgb(13.730068%,12.159915%,12.54902%);fill-opacity:1;" d="M 138.488281 80.378906 L 144.5 81.214844 L 138.875 83.496094 L 138.488281 80.378906 "/>
<path style=" stroke:none;fill-rule:nonzero;fill:rgb(13.730068%,12.159915%,12.54902%);fill-opacity:1;" d="M 14.796875 78.367188 L 20.566406 80.253906 L 14.628906 81.503906 L 14.796875 78.367188 "/>
<path style="fill:none;stroke-width:5;stroke-linecap:butt;stroke-linejoin:miter;stroke:rgb(13.730068%,12.159915%,12.54902%);stroke-opacity:1;stroke-miterlimit:4;" d="M 24.149933 236.633062 C 24.149933 236.633062 288.892914 254.472788 512.214507 162.854599 C 653.95727 110.382692 801.405857 88.642783 1001.868043 161.626763 C 1094.930744 190.264219 1260.327396 246.564083 1485.743531 231.577269 " transform="matrix(0.108168,0,0,-0.108168,0.419,98.643)"/>
<path style=" stroke:none;fill-rule:nonzero;fill:rgb(13.730068%,12.159915%,12.54902%);fill-opacity:1;" d="M 138.5 72.632813 L 144.484375 73.644531 L 138.796875 75.761719 L 138.5 72.632813 "/>
<path style=" stroke:none;fill-rule:nonzero;fill:rgb(13.730068%,12.159915%,12.54902%);fill-opacity:1;" d="M 14.648438 71.878906 L 20.546875 73.308594 L 14.722656 75.019531 L 14.648438 71.878906 "/>
<path style="fill:none;stroke-width:5;stroke-linecap:butt;stroke-linejoin:miter;stroke:rgb(13.730068%,12.159915%,12.54902%);stroke-opacity:1;stroke-miterlimit:4;" d="M 19.744171 283.110243 C 64.12681 288.09381 109.123366 289.177194 153.722681 288.635502 C 226.815001 287.768795 300.087884 281.160151 371.771804 266.534465 C 450.894962 250.355928 527.345772 223.018534 602.713198 196.800637 C 672.302576 172.605056 736.980611 147.903897 811.409104 155.379248 C 881.142933 162.385132 947.446045 200.123015 1011.87129 226.629814 C 1109.231415 266.715029 1230.931572 304.56125 1490.040955 287.407667 " transform="matrix(0.108168,0,0,-0.108168,0.419,98.643)"/>
<path style=" stroke:none;fill-rule:nonzero;fill:rgb(13.730068%,12.159915%,12.54902%);fill-opacity:1;" d="M 138.507813 66.078125 L 144.480469 67.15625 L 138.769531 69.210938 L 138.507813 66.078125 "/>
<path style=" stroke:none;fill-rule:nonzero;fill:rgb(13.730068%,12.159915%,12.54902%);fill-opacity:1;" d="M 14.683594 65.890625 L 20.535156 67.503906 L 14.660156 69.03125 L 14.683594 65.890625 "/>
<path style="fill:none;stroke-width:5;stroke-linecap:butt;stroke-linejoin:miter;stroke:rgb(13.730068%,12.159915%,12.54902%);stroke-opacity:1;stroke-miterlimit:4;" d="M 14.002235 340.385153 C 14.868942 340.637943 15.699537 340.926845 16.530131 341.179635 C 92.980942 364.255718 178.532179 364.255718 257.005307 355.40808 C 336.020126 346.488217 413.482095 325.651128 487.007768 295.496935 C 571.042268 261.081431 649.948749 203.553731 743.517029 198.13681 C 817.981635 193.839386 891.037842 220.021171 957.052051 252.05323 C 1144.405289 342.949162 1162.281128 351.832913 1501.633166 351.832913 " transform="matrix(0.108168,0,0,-0.108168,0.419,98.643)"/>
<path style=" stroke:none;fill-rule:nonzero;fill:rgb(13.730068%,12.159915%,12.54902%);fill-opacity:1;" d="M 138.507813 59.691406 L 144.480469 60.765625 L 138.769531 62.824219 L 138.507813 59.691406 "/>
<path style=" stroke:none;fill-rule:nonzero;fill:rgb(13.730068%,12.159915%,12.54902%);fill-opacity:1;" d="M 14.824219 57.695313 L 20.574219 59.640625 L 14.621094 60.832031 L 14.824219 57.695313 "/>
<path style="fill:none;stroke-width:5;stroke-linecap:butt;stroke-linejoin:miter;stroke:rgb(13.730068%,12.159915%,12.54902%);stroke-opacity:1;stroke-miterlimit:4;" d="M 15.446747 404.810399 C 48.526077 410.263433 82.002649 413.621924 115.443107 416.041482 C 240.357303 425.069683 397.556348 427.417016 504.847494 353.205199 C 565.300331 311.422683 625.428153 262.778733 696.42593 240.136004 C 768.904332 217.023808 859.764152 226.124235 920.253102 272.890319 C 1020.466138 350.3884 1116.634541 447.748525 1500.080315 410.516222 " transform="matrix(0.108168,0,0,-0.108168,0.419,98.643)"/>
<path style=" stroke:none;fill-rule:nonzero;fill:rgb(13.730068%,12.159915%,12.54902%);fill-opacity:1;" d="M 138.515625 52.171875 L 144.46875 53.355469 L 138.722656 55.308594 L 138.515625 52.171875 "/>
<path style=" stroke:none;fill-rule:nonzero;fill:rgb(13.730068%,12.159915%,12.54902%);fill-opacity:1;" d="M 14.652344 52.152344 L 20.542969 53.621094 L 14.707031 55.296875 L 14.652344 52.152344 "/>
<path style="fill-rule:nonzero;fill:rgb(13.730068%,12.159915%,12.54902%);fill-opacity:1;stroke-width:5;stroke-linecap:butt;stroke-linejoin:miter;stroke:rgb(13.730068%,12.159915%,12.54902%);stroke-opacity:1;stroke-miterlimit:4;" d="M 2.48225 472.594136 L 1499.7553 472.594136 " transform="matrix(0.108168,0,0,-0.108168,0.419,98.643)"/>
<path style=" stroke:none;fill-rule:nonzero;fill:rgb(13.730068%,12.159915%,12.54902%);fill-opacity:1;" d="M 138.5625 49.09375 L 144.425781 47.523438 L 138.5625 45.953125 L 138.5625 49.09375 "/>
<path style=" stroke:none;fill-rule:nonzero;fill:rgb(13.730068%,12.159915%,12.54902%);fill-opacity:1;" d="M 14.667969 49.113281 L 20.53125 47.542969 L 14.667969 45.96875 L 14.667969 49.113281 "/>
<path style="fill:none;stroke-width:5;stroke-linecap:butt;stroke-linejoin:miter;stroke:rgb(13.730068%,12.159915%,12.54902%);stroke-opacity:1;stroke-miterlimit:4;" d="M 954.451929 469.777337 C 954.451929 361.619483 868.503451 273.901477 762.476252 273.901477 C 656.449054 273.901477 570.500575 361.619483 570.500575 469.777337 C 570.500575 577.935191 656.449054 665.653197 762.476252 665.653197 C 868.503451 665.653197 954.451929 577.935191 954.451929 469.777337 Z M 954.451929 469.777337 " transform="matrix(0.108168,0,0,-0.108168,0.419,98.643)"/>
<path style=" stroke:none;fill-rule:nonzero;fill:rgb(100%,100%,100%);fill-opacity:1;" d="M 103.660156 47.828125 C 103.660156 59.527344 94.363281 69.015625 82.894531 69.015625 C 71.425781 69.015625 62.128906 59.527344 62.128906 47.828125 C 62.128906 36.128906 71.425781 26.640625 82.894531 26.640625 C 94.363281 26.640625 103.660156 36.128906 103.660156 47.828125 "/>
<path style="fill:none;stroke-width:5;stroke-linecap:butt;stroke-linejoin:miter;stroke:rgb(13.730068%,12.159915%,12.54902%);stroke-opacity:1;stroke-miterlimit:4;" d="M 954.451929 469.777337 C 954.451929 361.619483 868.503451 273.901477 762.476252 273.901477 C 656.449054 273.901477 570.500575 361.619483 570.500575 469.777337 C 570.500575 577.935191 656.449054 665.653197 762.476252 665.653197 C 868.503451 665.653197 954.451929 577.935191 954.451929 469.777337 Z M 954.451929 469.777337 " transform="matrix(0.108168,0,0,-0.108168,0.419,98.643)"/>
</g>
</g>
<g clip-path="url(#clip3)" clip-rule="nonzero">
<g clip-path="url(#clip4)" clip-rule="nonzero">
<g clip-path="url(#clip5)" clip-rule="nonzero">
<path style="fill:none;stroke-width:2;stroke-linecap:butt;stroke-linejoin:miter;stroke:rgb(0%,0%,0%);stroke-opacity:1;stroke-miterlimit:4;" d="M 433.560815 440.778754 L 625.067025 632.284964 " transform="matrix(0.108168,0,0,-0.108168,0.419,98.643)"/>
<path style="fill:none;stroke-width:2;stroke-linecap:butt;stroke-linejoin:miter;stroke:rgb(0%,0%,0%);stroke-opacity:1;stroke-miterlimit:4;" d="M 405.284488 469.055081 L 596.790698 660.561291 " transform="matrix(0.108168,0,0,-0.108168,0.419,98.643)"/>
<path style="fill:none;stroke-width:2;stroke-linecap:butt;stroke-linejoin:miter;stroke:rgb(0%,0%,0%);stroke-opacity:1;stroke-miterlimit:4;" d="M 376.972048 497.331408 L 568.478258 688.837618 " transform="matrix(0.108168,0,0,-0.108168,0.419,98.643)"/>
<path style="fill:none;stroke-width:2;stroke-linecap:butt;stroke-linejoin:miter;stroke:rgb(0%,0%,0%);stroke-opacity:1;stroke-miterlimit:4;" d="M 625.067025 632.284964 L 816.573236 823.791174 " transform="matrix(0.108168,0,0,-0.108168,0.419,98.643)"/>
<path style="fill:none;stroke-width:2;stroke-linecap:butt;stroke-linejoin:miter;stroke:rgb(0%,0%,0%);stroke-opacity:1;stroke-miterlimit:4;" d="M 596.790698 660.561291 L 788.260796 852.067501 " transform="matrix(0.108168,0,0,-0.108168,0.419,98.643)"/>
<path style="fill:none;stroke-width:2;stroke-linecap:butt;stroke-linejoin:miter;stroke:rgb(0%,0%,0%);stroke-opacity:1;stroke-miterlimit:4;" d="M 518.389796 355.949773 L 709.896007 547.455983 " transform="matrix(0.108168,0,0,-0.108168,0.419,98.643)"/>
<path style="fill:none;stroke-width:2;stroke-linecap:butt;stroke-linejoin:miter;stroke:rgb(0%,0%,0%);stroke-opacity:1;stroke-miterlimit:4;" d="M 490.113469 384.2261 L 681.61968 575.73231 " transform="matrix(0.108168,0,0,-0.108168,0.419,98.643)"/>
<path style="fill:none;stroke-width:2;stroke-linecap:butt;stroke-linejoin:miter;stroke:rgb(0%,0%,0%);stroke-opacity:1;stroke-miterlimit:4;" d="M 461.837142 412.502427 L 653.343352 604.008637 " transform="matrix(0.108168,0,0,-0.108168,0.419,98.643)"/>
<path style="fill:none;stroke-width:2;stroke-linecap:butt;stroke-linejoin:miter;stroke:rgb(0%,0%,0%);stroke-opacity:1;stroke-miterlimit:4;" d="M 709.896007 547.455983 L 901.402217 738.92608 " transform="matrix(0.108168,0,0,-0.108168,0.419,98.643)"/>
<path style="fill:none;stroke-width:2;stroke-linecap:butt;stroke-linejoin:miter;stroke:rgb(0%,0%,0%);stroke-opacity:1;stroke-miterlimit:4;" d="M 681.61968 575.73231 L 873.12589 767.23852 " transform="matrix(0.108168,0,0,-0.108168,0.419,98.643)"/>
<path style="fill:none;stroke-width:2;stroke-linecap:butt;stroke-linejoin:miter;stroke:rgb(0%,0%,0%);stroke-opacity:1;stroke-miterlimit:4;" d="M 653.343352 604.008637 L 844.849563 795.514847 " transform="matrix(0.108168,0,0,-0.108168,0.419,98.643)"/>
<path style="fill:none;stroke-width:2;stroke-linecap:butt;stroke-linejoin:miter;stroke:rgb(0%,0%,0%);stroke-opacity:1;stroke-miterlimit:4;" d="M 411.74868 79.578468 L 603.254891 271.084678 " transform="matrix(0.108168,0,0,-0.108168,0.419,98.643)"/>
<path style="fill:none;stroke-width:2;stroke-linecap:butt;stroke-linejoin:miter;stroke:rgb(0%,0%,0%);stroke-opacity:1;stroke-miterlimit:4;" d="M 383.472353 107.854795 L 574.978563 299.361006 " transform="matrix(0.108168,0,0,-0.108168,0.419,98.643)"/>
<path style="fill:none;stroke-width:2;stroke-linecap:butt;stroke-linejoin:miter;stroke:rgb(0%,0%,0%);stroke-opacity:1;stroke-miterlimit:4;" d="M 603.254891 271.084678 L 794.761101 462.590889 " transform="matrix(0.108168,0,0,-0.108168,0.419,98.643)"/>
<path style="fill:none;stroke-width:2;stroke-linecap:butt;stroke-linejoin:miter;stroke:rgb(0%,0%,0%);stroke-opacity:1;stroke-miterlimit:4;" d="M 574.978563 299.361006 L 766.484774 490.867216 " transform="matrix(0.108168,0,0,-0.108168,0.419,98.643)"/>
<path style="fill:none;stroke-width:2;stroke-linecap:butt;stroke-linejoin:miter;stroke:rgb(0%,0%,0%);stroke-opacity:1;stroke-miterlimit:4;" d="M 546.702236 327.637333 L 738.208447 519.143543 " transform="matrix(0.108168,0,0,-0.108168,0.419,98.643)"/>
<path style="fill:none;stroke-width:2;stroke-linecap:butt;stroke-linejoin:miter;stroke:rgb(0%,0%,0%);stroke-opacity:1;stroke-miterlimit:4;" d="M 794.761101 462.590889 L 986.267311 654.097099 " transform="matrix(0.108168,0,0,-0.108168,0.419,98.643)"/>
<path style="fill:none;stroke-width:2;stroke-linecap:butt;stroke-linejoin:miter;stroke:rgb(0%,0%,0%);stroke-opacity:1;stroke-miterlimit:4;" d="M 766.484774 490.867216 L 957.990984 682.373426 " transform="matrix(0.108168,0,0,-0.108168,0.419,98.643)"/>
<path style="fill:none;stroke-width:2;stroke-linecap:butt;stroke-linejoin:miter;stroke:rgb(0%,0%,0%);stroke-opacity:1;stroke-miterlimit:4;" d="M 738.208447 519.143543 L 929.678544 710.649753 " transform="matrix(0.108168,0,0,-0.108168,0.419,98.643)"/>
<path style="fill:none;stroke-width:2;stroke-linecap:butt;stroke-linejoin:miter;stroke:rgb(0%,0%,0%);stroke-opacity:1;stroke-miterlimit:4;" d="M 688.119985 186.219584 L 879.626195 377.725795 " transform="matrix(0.108168,0,0,-0.108168,0.419,98.643)"/>
<path style="fill:none;stroke-width:2;stroke-linecap:butt;stroke-linejoin:miter;stroke:rgb(0%,0%,0%);stroke-opacity:1;stroke-miterlimit:4;" d="M 659.807545 214.495911 L 851.313755 406.002122 " transform="matrix(0.108168,0,0,-0.108168,0.419,98.643)"/>
<path style="fill:none;stroke-width:2;stroke-linecap:butt;stroke-linejoin:miter;stroke:rgb(0%,0%,0%);stroke-opacity:1;stroke-miterlimit:4;" d="M 631.531218 242.808351 L 823.037428 434.314562 " transform="matrix(0.108168,0,0,-0.108168,0.419,98.643)"/>
<path style="fill:none;stroke-width:2;stroke-linecap:butt;stroke-linejoin:miter;stroke:rgb(0%,0%,0%);stroke-opacity:1;stroke-miterlimit:4;" d="M 879.626195 377.725795 L 1071.096292 569.232005 " transform="matrix(0.108168,0,0,-0.108168,0.419,98.643)"/>
<path style="fill:none;stroke-width:2;stroke-linecap:butt;stroke-linejoin:miter;stroke:rgb(0%,0%,0%);stroke-opacity:1;stroke-miterlimit:4;" d="M 851.313755 406.002122 L 1042.819965 597.508332 " transform="matrix(0.108168,0,0,-0.108168,0.419,98.643)"/>
<path style="fill:none;stroke-width:2;stroke-linecap:butt;stroke-linejoin:miter;stroke:rgb(0%,0%,0%);stroke-opacity:1;stroke-miterlimit:4;" d="M 823.037428 434.314562 L 1014.543638 625.784659 " transform="matrix(0.108168,0,0,-0.108168,0.419,98.643)"/>
<path style="fill:none;stroke-width:2;stroke-linecap:butt;stroke-linejoin:miter;stroke:rgb(0%,0%,0%);stroke-opacity:1;stroke-miterlimit:4;" d="M 772.948966 101.390603 L 964.455176 292.896813 " transform="matrix(0.108168,0,0,-0.108168,0.419,98.643)"/>
<path style="fill:none;stroke-width:2;stroke-linecap:butt;stroke-linejoin:miter;stroke:rgb(0%,0%,0%);stroke-opacity:1;stroke-miterlimit:4;" d="M 744.672639 129.66693 L 936.178849 321.17314 " transform="matrix(0.108168,0,0,-0.108168,0.419,98.643)"/>
<path style="fill:none;stroke-width:2;stroke-linecap:butt;stroke-linejoin:miter;stroke:rgb(0%,0%,0%);stroke-opacity:1;stroke-miterlimit:4;" d="M 716.396312 157.943257 L 907.902522 349.449467 " transform="matrix(0.108168,0,0,-0.108168,0.419,98.643)"/>
<path style="fill:none;stroke-width:2;stroke-linecap:butt;stroke-linejoin:miter;stroke:rgb(0%,0%,0%);stroke-opacity:1;stroke-miterlimit:4;" d="M 936.178849 321.17314 L 1127.685059 512.679351 " transform="matrix(0.108168,0,0,-0.108168,0.419,98.643)"/>
<path style="fill:none;stroke-width:2;stroke-linecap:butt;stroke-linejoin:miter;stroke:rgb(0%,0%,0%);stroke-opacity:1;stroke-miterlimit:4;" d="M 907.902522 349.449467 L 1099.372619 540.955678 " transform="matrix(0.108168,0,0,-0.108168,0.419,98.643)"/>
</g>
</g>
</g>
</g>
</svg>
