<?xml version="1.0" encoding="UTF-8"?>
<svg xmlns="http://www.w3.org/2000/svg" xmlns:xlink="http://www.w3.org/1999/xlink" width="270.19992598074487pt" height="375.85502524244635pt" viewBox="0 0 156 217" version="1.1">
<defs>
<clipPath id="clip1">
  <path d="M -228 667 L 384 667 L 384 -125 L -228 -125 L -228 667 Z M -228 667 "/>
</clipPath>
<clipPath id="clip2">
  <path d="M -0.328125 217.164063 L 155.585938 217.164063 L 155.585938 -0.195313 L -0.328125 -0.195313 L -0.328125 217.164063 Z M -0.328125 217.164063 "/>
</clipPath>
</defs>
<g id="surface0">
<g clip-path="url(#clip1)" clip-rule="nonzero">
<g clip-path="url(#clip2)" clip-rule="nonzero">
<path style="fill:none;stroke-width:7.5;stroke-linecap:butt;stroke-linejoin:miter;stroke:rgb(0%,0%,0%);stroke-opacity:1;stroke-miterlimit:10;" d="M 10.018577 2085.51005 L 1690.003366 2085.51005 M 10.018577 1410.006583 L 1690.003366 1410.006583 M 10.018577 544.501794 L 1690.003366 544.501794 " transform="matrix(0.091714,0,0,-0.091714,-0.329,217.165)"/>
<path style="fill:none;stroke-width:7.5;stroke-linecap:butt;stroke-linejoin:miter;stroke:rgb(0%,0%,0%);stroke-opacity:1;stroke-miterlimit:10;" d="M 10.018577 2085.51005 L 15.512899 2119.498182 L 21.007221 2153.017805 L 27.012643 2185.515229 L 32.506965 2216.479354 L 38.001287 2245.015756 L 43.495609 2270.996658 L 49.50103 2294.507245 L 54.995352 2314.482726 L 60.489674 2330.497184 L 65.983996 2343.019127 L 71.989418 2351.494864 L 77.48374 2355.498479 L 83.020654 2355.498479 L 88.514976 2350.983765 L 94.520398 2341.996928 L 100.01472 2329.517576 L 105.509042 2312.992019 L 111.003364 2292.505438 L 117.008785 2268.994851 L 122.503107 2242.502849 L 127.99743 2214.009039 L 133.491752 2183.002322 L 138.986074 2150.504898 L 144.991495 2116.985275 L 150.485817 2082.997143 L 155.980139 2049.009012 L 161.517053 2015.489388 L 167.479883 1982.991964 L 173.016797 1952.496347 L 178.511119 1924.002538 L 184.005441 1897.979044 L 190.010863 1874.979556 L 195.505185 1855.515175 L 200.999507 1839.500717 L 206.493829 1827.489873 L 212.49925 1819.482644 L 217.993572 1815.47903 L 223.487894 1815.99013 L 228.982216 1821.015944 L 234.51913 1830.00278 L 240.48196 1842.993232 L 246.018874 1859.987297 L 251.513196 1880.51647 L 257.007518 1904.495565 L 263.01294 1930.987567 L 268.507262 1959.992477 L 274.001584 1990.999193 L 279.495906 2023.496617 L 285.501327 2057.484749 L 290.99565 2091.515472 L 296.489972 2125.503604 L 301.984294 2158.512127 L 307.989715 2190.498452 L 313.484037 2220.994069 L 319.020951 2249.487878 L 324.515273 2275.511372 L 330.520695 2297.99976 L 336.015017 2317.506733 L 341.509339 2333.010091 L 347.003661 2345.020935 L 352.497983 2352.517064 L 358.503405 2356.009579 L 363.997727 2354.987379 L 369.492049 2350.004157 L 374.986371 2340.50622 L 380.991792 2327.004669 L 386.486114 2309.499504 L 391.980436 2289.012923 L 397.51735 2264.991236 L 403.48018 2237.988134 L 409.017094 2208.983225 L 414.511416 2177.508 L 420.005738 2145.010576 L 426.01116 2110.979853 L 431.505482 2076.991722 L 436.999804 2043.00359 L 442.494126 2009.995066 L 448.499548 1978.008742 L 453.99387 1947.513125 L 459.488192 1919.487824 L 464.982514 1894.018021 L 470.519427 1871.487041 L 476.482257 1852.491168 L 482.019171 1836.98781 L 487.513493 1825.488066 L 493.007815 1818.503037 L 499.013237 1815.47903 L 504.507559 1816.501229 L 510.001881 1821.995551 L 515.496203 1832.004588 L 521.501625 1845.506139 L 526.995947 1863.011304 L 532.490269 1884.008984 L 537.984591 1908.49918 L 543.990012 1935.502282 L 549.484334 1965.018291 L 555.021248 1996.493515 L 560.51557 2029.502039 L 566.520992 2062.979071 L 572.015314 2097.009794 L 577.509636 2130.997926 L 583.003958 2164.006449 L 588.49828 2195.992774 L 594.503702 2226.019882 L 599.998024 2254.002592 L 605.492346 2279.514987 L 610.986668 2301.492275 L 616.99209 2320.488148 L 622.486412 2335.480406 L 627.980734 2346.511642 L 633.517647 2353.496672 L 639.480477 2356.009579 L 645.017391 2354.518871 L 650.511713 2348.513449 L 656.006035 2338.504413 L 662.011457 2324.491762 L 667.505779 2306.518089 L 673.000101 2285.009309 L 678.494423 2260.519114 L 683.988745 2233.516012 L 689.994167 2203.488903 L 695.488489 2172.013678 L 700.982811 2139.516254 L 706.519724 2105.485531 L 712.482554 2071.4974 L 718.019468 2037.509268 L 723.51379 2004.500744 L 729.008112 1972.982928 L 735.013534 1942.998411 L 740.507856 1915.015701 L 746.002178 1890.014406 L 751.4965 1867.994526 L 757.501922 1849.509753 L 762.996244 1834.986003 L 768.490566 1823.997359 L 773.984888 1817.480837 L 779.99031 1815.47903 L 785.484632 1817.480837 L 790.978954 1823.486259 L 796.515867 1834.006395 L 802.010189 1848.487554 L 808.015611 1866.503819 L 813.509933 1888.012599 L 819.004255 1913.013894 L 824.498577 1940.485504 L 830.503999 1970.001513 L 835.998321 2001.987837 L 841.492643 2034.996361 L 846.986965 2068.515984 L 852.992387 2102.504116 L 858.486709 2136.492248 L 863.981031 2169.500771 L 869.517944 2201.018588 L 875.480774 2231.003105 L 881.017688 2258.517307 L 886.51201 2283.007502 L 892.006332 2304.98479 L 898.011754 2323.001055 L 903.506076 2337.482214 L 909.000398 2348.00235 L 914.49472 2354.007771 L 919.989042 2356.009579 L 925.994464 2353.496672 L 931.488786 2346.98015 L 936.983108 2336.502606 L 942.520021 2321.510347 L 948.482852 2302.982982 L 954.019765 2281.516794 L 959.514087 2256.515499 L 965.008409 2228.490198 L 971.013831 2198.505681 L 976.508153 2166.987864 L 982.002475 2133.510833 L 987.496797 2099.991209 L 993.502219 2066.003078 L 998.996541 2032.014946 L 1004.490863 1999.006422 L 1009.985185 1967.488606 L 1015.990607 1938.015189 L 1021.484929 1910.500987 L 1026.979251 1886.010792 L 1032.516164 1865.013111 L 1038.010486 1846.996846 L 1044.015908 1832.984195 L 1049.51023 1823.017751 L 1055.004552 1817.012329 L 1060.498874 1815.47903 L 1066.504296 1817.991937 L 1071.998618 1825.019558 L 1077.49294 1836.008202 L 1082.987262 1851.000461 L 1088.992684 1869.996334 L 1094.487006 1892.016213 L 1099.981328 1917.486016 L 1105.518241 1945.000218 L 1111.481072 1975.495835 L 1117.017985 2007.482159 L 1122.512307 2040.490683 L 1128.006629 2074.478815 L 1133.500951 2108.509538 L 1139.506373 2141.98657 L 1145.000695 2174.995093 L 1150.495017 2206.00181 L 1155.989339 2235.517819 L 1161.994761 2262.989429 L 1167.489083 2287.011116 L 1172.983405 2308.008796 L 1178.520319 2325.513962 L 1184.483149 2339.484021 L 1190.020062 2348.981957 L 1195.514384 2354.518871 L 1201.008706 2356.009579 L 1207.014128 2352.985572 L 1212.50845 2345.489443 L 1218.002772 2333.989699 L 1223.497094 2318.99744 L 1229.502516 2300.001567 L 1234.996838 2277.51318 L 1240.49116 2252.000785 L 1245.985482 2223.506975 L 1251.479804 2193.479867 L 1257.485226 2161.493542 L 1262.979548 2128.016511 L 1268.516461 2093.985787 L 1274.010784 2059.997656 L 1280.016205 2026.520624 L 1285.510527 1993.980608 L 1291.004849 1962.505384 L 1296.499171 1933.500474 L 1302.504593 1906.497372 L 1307.998915 1882.518277 L 1313.493237 1861.520597 L 1318.987559 1844.483939 L 1324.992981 1830.982388 L 1330.487303 1821.484452 L 1335.981625 1816.501229 L 1341.518539 1815.47903 L 1347.481369 1819.014136 L 1353.018282 1826.510266 L 1358.512604 1838.521109 L 1364.006926 1853.981876 L 1369.501248 1873.488848 L 1375.50667 1896.019828 L 1381.000992 1921.489631 L 1386.495314 1949.98344 L 1391.989636 1980.479057 L 1397.995058 2012.507973 L 1403.48938 2045.985005 L 1408.983702 2080.015728 L 1414.520616 2114.00386 L 1420.483446 2147.480892 L 1426.020359 2180.020907 L 1431.514682 2211.496132 L 1437.009004 2240.501041 L 1443.014425 2266.993044 L 1448.508747 2291.014731 L 1454.003069 2311.501311 L 1459.497391 2328.495377 L 1465.502813 2341.485828 L 1470.997135 2350.515257 L 1476.491457 2354.987379 L 1481.985779 2355.498479 L 1487.480101 2352.005964 L 1493.485523 2343.998735 L 1498.979845 2331.987892 L 1504.516759 2316.016025 L 1510.011081 2296.509053 L 1516.016502 2273.509565 L 1521.510824 2247.486071 L 1527.005146 2218.992261 L 1532.499468 2187.985545 L 1538.50489 2155.99922 L 1543.999212 2122.479597 L 1549.493534 2088.491465 L 1554.987856 2054.503334 L 1560.993278 2020.98371 L 1566.4876 1988.486286 L 1571.981922 1957.47957 L 1577.518836 1928.517252 L 1583.013158 1901.982658 L 1589.018579 1878.514662 L 1594.512902 1858.49659 L 1600.007224 1842.013624 L 1605.501546 1828.980581 L 1611.506967 1820.504844 L 1617.001289 1815.99013 L 1622.495611 1815.99013 L 1627.989933 1819.993744 L 1633.995355 1828.000973 L 1639.489677 1840.480325 L 1644.983999 1857.005882 L 1650.520913 1876.981363 L 1656.483743 1899.980851 L 1662.020657 1926.515445 L 1667.514979 1955.009254 L 1673.009301 1986.015971 L 1679.014722 2018.002295 L 1684.509044 2051.479327 L 1690.003366 2085.51005 M 10.018577 1410.006583 L 15.512899 1437.989293 L 21.007221 1466.014594 L 27.012643 1493.486204 L 32.506965 1520.020798 L 38.001287 1545.490601 L 43.495609 1569.001188 L 49.50103 1591.021068 L 54.995352 1610.996549 L 60.489674 1629.012814 L 65.983996 1644.516173 L 71.989418 1656.995524 L 77.48374 1667.51566 L 83.020654 1674.50069 L 88.514976 1679.015404 L 94.520398 1679.995012 L 100.01472 1678.504304 L 105.509042 1673.98959 L 111.003364 1666.493461 L 117.008785 1656.015916 L 122.503107 1642.982873 L 127.99743 1627.479515 L 133.491752 1609.505842 L 138.986074 1589.019261 L 144.991495 1566.999381 L 150.485817 1543.020286 L 155.980139 1517.507891 L 161.517053 1491.015889 L 167.479883 1463.501687 L 173.016797 1435.518977 L 178.511119 1406.982576 L 184.005441 1378.488767 L 190.010863 1350.506057 L 195.505185 1323.502955 L 200.999507 1297.010953 L 206.493829 1272.009658 L 212.49925 1247.987971 L 217.993572 1226.479191 L 223.487894 1206.50371 L 228.982216 1188.998544 L 234.51913 1174.006286 L 240.48196 1161.484343 L 246.018874 1151.517898 L 251.513196 1144.490277 L 257.007518 1140.486662 L 263.01294 1139.507055 L 268.507262 1141.508862 L 274.001584 1146.492084 L 279.495906 1153.988213 L 285.501327 1164.508349 L 290.99565 1178.0099 L 296.489972 1193.981767 L 301.984294 1211.998032 L 307.989715 1232.484612 L 313.484037 1255.015592 L 319.020951 1278.994687 L 324.515273 1304.507082 L 330.520695 1331.510184 L 336.015017 1358.981794 L 341.509339 1387.007095 L 347.003661 1415.500905 L 352.497983 1443.994715 L 358.503405 1471.508916 L 363.997727 1498.980526 L 369.492049 1525.51512 L 374.986371 1550.516415 L 380.991792 1573.515903 L 386.486114 1595.493191 L 391.980436 1615.000164 L 397.51735 1632.505329 L 403.48018 1646.986488 L 409.017094 1659.508431 L 414.511416 1669.006368 L 420.005738 1675.480297 L 426.01116 1679.483912 L 431.505482 1679.995012 L 436.999804 1677.993204 L 442.494126 1672.498882 L 448.499548 1664.491653 L 453.99387 1653.503009 L 459.488192 1640.001458 L 464.982514 1623.987 L 470.519427 1605.502227 L 476.482257 1585.015646 L 482.019171 1562.016159 L 487.513493 1537.994472 L 493.007815 1512.482077 L 499.013237 1485.478975 L 504.507559 1458.007365 L 510.001881 1429.513556 L 515.496203 1401.488254 L 521.501625 1372.994445 L 526.995947 1345.011735 L 532.490269 1318.008633 L 537.984591 1291.985139 L 543.990012 1266.983844 L 549.484334 1243.515848 L 555.021248 1222.007068 L 560.51557 1203.011195 L 566.520992 1185.50603 L 572.015314 1170.982279 L 577.509636 1159.014027 L 583.003958 1149.984599 L 588.49828 1143.510669 L 594.503702 1140.018154 L 599.998024 1139.507055 L 605.492346 1142.019962 L 610.986668 1147.514284 L 616.99209 1155.990021 L 622.486412 1167.021256 L 627.980734 1180.991315 L 633.517647 1197.516873 L 639.480477 1216.001646 L 645.017391 1236.999327 L 650.511713 1259.487715 L 656.006035 1284.020501 L 662.011457 1310.001404 L 667.505779 1337.004506 L 673.000101 1364.518708 L 678.494423 1393.012517 L 683.988745 1420.995227 L 689.994167 1449.489037 L 695.488489 1477.003238 L 700.982811 1504.51744 L 706.519724 1530.498343 L 712.482554 1554.988538 L 718.019468 1577.988025 L 723.51379 1599.496805 L 729.008112 1618.492678 L 735.013534 1635.486744 L 740.507856 1650.010495 L 746.002178 1661.510238 L 751.4965 1670.497075 L 757.501922 1676.502497 L 762.996244 1679.483912 L 768.490566 1679.995012 L 773.984888 1677.013597 L 779.99031 1671.008175 L 785.484632 1662.489846 L 790.978954 1650.990102 L 796.515867 1637.020043 L 802.010189 1620.494486 L 808.015611 1601.498613 L 813.509933 1580.500932 L 819.004255 1557.501445 L 824.498577 1533.01125 L 830.503999 1506.987755 L 835.998321 1479.984653 L 841.492643 1452.001944 L 846.986965 1424.019234 L 852.992387 1395.482833 L 858.486709 1367.500123 L 863.981031 1339.517413 L 869.517944 1312.514311 L 875.480774 1286.490817 L 881.017688 1262.000621 L 886.51201 1239.001134 L 892.006332 1218.003454 L 898.011754 1199.007581 L 903.506076 1182.482023 L 909.000398 1168.511964 L 914.49472 1157.01222 L 919.989042 1148.493891 L 925.994464 1142.48847 L 931.488786 1140.018154 L 936.983108 1140.018154 L 942.520021 1142.999569 L 948.482852 1149.004991 L 954.019765 1157.991828 L 959.514087 1170.002671 L 965.008409 1184.015322 L 971.013831 1201.009388 L 976.508153 1220.005261 L 982.002475 1241.514041 L 987.496797 1264.513528 L 993.502219 1289.003724 L 998.996541 1315.495726 L 1004.490863 1342.498828 L 1009.985185 1370.01303 L 1015.990607 1398.506839 L 1021.484929 1427.000649 L 1026.979251 1454.983359 L 1032.516164 1482.49756 L 1038.010486 1509.500662 L 1044.015908 1535.481565 L 1049.51023 1560.014352 L 1055.004552 1582.502739 L 1060.498874 1603.50042 L 1066.504296 1621.985193 L 1071.998618 1638.510751 L 1077.49294 1652.48081 L 1082.987262 1663.512046 L 1088.992684 1671.987783 L 1094.487006 1677.482105 L 1099.981328 1679.995012 L 1105.518241 1679.483912 L 1111.481072 1675.991397 L 1117.017985 1669.517467 L 1122.512307 1660.488039 L 1128.006629 1648.519787 L 1133.500951 1633.996037 L 1139.506373 1617.001971 L 1145.000695 1597.494998 L 1150.495017 1575.986218 L 1155.989339 1552.518222 L 1161.994761 1527.985436 L 1167.489083 1501.493433 L 1172.983405 1474.490331 L 1178.520319 1446.507622 L 1184.483149 1418.48232 L 1190.020062 1389.98851 L 1195.514384 1362.005801 L 1201.008706 1333.980499 L 1207.014128 1307.488497 L 1212.50845 1281.507594 L 1218.002772 1257.485907 L 1223.497094 1234.997519 L 1229.502516 1213.999839 L 1234.996838 1195.515066 L 1240.49116 1179.500608 L 1245.985482 1165.999057 L 1251.479804 1155.010413 L 1257.485226 1147.003184 L 1262.979548 1142.019962 L 1268.516461 1139.507055 L 1274.010784 1140.486662 L 1280.016205 1143.979177 L 1285.510527 1150.495699 L 1291.004849 1159.993635 L 1296.499171 1172.515578 L 1302.504593 1187.507837 L 1307.998915 1204.501903 L 1313.493237 1224.008875 L 1318.987559 1245.986164 L 1324.992981 1269.496751 L 1330.487303 1294.498046 L 1335.981625 1320.478948 L 1341.518539 1347.99315 L 1347.481369 1376.018451 L 1353.018282 1404.001161 L 1358.512604 1432.494971 L 1364.006926 1460.520272 L 1369.501248 1487.991882 L 1375.50667 1514.994984 L 1381.000992 1540.507379 L 1386.495314 1564.486474 L 1391.989636 1587.017454 L 1397.995058 1607.504034 L 1403.48938 1625.5203 L 1408.983702 1641.492166 L 1414.520616 1654.993717 L 1420.483446 1665.513853 L 1426.020359 1673.521082 L 1431.514682 1677.993204 L 1437.009004 1679.995012 L 1443.014425 1679.015404 L 1448.508747 1675.011789 L 1454.003069 1667.984168 L 1459.497391 1658.486232 L 1465.502813 1646.00688 L 1470.997135 1630.503522 L 1476.491457 1612.998356 L 1481.985779 1593.491384 L 1487.480101 1571.514095 L 1493.485523 1548.003508 L 1498.979845 1522.491114 L 1504.516759 1496.510211 L 1510.011081 1468.996009 L 1516.016502 1441.013299 L 1521.510824 1412.51949 L 1527.005146 1384.494188 L 1532.499468 1356.000379 L 1538.50489 1328.486177 L 1543.999212 1301.994175 L 1549.493534 1276.48178 L 1554.987856 1252.502685 L 1560.993278 1230.482805 L 1566.4876 1210.507324 L 1571.981922 1192.491059 L 1577.518836 1176.519193 L 1583.013158 1163.48615 L 1589.018579 1153.008606 L 1594.512902 1145.512476 L 1600.007224 1140.997762 L 1605.501546 1139.507055 L 1611.506967 1140.997762 L 1617.001289 1145.001377 L 1622.495611 1152.497506 L 1627.989933 1162.506542 L 1633.995355 1174.985894 L 1639.489677 1190.489252 L 1644.983999 1208.505517 L 1650.520913 1228.480998 L 1656.483743 1250.500878 L 1662.020657 1274.011465 L 1667.514979 1299.481268 L 1673.009301 1326.015862 L 1679.014722 1353.487472 L 1684.509044 1381.512773 L 1690.003366 1410.006583 M 10.018577 544.501794 L 15.512899 606.983735 L 21.007221 668.486068 L 27.012643 728.497694 L 32.506965 785.485313 L 38.001287 839.491517 L 43.495609 889.494107 L 49.50103 934.981982 L 54.995352 975.018127 L 60.489674 1009.006259 L 65.983996 1036.52046 L 71.989418 1057.986649 L 77.48374 1071.999299 L 83.020654 1078.984329 L 88.514976 1078.984329 L 94.520398 1071.4882 L 100.01472 1057.007041 L 105.509042 1036.009361 L 111.003364 1008.495159 L 117.008785 974.507027 L 122.503107 934.981982 L 127.99743 890.516306 L 133.491752 841.493324 L 138.986074 788.50932 L 144.991495 733.012408 L 150.485817 675.00259 L 155.980139 615.502063 L 161.517053 555.490438 L 167.479883 495.989912 L 173.016797 437.000485 L 178.511119 380.012866 L 184.005441 326.006662 L 190.010863 274.981873 L 195.505185 228.00329 L 200.999507 185.49683 L 206.493829 148.484692 L 212.49925 116.498367 L 217.993572 90.985973 L 223.487894 71.9901 L 228.982216 58.999648 L 234.51913 52.994227 L 240.48196 53.505326 L 246.018874 60.490356 L 251.513196 74.503007 L 257.007518 94.009979 L 263.01294 119.479782 L 268.507262 150.486499 L 274.001584 186.519029 L 279.495906 226.981091 L 285.501327 271.489358 L 290.99565 318.510533 L 296.489972 368.513122 L 301.984294 420.006419 L 307.989715 472.479324 L 313.484037 525.505921 L 319.020951 577.978825 L 324.515273 629.003614 L 330.520695 678.495104 L 336.015017 725.516279 L 341.509339 769.513447 L 347.003661 809.507 L 352.497983 845.496939 L 358.503405 877.014755 L 363.997727 902.995658 L 369.492049 924.504438 L 374.986371 940.007796 L 380.991792 950.016832 L 386.486114 954.488955 L 391.980436 952.998247 L 397.51735 946.481726 L 403.48018 934.513474 L 409.017094 917.519408 L 414.511416 895.499528 L 420.005738 869.518626 L 426.01116 839.491517 L 431.505482 806.482993 L 436.999804 770.493054 L 442.494126 731.990209 L 448.499548 691.485556 L 453.99387 650.512395 L 459.488192 608.985542 L 464.982514 566.990181 L 470.519427 526.01702 L 476.482257 486.491975 L 482.019171 448.500229 L 487.513493 412.978798 L 493.007815 380.012866 L 499.013237 349.985757 L 504.507559 323.493755 L 510.001881 301.005367 L 515.496203 282.520594 L 521.501625 267.996843 L 526.995947 257.519299 L 532.490269 251.513877 L 537.984591 249.51207 L 543.990012 251.982385 L 549.484334 257.987807 L 555.021248 267.996843 L 560.51557 281.498394 L 566.520992 297.981361 L 572.015314 317.488333 L 577.509636 338.997113 L 583.003958 363.0188 L 588.49828 388.488603 L 594.503702 415.491705 L 599.998024 443.005907 L 605.492346 470.520109 L 610.986668 498.502819 L 616.99209 525.505921 L 622.486412 551.486823 L 627.980734 576.488118 L 633.517647 599.998705 L 639.480477 621.507485 L 645.017391 640.503358 L 650.511713 657.497424 L 656.006035 672.021175 L 662.011457 683.520918 L 667.505779 692.507755 L 673.000101 698.981685 L 678.494423 702.516791 L 683.988745 703.496399 L 689.994167 702.516791 L 695.488489 698.513177 L 700.982811 693.018855 L 706.519724 685.011626 L 712.482554 675.982197 L 718.019468 664.993553 L 723.51379 652.98271 L 729.008112 640.503358 L 735.013534 627.512907 L 740.507856 614.011356 L 746.002178 601.020905 L 751.4965 587.987862 L 757.501922 575.50851 L 762.996244 564.008766 L 768.490566 553.48863 L 773.984888 543.990694 L 779.99031 535.983465 L 785.484632 528.998435 L 790.978954 524.015213 L 796.515867 520.011599 L 802.010189 518.009791 L 808.015611 516.987592 L 813.509933 517.498692 L 819.004255 519.500499 L 824.498577 522.481914 L 830.503999 526.485528 L 835.998321 531.000243 L 841.492643 536.494565 L 846.986965 541.988887 L 852.992387 547.483209 L 858.486709 553.020122 L 863.981031 558.514444 L 869.517944 562.986567 L 875.480774 566.990181 L 881.017688 570.014188 L 886.51201 571.504896 L 892.006332 572.015995 L 898.011754 571.504896 L 903.506076 568.991989 L 909.000398 565.499474 L 914.49472 560.516252 L 919.989042 553.48863 L 925.994464 545.481401 L 931.488786 535.983465 L 936.983108 525.505921 L 942.520021 514.006177 L 948.482852 501.484234 L 954.019765 488.493782 L 959.514087 475.503331 L 965.008409 462.00178 L 971.013831 449.011329 L 976.508153 436.020877 L 982.002475 424.521134 L 987.496797 413.489898 L 993.502219 403.991961 L 998.996541 396.495832 L 1004.490863 390.49041 L 1009.985185 386.997896 L 1015.990607 385.507188 L 1021.484929 386.486796 L 1026.979251 390.49041 L 1032.516164 397.006932 L 1038.010486 405.993769 L 1044.015908 417.493512 L 1049.51023 432.017263 L 1055.004552 449.011329 L 1060.498874 468.007202 L 1066.504296 489.515982 L 1071.998618 512.515469 L 1077.49294 537.516764 L 1082.987262 564.008766 L 1088.992684 591.011868 L 1094.487006 618.483479 L 1099.981328 646.50878 L 1105.518241 673.98039 L 1111.481072 700.514984 L 1117.017985 725.984787 L 1122.512307 750.006474 L 1128.006629 771.983762 L 1133.500951 791.490735 L 1139.506373 808.016292 L 1145.000695 821.517844 L 1150.495017 831.484288 L 1155.989339 837.48971 L 1161.994761 840.002617 L 1167.489083 838.00081 L 1172.983405 831.995388 L 1178.520319 821.517844 L 1184.483149 806.994093 L 1190.020062 788.50932 L 1195.514384 765.509832 L 1201.008706 739.486338 L 1207.014128 709.501821 L 1212.50845 676.493297 L 1218.002772 641.014458 L 1223.497094 602.98012 L 1229.502516 562.986567 L 1234.996838 522.013406 L 1240.49116 480.486553 L 1245.985482 439.002292 L 1251.479804 397.518032 L 1257.485226 357.481887 L 1262.979548 318.979041 L 1268.516461 282.989102 L 1274.010784 249.51207 L 1280.016205 219.484961 L 1285.510527 193.504059 L 1291.004849 171.995279 L 1296.499171 155.001213 L 1302.504593 142.99037 L 1307.998915 136.00534 L 1313.493237 134.983141 L 1318.987559 139.497855 L 1324.992981 149.506891 L 1330.487303 165.010249 L 1335.981625 186.00793 L 1341.518539 212.499932 L 1347.481369 244.017748 L 1353.018282 280.007687 L 1358.512604 320.00124 L 1364.006926 363.998408 L 1369.501248 410.508483 L 1375.50667 459.999973 L 1381.000992 511.49327 L 1386.495314 564.008766 L 1391.989636 616.481671 L 1397.995058 669.508268 L 1403.48938 721.001565 L 1408.983702 770.493054 L 1414.520616 817.982737 L 1420.483446 862.491005 L 1426.020359 902.484558 L 1431.514682 938.517088 L 1437.009004 969.481213 L 1443.014425 995.504708 L 1448.508747 1015.01168 L 1454.003069 1028.513231 L 1459.497391 1036.009361 L 1465.502813 1036.52046 L 1470.997135 1030.003939 L 1476.491457 1017.481996 L 1481.985779 998.017615 L 1487.480101 972.50522 L 1493.485523 940.987404 L 1498.979845 904.017857 L 1504.516759 861.511397 L 1510.011081 814.490222 L 1516.016502 763.508025 L 1521.510824 708.990721 L 1527.005146 652.514202 L 1532.499468 593.482184 L 1538.50489 533.981658 L 1543.999212 474.012623 L 1549.493534 414.512097 L 1554.987856 356.502279 L 1560.993278 300.494268 L 1566.4876 247.978771 L 1571.981922 198.998381 L 1577.518836 154.490113 L 1583.013158 115.00766 L 1589.018579 81.019528 L 1594.512902 53.505326 L 1600.007224 31.996546 L 1605.501546 17.983896 L 1611.506967 10.487766 L 1617.001289 10.487766 L 1622.495611 17.515388 L 1627.989933 31.485447 L 1633.995355 52.483127 L 1639.489677 80.508428 L 1644.983999 114.49656 L 1650.520913 154.490113 L 1656.483743 200.02058 L 1662.020657 249.51207 L 1667.514979 303.518274 L 1673.009301 361.016993 L 1679.014722 420.986027 L 1684.509044 482.488361 L 1690.003366 544.501794 " transform="matrix(0.091714,0,0,-0.091714,-0.329,217.165)"/>
</g>
</g>
</g>
</svg>
