<?xml version="1.0" encoding="UTF-8"?>
<svg xmlns="http://www.w3.org/2000/svg" xmlns:xlink="http://www.w3.org/1999/xlink" width="308pt" height="140pt" viewBox="0 0 178 81" version="1.1">
<defs>
<clipPath id="clip1">
  <path d="M 176.511719 26.566406 L 176.511719 1.054688 L 0.761719 1.054688 L 0.761719 26.566406 L 25.035156 26.566406 C 20.804688 32.273438 18.480469 39.222656 18.480469 46.410156 C 18.480469 55.242188 21.988281 63.714844 28.234375 69.960938 C 34.480469 76.207031 42.953125 79.71875 51.785156 79.71875 C 60.621094 79.71875 69.09375 76.207031 75.339844 69.960938 C 81.585938 63.714844 85.09375 55.242188 85.09375 46.410156 C 85.09375 39.222656 82.769531 32.273438 78.539063 26.566406 L 98.738281 26.566406 C 94.503906 32.273438 92.179688 39.222656 92.179688 46.410156 C 92.179688 55.242188 95.691406 63.714844 101.9375 69.960938 C 108.183594 76.207031 116.652344 79.71875 125.488281 79.71875 C 134.320313 79.71875 142.792969 76.207031 149.039063 69.960938 C 155.285156 63.714844 158.796875 55.242188 158.796875 46.410156 C 158.796875 39.222656 156.46875 32.273438 152.238281 26.566406 L 176.511719 26.566406 Z M 176.511719 26.566406 "/>
</clipPath>
</defs>
<g id="surface0">
<g clip-path="url(#clip1)" clip-rule="nonzero">
<path style="fill:none;stroke-width:3;stroke-linecap:round;stroke-linejoin:round;stroke:rgb(0%,0%,0%);stroke-opacity:1;stroke-miterlimit:10;" d="M 17.617188 799.453125 L -768.984375 12.8125 " transform="matrix(0.1,0,0,-0.1,0,81)"/>
<path style="fill:none;stroke-width:3;stroke-linecap:round;stroke-linejoin:round;stroke:rgb(0%,0%,0%);stroke-opacity:1;stroke-miterlimit:10;" d="M 84.453125 799.453125 L -702.148438 12.8125 " transform="matrix(0.1,0,0,-0.1,0,81)"/>
<path style="fill:none;stroke-width:3;stroke-linecap:round;stroke-linejoin:round;stroke:rgb(0%,0%,0%);stroke-opacity:1;stroke-miterlimit:10;" d="M 151.289063 799.453125 L -635.351563 12.8125 " transform="matrix(0.1,0,0,-0.1,0,81)"/>
<path style="fill:none;stroke-width:3;stroke-linecap:round;stroke-linejoin:round;stroke:rgb(0%,0%,0%);stroke-opacity:1;stroke-miterlimit:10;" d="M 218.085938 799.453125 L -568.515625 12.8125 " transform="matrix(0.1,0,0,-0.1,0,81)"/>
<path style="fill:none;stroke-width:3;stroke-linecap:round;stroke-linejoin:round;stroke:rgb(0%,0%,0%);stroke-opacity:1;stroke-miterlimit:10;" d="M 284.921875 799.453125 L -501.679688 12.8125 " transform="matrix(0.1,0,0,-0.1,0,81)"/>
<path style="fill:none;stroke-width:3;stroke-linecap:round;stroke-linejoin:round;stroke:rgb(0%,0%,0%);stroke-opacity:1;stroke-miterlimit:10;" d="M 351.757813 799.453125 L -434.84375 12.8125 " transform="matrix(0.1,0,0,-0.1,0,81)"/>
<path style="fill:none;stroke-width:3;stroke-linecap:round;stroke-linejoin:round;stroke:rgb(0%,0%,0%);stroke-opacity:1;stroke-miterlimit:10;" d="M 418.59375 799.453125 L -368.046875 12.8125 " transform="matrix(0.1,0,0,-0.1,0,81)"/>
<path style="fill:none;stroke-width:3;stroke-linecap:round;stroke-linejoin:round;stroke:rgb(0%,0%,0%);stroke-opacity:1;stroke-miterlimit:10;" d="M 485.390625 799.453125 L -301.210938 12.8125 " transform="matrix(0.1,0,0,-0.1,0,81)"/>
<path style="fill:none;stroke-width:3;stroke-linecap:round;stroke-linejoin:round;stroke:rgb(0%,0%,0%);stroke-opacity:1;stroke-miterlimit:10;" d="M 552.226563 799.453125 L -234.375 12.8125 " transform="matrix(0.1,0,0,-0.1,0,81)"/>
<path style="fill:none;stroke-width:3;stroke-linecap:round;stroke-linejoin:round;stroke:rgb(0%,0%,0%);stroke-opacity:1;stroke-miterlimit:10;" d="M 619.0625 799.453125 L -167.539063 12.8125 " transform="matrix(0.1,0,0,-0.1,0,81)"/>
<path style="fill:none;stroke-width:3;stroke-linecap:round;stroke-linejoin:round;stroke:rgb(0%,0%,0%);stroke-opacity:1;stroke-miterlimit:10;" d="M 685.898438 799.453125 L -100.742188 12.8125 " transform="matrix(0.1,0,0,-0.1,0,81)"/>
<path style="fill:none;stroke-width:3;stroke-linecap:round;stroke-linejoin:round;stroke:rgb(0%,0%,0%);stroke-opacity:1;stroke-miterlimit:10;" d="M 752.734375 799.453125 L -33.90625 12.8125 " transform="matrix(0.1,0,0,-0.1,0,81)"/>
<path style="fill:none;stroke-width:3;stroke-linecap:round;stroke-linejoin:round;stroke:rgb(0%,0%,0%);stroke-opacity:1;stroke-miterlimit:10;" d="M 819.53125 799.453125 L 32.929688 12.8125 " transform="matrix(0.1,0,0,-0.1,0,81)"/>
<path style="fill:none;stroke-width:3;stroke-linecap:round;stroke-linejoin:round;stroke:rgb(0%,0%,0%);stroke-opacity:1;stroke-miterlimit:10;" d="M 886.367188 799.453125 L 99.765625 12.8125 " transform="matrix(0.1,0,0,-0.1,0,81)"/>
<path style="fill:none;stroke-width:3;stroke-linecap:round;stroke-linejoin:round;stroke:rgb(0%,0%,0%);stroke-opacity:1;stroke-miterlimit:10;" d="M 953.203125 799.453125 L 166.601563 12.8125 " transform="matrix(0.1,0,0,-0.1,0,81)"/>
<path style="fill:none;stroke-width:3;stroke-linecap:round;stroke-linejoin:round;stroke:rgb(0%,0%,0%);stroke-opacity:1;stroke-miterlimit:10;" d="M 1020.039063 799.453125 L 233.398438 12.8125 " transform="matrix(0.1,0,0,-0.1,0,81)"/>
<path style="fill:none;stroke-width:3;stroke-linecap:round;stroke-linejoin:round;stroke:rgb(0%,0%,0%);stroke-opacity:1;stroke-miterlimit:10;" d="M 1086.835938 799.453125 L 300.234375 12.8125 " transform="matrix(0.1,0,0,-0.1,0,81)"/>
<path style="fill:none;stroke-width:3;stroke-linecap:round;stroke-linejoin:round;stroke:rgb(0%,0%,0%);stroke-opacity:1;stroke-miterlimit:10;" d="M 1153.671875 799.453125 L 367.070313 12.8125 " transform="matrix(0.1,0,0,-0.1,0,81)"/>
<path style="fill:none;stroke-width:3;stroke-linecap:round;stroke-linejoin:round;stroke:rgb(0%,0%,0%);stroke-opacity:1;stroke-miterlimit:10;" d="M 1220.507813 799.453125 L 433.90625 12.8125 " transform="matrix(0.1,0,0,-0.1,0,81)"/>
<path style="fill:none;stroke-width:3;stroke-linecap:round;stroke-linejoin:round;stroke:rgb(0%,0%,0%);stroke-opacity:1;stroke-miterlimit:10;" d="M 1287.34375 799.453125 L 500.703125 12.8125 " transform="matrix(0.1,0,0,-0.1,0,81)"/>
<path style="fill:none;stroke-width:3;stroke-linecap:round;stroke-linejoin:round;stroke:rgb(0%,0%,0%);stroke-opacity:1;stroke-miterlimit:10;" d="M 1354.140625 799.453125 L 567.539063 12.8125 " transform="matrix(0.1,0,0,-0.1,0,81)"/>
<path style="fill:none;stroke-width:3;stroke-linecap:round;stroke-linejoin:round;stroke:rgb(0%,0%,0%);stroke-opacity:1;stroke-miterlimit:10;" d="M 1420.976563 799.453125 L 634.375 12.8125 " transform="matrix(0.1,0,0,-0.1,0,81)"/>
<path style="fill:none;stroke-width:3;stroke-linecap:round;stroke-linejoin:round;stroke:rgb(0%,0%,0%);stroke-opacity:1;stroke-miterlimit:10;" d="M 1487.8125 799.453125 L 701.210938 12.8125 " transform="matrix(0.1,0,0,-0.1,0,81)"/>
<path style="fill:none;stroke-width:3;stroke-linecap:round;stroke-linejoin:round;stroke:rgb(0%,0%,0%);stroke-opacity:1;stroke-miterlimit:10;" d="M 1554.648438 799.453125 L 768.007813 12.8125 " transform="matrix(0.1,0,0,-0.1,0,81)"/>
<path style="fill:none;stroke-width:3;stroke-linecap:round;stroke-linejoin:round;stroke:rgb(0%,0%,0%);stroke-opacity:1;stroke-miterlimit:10;" d="M 1621.484375 799.453125 L 834.84375 12.8125 " transform="matrix(0.1,0,0,-0.1,0,81)"/>
<path style="fill:none;stroke-width:3;stroke-linecap:round;stroke-linejoin:round;stroke:rgb(0%,0%,0%);stroke-opacity:1;stroke-miterlimit:10;" d="M 1688.28125 799.453125 L 901.679688 12.8125 " transform="matrix(0.1,0,0,-0.1,0,81)"/>
<path style="fill:none;stroke-width:3;stroke-linecap:round;stroke-linejoin:round;stroke:rgb(0%,0%,0%);stroke-opacity:1;stroke-miterlimit:10;" d="M 1755.117188 799.453125 L 968.515625 12.8125 " transform="matrix(0.1,0,0,-0.1,0,81)"/>
<path style="fill:none;stroke-width:3;stroke-linecap:round;stroke-linejoin:round;stroke:rgb(0%,0%,0%);stroke-opacity:1;stroke-miterlimit:10;" d="M 1821.953125 799.453125 L 1035.351563 12.8125 " transform="matrix(0.1,0,0,-0.1,0,81)"/>
<path style="fill:none;stroke-width:3;stroke-linecap:round;stroke-linejoin:round;stroke:rgb(0%,0%,0%);stroke-opacity:1;stroke-miterlimit:10;" d="M 1888.789063 799.453125 L 1102.148438 12.8125 " transform="matrix(0.1,0,0,-0.1,0,81)"/>
<path style="fill:none;stroke-width:3;stroke-linecap:round;stroke-linejoin:round;stroke:rgb(0%,0%,0%);stroke-opacity:1;stroke-miterlimit:10;" d="M 1955.585938 799.453125 L 1168.984375 12.8125 " transform="matrix(0.1,0,0,-0.1,0,81)"/>
<path style="fill:none;stroke-width:3;stroke-linecap:round;stroke-linejoin:round;stroke:rgb(0%,0%,0%);stroke-opacity:1;stroke-miterlimit:10;" d="M 2022.421875 799.453125 L 1235.820313 12.8125 " transform="matrix(0.1,0,0,-0.1,0,81)"/>
<path style="fill:none;stroke-width:3;stroke-linecap:round;stroke-linejoin:round;stroke:rgb(0%,0%,0%);stroke-opacity:1;stroke-miterlimit:10;" d="M 2089.257813 799.453125 L 1302.65625 12.8125 " transform="matrix(0.1,0,0,-0.1,0,81)"/>
<path style="fill:none;stroke-width:3;stroke-linecap:round;stroke-linejoin:round;stroke:rgb(0%,0%,0%);stroke-opacity:1;stroke-miterlimit:10;" d="M 2156.09375 799.453125 L 1369.453125 12.8125 " transform="matrix(0.1,0,0,-0.1,0,81)"/>
</g>
<path style="fill:none;stroke-width:25;stroke-linecap:round;stroke-linejoin:round;stroke:rgb(100%,100%,100%);stroke-opacity:1;stroke-miterlimit:10;" d="M 886.367188 721.484375 L 886.367188 622.265625 " transform="matrix(0.1,0,0,-0.1,0,81)"/>
<path style=" stroke:none;fill-rule:nonzero;fill:rgb(100%,100%,100%);fill-opacity:1;" d="M 87.71875 14.621094 L 88.636719 18.773438 L 89.558594 14.621094 "/>
<path style="fill:none;stroke-width:25;stroke-linecap:round;stroke-linejoin:round;stroke:rgb(100%,100%,100%);stroke-opacity:1;stroke-miterlimit:10;" d="M 877.1875 663.789063 L 886.367188 622.265625 L 895.585938 663.789063 L 877.1875 663.789063 Z M 877.1875 663.789063 " transform="matrix(0.1,0,0,-0.1,0,81)"/>
<path style="fill:none;stroke-width:25;stroke-linecap:round;stroke-linejoin:round;stroke:rgb(100%,100%,100%);stroke-opacity:1;stroke-miterlimit:10;" d="M 1254.882813 480.546875 L 1254.882813 579.765625 " transform="matrix(0.1,0,0,-0.1,0,81)"/>
<path style=" stroke:none;fill-rule:nonzero;fill:rgb(100%,100%,100%);fill-opacity:1;" d="M 126.40625 27.175781 L 125.488281 23.023438 L 124.566406 27.175781 "/>
<path style="fill:none;stroke-width:25;stroke-linecap:round;stroke-linejoin:round;stroke:rgb(100%,100%,100%);stroke-opacity:1;stroke-miterlimit:10;" d="M 1264.0625 538.242188 L 1254.882813 579.765625 L 1245.664063 538.242188 L 1264.0625 538.242188 Z M 1264.0625 538.242188 " transform="matrix(0.1,0,0,-0.1,0,81)"/>
<path style="fill:none;stroke-width:25;stroke-linecap:round;stroke-linejoin:round;stroke:rgb(100%,100%,100%);stroke-opacity:1;stroke-miterlimit:10;" d="M 517.851563 480.546875 L 517.851563 579.765625 " transform="matrix(0.1,0,0,-0.1,0,81)"/>
<path style=" stroke:none;fill-rule:nonzero;fill:rgb(100%,100%,100%);fill-opacity:1;" d="M 52.707031 27.175781 L 51.785156 23.023438 L 50.867188 27.175781 "/>
<path style="fill:none;stroke-width:25;stroke-linecap:round;stroke-linejoin:round;stroke:rgb(100%,100%,100%);stroke-opacity:1;stroke-miterlimit:10;" d="M 527.070313 538.242188 L 517.851563 579.765625 L 508.671875 538.242188 L 527.070313 538.242188 Z M 527.070313 538.242188 " transform="matrix(0.1,0,0,-0.1,0,81)"/>
<path style="fill:none;stroke-width:5;stroke-linecap:round;stroke-linejoin:round;stroke:rgb(0%,0%,0%);stroke-opacity:1;stroke-miterlimit:10;" d="M 886.367188 721.484375 L 886.367188 622.265625 " transform="matrix(0.1,0,0,-0.1,0,81)"/>
<path style=" stroke:none;fill-rule:nonzero;fill:rgb(0%,0%,0%);fill-opacity:1;" d="M 87.71875 14.621094 L 88.636719 18.773438 L 89.558594 14.621094 "/>
<path style="fill:none;stroke-width:5;stroke-linecap:round;stroke-linejoin:round;stroke:rgb(0%,0%,0%);stroke-opacity:1;stroke-miterlimit:10;" d="M 877.1875 663.789063 L 886.367188 622.265625 L 895.585938 663.789063 L 877.1875 663.789063 Z M 877.1875 663.789063 " transform="matrix(0.1,0,0,-0.1,0,81)"/>
<path style="fill:none;stroke-width:5;stroke-linecap:round;stroke-linejoin:round;stroke:rgb(0%,0%,0%);stroke-opacity:1;stroke-miterlimit:10;" d="M 1254.882813 480.546875 L 1254.882813 579.765625 " transform="matrix(0.1,0,0,-0.1,0,81)"/>
<path style=" stroke:none;fill-rule:nonzero;fill:rgb(0%,0%,0%);fill-opacity:1;" d="M 126.40625 27.175781 L 125.488281 23.023438 L 124.566406 27.175781 "/>
<path style="fill:none;stroke-width:5;stroke-linecap:round;stroke-linejoin:round;stroke:rgb(0%,0%,0%);stroke-opacity:1;stroke-miterlimit:10;" d="M 1264.0625 538.242188 L 1254.882813 579.765625 L 1245.664063 538.242188 L 1264.0625 538.242188 Z M 1264.0625 538.242188 " transform="matrix(0.1,0,0,-0.1,0,81)"/>
<path style="fill:none;stroke-width:5;stroke-linecap:round;stroke-linejoin:round;stroke:rgb(0%,0%,0%);stroke-opacity:1;stroke-miterlimit:10;" d="M 517.851563 480.546875 L 517.851563 579.765625 " transform="matrix(0.1,0,0,-0.1,0,81)"/>
<path style=" stroke:none;fill-rule:nonzero;fill:rgb(0%,0%,0%);fill-opacity:1;" d="M 52.707031 27.175781 L 51.785156 23.023438 L 50.867188 27.175781 "/>
<path style="fill:none;stroke-width:5;stroke-linecap:round;stroke-linejoin:round;stroke:rgb(0%,0%,0%);stroke-opacity:1;stroke-miterlimit:10;" d="M 527.070313 538.242188 L 517.851563 579.765625 L 508.671875 538.242188 L 527.070313 538.242188 Z M 527.070313 538.242188 " transform="matrix(0.1,0,0,-0.1,0,81)"/>
<path style="fill:none;stroke-width:5;stroke-linecap:round;stroke-linejoin:round;stroke:rgb(0%,0%,0%);stroke-opacity:1;stroke-miterlimit:10;" d="M 1375.351563 345.898438 C 1375.351563 377.851563 1362.65625 408.476563 1340.078125 431.09375 C 1317.460938 453.671875 1286.835938 466.367188 1254.882813 466.367188 C 1222.929688 466.367188 1192.265625 453.671875 1169.6875 431.09375 C 1147.109375 408.476563 1134.414063 377.851563 1134.414063 345.898438 C 1134.414063 313.945313 1147.109375 283.320313 1169.6875 260.703125 C 1192.265625 238.125 1222.929688 225.429688 1254.882813 225.429688 C 1286.835938 225.429688 1317.460938 238.125 1340.078125 260.703125 C 1362.65625 283.320313 1375.351563 313.945313 1375.351563 345.898438 Z M 1375.351563 345.898438 " transform="matrix(0.1,0,0,-0.1,0,81)"/>
<path style="fill:none;stroke-width:5;stroke-linecap:round;stroke-linejoin:round;stroke:rgb(0%,0%,0%);stroke-opacity:1;stroke-miterlimit:10;" d="M 638.359375 345.898438 C 638.359375 377.851563 625.664063 408.476563 603.046875 431.09375 C 580.46875 453.671875 549.804688 466.367188 517.851563 466.367188 C 485.9375 466.367188 455.273438 453.671875 432.695313 431.09375 C 410.078125 408.476563 397.382813 377.851563 397.382813 345.898438 C 397.382813 313.945313 410.078125 283.320313 432.695313 260.703125 C 455.273438 238.125 485.9375 225.429688 517.851563 225.429688 C 549.804688 225.429688 580.46875 238.125 603.046875 260.703125 C 625.664063 283.320313 638.359375 313.945313 638.359375 345.898438 Z M 638.359375 345.898438 " transform="matrix(0.1,0,0,-0.1,0,81)"/>
</g>
</svg>
