<?xml version="1.0" encoding="UTF-8"?>
<svg xmlns="http://www.w3.org/2000/svg" xmlns:xlink="http://www.w3.org/1999/xlink" width="287.5204340564336pt" height="171.47302994931883pt" viewBox="0 0 166 99" version="1.1">
<defs>
<clipPath id="clip1">
  <path d="M -222 666 L 390 666 L 390 -126 L -222 -126 L -222 666 Z M -222 666 "/>
</clipPath>
<clipPath id="clip2">
  <path d="M 0.00390625 99.390625 L 167.25 99.390625 L 167.25 -1.199219 L 0.00390625 -1.199219 L 0.00390625 99.390625 Z M 0.00390625 99.390625 "/>
</clipPath>
</defs>
<g id="surface0">
<g clip-path="url(#clip1)" clip-rule="nonzero">
<g clip-path="url(#clip2)" clip-rule="nonzero">
<path style="fill:none;stroke-width:10;stroke-linecap:butt;stroke-linejoin:miter;stroke:rgb(13.730068%,12.159915%,12.54902%);stroke-opacity:1;stroke-miterlimit:4;" d="M 10.00754 810.798427 C 50.007014 770.798953 32.924241 10.003156 95.002393 10.003156 C 155.597889 10.003156 231.890198 577.505766 292.485694 577.505766 C 353.371276 577.505766 379.124362 170.001052 440.009943 170.001052 C 501.540157 170.001052 568.453056 437.491491 630.015502 437.491491 C 690.804388 437.491491 731.706349 235.012284 792.495235 235.012284 C 852.897341 235.012284 917.102782 357.492543 977.504889 357.492543 C 1038.068154 357.492543 1081.935425 252.514068 1142.49869 252.514068 C 1204.190063 252.514068 1265.816972 342.085816 1363.317704 294.576368 " transform="matrix(0.121193,0,0,-0.121193,0.002,99.392)"/>
</g>
</g>
</g>
</svg>
